<svg width="21" height="21" viewBox="0 0 21 21" fill="none" xmlns="http://www.w3.org/2000/svg">
<path d="M10.5 5.5C10.721 5.5 10.933 5.5878 11.0893 5.74408C11.2455 5.90036 11.3333 6.11232 11.3333 6.33333V9.66667H14.6667C14.8877 9.66667 15.0996 9.75446 15.2559 9.91074C15.4122 10.067 15.5 10.279 15.5 10.5C15.5 10.721 15.4122 10.933 15.2559 11.0893C15.0996 11.2455 14.8877 11.3333 14.6667 11.3333H11.3333V14.6667C11.3333 14.8877 11.2455 15.0996 11.0893 15.2559C10.933 15.4122 10.721 15.5 10.5 15.5C10.279 15.5 10.067 15.4122 9.91074 15.2559C9.75446 15.0996 9.66667 14.8877 9.66667 14.6667V11.3333H6.33333C6.11232 11.3333 5.90036 11.2455 5.74408 11.0893C5.5878 10.933 5.5 10.721 5.5 10.5C5.5 10.279 5.5878 10.067 5.74408 9.91074C5.90036 9.75446 6.11232 9.66667 6.33333 9.66667H9.66667V6.33333C9.66667 6.11232 9.75446 5.90036 9.91074 5.74408C10.067 5.5878 10.279 5.5 10.5 5.5Z" fill="#003762"/>
<path d="M0.5 10.5C0.5 9.18678 0.758658 7.88642 1.2612 6.67317C1.76375 5.45991 2.50035 4.35752 3.42893 3.42893C4.35752 2.50035 5.45991 1.76375 6.67317 1.2612C7.88642 0.758658 9.18678 0.5 10.5 0.5C11.8132 0.5 13.1136 0.758658 14.3268 1.2612C15.5401 1.76375 16.6425 2.50035 17.5711 3.42893C18.4997 4.35752 19.2362 5.45991 19.7388 6.67317C20.2413 7.88642 20.5 9.18678 20.5 10.5C20.5 13.1522 19.4464 15.6957 17.5711 17.5711C15.6957 19.4464 13.1522 20.5 10.5 20.5C7.84784 20.5 5.3043 19.4464 3.42893 17.5711C1.55357 15.6957 0.5 13.1522 0.5 10.5ZM10.5 2.16667C8.28986 2.16667 6.17025 3.04464 4.60744 4.60744C3.04464 6.17025 2.16667 8.28986 2.16667 10.5C2.16667 12.7101 3.04464 14.8298 4.60744 16.3926C6.17025 17.9554 8.28986 18.8333 10.5 18.8333C12.7101 18.8333 14.8298 17.9554 16.3926 16.3926C17.9554 14.8298 18.8333 12.7101 18.8333 10.5C18.8333 8.28986 17.9554 6.17025 16.3926 4.60744C14.8298 3.04464 12.7101 2.16667 10.5 2.16667Z" fill="#003762"/>
</svg>
