<svg width="17" height="13" viewBox="0 0 17 13" fill="none" xmlns="http://www.w3.org/2000/svg">
<path d="M4.21429 0V4.13793V0ZM12.7857 0V4.13793V0ZM3.67857 6.2069H6.89286H3.67857ZM13.3214 6.2069H10.1071H13.3214ZM3.67857 8.68966H6.89286H3.67857ZM10.1071 8.68966H13.3214H10.1071ZM2.07143 2.06897H14.9286C15.2127 2.06897 15.4853 2.15616 15.6862 2.31136C15.8871 2.46656 16 2.67706 16 2.89655V11.1724C16 11.3919 15.8871 11.6024 15.6862 11.7576C15.4853 11.9128 15.2127 12 14.9286 12H2.07143C1.78727 12 1.51475 11.9128 1.31381 11.7576C1.11288 11.6024 1 11.3919 1 11.1724V2.89655C1 2.67706 1.11288 2.46656 1.31381 2.31136C1.51475 2.15616 1.78727 2.06897 2.07143 2.06897V2.06897Z" stroke="#003762" stroke-width="1.5"/>
</svg>
