<svg width="22" height="22" viewBox="0 0 22 22" fill="none" xmlns="http://www.w3.org/2000/svg">
<path d="M5.48266 0.5V7.39655V0.5ZM16.5171 0.5V7.39655V0.5ZM4.793 10.8448H8.93093H4.793ZM17.2068 10.8448H13.0689H17.2068ZM4.793 14.9828H8.93093H4.793ZM13.0689 14.9828H17.2068H13.0689ZM2.72404 3.94828H19.2758C19.6416 3.94828 19.9924 4.0936 20.2511 4.35227C20.5098 4.61094 20.6551 4.96177 20.6551 5.32759V19.1207C20.6551 19.4865 20.5098 19.8373 20.2511 20.096C19.9924 20.3547 19.6416 20.5 19.2758 20.5H2.72404C2.35822 20.5 2.00739 20.3547 1.74872 20.096C1.49005 19.8373 1.34473 19.4865 1.34473 19.1207V5.32759C1.34473 4.96177 1.49005 4.61094 1.74872 4.35227C2.00739 4.0936 2.35822 3.94828 2.72404 3.94828V3.94828Z" stroke="#003762" stroke-width="1.5"/>
</svg>
