<svg width="160" height="155" viewBox="0 0 160 155" fill="none" xmlns="http://www.w3.org/2000/svg">
<path d="M82.4134 136.248C71.0214 136.398 59.842 133.155 50.2951 126.934C40.7481 120.712 33.2643 111.791 28.794 101.305C24.3236 90.8181 23.0685 79.2385 25.1879 68.0366C27.3074 56.8347 32.7058 46.5158 40.6976 38.3903C48.6894 30.2648 58.9141 24.6994 70.0731 22.4008C81.2321 20.1023 92.822 21.1742 103.371 25.4806C113.92 29.7869 122.952 37.1334 129.32 46.587C135.689 56.0406 139.105 67.1749 139.137 78.5758C139.241 93.746 133.327 108.338 122.693 119.15C112.059 129.962 97.5727 136.111 82.4134 136.248Z" fill="#3EBDA8"/>
<path d="M28.9584 12.9831C28.9895 14.0485 28.8075 15.1095 28.4231 16.1035C28.0387 17.0976 27.4596 18.0047 26.7198 18.7716C25.9801 19.5384 25.0946 20.1496 24.1154 20.5692C23.1363 20.9887 22.0832 21.2082 21.0181 21.2146C18.863 21.2289 16.7884 20.3963 15.2404 18.8958C13.6924 17.3953 12.7947 15.3468 12.7404 13.1909C12.7265 11.0073 13.5747 8.90652 15.1005 7.34554C16.6264 5.78456 18.7065 4.88965 20.8883 4.85547C23.0313 4.87595 25.0799 5.74046 26.5904 7.26174C28.1009 8.78302 28.9516 10.8386 28.9584 12.9831Z" fill="#3EBDA8"/>
<path d="M149.024 33.4718C147.404 33.411 145.871 32.7206 144.752 31.5472C143.633 30.3738 143.015 28.8099 143.03 27.1878C143.03 25.5625 143.675 24.0037 144.823 22.8545C145.972 21.7052 147.529 21.0596 149.153 21.0596C150.778 21.0596 152.335 21.7052 153.484 22.8545C154.632 24.0037 155.277 25.5625 155.277 27.1878C155.281 28.0118 155.122 28.8283 154.809 29.5906C154.496 30.3528 154.036 31.0458 153.455 31.6297C152.874 32.2135 152.183 32.6768 151.423 32.9929C150.662 33.309 149.847 33.4718 149.024 33.4718Z" fill="#3EBDA8"/>
<path d="M16.7628 113.346C16.7734 113.894 16.6732 114.439 16.4683 114.948C16.2634 115.457 15.958 115.919 15.5703 116.307C15.1827 116.695 14.7207 117.001 14.2122 117.206C13.7037 117.411 13.1591 117.511 12.611 117.501C11.5845 117.398 10.6275 116.935 9.91011 116.194C9.19269 115.452 8.76134 114.48 8.69272 113.45C8.68557 112.888 8.79182 112.33 9.00511 111.809C9.21841 111.289 9.53437 110.817 9.93409 110.422C10.3338 110.027 10.8091 109.717 11.3314 109.51C11.8538 109.303 12.4126 109.203 12.9743 109.217C14.0205 109.271 15.0038 109.734 15.7124 110.506C16.421 111.278 16.7982 112.298 16.7628 113.346Z" fill="#3EBDA8"/>
<path d="M58.1247 148.895C58.1126 149.631 57.8221 150.335 57.3116 150.865C56.8011 151.395 56.1088 151.712 55.3742 151.751C54.5918 151.731 53.8487 151.404 53.3051 150.84C52.7615 150.277 52.4608 149.522 52.4679 148.739C52.5005 147.997 52.8132 147.295 53.343 146.774C53.8728 146.254 54.5801 145.954 55.3223 145.935C56.084 145.962 56.8046 146.287 57.3288 146.841C57.853 147.395 58.1388 148.132 58.1247 148.895Z" fill="#3EBDA8"/>
<path d="M90.9499 10.6984C90.4121 10.6859 89.8991 10.4701 89.5139 10.0943C89.1287 9.7185 88.9001 9.21068 88.874 8.67301C88.897 8.1125 89.1229 7.57949 89.5096 7.17337C89.8964 6.76726 90.4175 6.51577 90.9759 6.46582C91.5311 6.50555 92.0501 6.75632 92.4264 7.16673C92.8027 7.57713 93.0079 8.11606 92.9999 8.67301C92.9865 9.21044 92.7654 9.72175 92.3831 10.0995C92.0008 10.4772 91.4871 10.6919 90.9499 10.6984Z" fill="#3EBDA8"/>
<path d="M142.718 96.9346C142.187 96.9563 141.668 96.7708 141.271 96.4171C140.874 96.0635 140.63 95.5694 140.59 95.039C140.596 94.4783 140.818 93.9415 141.209 93.5402C141.601 93.1389 142.132 92.9038 142.692 92.8838C142.968 92.8838 143.241 92.9382 143.496 93.0439C143.751 93.1496 143.983 93.3045 144.178 93.4998C144.373 93.6951 144.528 93.927 144.634 94.1822C144.739 94.4374 144.794 94.7109 144.794 94.9871C144.773 95.5198 144.544 96.023 144.155 96.3875C143.767 96.7521 143.25 96.9487 142.718 96.9346Z" fill="#3EBDA8"/>
<path d="M140.746 135.859C140.702 136.39 140.462 136.885 140.074 137.249C139.686 137.614 139.177 137.822 138.645 137.832C138.115 137.832 137.606 137.622 137.232 137.247C136.857 136.872 136.646 136.363 136.646 135.833C136.646 135.303 136.857 134.794 137.232 134.419C137.606 134.044 138.115 133.834 138.645 133.834C138.92 133.811 139.196 133.848 139.456 133.94C139.716 134.033 139.953 134.18 140.152 134.372C140.351 134.563 140.507 134.795 140.609 135.051C140.712 135.308 140.758 135.583 140.746 135.859Z" fill="#3EBDA8"/>
<path d="M6.25363 66.0596C6.25363 66.579 6.04604 66.9165 5.55302 66.8906C5.33255 66.8777 5.12494 66.7825 4.9712 66.6238C4.81746 66.4652 4.72877 66.2546 4.72266 66.0337C4.72266 65.5403 5.00809 65.3326 5.44922 65.3326C5.55253 65.3118 5.65927 65.3155 5.76087 65.3435C5.86248 65.3714 5.95614 65.4228 6.03434 65.4935C6.11253 65.5641 6.1731 65.6522 6.21118 65.7505C6.24926 65.8488 6.2638 65.9547 6.25363 66.0596Z" fill="#3EBDA8"/>
<path d="M104.184 144.325C104.184 144.792 103.951 145.104 103.458 145.052C102.965 145 102.861 144.714 102.835 144.325C102.809 143.935 103.017 143.52 103.51 143.52C104.003 143.52 104.159 143.883 104.184 144.325Z" fill="#3EBDA8"/>
<path d="M88.2256 58.4258C88.5569 58.6042 88.8276 58.8773 89.0032 59.2103C89.1789 59.5432 89.2514 59.921 89.2116 60.2954C89.1808 60.4424 89.1831 60.5945 89.2183 60.7406C89.2535 60.8866 89.3208 61.023 89.4152 61.1399C89.5096 61.2567 89.6287 61.351 89.7641 61.4161C89.8994 61.4811 90.0475 61.5152 90.1977 61.5158C92.4791 61.7903 94.5651 62.9395 96.017 64.7217C97.4689 66.5039 98.1734 68.7802 97.9823 71.0717C97.9823 76.9662 97.9823 82.8866 97.9823 88.7811C97.9302 90.6748 97.2487 92.497 96.0456 93.9596C94.8425 95.4222 93.1865 96.4417 91.3394 96.8568C90.544 97.0371 89.738 97.1672 88.9262 97.2463H72.5006C71.2819 97.2778 70.0693 97.0633 68.9351 96.6157C67.8009 96.1682 66.7684 95.4967 65.8991 94.6413C65.0298 93.7859 64.3415 92.7642 63.8752 91.6369C63.4089 90.5097 63.1742 89.3 63.185 88.08C62.9774 82.3413 63.185 76.6026 63.185 70.8639C63.0983 68.8204 63.7049 66.8076 64.9063 65.1528C66.1076 63.498 67.833 62.2986 69.802 61.7495C70.0251 61.7102 70.2535 61.7102 70.4766 61.7495C71.5405 61.7495 72.1374 61.3341 72.0076 60.1136C71.98 59.9081 71.9966 59.6991 72.0563 59.5006C72.116 59.302 72.2175 59.1186 72.3539 58.9625C72.4903 58.8064 72.6584 58.6813 72.8471 58.5956C73.0358 58.5099 73.2406 58.4656 73.4478 58.4656C73.655 58.4656 73.8598 58.5099 74.0484 58.5956C74.2371 58.6813 74.4053 58.8064 74.5416 58.9625C74.678 59.1186 74.7795 59.302 74.8392 59.5006C74.8989 59.6991 74.9155 59.9081 74.8879 60.1136C74.8879 61.2562 75.355 61.4639 76.367 61.4379C79.3511 61.4379 82.3093 61.4379 85.2674 61.4379C85.8902 61.4379 86.3313 61.4379 86.3313 60.5551C86.2794 58.7114 86.5649 58.5037 88.2256 58.4258Z" fill="white"/>
<path d="M90.0682 87.5602C90.0766 87.9935 89.9206 88.4138 89.6317 88.7366C89.3429 89.0594 88.9425 89.2607 88.5113 89.3C88.0864 89.2507 87.6931 89.0507 87.4028 88.7363C87.1124 88.422 86.9442 88.014 86.9284 87.5862C86.9158 87.3783 86.9487 87.1702 87.0249 86.9765C87.1011 86.7827 87.2187 86.608 87.3695 86.4645C87.5204 86.321 87.7007 86.2122 87.8979 86.1458C88.0951 86.0794 88.3045 86.057 88.5113 86.0801C88.7156 86.0521 88.9236 86.0704 89.1198 86.1338C89.3161 86.1971 89.4956 86.3037 89.6451 86.4459C89.7946 86.588 89.9102 86.7619 89.9835 86.9548C90.0567 87.1477 90.0857 87.3546 90.0682 87.5602Z" fill="#3EBDA8"/>
<path d="M80.6225 82.1332C80.2093 82.1199 79.8171 81.948 79.5272 81.6531C79.2374 81.3581 79.072 80.9629 79.0656 80.5492C79.0546 80.344 79.0865 80.1387 79.1592 79.9464C79.232 79.7541 79.3439 79.5792 79.4879 79.4326C79.632 79.286 79.8049 79.1711 79.9958 79.0951C80.1867 79.0191 80.3913 78.9837 80.5966 78.9912C80.7998 78.9878 81.0017 79.0249 81.1904 79.1003C81.3792 79.1757 81.551 79.2881 81.6959 79.4307C81.8409 79.5733 81.956 79.7433 82.0345 79.9309C82.1131 80.1185 82.1535 80.3199 82.1535 80.5233C82.154 80.9371 81.9952 81.3352 81.7101 81.635C81.425 81.9348 81.0356 82.1132 80.6225 82.1332Z" fill="#3EBDA8"/>
<path d="M88.4335 78.9912C88.8421 78.977 89.24 79.1243 89.541 79.4013C89.842 79.6782 90.0221 80.0626 90.0423 80.4713C90.0708 80.691 90.0522 80.9143 89.9876 81.1262C89.9231 81.3381 89.8141 81.5338 89.668 81.7003C89.5219 81.8667 89.342 82.0001 89.1403 82.0914C88.9386 82.1828 88.7197 82.23 88.4983 82.23C88.2769 82.23 88.0581 82.1828 87.8564 82.0914C87.6547 82.0001 87.4748 81.8667 87.3287 81.7003C87.1825 81.5338 87.0736 81.3381 87.009 81.1262C86.9445 80.9143 86.9259 80.691 86.9544 80.4713C86.9509 80.2759 86.9867 80.0819 87.0598 79.9007C87.1329 79.7196 87.2417 79.555 87.3798 79.4168C87.5178 79.2787 87.6823 79.1698 87.8633 79.0967C88.0443 79.0235 88.2383 78.9876 88.4335 78.9912Z" fill="#3EBDA8"/>
<path d="M82.1792 87.6643C82.1383 88.0507 81.9712 88.4128 81.7038 88.6944C81.4364 88.9761 81.0836 89.1617 80.7002 89.2224C80.2732 89.209 79.8678 89.0316 79.5682 88.727C79.2686 88.4223 79.0978 88.0138 79.0913 87.5864C79.0792 87.381 79.1116 87.1754 79.1863 86.9836C79.261 86.7919 79.3763 86.6186 79.5241 86.4756C79.672 86.3325 79.849 86.2232 80.043 86.1549C80.237 86.0867 80.4435 86.0613 80.6483 86.0804C80.8548 86.0765 81.0599 86.1153 81.2509 86.1942C81.4418 86.2731 81.6144 86.3905 81.758 86.5391C81.9017 86.6877 82.0132 86.8643 82.0856 87.0579C82.1581 87.2515 82.19 87.4579 82.1792 87.6643Z" fill="#3EBDA8"/>
<path d="M74.2652 80.4971C74.2462 80.9111 74.0734 81.303 73.7805 81.596C73.4877 81.8891 73.096 82.0621 72.6823 82.0811C72.2828 82.0746 71.901 81.9147 71.616 81.6343C71.331 81.3539 71.1646 80.9747 71.1514 80.575C71.167 80.1609 71.3298 79.766 71.6104 79.4613C71.8911 79.1567 72.2712 78.9623 72.6823 78.9131C73.0922 78.9431 73.4776 79.1197 73.7682 79.4105C74.0588 79.7013 74.2352 80.0869 74.2652 80.4971Z" fill="#3EBDA8"/>
<path d="M71.7998 88.8844C70.9954 87.9496 70.9176 87.1186 71.6441 86.4694C71.9211 86.2176 72.2819 86.0781 72.6561 86.0781C73.0304 86.0781 73.3911 86.2176 73.6681 86.4694C74.4207 87.0147 74.3688 88.0015 73.6681 89.0661C73.3639 89.1828 73.0368 89.2271 72.7126 89.1956C72.3883 89.164 72.0759 89.0575 71.7998 88.8844Z" fill="#3EBDA8"/>
<path d="M71.7998 88.8848H73.6422C73.5361 89.0297 73.3975 89.1475 73.2374 89.2287C73.0774 89.31 72.9004 89.3523 72.721 89.3523C72.5415 89.3523 72.3646 89.31 72.2045 89.2287C72.0445 89.1475 71.9058 89.0297 71.7998 88.8848Z" fill="#92ADDA"/>
</svg>
