<svg width="9" height="15" viewBox="0 0 9 15" fill="none" xmlns="http://www.w3.org/2000/svg">
<path d="M7.00558 14.9999C6.84548 15.0005 6.6873 14.9651 6.54265 14.8966C6.39801 14.828 6.27057 14.7278 6.16971 14.6035L0.993781 8.17557C0.836165 7.98387 0.75 7.74342 0.75 7.49528C0.75 7.24713 0.836165 7.00668 0.993781 6.81498L6.35189 0.38702C6.53378 0.168237 6.79516 0.030652 7.07853 0.00453332C7.36189 -0.0215853 7.64403 0.0659013 7.86287 0.247747C8.08172 0.429592 8.21934 0.690901 8.24547 0.974189C8.27159 1.25748 8.18408 1.53954 8.00219 1.75832L3.21204 7.50063L7.84144 13.2429C7.97248 13.4002 8.05572 13.5917 8.08131 13.7948C8.1069 13.9978 8.07377 14.204 7.98584 14.3888C7.89791 14.5736 7.75885 14.7294 7.58513 14.8377C7.41141 14.946 7.21029 15.0023 7.00558 14.9999Z" fill="#003762"/>
</svg>
