<svg width="12" height="16" viewBox="0 0 12 16" fill="none" xmlns="http://www.w3.org/2000/svg">
<path fill-rule="evenodd" clip-rule="evenodd" d="M5.83333 14.75C8.60958 14.75 10.8333 12.7663 10.8333 10.3486C10.8333 8.33975 9.50917 6.04137 8.06458 4.16037C7.37772 3.26996 6.63266 2.41709 5.83333 1.60625C5.03401 2.41709 4.28895 3.26996 3.60208 4.16037C2.1575 6.04137 0.833333 8.33975 0.833333 10.3486C0.833333 12.7659 3.05708 14.75 5.83333 14.75ZM5.26667 1.05125C3.80083 2.52837 0 6.71 0 10.3486C0 13.1938 2.61167 15.5 5.83333 15.5C9.055 15.5 11.6667 13.1938 11.6667 10.3486C11.6667 6.71 7.86583 2.52837 6.4 1.05125C6.05 0.69875 5.83333 0.5 5.83333 0.5C5.83333 0.5 5.61667 0.69875 5.26667 1.05125Z" fill="#003762"/>
</svg>
