<svg width="22" height="21" viewBox="0 0 22 21" fill="none" xmlns="http://www.w3.org/2000/svg">
<path d="M21 13H20C20 9.12998 16.87 5.99998 13 5.99998H12V4.72997C12.3041 4.55439 12.5566 4.30184 12.7322 3.9977C12.9077 3.69357 13.0001 3.34857 13 2.99741C12.9999 2.64625 12.9074 2.3013 12.7317 1.99726C12.556 1.69321 12.3033 1.44079 11.9991 1.26536C11.6949 1.08994 11.3499 0.9977 10.9987 0.997925C10.6476 0.99815 10.3026 1.09083 9.99867 1.26664C9.69469 1.44246 9.44236 1.69521 9.26705 1.99948C9.09174 2.30375 8.99964 2.64881 9 2.99997C9 3.73997 9.4 4.38998 10 4.72997V5.99998H9C5.13 5.99998 2 9.12998 2 13H1C0.45 13 0 13.45 0 14V17C0 17.55 0.45 18 1 18H2V19C2 19.5304 2.21071 20.0391 2.58579 20.4142C2.96086 20.7893 3.46957 21 4 21H18C19.11 21 20 20.11 20 19V18H21C21.55 18 22 17.55 22 17V14C22 13.45 21.55 13 21 13ZM7.68 16.04L6.5 14.86L5.32 16.04L4.14 14.86L6.5 12.5L8.86 14.86L7.68 16.04ZM16.68 16.04L15.5 14.86L14.32 16.04L13.14 14.86L15.5 12.5L17.86 14.86L16.68 16.04Z" fill="#003056"/>
</svg>
