<svg id="Layer_1" data-name="Layer 1" xmlns="http://www.w3.org/2000/svg" width="405.53" height="406.09" viewBox="0 0 405.53 406.09"><defs><style>.cls-1{fill:#edc61f;}.cls-2{fill:#3eba98;}.cls-3{fill:#281d1e;}.cls-4{fill:#f0617a;}.cls-5{fill:#f16178;}.cls-6{fill:#ef647d;}.cls-7{fill:#ef637d;}.cls-8{fill:#ee647a;}.cls-9{fill:#ee647c;}.cls-10{fill:#ef3f5f;}.cls-11{fill:#f16078;}.cls-12{fill:#ef3f60;}.cls-13{fill:#ee3f60;}.cls-14{fill:#ee3f5f;}.cls-15{fill:#f06078;}.cls-16{fill:#ee4060;}.cls-17{fill:#ef6079;}.cls-18{fill:#ed3f60;}.cls-19{fill:#ec4060;}.cls-20{fill:#e84162;}.cls-21{fill:#e74361;}.cls-22{fill:#e96076;}.cls-23{fill:#e15b71;}.cls-24{fill:#df5d76;}.cls-25{fill:#d3405a;}.cls-26{fill:#291e1e;}.cls-27{fill:#2b1d1f;}.cls-28{fill:#fffcfc;}.cls-29{fill:#fbf5f5;}.cls-30{fill:#faf2f1;}.cls-31{fill:#fcf9fa;}.cls-32{fill:#fdf4f5;}</style></defs><path class="cls-1" d="M9,189.06a14,14,0,0,0,.45-5.15.89.89,0,0,0,.12-1.1,9.14,9.14,0,0,0,.44-4,.92.92,0,0,0,.19-1.1,166.73,166.73,0,0,1,3.95-22,193.6,193.6,0,0,1,12-33.6,209.69,209.69,0,0,1,10.29-19.52A200.4,200.4,0,0,1,52.51,79.94c3.32-4.07,7.21-7.59,10.47-11.7l.84-.72a175.34,175.34,0,0,1,17.6-16,182.13,182.13,0,0,1,27-18.3,192.66,192.66,0,0,1,38.93-16.13c5.68-1.72,11.51-2.73,17.23-4.25a2,2,0,0,0,1.72-.39,5.63,5.63,0,0,0,3-.59l.07.11.07-.14a32.23,32.23,0,0,0,7-1,.82.82,0,0,0,1.09-.2,10,10,0,0,0,4-.45.75.75,0,0,0,1.09-.11c7.71-.39,15.41-1.08,23.14-.86l10.45.3a1.58,1.58,0,0,0,1.65.13,12.07,12.07,0,0,0,4.59.42.76.76,0,0,0,1.1.12,10.67,10.67,0,0,0,4,.46.84.84,0,0,0,1.1.19,5.45,5.45,0,0,0,2.88.38.91.91,0,0,0,1.09.19,5.74,5.74,0,0,0,3,.45l.08.13,0-.11c8.84,2,17.71,3.84,26.36,6.68a192.4,192.4,0,0,1,93,65,188.33,188.33,0,0,1,38.59,87c6.39,38.3,2,75.41-13.76,111-16.17,36.5-41.37,65.31-75.17,86.47a188.67,188.67,0,0,1-76,27.32,207.66,207.66,0,0,1-47.54.63,181.66,181.66,0,0,1-36.09-7.24,197,197,0,0,1-37.84-16.17c-1-.53-1.86-1.18-2.78-1.77l-.81-.53a123.36,123.36,0,0,1-18.08-11.93c-.57-.45-1.08-1-1.62-1.48a2.76,2.76,0,0,0-1.89-1.26A195.86,195.86,0,0,1,50,323.2c-3.95-5-7.7-10.09-11.12-15.38a181.21,181.21,0,0,1-10.68-19.2,194.66,194.66,0,0,1-14.31-39.21,144.62,144.62,0,0,1-3.56-20.61,1,1,0,0,0-.23-1.12,11.41,11.41,0,0,0-.51-4.57.9.9,0,0,0-.1-1.1A13.79,13.79,0,0,0,9,216.86a3.6,3.6,0,0,0-.13-2.79q0-10.83,0-21.66A5.14,5.14,0,0,0,9,189.06Zm344.11,118a60.59,60.59,0,0,0,5.79-8.67c2.29-3.88,4.92-7.6,6.35-11.94a48.82,48.82,0,0,0,5.9-12.6,20.39,20.39,0,0,0,3-7.39,89.38,89.38,0,0,0,4.87-14.89,119.17,119.17,0,0,0,4.56-21.72c2-10.26,2.15-20.63,2-31a174.86,174.86,0,0,0-8.46-51.25A181,181,0,0,0,326,67.88a179.34,179.34,0,0,0-55.4-34.77c-9.4-3.73-19-7-29-8.69a135.67,135.67,0,0,0-22.49-3.54c-3-.24-5.93-1-8.93-.18a89.52,89.52,0,0,0-17.09,0,14.35,14.35,0,0,0-2.51-.26,168.49,168.49,0,0,0-27.72,4.07,5.83,5.83,0,0,0-.84.06A183.82,183.82,0,0,0,33.51,132.91c-11,26.37-15.25,53.89-13.58,82.34.26,4.41.37,8.88,1.61,13.18.13,1.3.17,2.62.41,3.9,1.28,6.88,2.2,13.85,4.74,20.44a81.38,81.38,0,0,0,4.66,14.55,43,43,0,0,0,3.81,9.19c1.59,4.29,3.27,8.54,6.06,12.23,2.56,6.39,6.44,12,10.4,17.56a20.65,20.65,0,0,0,1.09,1.95,184.29,184.29,0,0,0,31.23,34.24,137.79,137.79,0,0,0,19.36,14.24c.37.29.73.6,1.13.86A180.74,180.74,0,0,0,163.64,382c7.83,1.71,15.74,3.15,23.81,3.27a120.73,120.73,0,0,0,28.37.13,31.77,31.77,0,0,0,3.38,0,182.6,182.6,0,0,0,36.9-7.19,173,173,0,0,0,45-20.94c.82-.47,1.66-.88,2.44-1.4a181.76,181.76,0,0,0,30.86-25.71A153.5,153.5,0,0,0,353.15,307.1Z"/><circle class="cls-2" cx="202.76" cy="202.52" r="182.87"/><path class="cls-3" d="M293.94,261.09c.92,1.73.32,3-.34,4.35a41.79,41.79,0,0,1-50.15,21.31l-3-.95c-.25,4.2-.06,8.34-.86,12.39a13.33,13.33,0,0,1-3.91,7.38,7.56,7.56,0,0,1-6.08,2.25,89.13,89.13,0,0,1-13.37-2.27c-3.58-.9-5.41-3.29-6.08-6.74a32.62,32.62,0,0,1-.51-5.5,45.37,45.37,0,0,0-10.19-28.46c-5.12-6.42-11.39-9.43-20.07-8.51a74.37,74.37,0,0,1-37.82-5.6C130.66,246,123.71,238,121.85,226a14.75,14.75,0,0,0-.38-1.56c0-.06-.08-.1-.21-.24a7.49,7.49,0,0,0-1,.44c-10.14,6.41-21.4,4.46-30.26-2.43-7-5.44-11.55-12.44-12.51-21.45a11.89,11.89,0,0,1,1-7c.91-1.68.4-2.68-.67-4a32,32,0,0,1-2.52-37,39.08,39.08,0,0,1,7.69-9,5.71,5.71,0,0,0,1.59-3.5,49.19,49.19,0,0,1,4-11.91c4.82-10.53,20.11-19.57,34.13-17.28a6.3,6.3,0,0,0,6.13-2.2c9.09-9.9,20.29-11.89,32.82-8.51a6.67,6.67,0,0,0,6.95-1.52c12.49-11.42,33.9-11.8,46.86-.88a5.78,5.78,0,0,0,5.68,1.39c3.38-.88,6.83-1.16,10.08.67,1,.56,2,.16,2.9-.06,9.47-2.16,17.74,2.22,21.19,11.3.41,1.08.82,1.32,2,1.15,16.14-2.36,29.66,7.8,32.06,24,.58,3.9.58,3.9,4.41,4.37,8.92,1.1,17.07,9.49,18.55,18.93a28.94,28.94,0,0,1-1,13.62,2,2,0,0,0,.92,2.62c5.27,3.92,7.49,9.32,7.19,15.81,0,.66-.39,1.29.65,1.61,3.47,1.09,5,3.85,5.77,7.14a30.44,30.44,0,0,1,.35,13.23,11.22,11.22,0,0,1-3.77,6.67c-.95.75-.71,1.2-.15,2C326.1,228,325,234,319.59,237.78c-.66.47-1.52.71-1.18,1.9,1.4,4.87-.73,8.75-3.89,12.08C309.08,257.49,302.78,261.62,293.94,261.09Z"/><path class="cls-4" d="M64.56,243.2c-1.52-6.65-5.51-10.54-12.07-12.09,6.39-1.64,10.51-5.26,12-11.91,1.85,6.33,5.51,10.51,12.28,11.85C70.14,232.58,66.18,236.56,64.56,243.2Z"/><path class="cls-5" d="M339.5,159.16c6.21-1.58,10.25-5.24,11.77-11.86,1.59,6.47,5.42,10.39,11.78,11.56-.36,1.28-1.31,1.11-1.95,1.31a12.59,12.59,0,0,0-8.62,8,12.57,12.57,0,0,1-.7,1.43c-.19.37-.4,1-.59,1-.5,0-.6-.61-.79-1C347.22,162.56,347.22,162.56,339.5,159.16Z"/><path class="cls-6" d="M62.18,181.26c2.13,4.58,2.13,4.58,6.64,6.67a8.18,8.18,0,0,0-6.51,5.95,9.17,9.17,0,0,0-6.11-6.15C59.44,186.82,61.31,184.77,62.18,181.26Z"/><path class="cls-7" d="M92.47,249.39c-3.29.9-5.23,2.88-6.11,6.71-1.21-3.55-2.87-5.9-6.28-6.7a9.06,9.06,0,0,0,6.16-6.18A8.73,8.73,0,0,0,92.47,249.39Z"/><path class="cls-8" d="M326.73,142.55c-.93-3.14-2.89-5.11-6.69-6.05,3.66-1.13,5.83-2.9,6.69-6.18,1,3.13,2.88,5.2,6.21,6A9.24,9.24,0,0,0,326.73,142.55Z"/><path class="cls-9" d="M333.06,196.64a8.67,8.67,0,0,0-6-6,8.68,8.68,0,0,0,6-6.08,8.58,8.58,0,0,0,6.07,6C336.1,191.75,334,193.45,333.06,196.64Z"/><path class="cls-10" d="M297.12,199.38a13.06,13.06,0,0,1-6.75,2c-1.55.12-2.31.81-2,2.36,4,19.43-17.72,34.7-36.14,27.39-3.94-1.57-8-2.51-12.38-1.76a10.12,10.12,0,0,0-4.1,1.42c-4.28,2.94-8.76,2.79-13.43,1.28-1.16-.38-2.36-.68-3.54-1-5.38-1.56-10.21-.57-14.3,3.29-5.44,5.14-11.48,6.05-18.21,2.9-2.79-1.31-5.59-1.94-8.67-.77-1.42.53-2.84-.33-4.14-.93a16.68,16.68,0,0,1-6.48-5c-.64-.86-1.41-1.69-2.46-.9-1.21.92-.42,2,.32,2.76,1.29,1.4,3.4,2.54,3.81,4.14s-1.87,2.92-2.42,4.71a14.8,14.8,0,0,0-.51,7.26c.2,1,.53,1.83,1.75,1.67,1.37-.18,1.19-1.22,1-2.12a10.2,10.2,0,0,1,2-8.66c.8-1,1.6-1.53,2.9-.72a6.07,6.07,0,0,0,5.72.38,6.32,6.32,0,0,1,4.92.39,25,25,0,0,0,9.28,2.44,15.36,15.36,0,0,0,11.6-4.22c4.74-4.72,9.93-5.35,15.82-3.16a18.75,18.75,0,0,0,17-1.4c3.34-2,7-1.28,10.52-.25,4.56,1.34,9,3.23,13.87,3,12.47-.67,22.05-5.92,27.43-17.6a22.16,22.16,0,0,0,2.05-10.3c-.1-2.15.7-2.05,2.23-1.37a20.49,20.49,0,0,1,11.42,22.27c-.23,1.21-1.33,3.05.68,3.51,2.18.49,1.61-1.73,2-2.88a16.35,16.35,0,0,0,.34-5.71c0-1.25.15-1.91,1.62-1.58a20.49,20.49,0,0,0,7.53.38c1.7-.24,3.6,2,4.16,4.5.89,4-.86,7.1-4.8,8.65A7,7,0,0,0,315,237q-11.61,9.78-26.24,5.72c-2-.56-2.66.06-2.73,2a15.24,15.24,0,0,1-2.64,8.21c-2.12,3.11-5.13,4.6-8.78,5.33-4.53.92-8.79-.33-13.1-1.14-14.78-2.8-29.63-5.17-44.56-6.88-9.72-1.12-19.52-1-29,1.59-14.72,4-29,2.12-43.1-2.78-8.52-3-15.15-8.34-18.51-17.09-1.14-2.95-2.44-6.18-2.07-9.11,1-7.85-.26-16.3,5.28-23.16,2.95-3.66,6.55-6,11.29-6.22a9.68,9.68,0,0,0,6-2.47c8.31-7.08,18.85-8.18,28.51-3.07,4.37,2.32,5.47,2.22,9.24-1,4.6-4,9.3-7.82,15.29-9.56,6.46-1.87,12.71-1.7,18.59,2.07,3.19,2,4.54,1.89,7.18-.48,3.64-3.26,7.31-6.42,12.75-5.75,1.09.13,1.43-.71,1.53-1.62.57-5.35,3.59-8.65,8.62-10.19,2.09-.64,1.92-1.61.68-2.93,5.23-5.83,13-7.36,18.84-2.09,3.54,3.19,5.36,7.4,6.57,11.89.46,1.74,1.19,3.49.82,5.38-5.47,11.75-12.08,22.59-24.24,28.64a49.33,49.33,0,0,1-30.68,4.44,14.49,14.49,0,0,1-9.07-5c-1-1.15-2.26-1.58-2.82.15-2.05,6.27-7,9.07-12.74,10.91-7.13,2.31-14.49,2.4-21.87,1.64a6.1,6.1,0,0,0-3.94.73,27.06,27.06,0,0,1-30-2.46c-.3-.24-.59-.5-.88-.74a1.47,1.47,0,0,0-2.24,0c-.87.9-.27,1.52.38,2.12a22.92,22.92,0,0,0,7.12,4.58c1.57.61,1.91,1.36,1.9,3.19,0,3.3-2,6.12-1.76,9.42a9.57,9.57,0,0,0,1,3.73,1.48,1.48,0,0,0,1.9.88,1.3,1.3,0,0,0,.71-1.91,6.51,6.51,0,0,1,1.43-8.18,1.42,1.42,0,0,0-.13-2.23,1.88,1.88,0,0,1-.14-2.52c.43-.81,1.22-.31,1.87-.2a29.44,29.44,0,0,0,19-2.56,8.23,8.23,0,0,1,4.63-.87c8.8.61,17.49.36,25.72-3.42,3.78-1.73,7.05-4.06,9.2-7.69.65-1.09,1.08-1,2-.31a21.46,21.46,0,0,0,12.23,4.16c12.94.62,25.07-1.89,35.6-9.86A44.6,44.6,0,0,0,272.88,184a60.12,60.12,0,0,1,3.51-5.26,8,8,0,0,1,1.6,4,67.33,67.33,0,0,0,2.6,10.95,12.44,12.44,0,0,0,2.61,4.56c2.15,2.25,3.55,2.59,6.31,1.07a9.09,9.09,0,0,1,5.7-1.34C296.11,198.05,297.12,198.06,297.12,199.38Z"/><path class="cls-11" d="M161.17,181.9l-6.9,1.43c-3,.84-4.4-1.53-5.69-3.23a17.62,17.62,0,0,1-4-8.77,12,12,0,0,0-4.16-5c-1-2.13-2.71-2.05-4.58-1.51l-.59.59a78.74,78.74,0,0,0-3.42,11.43c-1,4.29-3.66,5.76-8,5.35-3.14-.3-5.87-1.64-8.67-2.88-6.68-2.94-13.23-6.11-19-10.6-.51-.39-1.31-.58-1.28-1.46,3.45-1.47,7.07-1.05,10.66-.91a14.47,14.47,0,0,1,1.6.17,1.44,1.44,0,0,0,1.88-1.21c.19-1.14-.67-1.44-1.56-1.56a34.41,34.41,0,0,0-11.23.1c-1.44.28-2.07,0-2.31-1.53-.67-4.27-1.2-8.53.14-12.76a13.56,13.56,0,0,1,14.69-9.64c.46.05.92.12,1.38.14.87,0,1.56-.32,1.68-1.21a1.3,1.3,0,0,0-1.38-1.51c-2.42,0-2.12-1.29-1.67-3,3.65-13.67,21.31-19.74,32.36-14.92,2.42,1,4.13.85,5.76-1.38,1.75-2.4,4.47-3.12,7.32-3.29,1.38-.09,2.76-.07,4.14-.11a1.37,1.37,0,0,0,.05-2.73c-5.13-.12-10.25-.14-13.85,4.45a1.63,1.63,0,0,1-2.34.56c-11.61-5.46-33,.41-36.62,18.7a2,2,0,0,1-1.69,1.77c-9.15,2.65-13.33,8.36-13.35,17.89,0,2.78.49,5.49.65,8.24a.88.88,0,0,1-1-.37c-3.57-4.67-6.17-9.73-6.39-15.76,2.4-2.25,3.36-5.11,4-8.29a31.34,31.34,0,0,1,31.87-25.49,14.1,14.1,0,0,1,2.52.14c4,.74,6.89-.6,9.8-3.52,8.05-8.05,17.86-10.51,28.78-7.13,3.92,1.22,6.77.64,9.83-2.08,4-3.58,9-2.87,13.76-1.76a22.63,22.63,0,0,1,6.31,2.77c.87.51,1.86,1.17,2.58-.06s-.26-1.94-1.24-2.5A27.78,27.78,0,0,0,180,95.57c2-1.53,4-1.76,6-2.07,10.5-1.66,20.17.13,28.5,7.16a8.28,8.28,0,0,0,4.38,2.11c-4.06,2.49-7,5.51-8.17,9.91-.12.44-.3.94-.86.95-2.38.06-4.34,1.31-6.48,2.41a18.59,18.59,0,0,0-6.9-12.23c-.83-.67-1.77-1.59-2.74-.34s.11,1.81.89,2.45a15.85,15.85,0,0,1,5.94,11,6.58,6.58,0,0,1-.77,3.64c-1.36,3-3.58,5-6.25,6.9-6.32,4.63-8.08,11.47-7.71,19a31.5,31.5,0,0,0,1,6.6c.26,1,.57,1.86,1.81,1.51s1.13-1.25.89-2.24a30.89,30.89,0,0,1-.64-11.21,16.57,16.57,0,0,1,6.6-11.68c.62-.46,1.39-1.55,2,.17.2.64.91.79,1.57.6,1-.27.93-1.06,1-1.85.29-4.35,2.48-7.65,5.84-10.25a6.87,6.87,0,0,1,4.68-1.65,2.3,2.3,0,0,0,2.74-2.13c1.31-7.75,11.26-12.65,17.87-10.18a2,2,0,0,0,1.77-.13c5.49-2.94,10.87-2,15.67,1.85,5.79,4.65,6.76,16.36,3.72,22.87A24.11,24.11,0,0,1,239,141.52c-4.76,1.91-9.27,4.18-11.64,9.14a8.51,8.51,0,0,0-.29.85c-1.9,3.15-2.84,6.75-4.85,9.88-3.36,5.23-9.49,8.27-15.84,5.24-.89-.43-1.93-.54-2.66-1.29-1.1-2.78-2.22-5.51-4.69-7.45a14.11,14.11,0,0,0-7.53-3c-1-.1-1.92.11-2,1.32-.06,1.06.71,1.35,1.65,1.48,4,.54,7.26,2.22,8.79,6.28.13.79-.51.87-1,1-2.39.5-3.82,2.1-4.92,4.14-.54,1-1,2.07-1.54,3.09-2.64,5-6.23,4.63-9.81.73a20.22,20.22,0,0,1-2.06-3.31,13.69,13.69,0,0,0-5.52-4.68c-1-2.07-2-4.15-4.07-5.38-.95-.56-2-1.23-2.82,0s.19,1.76,1.06,2.34a5.07,5.07,0,0,1,2.54,3.1c.08.9-.71,1.1-1.23,1.48a10.88,10.88,0,0,0-4.31,6.32,64.07,64.07,0,0,1-2.27,6.5A3.79,3.79,0,0,1,161.17,181.9Z"/><path class="cls-10" d="M239.94,282.43c-2.24-.35-4.36-1.25-6.74-1a8,8,0,0,1-7.43-2.81,8.36,8.36,0,0,0-5.72-3,9.36,9.36,0,0,1-7.6-12.85c.65-1.7.36-2.52-1.31-3.15a9.05,9.05,0,0,1-5-4.81c-1-2-.74-2.34,1.56-2.29a132.21,132.21,0,0,1,16.52,1.36q14.56,2.13,29.1,4.52c6.2,1,12.34,2.46,18.58,3.25,6.64.85,13.28,1.26,20.2-.18a31,31,0,0,1-6.91,11.39c-8.71,9.58-19.72,13.71-32.59,13a4.84,4.84,0,0,1-1.07-.32C247.58,284.84,243.94,283,239.94,282.43Z"/><path class="cls-10" d="M94.83,167.22c4.07,2.51,7.77,5.67,12.17,7.61,4.74,2.08,9.23,4.73,14.21,6.25a12,12,0,0,0,4.91.57c3.4-.45,5-2.62,5.6-6.53.5-3.48,1.28-6.9,3.56-9.74-.26,1.35.61,1.93,1.65,2.39,3.29,1.45,5.19,3.72,5.25,7.57a12,12,0,0,0,5.1,9.62c1.23.92.87,1.29-.11,2.17a15.37,15.37,0,0,1-8.31,3.83c-8.63,1.33-13.28,7.27-15.72,15.22a31.59,31.59,0,0,0-1.26,9.07c0,3.12-.07,3.19-3.24,3a19.42,19.42,0,0,1-15.07-8.51,10.83,10.83,0,0,1-1.85-8.32c.88-5.34-.6-8.32-6.35-11-1.53-.71-3.15-1.21-4.7-1.87-5.9-2.48-8.15-8.25-5.28-14A13.19,13.19,0,0,1,94.83,167.22Z"/><path class="cls-11" d="M275.4,173.62c-1.24-3.65-1.81-7.48-3.53-11-4-8.26-11.85-12.1-20.6-5.55-.67.5-1.4.93-2.1,1.4l-1.29,0c-2,.65-3.49-.13-4.91-1.54-2.3-2.27-3.91-5.36-7.33-6.33-1-.85-2.76-.27-3.44-1.76,1.8-2.27,4.46-3.2,7-4.28,5.71-2.44,10.58-5.83,13.8-11.28a3.27,3.27,0,0,1,1.81-1.31,20.1,20.1,0,0,1,27.33,21.5A61.11,61.11,0,0,1,275.4,173.62Z"/><path class="cls-12" d="M83.75,147.34c1.35,2.82,1.22,6.09,2.79,8.88a42.49,42.49,0,0,0,4.6,7.25c1,1.46-.06,1.94-1.15,2.56-5.32,3-8.51,7.43-8.49,13.74,0,5.4,3,9.35,8.35,11.48,1.85.74,3.76,1.36,5.54,2.25,2.39,1.21,3.91,3,3.72,6-.76,12.26,7.2,20.93,19.63,21.58.3,0,.61,0,1,.09-.25,1.12-1.24,1.33-2,1.74-6.82,3.88-13.77,3.79-20.7.4-7.94-3.9-13.55-10-16.11-18.53-1.45-4.82-1.33-9.58,2.5-13.54.5-.52.91-1.09.48-1.83a1.29,1.29,0,0,0-1.78-.6c-1.34.8-1.79-.25-2.38-1a29.25,29.25,0,0,1-1.7-34.19A23.51,23.51,0,0,1,83.75,147.34Z"/><path class="cls-11" d="M255.28,128.6a24,24,0,0,0,1.28-11.74c-.18-1.51.69-1.59,1.73-1.78,9.09-1.68,19.43,3,24.59,11.12a25.61,25.61,0,0,1,4,15.09c-.07,1.75.53,2.3,2.23,2.26,11.49-.25,19.95,7.53,20.85,19.09a32,32,0,0,1-1.4,11.37c-4.93-11.12-12.6-16.37-24.84-13,.37-2.21.77-4.36,1.08-6.52,2.33-16.42-11.15-29.28-27.36-26.1C256.86,128.46,256.27,128.48,255.28,128.6Z"/><path class="cls-11" d="M297.12,199.38a4.67,4.67,0,0,0-5.7-.33c-5.39,3.47-8.15,1.8-10.87-3.86-1.9-3.94-2.5-8.3-3.15-12.58-.2-1.37-1.38-2.44-1-3.91,1.9-4.1,4-8.12,5.47-12.4.5-1.46,1.84-2,3.11-2.54,5.91-2.5,12.77-.57,17.37,4.85,6.62,7.81,5.77,21.67-1.76,28.59A8.57,8.57,0,0,1,297.12,199.38Z"/><path class="cls-10" d="M212.78,296.2a6.42,6.42,0,0,1-.4-3.38c0-11.87-4.39-22.1-11.86-31.1a28.69,28.69,0,0,0-10.26-7.52c4.23-.79,7.82-1.52,11.54-1.41.68,0,.83.53,1,1.07a12,12,0,0,0,5.77,7.69c1.12.65.79,1.46.67,2.37-.81,5.95,1.42,10.75,6.17,13.2a7.64,7.64,0,0,0,3,1.1c2.76.09,4.56,1.56,6.43,3.39,2.94,2.87,6.72,3.11,10.56,2.41,1.09-.19,1.84-.24,1.95,1.07.38,4.66.52,9.31-.86,13.87a13.92,13.92,0,0,1-9.45,5.19,17.74,17.74,0,0,0-2.52-.14c-4.43.14-7.7-2-10.56-5.14C213.21,298.08,213.19,297.08,212.78,296.2Z"/><path class="cls-13" d="M203.73,165.34a3.63,3.63,0,0,1,2,.36c8.31,4.25,14.46-.78,17.8-7.73,1.06-2.2,1.06-5.05,3.56-6.46,0,2-.32,4,.38,5.91,1.54,4.32,4.56,6.86,9.08,7.32,2,.19,2.08.79,1.55,2.45-.63,1.92-1.27,3.06-3.72,3.35-4,.48-7.2,2.93-10,5.73-1.63,1.64-3,1.85-5,.52a21,21,0,0,0-14.9-3.27c-1.42.2-2.11,0-1.48-1.6C203.9,169.79,203.56,167.54,203.73,165.34Z"/><path class="cls-12" d="M175.11,164.89c3.06.16,4.59,2.37,6.12,4.57,1.24,1.79,1.91,4,4.15,5,2.92,1.36,4.6,1,6.23-1.83.5-.85.78-1.82,1.22-2.7,1.49-3,3.54-5.43,7.12-6,2.08,3.45.25,6.81-.29,10.19,0,.28-.7.53-1.12.66A42.62,42.62,0,0,0,182.4,185c-1.78,1.73-3.39,2.1-5.44.59a6.7,6.7,0,0,0-2.85-1.41c-2.57-.36-3.18-2.57-4.33-4.23a2.5,2.5,0,0,1,.16-2.83,8.53,8.53,0,0,1,1.43-1.78A10.52,10.52,0,0,0,175.11,164.89Z"/><path class="cls-14" d="M281.17,259.41c2.84-2.51,5.33-5.15,6.53-8.76.1-.29.22-.57.31-.86,1.17-3.72,1.18-3.79,4.95-3.31a30.34,30.34,0,0,0,21-5.06c.54-.36,1.06-1.16,1.76-.74s.38,1.25.39,1.92a8.22,8.22,0,0,1-1.92,5.07,27.51,27.51,0,0,1-13.41,10,1.84,1.84,0,0,1-.43.15C294,258,287.72,259.74,281.17,259.41Z"/><path class="cls-15" d="M299,201.87c4.38-3.1,8.05-3.08,12.52.07.44.31.84.67,1.25,1a1.4,1.4,0,0,0,2.06,0,1.26,1.26,0,0,0-.14-2c-1.43-1-.67-1.71.17-2.48.61-.57,1.26-1.12,1.83-1.73,1.27-1.33,2.6-1,3.93-.17a4.87,4.87,0,0,1,2,2.48c1.71,5.1,2.41,10.3.73,15.51-.83,2.59-2.28,4.86-5.53,4.91a6.66,6.66,0,0,1-3.67-3.59c-.48-1-1-1.92-1.37-2.91-1.71-4.28-5.37-6.05-9.39-7.38A7.09,7.09,0,0,1,299,201.87Z"/><path class="cls-16" d="M299,201.87c2.42,2.58,5.64,3.71,8.83,4.94,2.71,1,4.21,3.42,5.38,5.94s2.39,4.94,4.57,6.74a15.71,15.71,0,0,1-5.47.22c-2.86-.32-5-1.1-6.13-4.38-1.87-5.33-6-8.88-11.23-11.49C296.22,202.74,297.72,202.49,299,201.87Z"/><path class="cls-17" d="M309.29,177.63c5.11,2.4,8.59,9.42,7.51,14.55-.34,1.63-1.77,2.25-2.77,3.23-3.14,3.09-3.94,3.16-7.92,1.47-.93-.4-.67-.83-.32-1.38C309.26,190.09,310,184.12,309.29,177.63Z"/><path class="cls-18" d="M232.2,148.84c1.17.54,2.58.44,3.65,1.28.75.77,2.3,1.13,1.37,2.74a12.5,12.5,0,0,0-.22,7.24c.47,2.09-.46,2-1.9,1.54C229.54,159.7,228.06,153.15,232.2,148.84Z"/><path class="cls-19" d="M161.17,181.9c2.83-2.05,3.34-5.33,4.17-8.33a13.23,13.23,0,0,1,6.48-8.66c1.28,3,.55,5.51-1.66,7.72-1.86,1.86-3.84,3.64-3.46,6.65a8.93,8.93,0,0,0,.4,1.79c.29.89,0,1.07-.87,1C164.54,182,162.86,182,161.17,181.9Z"/><path class="cls-20" d="M237.22,152.86c.27-1.27-.93-1.82-1.37-2.74a12.83,12.83,0,0,1,5.31,4c1.79,2,3.32,4.72,6.72,4.37a15.46,15.46,0,0,0-6.26,3.52c-1,1-1.35.37-1.58-.65a21.61,21.61,0,0,1-.51-6.56C239.66,153.09,239,152.3,237.22,152.86Z"/><path class="cls-21" d="M144.61,171.33a29.85,29.85,0,0,0,4.07,7.92c1.25,2,2.88,3.89,5.59,4.08-1.74,1.26-3.29,1-4.94-.34a10.8,10.8,0,0,1-4.38-8.24C144.89,173.61,144.73,172.47,144.61,171.33Z"/><path class="cls-22" d="M227.07,303.59c3.27-.23,5.75-2.09,8.26-3.9.37-.26.75-.49,1.13-.73-1.76,5.54-4.68,7-11.21,5.52C225.38,303.2,226.61,304.19,227.07,303.59Z"/><path class="cls-23" d="M227.07,303.59c-.4.71-1.43.14-1.82.89a27.65,27.65,0,0,1-9.32-2c-2.71-1.1-3.16-3.66-3.15-6.3C216.13,301.4,220.59,304.45,227.07,303.59Z"/><path class="cls-24" d="M239.94,282.43c.63-.94,1.39-.3,2.05-.1,3.2.94,6.39,1.92,9.57,2.9,0,0,.08.13.07.2a.52.52,0,0,1-.11.19A30,30,0,0,1,239.94,282.43Z"/><path class="cls-25" d="M135.87,164.79c1.49-.88,2.95-1.42,4.41.11a1.09,1.09,0,0,1,.17,1.4C138.89,165.89,137.69,164.4,135.87,164.79Z"/><path class="cls-26" d="M160.73,144.11c-.71,1-1.7.47-2.54.38a74,74,0,0,0-9.42-.45,17,17,0,0,0-13.62,6.58c-2.33,2.94-4.49,6-7,8.85-3.11,3.54-6.8,6.24-11.84,6.21a9.42,9.42,0,0,1-1.6-.14c-.74-.14-1.35-.52-1.28-1.37s.57-1.52,1.49-1.42c6.42.69,9.92-3.59,13.42-7.83,1.85-2.25,3.49-4.67,5.34-6.92.71-.86.48-1.1-.32-1.69a28.65,28.65,0,0,0-15.23-5.94c-1-.08-2.16-.14-2.14-1.51s1.27-1.29,2.23-1.24a29.82,29.82,0,0,1,3.65.45c1.2.22,1.73,0,1.46-1.38a14.16,14.16,0,0,1-.08-4.36c.11-1,.48-1.67,1.54-1.64s1.29.89,1.27,1.8-.1,1.85,0,2.76c.21,2.45.87,4.49,3.58,5.54a13.54,13.54,0,0,1,6,4.09c.79,1,1.22.05,1.65-.23,7.16-4.69,15-3.64,22.76-2.6.26,0,.47.35.71.53A1.52,1.52,0,0,1,160.73,144.11Z"/><path class="cls-27" d="M160.73,144.11l.06-1.53c.35-.28.52,1.47.93.11,1.76-5.85,5.51-10.58,8.76-15.59a15.45,15.45,0,0,0,2.19-4.53,6.56,6.56,0,0,0-7.71-8.23c-.38.07-.73.23-1.11.31-1,.2-1.94.25-2.19-1s.68-1.45,1.49-1.69c3.47-1,6.72-.66,9.49,1.81a8.94,8.94,0,0,1,2.74,9.22,23.17,23.17,0,0,1-3.62,7.4c-2.07,3.13-4.48,6.05-6,9.52-2.49,5.71-3.25,11.23,1.81,16.11a1.38,1.38,0,0,1,.05,2.21c-.77.75-1.41.28-2-.24a13.41,13.41,0,0,1-4.52-10C161,146.74,161.76,145.33,160.73,144.11Z"/><path class="cls-28" d="M248.33,116.59a8,8,0,0,1-2.5,6.44,2.39,2.39,0,0,1-2.49.76,2.19,2.19,0,0,1-1.44-2.16c-.09-1.6-.1-3.21-.15-4.82-.07-2.44-1.26-4.56-1.95-6.82-.35-1.11-.73-2.26.38-3.18s2.21-.29,3.19.28C247,109.22,248.17,112.65,248.33,116.59Z"/><path class="cls-29" d="M96.07,129.06c.07-3.52,2.33-5.77,5.16-5.57.88.07,1.51.2,1.11,1.36a19.37,19.37,0,0,1-3.88,5.86A1.17,1.17,0,0,1,97,131,1.85,1.85,0,0,1,96.07,129.06Z"/><path class="cls-30" d="M241.37,127.92c0,2.15-3,4.78-4.88,4.54a1.2,1.2,0,0,1-1.07-.73,1.41,1.41,0,0,1,.38-1.67c1.22-1,2.43-2.07,3.74-3C240.6,126.38,241.22,126.92,241.37,127.92Z"/><path class="cls-31" d="M302.78,178a5.44,5.44,0,0,1-1.68,4.37c-1.44,1.38-3.09,1-3.37-1a21.59,21.59,0,0,0-2.26-6.94c-.52-1-.9-2,.17-2.91a2.77,2.77,0,0,1,3.61-.17A7.88,7.88,0,0,1,302.78,178Z"/><path class="cls-32" d="M300.71,188.54c-.14,1.65-2.58,4.16-4.26,4.38-1.34.17-2.31-1-1.67-2.13a36.66,36.66,0,0,1,2.55-3.77,1.72,1.72,0,0,1,2.19-.76A2.15,2.15,0,0,1,300.71,188.54Z"/></svg>