<svg width="20" height="21" viewBox="0 0 20 21" fill="none" xmlns="http://www.w3.org/2000/svg">
<path d="M2.61111 21C2.03056 21 1.53339 20.7942 1.11961 20.3826C0.705835 19.971 0.499298 19.4768 0.500002 18.9V4.2C0.500002 3.6225 0.706891 3.12795 1.12067 2.71635C1.53445 2.30475 2.03126 2.0993 2.61111 2.1H3.66667V1.05C3.66667 0.752503 3.768 0.502953 3.97067 0.301353C4.17333 0.0997535 4.42385 -0.000696367 4.72222 3.63322e-06C5.0213 3.63322e-06 5.27217 0.100804 5.47483 0.302404C5.6775 0.504004 5.77848 0.753203 5.77778 1.05V2.1H14.2222V1.05C14.2222 0.752503 14.3236 0.502953 14.5262 0.301353C14.7289 0.0997535 14.9794 -0.000696367 15.2778 3.63322e-06C15.5769 3.63322e-06 15.8277 0.100804 16.0304 0.302404C16.2331 0.504004 16.334 0.753203 16.3333 1.05V2.1H17.3889C17.9694 2.1 18.4666 2.3058 18.8804 2.7174C19.2942 3.129 19.5007 3.6232 19.5 4.2V18.9C19.5 19.4775 19.2931 19.972 18.8793 20.3836C18.4656 20.7952 17.9687 21.0007 17.3889 21H2.61111ZM2.61111 18.9H17.3889V8.4H2.61111V18.9ZM10 12.6C9.70093 12.6 9.45006 12.4992 9.24739 12.2976C9.04472 12.096 8.94374 11.8468 8.94444 11.55C8.94444 11.2525 9.04578 11.003 9.24844 10.8014C9.45111 10.5998 9.70163 10.4993 10 10.5C10.2991 10.5 10.5499 10.6008 10.7526 10.8024C10.9553 11.004 11.0563 11.2532 11.0556 11.55C11.0556 11.8475 10.9542 12.0971 10.7516 12.2987C10.5489 12.5003 10.2984 12.6007 10 12.6ZM5.77778 12.6C5.4787 12.6 5.22783 12.4992 5.02517 12.2976C4.8225 12.096 4.72152 11.8468 4.72222 11.55C4.72222 11.2525 4.82356 11.003 5.02622 10.8014C5.22889 10.5998 5.47941 10.4993 5.77778 10.5C6.07685 10.5 6.32772 10.6008 6.53039 10.8024C6.73306 11.004 6.83404 11.2532 6.83333 11.55C6.83333 11.8475 6.732 12.0971 6.52933 12.2987C6.32667 12.5003 6.07615 12.6007 5.77778 12.6ZM14.2222 12.6C13.9231 12.6 13.6723 12.4992 13.4696 12.2976C13.2669 12.096 13.166 11.8468 13.1667 11.55C13.1667 11.2525 13.268 11.003 13.4707 10.8014C13.6733 10.5998 13.9239 10.4993 14.2222 10.5C14.5213 10.5 14.7722 10.6008 14.9748 10.8024C15.1775 11.004 15.2785 11.2532 15.2778 11.55C15.2778 11.8475 15.1764 12.0971 14.9738 12.2987C14.7711 12.5003 14.5206 12.6007 14.2222 12.6ZM10 16.8C9.70093 16.8 9.45006 16.6992 9.24739 16.4976C9.04472 16.296 8.94374 16.0468 8.94444 15.75C8.94444 15.4525 9.04578 15.203 9.24844 15.0014C9.45111 14.7998 9.70163 14.6993 10 14.7C10.2991 14.7 10.5499 14.8008 10.7526 15.0024C10.9553 15.204 11.0563 15.4532 11.0556 15.75C11.0556 16.0475 10.9542 16.297 10.7516 16.4986C10.5489 16.7002 10.2984 16.8007 10 16.8ZM5.77778 16.8C5.4787 16.8 5.22783 16.6992 5.02517 16.4976C4.8225 16.296 4.72152 16.0468 4.72222 15.75C4.72222 15.4525 4.82356 15.203 5.02622 15.0014C5.22889 14.7998 5.47941 14.6993 5.77778 14.7C6.07685 14.7 6.32772 14.8008 6.53039 15.0024C6.73306 15.204 6.83404 15.4532 6.83333 15.75C6.83333 16.0475 6.732 16.297 6.52933 16.4986C6.32667 16.7002 6.07615 16.8007 5.77778 16.8ZM14.2222 16.8C13.9231 16.8 13.6723 16.6992 13.4696 16.4976C13.2669 16.296 13.166 16.0468 13.1667 15.75C13.1667 15.4525 13.268 15.203 13.4707 15.0014C13.6733 14.7998 13.9239 14.6993 14.2222 14.7C14.5213 14.7 14.7722 14.8008 14.9748 15.0024C15.1775 15.204 15.2785 15.4532 15.2778 15.75C15.2778 16.0475 15.1764 16.297 14.9738 16.4986C14.7711 16.7002 14.5206 16.8007 14.2222 16.8Z" fill="#003762"/>
</svg>
