<svg width="30" height="30" viewBox="0 0 30 30" fill="none" xmlns="http://www.w3.org/2000/svg">
<path fill-rule="evenodd" clip-rule="evenodd" d="M3.53515 0.956539C3.86321 0.628966 4.25715 0.374854 4.69085 0.211044C5.12456 0.0472335 5.58812 -0.0225349 6.05083 0.00636208C6.51354 0.0352591 6.96482 0.162162 7.37477 0.37866C7.78472 0.595158 8.14398 0.896309 8.42874 1.26215L11.7943 5.58577C12.4111 6.37887 12.6286 7.41196 12.3849 8.38693L11.3593 12.4931C11.3063 12.7057 11.3091 12.9285 11.3676 13.1397C11.4261 13.351 11.5382 13.5435 11.693 13.6986L16.2997 18.3054C16.4551 18.4605 16.6479 18.5728 16.8595 18.6313C17.0711 18.6898 17.2943 18.6925 17.5072 18.6391L21.6115 17.6135C22.0926 17.4932 22.5948 17.4839 23.0801 17.5862C23.5653 17.6885 24.021 17.8998 24.4126 18.2041L28.7362 21.5678C30.2906 22.7771 30.4331 25.0739 29.0418 26.4632L27.1032 28.4019C25.7157 29.7894 23.642 30.3987 21.709 29.7181C16.7613 27.9773 12.2691 25.1449 8.56561 21.4309C4.8519 17.7279 2.01946 13.2364 0.278374 8.28943C-0.400354 6.35825 0.209002 4.28269 1.59646 2.89523L3.53515 0.956539Z" fill="#003762"/>
</svg>
