<svg width="37" height="15" viewBox="0 0 37 15" fill="none" xmlns="http://www.w3.org/2000/svg">
<path fill-rule="evenodd" clip-rule="evenodd" d="M36.2487 11.0348C36.2484 11.4984 36.1495 11.9566 35.9586 12.3791C35.7678 12.8016 35.4893 13.1788 35.1417 13.4855C34.7941 13.7923 34.3853 14.0216 33.9423 14.1584C33.4993 14.2952 33.0324 14.3363 32.5723 14.279L27.1353 13.6015C26.1383 13.4769 25.254 12.9002 24.7369 12.0384L22.5587 8.40973C22.4458 8.22185 22.2862 8.06635 22.0955 7.95833C21.9048 7.85031 21.6894 7.79344 21.4702 7.79324L14.9553 7.79324C14.7358 7.79335 14.52 7.85031 14.329 7.95858C14.138 8.06685 13.9783 8.22273 13.8655 8.41105L11.6886 12.0384C11.4334 12.4637 11.0849 12.8254 10.6694 13.0962C10.2539 13.367 9.7823 13.5398 9.29021 13.6015L3.8545 14.2803C1.90029 14.5242 0.17545 13.0009 0.176776 11.0348L0.176776 8.29306C0.176776 6.3309 1.21221 4.4337 3.06036 3.54808C7.78981 1.28053 12.9691 0.106921 18.2141 0.114299C23.4585 0.106706 28.6373 1.27986 33.3664 3.54675C35.2119 4.43238 36.2487 6.3309 36.2487 8.29306L36.2487 11.0348Z" fill="#003762"/>
</svg>
