<svg width="18" height="21" viewBox="0 0 18 21" fill="none" xmlns="http://www.w3.org/2000/svg">
<path d="M11.5 4.875C11.1685 4.875 10.8505 5.0067 10.6161 5.24112C10.3817 5.47554 10.25 5.79348 10.25 6.125C10.25 6.45652 10.3817 6.77446 10.6161 7.00888C10.8505 7.2433 11.1685 7.375 11.5 7.375C11.8315 7.375 12.1495 7.2433 12.3839 7.00888C12.6183 6.77446 12.75 6.45652 12.75 6.125C12.75 5.79348 12.6183 5.47554 12.3839 5.24112C12.1495 5.0067 11.8315 4.875 11.5 4.875ZM5.25 6.125C5.25 5.79348 5.3817 5.47554 5.61612 5.24112C5.85054 5.0067 6.16848 4.875 6.5 4.875C6.83152 4.875 7.14946 5.0067 7.38388 5.24112C7.6183 5.47554 7.75 5.79348 7.75 6.125C7.75 6.45652 7.6183 6.77446 7.38388 7.00888C7.14946 7.2433 6.83152 7.375 6.5 7.375C6.16848 7.375 5.85054 7.2433 5.61612 7.00888C5.3817 6.77446 5.25 6.45652 5.25 6.125ZM9.625 1.125C9.625 0.95924 9.55915 0.800269 9.44194 0.683058C9.32473 0.565848 9.16576 0.5 9 0.5C8.83424 0.5 8.67527 0.565848 8.55806 0.683058C8.44085 0.800269 8.375 0.95924 8.375 1.125V1.75H4.625C4.12772 1.75 3.65081 1.94754 3.29917 2.29917C2.94754 2.65081 2.75 3.12772 2.75 3.625V8.625C2.75 9.12228 2.94754 9.59919 3.29917 9.95083C3.65081 10.3025 4.12772 10.5 4.625 10.5H13.375C13.8723 10.5 14.3492 10.3025 14.7008 9.95083C15.0525 9.59919 15.25 9.12228 15.25 8.625V3.625C15.25 3.12772 15.0525 2.65081 14.7008 2.29917C14.3492 1.94754 13.8723 1.75 13.375 1.75H9.625V1.125ZM4.625 3H13.375C13.5408 3 13.6997 3.06585 13.8169 3.18306C13.9342 3.30027 14 3.45924 14 3.625V8.625C14 8.79076 13.9342 8.94973 13.8169 9.06694C13.6997 9.18415 13.5408 9.25 13.375 9.25H4.625C4.45924 9.25 4.30027 9.18415 4.18306 9.06694C4.06585 8.94973 4 8.79076 4 8.625V3.625C4 3.45924 4.06585 3.30027 4.18306 3.18306C4.30027 3.06585 4.45924 3 4.625 3ZM9.3125 20.4975C12.5825 20.4562 14.5562 19.7537 15.715 18.6975C16.8088 17.6975 17.0763 16.4762 17.1188 15.5025H17.125V14.64C17.1247 14.0402 16.8862 13.465 16.4619 13.041C16.0376 12.6169 15.4623 12.3787 14.8625 12.3787H10.875V12.375H7.125V12.3787H3.1375C1.8875 12.3787 0.875 13.3912 0.875 14.6412V15.5025H0.88125C0.92375 16.4775 1.19125 17.6987 2.285 18.6962C3.44375 19.7537 5.4175 20.4562 8.6875 20.4975V20.5H9.3125V20.4975ZM3.1375 13.6287H14.8625C15.131 13.6288 15.3886 13.7354 15.5784 13.9253C15.7683 14.1152 15.875 14.3727 15.875 14.6412V15.1875C15.875 16.05 15.7113 17.0075 14.8725 17.7738C14.0125 18.5575 12.325 19.25 9 19.25C5.675 19.25 3.9875 18.5575 3.1275 17.7738C2.29 17.0075 2.125 16.0487 2.125 15.1875V14.64C2.12533 14.3717 2.23215 14.1145 2.422 13.9249C2.61184 13.7353 2.86918 13.6287 3.1375 13.6287Z" fill="#003762"/>
</svg>
