<svg width="25" height="25" viewBox="0 0 25 25" fill="none" xmlns="http://www.w3.org/2000/svg">
<path d="M12.5 0C19.4037 0 25 5.5975 25 12.5C25 19.4025 19.4037 25 12.5 25C5.59625 25 0 19.4025 0 12.5C0 5.5975 5.59625 0 12.5 0ZM12.5 2.08375C6.75625 2.08375 2.08375 6.75625 2.08375 12.5C2.08375 18.2437 6.75625 22.9163 12.5 22.9163C18.2437 22.9163 22.9163 18.2437 22.9163 12.5C22.9163 6.75625 18.2437 2.08375 12.5 2.08375ZM11.5625 5C11.789 5.00001 12.0079 5.08205 12.1787 5.23096C12.3494 5.37986 12.4604 5.58556 12.4913 5.81L12.5 5.9375V12.5H16.5625C16.8 12.5001 17.0287 12.5903 17.2022 12.7525C17.3758 12.9146 17.4813 13.1366 17.4975 13.3736C17.5137 13.6106 17.4394 13.8449 17.2895 14.0291C17.1396 14.2134 16.9253 14.3339 16.69 14.3663L16.5625 14.375H11.5625C11.336 14.375 11.1171 14.2929 10.9463 14.144C10.7756 13.9951 10.6646 13.7894 10.6337 13.565L10.625 13.4375V5.9375C10.625 5.68886 10.7238 5.4504 10.8996 5.27459C11.0754 5.09877 11.3139 5 11.5625 5Z" fill="#003762"/>
</svg>
