<svg width="19" height="20" viewBox="0 0 19 20" fill="none" xmlns="http://www.w3.org/2000/svg">
<path d="M9.5 14.8438C10.7598 14.8437 11.968 14.3433 12.8588 13.4525C13.7496 12.5617 14.25 11.3535 14.25 10.0938C14.25 8.83397 13.7496 7.62579 12.8588 6.73499C11.968 5.84419 10.7598 5.34375 9.5 5.34375C8.24022 5.34375 7.03204 5.84419 6.14124 6.73499C5.25044 7.62579 4.75 8.83397 4.75 10.0938C4.75 11.3535 5.25044 12.5617 6.14124 13.4525C7.03204 14.3433 8.24022 14.8437 9.5 14.8438V14.8438ZM9.5 0.59375C9.65747 0.59375 9.8085 0.656306 9.91985 0.767655C10.0312 0.879005 10.0938 1.03003 10.0938 1.1875V3.5625C10.0938 3.71997 10.0312 3.87099 9.91985 3.98234C9.8085 4.09369 9.65747 4.15625 9.5 4.15625C9.34253 4.15625 9.19151 4.09369 9.08016 3.98234C8.96881 3.87099 8.90625 3.71997 8.90625 3.5625V1.1875C8.90625 1.03003 8.96881 0.879005 9.08016 0.767655C9.19151 0.656306 9.34253 0.59375 9.5 0.59375V0.59375ZM9.5 16.0312C9.65747 16.0312 9.8085 16.0938 9.91985 16.2052C10.0312 16.3165 10.0938 16.4675 10.0938 16.625V19C10.0938 19.1575 10.0312 19.3085 9.91985 19.4198C9.8085 19.5312 9.65747 19.5938 9.5 19.5938C9.34253 19.5938 9.19151 19.5312 9.08016 19.4198C8.96881 19.3085 8.90625 19.1575 8.90625 19V16.625C8.90625 16.4675 8.96881 16.3165 9.08016 16.2052C9.19151 16.0938 9.34253 16.0312 9.5 16.0312V16.0312ZM19 10.0938C19 10.2512 18.9374 10.4022 18.8261 10.5136C18.7147 10.6249 18.5637 10.6875 18.4062 10.6875H16.0312C15.8738 10.6875 15.7228 10.6249 15.6114 10.5136C15.5001 10.4022 15.4375 10.2512 15.4375 10.0938C15.4375 9.93628 15.5001 9.78526 15.6114 9.67391C15.7228 9.56256 15.8738 9.5 16.0312 9.5H18.4062C18.5637 9.5 18.7147 9.56256 18.8261 9.67391C18.9374 9.78526 19 9.93628 19 10.0938ZM3.5625 10.0938C3.5625 10.2512 3.49994 10.4022 3.38859 10.5136C3.27724 10.6249 3.12622 10.6875 2.96875 10.6875H0.59375C0.436278 10.6875 0.285255 10.6249 0.173905 10.5136C0.0625556 10.4022 0 10.2512 0 10.0938C0 9.93628 0.0625556 9.78526 0.173905 9.67391C0.285255 9.56256 0.436278 9.5 0.59375 9.5H2.96875C3.12622 9.5 3.27724 9.56256 3.38859 9.67391C3.49994 9.78526 3.5625 9.93628 3.5625 10.0938ZM16.2177 3.37606C16.329 3.48741 16.3915 3.6384 16.3915 3.79584C16.3915 3.95329 16.329 4.10428 16.2177 4.21562L14.5386 5.89594C14.4834 5.95106 14.4178 5.99478 14.3457 6.02458C14.2736 6.05439 14.1964 6.0697 14.1184 6.06964C13.9608 6.06953 13.8097 6.00683 13.6984 5.89534C13.6433 5.84014 13.5996 5.77462 13.5698 5.70252C13.54 5.63042 13.5246 5.55316 13.5247 5.47514C13.5248 5.31758 13.5875 5.16652 13.699 5.05519L15.3781 3.37606C15.4895 3.26475 15.6405 3.20222 15.7979 3.20222C15.9553 3.20222 16.1063 3.26475 16.2177 3.37606V3.37606ZM5.301 14.2928C5.41231 14.4041 5.47484 14.5551 5.47484 14.7125C5.47484 14.87 5.41231 15.021 5.301 15.1323L3.62187 16.8114C3.50989 16.9196 3.35991 16.9794 3.20423 16.9781C3.04855 16.9767 2.89963 16.9143 2.78955 16.8042C2.67946 16.6941 2.61702 16.5452 2.61566 16.3895C2.61431 16.2338 2.67416 16.0839 2.78231 15.9719L4.46144 14.2928C4.57278 14.1814 4.72378 14.1189 4.88122 14.1189C5.03866 14.1189 5.18966 14.1814 5.301 14.2928V14.2928ZM16.2177 16.8114C16.1063 16.9227 15.9553 16.9853 15.7979 16.9853C15.6405 16.9853 15.4895 16.9227 15.3781 16.8114L13.699 15.1323C13.5908 15.0203 13.531 14.8703 13.5324 14.7147C13.5337 14.559 13.5961 14.4101 13.7062 14.3C13.8163 14.1899 13.9652 14.1275 14.1209 14.1261C14.2766 14.1247 14.4266 14.1846 14.5386 14.2928L16.2177 15.9719C16.329 16.0832 16.3915 16.2342 16.3915 16.3917C16.3915 16.5491 16.329 16.7001 16.2177 16.8114ZM5.301 5.89594C5.18966 6.00725 5.03866 6.06978 4.88122 6.06978C4.72378 6.06978 4.57278 6.00725 4.46144 5.89594L2.78231 4.21562C2.7256 4.16085 2.68037 4.09534 2.64925 4.0229C2.61813 3.95046 2.60176 3.87254 2.60107 3.79371C2.60039 3.71487 2.61541 3.63668 2.64526 3.56371C2.67512 3.49075 2.7192 3.42445 2.77495 3.3687C2.8307 3.31295 2.897 3.26887 2.96996 3.23901C3.04293 3.20916 3.12112 3.19414 3.19996 3.19482C3.27879 3.19551 3.35671 3.21188 3.42915 3.243C3.50159 3.27412 3.5671 3.31935 3.62187 3.37606L5.301 5.05519C5.35629 5.11034 5.40016 5.17586 5.4301 5.248C5.46003 5.32013 5.47544 5.39746 5.47544 5.47556C5.47544 5.55366 5.46003 5.63099 5.4301 5.70313C5.40016 5.77526 5.35629 5.84078 5.301 5.89594V5.89594Z" fill="#00CDB0"/>
</svg>
