<svg width="349" height="349" viewBox="0 0 349 349" fill="none" xmlns="http://www.w3.org/2000/svg">
<path d="M97.4555 155.924H126.399V154.877H97.4667C97.3564 154.761 97.2475 154.646 97.1358 154.533C96.5063 153.31 96.6668 151.983 96.6626 150.687C96.6412 144.159 96.6412 137.629 96.6626 131.097C96.6696 129.369 96.4155 128.026 94.3034 127.747C92.7929 127.55 92.1759 126.386 92.0321 124.955C91.979 124.435 92.0014 123.909 91.9427 123.393C91.7682 121.881 92.6407 119.844 91.1875 118.985C89.3853 117.925 87.1126 118.469 85.0451 118.706C83.7887 118.854 83.7203 119.939 83.6617 120.901C83.4927 123.634 84.0344 126.485 81.8385 128.811C81.2368 129.45 81.5272 130.666 81.5272 131.615C81.5272 138.059 81.5355 144.502 81.5174 150.944C81.5174 152.154 81.6416 153.393 81.0483 154.532C80.9381 154.646 80.8264 154.759 80.7147 154.874C79.8631 154.098 80.2121 153.074 80.2079 152.157C80.1814 144.744 80.0767 137.329 80.2554 129.92C80.3196 127.31 79.7905 124.428 81.879 122.177C81.9295 122.112 81.9645 122.037 81.9815 121.956C81.9984 121.876 81.9968 121.793 81.9767 121.713C79.0451 115.003 81.4546 107.974 80.7747 101.125C80.5905 99.267 82.4499 98.2954 83.6742 97.3237C91.5616 91.0934 100.042 85.8668 109.715 82.8375C115.282 81.0925 120.998 80.2032 126.834 80.012C128.789 79.9477 129.418 80.7267 129.41 82.6281C129.355 94.6634 129.355 106.698 129.41 118.733C129.423 120.845 128.597 121.421 126.618 121.409C116.415 121.342 106.211 121.373 96.0079 121.387C95.2024 121.387 94.3327 121.18 93.3555 121.882C94.3732 122.668 95.3406 122.407 96.2117 122.408C106.241 122.429 116.269 122.489 126.297 122.374C128.723 122.346 129.494 123.116 129.432 125.526C129.293 131.279 129.371 137.037 129.4 142.793C129.4 143.707 129.06 144.74 129.971 145.479C127.581 148.086 128.144 151.063 128.769 154.123C129.251 156.493 129.268 158.934 128.818 161.311C128.606 161.582 128.993 161.351 128.712 161.536C122.979 165.305 123.591 171.904 121.676 177.369C121.309 178.416 121.947 179.175 122.637 179.882C123.3 180.56 124.013 181.193 124.609 181.941C125.191 184.843 126.506 187.441 127.96 189.986C128.239 192.006 127.96 193.946 127.418 195.913C126.474 199.292 126.799 202.815 126.593 206.27C126.391 209.922 126.383 213.581 126.568 217.233C127.217 231.333 125.429 245.374 125.469 259.459C125.469 260.409 125.458 261.391 124.694 262.138C123.369 258.129 123.23 253.94 123.762 249.876C124.662 242.989 125.394 236.131 125.222 229.17C125.074 223.168 125.194 217.165 125.19 211.162C125.19 208.345 124.368 207.524 121.465 207.749C116.262 208.149 111.256 209.476 106.327 211.144C103.384 212.141 100.412 213.048 97.4527 213.996C96.5035 212.907 96.6445 211.567 96.6389 210.28C96.6137 204.299 96.6528 198.317 96.6165 192.337C96.5984 189.43 96.389 189.236 93.5118 189.204C90.3918 189.169 87.2703 189.227 84.1516 189.179C82.9609 189.161 81.6933 189.342 80.7189 188.365C81.4853 187.503 82.5072 187.861 83.4187 187.854C87.9362 187.821 92.4551 187.842 96.9739 187.836C97.126 187.811 97.2737 187.764 97.4123 187.697L96.9334 187.311C96.5425 186.585 96.5942 185.795 96.5998 185.012C96.6542 176.562 96.5998 168.111 96.6319 159.661C96.6375 158.362 96.4965 157.017 97.4555 155.924Z" fill="#E9F0FE"/>
<path d="M151.944 187.829C168.241 187.836 184.538 187.843 200.835 187.851C205.186 187.851 205.251 187.921 205.251 192.165C205.251 207.766 205.251 223.366 205.251 238.965C205.251 241.783 204.896 242.075 202.048 241.715C186.593 239.76 171.844 235.48 157.988 228.289C156.142 227.332 154.429 226.117 152.595 225.132C151.59 224.59 150.601 223.542 149.272 224.471C148.355 223.329 148.993 222.147 149.198 220.981C150.227 215.004 151.764 209.092 151.622 202.958C151.548 199.832 151.097 196.737 150.744 193.635C150.596 192.335 150.526 191.04 150.727 189.74C150.893 188.953 151.174 188.234 151.944 187.829Z" fill="#D6E3FE"/>
<path d="M134.648 140.808C134.636 135.576 134.694 130.338 134.582 125.111C134.537 123.045 135.301 122.386 137.331 122.39C159.045 122.441 180.76 122.438 202.476 122.383C204.7 122.383 205.408 123.192 205.291 125.315C205.151 127.663 205.253 130.024 205.247 132.377C203.455 131.707 204.009 130.113 203.959 128.85C203.798 124.825 203.844 124.818 199.85 124.811C197.937 124.811 196.024 124.815 194.112 124.824C192.421 124.832 191.493 125.587 191.47 127.318C191.368 135.492 191.401 143.665 191.454 151.839C191.463 153.375 192.291 154.006 193.746 154.038C196.267 154.095 198.79 154.022 201.311 154.081C202.503 154.11 203.776 153.904 204.752 154.893C203.878 155.767 202.764 155.42 201.771 155.379C186.209 154.738 170.641 154.886 155.071 154.891C154.137 154.891 153.158 154.65 152.139 155.234C152.777 156.324 153.815 155.898 154.627 155.901C165.425 155.931 176.225 155.947 187.023 155.886C188.396 155.886 189.766 156.391 191.139 155.929C191.542 156.436 191.641 157.024 191.606 157.649C191.234 164.432 191.537 171.222 191.428 178.008C191.367 181.805 190.845 182.336 186.982 182.376C183.066 182.414 179.149 182.453 175.235 182.357C172.201 182.283 171.664 181.685 171.488 178.609C171.463 178.174 171.432 177.737 171.45 177.305C171.533 175.29 170.509 174.513 168.576 174.541C166.482 174.573 164.399 174.564 162.311 174.529C161.003 174.507 159.69 174.479 158.541 173.717C156.281 171.834 154.564 169.568 153.699 166.715C153.993 164.524 152.5 163.128 151.391 161.561C149.621 158.508 150.157 155.593 151.74 152.626C154.718 147.055 152.973 143.093 146.865 141.291C146.28 141.118 145.624 141.106 145.097 140.845C141.607 139.106 138.139 138.426 134.648 140.808Z" fill="#E9F0FE"/>
<path d="M169.41 121.378C158.857 121.378 148.305 121.319 137.754 121.423C135.396 121.446 134.543 120.8 134.565 118.326C134.677 106.642 134.697 94.9531 134.551 83.27C134.521 80.7153 135.591 80.2434 137.639 80.5687C145.038 81.7469 152.131 83.8828 158.871 87.2597C166.981 91.3221 173.172 97.9294 180.43 103.114C183.449 105.271 186.703 106.823 190.424 107.241C191.328 107.343 192.182 107.581 192.78 108.228C196.082 111.8 199.341 115.41 202.611 119.015C203.081 119.535 203.653 120.2 203.413 120.843C203.062 121.791 202.045 121.357 201.326 121.358C190.688 121.386 180.049 121.393 169.41 121.378Z" fill="#E9F0FE"/>
<path d="M240.832 236.982C243.105 236.508 243.684 235.102 243.493 232.875C242.849 225.411 244.15 218.015 244.628 210.597C244.759 208.56 245.597 206.483 245.732 204.337C245.771 203.713 245.627 203.36 245.19 203.018C244.815 201.492 245.749 200.644 246.821 199.868C247.153 200.457 247.484 201.045 248.077 202.102C249.586 198.504 251.308 195.429 251.816 191.887C251.985 190.712 251.676 189.467 252.363 188.369C255.993 187.783 259.635 188.272 263.267 188.108C264.711 188.044 264.991 189.048 265.117 190.133C265.337 192.038 265.24 193.958 265.229 195.869C265.219 197.755 266.094 198.521 267.927 198.521C270.623 198.521 273.321 198.44 276.015 198.57C278.908 198.71 279.768 199.514 279.826 202.388C279.885 205.235 280.262 208.135 279.055 210.877C279.055 214.271 279.02 217.665 279.043 221.06C279.055 222.777 278.401 223.907 276.854 224.848C266.569 231.101 255.864 236.363 244.036 239C242.686 239.301 242.397 239.893 242.414 241.11C242.449 243.63 242.362 246.153 242.326 248.672C240.944 248.129 241.173 246.869 241.138 245.804C241.041 242.858 241.212 239.911 240.832 236.982Z" fill="#D6E3FE"/>
<path d="M279.06 210.87C279.06 208.078 278.898 205.286 279.095 202.513C279.282 199.894 278.207 199.162 275.764 199.31C272.9 199.48 270.014 199.265 267.145 199.38C265.148 199.458 264.247 198.798 264.37 196.695C264.497 194.526 264.346 192.341 264.413 190.166C264.455 188.795 263.886 188.326 262.558 188.351C259.162 188.405 255.765 188.371 252.367 188.371C254.478 187.235 256.745 188.033 258.928 187.868C260.715 187.729 262.52 187.842 264.373 187.842C264.251 187.628 264.205 187.423 264.109 187.399C263.857 187.346 263.601 187.317 263.344 187.311C263.789 177.355 263.521 167.395 263.545 157.437C263.525 156.914 263.636 156.395 263.869 155.927C267.789 155.927 271.709 155.927 275.63 155.927C279.041 155.927 278.992 155.935 279.063 159.478C279.115 162.022 278.76 164.597 279.436 167.787C280.941 164.9 281.031 162.299 281.641 159.861C282.416 156.756 283.037 153.612 283.719 150.485C283.823 150.003 283.731 149.322 284.486 149.382C284.94 149.418 285.175 149.867 285.292 150.31C285.535 151.233 285.793 152.152 286.016 153.077C286.386 154.613 286.762 155.624 288.79 156.167C290.985 156.754 291.337 159.608 292.141 161.678C291.51 162.069 290.807 161.971 290.119 161.977C286.233 162.01 286.129 162.094 286.12 165.852C286.103 171.566 286.139 177.28 286.099 182.994C286.088 184.61 286.344 186.083 287.431 187.332C289.922 188.438 292.543 187.722 295.096 187.806C297.443 187.884 298.134 188.948 297.873 191.102C297.071 197.707 295.301 204.008 291.882 209.751C290.334 212.352 288.525 214.796 286.337 216.921C285.919 217.323 285.556 218.078 284.888 217.8C284.126 217.483 284.29 216.627 284.288 215.945C284.281 212.206 284.308 208.466 284.267 204.728C284.257 203.917 284.597 203.004 283.698 202.076C281.581 204.781 281.341 208.397 279.06 210.87Z" fill="#E9F0FE"/>
<path d="M263.867 155.921C264.391 156.777 264.398 157.723 264.397 158.688C264.386 167.11 264.366 175.53 264.418 183.955C264.426 185.247 264.139 186.329 263.342 187.306H256.289C252.968 187.306 251.693 185.993 251.263 182.65C250.916 179.914 250.362 177.227 249.225 174.633C248.089 172.039 247.43 169.228 246.559 166.514C246.263 165.588 245.896 164.637 245.074 164.11C241.662 161.914 238.348 159.539 234.545 158.016C232.758 156.8 233.515 155.485 234.52 154.324C235.609 153.102 236.503 151.72 237.172 150.227C239.184 147.985 239.06 145.131 239.418 142.409C239.58 141.189 239.11 140.315 237.93 140.043C236.353 139.673 235.095 138.834 233.913 137.783C232.73 136.731 231.26 136.628 229.751 136.937C228.242 137.245 226.729 137.717 225.169 137.827C224.357 137.886 223.429 138.317 222.835 137.311C222.778 133.422 223.436 132.719 227.219 132.637C227.823 132.623 228.43 132.598 229.034 132.627C231.235 132.733 232.075 131.61 232.229 129.504C232.402 127.14 231.555 124.648 233.001 122.421L235.077 122.403C236.915 121.191 238.934 121.669 240.887 121.871C242.143 122.001 242.487 123.07 242.608 124.167C242.8 125.897 242.726 127.638 242.714 129.373C242.699 131.501 243.56 132.647 245.801 132.57C251.967 132.358 251.589 133.38 251.607 138.67C251.607 140.319 251.626 141.971 251.618 143.619C251.608 145.343 252.379 146.159 254.121 146.174C256.466 146.196 258.812 146.125 261.154 146.221C264.316 146.35 265.119 147.153 265.18 150.352C265.21 151.888 265.503 153.506 264.389 154.854C260.174 155.432 255.937 154.928 251.717 155.14C251.04 155.175 249.965 154.533 249.75 155.899L263.867 155.921Z" fill="#D6E3FE"/>
<path d="M53.979 195.193C54.9632 195.08 54.6937 194.55 54.4732 193.914C51.1311 184.295 50.9176 174.404 51.8724 164.396C52.0609 162.411 51.9911 160.391 51.9143 158.393C51.8473 156.634 52.4853 155.872 54.328 155.893C60.5095 155.959 66.691 155.959 72.8724 155.893C74.4569 155.875 74.9972 156.398 74.9874 157.987C74.9306 167.042 74.9306 176.098 74.9874 185.153C75.0013 186.929 74.3271 187.357 72.6854 187.337C66.691 187.263 60.6951 187.307 54.677 187.847H62.1219C65.2559 187.847 68.3913 187.868 71.5253 187.847C73.8776 187.829 75.1437 188.511 75.046 191.31C74.9246 194.839 74.5351 198.417 75.3154 201.94C75.8669 202.831 75.0181 203.177 74.5839 203.555C71.4709 206.266 68.9999 209.418 67.3694 213.25C67.0386 214.028 66.8389 215.67 65.1665 214.702C64.4099 210.872 64.9851 206.998 64.8105 203.146C64.7687 202.226 64.8399 201.304 64.7729 200.223C64.6235 201.292 64.7896 202.243 64.3931 203.118C63.6728 204.209 62.9553 203.537 62.5714 202.934C60.5569 199.779 57.7663 197.593 54.4104 196.05C54.0697 195.895 53.9371 195.569 53.979 195.193Z" fill="#D6E3FE"/>
<path d="M158.14 172.67C159.203 173.54 160.415 173.771 161.78 173.731C164.48 173.654 167.186 173.774 169.885 173.686C171.724 173.626 172.287 174.422 172.323 176.184C172.43 181.56 172.486 181.558 177.886 181.558C181.199 181.558 184.517 181.442 187.821 181.6C189.94 181.701 190.729 181.113 190.659 178.864C190.5 173.725 190.61 168.578 190.609 163.435C190.609 160.923 190.469 158.392 191.135 155.922C195.057 155.922 198.981 155.99 202.898 155.875C204.713 155.82 205.328 156.397 205.291 158.248C205.185 163.386 205.208 168.529 205.291 173.669C205.306 174.564 204.326 176.339 206.751 176.068C207.503 175.984 207.053 176.873 206.891 177.282C205.814 179.965 205.171 182.727 205.225 185.636C205.252 187.032 204.293 187.326 203.109 187.319C200.317 187.303 197.533 187.319 194.744 187.319L153.443 187.296C156.728 184.726 155.748 181.099 155.817 177.732C157.39 176.41 158.585 174.919 158.14 172.67Z" fill="#D6E3FE"/>
<path d="M264.389 154.863C264.389 153.299 264.249 151.722 264.422 150.175C264.702 147.57 263.554 146.816 261.114 146.982C258.601 147.151 256.072 146.908 253.56 147.052C251.334 147.181 250.661 146.245 250.756 144.14C250.885 141.278 250.729 138.405 250.811 135.541C250.856 134.013 250.405 133.204 248.759 133.408C248.499 133.422 248.238 133.422 247.978 133.408C241.531 133.508 241.848 133.607 241.887 127.317C241.916 122.42 241.887 122.42 236.902 122.417C236.293 122.417 235.686 122.417 235.077 122.407C235.037 122.241 235.037 122.048 234.949 121.913C234.379 121.039 232.175 121.494 232.913 119.624C233.515 118.102 235.03 118.98 236.124 118.748C238.132 121.5 239.877 121.504 241.881 118.764C242.384 122.221 244.643 122.672 247.651 122.474C251.121 122.238 254.623 122.506 258.104 122.381C259.704 122.322 260.974 122.826 262.201 123.71C267.815 127.751 272.452 132.846 277.292 137.717C278.549 138.973 279.177 140.509 279.083 142.419C278.914 145.553 278.914 148.694 279.083 151.828C279.233 154.328 278.232 155.005 275.886 154.909C272.063 154.755 268.224 154.866 264.389 154.863Z" fill="#E9F0FE"/>
<path d="M48.4622 37.6449C56.8452 37.4299 63.7582 45.0688 63.4846 53.0107C63.1844 61.7035 56.9192 68.3513 48.3017 68.4183C39.338 68.4867 32.7139 61.892 32.6065 52.7245C32.5115 44.8119 39.2793 37.1549 48.4622 37.6449Z" fill="#E8EFFE"/>
<path d="M97.4552 155.923C97.4552 165.377 97.4584 174.831 97.465 184.285C97.465 185.327 97.5292 186.379 96.9331 187.307C92.3193 187.307 87.7027 187.23 83.0903 187.346C80.988 187.399 80.1392 186.775 80.1587 184.543C80.2583 175.924 80.2583 167.304 80.1587 158.683C80.1336 156.45 80.9796 155.828 83.0903 155.879C87.8758 155.995 92.6655 155.921 97.4552 155.923Z" fill="#D7E4FE"/>
<path d="M204.753 154.886C200.916 154.886 197.075 154.81 193.247 154.886C191.383 154.927 190.564 154.345 190.58 152.355C190.65 143.899 190.653 135.443 190.59 126.986C190.576 124.791 191.354 123.818 193.675 123.947C196.548 124.105 199.428 124.105 202.301 123.947C204.321 123.836 204.803 124.61 204.799 126.507C204.799 128.452 204.155 130.494 205.25 132.37C205.25 139.057 205.259 145.744 205.241 152.431C205.238 153.267 205.513 154.188 204.753 154.886Z" fill="#D6E3FE"/>
<path d="M80.718 188.364C85.5719 188.364 90.4272 188.424 95.2797 188.33C97.0093 188.297 97.5133 188.915 97.4909 190.589C97.4197 198.39 97.4546 206.192 97.4518 213.994C92.6091 215.411 87.7454 216.035 82.6724 215.196C80.6077 214.854 80.0982 214.048 80.1596 212.178C80.1987 211.038 80.6775 209.735 79.6012 208.741C79.0539 207.929 79.5802 207.266 79.9544 206.632C81.1787 204.564 81.9506 202.317 82.664 200.05C82.6514 199.198 82.6514 199.198 80.8283 199.655C80.5891 199.629 80.3647 199.527 80.1889 199.363C80.489 195.703 79.5998 191.985 80.718 188.364Z" fill="#D6E3FE"/>
<path d="M35.1086 263.854L34.5265 251.429C34.4497 251.272 34.3227 251.118 34.3101 250.956C33.9095 246.115 34.1091 245.883 38.9169 245.876C42.4069 245.876 45.8969 245.844 49.3869 245.901C51.2967 245.933 52.3185 246.657 52.0756 248.764C51.929 250.056 52.0491 251.378 52.0477 252.683C52.077 258.661 51.2408 264.59 51.0021 270.552C50.9128 272.772 49.0952 273.805 47.0542 274.049C44.4645 274.366 41.8458 274.366 39.2561 274.049C36.3943 273.691 35.2343 272.02 35.2873 269.023C35.318 267.308 35.5623 265.564 35.1086 263.854Z" fill="#3F3D56"/>
<path d="M113.143 318.821C113.272 324.035 107.961 329.686 102.416 329.57C96.1937 329.441 91.3566 325.382 91.3496 318.767C91.3412 312.319 95.2989 307.979 101.937 307.849C108.652 307.717 112.288 311.873 113.143 318.821Z" fill="#E8EFFE"/>
<path d="M303.118 80.1307C303.407 86.1432 298.143 91.0544 292.116 90.8799C286.93 90.7319 281.686 87.0451 281.666 79.7496C281.652 74.0748 286.626 69.0157 292.325 69.0688C298.23 69.126 303.677 74.4992 303.118 80.1307Z" fill="#E8EFFE"/>
<path d="M74.9504 139.181C74.9504 143.71 74.9085 148.24 74.9839 152.768C75.009 154.319 74.5428 154.934 72.9094 154.914C66.7266 154.841 60.5423 154.853 54.358 154.914C52.8475 154.928 52.3282 154.329 52.4483 152.897C52.8573 148.064 53.2775 143.235 55.0741 138.658C55.7582 138.031 56.6097 137.866 57.485 137.856C62.4227 137.802 67.3617 137.775 72.2994 137.873C73.3645 137.883 74.3794 138.105 74.9504 139.181Z" fill="#D6E3FE"/>
<path d="M233 122.43C233 125.02 233.008 127.61 232.986 130.2C232.968 132.352 232.115 133.69 229.7 133.41C229.441 133.396 229.182 133.396 228.924 133.41C224.275 133.417 224.275 133.417 223.134 137.755C223.532 138.481 223.159 139.103 222.808 139.678C221.486 141.837 220.774 144.209 220.264 146.659C218.331 148.486 216.061 148.006 213.93 147.338C212.345 146.841 212.356 145.197 212.338 143.799C212.272 138.592 212.325 133.384 212.308 128.177C212.308 126.652 212.22 125.181 210.494 124.514C210.344 122.432 211.726 122.403 213.228 122.409C219.822 122.438 226.411 122.43 233 122.43Z" fill="#E9F0FE"/>
<path d="M74.9505 139.181C74.0193 138.589 72.9765 138.649 71.9365 138.651C66.3162 138.658 60.6954 138.658 55.0742 138.651C55.9328 133.24 58.5419 128.518 60.9933 123.741C61.4595 122.831 62.2762 122.405 63.3567 122.417C66.4865 122.45 69.6191 122.472 72.749 122.417C74.4996 122.382 74.991 123.236 74.9742 124.833C74.9239 129.606 74.9533 134.39 74.9505 139.181Z" fill="#E9F0FE"/>
<path d="M216.776 254.298C214.702 251.456 215.608 248.226 215.992 245.256C216.302 242.865 215.992 241.906 213.553 242.276C210.944 242.668 210.413 241.498 210.438 239.065C210.56 227.138 210.487 215.207 210.507 203.279C210.507 202.441 210.251 201.552 211.007 200.432C211.705 201.27 212.344 202.003 212.961 202.759C213.343 203.228 213.645 204.094 214.067 204.155C218.211 204.705 216.35 208.053 216.663 210.09C217.837 217.733 218.07 225.46 217.804 233.192C217.766 234.289 217.875 235.265 218.884 235.917C217.425 241.124 216.972 246.444 217.138 251.831C217.163 252.676 217.46 253.556 216.776 254.298Z" fill="#D6E3FE"/>
<path d="M287.424 187.321C285.843 187.416 285.304 186.609 285.311 185.1C285.344 177.907 285.344 170.713 285.311 163.519C285.302 161.911 285.829 161.028 287.553 161.146C289.088 161.256 290.684 160.825 292.137 161.664C295.069 167.61 296.621 173.949 297.355 180.492C297.519 181.947 297.946 183.348 297.928 184.852C297.908 186.608 297.326 187.394 295.494 187.335C292.806 187.25 290.114 187.318 287.424 187.321Z" fill="#D6E3FE"/>
<path d="M277.684 250.639H280.553C284.28 250.639 284.678 251.007 284.248 254.649C283.566 260.449 282.111 266.032 279.241 271.183C277.659 274.021 275.611 274.928 272.54 274.152C271.464 273.88 271.201 273.175 271.201 272.23C271.201 265.709 271.21 259.19 271.191 252.669C271.191 251.242 271.839 250.606 273.253 250.635C274.733 250.666 276.207 250.641 277.684 250.639Z" fill="#E9F0FE"/>
<path d="M35.1084 263.854C35.7255 265.52 35.4742 267.277 35.6305 268.99C35.9097 271.966 37.1201 273.244 40.0224 273.318C42.189 273.368 44.3569 273.379 46.5221 273.318C49.2192 273.242 50.6082 271.859 50.7925 269.114C51.1527 263.754 51.4807 258.392 51.8214 253.03C51.9219 252.81 52.0712 252.781 52.2625 252.918C52.5626 257.881 51.8549 262.786 51.3439 267.696C51.1471 269.586 51.5617 270.421 53.6459 270.313C56.7911 270.15 59.8344 270.917 62.8414 271.785C63.7209 272.039 64.6297 272.407 64.6492 273.389C64.6701 274.474 63.5506 274.69 62.766 274.89C59.1532 275.808 55.4621 276.492 51.7474 276.509C44.2746 276.542 36.7836 276.951 29.3318 276.02C27.2699 275.763 25.2206 275.403 23.2732 274.616C22.5752 274.337 21.5254 274.346 21.665 273.28C21.7711 272.466 22.5417 272.078 23.3402 271.82C25.8969 270.992 28.5461 270.485 31.2276 270.308C35.0331 270.059 35.0331 270.151 35.0345 266.472C35.0386 265.595 35.0819 264.725 35.1084 263.854Z" fill="#E9F0FE"/>
<path d="M10.8176 255.616C6.31692 255.875 3.19825 251.786 3.22478 248.008C3.25549 243.382 6.97862 240.386 11.0424 240.34C15.9772 240.284 18.6869 244.455 18.772 248.092C18.8767 252.426 15.3351 255.639 10.8176 255.616Z" fill="#E8EFFE"/>
<path d="M231.449 274.133C226.807 273.345 220.569 274.225 214.548 272.597C214.38 272.551 214.178 272.575 214.041 272.49C213.064 271.875 211.284 271.906 211.305 270.476C211.323 269.182 212.927 269.152 213.957 268.801C214.524 268.607 215.154 268.597 215.725 268.412C217.214 267.925 218.02 268.162 217.835 269.993C217.608 272.24 218.533 273.101 220.8 272.262C221.426 272.03 222.178 272.153 222.869 272.082C224.501 271.913 225.605 271.355 224.856 269.397C224.37 268.128 224.716 267.518 226.193 267.34C231.029 266.753 235.788 265.913 240.23 269.1C242.817 270.955 246.184 270.411 248.836 269.685C250.172 269.319 251.258 268.317 252.814 269.006C253.565 269.34 254.265 269.777 254.332 270.638C254.413 271.684 253.439 271.78 252.745 272.062C250.22 273.087 247.484 273.506 244.862 273.549C240.858 273.608 236.902 274.322 231.449 274.133Z" fill="#E9F0FD"/>
<path d="M283.249 283.086C287.081 283.095 291.189 287.146 291.067 290.801C290.938 294.774 287.075 298.641 283.109 298.766C279.456 298.881 275.397 294.77 275.387 290.949C275.377 286.904 279.201 283.078 283.249 283.086Z" fill="#E8F0FE"/>
<path d="M59.2684 207.534C59.6872 207.254 60.1143 206.984 60.5401 206.713C60.9896 206.433 61.3693 205.663 62.0045 206.353C62.6941 207.101 61.8203 207.531 61.555 208.081C61.0468 209.085 60.3739 209.997 59.5643 210.779C57.4703 212.766 55.8775 215.097 54.4061 217.576C52.3959 220.967 49.6904 223.762 46.2102 225.725C44.3493 226.606 43.7434 228.069 43.9347 230.089C44.0938 231.778 43.9696 233.492 43.9696 235.195C41.8547 236.898 37.5843 237.116 34.9165 235.659C36.4731 234.853 38.1511 235.519 39.7425 235.251C40.6527 235.096 42.0417 235.949 42.3796 234.479C42.7523 232.86 41.1162 232.944 40.2102 232.454C34.2632 230.08 29.0422 226.712 24.9686 221.664C22.9849 219.204 20.2837 217.579 17.6927 215.845C16.3986 214.98 15.0305 214.204 14.1734 212.83C13.6569 212.491 13.0426 212.006 13.5829 211.434C14.4568 210.51 15.2469 211.809 16.1292 211.761C20.9803 214.054 24.8402 217.516 28.5033 221.421C32.3326 225.495 37.067 228.612 42.3237 230.517C42.3698 225.687 42.3237 220.853 42.501 216.027C42.5722 214.043 41.0296 213.976 39.9463 213.291C35.2949 211.98 32.7067 207.91 29.1176 205.181C28.7769 204.922 28.4949 204.585 28.111 204.379C27.7062 203.732 26.5015 203.186 27.1338 202.395C27.998 201.309 28.8412 202.78 29.7513 202.854C31.8453 203.641 33.42 205.124 34.9165 206.721C37.0105 208.955 39.5233 210.577 42.3475 211.747C42.3893 210.44 42.3823 209.131 42.4954 207.838C42.5541 207.169 42.0431 205.992 43.3051 206.052C44.2823 206.098 43.9235 207.144 43.9263 207.761C43.9515 211.861 43.9152 215.96 43.9263 220.06C43.9263 221.191 44.0101 222.323 44.0548 223.454C44.8658 223.974 45.3447 223.314 45.8696 222.916C48.3688 221.018 50.4925 218.671 52.132 215.995C54.0738 212.831 55.8272 209.454 59.2684 207.534Z" fill="#51566E"/>
<path d="M222.588 149.165C222.244 151.621 223.783 153.204 225.216 154.837C221.133 154.851 217.046 154.776 212.966 154.92C211.012 154.988 210.433 154.361 210.454 152.407C210.547 143.11 210.498 133.812 210.5 124.513C212.636 123.397 213.119 124.522 213.114 126.402C213.1 132.245 213.091 138.087 213.126 143.928C213.126 145.065 212.671 146.844 214.382 146.859C216.244 146.869 218.525 148.178 219.997 145.822C221.365 146.548 222.533 147.425 222.588 149.165Z" fill="#D6E3FE"/>
<path d="M42.329 230.519C42.2215 231.869 41.4021 231.29 40.8884 230.957C35.9577 227.77 30.5482 225.287 26.8097 220.416C24.5258 217.438 21.2941 215.403 18.1461 213.373C17.416 212.903 16.6105 212.536 16.1289 211.764C26.4495 213.175 34.5352 218.115 40.1303 226.98C40.8702 228.157 41.6003 229.339 42.329 230.519Z" fill="#256BFB"/>
<path d="M74.956 114.091C74.956 115.92 74.9015 117.752 74.9727 119.577C75.0258 120.954 74.4353 121.419 73.1118 121.392C70.2389 121.336 67.3631 121.348 64.4902 121.392C62.9476 121.413 62.8275 120.679 63.5576 119.647C66.5632 115.399 69.5437 111.122 73.3799 107.548C73.6703 107.279 74.1588 106.949 74.4646 107.023C75.1011 107.177 74.9448 107.852 74.949 108.348C74.9643 110.259 74.956 112.175 74.956 114.091Z" fill="#E9F0FE"/>
<path d="M226.27 158.46C226.278 158.831 226.285 159.203 226.294 159.577C225.596 159.256 225.697 158.6 225.626 158.009C225.487 156.796 224.607 156.952 224.301 157.655C222.914 160.83 219.662 160.981 217.126 162.219C214.404 163.547 212.311 165.43 210.512 168.017C210.512 164.418 210.512 160.818 210.512 157.219C210.512 155.742 211.629 155.928 212.564 155.923C216.128 155.91 219.692 155.932 223.254 155.905C224.092 155.905 225.019 156.185 225.697 155.382C226.439 156.306 225.791 157.487 226.27 158.46Z" fill="#D7E4FE"/>
<path d="M14.1738 212.83C18.9719 215.801 23.6666 218.809 27.2962 223.349C30.0254 226.768 34.1003 228.686 37.79 230.973C38.5955 231.471 39.4079 231.959 40.2162 232.454C27.8574 230.788 19.3083 224.075 14.1738 212.83Z" fill="#266CFB"/>
<path d="M243.463 25.7438C243.489 28.9741 241.369 31.2719 238.297 31.3348C235.674 31.3878 233.033 28.7089 232.993 25.9602C232.956 23.1682 235.419 20.4655 238.074 20.3762C241.089 20.284 243.439 22.6223 243.463 25.7438Z" fill="#E8F0FE"/>
<path d="M207.879 308.395C207.897 311.895 206.032 313.923 202.768 313.956C199.676 313.989 197.434 311.71 197.41 308.512C197.388 305.476 199.504 303.506 202.796 303.486C205.88 303.471 207.864 305.385 207.879 308.395Z" fill="#E8F0FE"/>
<path d="M52.2631 252.911C52.1223 252.969 51.9737 253.007 51.822 253.022C51.7595 252.683 51.7189 252.341 51.7005 251.996C51.7298 246.692 51.7326 246.692 46.3162 246.692C43.2868 246.692 40.2505 246.819 37.231 246.65C35.0797 246.528 34.1723 247.148 34.6009 249.376C34.7266 250.034 34.559 250.745 34.5269 251.434C33.4702 248.215 34.3161 244.873 33.875 241.611C35.7079 240.855 37.6219 241.316 39.4883 241.317C43.5367 241.317 47.5991 241.038 51.6475 241.494C51.9559 241.611 52.2214 241.819 52.4083 242.09L52.2687 243.616C50.7331 244.528 49.0495 244.035 47.4371 244.081C44.419 244.163 41.3953 244.102 38.3743 244.108C42.1044 244.108 45.8345 244.095 49.5646 244.117C50.4986 244.117 51.4925 243.907 52.305 244.62C52.291 247.385 52.2771 250.148 52.2631 252.911Z" fill="#9B9AA9"/>
<path d="M37.2377 163.241C34.5978 163.229 32.5206 161.192 32.5834 158.68C32.6546 155.859 34.341 154.322 37.3396 154.344C39.6388 154.363 41.9296 156.519 41.9799 158.714C42.0329 160.988 39.6597 163.254 37.2377 163.241Z" fill="#E8F0FE"/>
<path d="M304.107 216.101C306.559 216.091 308.854 218.307 308.804 220.62C308.745 222.985 306.464 225.016 303.886 224.998C301.493 224.98 299.446 222.904 299.463 220.507C299.481 217.702 301.163 216.101 304.107 216.101Z" fill="#E8F0FE"/>
<path d="M34.9158 235.659C37.9437 235.692 40.9926 236.145 43.9689 235.195C45.9317 235.234 47.8944 235.292 49.8572 235.306C50.8177 235.306 51.7502 235.324 52.3882 236.203C52.712 239.202 52.4384 239.618 49.5501 239.683C45.2225 239.781 40.8823 239.806 36.5519 239.669C33.8995 239.586 33.5785 239.064 33.9945 236.247L34.9158 235.659Z" fill="#424058"/>
<path d="M59.2677 207.534C54.8243 211.611 52.7456 217.537 48.291 221.604C47.2691 222.536 46.2123 223.433 45.1472 224.318C43.472 225.714 44.0737 224.168 44.0457 223.449C46.2793 218.273 49.0937 213.511 53.7158 210.056L58.6018 207.483L59.2677 207.534Z" fill="#266CFA"/>
<path d="M46.207 225.725C50.127 222.312 53.4802 218.444 56.0893 213.914C57.4379 211.575 59.5388 209.844 61.5533 208.081C61.1903 211.338 59.4146 214.024 58.013 216.862C54.8706 220.87 51.1419 224.099 46.207 225.725Z" fill="#286CF9"/>
<path d="M33.9956 236.247C33.6648 238.27 34.427 238.991 36.5475 238.916C40.9854 238.758 45.4386 238.75 49.8751 238.916C52.0627 238.998 52.6741 238.147 52.3879 236.201C53.4963 238.155 52.7188 240.122 52.4075 242.083C52.3279 242.012 52.2483 241.944 52.1702 241.866C49.7104 241.078 47.1822 241.586 44.6876 241.503C41.9975 241.411 39.3032 241.503 36.6103 241.473C35.6708 241.473 34.6783 241.613 33.9021 240.855C34.1366 239.325 32.5117 237.754 33.9956 236.247Z" fill="#9B9AA9"/>
<path d="M241.884 118.768C242.272 121.012 241.167 121.474 239.132 121.438C237.162 121.402 235.674 121.298 236.126 118.752C236.579 116.605 237.031 114.458 237.578 111.856C239.46 114.131 239.135 117.493 241.884 118.768Z" fill="#D6E3FE"/>
<path d="M42.3458 211.751C42.2635 212.718 41.8153 212.309 41.3309 212.054C38.8614 210.743 36.5343 209.281 34.5869 207.201C33.1141 205.625 31.3761 204.295 29.7539 202.855L32.3882 203.312C36.7339 204.912 39.8791 207.931 42.3458 211.751Z" fill="#296CF7"/>
<path d="M28.1172 204.375C29.8245 204.468 30.9511 205.653 31.9757 206.748C34.3377 209.268 37.0188 211.468 39.9511 213.294C34.4229 212.427 30.6635 209.207 28.1172 204.375Z" fill="#2F6FF6"/>
<path d="M33.9024 240.858C39.2617 240.873 44.6209 240.858 49.9774 240.943C50.7298 240.956 52.0239 240.218 52.1719 241.869C46.0713 241.891 39.9638 242.353 33.8759 241.607C33.4697 241.342 33.4585 241.09 33.9024 240.858Z" fill="#5C5A6F"/>
<path d="M52.3072 244.617H34.8027V243.613H52.2709C52.2834 243.947 52.2946 244.282 52.3072 244.617Z" fill="#5B5A6E"/>
<path d="M249.752 155.908C249.356 155.843 248.738 156.102 248.635 155.562C248.54 155.045 249.131 154.916 249.533 154.904C251.096 154.863 252.66 154.87 254.223 154.868C257.611 154.868 260.999 154.868 264.388 154.868C263.089 155.921 261.575 155.234 260.166 155.382C256.708 155.742 253.175 154.733 249.752 155.908Z" fill="#E9F0FE"/>
<path d="M97.4663 154.877C96.6077 155.759 95.5119 155.361 94.5207 155.372C90.7264 155.42 86.9321 155.407 83.1391 155.381C82.3113 155.381 81.39 155.66 80.7129 154.874L80.7283 154.857C80.9363 154.705 81.1163 154.468 81.3718 154.438C86.4958 153.771 91.6848 153.771 96.8088 154.438C97.0642 154.472 97.2443 154.709 97.4537 154.857L97.4663 154.877Z" fill="#E9F0FE"/>
<path d="M97.4529 154.861H80.7274C80.7274 146.512 80.7274 138.163 80.7274 129.814C80.7274 128.661 80.3658 127.397 82.1471 126.957C83.229 126.69 82.7809 125.476 82.7963 124.67C82.9359 117.69 82.9219 117.775 89.86 117.664C92.1174 117.629 93.1239 118.189 92.7791 120.552C92.6395 121.489 92.8307 122.469 92.7414 123.417C92.511 125.839 92.8894 127.557 95.9955 127.186C97.827 126.964 97.4515 128.511 97.4543 129.559C97.4682 137.992 97.4678 146.426 97.4529 154.861Z" fill="#D6E3FE"/>
<path d="M136.435 197.262C135.116 197.213 134.551 196.789 134.696 195.414C134.868 193.783 134.91 192.14 135.009 190.502" fill="#FCFBFC"/>
<path d="M245.724 133.92H195.271C194.853 133.92 194.438 133.838 194.051 133.677C193.665 133.517 193.313 133.283 193.017 132.987C192.722 132.691 192.487 132.339 192.327 131.953C192.166 131.566 192.084 131.151 192.084 130.733C192.084 130.314 192.166 129.9 192.327 129.513C192.487 129.127 192.722 128.775 193.017 128.479C193.313 128.183 193.665 127.949 194.051 127.788C194.438 127.628 194.853 127.546 195.271 127.546H245.724C246.569 127.546 247.38 127.882 247.977 128.479C248.575 129.077 248.911 129.888 248.911 130.733C248.911 131.578 248.575 132.389 247.977 132.987C247.38 133.584 246.569 133.92 245.724 133.92Z" fill="white"/>
<path d="M245.724 134.185H195.271C194.355 134.185 193.477 133.821 192.83 133.174C192.182 132.526 191.818 131.648 191.818 130.733C191.818 129.817 192.182 128.939 192.83 128.291C193.477 127.644 194.355 127.28 195.271 127.28H245.724C246.639 127.28 247.517 127.644 248.165 128.291C248.812 128.939 249.176 129.817 249.176 130.733C249.176 131.648 248.812 132.526 248.165 133.174C247.517 133.821 246.639 134.185 245.724 134.185ZM195.271 127.812C194.496 127.812 193.753 128.12 193.206 128.668C192.658 129.215 192.35 129.958 192.35 130.733C192.35 131.507 192.658 132.25 193.206 132.798C193.753 133.345 194.496 133.653 195.271 133.653H245.724C246.498 133.653 247.241 133.345 247.789 132.798C248.336 132.25 248.644 131.507 248.644 130.733C248.644 129.958 248.336 129.215 247.789 128.668C247.241 128.12 246.498 127.812 245.724 127.812H195.271Z" fill="#003056"/>
<path d="M241.474 144.54H188.366C187.533 144.523 186.739 144.18 186.156 143.584C185.573 142.988 185.246 142.188 185.246 141.354C185.246 140.52 185.573 139.72 186.156 139.124C186.739 138.529 187.533 138.185 188.366 138.168H241.474C241.899 138.159 242.32 138.235 242.714 138.391C243.109 138.547 243.468 138.78 243.771 139.077C244.074 139.374 244.315 139.728 244.479 140.119C244.644 140.51 244.728 140.93 244.728 141.354C244.728 141.778 244.644 142.198 244.479 142.589C244.315 142.98 244.074 143.334 243.771 143.631C243.468 143.928 243.109 144.161 242.714 144.317C242.32 144.473 241.899 144.549 241.474 144.54Z" fill="white"/>
<path d="M241.475 144.806H188.367C187.464 144.788 186.604 144.416 185.971 143.771C185.339 143.125 184.984 142.258 184.984 141.354C184.984 140.451 185.339 139.583 185.971 138.938C186.604 138.292 187.464 137.921 188.367 137.903H241.475C241.934 137.893 242.391 137.976 242.818 138.145C243.244 138.314 243.633 138.567 243.961 138.889C244.289 139.21 244.55 139.594 244.728 140.017C244.905 140.44 244.997 140.895 244.997 141.354C244.997 141.813 244.905 142.268 244.728 142.691C244.55 143.115 244.289 143.498 243.961 143.82C243.633 144.141 243.244 144.394 242.818 144.563C242.391 144.733 241.934 144.815 241.475 144.806ZM188.367 138.433C187.604 138.45 186.877 138.765 186.343 139.311C185.808 139.857 185.509 140.59 185.509 141.354C185.509 142.118 185.808 142.852 186.343 143.398C186.877 143.944 187.604 144.259 188.367 144.275H241.475C241.864 144.284 242.251 144.215 242.613 144.072C242.975 143.929 243.304 143.715 243.582 143.443C243.861 143.171 244.082 142.846 244.232 142.487C244.383 142.128 244.461 141.743 244.461 141.354C244.461 140.965 244.383 140.58 244.232 140.221C244.082 139.863 243.861 139.538 243.582 139.266C243.304 138.994 242.975 138.78 242.613 138.637C242.251 138.494 241.864 138.425 241.475 138.433H188.367Z" fill="#003056"/>
<path d="M88.1719 259.339H179.708C183.653 259.339 186.446 256.151 185.949 252.219L163.411 74.1625C162.912 70.2299 159.311 67.0429 155.367 67.0429L68.4255 66.0308C58.4469 66.0308 57.0928 70.2341 57.5898 74.1667L80.1296 252.219C80.6266 256.151 84.2282 259.339 88.1719 259.339Z" fill="#003762"/>
<path d="M93.6807 259.339H185.216C189.162 259.339 191.955 256.141 191.458 252.196L168.915 73.5692C168.418 69.6255 164.817 66.4272 160.872 66.4272H69.3401C65.395 66.4272 62.6002 69.6255 63.0985 73.5692L85.637 252.196C86.1325 256.141 89.737 259.339 93.6807 259.339Z" fill="white"/>
<path d="M185.217 259.604H93.6812C89.6147 259.604 85.8874 256.296 85.375 252.229L62.8352 73.6055C62.5839 71.6106 63.1298 69.7358 64.3708 68.3272C65.6118 66.9187 67.3652 66.1704 69.3406 66.1704H160.875C164.943 66.1704 168.669 69.4789 169.182 73.5455L191.721 252.169C191.974 254.164 191.428 256.039 190.185 257.448C188.943 258.856 187.191 259.604 185.217 259.604ZM69.3406 66.6953C67.5258 66.6953 65.898 67.4003 64.7701 68.6776C63.6421 69.955 63.1298 71.6972 63.3629 73.5399L85.9013 252.164C86.3829 255.973 89.8729 259.072 93.6812 259.072H185.217C187.032 259.072 188.659 258.374 189.786 257.092C190.913 255.809 191.426 254.071 191.195 252.229L168.656 73.6055C168.175 69.7958 164.685 66.6953 160.875 66.6953H69.3406Z" fill="#003056"/>
<path d="M102.96 259.605H93.6804C89.6138 259.605 85.8865 256.296 85.3742 252.229L81.9246 224.896C81.9196 224.861 81.9215 224.825 81.9303 224.791C81.9392 224.757 81.9547 224.725 81.9761 224.697C81.9975 224.669 82.0243 224.645 82.0549 224.628C82.0855 224.61 82.1193 224.599 82.1543 224.594C82.1893 224.59 82.2249 224.593 82.2588 224.602C82.2928 224.612 82.3246 224.628 82.3522 224.65C82.3798 224.672 82.4028 224.699 82.4197 224.73C82.4367 224.761 82.4473 224.795 82.4509 224.83L85.9005 252.164C86.3821 255.974 89.8721 259.073 93.6804 259.073H102.96C103.027 259.078 103.09 259.108 103.136 259.157C103.181 259.206 103.207 259.271 103.207 259.339C103.207 259.406 103.181 259.471 103.136 259.52C103.09 259.57 103.027 259.6 102.96 259.605Z" fill="#003056"/>
<path d="M184.801 254.351H92.7739C92.2555 254.338 91.7585 254.142 91.3705 253.798C90.9825 253.454 90.7286 252.984 90.6534 252.471L69.1312 81.9203C69.0955 81.6748 69.1132 81.4245 69.1831 81.1865C69.2529 80.9485 69.3734 80.7283 69.5361 80.5411C69.6993 80.3587 69.8998 80.2135 70.1241 80.1155C70.3483 80.0175 70.5911 79.9688 70.8358 79.9729H162.864C163.383 79.9864 163.879 80.1825 164.267 80.5265C164.655 80.8705 164.909 81.3404 164.985 81.8533L186.506 252.41C186.541 252.655 186.524 252.905 186.454 253.143C186.384 253.381 186.263 253.602 186.101 253.789C185.937 253.97 185.736 254.115 185.512 254.212C185.288 254.309 185.045 254.356 184.801 254.351ZM70.8358 80.5034C70.6663 80.4997 70.498 80.5326 70.3424 80.5998C70.1868 80.667 70.0475 80.767 69.9339 80.8929C69.8212 81.0235 69.7379 81.1769 69.6897 81.3427C69.6415 81.5084 69.6296 81.6826 69.6547 81.8533L91.1797 252.41C91.2363 252.796 91.4272 253.149 91.7188 253.408C92.0104 253.668 92.384 253.816 92.7739 253.827H184.801C184.971 253.83 185.139 253.797 185.294 253.73C185.45 253.663 185.589 253.563 185.703 253.437C185.816 253.306 185.899 253.153 185.947 252.987C185.995 252.821 186.007 252.646 185.982 252.475L164.457 81.9203C164.401 81.5344 164.21 81.1806 163.919 80.9214C163.628 80.6621 163.254 80.5141 162.864 80.5034H70.8358Z" fill="#003056"/>
<path d="M116.254 75.5154C117.731 75.5154 118.778 74.3177 118.591 72.8393C118.404 71.3609 117.055 70.1646 115.578 70.1646C114.101 70.1646 113.054 71.3623 113.24 72.8393C113.426 74.3163 114.776 75.5154 116.254 75.5154Z" fill="#003056"/>
<path d="M178.165 196.042H178.115C172.81 196.027 167.34 192.831 161.874 186.538C159.473 183.76 157.34 180.763 155.501 177.585C155.307 177.238 155.185 176.855 155.139 176.46C155.094 176.065 155.126 175.664 155.236 175.282C155.345 174.899 155.528 174.542 155.776 174.23C156.023 173.918 156.329 173.658 156.677 173.465C157.025 173.272 157.407 173.149 157.802 173.103C158.198 173.058 158.598 173.091 158.981 173.2C159.363 173.309 159.721 173.493 160.032 173.74C160.344 173.987 160.604 174.293 160.797 174.641C163.17 178.903 170.918 189.961 178.131 189.982H178.165C180.453 189.982 182.222 189.275 183.572 187.824C186.803 184.346 187.039 177.398 186.858 175.014C186.827 174.617 186.876 174.218 187 173.84C187.123 173.462 187.321 173.112 187.58 172.81C187.839 172.508 188.155 172.261 188.51 172.081C188.865 171.901 189.252 171.793 189.648 171.763C190.045 171.732 190.444 171.781 190.822 171.904C191.2 172.028 191.55 172.225 191.852 172.485C192.154 172.744 192.402 173.06 192.582 173.415C192.761 173.77 192.869 174.157 192.9 174.553C192.935 175.011 193.69 185.839 188.014 191.949C185.485 194.665 182.177 196.042 178.165 196.042Z" fill="#00CDB0"/>
<path d="M199.44 174.211H181.496C181.093 174.22 180.692 174.148 180.317 173.999C179.941 173.851 179.6 173.629 179.311 173.347C179.023 173.065 178.794 172.728 178.637 172.356C178.481 171.984 178.4 171.585 178.4 171.181C178.4 170.778 178.481 170.378 178.637 170.006C178.794 169.634 179.023 169.297 179.311 169.015C179.6 168.733 179.941 168.511 180.317 168.363C180.692 168.214 181.093 168.142 181.496 168.151H199.44C200.233 168.168 200.987 168.495 201.541 169.061C202.096 169.628 202.406 170.389 202.406 171.181C202.406 171.974 202.096 172.735 201.541 173.301C200.987 173.867 200.233 174.194 199.44 174.211Z" fill="#00CDB0"/>
<path d="M174.779 114.612H176.466C178.456 114.612 180.366 115.403 181.773 116.81C183.181 118.218 183.972 120.127 183.972 122.118V125.022C183.972 127.013 183.181 128.922 181.773 130.33C180.366 131.737 178.456 132.528 176.466 132.528H174.779V114.612Z" fill="white"/>
<path d="M176.209 132.791H174.778C174.743 132.791 174.709 132.784 174.676 132.771C174.644 132.758 174.615 132.738 174.59 132.713C174.565 132.689 174.545 132.66 174.532 132.627C174.519 132.595 174.512 132.56 174.512 132.525V114.612C174.512 114.577 174.519 114.542 174.532 114.51C174.545 114.478 174.565 114.449 174.59 114.424C174.615 114.399 174.644 114.38 174.676 114.366C174.709 114.353 174.743 114.346 174.778 114.347H176.208C178.336 114.349 180.377 115.196 181.882 116.701C183.387 118.206 184.234 120.247 184.236 122.375V124.765C184.233 126.893 183.386 128.932 181.881 130.437C180.377 131.941 178.337 132.788 176.209 132.791ZM175.045 132.26H176.209C178.197 132.258 180.103 131.467 181.508 130.062C182.914 128.656 183.704 126.75 183.706 124.762V122.372C183.704 120.385 182.914 118.479 181.508 117.073C180.103 115.667 178.197 114.877 176.209 114.874H175.045V132.26Z" fill="#003056"/>
<path d="M93.8828 132.522H92.1964C90.2056 132.522 88.2964 131.732 86.8887 130.324C85.481 128.916 84.6901 127.007 84.6901 125.016V122.112C84.6901 120.122 85.481 118.212 86.8887 116.805C88.2964 115.397 90.2056 114.606 92.1964 114.606H93.8828V132.522Z" fill="white"/>
<path d="M93.8851 132.79H92.4542C90.3257 132.788 88.2852 131.941 86.7801 130.436C85.275 128.931 84.4284 126.891 84.4258 124.762V122.372C84.4284 120.244 85.275 118.203 86.7801 116.698C88.2852 115.193 90.3257 114.346 92.4542 114.344H93.8851C93.9554 114.344 94.0229 114.372 94.0726 114.421C94.1224 114.471 94.1503 114.539 94.1503 114.609V132.525C94.1503 132.596 94.1224 132.663 94.0726 132.713C94.0229 132.763 93.9554 132.79 93.8851 132.79ZM92.4542 114.874C90.4664 114.876 88.5607 115.667 87.1553 117.073C85.7499 118.479 84.9595 120.384 84.9577 122.372V124.762C84.9595 126.75 85.7499 128.656 87.1553 130.061C88.5607 131.467 90.4664 132.258 92.4542 132.26H93.6184V114.874H92.4542Z" fill="#003056"/>
<path d="M90.9883 122.827C90.9883 103.575 110.393 83.6597 134.333 83.6597C158.273 83.6597 177.676 103.575 177.676 122.827C177.676 142.079 158.271 153.379 134.333 153.379C110.394 153.379 90.9883 142.079 90.9883 122.827Z" fill="white"/>
<path d="M134.332 153.644C122.304 153.644 111.368 150.767 103.535 145.547C95.1591 139.963 90.7227 132.102 90.7227 122.831C90.7227 113.32 95.3797 103.481 103.502 95.8354C112.017 87.8154 122.967 83.3984 134.332 83.3984C145.697 83.3984 156.645 87.8084 165.163 95.8312C173.283 103.477 177.941 113.316 177.941 122.827C177.941 132.098 173.51 139.952 165.128 145.543C157.295 150.768 146.359 153.644 134.332 153.644ZM134.332 83.9261C109.676 83.9261 91.2531 104.464 91.2531 122.827C91.2531 131.911 95.6031 139.614 103.831 145.102C111.576 150.267 122.409 153.113 134.332 153.113C146.256 153.113 157.087 150.267 164.834 145.102C173.062 139.614 177.41 131.911 177.41 122.827C177.41 104.464 158.987 83.9261 134.332 83.9261Z" fill="#003056"/>
<path d="M145.182 159.162H123.474C118.904 159.162 114.521 160.978 111.289 164.209C108.058 167.441 106.242 171.824 106.242 176.394C106.242 182.682 106.855 188.955 108.074 195.123L111.195 210.936C112.252 216.294 115.137 221.12 119.357 224.588C123.576 228.056 128.869 229.952 134.33 229.952C139.792 229.952 145.085 228.056 149.304 224.588C153.524 221.12 156.408 216.294 157.466 210.936L160.588 195.126C161.806 188.957 162.419 182.685 162.419 176.397C162.419 174.134 161.973 171.892 161.107 169.801C160.241 167.71 158.972 165.809 157.371 164.209C155.77 162.608 153.87 161.339 151.779 160.473C149.687 159.607 147.446 159.162 145.182 159.162Z" fill="white"/>
<path d="M134.332 230.213C128.812 230.203 123.465 228.282 119.2 224.777C114.935 221.272 112.015 216.398 110.935 210.985L107.814 195.175C106.593 188.989 105.978 182.699 105.977 176.394C105.982 171.756 107.827 167.308 111.108 164.028C114.388 160.748 118.835 158.903 123.474 158.897H145.183C149.822 158.903 154.269 160.748 157.55 164.028C160.83 167.308 162.675 171.756 162.681 176.394C162.679 182.699 162.064 188.989 160.844 195.175L157.722 210.985C156.643 216.397 153.724 221.27 149.46 224.775C145.197 228.28 139.851 230.201 134.332 230.213ZM123.474 159.423C118.976 159.43 114.664 161.22 111.485 164.402C108.305 167.584 106.518 171.896 106.514 176.394C106.512 182.664 107.119 188.919 108.329 195.072L111.452 210.881C112.494 216.182 115.345 220.956 119.518 224.387C123.69 227.819 128.924 229.695 134.327 229.695C139.729 229.695 144.963 227.819 149.135 224.387C153.308 220.956 156.159 216.182 157.201 210.881L160.323 195.072C161.536 188.92 162.147 182.665 162.149 176.394C162.145 171.895 160.357 167.582 157.176 164.4C153.995 161.218 149.682 159.428 145.183 159.423H123.474Z" fill="#003056"/>
<path d="M146.15 159.424H122.511C122.441 159.424 122.374 159.396 122.324 159.346C122.274 159.296 122.246 159.229 122.246 159.158C122.246 159.088 122.274 159.02 122.324 158.971C122.374 158.921 122.441 158.893 122.511 158.893H146.15C146.22 158.893 146.288 158.921 146.337 158.971C146.387 159.02 146.415 159.088 146.415 159.158C146.415 159.229 146.387 159.296 146.337 159.346C146.288 159.396 146.22 159.424 146.15 159.424Z" fill="#003056"/>
<path d="M163.47 117.049H121.73C117.394 117.049 113.879 120.837 113.879 125.509V131.029C113.879 134.593 115.782 138.369 119.061 138.986C130.628 141.16 154.571 141.16 166.137 138.986C169.417 138.37 171.32 134.594 171.32 131.029V125.509C171.323 120.837 167.808 117.049 163.47 117.049Z" fill="#00CDB0"/>
<path d="M130.165 130.991C131.618 130.991 132.795 129.722 132.795 128.157C132.795 126.592 131.618 125.323 130.165 125.323C128.713 125.323 127.535 126.592 127.535 128.157C127.535 129.722 128.713 130.991 130.165 130.991Z" fill="white"/>
<path d="M158.15 130.991C159.602 130.991 160.78 129.722 160.78 128.157C160.78 126.592 159.602 125.323 158.15 125.323C156.697 125.323 155.52 126.592 155.52 128.157C155.52 129.722 156.697 130.991 158.15 130.991Z" fill="white"/>
<path d="M144.65 189.389C150.084 183.955 150.084 175.144 144.65 169.71C139.215 164.276 130.405 164.276 124.97 169.71C119.536 175.144 119.536 183.955 124.97 189.389C130.405 194.824 139.215 194.824 144.65 189.389Z" fill="white"/>
<path d="M134.808 193.73C132.003 193.73 129.261 192.899 126.929 191.34C124.597 189.782 122.78 187.568 121.706 184.976C120.633 182.385 120.352 179.534 120.899 176.783C121.447 174.032 122.797 171.506 124.78 169.523C126.764 167.539 129.29 166.189 132.041 165.642C134.792 165.094 137.643 165.375 140.234 166.449C142.825 167.522 145.04 169.339 146.598 171.671C148.156 174.003 148.988 176.745 148.988 179.55C148.984 183.309 147.488 186.914 144.83 189.572C142.171 192.23 138.567 193.726 134.808 193.73ZM134.808 165.9C132.108 165.9 129.469 166.7 127.224 168.2C124.979 169.7 123.23 171.832 122.196 174.326C121.163 176.82 120.893 179.565 121.42 182.213C121.946 184.861 123.246 187.293 125.155 189.202C127.064 191.111 129.497 192.411 132.145 192.938C134.792 193.464 137.537 193.194 140.031 192.161C142.525 191.128 144.657 189.378 146.157 187.133C147.657 184.889 148.458 182.249 148.458 179.55C148.454 175.931 147.014 172.461 144.455 169.902C141.896 167.343 138.427 165.904 134.808 165.9Z" fill="#003056"/>
<path d="M136.151 171.643H133.94C132.781 171.643 131.842 172.582 131.842 173.741V185.928C131.842 187.087 132.781 188.026 133.94 188.026H136.151C137.31 188.026 138.249 187.087 138.249 185.928V173.741C138.249 172.582 137.31 171.643 136.151 171.643Z" fill="#00CDB0"/>
<path d="M141.103 176.617H128.989C127.83 176.617 126.891 177.556 126.891 178.715V180.955C126.891 182.114 127.83 183.054 128.989 183.054H141.103C142.262 183.054 143.201 182.114 143.201 180.955V178.715C143.201 177.556 142.262 176.617 141.103 176.617Z" fill="#00CDB0"/>
<path d="M106.607 209.819C100.671 209.819 92.647 208.981 87.4916 205.028C84.5237 202.752 82.7912 199.748 82.3389 196.094C80.3133 179.713 100.081 170.337 100.924 169.945C101.653 169.606 102.486 169.571 103.241 169.846C103.995 170.122 104.61 170.686 104.949 171.415C105.287 172.144 105.323 172.977 105.047 173.732C104.771 174.487 104.207 175.101 103.479 175.44C103.312 175.518 86.8662 183.355 88.3529 195.349C88.6014 197.354 89.5256 198.944 91.1784 200.212C96.8392 204.55 109.187 203.942 113.46 203.34C114.251 203.24 115.049 203.455 115.683 203.94C116.316 204.424 116.733 205.138 116.843 205.928C116.953 206.718 116.748 207.519 116.271 208.158C115.795 208.797 115.086 209.223 114.298 209.343C111.747 209.665 109.178 209.824 106.607 209.819Z" fill="#00CDB0"/>
<path d="M127.529 213.037H121.71C120.181 213.041 118.705 212.475 117.571 211.448C116.437 210.422 115.727 209.01 115.579 207.487L115.376 205.463C115.291 204.607 115.385 203.741 115.654 202.924C115.923 202.106 116.361 201.354 116.939 200.715C117.516 200.077 118.221 199.567 119.008 199.218C119.795 198.869 120.647 198.688 121.508 198.688H130.788C131.592 198.688 132.362 199.008 132.93 199.576C133.498 200.144 133.818 200.914 133.818 201.718C133.818 202.521 133.498 203.292 132.93 203.86C132.362 204.428 131.592 204.747 130.788 204.747H121.508C121.493 204.746 121.479 204.749 121.465 204.755C121.452 204.761 121.44 204.769 121.431 204.781C121.421 204.791 121.414 204.804 121.409 204.818C121.405 204.831 121.404 204.846 121.406 204.86L121.608 206.884C121.611 206.91 121.622 206.933 121.641 206.95C121.66 206.967 121.685 206.977 121.71 206.977H127.529C128.321 206.994 129.075 207.32 129.629 207.887C130.184 208.453 130.494 209.214 130.494 210.007C130.494 210.799 130.184 211.56 129.629 212.126C129.075 212.693 128.321 213.02 127.529 213.037Z" fill="#00CDB0"/>
<path d="M265.46 207.345C265.415 207.345 265.372 207.334 265.333 207.312C265.271 207.278 265.225 207.221 265.206 207.154C265.186 207.086 265.194 207.013 265.228 206.952L266.222 205.147C266.239 205.116 266.261 205.088 266.288 205.066C266.315 205.044 266.347 205.027 266.38 205.017C266.414 205.007 266.449 205.004 266.484 205.008C266.519 205.012 266.553 205.022 266.584 205.039C266.615 205.056 266.642 205.079 266.664 205.106C266.685 205.134 266.702 205.165 266.711 205.199C266.721 205.233 266.724 205.268 266.719 205.303C266.715 205.338 266.704 205.372 266.687 205.402L265.693 207.207C265.67 207.249 265.637 207.284 265.595 207.309C265.554 207.333 265.508 207.346 265.46 207.345Z" fill="#003056"/>
<path d="M263.144 211.549C263.098 211.548 263.053 211.536 263.013 211.513C262.973 211.49 262.94 211.458 262.916 211.418C262.893 211.378 262.88 211.333 262.879 211.287C262.878 211.241 262.889 211.196 262.911 211.155L263.905 209.35C263.939 209.288 263.996 209.243 264.064 209.223C264.132 209.204 264.204 209.212 264.266 209.246C264.328 209.28 264.373 209.337 264.393 209.405C264.412 209.473 264.404 209.545 264.37 209.607L263.377 211.411C263.354 211.452 263.321 211.487 263.28 211.511C263.239 211.536 263.192 211.549 263.144 211.549Z" fill="#003056"/>
<path d="M263.599 207.884C263.555 207.884 263.51 207.872 263.471 207.85L261.667 206.858C261.606 206.824 261.56 206.767 261.54 206.699C261.52 206.632 261.528 206.559 261.562 206.497C261.596 206.435 261.653 206.389 261.721 206.37C261.788 206.35 261.861 206.358 261.923 206.392L263.728 207.386C263.78 207.414 263.821 207.459 263.845 207.513C263.868 207.567 263.873 207.628 263.858 207.685C263.844 207.742 263.81 207.793 263.763 207.829C263.716 207.865 263.659 207.884 263.599 207.884Z" fill="#003056"/>
<path d="M267.804 210.199C267.759 210.199 267.715 210.187 267.677 210.165L265.872 209.171C265.841 209.154 265.814 209.132 265.792 209.104C265.771 209.077 265.754 209.046 265.745 209.012C265.735 208.979 265.732 208.944 265.736 208.909C265.74 208.875 265.751 208.841 265.768 208.81C265.784 208.78 265.807 208.753 265.834 208.731C265.862 208.71 265.893 208.693 265.926 208.684C265.96 208.674 265.995 208.671 266.03 208.675C266.064 208.679 266.098 208.69 266.128 208.706L267.932 209.7C267.984 209.729 268.025 209.773 268.049 209.828C268.072 209.882 268.077 209.942 268.062 210C268.048 210.057 268.014 210.108 267.967 210.144C267.92 210.18 267.863 210.199 267.804 210.199Z" fill="#003056"/>
<path d="M171.755 68.6093C171.449 68.6092 171.146 68.5519 170.861 68.4404C170.549 68.3183 170.265 68.1352 170.026 67.902C169.786 67.6687 169.595 67.39 169.465 67.0821C169.197 66.465 169.181 65.7677 169.421 65.1393C169.661 64.5109 170.137 64.0011 170.748 63.7191C171.046 63.584 171.368 63.51 171.696 63.5013C172.023 63.4927 172.349 63.5497 172.654 63.6688C172.966 63.7911 173.25 63.9744 173.49 64.2078C173.729 64.4413 173.92 64.7204 174.05 65.0285C174.318 65.6457 174.333 66.3428 174.093 66.9711C173.854 67.5994 173.378 68.1092 172.768 68.3915C172.449 68.5345 172.104 68.6088 171.755 68.6093ZM171.755 64.0318C171.481 64.0321 171.211 64.0906 170.961 64.2035C170.477 64.4276 170.1 64.8322 169.911 65.3308C169.721 65.8294 169.734 66.3823 169.948 66.8713C170.051 67.1148 170.202 67.3353 170.392 67.5196C170.582 67.704 170.807 67.8485 171.053 67.9448C171.293 68.0388 171.549 68.0838 171.806 68.0771C172.063 68.0704 172.317 68.0121 172.551 67.9057C173.035 67.6816 173.412 67.277 173.602 66.7784C173.791 66.2798 173.778 65.7269 173.565 65.2379C173.461 64.9942 173.31 64.7737 173.12 64.5893C172.929 64.4049 172.704 64.2605 172.458 64.1644C172.233 64.0771 171.995 64.0321 171.754 64.0318H171.755Z" fill="#003056"/>
<path d="M168.796 273.048C168.237 273.048 167.682 273.043 167.13 273.031C167.06 273.03 166.993 273.001 166.944 272.95C166.895 272.899 166.868 272.831 166.869 272.761C166.874 272.69 166.906 272.624 166.958 272.576C167.009 272.527 167.078 272.501 167.148 272.501C178.777 272.737 190.562 270.484 202.156 265.8C202.188 265.786 202.223 265.779 202.258 265.779C202.294 265.779 202.328 265.785 202.361 265.799C202.394 265.812 202.423 265.832 202.448 265.857C202.473 265.882 202.493 265.912 202.506 265.944C202.519 265.977 202.526 266.012 202.525 266.047C202.525 266.082 202.518 266.117 202.504 266.149C202.49 266.182 202.469 266.211 202.444 266.235C202.418 266.26 202.388 266.279 202.355 266.292C191.241 270.78 179.961 273.048 168.796 273.048Z" fill="#003056"/>
<path d="M163.005 272.812C155.606 272.707 150.976 271.577 150.93 271.565C150.861 271.548 150.803 271.505 150.766 271.445C150.73 271.384 150.719 271.312 150.736 271.244C150.753 271.175 150.797 271.117 150.857 271.08C150.918 271.044 150.99 271.033 151.058 271.05C151.104 271.062 155.679 272.178 163.012 272.28C163.079 272.285 163.142 272.315 163.188 272.365C163.234 272.414 163.259 272.479 163.259 272.546C163.259 272.614 163.234 272.678 163.188 272.728C163.142 272.777 163.079 272.807 163.012 272.812H163.005Z" fill="#003056"/>
<path d="M169.506 277.944C166.586 277.944 164.856 277.789 164.795 277.783C164.76 277.78 164.726 277.77 164.695 277.753C164.665 277.737 164.637 277.714 164.615 277.688C164.593 277.661 164.576 277.629 164.566 277.596C164.556 277.563 164.553 277.528 164.556 277.493C164.559 277.458 164.57 277.424 164.586 277.394C164.602 277.363 164.625 277.336 164.652 277.313C164.679 277.291 164.71 277.275 164.743 277.264C164.777 277.254 164.812 277.251 164.846 277.254C165.063 277.275 186.808 279.209 207.815 268.97C207.879 268.939 207.952 268.935 208.018 268.958C208.085 268.981 208.14 269.029 208.17 269.092C208.201 269.156 208.206 269.229 208.183 269.295C208.16 269.362 208.112 269.417 208.048 269.448C192.772 276.895 177.107 277.944 169.506 277.944Z" fill="#003056"/>
<path d="M267.041 192.369C267.02 192.372 266.998 192.372 266.977 192.369C266.943 192.361 266.911 192.346 266.883 192.325C266.855 192.304 266.832 192.278 266.814 192.249C266.796 192.219 266.784 192.186 266.778 192.151C266.773 192.117 266.775 192.082 266.783 192.048C269.821 179.643 270.016 167.63 267.361 156.346C267.35 156.312 267.347 156.275 267.351 156.238C267.355 156.202 267.366 156.167 267.384 156.135C267.403 156.103 267.427 156.076 267.456 156.054C267.486 156.032 267.519 156.016 267.555 156.008C267.59 156 267.627 155.999 267.663 156.005C267.699 156.012 267.734 156.026 267.764 156.046C267.795 156.066 267.82 156.093 267.84 156.124C267.86 156.154 267.873 156.189 267.879 156.225C270.552 167.591 270.357 179.686 267.298 192.173C267.283 192.23 267.249 192.279 267.203 192.315C267.157 192.35 267.1 192.369 267.041 192.369Z" fill="#003056"/>
<path d="M270.459 196.604C270.431 196.604 270.403 196.6 270.376 196.592C270.309 196.57 270.253 196.522 270.222 196.459C270.19 196.396 270.185 196.322 270.207 196.255C277.755 173.361 271.065 152.628 270.997 152.421C270.975 152.354 270.98 152.281 271.011 152.218C271.043 152.155 271.098 152.108 271.165 152.085C271.232 152.063 271.305 152.068 271.368 152.1C271.431 152.131 271.479 152.187 271.501 152.254C271.569 152.463 278.316 173.355 270.712 196.423C270.694 196.476 270.66 196.522 270.615 196.554C270.57 196.587 270.515 196.604 270.459 196.604Z" fill="#003056"/>
<path d="M60.6173 193.786C60.2547 193.786 59.8987 193.689 59.5856 193.506C59.1513 193.255 58.8235 192.853 58.6631 192.378C58.5027 191.902 58.5208 191.384 58.7139 190.921C58.9071 190.457 59.2621 190.08 59.7129 189.859C60.1637 189.638 60.6794 189.589 61.164 189.72C61.6486 189.851 62.069 190.154 62.3468 190.572C62.6246 190.99 62.7409 191.495 62.674 191.993C62.6071 192.49 62.3615 192.946 61.9831 193.276C61.6047 193.606 61.1193 193.787 60.6173 193.786ZM60.6173 190.178C60.2447 190.178 59.8845 190.312 59.6039 190.558C59.3234 190.803 59.1415 191.142 59.0922 191.511C59.043 191.88 59.1296 192.255 59.3362 192.565C59.5427 192.875 59.8549 193.1 60.2146 193.197C60.5744 193.294 60.9571 193.257 61.2916 193.092C61.626 192.928 61.8892 192.648 62.0323 192.304C62.1753 191.96 62.1884 191.575 62.0691 191.222C61.9497 190.869 61.7061 190.572 61.3837 190.385C61.1528 190.25 60.8902 190.179 60.6228 190.178H60.6173Z" fill="#003056"/>
<path d="M70.9993 228.451C70.9584 228.451 70.9181 228.442 70.8816 228.424C70.845 228.406 70.8131 228.379 70.7885 228.347C65.8215 221.834 62.1584 212.244 59.587 199.031C59.5735 198.962 59.5879 198.89 59.6272 198.832C59.6665 198.773 59.7273 198.733 59.7964 198.719C59.8654 198.706 59.937 198.72 59.9954 198.76C60.0538 198.799 60.0942 198.86 60.1077 198.929C62.6638 212.062 66.2948 221.582 71.2101 228.028C71.2527 228.084 71.2715 228.154 71.2624 228.224C71.2532 228.294 71.2168 228.357 71.1612 228.4C71.1145 228.434 71.0575 228.453 70.9993 228.451Z" fill="#003056"/>
<path d="M230.853 109.417C239.441 109.417 246.402 102.456 246.402 93.8685C246.402 85.2812 239.441 78.3198 230.853 78.3198C222.266 78.3198 215.305 85.2812 215.305 93.8685C215.305 102.456 222.266 109.417 230.853 109.417Z" fill="white"/>
<path d="M230.853 109.682C227.726 109.681 224.669 108.753 222.069 107.015C219.469 105.276 217.443 102.806 216.247 99.9164C215.051 97.0267 214.739 93.8472 215.349 90.78C215.96 87.7128 217.467 84.8956 219.679 82.6845C221.891 80.4734 224.708 78.9679 227.776 78.3581C230.843 77.7484 234.023 78.0619 236.912 79.259C239.801 80.4561 242.271 82.483 244.008 85.0834C245.745 87.6839 246.673 90.7411 246.673 93.8686C246.668 98.0622 244.999 102.083 242.034 105.047C239.068 108.012 235.047 109.679 230.853 109.682ZM230.853 78.5866C227.831 78.5866 224.876 79.4828 222.363 81.1621C219.85 82.8413 217.891 85.228 216.734 88.0204C215.578 90.8128 215.275 93.8855 215.865 96.85C216.455 99.8144 217.91 102.537 220.047 104.675C222.184 106.812 224.907 108.267 227.872 108.857C230.836 109.447 233.909 109.144 236.701 107.987C239.494 106.831 241.881 104.872 243.56 102.359C245.239 99.8457 246.135 96.8911 246.135 93.8686C246.13 89.817 244.519 85.9328 241.654 83.0679C238.789 80.203 234.905 78.5914 230.853 78.5866Z" fill="#003056"/>
<path d="M235.075 102.734H226.458C226.142 102.734 225.832 102.656 225.555 102.507C225.277 102.358 225.041 102.142 224.866 101.88C224.692 101.618 224.585 101.316 224.555 101.002C224.526 100.689 224.574 100.373 224.696 100.082L227.767 92.8116C228.323 91.4991 228.607 90.0879 228.605 88.6627V85.2955C228.605 85.2252 228.633 85.1577 228.682 85.108C228.732 85.0582 228.799 85.0303 228.87 85.0303H232.649C232.719 85.0303 232.787 85.0582 232.836 85.108C232.886 85.1577 232.914 85.2252 232.914 85.2955V88.6543C232.911 90.0795 233.196 91.4907 233.752 92.8032L236.823 100.074C236.945 100.364 236.993 100.68 236.963 100.994C236.933 101.308 236.827 101.609 236.652 101.872C236.478 102.134 236.242 102.349 235.964 102.498C235.686 102.648 235.376 102.726 235.061 102.726L235.075 102.734ZM229.142 85.5635V88.6571C229.144 90.154 228.844 91.6358 228.26 93.014L225.189 100.283C225.099 100.493 225.064 100.722 225.085 100.949C225.106 101.176 225.183 101.394 225.309 101.584C225.435 101.774 225.606 101.93 225.807 102.038C226.008 102.145 226.232 102.201 226.46 102.201H235.078C235.306 102.201 235.53 102.145 235.731 102.038C235.932 101.93 236.104 101.774 236.23 101.584C236.355 101.394 236.432 101.176 236.453 100.949C236.474 100.722 236.439 100.493 236.35 100.283L233.278 93.014C232.694 91.6359 232.393 90.1541 232.395 88.6571V85.5649L229.142 85.5635Z" fill="#003056"/>
<path d="M232.461 85.5651H229.07C228.77 85.5547 228.486 85.4283 228.278 85.2125C228.07 84.9968 227.953 84.7085 227.953 84.4085C227.953 84.1086 228.07 83.8203 228.278 83.6045C228.486 83.3888 228.77 83.2624 229.07 83.252H232.461C232.761 83.2624 233.045 83.3888 233.253 83.6045C233.462 83.8203 233.578 84.1086 233.578 84.4085C233.578 84.7085 233.462 84.9968 233.253 85.2125C233.045 85.4283 232.761 85.5547 232.461 85.5651ZM229.07 83.7838C228.904 83.7838 228.744 83.85 228.626 83.9678C228.508 84.0856 228.442 84.2454 228.442 84.412C228.442 84.5786 228.508 84.7384 228.626 84.8562C228.744 84.974 228.904 85.0402 229.07 85.0402H232.461C232.628 85.0402 232.788 84.974 232.905 84.8562C233.023 84.7384 233.089 84.5786 233.089 84.412C233.089 84.2454 233.023 84.0856 232.905 83.9678C232.788 83.85 232.628 83.7838 232.461 83.7838H229.07Z" fill="#003056"/>
<path d="M233.331 93.3452H228.2L225.253 100.314C225.169 100.513 225.136 100.729 225.156 100.944C225.176 101.158 225.249 101.365 225.368 101.544C225.487 101.724 225.649 101.871 225.839 101.973C226.029 102.075 226.241 102.129 226.457 102.129H235.074C235.29 102.129 235.502 102.075 235.692 101.973C235.882 101.871 236.044 101.724 236.163 101.544C236.282 101.365 236.355 101.158 236.375 100.944C236.395 100.729 236.361 100.513 236.277 100.314L233.331 93.3452Z" fill="#2087D6"/>
<path d="M233.341 93.345C233.341 93.4287 232.191 93.4985 230.772 93.4985C229.354 93.4985 228.205 93.4287 228.205 93.345C228.205 93.2612 229.354 93.1914 230.772 93.1914C232.191 93.1914 233.341 93.2598 233.341 93.345Z" fill="white"/>
<path d="M204.022 89.4025C209.983 83.4416 209.983 73.7771 204.022 67.8162C198.061 61.8553 188.397 61.8553 182.436 67.8162C176.475 73.7771 176.475 83.4416 182.436 89.4026C188.397 95.3635 198.061 95.3635 204.022 89.4025Z" fill="white"/>
<path d="M193.229 94.1406C190.157 94.1409 187.155 93.2303 184.601 91.5239C182.046 89.8176 180.056 87.3921 178.88 84.5543C177.704 81.7165 177.396 78.5938 177.996 75.5811C178.595 72.5684 180.074 69.801 182.246 67.6289C184.417 65.4567 187.185 63.9775 190.197 63.3781C193.21 62.7788 196.333 63.0862 199.171 64.2617C202.009 65.4371 204.434 67.4277 206.141 69.9817C207.847 72.5357 208.758 75.5384 208.758 78.6101C208.753 82.7273 207.116 86.6746 204.205 89.586C201.293 92.4975 197.346 94.1354 193.229 94.1406ZM193.229 63.6115C190.263 63.6115 187.363 64.4911 184.896 66.1392C182.43 67.7873 180.507 70.1297 179.372 72.8704C178.237 75.611 177.94 78.6267 178.519 81.5362C179.097 84.4456 180.526 87.1181 182.624 89.2157C184.721 91.3133 187.394 92.7418 190.303 93.3205C193.213 93.8993 196.228 93.6022 198.969 92.467C201.71 91.3318 204.052 89.4094 205.7 86.9429C207.348 84.4764 208.228 81.5765 208.228 78.6101C208.223 74.6337 206.641 70.8215 203.829 68.0098C201.018 65.198 197.206 63.6163 193.229 63.6115Z" fill="#003056"/>
<path d="M199.658 81.3006C199.671 82.1628 199.512 83.0189 199.191 83.8192C198.87 84.6194 198.393 85.3478 197.787 85.962C197.182 86.5762 196.461 87.064 195.665 87.3969C194.87 87.7298 194.016 87.9012 193.154 87.9012C192.291 87.9012 191.438 87.7298 190.642 87.3969C189.847 87.064 189.126 86.5762 188.52 85.962C187.915 85.3478 187.438 84.6194 187.117 83.8192C186.795 83.0189 186.637 82.1628 186.649 81.3006C186.649 78.0395 192.006 70.1423 192.993 68.7142C193.013 68.6854 193.039 68.6615 193.07 68.6446C193.1 68.6277 193.135 68.6182 193.17 68.6169C193.205 68.6155 193.24 68.6223 193.272 68.6368C193.304 68.6513 193.332 68.673 193.354 68.7003C194.482 70.0907 199.658 78.0367 199.658 81.3006Z" fill="#F86D6D"/>
<path d="M188.41 80.4337C188.386 80.4338 188.363 80.4305 188.34 80.4239C188.306 80.4147 188.275 80.3989 188.247 80.3775C188.219 80.3561 188.196 80.3295 188.179 80.2991C188.162 80.2688 188.151 80.2353 188.147 80.2007C188.142 80.166 188.145 80.1309 188.154 80.0972C188.405 79.1731 188.955 77.9446 189.785 76.4467C189.819 76.385 189.876 76.3395 189.944 76.32C190.011 76.3005 190.084 76.3086 190.146 76.3427C190.207 76.3768 190.253 76.4339 190.272 76.5016C190.292 76.5693 190.284 76.6419 190.25 76.7036C189.44 78.1652 188.907 79.356 188.666 80.2368C188.651 80.2933 188.618 80.3431 188.571 80.3787C188.525 80.4142 188.468 80.4336 188.41 80.4337Z" fill="white"/>
<path d="M192.917 86.0707C191.784 86.0678 190.685 85.6753 189.806 84.9587C188.928 84.2422 188.322 83.2454 188.091 82.1353C188.08 82.0677 188.096 81.9985 188.135 81.9422C188.174 81.8858 188.233 81.8467 188.3 81.833C188.367 81.8193 188.437 81.8321 188.495 81.8686C188.553 81.9052 188.594 81.9628 188.611 82.0292C188.817 83.0194 189.358 83.9085 190.142 84.5474C190.926 85.1864 191.906 85.5364 192.917 85.5388C193.611 85.5411 194.295 85.3774 194.912 85.0613C194.975 85.0293 195.048 85.0235 195.115 85.0453C195.182 85.067 195.238 85.1145 195.27 85.1772C195.302 85.24 195.307 85.3129 195.286 85.3799C195.264 85.4469 195.216 85.5026 195.154 85.5346C194.462 85.8893 193.695 86.0731 192.917 86.0707Z" fill="white"/>
<path d="M269.105 136.181C275.177 130.108 275.177 120.264 269.105 114.191C263.033 108.119 253.188 108.119 247.116 114.191C241.044 120.264 241.044 130.108 247.116 136.181C253.188 142.253 263.033 142.253 269.105 136.181Z" fill="white"/>
<path d="M258.119 140.996C254.141 140.999 250.308 139.503 247.384 136.805C244.46 134.108 242.66 130.407 242.343 126.442C242.026 122.476 243.216 118.537 245.674 115.409C248.133 112.282 251.68 110.196 255.608 109.567C259.536 108.938 263.557 109.813 266.869 112.017C270.18 114.222 272.54 117.593 273.476 121.459C274.413 125.326 273.858 129.403 271.922 132.878C269.986 136.354 266.811 138.971 263.03 140.21C261.445 140.729 259.787 140.994 258.119 140.996ZM258.119 109.89C254.368 109.881 250.743 111.249 247.934 113.736C245.125 116.222 243.326 119.653 242.88 123.378C242.433 127.103 243.37 130.862 245.512 133.942C247.654 137.022 250.853 139.208 254.5 140.086C258.148 140.963 261.991 140.47 265.299 138.702C268.608 136.933 271.151 134.011 272.448 130.49C273.744 126.97 273.702 123.096 272.331 119.604C270.96 116.112 268.354 113.245 265.008 111.547C262.873 110.466 260.513 109.901 258.119 109.896V109.89Z" fill="#003056"/>
<path d="M251.027 131.304C251.398 131.712 251.846 132.042 252.345 132.276C252.844 132.51 253.384 132.644 253.935 132.669C254.485 132.694 255.035 132.61 255.553 132.422C256.071 132.234 256.547 131.946 256.953 131.573L264.513 124.673C264.92 124.301 265.249 123.853 265.483 123.355C265.717 122.856 265.85 122.315 265.875 121.765C265.9 121.215 265.816 120.665 265.629 120.147C265.441 119.629 265.154 119.152 264.782 118.746C264.411 118.339 263.963 118.009 263.464 117.775C262.965 117.541 262.425 117.408 261.874 117.383C261.324 117.358 260.774 117.442 260.256 117.629C259.738 117.817 259.262 118.105 258.855 118.476L251.297 125.378C250.889 125.749 250.559 126.197 250.325 126.695C250.091 127.194 249.957 127.735 249.932 128.285C249.907 128.836 249.991 129.386 250.179 129.904C250.367 130.422 250.655 130.898 251.027 131.304Z" fill="white"/>
<path d="M254.131 132.937C254.062 132.937 253.991 132.937 253.924 132.937C253.338 132.912 252.764 132.771 252.233 132.523C251.702 132.274 251.226 131.923 250.832 131.489L251.029 131.309L250.832 131.489C250.034 130.616 249.616 129.462 249.668 128.28C249.721 127.099 250.24 125.986 251.111 125.186L258.679 118.279C259.104 117.847 259.614 117.506 260.175 117.277C260.737 117.049 261.339 116.937 261.946 116.948C262.552 116.96 263.15 117.095 263.702 117.345C264.255 117.595 264.751 117.955 265.16 118.403C265.569 118.851 265.882 119.377 266.081 119.95C266.28 120.523 266.36 121.13 266.316 121.735C266.273 122.34 266.106 122.93 265.827 123.469C265.549 124.007 265.163 124.483 264.694 124.868L257.135 131.77C256.316 132.523 255.243 132.939 254.131 132.937ZM261.683 117.646C260.701 117.643 259.755 118.009 259.03 118.671L251.473 125.573C250.703 126.276 250.244 127.257 250.197 128.299C250.15 129.34 250.519 130.358 251.223 131.128C251.926 131.897 252.907 132.356 253.948 132.403C254.99 132.45 256.008 132.081 256.777 131.378L264.337 124.476C264.923 123.942 265.333 123.243 265.514 122.471C265.696 121.699 265.639 120.891 265.352 120.152C265.065 119.413 264.561 118.778 263.906 118.331C263.252 117.884 262.477 117.645 261.684 117.646H261.683Z" fill="#003056"/>
<path d="M264.776 118.74C265.147 119.146 265.434 119.621 265.621 120.138C265.807 120.655 265.89 121.203 265.864 121.752C265.838 122.301 265.704 122.84 265.47 123.337C265.235 123.834 264.904 124.28 264.497 124.649L260.627 128.184L255 122.02L258.87 118.487C259.274 118.115 259.747 117.827 260.263 117.638C260.779 117.45 261.327 117.365 261.875 117.388C262.424 117.412 262.963 117.543 263.46 117.775C263.958 118.007 264.405 118.335 264.776 118.74Z" fill="#5CDAC8"/>
<path d="M262.663 124.942C262.609 124.942 262.556 124.926 262.512 124.896C262.468 124.866 262.434 124.823 262.414 124.772C262.395 124.722 262.391 124.668 262.404 124.615C262.416 124.563 262.444 124.516 262.484 124.48L263.383 123.659C263.646 123.421 263.859 123.133 264.01 122.813C264.161 122.492 264.248 122.144 264.264 121.79C264.28 121.436 264.226 121.082 264.105 120.749C263.984 120.415 263.799 120.109 263.559 119.848C263.511 119.796 263.486 119.727 263.489 119.657C263.493 119.586 263.524 119.52 263.576 119.472C263.628 119.425 263.696 119.4 263.767 119.403C263.837 119.406 263.904 119.437 263.951 119.489C264.238 119.802 264.46 120.169 264.605 120.567C264.749 120.966 264.814 121.39 264.794 121.814C264.775 122.238 264.672 122.654 264.491 123.038C264.311 123.422 264.056 123.766 263.742 124.051L262.841 124.872C262.793 124.917 262.729 124.942 262.663 124.942Z" fill="white"/>
<path d="M221.859 169.731C221.801 169.731 221.745 169.712 221.698 169.677L221.126 169.238C220.534 168.786 219.87 167.932 219.847 167.895C219.823 167.868 219.805 167.836 219.794 167.802C219.783 167.767 219.779 167.731 219.782 167.695C219.786 167.659 219.797 167.624 219.814 167.592C219.832 167.56 219.856 167.533 219.884 167.511C219.913 167.488 219.946 167.472 219.981 167.463C220.016 167.454 220.053 167.453 220.088 167.458C220.124 167.464 220.158 167.477 220.189 167.497C220.22 167.516 220.246 167.542 220.266 167.572C220.273 167.58 220.911 168.409 221.449 168.817L222.02 169.254C222.063 169.288 222.096 169.335 222.112 169.388C222.128 169.441 222.127 169.498 222.109 169.55C222.091 169.603 222.057 169.648 222.012 169.681C221.967 169.713 221.913 169.731 221.858 169.731H221.859Z" fill="#003056"/>
<path d="M222.833 168.637C222.791 168.637 222.749 168.627 222.712 168.608L222.072 168.275C221.411 167.931 220.614 167.203 220.58 167.173C220.554 167.149 220.534 167.121 220.519 167.089C220.504 167.058 220.496 167.023 220.494 166.989C220.493 166.954 220.498 166.919 220.51 166.886C220.522 166.854 220.54 166.823 220.564 166.798C220.588 166.772 220.616 166.751 220.648 166.737C220.679 166.722 220.713 166.714 220.748 166.712C220.783 166.711 220.818 166.716 220.85 166.728C220.883 166.74 220.913 166.758 220.939 166.782C220.947 166.782 221.718 167.492 222.318 167.805L222.956 168.136C223.009 168.163 223.051 168.207 223.076 168.262C223.101 168.316 223.107 168.377 223.092 168.435C223.078 168.493 223.045 168.544 222.998 168.581C222.951 168.618 222.893 168.637 222.833 168.637Z" fill="#003056"/>
<path d="M244.776 156.888C246.528 157.116 256.051 159.042 256.86 169.771C256.868 169.892 256.842 170.013 256.785 170.12C256.727 170.227 256.641 170.316 256.536 170.377L251.029 173.547C250.927 173.605 250.844 173.69 250.787 173.792C250.73 173.894 250.701 174.009 250.705 174.126C250.766 176.089 251.082 185.005 251.914 188.751C252.563 191.671 253.014 194.055 253.23 195.243C253.248 195.342 253.243 195.443 253.215 195.539C253.188 195.635 253.138 195.723 253.07 195.796C253.002 195.87 252.919 195.926 252.825 195.962C252.732 195.997 252.631 196.01 252.532 196C251.184 195.876 248.51 195.581 246.748 195.037C244.534 194.356 243.557 193.056 238.206 195.276C237.651 195.505 237.052 195.61 236.451 195.581C235.851 195.552 235.264 195.391 234.733 195.109C231.801 193.56 225.702 190.808 221.496 192.197C221.388 192.235 221.271 192.243 221.159 192.22C221.046 192.197 220.942 192.145 220.857 192.068C220.771 191.992 220.708 191.894 220.673 191.784C220.638 191.675 220.633 191.558 220.659 191.446C221.273 188.692 222.557 183.382 222.694 180.576C222.864 177.069 220.848 165.391 221.787 164.171C222.68 163.01 226.614 160.339 229.272 159.609C230.249 159.341 231.27 159.316 232.09 159.114C234.161 158.605 239.869 156.255 244.776 156.888Z" fill="#003056"/>
<path d="M254.191 183.024C252.554 185.47 250.659 186.249 246.53 185.184C242.401 184.119 233.642 177.851 229.314 171.88C229.314 171.88 229.016 171.331 228.17 171.432C227.324 171.532 223.842 172.874 221.254 170.586C218.666 168.298 219.284 166.656 219.413 166.345C219.632 165.818 223.492 166.491 224.537 166.025C225.583 165.559 225.57 164.837 224.786 163.769C223.85 162.493 225.936 162.203 227.522 164.467C228.487 165.842 230.109 167.651 231.57 168.394C233.088 169.162 248.512 174.714 249.308 174.467C250.104 174.22 255.114 171.193 255.114 171.193C255.114 171.193 255.975 180.363 254.191 183.024Z" fill="white"/>
<path d="M249.616 185.914C248.704 185.914 247.661 185.752 246.462 185.442C242.23 184.35 233.386 177.95 229.099 172.04C229.092 172.032 229.086 172.022 229.081 172.012C229.072 172 228.842 171.626 228.2 171.701C228.017 171.73 227.837 171.767 227.658 171.814C226.262 172.138 223.365 172.814 221.077 170.79C218.565 168.574 218.907 166.881 219.168 166.248C219.341 165.83 220.118 165.841 221.721 165.905C222.775 165.945 223.97 165.993 224.428 165.789C224.796 165.624 225.004 165.436 225.064 165.211C225.143 164.915 224.976 164.485 224.572 163.931C224.225 163.461 224.258 163.131 224.344 162.937C224.404 162.818 224.495 162.717 224.608 162.645C224.721 162.574 224.851 162.535 224.985 162.532C225.683 162.464 226.809 162.991 227.739 164.319C228.669 165.647 230.252 167.431 231.697 168.162C233.493 169.071 248.343 174.305 249.254 174.213C249.864 174.023 253.597 171.806 254.978 170.97C255.016 170.946 255.06 170.933 255.105 170.931C255.15 170.929 255.195 170.939 255.235 170.959C255.275 170.98 255.31 171.01 255.335 171.047C255.36 171.084 255.376 171.127 255.38 171.172C255.416 171.55 256.218 180.467 254.403 183.178C253.156 185.048 251.725 185.914 249.616 185.914ZM229.534 171.732C233.764 177.56 242.447 183.858 246.595 184.927C250.875 186.031 252.54 185.012 253.97 182.876L254.191 183.024L253.97 182.876C255.468 180.643 255.03 173.463 254.89 171.64C253.664 172.375 250.097 174.5 249.394 174.711C249.358 174.72 249.321 174.725 249.284 174.723C247.543 174.723 232.345 169.072 231.457 168.623C229.921 167.848 228.263 165.971 227.305 164.611C226.446 163.388 225.472 163.005 225.036 163.049C224.928 163.059 224.851 163.093 224.828 163.141C224.806 163.188 224.828 163.368 225 163.604C225.519 164.314 225.698 164.861 225.578 165.334C225.475 165.725 225.169 166.032 224.644 166.261C224.072 166.516 222.866 166.469 221.7 166.423C220.925 166.392 219.873 166.35 219.645 166.472C219.432 167.019 219.226 168.426 221.428 170.381C223.512 172.223 226.23 171.589 227.537 171.285C227.791 171.226 227.992 171.179 228.138 171.162C229.064 171.059 229.463 171.617 229.534 171.732Z" fill="#003056"/>
<path d="M222.077 171.171L222.136 171.721L222.479 174.89C222.692 176.569 222.719 178.267 222.558 179.953C222.558 180.828 222.03 181.86 221.372 182.439C220.871 182.915 220.264 183.268 219.602 183.469C217.281 184.307 216.269 184.054 215.425 181.655C214.582 179.255 214.88 177.768 216.863 170.33C216.863 170.33 217.409 168.829 215.871 167.817C214.506 166.92 214.956 164.766 216.216 163.137C218.226 160.54 222.438 170.824 222.077 171.171Z" fill="white"/>
<path d="M217.681 184.174C217.36 184.181 217.043 184.113 216.753 183.977C216.095 183.666 215.608 182.978 215.174 181.744C214.311 179.287 214.573 177.884 216.606 170.263C216.631 170.189 217.061 168.92 215.725 168.043C215.48 167.881 215.271 167.669 215.113 167.42C214.956 167.172 214.852 166.893 214.809 166.601C214.633 165.549 215.089 164.161 216.006 162.972C216.409 162.45 216.867 162.413 217.181 162.468C219.275 162.857 221.771 168.881 222.221 170.386C222.36 170.842 222.387 171.073 222.349 171.212L222.743 174.856C222.959 176.55 222.986 178.263 222.822 179.963C222.822 180.876 222.299 181.971 221.548 182.634C221.032 183.129 220.41 183.498 219.729 183.714L219.7 183.725C218.852 184.025 218.209 184.174 217.681 184.174ZM216.965 162.983C216.856 162.989 216.75 163.021 216.656 163.076C216.563 163.132 216.484 163.209 216.426 163.301C215.599 164.371 215.181 165.602 215.333 166.512C215.363 166.731 215.439 166.942 215.557 167.129C215.675 167.317 215.832 167.477 216.017 167.598C217.71 168.715 217.118 170.404 217.113 170.421C215.123 177.882 214.862 179.253 215.675 181.567C216.059 182.657 216.461 183.253 216.98 183.499C217.526 183.757 218.259 183.676 219.511 183.219L219.54 183.21C220.16 183.02 220.727 182.689 221.196 182.241C221.835 181.682 222.296 180.715 222.292 179.954C222.291 179.943 222.291 179.932 222.292 179.921C222.449 178.257 222.422 176.581 222.214 174.923L221.812 171.2C221.806 171.152 221.813 171.104 221.833 171.06C221.84 170.21 219.124 163.77 217.245 163.039C217.156 163.004 217.061 162.985 216.965 162.983Z" fill="#003056"/>
<path d="M220.697 166.299C220.697 166.299 224.107 166.663 225.164 165.829C225.946 165.211 224.485 163.361 224.375 163.218C223.45 161.997 221.289 159.154 220.966 158.75C220.676 158.385 220.119 157.516 219.393 157.581C218.667 157.645 214.646 158.306 214.352 158.435C213.739 158.706 213.997 159.552 214.447 160.028C214.896 160.504 220.697 166.299 220.697 166.299Z" fill="#003056"/>
<path d="M249.119 194.675C249.119 194.675 252.412 222.063 252.819 227.342C253.225 232.62 253.835 251.117 252.819 260.262C252.161 266.187 251.702 270.148 251.465 272.205C251.411 272.666 251.191 273.091 250.844 273.4C250.498 273.709 250.05 273.88 249.586 273.88H242.874C242.709 273.88 242.55 273.816 242.433 273.7C242.316 273.584 242.249 273.426 242.247 273.262C242.216 270.795 241.997 261.396 240.424 253.356C238.595 244.003 236.562 229.377 235.546 223.482C235.207 221.515 234.922 219.327 234.68 217.187L233.921 219.421C233.16 221.654 230.262 236.693 229.454 242.594C228.715 247.955 227.472 269.456 227.252 273.306C227.243 273.466 227.173 273.616 227.057 273.725C226.941 273.835 226.787 273.896 226.627 273.895H218.032C217.877 273.896 217.728 273.839 217.613 273.736C217.498 273.633 217.425 273.491 217.408 273.337C217.008 269.351 214.653 245.277 215.026 234.478C215.432 222.691 220.716 208.67 221.727 204.81C222.738 200.95 224.1 191.157 224.1 191.157C224.1 191.157 244.718 191.449 249.119 194.675Z" fill="white"/>
<path d="M249.587 274.147H242.875C242.64 274.146 242.415 274.053 242.249 273.888C242.082 273.724 241.986 273.5 241.983 273.266C241.951 270.613 241.722 261.37 240.168 253.408C238.974 247.306 237.694 238.96 236.667 232.255C236.117 228.672 235.642 225.577 235.29 223.53C235.035 222.049 234.793 220.36 234.557 218.39L234.178 219.507C233.42 221.727 230.548 236.635 229.71 242.624C228.978 247.939 227.756 269.115 227.512 273.306C227.498 273.533 227.398 273.746 227.232 273.902C227.067 274.057 226.848 274.144 226.621 274.144H218.026C217.805 274.145 217.591 274.063 217.427 273.914C217.263 273.766 217.16 273.561 217.138 273.341C216.675 268.726 214.385 245.164 214.755 234.447C215.082 224.985 218.556 214.033 220.423 208.149C220.895 206.661 221.26 205.486 221.47 204.719C222.469 200.918 223.829 191.196 223.843 191.099C223.853 191.035 223.885 190.977 223.934 190.935C223.983 190.893 224.045 190.87 224.11 190.87C224.947 190.882 244.85 191.219 249.274 194.459C249.304 194.48 249.329 194.507 249.347 194.539C249.366 194.57 249.377 194.605 249.381 194.642C249.414 194.921 252.68 222.094 253.082 227.323C253.53 233.149 254.071 251.392 253.082 260.293C252.402 266.414 251.942 270.404 251.728 272.237C251.668 272.762 251.416 273.247 251.021 273.599C250.626 273.952 250.116 274.146 249.587 274.147ZM234.682 216.926H234.711C234.771 216.933 234.827 216.96 234.869 217.002C234.912 217.045 234.939 217.101 234.945 217.16C235.225 219.63 235.504 221.684 235.81 223.442C236.163 225.495 236.637 228.592 237.187 232.177C238.215 238.878 239.494 247.218 240.677 253.309C242.245 261.315 242.474 270.606 242.506 273.263C242.508 273.358 242.547 273.448 242.615 273.514C242.682 273.58 242.773 273.618 242.868 273.618H249.58C249.978 273.618 250.363 273.472 250.661 273.207C250.959 272.942 251.149 272.577 251.195 272.181C251.408 270.348 251.869 266.36 252.549 260.24C253.535 251.371 252.996 233.18 252.549 227.369C252.161 222.327 249.098 196.783 248.864 194.827C244.646 191.928 226.604 191.459 224.332 191.411C224.117 192.923 222.899 201.361 221.979 204.86C221.774 205.639 221.399 206.815 220.924 208.315C219.066 214.179 215.605 225.081 215.281 234.471C214.913 245.154 217.199 268.685 217.655 273.294C217.663 273.383 217.705 273.466 217.772 273.526C217.838 273.585 217.925 273.618 218.015 273.618H226.61C226.702 273.618 226.79 273.583 226.857 273.52C226.924 273.457 226.964 273.371 226.97 273.28C227.209 269.092 228.439 247.889 229.174 242.554C230.002 236.551 232.893 221.576 233.657 219.338L234.416 217.105C234.435 217.05 234.471 217.003 234.519 216.971C234.567 216.939 234.624 216.923 234.682 216.926Z" fill="#003056"/>
<path d="M234.667 217.384C234.601 217.384 234.538 217.36 234.49 217.317C234.441 217.273 234.41 217.213 234.403 217.148C234.263 215.925 234.124 214.62 234.004 213.27C233.886 212.061 233.431 210.91 232.69 209.947C231.95 208.985 230.954 208.25 229.816 207.826L228.332 207.276C228.266 207.251 228.212 207.201 228.183 207.137C228.153 207.073 228.15 207 228.175 206.934C228.199 206.868 228.249 206.815 228.313 206.785C228.377 206.756 228.45 206.753 228.516 206.777L230 207.327C231.231 207.787 232.308 208.583 233.109 209.625C233.909 210.667 234.401 211.913 234.529 213.221C234.656 214.568 234.79 215.874 234.926 217.089C234.931 217.124 234.928 217.159 234.918 217.193C234.908 217.227 234.892 217.258 234.871 217.286C234.849 217.313 234.822 217.336 234.791 217.353C234.76 217.37 234.727 217.38 234.692 217.384H234.667Z" fill="#003056"/>
<path d="M219.916 273.878H225.392C225.582 273.878 225.767 273.934 225.925 274.04C226.083 274.145 226.206 274.295 226.279 274.47C226.764 275.651 227.753 278.411 227.62 281.032C227.602 281.376 227.451 281.701 227.201 281.938C226.95 282.175 226.618 282.308 226.273 282.307H210.202C210.029 282.308 209.858 282.27 209.701 282.197C209.544 282.123 209.406 282.016 209.296 281.882C209.185 281.749 209.106 281.592 209.063 281.424C209.021 281.257 209.016 281.081 209.049 280.911C209.226 280.045 209.838 278.904 211.6 277.879C214.453 276.22 218.039 274.56 219.17 274.046C219.404 273.937 219.658 273.88 219.916 273.878Z" fill="white"/>
<path d="M226.274 282.571H210.203C209.989 282.571 209.778 282.524 209.584 282.432C209.391 282.34 209.221 282.206 209.086 282.039C208.952 281.876 208.856 281.685 208.805 281.479C208.754 281.274 208.75 281.06 208.793 280.853C208.967 279.999 209.575 278.748 211.47 277.642C214.352 275.967 218.011 274.275 219.063 273.798C219.332 273.674 219.624 273.611 219.919 273.612H225.395C225.638 273.611 225.875 273.683 226.077 273.818C226.278 273.952 226.435 274.144 226.528 274.368C226.983 275.474 228.026 278.339 227.889 281.043C227.868 281.456 227.688 281.846 227.387 282.13C227.086 282.415 226.688 282.573 226.274 282.571ZM219.916 274.144C219.696 274.144 219.479 274.191 219.28 274.283C218.233 274.759 214.595 276.44 211.741 278.104C210.375 278.9 209.537 279.887 209.318 280.962C209.291 281.092 209.293 281.226 209.325 281.355C209.357 281.484 209.418 281.604 209.502 281.706C209.588 281.811 209.695 281.896 209.818 281.954C209.94 282.012 210.074 282.041 210.21 282.041H226.281C226.558 282.042 226.825 281.936 227.026 281.745C227.227 281.555 227.348 281.294 227.362 281.018C227.502 278.422 226.482 275.646 226.04 274.572C225.987 274.446 225.898 274.338 225.784 274.262C225.67 274.186 225.537 274.146 225.4 274.145L219.916 274.144Z" fill="#003056"/>
<path d="M219.171 277.739C219.102 277.739 219.035 277.712 218.986 277.663L216.681 275.395C216.656 275.37 216.636 275.341 216.623 275.309C216.609 275.277 216.602 275.242 216.602 275.207C216.601 275.173 216.608 275.138 216.621 275.106C216.634 275.073 216.653 275.044 216.678 275.019C216.702 274.994 216.732 274.974 216.764 274.961C216.796 274.947 216.83 274.94 216.865 274.94C216.9 274.94 216.935 274.946 216.967 274.959C216.999 274.973 217.029 274.992 217.053 275.016L219.358 277.283C219.396 277.32 219.422 277.368 219.433 277.42C219.444 277.471 219.438 277.525 219.418 277.574C219.398 277.623 219.364 277.665 219.32 277.694C219.276 277.723 219.224 277.739 219.171 277.739Z" fill="#003056"/>
<path d="M217.685 278.668C217.65 278.668 217.616 278.662 217.584 278.648C217.552 278.635 217.524 278.616 217.499 278.591L215.194 276.324C215.144 276.275 215.116 276.208 215.115 276.137C215.115 276.067 215.142 275.999 215.192 275.949C215.241 275.899 215.308 275.87 215.379 275.87C215.449 275.869 215.517 275.897 215.567 275.946L217.872 278.213C217.91 278.25 217.936 278.297 217.946 278.349C217.957 278.401 217.952 278.455 217.932 278.504C217.912 278.553 217.878 278.595 217.834 278.624C217.79 278.653 217.738 278.669 217.685 278.668Z" fill="#003056"/>
<path d="M244.082 273.878H249.56C249.75 273.878 249.935 273.934 250.093 274.04C250.25 274.145 250.373 274.295 250.445 274.47C250.931 275.651 251.921 278.411 251.788 281.032C251.769 281.376 251.619 281.701 251.369 281.938C251.118 282.175 250.786 282.308 250.441 282.307H234.369C234.196 282.308 234.025 282.27 233.868 282.196C233.712 282.123 233.573 282.015 233.463 281.882C233.353 281.748 233.274 281.592 233.231 281.424C233.189 281.256 233.184 281.081 233.217 280.911C233.394 280.045 234.006 278.904 235.768 277.879C238.621 276.22 242.206 274.56 243.337 274.046C243.57 273.937 243.824 273.88 244.082 273.878Z" fill="white"/>
<path d="M250.442 282.571H234.369C234.155 282.571 233.943 282.524 233.75 282.432C233.557 282.34 233.387 282.206 233.252 282.039C233.118 281.876 233.022 281.685 232.971 281.479C232.92 281.274 232.916 281.06 232.959 280.853C233.133 279.999 233.739 278.748 235.635 277.642C238.516 275.967 242.175 274.275 243.228 273.798C243.496 273.674 243.788 273.611 244.084 273.612H249.562C249.804 273.611 250.041 273.683 250.242 273.817C250.444 273.952 250.601 274.144 250.692 274.368C251.147 275.474 252.192 278.34 252.055 281.043C252.033 281.456 251.854 281.845 251.554 282.129C251.254 282.414 250.856 282.572 250.442 282.571ZM244.084 274.144C243.864 274.144 243.648 274.191 243.448 274.283C242.401 274.759 238.762 276.44 235.903 278.104C234.536 278.9 233.699 279.887 233.478 280.962C233.452 281.092 233.455 281.226 233.487 281.354C233.519 281.483 233.579 281.603 233.662 281.706C233.748 281.811 233.856 281.895 233.978 281.953C234.101 282.011 234.235 282.041 234.37 282.041H250.442C250.72 282.042 250.986 281.936 251.188 281.745C251.389 281.555 251.51 281.294 251.524 281.018C251.656 278.422 250.643 275.646 250.202 274.572C250.149 274.446 250.06 274.338 249.946 274.262C249.832 274.186 249.698 274.146 249.562 274.145L244.084 274.144Z" fill="#003056"/>
<path d="M243.952 277.54C243.883 277.54 243.816 277.513 243.767 277.465L241.462 275.196C241.412 275.147 241.383 275.08 241.383 275.009C241.382 274.939 241.41 274.871 241.459 274.821C241.509 274.771 241.576 274.742 241.646 274.742C241.717 274.741 241.785 274.769 241.835 274.818L244.14 277.085C244.177 277.122 244.203 277.17 244.214 277.221C244.225 277.273 244.22 277.327 244.2 277.376C244.18 277.425 244.145 277.467 244.101 277.496C244.057 277.525 244.005 277.541 243.952 277.54Z" fill="#003056"/>
<path d="M242.466 278.47C242.432 278.47 242.398 278.463 242.366 278.45C242.334 278.437 242.305 278.418 242.281 278.393L239.972 276.129C239.922 276.08 239.893 276.012 239.893 275.942C239.892 275.871 239.92 275.804 239.969 275.753C240.018 275.703 240.086 275.675 240.156 275.674C240.227 275.674 240.294 275.701 240.344 275.751L242.649 278.018C242.687 278.055 242.713 278.102 242.724 278.154C242.735 278.206 242.73 278.26 242.709 278.309C242.689 278.357 242.655 278.399 242.611 278.429C242.567 278.458 242.515 278.473 242.462 278.473L242.466 278.47Z" fill="#003056"/>
<path d="M237.771 143.348C237.64 143.393 237.511 143.446 237.387 143.506C237.14 143.689 236.941 143.928 236.806 144.204C236.527 144.714 236.066 146.286 235.465 146.193C234.863 146.101 234.123 143.649 234.123 143.649C234.123 143.649 233.891 142.447 232.042 142.909C230.695 143.254 229.403 143.784 228.201 144.482C227.716 144.778 227.148 144.908 226.582 144.852C226.023 144.806 224.223 143.742 224.546 142.031C224.87 140.319 226.445 139.155 227.831 139.162C229.276 139.162 231.348 138.236 231.718 138.045C232.088 137.854 234.265 136.967 235.452 137.626C236.51 138.217 237.406 139.152 237.884 140.771C238.192 141.806 237.955 142.754 237.922 143.065C237.909 143.192 237.887 143.309 237.771 143.348Z" fill="#003056"/>
<path d="M227.966 144.65C227.949 144.659 227.935 144.673 227.926 144.69C227.917 144.707 227.913 144.727 227.914 144.746C227.97 145.584 227.938 146.427 227.819 147.259C227.72 147.839 227.347 149.254 227.505 149.545C227.663 149.837 228.245 149.859 228.513 149.837C228.781 149.815 229.231 149.926 229.351 150.15C229.471 150.373 229.799 152.46 229.933 152.953C230.067 153.446 230.516 154.029 231.346 153.94C231.452 153.927 231.764 153.859 232.002 153.8C232.043 153.791 232.086 153.789 232.128 153.797C232.17 153.805 232.21 153.821 232.245 153.845C232.281 153.868 232.311 153.899 232.334 153.935C232.357 153.971 232.372 154.011 232.379 154.053C232.778 156.585 230.218 159.439 229.602 160.091C229.589 160.107 229.579 160.126 229.574 160.146C229.569 160.166 229.569 160.188 229.573 160.208C229.577 160.229 229.586 160.248 229.599 160.265C229.612 160.281 229.628 160.295 229.647 160.304C235.321 162.782 241.159 158.506 242.755 157.177C242.826 157.117 239.775 156.291 238.316 152.783C237.674 151.24 237.889 148.839 237.865 147.885C237.862 147.791 237.887 147.698 237.937 147.618C237.987 147.538 238.059 147.474 238.144 147.435C238.664 147.138 239.056 146.661 239.246 146.093C239.477 145.255 239.385 142.603 237.185 143.67C236.938 143.852 236.738 144.091 236.604 144.368C236.325 144.876 235.863 146.449 235.263 146.357C234.663 146.265 233.921 143.812 233.921 143.812C233.921 143.812 233.689 142.61 231.838 143.072C230.163 143.48 228.313 144.462 227.966 144.65Z" fill="white"/>
<path d="M233.346 161.33C232.035 161.335 230.737 161.067 229.536 160.543C229.477 160.517 229.425 160.477 229.385 160.427C229.345 160.377 229.317 160.318 229.304 160.255C229.291 160.193 229.294 160.128 229.311 160.066C229.329 160.005 229.361 159.949 229.405 159.902C230.133 159.132 232.476 156.433 232.112 154.089C232.111 154.083 232.109 154.078 232.106 154.073C232.102 154.068 232.098 154.063 232.093 154.06C232.082 154.055 232.07 154.055 232.058 154.06C231.832 154.119 231.602 154.165 231.37 154.199C230.446 154.3 229.853 153.679 229.673 153.018C229.611 152.792 229.514 152.276 229.412 151.727C229.31 151.179 229.16 150.386 229.106 150.261C229.071 150.19 228.772 150.077 228.538 150.097C228.373 150.111 227.535 150.154 227.273 149.667C227.133 149.406 227.209 148.893 227.447 147.77C227.494 147.552 227.534 147.351 227.559 147.211C227.676 146.402 227.707 145.582 227.651 144.767C227.647 144.697 227.662 144.627 227.696 144.566C227.729 144.505 227.78 144.454 227.841 144.42C228.2 144.226 230.075 143.234 231.77 142.808C232.532 142.618 233.146 142.669 233.593 142.948C233.878 143.128 234.085 143.408 234.173 143.734C234.534 144.927 235.06 146.024 235.299 146.085C235.558 146.125 235.969 145.135 236.125 144.763C236.216 144.549 236.294 144.363 236.367 144.231C236.523 143.914 236.755 143.641 237.042 143.436C238.029 142.957 238.61 143.177 238.928 143.436C239.678 144.062 239.668 145.53 239.498 146.153C239.319 146.795 238.709 147.453 238.25 147.665C238.212 147.683 238.18 147.711 238.158 147.747C238.136 147.783 238.125 147.825 238.127 147.867C238.127 148.061 238.127 148.314 238.127 148.608C238.105 149.755 238.07 151.487 238.562 152.669C239.357 154.581 240.749 155.984 242.697 156.837C242.891 156.922 242.998 156.968 243.02 157.125C243.025 157.171 243.02 157.217 243.003 157.259C242.987 157.302 242.961 157.34 242.926 157.37C241.621 158.457 237.754 161.33 233.346 161.33ZM229.92 160.128C235.098 162.261 240.335 158.753 242.258 157.229C240.355 156.371 238.855 154.813 238.07 152.879C237.535 151.593 237.571 149.794 237.594 148.603C237.594 148.324 237.605 148.074 237.594 147.885C237.59 147.739 237.629 147.596 237.706 147.472C237.783 147.348 237.894 147.249 238.026 147.187C238.477 146.926 238.817 146.509 238.984 146.016C239.124 145.511 239.111 144.288 238.586 143.85C238.307 143.611 237.873 143.626 237.312 143.894C237.11 144.054 236.946 144.255 236.831 144.485C236.771 144.594 236.692 144.776 236.612 144.969C236.286 145.745 235.884 146.713 235.216 146.609C234.518 146.503 233.897 144.665 233.661 143.879C233.66 143.87 233.66 143.861 233.661 143.852C233.604 143.658 233.477 143.493 233.304 143.389C232.988 143.193 232.505 143.17 231.908 143.319C230.385 143.7 228.697 144.564 228.197 144.834C228.247 145.656 228.212 146.48 228.092 147.295C228.067 147.446 228.024 147.649 227.977 147.877C227.883 148.317 227.697 149.233 227.755 149.421C227.809 149.52 228.173 149.593 228.504 149.561C228.835 149.528 229.413 149.66 229.593 150.02C229.664 150.159 229.755 150.62 229.944 151.622C230.04 152.136 230.139 152.667 230.195 152.872C230.235 153.02 230.474 153.754 231.323 153.665C231.356 153.665 231.485 153.641 231.947 153.525C232.024 153.508 232.103 153.506 232.181 153.52C232.259 153.535 232.332 153.565 232.398 153.609C232.463 153.653 232.519 153.71 232.561 153.777C232.604 153.843 232.632 153.918 232.645 153.996C233.023 156.46 230.803 159.164 229.921 160.128H229.92Z" fill="#003056"/>
<path d="M232.155 154.019C232.09 154.02 232.028 153.997 231.979 153.955C231.93 153.914 231.898 153.855 231.889 153.792C231.88 153.728 231.895 153.663 231.93 153.609C231.965 153.555 232.019 153.516 232.081 153.499C233.037 153.199 233.95 152.777 234.797 152.242C234.856 152.204 234.928 152.19 234.997 152.204C235.066 152.219 235.126 152.26 235.165 152.318C235.204 152.377 235.218 152.449 235.203 152.518C235.189 152.587 235.148 152.648 235.089 152.686C234.197 153.248 233.236 153.693 232.23 154.008C232.206 154.015 232.18 154.019 232.155 154.019Z" fill="#003056"/>
</svg>
