<svg width="306" height="226" viewBox="0 0 306 226" fill="none" xmlns="http://www.w3.org/2000/svg">
<path d="M94.4555 98.9236H123.399V97.8766H94.4667C94.3564 97.7608 94.2475 97.6463 94.1358 97.5332C93.5063 96.3103 93.6668 94.9827 93.6626 93.6872C93.6412 87.1586 93.6412 80.6286 93.6626 74.0972C93.6696 72.3689 93.4155 71.026 91.3034 70.7468C89.7929 70.5499 89.1759 69.3857 89.0321 67.9548C88.979 67.4355 89.0014 66.9092 88.9427 66.3926C88.7682 64.8808 89.6407 62.844 88.1875 61.9855C86.3853 60.9245 84.1126 61.469 82.0451 61.7063C80.7887 61.8543 80.7203 62.9389 80.6617 63.9008C80.4927 66.6342 81.0344 69.4848 78.8385 71.8105C78.2368 72.4499 78.5272 73.6658 78.5272 74.6151C78.5272 81.059 78.5355 87.5016 78.5174 93.9441C78.5174 95.1544 78.6416 96.3927 78.0483 97.5318C77.9381 97.6463 77.8264 97.7594 77.7147 97.8739C76.8631 97.0977 77.2121 96.0744 77.2079 95.1572C77.1814 87.7445 77.0767 80.3289 77.2554 72.9203C77.3196 70.3098 76.7905 67.4285 78.879 65.1767C78.9295 65.112 78.9645 65.0366 78.9815 64.9563C78.9984 64.876 78.9968 64.7929 78.9767 64.7133C76.0451 58.0027 78.4546 50.9738 77.7747 44.1251C77.5905 42.267 79.4499 41.2954 80.6742 40.3237C88.5616 34.0934 97.0423 28.8668 106.715 25.8375C112.282 24.0925 117.998 23.2032 123.834 23.012C125.789 22.9477 126.418 23.7267 126.41 25.6281C126.355 37.6634 126.355 49.6984 126.41 61.7328C126.423 63.8449 125.597 64.4215 123.618 64.4089C113.415 64.3419 103.211 64.3726 93.0079 64.3866C92.2024 64.3866 91.3327 64.18 90.3555 64.8822C91.3732 65.6681 92.3406 65.4071 93.2117 65.4085C103.241 65.4294 113.269 65.4894 123.297 65.3736C125.723 65.3456 126.494 66.1162 126.432 68.5257C126.293 74.2786 126.371 80.0371 126.4 85.7929C126.4 86.7072 126.06 87.7403 126.971 88.4788C124.581 91.0865 125.144 94.0628 125.769 97.1228C126.251 99.493 126.268 101.934 125.818 104.311C125.606 104.582 125.993 104.351 125.712 104.536C119.979 108.305 120.591 114.904 118.676 120.369C118.309 121.416 118.947 122.175 119.637 122.882C120.3 123.56 121.013 124.193 121.609 124.941C122.191 127.843 123.506 130.441 124.96 132.986C125.239 135.006 124.96 136.946 124.418 138.913C123.474 142.292 123.799 145.815 123.593 149.27C123.391 152.922 123.383 156.581 123.568 160.233C124.217 174.333 122.429 188.374 122.469 202.459C122.469 203.409 122.458 204.391 121.694 205.138C120.369 201.129 120.23 196.94 120.762 192.876C121.662 185.989 122.394 179.131 122.222 172.17C122.074 166.168 122.194 160.165 122.19 154.162C122.19 151.345 121.368 150.524 118.465 150.749C113.262 151.149 108.256 152.476 103.327 154.144C100.384 155.141 97.4123 156.048 94.4527 156.996C93.5035 155.907 93.6445 154.567 93.6389 153.28C93.6137 147.299 93.6528 141.317 93.6165 135.337C93.5984 132.43 93.389 132.236 90.5118 132.204C87.3918 132.169 84.2703 132.227 81.1516 132.179C79.9609 132.161 78.6933 132.342 77.7189 131.365C78.4853 130.503 79.5072 130.861 80.4187 130.854C84.9362 130.821 89.4551 130.842 93.9739 130.836C94.126 130.811 94.2737 130.764 94.4123 130.697L93.9334 130.311C93.5425 129.585 93.5942 128.795 93.5998 128.012C93.6542 119.562 93.5998 111.111 93.6319 102.661C93.6375 101.362 93.4965 100.017 94.4555 98.9236Z" fill="#E9F0FE"/>
<path d="M148.944 130.829C165.241 130.836 181.538 130.843 197.835 130.851C202.186 130.851 202.251 130.921 202.251 135.165C202.251 150.766 202.251 166.366 202.251 181.965C202.251 184.783 201.896 185.075 199.048 184.715C183.593 182.76 168.844 178.48 154.988 171.289C153.142 170.332 151.429 169.117 149.595 168.132C148.59 167.59 147.601 166.542 146.272 167.471C145.355 166.329 145.993 165.147 146.198 163.981C147.227 158.004 148.764 152.092 148.622 145.958C148.548 142.832 148.097 139.737 147.744 136.635C147.596 135.335 147.526 134.04 147.727 132.74C147.893 131.953 148.174 131.234 148.944 130.829Z" fill="#D6E3FE"/>
<path d="M131.648 83.8077C131.636 78.5755 131.694 73.3377 131.582 68.1111C131.537 66.045 132.301 65.3861 134.331 65.3903C156.045 65.4405 177.76 65.4382 199.476 65.3833C201.7 65.3833 202.408 66.1916 202.291 68.3149C202.151 70.663 202.253 73.0236 202.247 75.3773C200.455 74.7072 201.009 73.113 200.959 71.8496C200.798 67.8249 200.844 67.8179 196.85 67.8109C194.937 67.8109 193.024 67.8151 191.112 67.8235C189.421 67.8319 188.493 68.5871 188.47 70.3182C188.368 78.4917 188.401 86.6653 188.454 94.8389C188.463 96.3745 189.291 97.0055 190.746 97.0376C193.267 97.0948 195.79 97.0222 198.311 97.0809C199.503 97.1102 200.776 96.9036 201.752 97.8934C200.878 98.7673 199.764 98.4196 198.771 98.3792C183.209 97.7384 167.641 97.8864 152.071 97.8906C151.137 97.8906 150.158 97.6504 149.139 98.234C149.777 99.3242 150.815 98.8985 151.627 98.9013C162.425 98.9306 173.225 98.9473 184.023 98.8859C185.396 98.8859 186.766 99.3913 188.139 98.9292C188.542 99.4359 188.641 100.024 188.606 100.649C188.234 107.432 188.537 114.222 188.428 121.008C188.367 124.805 187.845 125.336 183.982 125.376C180.066 125.414 176.149 125.453 172.235 125.357C169.201 125.283 168.664 124.685 168.488 121.609C168.463 121.174 168.432 120.737 168.45 120.305C168.533 118.29 167.509 117.513 165.576 117.541C163.482 117.573 161.399 117.564 159.311 117.529C158.003 117.507 156.69 117.479 155.541 116.717C153.281 114.834 151.564 112.568 150.699 109.715C150.993 107.524 149.5 106.128 148.391 104.561C146.621 101.508 147.157 98.5928 148.74 95.6263C151.718 90.0548 149.973 86.093 143.865 84.2907C143.28 84.1176 142.624 84.1065 142.097 83.8454C138.607 82.106 135.139 81.4261 131.648 83.8077Z" fill="#E9F0FE"/>
<path d="M166.41 64.378C155.857 64.378 145.305 64.3193 134.754 64.4226C132.396 64.4464 131.543 63.8 131.565 61.3263C131.677 49.6418 131.697 37.9531 131.551 26.27C131.521 23.7153 132.591 23.2434 134.639 23.5687C142.038 24.7469 149.131 26.8828 155.871 30.2597C163.981 34.3221 170.172 40.9294 177.43 46.1141C180.449 48.2709 183.703 49.8233 187.424 50.2407C188.328 50.3426 189.182 50.5813 189.78 51.2277C193.082 54.8 196.341 58.4101 199.611 62.0145C200.081 62.5352 200.653 63.1997 200.413 63.8433C200.062 64.7912 199.045 64.357 198.326 64.3584C187.688 64.3863 177.049 64.3929 166.41 64.378Z" fill="#E9F0FE"/>
<path d="M237.832 179.982C240.105 179.508 240.684 178.102 240.493 175.875C239.849 168.411 241.15 161.015 241.628 153.597C241.759 151.56 242.597 149.483 242.732 147.337C242.771 146.713 242.627 146.36 242.19 146.018C241.815 144.492 242.749 143.644 243.821 142.868C244.153 143.457 244.484 144.045 245.077 145.102C246.586 141.504 248.308 138.429 248.816 134.887C248.985 133.712 248.676 132.467 249.363 131.369C252.993 130.783 256.635 131.272 260.267 131.108C261.711 131.044 261.991 132.048 262.117 133.133C262.337 135.038 262.24 136.958 262.229 138.869C262.219 140.755 263.094 141.521 264.927 141.521C267.623 141.521 270.321 141.44 273.015 141.57C275.908 141.71 276.768 142.514 276.826 145.388C276.885 148.235 277.262 151.135 276.054 153.877C276.054 157.271 276.02 160.665 276.043 164.06C276.055 165.777 275.401 166.907 273.854 167.848C263.569 174.101 252.864 179.363 241.036 182C239.686 182.301 239.397 182.893 239.414 184.11C239.449 186.63 239.362 189.153 239.326 191.672C237.944 191.129 238.173 189.869 238.138 188.804C238.041 185.858 238.212 182.911 237.832 179.982Z" fill="#D6E3FE"/>
<path d="M276.06 153.87C276.06 151.078 275.898 148.286 276.095 145.513C276.282 142.894 275.207 142.162 272.764 142.31C269.9 142.48 267.014 142.265 264.145 142.38C262.148 142.458 261.247 141.798 261.37 139.695C261.497 137.526 261.346 135.341 261.413 133.166C261.455 131.795 260.886 131.326 259.558 131.351C256.162 131.405 252.765 131.371 249.367 131.371C251.478 130.235 253.745 131.033 255.928 130.868C257.715 130.729 259.52 130.842 261.373 130.842C261.251 130.628 261.205 130.423 261.109 130.399C260.857 130.346 260.601 130.317 260.344 130.311C260.789 120.355 260.521 110.395 260.545 100.437C260.525 99.9144 260.636 99.395 260.869 98.9266C264.789 98.9266 268.709 98.9266 272.63 98.9266C276.041 98.9266 275.992 98.935 276.063 102.478C276.115 105.022 275.76 107.597 276.436 110.787C277.941 107.9 278.031 105.299 278.641 102.861C279.416 99.7558 280.037 96.612 280.719 93.485C280.823 93.0034 280.731 92.3221 281.486 92.3821C281.94 92.4184 282.175 92.8665 282.292 93.3105C282.535 94.2332 282.793 95.1518 283.016 96.0774C283.386 97.613 283.762 98.6237 285.79 99.1667C287.985 99.7544 288.337 102.608 289.141 104.678C288.51 105.069 287.807 104.971 287.119 104.977C283.233 105.01 283.129 105.094 283.12 108.852C283.103 114.566 283.139 120.28 283.099 125.994C283.088 127.61 283.344 129.083 284.431 130.332C286.922 131.438 289.543 130.722 292.096 130.806C294.443 130.884 295.134 131.948 294.873 134.102C294.071 140.707 292.301 147.008 288.882 152.751C287.334 155.352 285.525 157.796 283.337 159.921C282.919 160.323 282.556 161.078 281.888 160.8C281.126 160.483 281.29 159.627 281.288 158.945C281.281 155.206 281.308 151.466 281.267 147.728C281.257 146.917 281.597 146.004 280.698 145.076C278.581 147.781 278.341 151.397 276.06 153.87Z" fill="#E9F0FE"/>
<path d="M260.867 98.9209C261.391 99.7766 261.398 100.723 261.397 101.688C261.386 110.11 261.366 118.53 261.418 126.955C261.426 128.247 261.139 129.329 260.342 130.306H253.289C249.968 130.306 248.693 128.993 248.263 125.65C247.916 122.914 247.362 120.227 246.225 117.633C245.089 115.039 244.43 112.228 243.559 109.514C243.263 108.588 242.896 107.637 242.074 107.11C238.662 104.914 235.348 102.539 231.545 101.016C229.758 99.8003 230.515 98.4853 231.52 97.3238C232.609 96.1019 233.503 94.72 234.172 93.2266C236.184 90.9846 236.06 88.1312 236.418 85.409C236.58 84.1889 236.11 83.315 234.93 83.0427C233.353 82.6728 232.095 81.8338 230.913 80.7826C229.73 79.7314 228.26 79.6281 226.751 79.9366C225.242 80.2452 223.729 80.717 222.169 80.8273C221.357 80.8859 220.429 81.3173 219.835 80.3108C219.778 76.4215 220.436 75.7193 224.219 75.637C224.823 75.623 225.43 75.5979 226.034 75.6272C228.235 75.7333 229.075 74.6095 229.229 72.5043C229.402 70.1395 228.555 67.6477 230.001 65.421L232.077 65.4029C233.915 64.1912 235.934 64.6686 237.887 64.871C239.143 65.0008 239.487 66.0702 239.608 67.1674C239.8 68.8971 239.726 70.6379 239.714 72.3731C239.699 74.5006 240.56 75.6467 242.801 75.57C248.967 75.3578 248.589 76.3796 248.607 81.6705C248.607 83.3192 248.626 84.9706 248.618 86.6193C248.608 88.3434 249.379 89.1586 251.121 89.174C253.466 89.1963 255.812 89.1251 258.154 89.2214C261.316 89.3499 262.119 90.1526 262.18 93.3522C262.21 94.8878 262.503 96.5058 261.389 97.8543C257.174 98.4323 252.937 97.9283 248.717 98.1405C248.04 98.1754 246.965 97.5332 246.75 98.8985L260.867 98.9209Z" fill="#D6E3FE"/>
<path d="M50.979 138.193C51.9632 138.08 51.6937 137.55 51.4732 136.914C48.1311 127.295 47.9176 117.404 48.8724 107.396C49.0609 105.411 48.9911 103.391 48.9143 101.393C48.8473 99.6343 49.4853 98.8721 51.328 98.893C57.5095 98.9591 63.691 98.9591 69.8724 98.893C71.4569 98.8749 71.9972 99.3984 71.9874 100.987C71.9306 110.042 71.9306 119.098 71.9874 128.153C72.0013 129.929 71.3271 130.357 69.6854 130.337C63.691 130.263 57.6951 130.307 51.677 130.847H59.1219C62.2559 130.847 65.3913 130.868 68.5253 130.847C70.8776 130.829 72.1437 131.511 72.046 134.31C71.9246 137.839 71.5351 141.417 72.3154 144.94C72.8669 145.831 72.0181 146.177 71.5839 146.555C68.4709 149.266 65.9999 152.418 64.3694 156.25C64.0386 157.028 63.8389 158.67 62.1665 157.702C61.4099 153.872 61.9851 149.998 61.8106 146.146C61.7687 145.226 61.8399 144.304 61.7729 143.223C61.6235 144.292 61.7896 145.243 61.3931 146.118C60.6728 147.209 59.9553 146.537 59.5714 145.934C57.5569 142.779 54.7663 140.593 51.4104 139.05C51.0697 138.895 50.9371 138.569 50.979 138.193Z" fill="#D6E3FE"/>
<path d="M155.14 115.67C156.203 116.54 157.415 116.771 158.78 116.731C161.48 116.654 164.186 116.774 166.885 116.686C168.724 116.626 169.287 117.422 169.323 119.184C169.43 124.56 169.486 124.558 174.886 124.558C178.199 124.558 181.517 124.442 184.821 124.6C186.94 124.701 187.729 124.113 187.659 121.864C187.5 116.725 187.61 111.578 187.609 106.435C187.609 103.923 187.469 101.392 188.135 98.922C192.057 98.922 195.981 98.9904 199.898 98.8746C201.713 98.8201 202.328 99.3967 202.291 101.248C202.185 106.386 202.208 111.529 202.291 116.669C202.306 117.564 201.326 119.339 203.751 119.068C204.503 118.984 204.053 119.873 203.891 120.282C202.814 122.965 202.171 125.727 202.225 128.636C202.252 130.032 201.293 130.326 200.109 130.319C197.317 130.303 194.533 130.319 191.744 130.319L150.443 130.296C153.728 127.726 152.748 124.099 152.817 120.732C154.39 119.41 155.585 117.919 155.14 115.67Z" fill="#D6E3FE"/>
<path d="M261.389 97.8627C261.389 96.2992 261.249 94.7217 261.422 93.175C261.702 90.57 260.554 89.8162 258.114 89.9823C255.601 90.1512 253.072 89.9083 250.56 90.0521C248.334 90.1805 247.661 89.2452 247.756 87.1401C247.885 84.2783 247.729 81.4053 247.811 78.5407C247.856 77.0135 247.405 76.2038 245.759 76.4076C245.499 76.4216 245.238 76.4216 244.978 76.4076C238.531 76.5081 238.848 76.6072 238.887 70.3169C238.916 65.4197 238.887 65.4197 233.902 65.4169C233.293 65.4169 232.686 65.4169 232.077 65.4071C232.037 65.241 232.037 65.0484 231.949 64.9129C231.379 64.039 229.175 64.4942 229.913 62.6235C230.515 61.1019 232.03 61.98 233.124 61.7482C235.132 64.4997 236.877 64.5039 238.881 61.7636C239.384 65.2215 241.643 65.6724 244.651 65.4741C248.121 65.2382 251.623 65.5063 255.104 65.3806C256.704 65.322 257.974 65.8259 259.201 66.7096C264.815 70.751 269.452 75.8464 274.292 80.7171C275.549 81.9735 276.177 83.5091 276.083 85.4188C275.914 88.5528 275.914 91.6938 276.083 94.8278C276.233 97.3281 275.232 98.0051 272.886 97.9088C269.063 97.7552 265.224 97.8655 261.389 97.8627Z" fill="#E9F0FE"/>
<path d="M23.8568 26.0223C32.2397 25.8073 39.1527 33.4463 38.8791 41.3881C38.579 50.081 32.3137 56.7287 23.6962 56.7957C14.7325 56.8641 8.10848 50.2694 8.00099 41.1019C7.90606 33.1894 14.6739 25.5323 23.8568 26.0223Z" fill="#E8EFFE"/>
<path d="M94.4552 98.9234C94.4552 108.377 94.4584 117.831 94.465 127.285C94.465 128.327 94.5292 129.379 93.9331 130.307C89.3193 130.307 84.7027 130.23 80.0903 130.346C77.988 130.399 77.1392 129.775 77.1587 127.543C77.2583 118.924 77.2583 110.304 77.1587 101.683C77.1336 99.4497 77.9796 98.8285 80.0903 98.8788C84.8758 98.9946 89.6655 98.9206 94.4552 98.9234Z" fill="#D7E4FE"/>
<path d="M201.753 97.8863C197.916 97.8863 194.075 97.8095 190.247 97.8863C188.383 97.9268 187.564 97.3447 187.58 95.3554C187.65 86.8993 187.653 78.4428 187.59 69.9858C187.576 67.7913 188.354 66.8183 190.675 66.9468C193.548 67.1045 196.428 67.1045 199.301 66.9468C201.321 66.8365 201.803 67.6099 201.799 69.507C201.799 71.4517 201.155 73.494 202.25 75.3702C202.25 82.0571 202.259 88.7439 202.241 95.4307C202.238 96.267 202.513 97.1883 201.753 97.8863Z" fill="#D6E3FE"/>
<path d="M77.718 131.364C82.5719 131.364 87.4272 131.424 92.2797 131.33C94.0093 131.297 94.5133 131.915 94.4909 133.589C94.4197 141.39 94.4546 149.192 94.4518 156.994C89.6091 158.411 84.7454 159.035 79.6724 158.196C77.6077 157.854 77.0982 157.048 77.1596 155.178C77.1987 154.038 77.6775 152.735 76.6012 151.741C76.0539 150.929 76.5802 150.266 76.9544 149.632C78.1787 147.564 78.9506 145.317 79.664 143.05C79.6514 142.198 79.6514 142.198 77.8283 142.655C77.5891 142.629 77.3647 142.527 77.1889 142.363C77.489 138.703 76.5998 134.985 77.718 131.364Z" fill="#D6E3FE"/>
<path d="M32.1086 206.854L31.5265 194.429C31.4497 194.272 31.3227 194.118 31.3101 193.956C30.9095 189.115 31.1091 188.883 35.9169 188.876C39.4069 188.876 42.8969 188.844 46.3869 188.901C48.2967 188.933 49.3185 189.657 49.0756 191.764C48.929 193.056 49.0491 194.378 49.0477 195.683C49.077 201.661 48.2408 207.59 48.0021 213.552C47.9128 215.772 46.0952 216.805 44.0542 217.049C41.4645 217.366 38.8458 217.366 36.2561 217.049C33.3943 216.691 32.2343 215.02 32.2873 212.023C32.318 210.308 32.5623 208.564 32.1086 206.854Z" fill="#3F3D56"/>
<path d="M300.118 23.1307C300.407 29.1432 295.143 34.0544 289.117 33.8799C283.93 33.7319 278.686 30.0451 278.666 22.7496C278.652 17.0748 283.626 12.0157 289.325 12.0688C295.23 12.126 300.677 17.4992 300.118 23.1307Z" fill="#E8EFFE"/>
<path d="M71.9504 82.1812C71.9504 86.7098 71.9085 91.2398 71.9839 95.7684C72.009 97.3194 71.5428 97.9336 69.9094 97.9141C63.7266 97.8415 57.5423 97.8527 51.358 97.9141C49.8475 97.928 49.3282 97.3292 49.4483 95.8969C49.8573 91.0639 50.2775 86.2351 52.0741 81.6577C52.7582 81.0309 53.6097 80.8661 54.485 80.8564C59.4227 80.8019 64.3617 80.7754 69.2994 80.8731C70.3645 80.8829 71.3794 81.1048 71.9504 82.1812Z" fill="#D6E3FE"/>
<path d="M230 65.4295C230 68.0205 230.008 70.6101 229.986 73.1997C229.968 75.3523 229.115 76.6897 226.7 76.4105C226.441 76.3965 226.182 76.3965 225.924 76.4105C221.275 76.4174 221.275 76.4174 220.134 80.7548C220.532 81.4807 220.159 82.1033 219.808 82.6785C218.486 84.8367 217.774 87.2085 217.264 89.6585C215.331 91.4859 213.061 91.0056 210.93 90.3384C209.345 89.8414 209.356 88.1969 209.338 86.7995C209.272 81.5924 209.325 76.3839 209.308 71.1769C209.308 69.6524 209.22 68.181 207.494 67.5137C207.344 65.4323 208.726 65.403 210.228 65.4086C216.822 65.4379 223.411 65.4295 230 65.4295Z" fill="#E9F0FE"/>
<path d="M71.9505 82.1811C71.0193 81.5892 69.9765 81.6492 68.9365 81.6506C63.3162 81.6581 57.6954 81.6581 52.0742 81.6506C52.9328 76.2397 55.5419 71.5185 57.9933 66.7414C58.4595 65.8312 59.2762 65.4054 60.3567 65.4166C63.4865 65.4501 66.6191 65.4724 69.749 65.4166C71.4996 65.3817 71.991 66.236 71.9742 67.833C71.9239 72.606 71.9533 77.3901 71.9505 82.1811Z" fill="#E9F0FE"/>
<path d="M213.776 197.298C211.702 194.456 212.608 191.226 212.992 188.256C213.302 185.865 212.992 184.906 210.553 185.276C207.944 185.668 207.413 184.498 207.438 182.065C207.56 170.138 207.487 158.207 207.507 146.279C207.507 145.441 207.251 144.552 208.007 143.432C208.705 144.27 209.344 145.003 209.961 145.759C210.343 146.228 210.645 147.094 211.067 147.155C215.211 147.705 213.35 151.053 213.663 153.09C214.837 160.733 215.07 168.46 214.804 176.192C214.766 177.289 214.875 178.265 215.884 178.917C214.425 184.124 213.972 189.444 214.138 194.831C214.163 195.676 214.46 196.556 213.776 197.298Z" fill="#D6E3FE"/>
<path d="M284.424 130.321C282.843 130.416 282.304 129.609 282.311 128.1C282.344 120.907 282.344 113.713 282.311 106.519C282.302 104.911 282.829 104.028 284.553 104.146C286.088 104.256 287.684 103.825 289.137 104.664C292.069 110.61 293.621 116.949 294.355 123.492C294.519 124.947 294.946 126.348 294.928 127.852C294.908 129.608 294.326 130.394 292.494 130.335C289.806 130.25 287.114 130.318 284.424 130.321Z" fill="#D6E3FE"/>
<path d="M274.684 193.639H277.553C281.28 193.639 281.678 194.007 281.248 197.649C280.566 203.449 279.111 209.032 276.241 214.183C274.659 217.021 272.611 217.928 269.54 217.152C268.464 216.88 268.201 216.175 268.201 215.23C268.201 208.709 268.21 202.19 268.191 195.669C268.191 194.242 268.839 193.606 270.253 193.635C271.733 193.666 273.207 193.641 274.684 193.639Z" fill="#E9F0FE"/>
<path d="M32.1084 206.854C32.7255 208.52 32.4742 210.277 32.6305 211.99C32.9097 214.966 34.1201 216.244 37.0224 216.318C39.189 216.368 41.3569 216.379 43.5221 216.318C46.2192 216.242 47.6082 214.859 47.7925 212.114C48.1527 206.754 48.4807 201.392 48.8214 196.03C48.9219 195.81 49.0712 195.781 49.2625 195.918C49.5626 200.881 48.8549 205.786 48.3439 210.696C48.1471 212.586 48.5617 213.421 50.6459 213.313C53.7911 213.15 56.8344 213.917 59.8414 214.785C60.7209 215.039 61.6297 215.407 61.6492 216.389C61.6701 217.474 60.5506 217.69 59.766 217.89C56.1532 218.808 52.4621 219.492 48.7474 219.509C41.2746 219.542 33.7836 219.951 26.3318 219.02C24.2699 218.763 22.2206 218.403 20.2732 217.616C19.5752 217.337 18.5254 217.346 18.665 216.28C18.7711 215.466 19.5417 215.078 20.3402 214.82C22.8969 213.992 25.5461 213.485 28.2276 213.308C32.0331 213.059 32.0331 213.151 32.0345 209.472C32.0386 208.595 32.0819 207.725 32.1084 206.854Z" fill="#E9F0FE"/>
<path d="M7.81762 198.616C3.31692 198.875 0.198253 194.786 0.224777 191.008C0.255489 186.382 3.97862 183.386 8.04238 183.34C12.9772 183.284 15.6869 187.455 15.772 191.092C15.8767 195.426 12.3351 198.639 7.81762 198.616Z" fill="#E8EFFE"/>
<path d="M228.449 217.133C223.807 216.345 217.569 217.225 211.548 215.597C211.38 215.551 211.178 215.575 211.041 215.49C210.064 214.875 208.284 214.906 208.305 213.476C208.323 212.182 209.927 212.152 210.957 211.801C211.524 211.607 212.154 211.597 212.725 211.412C214.214 210.925 215.02 211.162 214.835 212.993C214.608 215.24 215.533 216.101 217.8 215.262C218.426 215.03 219.178 215.153 219.869 215.082C221.501 214.913 222.605 214.355 221.856 212.397C221.37 211.128 221.716 210.518 223.193 210.34C228.029 209.753 232.788 208.913 237.23 212.1C239.817 213.955 243.184 213.411 245.836 212.685C247.172 212.319 248.258 211.317 249.814 212.006C250.565 212.34 251.265 212.777 251.332 213.638C251.413 214.684 250.439 214.78 249.745 215.062C247.22 216.087 244.484 216.506 241.862 216.549C237.858 216.608 233.902 217.322 228.449 217.133Z" fill="#E9F0FD"/>
<path d="M56.2684 150.534C56.6872 150.254 57.1143 149.984 57.5401 149.713C57.9896 149.433 58.3693 148.663 59.0045 149.353C59.6941 150.101 58.8203 150.531 58.555 151.081C58.0468 152.085 57.3739 152.997 56.5643 153.779C54.4703 155.766 52.8775 158.097 51.4061 160.576C49.3959 163.967 46.6904 166.762 43.2102 168.725C41.3493 169.606 40.7434 171.069 40.9347 173.089C41.0938 174.778 40.9696 176.492 40.9696 178.195C38.8547 179.898 34.5843 180.116 31.9165 178.659C33.4731 177.853 35.1511 178.519 36.7425 178.251C37.6527 178.096 39.0417 178.949 39.3796 177.479C39.7523 175.86 38.1162 175.944 37.2102 175.454C31.2632 173.08 26.0422 169.712 21.9686 164.664C19.9849 162.204 17.2837 160.579 14.6927 158.845C13.3986 157.98 12.0305 157.204 11.1734 155.83C10.6569 155.491 10.0426 155.006 10.5829 154.434C11.4568 153.51 12.2469 154.809 13.1292 154.761C17.9803 157.054 21.8402 160.516 25.5033 164.421C29.3326 168.495 34.067 171.612 39.3237 173.517C39.3698 168.687 39.3237 163.853 39.501 159.027C39.5722 157.043 38.0296 156.976 36.9463 156.291C32.2949 154.98 29.7067 150.91 26.1176 148.181C25.7769 147.922 25.4949 147.585 25.111 147.379C24.7062 146.732 23.5015 146.186 24.1338 145.395C24.998 144.309 25.8412 145.78 26.7513 145.854C28.8453 146.641 30.42 148.124 31.9165 149.721C34.0105 151.955 36.5233 153.577 39.3474 154.747C39.3893 153.44 39.3823 152.131 39.4954 150.838C39.5541 150.169 39.0431 148.992 40.3051 149.052C41.2823 149.098 40.9235 150.144 40.9263 150.761C40.9515 154.861 40.9152 158.96 40.9263 163.06C40.9263 164.191 41.0101 165.323 41.0548 166.454C41.8658 166.974 42.3447 166.314 42.8696 165.916C45.3688 164.018 47.4925 161.671 49.132 158.995C51.0738 155.831 52.8272 152.454 56.2684 150.534Z" fill="#51566E"/>
<path d="M219.588 92.1654C219.244 94.621 220.783 96.2041 222.216 97.8374C218.133 97.8513 214.046 97.7759 209.966 97.9197C208.012 97.9881 207.433 97.3613 207.454 95.4069C207.547 86.1096 207.498 76.8122 207.5 67.5135C209.636 66.3967 210.119 67.5218 210.114 69.4023C210.1 75.2445 210.091 81.0868 210.126 86.9276C210.126 88.0654 209.671 89.8439 211.382 89.8592C213.244 89.869 215.525 91.1784 216.997 88.822C218.365 89.5479 219.533 90.4246 219.588 92.1654Z" fill="#D6E3FE"/>
<path d="M39.329 173.519C39.2215 174.869 38.4021 174.29 37.8884 173.957C32.9577 170.77 27.5482 168.287 23.8097 163.416C21.5258 160.438 18.2941 158.403 15.1461 156.373C14.416 155.903 13.6105 155.536 13.1289 154.764C23.4495 156.175 31.5352 161.115 37.1303 169.98C37.8702 171.157 38.6003 172.339 39.329 173.519Z" fill="#256BFB"/>
<path d="M71.956 57.0912C71.956 58.92 71.9015 60.7515 71.9727 62.5775C72.0258 63.9539 71.4353 64.4188 70.1118 64.3923C67.2389 64.3364 64.3631 64.3476 61.4902 64.3923C59.9476 64.4132 59.8275 63.6789 60.5576 62.6473C63.5632 58.3993 66.5437 54.1219 70.3799 50.5482C70.6703 50.2787 71.1588 49.9493 71.4646 50.0233C72.1011 50.1768 71.9448 50.8525 71.949 51.3481C71.9643 53.2592 71.956 55.1745 71.956 57.0912Z" fill="#E9F0FE"/>
<path d="M223.27 101.46C223.278 101.831 223.285 102.203 223.294 102.577C222.596 102.256 222.697 101.6 222.626 101.009C222.487 99.796 221.607 99.9523 221.301 100.655C219.914 103.83 216.662 103.981 214.126 105.219C211.404 106.547 209.311 108.43 207.512 111.017C207.512 107.418 207.512 103.818 207.512 100.219C207.512 98.742 208.629 98.9277 209.564 98.9235C213.128 98.9095 216.692 98.9319 220.254 98.9053C221.092 98.9053 222.019 99.1845 222.697 98.3818C223.439 99.306 222.791 100.487 223.27 101.46Z" fill="#D7E4FE"/>
<path d="M11.1738 155.83C15.9719 158.801 20.6666 161.809 24.2962 166.349C27.0254 169.768 31.1003 171.686 34.79 173.973C35.5955 174.471 36.4079 174.959 37.2162 175.454C24.8574 173.788 16.3083 167.075 11.1738 155.83Z" fill="#266CFB"/>
<path d="M49.2631 195.911C49.1223 195.969 48.9737 196.007 48.822 196.022C48.7595 195.683 48.7189 195.341 48.7005 194.996C48.7298 189.692 48.7326 189.692 43.3162 189.692C40.2868 189.692 37.2505 189.819 34.231 189.65C32.0797 189.528 31.1723 190.148 31.6009 192.376C31.7266 193.034 31.559 193.745 31.5269 194.434C30.4702 191.215 31.3161 187.873 30.875 184.611C32.7079 183.855 34.6219 184.316 36.4883 184.317C40.5367 184.317 44.5991 184.038 48.6475 184.494C48.9559 184.611 49.2214 184.819 49.4083 185.09L49.2687 186.616C47.7331 187.528 46.0495 187.035 44.4371 187.081C41.419 187.163 38.3953 187.102 35.3743 187.108C39.1044 187.108 42.8345 187.095 46.5646 187.117C47.4986 187.117 48.4925 186.907 49.305 187.62C49.291 190.385 49.2771 193.148 49.2631 195.911Z" fill="#9B9AA9"/>
<path d="M34.2377 106.241C31.5978 106.229 29.5206 104.192 29.5834 101.68C29.6546 98.8591 31.341 97.3221 34.3396 97.3445C36.6388 97.3626 38.9296 99.5195 38.9799 101.714C39.0329 103.988 36.6597 106.254 34.2377 106.241Z" fill="#E8F0FE"/>
<path d="M301.107 159.101C303.559 159.091 305.854 161.307 305.804 163.62C305.745 165.985 303.464 168.016 300.886 167.998C298.493 167.98 296.446 165.904 296.463 163.507C296.481 160.702 298.163 159.101 301.107 159.101Z" fill="#E8F0FE"/>
<path d="M31.9158 178.659C34.9437 178.692 37.9926 179.145 40.9689 178.195C42.9317 178.234 44.8944 178.292 46.8572 178.306C47.8177 178.306 48.7502 178.324 49.3882 179.203C49.712 182.202 49.4384 182.618 46.5501 182.683C42.2225 182.781 37.8823 182.806 33.5519 182.669C30.8995 182.586 30.5785 182.064 30.9945 179.247L31.9158 178.659Z" fill="#424058"/>
<path d="M56.2677 150.534C51.8243 154.611 49.7456 160.537 45.291 164.604C44.2691 165.536 43.2123 166.433 42.1472 167.318C40.472 168.714 41.0737 167.168 41.0457 166.449C43.2793 161.273 46.0937 156.511 50.7158 153.056L55.6018 150.483L56.2677 150.534Z" fill="#266CFA"/>
<path d="M43.207 168.725C47.127 165.312 50.4802 161.444 53.0893 156.914C54.4379 154.575 56.5388 152.844 58.5533 151.081C58.1903 154.338 56.4146 157.024 55.013 159.862C51.8706 163.87 48.1419 167.099 43.207 168.725Z" fill="#286CF9"/>
<path d="M30.9956 179.247C30.6648 181.27 31.427 181.991 33.5475 181.916C37.9854 181.758 42.4386 181.75 46.8751 181.916C49.0627 181.998 49.6741 181.147 49.3879 179.201C50.4963 181.155 49.7188 183.122 49.4075 185.083C49.3279 185.012 49.2483 184.944 49.1701 184.866C46.7104 184.078 44.1822 184.586 41.6876 184.503C38.9975 184.411 36.3032 184.503 33.6103 184.473C32.6708 184.473 31.6783 184.613 30.9021 183.855C31.1366 182.325 29.5117 180.754 30.9956 179.247Z" fill="#9B9AA9"/>
<path d="M238.884 61.7676C239.272 64.0123 238.167 64.4744 236.132 64.4381C234.162 64.4018 232.674 64.2985 233.126 61.7522C233.579 59.6051 234.031 57.4581 234.578 54.856C236.46 57.1314 236.135 60.493 238.884 61.7676Z" fill="#D6E3FE"/>
<path d="M39.3458 154.751C39.2635 155.718 38.8153 155.309 38.3309 155.054C35.8614 153.743 33.5343 152.281 31.5869 150.201C30.1141 148.625 28.3761 147.295 26.7539 145.855L29.3882 146.312C33.7339 147.912 36.8791 150.931 39.3458 154.751Z" fill="#296CF7"/>
<path d="M25.1172 147.375C26.8245 147.468 27.9511 148.653 28.9757 149.748C31.3377 152.268 34.0188 154.468 36.9511 156.294C31.4229 155.427 27.6635 152.207 25.1172 147.375Z" fill="#2F6FF6"/>
<path d="M30.9024 183.858C36.2617 183.873 41.6209 183.858 46.9774 183.943C47.7298 183.956 49.0239 183.218 49.1719 184.869C43.0713 184.891 36.9638 185.353 30.8759 184.607C30.4697 184.342 30.4585 184.09 30.9024 183.858Z" fill="#5C5A6F"/>
<path d="M49.3072 187.617H31.8027V186.613H49.2709C49.2834 186.947 49.2946 187.282 49.3072 187.617Z" fill="#5B5A6E"/>
<path d="M246.752 98.9082C246.356 98.8426 245.738 99.1022 245.635 98.562C245.54 98.0455 246.131 97.9156 246.533 97.9045C248.096 97.8626 249.66 97.8696 251.223 97.8682C254.611 97.8682 257.999 97.8682 261.388 97.8682C260.089 98.9207 258.575 98.2339 257.166 98.3819C253.708 98.7421 250.175 97.7327 246.752 98.9082Z" fill="#E9F0FE"/>
<path d="M94.4663 97.8768C93.6077 98.7591 92.5119 98.3612 91.5207 98.3724C87.7264 98.4199 83.9321 98.4073 80.1391 98.3808C79.3113 98.3808 78.39 98.66 77.7129 97.874L77.7283 97.8573C77.9363 97.7051 78.1163 97.4678 78.3718 97.4385C83.4958 96.7705 88.6848 96.7705 93.8088 97.4385C94.0642 97.472 94.2443 97.7093 94.4537 97.8573L94.4663 97.8768Z" fill="#E9F0FE"/>
<path d="M94.4529 97.8614H77.7274C77.7274 89.5124 77.7274 81.1634 77.7274 72.8144C77.7274 71.6613 77.3658 70.3965 79.1471 69.9568C80.229 69.6902 79.7809 68.4756 79.7963 67.6701C79.9359 60.6901 79.9219 60.7753 86.86 60.6636C89.1174 60.6287 90.1239 61.1885 89.7791 63.5519C89.6395 64.4887 89.8307 65.4687 89.7414 66.4165C89.511 68.8386 89.8894 70.5571 92.9955 70.1857C94.827 69.9638 94.4515 71.5105 94.4543 72.5589C94.4682 80.9917 94.4678 89.4259 94.4529 97.8614Z" fill="#D6E3FE"/>
<path d="M133.435 140.262C132.116 140.213 131.551 139.789 131.696 138.414C131.868 136.783 131.91 135.14 132.009 133.502" fill="#FCFBFC"/>
<path d="M242.724 76.92H192.271C191.853 76.92 191.438 76.8376 191.051 76.6774C190.665 76.5173 190.313 76.2825 190.017 75.9866C189.722 75.6906 189.487 75.3393 189.327 74.9526C189.166 74.5659 189.084 74.1515 189.084 73.733C189.084 73.3144 189.166 72.9 189.327 72.5133C189.487 72.1267 189.722 71.7753 190.017 71.4794C190.313 71.1834 190.665 70.9487 191.051 70.7885C191.438 70.6283 191.853 70.5459 192.271 70.5459H242.724C243.569 70.5459 244.38 70.8817 244.977 71.4794C245.575 72.0771 245.911 72.8877 245.911 73.733C245.911 74.5782 245.575 75.3889 244.977 75.9866C244.38 76.5842 243.569 76.92 242.724 76.92V76.92Z" fill="white"/>
<path d="M242.724 77.1849H192.271C191.355 77.1849 190.477 76.8212 189.83 76.1737C189.182 75.5263 188.818 74.6482 188.818 73.7326C188.818 72.817 189.182 71.9389 189.83 71.2914C190.477 70.644 191.355 70.2803 192.271 70.2803H242.724C243.639 70.2803 244.517 70.644 245.165 71.2914C245.812 71.9389 246.176 72.817 246.176 73.7326C246.176 74.6482 245.812 75.5263 245.165 76.1737C244.517 76.8212 243.639 77.1849 242.724 77.1849V77.1849ZM192.271 70.8121C191.496 70.8121 190.753 71.1198 190.206 71.6675C189.658 72.2152 189.35 72.958 189.35 73.7326C189.35 74.5071 189.658 75.2499 190.206 75.7976C190.753 76.3453 191.496 76.653 192.271 76.653H242.724C243.498 76.653 244.241 76.3453 244.789 75.7976C245.336 75.2499 245.644 74.5071 245.644 73.7326C245.644 72.958 245.336 72.2152 244.789 71.6675C244.241 71.1198 243.498 70.8121 242.724 70.8121H192.271Z" fill="#003056"/>
<path d="M238.474 87.5404H185.366C184.533 87.523 183.739 87.1796 183.156 86.584C182.573 85.9883 182.246 85.1878 182.246 84.3541C182.246 83.5204 182.573 82.7198 183.156 82.1242C183.739 81.5285 184.533 81.1851 185.366 81.1677H238.474C238.899 81.1588 239.32 81.2347 239.714 81.3908C240.109 81.547 240.468 81.7802 240.771 82.077C241.074 82.3738 241.315 82.728 241.479 83.119C241.644 83.51 241.728 83.9299 241.728 84.3541C241.728 84.7782 241.644 85.1981 241.479 85.5891C241.315 85.9801 241.074 86.3344 240.771 86.6311C240.468 86.9279 240.109 87.1612 239.714 87.3173C239.32 87.4735 238.899 87.5493 238.474 87.5404V87.5404Z" fill="white"/>
<path d="M238.475 87.8058H185.367C184.464 87.7876 183.604 87.416 182.971 86.7706C182.339 86.1253 181.984 85.2577 181.984 84.3542C181.984 83.4506 182.339 82.583 182.971 81.9377C183.604 81.2924 184.464 80.9207 185.367 80.9026H238.475C238.934 80.8933 239.391 80.9758 239.818 81.1451C240.244 81.3144 240.633 81.5672 240.961 81.8886C241.289 82.21 241.55 82.5936 241.728 83.017C241.905 83.4404 241.997 83.895 241.997 84.3542C241.997 84.8134 241.905 85.268 241.728 85.6913C241.55 86.1147 241.289 86.4983 240.961 86.8197C240.633 87.1412 240.244 87.3939 239.818 87.5632C239.391 87.7325 238.934 87.815 238.475 87.8058V87.8058ZM185.367 81.433C184.604 81.4497 183.877 81.7648 183.343 82.3108C182.808 82.8568 182.509 83.5903 182.509 84.3542C182.509 85.118 182.808 85.8515 183.343 86.3975C183.877 86.9435 184.604 87.2586 185.367 87.2753H238.475C238.864 87.2838 239.251 87.2145 239.613 87.0715C239.975 86.9286 240.304 86.7148 240.582 86.4427C240.861 86.1706 241.082 85.8457 241.232 85.487C241.383 85.1284 241.461 84.7432 241.461 84.3542C241.461 83.9651 241.383 83.5799 241.232 83.2213C241.082 82.8627 240.861 82.5377 240.582 82.2657C240.304 81.9936 239.975 81.7798 239.613 81.6368C239.251 81.4938 238.864 81.4245 238.475 81.433H185.367Z" fill="#003056"/>
<path d="M85.1719 202.339H176.708C180.653 202.339 183.446 199.151 182.949 195.219L160.411 17.1625C159.912 13.2299 156.311 10.0429 152.367 10.0429L65.4255 9.03076C55.4469 9.03076 54.0928 13.2341 54.5898 17.1667L77.1296 195.219C77.6266 199.151 81.2282 202.339 85.1719 202.339Z" fill="#003762"/>
<path d="M90.6807 202.339H182.216C186.162 202.339 188.955 199.141 188.458 195.196L165.915 16.5692C165.418 12.6255 161.817 9.42725 157.872 9.42725H66.3401C62.395 9.42725 59.6002 12.6255 60.0985 16.5692L82.637 195.196C83.1325 199.141 86.737 202.339 90.6807 202.339Z" fill="white"/>
<path d="M182.217 202.604H90.6812C86.6147 202.604 82.8874 199.296 82.375 195.229L59.8352 16.6055C59.5839 14.6106 60.1298 12.7358 61.3708 11.3272C62.6118 9.91867 64.3652 9.17041 66.3406 9.17041H157.875C161.943 9.17041 165.669 12.4789 166.182 16.5455L188.721 195.169C188.974 197.164 188.428 199.039 187.185 200.448C185.943 201.856 184.191 202.604 182.217 202.604ZM66.3406 9.69531C64.5258 9.69531 62.898 10.4003 61.7701 11.6776C60.6421 12.955 60.1298 14.6972 60.3629 16.5399L82.9013 195.164C83.3829 198.973 86.8729 202.072 90.6812 202.072H182.217C184.032 202.072 185.659 201.374 186.786 200.092C187.913 198.809 188.426 197.071 188.195 195.229L165.656 16.6055C165.175 12.7958 161.685 9.69531 157.875 9.69531H66.3406Z" fill="#003056"/>
<path d="M99.9596 202.605H90.6804C86.6138 202.605 82.8865 199.296 82.3742 195.229L78.9246 167.896C78.9196 167.861 78.9215 167.825 78.9303 167.791C78.9392 167.757 78.9547 167.725 78.9761 167.697C78.9975 167.669 79.0243 167.645 79.0549 167.628C79.0855 167.61 79.1193 167.599 79.1543 167.594C79.1893 167.59 79.2249 167.593 79.2588 167.602C79.2928 167.612 79.3246 167.628 79.3522 167.65C79.3798 167.672 79.4028 167.699 79.4197 167.73C79.4367 167.761 79.4473 167.795 79.4509 167.83L82.9005 195.164C83.3821 198.974 86.8721 202.073 90.6804 202.073H99.9596C100.027 202.078 100.09 202.108 100.136 202.157C100.181 202.206 100.207 202.271 100.207 202.339C100.207 202.406 100.181 202.471 100.136 202.52C100.09 202.57 100.027 202.6 99.9596 202.605V202.605Z" fill="#003056"/>
<path d="M181.801 197.351H89.7739C89.2555 197.338 88.7585 197.142 88.3705 196.798C87.9825 196.454 87.7286 195.984 87.6534 195.471L66.1312 24.9203C66.0955 24.6748 66.1132 24.4245 66.1831 24.1865C66.2529 23.9485 66.3734 23.7283 66.5361 23.5411C66.6993 23.3587 66.8998 23.2135 67.1241 23.1155C67.3483 23.0175 67.5911 22.9688 67.8358 22.9729H159.864C160.383 22.9864 160.879 23.1825 161.267 23.5265C161.655 23.8705 161.909 24.3404 161.985 24.8533L183.506 195.41C183.541 195.655 183.524 195.905 183.454 196.143C183.384 196.381 183.263 196.602 183.101 196.789C182.937 196.97 182.736 197.115 182.512 197.212C182.288 197.309 182.045 197.356 181.801 197.351V197.351ZM67.8358 23.5034C67.6663 23.4997 67.498 23.5326 67.3424 23.5998C67.1868 23.667 67.0475 23.767 66.9339 23.8929C66.8212 24.0235 66.7379 24.1769 66.6897 24.3427C66.6415 24.5084 66.6296 24.6826 66.6547 24.8533L88.1797 195.41C88.2363 195.796 88.4272 196.149 88.7188 196.408C89.0104 196.668 89.384 196.816 89.7739 196.827H181.801C181.971 196.83 182.139 196.797 182.294 196.73C182.45 196.663 182.589 196.563 182.703 196.437C182.816 196.306 182.899 196.153 182.947 195.987C182.995 195.821 183.007 195.646 182.982 195.475L161.457 24.9203C161.401 24.5344 161.21 24.1806 160.919 23.9214C160.628 23.6621 160.254 23.5141 159.864 23.5034H67.8358Z" fill="#003056"/>
<path d="M113.254 18.5154C114.731 18.5154 115.778 17.3177 115.591 15.8393C115.404 14.3609 114.055 13.1646 112.578 13.1646C111.101 13.1646 110.054 14.3623 110.24 15.8393C110.426 17.3163 111.776 18.5154 113.254 18.5154Z" fill="#003056"/>
<path d="M175.165 139.042H175.115C169.81 139.027 164.34 135.831 158.874 129.538C156.473 126.76 154.34 123.763 152.501 120.585C152.307 120.238 152.185 119.855 152.139 119.46C152.094 119.065 152.126 118.664 152.236 118.282C152.345 117.899 152.528 117.542 152.776 117.23C153.023 116.918 153.329 116.658 153.677 116.465C154.025 116.272 154.407 116.149 154.802 116.103C155.198 116.058 155.598 116.091 155.981 116.2C156.363 116.309 156.721 116.493 157.032 116.74C157.344 116.987 157.604 117.293 157.797 117.641C160.17 121.903 167.918 132.961 175.131 132.982H175.165C177.453 132.982 179.222 132.275 180.572 130.824C183.803 127.346 184.039 120.398 183.858 118.014C183.827 117.617 183.876 117.218 184 116.84C184.123 116.462 184.321 116.112 184.58 115.81C184.839 115.508 185.155 115.261 185.51 115.081C185.865 114.901 186.252 114.793 186.648 114.763C187.045 114.732 187.444 114.781 187.822 114.904C188.2 115.028 188.55 115.225 188.852 115.485C189.154 115.744 189.402 116.06 189.582 116.415C189.761 116.77 189.869 117.157 189.9 117.553C189.935 118.011 190.69 128.839 185.014 134.949C182.485 137.665 179.177 139.042 175.165 139.042Z" fill="#00CDB0"/>
<path d="M196.44 117.211H178.496C178.093 117.22 177.692 117.148 177.317 116.999C176.941 116.851 176.6 116.629 176.311 116.347C176.023 116.065 175.794 115.728 175.637 115.356C175.481 114.984 175.4 114.585 175.4 114.181C175.4 113.778 175.481 113.378 175.637 113.006C175.794 112.634 176.023 112.297 176.311 112.015C176.6 111.733 176.941 111.511 177.317 111.363C177.692 111.214 178.093 111.142 178.496 111.151H196.44C197.233 111.168 197.987 111.495 198.541 112.061C199.096 112.628 199.406 113.389 199.406 114.181C199.406 114.974 199.096 115.735 198.541 116.301C197.987 116.867 197.233 117.194 196.44 117.211V117.211Z" fill="#00CDB0"/>
<path d="M171.779 57.6118H173.466C175.456 57.6118 177.366 58.4027 178.773 59.8104C180.181 61.2181 180.972 63.1273 180.972 65.1181V68.0218C180.972 70.0126 180.181 71.9218 178.773 73.3295C177.366 74.7372 175.456 75.5281 173.466 75.5281H171.779V57.6118Z" fill="white"/>
<path d="M173.209 75.7906H171.778C171.743 75.7908 171.709 75.7841 171.676 75.7709C171.644 75.7576 171.615 75.7381 171.59 75.7135C171.565 75.6888 171.545 75.6595 171.532 75.6272C171.519 75.595 171.512 75.5604 171.512 75.5254V57.6119C171.512 57.577 171.519 57.5424 171.532 57.5101C171.545 57.4778 171.565 57.4485 171.59 57.4239C171.615 57.3992 171.644 57.3797 171.676 57.3665C171.709 57.3532 171.743 57.3465 171.778 57.3467H173.208C175.336 57.3493 177.377 58.1959 178.882 59.701C180.387 61.2061 181.234 63.2466 181.236 65.3751V67.765C181.233 69.8928 180.386 71.9324 178.881 73.4368C177.377 74.9412 175.337 75.7877 173.209 75.7906V75.7906ZM172.045 75.2602H173.209C175.197 75.2579 177.103 74.4672 178.508 73.0615C179.914 71.6558 180.704 69.75 180.706 67.7622V65.3723C180.704 63.3845 179.914 61.4787 178.508 60.073C177.103 58.6673 175.197 57.8766 173.209 57.8744H172.045V75.2602Z" fill="#003056"/>
<path d="M90.8828 75.5225H89.1964C87.2056 75.5225 85.2964 74.7316 83.8887 73.3239C82.481 71.9162 81.6901 70.007 81.6901 68.0162V65.1125C81.6901 63.1217 82.481 61.2124 83.8887 59.8047C85.2964 58.397 87.2056 57.6062 89.1964 57.6062H90.8828V75.5225Z" fill="white"/>
<path d="M90.8851 75.7905H89.4542C87.3257 75.7879 85.2852 74.9412 83.7801 73.4362C82.275 71.9311 81.4284 69.8906 81.4258 67.7621V65.3721C81.4284 63.2437 82.275 61.2031 83.7801 59.6981C85.2852 58.193 87.3257 57.3463 89.4542 57.3438H90.8851C90.9554 57.3438 91.0229 57.3717 91.0726 57.4214C91.1224 57.4712 91.1503 57.5386 91.1503 57.609V75.5253C91.1503 75.5956 91.1224 75.6631 91.0726 75.7128C91.0229 75.7625 90.9554 75.7905 90.8851 75.7905ZM89.4542 57.8742C87.4664 57.8764 85.5607 58.6672 84.1553 60.0729C82.7499 61.4785 81.9595 63.3844 81.9577 65.3721V67.7621C81.9595 69.7499 82.7499 71.6557 84.1553 73.0614C85.5607 74.4671 87.4664 75.2578 89.4542 75.26H90.6184V57.8742H89.4542Z" fill="#003056"/>
<path d="M87.9883 65.8272C87.9883 46.575 107.393 26.6597 131.333 26.6597C155.273 26.6597 174.676 46.575 174.676 65.8272C174.676 85.0795 155.271 96.3787 131.333 96.3787C107.394 96.3787 87.9883 85.0795 87.9883 65.8272Z" fill="white"/>
<path d="M131.332 96.6438C119.304 96.6438 108.368 93.7666 100.535 88.547C92.1591 82.963 87.7227 75.1021 87.7227 65.8313C87.7227 56.3203 92.3797 46.4813 100.502 38.8354C109.017 30.8154 119.967 26.3984 131.332 26.3984C142.697 26.3984 153.645 30.8084 162.163 38.8312C170.283 46.4771 174.941 56.3161 174.941 65.8271C174.941 75.0979 170.51 82.9518 162.128 88.5428C154.295 93.768 143.359 96.6438 131.332 96.6438ZM131.332 26.9261C106.676 26.9261 88.2531 47.4641 88.2531 65.8271C88.2531 74.9108 92.6031 82.614 100.831 88.1016C108.576 93.2668 119.409 96.1133 131.332 96.1133C143.256 96.1133 154.087 93.2668 161.834 88.1016C170.062 82.614 174.41 74.9108 174.41 65.8271C174.41 47.4641 155.987 26.9261 131.332 26.9261V26.9261Z" fill="#003056"/>
<path d="M142.182 102.162H120.474C115.904 102.162 111.521 103.978 108.289 107.209C105.058 110.441 103.242 114.824 103.242 119.394C103.242 125.682 103.855 131.955 105.074 138.123L108.195 153.936C109.252 159.294 112.137 164.12 116.357 167.588C120.576 171.056 125.869 172.952 131.33 172.952C136.792 172.952 142.085 171.056 146.304 167.588C150.524 164.12 153.408 159.294 154.466 153.936L157.588 138.126C158.806 131.957 159.419 125.685 159.419 119.397C159.419 117.134 158.973 114.892 158.107 112.801C157.241 110.71 155.972 108.809 154.371 107.209C152.77 105.608 150.87 104.339 148.779 103.473C146.687 102.607 144.446 102.162 142.182 102.162V102.162Z" fill="white"/>
<path d="M131.332 173.213C125.812 173.203 120.465 171.282 116.2 167.777C111.935 164.272 109.015 159.398 107.935 153.985L104.814 138.175C103.593 131.989 102.978 125.699 102.977 119.394C102.982 114.756 104.827 110.308 108.108 107.028C111.388 103.748 115.835 101.903 120.474 101.897H142.183C146.822 101.903 151.269 103.748 154.55 107.028C157.83 110.308 159.675 114.756 159.681 119.394C159.679 125.699 159.064 131.989 157.844 138.175L154.722 153.985C153.643 159.397 150.724 164.27 146.46 167.775C142.197 171.28 136.851 173.201 131.332 173.213V173.213ZM120.474 102.423C115.976 102.43 111.664 104.22 108.485 107.402C105.305 110.584 103.518 114.896 103.514 119.394C103.512 125.664 104.119 131.919 105.329 138.072L108.452 153.881C109.494 159.182 112.345 163.956 116.518 167.387C120.69 170.819 125.924 172.695 131.327 172.695C136.729 172.695 141.963 170.819 146.135 167.387C150.308 163.956 153.159 159.182 154.201 153.881L157.323 138.072C158.536 131.92 159.147 125.665 159.149 119.394C159.145 114.895 157.357 110.582 154.176 107.4C150.995 104.218 146.682 102.428 142.183 102.423H120.474Z" fill="#003056"/>
<path d="M143.15 102.424H119.511C119.441 102.424 119.374 102.396 119.324 102.346C119.274 102.296 119.246 102.229 119.246 102.158C119.246 102.088 119.274 102.02 119.324 101.971C119.374 101.921 119.441 101.893 119.511 101.893H143.15C143.22 101.893 143.288 101.921 143.337 101.971C143.387 102.02 143.415 102.088 143.415 102.158C143.415 102.229 143.387 102.296 143.337 102.346C143.288 102.396 143.22 102.424 143.15 102.424Z" fill="#003056"/>
<path d="M160.47 60.0493H118.73C114.394 60.0493 110.879 63.8367 110.879 68.5091V74.0289C110.879 77.5928 112.782 81.369 116.061 81.9861C127.628 84.1596 151.571 84.1596 163.137 81.9861C166.417 81.3704 168.32 77.5942 168.32 74.0289V68.5091C168.323 63.8367 164.808 60.0493 160.47 60.0493Z" fill="#00CDB0"/>
<path d="M127.165 73.991C128.618 73.991 129.795 72.7222 129.795 71.1571C129.795 69.592 128.618 68.3232 127.165 68.3232C125.713 68.3232 124.535 69.592 124.535 71.1571C124.535 72.7222 125.713 73.991 127.165 73.991Z" fill="white"/>
<path d="M155.15 73.991C156.602 73.991 157.78 72.7222 157.78 71.1571C157.78 69.592 156.602 68.3232 155.15 68.3232C153.697 68.3232 152.52 69.592 152.52 71.1571C152.52 72.7222 153.697 73.991 155.15 73.991Z" fill="white"/>
<path d="M141.65 132.389C147.084 126.955 147.084 118.144 141.65 112.71C136.215 107.276 127.405 107.276 121.97 112.71C116.536 118.144 116.536 126.955 121.97 132.389C127.405 137.824 136.215 137.824 141.65 132.389Z" fill="white"/>
<path d="M131.808 136.73C129.003 136.73 126.261 135.899 123.929 134.34C121.597 132.782 119.78 130.568 118.706 127.976C117.633 125.385 117.352 122.534 117.899 119.783C118.447 117.032 119.797 114.506 121.78 112.523C123.764 110.539 126.29 109.189 129.041 108.642C131.792 108.094 134.643 108.375 137.234 109.449C139.825 110.522 142.04 112.339 143.598 114.671C145.156 117.003 145.988 119.745 145.988 122.55C145.984 126.309 144.488 129.914 141.83 132.572C139.171 135.23 135.567 136.726 131.808 136.73V136.73ZM131.808 108.9C129.108 108.9 126.469 109.7 124.224 111.2C121.979 112.7 120.23 114.832 119.196 117.326C118.163 119.82 117.893 122.565 118.42 125.213C118.946 127.861 120.246 130.293 122.155 132.202C124.064 134.111 126.497 135.411 129.145 135.938C131.792 136.464 134.537 136.194 137.031 135.161C139.525 134.128 141.657 132.378 143.157 130.133C144.657 127.889 145.458 125.249 145.458 122.55C145.454 118.931 144.014 115.461 141.455 112.902C138.896 110.343 135.427 108.904 131.808 108.9V108.9Z" fill="#003056"/>
<path d="M133.151 114.643H130.94C129.781 114.643 128.842 115.582 128.842 116.741V128.928C128.842 130.087 129.781 131.026 130.94 131.026H133.151C134.31 131.026 135.249 130.087 135.249 128.928V116.741C135.249 115.582 134.31 114.643 133.151 114.643Z" fill="#00CDB0"/>
<path d="M138.103 119.617H125.989C124.83 119.617 123.891 120.556 123.891 121.715V123.955C123.891 125.114 124.83 126.054 125.989 126.054H138.103C139.262 126.054 140.201 125.114 140.201 123.955V121.715C140.201 120.556 139.262 119.617 138.103 119.617Z" fill="#00CDB0"/>
<path d="M103.607 152.819C97.6712 152.819 89.647 151.981 84.4916 148.028C81.5237 145.752 79.7912 142.748 79.3389 139.094C77.3133 122.713 97.0807 113.337 97.9239 112.945C98.6525 112.606 99.4859 112.571 100.241 112.846C100.995 113.122 101.61 113.686 101.949 114.415C102.287 115.144 102.323 115.977 102.047 116.732C101.771 117.487 101.207 118.101 100.479 118.44C100.312 118.518 83.8662 126.355 85.3529 138.349C85.6014 140.354 86.5256 141.944 88.1784 143.212C93.8392 147.55 106.187 146.942 110.46 146.34C111.251 146.24 112.049 146.455 112.683 146.94C113.316 147.424 113.733 148.138 113.843 148.928C113.953 149.718 113.748 150.519 113.271 151.158C112.795 151.797 112.086 152.223 111.298 152.343C108.747 152.665 106.178 152.824 103.607 152.819Z" fill="#00CDB0"/>
<path d="M124.529 156.037H118.71C117.181 156.041 115.705 155.475 114.571 154.448C113.437 153.422 112.727 152.01 112.579 150.487L112.376 148.463C112.291 147.607 112.385 146.741 112.654 145.924C112.923 145.106 113.361 144.354 113.939 143.715C114.516 143.077 115.221 142.567 116.008 142.218C116.795 141.869 117.647 141.688 118.508 141.688H127.788C128.592 141.688 129.362 142.008 129.93 142.576C130.498 143.144 130.818 143.914 130.818 144.718C130.818 145.521 130.498 146.292 129.93 146.86C129.362 147.428 128.592 147.747 127.788 147.747H118.508C118.493 147.746 118.479 147.749 118.465 147.755C118.452 147.761 118.44 147.769 118.431 147.781C118.421 147.791 118.414 147.804 118.409 147.818C118.405 147.831 118.404 147.846 118.406 147.86L118.608 149.884C118.611 149.91 118.622 149.933 118.641 149.95C118.66 149.967 118.685 149.977 118.71 149.977H124.529C125.321 149.994 126.075 150.32 126.629 150.887C127.184 151.453 127.494 152.214 127.494 153.007C127.494 153.799 127.184 154.56 126.629 155.126C126.075 155.693 125.321 156.02 124.529 156.037V156.037Z" fill="#00CDB0"/>
<path d="M262.46 150.345C262.415 150.345 262.372 150.334 262.333 150.312C262.271 150.278 262.225 150.221 262.206 150.154C262.186 150.086 262.194 150.013 262.228 149.952L263.222 148.147C263.239 148.116 263.261 148.088 263.288 148.066C263.315 148.044 263.347 148.027 263.38 148.017C263.414 148.007 263.449 148.004 263.484 148.008C263.519 148.012 263.553 148.022 263.584 148.039C263.615 148.056 263.642 148.079 263.664 148.106C263.685 148.134 263.702 148.165 263.711 148.199C263.721 148.233 263.724 148.268 263.719 148.303C263.715 148.338 263.704 148.372 263.687 148.402L262.693 150.207C262.67 150.249 262.637 150.284 262.595 150.309C262.554 150.333 262.508 150.346 262.46 150.345V150.345Z" fill="#003056"/>
<path d="M260.144 154.549C260.098 154.548 260.053 154.536 260.013 154.513C259.973 154.49 259.94 154.458 259.916 154.418C259.893 154.378 259.88 154.333 259.879 154.287C259.878 154.241 259.889 154.196 259.911 154.155L260.905 152.35C260.939 152.288 260.996 152.243 261.064 152.223C261.132 152.204 261.204 152.212 261.266 152.246C261.328 152.28 261.373 152.337 261.393 152.405C261.412 152.473 261.404 152.545 261.37 152.607L260.377 154.411C260.354 154.452 260.321 154.487 260.28 154.511C260.239 154.536 260.192 154.549 260.144 154.549V154.549Z" fill="#003056"/>
<path d="M260.599 150.884C260.555 150.884 260.51 150.872 260.471 150.85L258.667 149.858C258.606 149.824 258.56 149.767 258.54 149.699C258.52 149.632 258.528 149.559 258.562 149.497C258.596 149.435 258.653 149.389 258.721 149.37C258.788 149.35 258.861 149.358 258.923 149.392L260.728 150.386C260.78 150.414 260.821 150.459 260.845 150.513C260.868 150.567 260.873 150.628 260.858 150.685C260.844 150.742 260.81 150.793 260.763 150.829C260.716 150.865 260.659 150.884 260.599 150.884V150.884Z" fill="#003056"/>
<path d="M264.804 153.199C264.759 153.199 264.715 153.187 264.677 153.165L262.872 152.171C262.841 152.154 262.814 152.132 262.792 152.104C262.771 152.077 262.754 152.046 262.745 152.012C262.735 151.979 262.732 151.944 262.736 151.909C262.74 151.875 262.751 151.841 262.768 151.81C262.784 151.78 262.807 151.753 262.834 151.731C262.862 151.71 262.893 151.693 262.926 151.684C262.96 151.674 262.995 151.671 263.03 151.675C263.064 151.679 263.098 151.69 263.128 151.706L264.932 152.7C264.984 152.729 265.025 152.773 265.049 152.828C265.072 152.882 265.077 152.942 265.062 153C265.048 153.057 265.014 153.108 264.967 153.144C264.92 153.18 264.863 153.199 264.804 153.199V153.199Z" fill="#003056"/>
<path d="M168.755 11.6093C168.449 11.6092 168.146 11.5519 167.861 11.4404C167.549 11.3183 167.265 11.1352 167.026 10.902C166.786 10.6687 166.595 10.39 166.465 10.0821C166.197 9.46498 166.181 8.76771 166.421 8.13928C166.661 7.51086 167.137 7.00114 167.748 6.71909C168.046 6.58401 168.368 6.50997 168.696 6.50134C169.023 6.49271 169.349 6.54966 169.654 6.66883C169.966 6.7911 170.25 6.97436 170.49 7.20785C170.729 7.44134 170.92 7.72036 171.05 8.02854C171.318 8.64566 171.333 9.34279 171.093 9.97111C170.854 10.5994 170.378 11.1092 169.768 11.3915C169.449 11.5345 169.104 11.6088 168.755 11.6093ZM168.755 7.03179C168.481 7.03211 168.211 7.09064 167.961 7.2035C167.477 7.42757 167.1 7.8322 166.911 8.3308C166.721 8.8294 166.734 9.38233 166.948 9.87126C167.051 10.1148 167.202 10.3353 167.392 10.5196C167.582 10.704 167.807 10.8485 168.053 10.9448C168.293 11.0388 168.549 11.0838 168.806 11.0771C169.063 11.0704 169.317 11.0121 169.551 10.9057C170.035 10.6816 170.412 10.277 170.602 9.7784C170.791 9.2798 170.778 8.72686 170.565 8.23794C170.461 7.9942 170.31 7.77366 170.12 7.58929C169.929 7.40492 169.704 7.26046 169.458 7.16442C169.233 7.07707 168.995 7.03211 168.754 7.03179H168.755Z" fill="#003056"/>
<path d="M165.796 216.048C165.237 216.048 164.682 216.043 164.13 216.031C164.06 216.03 163.993 216.001 163.944 215.95C163.895 215.899 163.868 215.831 163.869 215.761C163.874 215.69 163.906 215.624 163.958 215.576C164.009 215.527 164.078 215.501 164.148 215.501C175.777 215.737 187.562 213.484 199.156 208.8C199.188 208.786 199.223 208.779 199.258 208.779C199.294 208.779 199.328 208.785 199.361 208.799C199.394 208.812 199.423 208.832 199.448 208.857C199.473 208.882 199.493 208.912 199.506 208.944C199.519 208.977 199.526 209.012 199.525 209.047C199.525 209.082 199.518 209.117 199.504 209.149C199.49 209.182 199.469 209.211 199.444 209.235C199.418 209.26 199.388 209.279 199.355 209.292C188.241 213.78 176.961 216.048 165.796 216.048Z" fill="#003056"/>
<path d="M160.005 215.812C152.606 215.707 147.976 214.577 147.93 214.565C147.861 214.548 147.803 214.505 147.766 214.445C147.73 214.384 147.719 214.312 147.736 214.244C147.753 214.175 147.797 214.117 147.857 214.08C147.918 214.044 147.99 214.033 148.058 214.05C148.104 214.062 152.679 215.178 160.012 215.28C160.079 215.285 160.142 215.315 160.188 215.365C160.234 215.414 160.259 215.479 160.259 215.546C160.259 215.614 160.234 215.678 160.188 215.728C160.142 215.777 160.079 215.807 160.012 215.812H160.005Z" fill="#003056"/>
<path d="M166.506 220.944C163.586 220.944 161.856 220.789 161.795 220.783C161.76 220.78 161.726 220.77 161.695 220.753C161.665 220.737 161.637 220.714 161.615 220.688C161.593 220.661 161.576 220.629 161.566 220.596C161.556 220.563 161.553 220.528 161.556 220.493C161.559 220.458 161.57 220.424 161.586 220.394C161.602 220.363 161.625 220.336 161.652 220.313C161.679 220.291 161.71 220.275 161.743 220.264C161.777 220.254 161.812 220.251 161.846 220.254C162.063 220.275 183.808 222.209 204.815 211.97C204.879 211.939 204.952 211.935 205.018 211.958C205.085 211.981 205.14 212.029 205.17 212.092C205.201 212.156 205.206 212.229 205.183 212.295C205.16 212.362 205.112 212.417 205.048 212.448C189.772 219.895 174.107 220.944 166.506 220.944Z" fill="#003056"/>
<path d="M264.041 135.369C264.02 135.372 263.998 135.372 263.977 135.369C263.943 135.361 263.911 135.346 263.883 135.325C263.855 135.304 263.832 135.278 263.814 135.249C263.796 135.219 263.784 135.186 263.778 135.151C263.773 135.117 263.775 135.082 263.783 135.048C266.821 122.643 267.016 110.63 264.361 99.3465C264.35 99.3115 264.347 99.2747 264.351 99.2384C264.355 99.202 264.366 99.1669 264.384 99.1351C264.403 99.1034 264.427 99.0757 264.456 99.0538C264.486 99.032 264.519 99.0164 264.555 99.008C264.59 98.9997 264.627 98.9987 264.663 99.0053C264.699 99.0118 264.734 99.0257 264.764 99.0461C264.795 99.0664 264.82 99.0928 264.84 99.1236C264.86 99.1544 264.873 99.1889 264.879 99.225C267.552 110.591 267.357 122.686 264.298 135.173C264.283 135.23 264.249 135.279 264.203 135.315C264.157 135.35 264.1 135.369 264.041 135.369V135.369Z" fill="#003056"/>
<path d="M267.459 139.604C267.431 139.604 267.403 139.6 267.376 139.592C267.309 139.57 267.253 139.522 267.222 139.459C267.19 139.396 267.185 139.322 267.207 139.255C274.755 116.361 268.065 95.6277 267.997 95.4211C267.975 95.3542 267.98 95.2813 268.011 95.2184C268.043 95.1554 268.098 95.1076 268.165 95.0853C268.232 95.0631 268.305 95.0684 268.368 95.0999C268.431 95.1315 268.479 95.1867 268.501 95.2535C268.569 95.4629 275.316 116.355 267.712 139.423C267.694 139.476 267.66 139.522 267.615 139.554C267.57 139.587 267.515 139.604 267.459 139.604Z" fill="#003056"/>
<path d="M57.6173 136.786C57.2547 136.786 56.8987 136.689 56.5856 136.506C56.1513 136.255 55.8235 135.853 55.6631 135.378C55.5027 134.902 55.5208 134.384 55.7139 133.921C55.9071 133.457 56.2621 133.08 56.7129 132.859C57.1637 132.638 57.6794 132.589 58.164 132.72C58.6486 132.851 59.069 133.154 59.3468 133.572C59.6246 133.99 59.7409 134.495 59.674 134.993C59.6071 135.49 59.3615 135.946 58.9831 136.276C58.6047 136.606 58.1193 136.787 57.6173 136.786V136.786ZM57.6173 133.178C57.2447 133.178 56.8845 133.312 56.6039 133.558C56.3234 133.803 56.1415 134.142 56.0922 134.511C56.043 134.88 56.1296 135.255 56.3362 135.565C56.5427 135.875 56.8549 136.1 57.2146 136.197C57.5744 136.294 57.9571 136.257 58.2916 136.092C58.626 135.928 58.8892 135.648 59.0323 135.304C59.1753 134.96 59.1884 134.575 59.0691 134.222C58.9497 133.869 58.7061 133.572 58.3837 133.385C58.1528 133.25 57.8902 133.179 57.6228 133.178H57.6173Z" fill="#003056"/>
<path d="M67.9993 171.451C67.9584 171.451 67.9181 171.442 67.8816 171.424C67.845 171.406 67.8131 171.379 67.7885 171.347C62.8215 164.834 59.1584 155.244 56.587 142.031C56.5735 141.962 56.5879 141.89 56.6272 141.832C56.6665 141.773 56.7273 141.733 56.7964 141.719C56.8654 141.706 56.937 141.72 56.9954 141.76C57.0538 141.799 57.0942 141.86 57.1077 141.929C59.6638 155.062 63.2948 164.582 68.2101 171.028C68.2527 171.084 68.2715 171.154 68.2624 171.224C68.2532 171.294 68.2168 171.357 68.1612 171.4C68.1145 171.434 68.0575 171.453 67.9993 171.451V171.451Z" fill="#003056"/>
<path d="M227.853 52.4171C236.441 52.4171 243.402 45.4557 243.402 36.8685C243.402 28.2812 236.441 21.3198 227.853 21.3198C219.266 21.3198 212.305 28.2812 212.305 36.8685C212.305 45.4557 219.266 52.4171 227.853 52.4171Z" fill="white"/>
<path d="M227.853 52.6825C224.726 52.6814 221.669 51.753 219.069 50.0146C216.469 48.2763 214.443 45.8061 213.247 42.9164C212.051 40.0267 211.739 36.8472 212.349 33.78C212.96 30.7128 214.467 27.8956 216.679 25.6845C218.891 23.4734 221.708 21.9679 224.776 21.3581C227.843 20.7484 231.023 21.0619 233.912 22.259C236.801 23.4561 239.271 25.483 241.008 28.0834C242.745 30.6839 243.673 33.7411 243.673 36.8686C243.668 41.0622 241.999 45.0826 239.034 48.0474C236.068 51.0122 232.047 52.6791 227.853 52.6825V52.6825ZM227.853 21.5866C224.831 21.5866 221.876 22.4828 219.363 24.1621C216.85 25.8413 214.891 28.228 213.734 31.0204C212.578 33.8128 212.275 36.8855 212.865 39.85C213.455 42.8144 214.91 45.5374 217.047 47.6746C219.184 49.8118 221.907 51.2673 224.872 51.857C227.836 52.4466 230.909 52.144 233.701 50.9873C236.494 49.8307 238.881 47.8719 240.56 45.3588C242.239 42.8457 243.135 39.8911 243.135 36.8686C243.13 32.817 241.519 28.9328 238.654 26.0679C235.789 23.203 231.905 21.5914 227.853 21.5866V21.5866Z" fill="#003056"/>
<path d="M232.075 45.7343H223.458C223.142 45.734 222.832 45.6559 222.555 45.5068C222.277 45.3578 222.041 45.1425 221.866 44.88C221.692 44.6175 221.585 44.316 221.555 44.0024C221.526 43.6887 221.574 43.3725 221.696 43.0819L224.767 35.8116C225.323 34.4991 225.607 33.0879 225.605 31.6627V28.2955C225.605 28.2252 225.633 28.1577 225.682 28.108C225.732 28.0582 225.799 28.0303 225.87 28.0303H229.649C229.719 28.0303 229.787 28.0582 229.836 28.108C229.886 28.1577 229.914 28.2252 229.914 28.2955V31.6543C229.911 33.0795 230.196 34.4907 230.752 35.8032L233.823 43.0736C233.945 43.3641 233.993 43.6803 233.963 43.994C233.933 44.3077 233.827 44.6091 233.652 44.8716C233.478 45.1341 233.242 45.3494 232.964 45.4985C232.686 45.6475 232.376 45.7257 232.061 45.726L232.075 45.7343ZM226.142 28.5635V31.6571C226.144 33.154 225.844 34.6358 225.26 36.014L222.189 43.283C222.099 43.4929 222.064 43.7216 222.085 43.9486C222.106 44.1757 222.183 44.394 222.309 44.584C222.435 44.774 222.606 44.9299 222.807 45.0376C223.008 45.1452 223.232 45.2014 223.46 45.2011H232.078C232.306 45.2014 232.53 45.1452 232.731 45.0376C232.932 44.9299 233.104 44.774 233.23 44.584C233.355 44.394 233.432 44.1757 233.453 43.9486C233.474 43.7216 233.439 43.4929 233.35 43.283L230.278 36.014C229.694 34.6359 229.393 33.1541 229.395 31.6571V28.5649L226.142 28.5635Z" fill="#003056"/>
<path d="M229.461 28.5651H226.07C225.77 28.5547 225.486 28.4283 225.278 28.2125C225.07 27.9968 224.953 27.7085 224.953 27.4085C224.953 27.1086 225.07 26.8203 225.278 26.6045C225.486 26.3888 225.77 26.2624 226.07 26.252H229.461C229.761 26.2624 230.045 26.3888 230.253 26.6045C230.462 26.8203 230.578 27.1086 230.578 27.4085C230.578 27.7085 230.462 27.9968 230.253 28.2125C230.045 28.4283 229.761 28.5547 229.461 28.5651ZM226.07 26.7838C225.904 26.7838 225.744 26.85 225.626 26.9678C225.508 27.0856 225.442 27.2454 225.442 27.412C225.442 27.5786 225.508 27.7384 225.626 27.8562C225.744 27.974 225.904 28.0402 226.07 28.0402H229.461C229.628 28.0402 229.788 27.974 229.905 27.8562C230.023 27.7384 230.089 27.5786 230.089 27.412C230.089 27.2454 230.023 27.0856 229.905 26.9678C229.788 26.85 229.628 26.7838 229.461 26.7838H226.07Z" fill="#003056"/>
<path d="M230.331 36.3452H225.2L222.253 43.3141C222.169 43.5127 222.136 43.7289 222.156 43.9436C222.176 44.1583 222.249 44.3646 222.368 44.5443C222.487 44.724 222.649 44.8714 222.839 44.9734C223.029 45.0754 223.241 45.1288 223.457 45.1289H232.074C232.29 45.1288 232.502 45.0754 232.692 44.9734C232.882 44.8714 233.044 44.724 233.163 44.5443C233.282 44.3646 233.355 44.1583 233.375 43.9436C233.395 43.7289 233.361 43.5127 233.277 43.3141L230.331 36.3452Z" fill="#2087D6"/>
<path d="M230.341 36.345C230.341 36.4287 229.191 36.4985 227.772 36.4985C226.354 36.4985 225.205 36.4287 225.205 36.345C225.205 36.2612 226.354 36.1914 227.772 36.1914C229.191 36.1914 230.341 36.2598 230.341 36.345Z" fill="white"/>
<path d="M201.022 32.4025C206.983 26.4416 206.983 16.7771 201.022 10.8162C195.061 4.85528 185.397 4.85528 179.436 10.8162C173.475 16.7771 173.475 26.4416 179.436 32.4026C185.397 38.3635 195.061 38.3635 201.022 32.4025Z" fill="white"/>
<path d="M190.229 37.1406C187.157 37.1409 184.155 36.2303 181.601 34.5239C179.046 32.8176 177.056 30.3921 175.88 27.5543C174.704 24.7165 174.396 21.5938 174.996 18.5811C175.595 15.5684 177.074 12.801 179.246 10.6289C181.417 8.45675 184.185 6.97747 187.197 6.37811C190.21 5.77875 193.333 6.08623 196.171 7.26165C199.009 8.43708 201.434 10.4277 203.141 12.9817C204.847 15.5357 205.758 18.5384 205.758 21.6101C205.753 25.7273 204.116 29.6746 201.205 32.586C198.293 35.4975 194.346 37.1354 190.229 37.1406V37.1406ZM190.229 6.61147C187.263 6.61147 184.363 7.49113 181.896 9.1392C179.43 10.7873 177.507 13.1297 176.372 15.8704C175.237 18.611 174.94 21.6267 175.519 24.5362C176.097 27.4456 177.526 30.1181 179.624 32.2157C181.721 34.3133 184.394 35.7418 187.303 36.3205C190.213 36.8993 193.228 36.6022 195.969 35.467C198.71 34.3318 201.052 32.4094 202.7 29.9429C204.348 27.4764 205.228 24.5765 205.228 21.6101C205.223 17.6337 203.641 13.8215 200.829 11.0098C198.018 8.19802 194.206 6.61628 190.229 6.61147V6.61147Z" fill="#003056"/>
<path d="M196.658 24.3006C196.671 25.1628 196.512 26.0189 196.191 26.8192C195.87 27.6194 195.393 28.3478 194.787 28.962C194.182 29.5762 193.461 30.064 192.665 30.3969C191.87 30.7298 191.016 30.9012 190.154 30.9012C189.291 30.9012 188.438 30.7298 187.642 30.3969C186.847 30.064 186.126 29.5762 185.52 28.962C184.915 28.3478 184.438 27.6194 184.117 26.8192C183.795 26.0189 183.637 25.1628 183.649 24.3006C183.649 21.0395 189.006 13.1423 189.993 11.7142C190.013 11.6854 190.039 11.6615 190.07 11.6446C190.1 11.6277 190.135 11.6182 190.17 11.6169C190.205 11.6155 190.24 11.6223 190.272 11.6368C190.304 11.6513 190.332 11.673 190.354 11.7003C191.482 13.0907 196.658 21.0367 196.658 24.3006Z" fill="#F86D6D"/>
<path d="M185.41 23.4337C185.386 23.4338 185.363 23.4305 185.34 23.4239C185.306 23.4147 185.275 23.3989 185.247 23.3775C185.219 23.3561 185.196 23.3295 185.179 23.2991C185.162 23.2688 185.151 23.2353 185.147 23.2007C185.142 23.166 185.145 23.1309 185.154 23.0972C185.405 22.1731 185.955 20.9446 186.785 19.4467C186.819 19.385 186.876 19.3395 186.944 19.32C187.011 19.3005 187.084 19.3086 187.146 19.3427C187.207 19.3768 187.253 19.4339 187.272 19.5016C187.292 19.5693 187.284 19.6419 187.25 19.7036C186.44 21.1652 185.907 22.356 185.666 23.2368C185.651 23.2933 185.618 23.3431 185.571 23.3787C185.525 23.4142 185.468 23.4336 185.41 23.4337Z" fill="white"/>
<path d="M189.917 29.0707C188.784 29.0678 187.685 28.6753 186.806 27.9587C185.928 27.2422 185.322 26.2454 185.091 25.1353C185.08 25.0677 185.096 24.9985 185.135 24.9422C185.174 24.8858 185.233 24.8467 185.3 24.833C185.367 24.8193 185.437 24.8321 185.495 24.8686C185.553 24.9052 185.594 24.9628 185.611 25.0292C185.817 26.0194 186.358 26.9085 187.142 27.5474C187.926 28.1864 188.906 28.5364 189.917 28.5388C190.611 28.5411 191.295 28.3774 191.912 28.0613C191.975 28.0293 192.048 28.0235 192.115 28.0453C192.182 28.067 192.238 28.1145 192.27 28.1772C192.302 28.24 192.307 28.3129 192.286 28.3799C192.264 28.4469 192.216 28.5026 192.154 28.5346C191.462 28.8893 190.695 29.0731 189.917 29.0707V29.0707Z" fill="white"/>
<path d="M266.105 79.1806C272.177 73.1085 272.177 63.2636 266.105 57.1915C260.033 51.1194 250.188 51.1194 244.116 57.1915C238.044 63.2636 238.044 73.1085 244.116 79.1806C250.188 85.2527 260.033 85.2527 266.105 79.1806Z" fill="white"/>
<path d="M255.119 83.996C251.141 83.9991 247.308 82.5027 244.384 79.8052C241.46 77.1077 239.66 73.4072 239.343 69.4417C239.026 65.4761 240.216 61.5368 242.674 58.4092C245.133 55.2816 248.68 53.1956 252.608 52.5669C256.536 51.9383 260.557 52.8132 263.869 55.0174C267.18 57.2215 269.54 60.5929 270.476 64.4593C271.413 68.3257 270.858 72.403 268.922 75.8783C266.986 79.3536 263.811 81.9715 260.03 83.21C258.445 83.7289 256.787 83.9942 255.119 83.996V83.996ZM255.119 52.8903C251.368 52.8809 247.743 54.2492 244.934 56.7357C242.125 59.2221 240.326 62.6534 239.88 66.3784C239.433 70.1033 240.37 73.8625 242.512 76.9423C244.654 80.0222 247.853 82.2083 251.5 83.0856C255.148 83.9629 258.991 83.4705 262.299 81.7016C265.608 79.9328 268.151 77.0108 269.448 73.4903C270.744 69.9698 270.702 66.0958 269.331 62.6038C267.96 59.1119 265.354 56.245 262.008 54.5474C259.873 53.4663 257.513 52.9007 255.119 52.8959V52.8903Z" fill="#003056"/>
<path d="M248.027 74.304C248.398 74.7115 248.846 75.0419 249.345 75.2761C249.844 75.5103 250.384 75.6437 250.935 75.6688C251.485 75.6938 252.035 75.6099 252.553 75.422C253.071 75.234 253.547 74.9456 253.953 74.5734L261.513 67.673C261.92 67.3015 262.249 66.8534 262.483 66.3545C262.717 65.8556 262.85 65.3155 262.875 64.7651C262.9 64.2147 262.816 63.6647 262.629 63.1466C262.441 62.6285 262.154 62.1524 261.782 61.7456C261.411 61.3387 260.963 61.0089 260.464 60.7752C259.965 60.5414 259.425 60.4083 258.874 60.3832C258.324 60.3582 257.774 60.4419 257.256 60.6294C256.738 60.8169 256.262 61.1046 255.855 61.4761L248.297 68.3779C247.889 68.7489 247.559 69.1966 247.325 69.6955C247.091 70.1943 246.957 70.7345 246.932 71.285C246.907 71.8356 246.991 72.3856 247.179 72.9037C247.367 73.4217 247.655 73.8976 248.027 74.304Z" fill="white"/>
<path d="M251.131 75.9369C251.062 75.9369 250.991 75.9369 250.924 75.9369C250.338 75.9118 249.764 75.771 249.233 75.5225C248.702 75.2741 248.226 74.9229 247.832 74.4892L248.029 74.3091L247.832 74.4892C247.034 73.6157 246.616 72.4616 246.668 71.28C246.721 70.0985 247.24 68.9859 248.111 68.1863L255.679 61.2789C256.104 60.8469 256.614 60.5061 257.175 60.2773C257.737 60.0485 258.339 59.9365 258.946 59.9481C259.552 59.9597 260.15 60.0946 260.702 60.3446C261.255 60.5947 261.751 60.9547 262.16 61.4026C262.569 61.8505 262.882 62.377 263.081 62.95C263.28 63.523 263.36 64.1304 263.316 64.7354C263.273 65.3403 263.106 65.93 262.827 66.4686C262.549 67.0072 262.163 67.4833 261.694 67.868L254.135 74.7698C253.316 75.5226 252.243 75.9393 251.131 75.9369V75.9369ZM258.683 60.6465C257.701 60.643 256.755 61.0087 256.03 61.6712L248.473 68.573C247.703 69.2764 247.244 70.2569 247.197 71.2986C247.15 72.3403 247.519 73.3579 248.223 74.1277C248.926 74.8974 249.907 75.3562 250.948 75.403C251.99 75.4499 253.008 75.081 253.777 74.3776L261.337 67.4757C261.923 66.9417 262.333 66.2428 262.514 65.471C262.696 64.6993 262.639 63.8907 262.352 63.1517C262.065 62.4127 261.561 61.7779 260.906 61.3308C260.252 60.8836 259.477 60.6451 258.684 60.6465H258.683Z" fill="#003056"/>
<path d="M261.776 61.7397C262.147 62.1455 262.434 62.6205 262.621 63.1375C262.807 63.6545 262.89 64.2033 262.864 64.7524C262.838 65.3014 262.704 65.84 262.47 66.3371C262.235 66.8341 261.904 67.28 261.497 67.649L257.627 71.1837L252 65.0203L255.87 61.4871C256.274 61.1152 256.747 60.8268 257.263 60.6382C257.779 60.4496 258.327 60.3646 258.875 60.3881C259.424 60.4116 259.963 60.543 260.46 60.775C260.958 61.0069 261.405 61.3348 261.776 61.7397V61.7397Z" fill="#5CDAC8"/>
<path d="M259.663 67.942C259.609 67.9422 259.556 67.9261 259.512 67.8958C259.468 67.8655 259.434 67.8225 259.414 67.7724C259.395 67.7224 259.391 67.6676 259.404 67.6154C259.416 67.5632 259.444 67.5159 259.484 67.4799L260.383 66.6591C260.646 66.4211 260.859 66.1334 261.01 65.8126C261.161 65.4919 261.248 65.1444 261.264 64.7902C261.28 64.4359 261.226 64.082 261.105 63.7487C260.984 63.4153 260.799 63.1093 260.559 62.848C260.511 62.796 260.486 62.7272 260.489 62.6568C260.493 62.5864 260.524 62.5201 260.576 62.4725C260.628 62.4249 260.696 62.4 260.767 62.4031C260.837 62.4062 260.904 62.4372 260.951 62.4892C261.238 62.8021 261.46 63.1685 261.605 63.5674C261.749 63.9663 261.814 64.3899 261.794 64.8138C261.775 65.2377 261.672 65.6536 261.491 66.0376C261.311 66.4216 261.056 66.7661 260.742 67.0514L259.841 67.8722C259.793 67.9173 259.729 67.9423 259.663 67.942V67.942Z" fill="white"/>
<path d="M218.859 112.731C218.801 112.731 218.745 112.712 218.698 112.677L218.126 112.238C217.534 111.786 216.87 110.932 216.847 110.895C216.823 110.868 216.805 110.836 216.794 110.802C216.783 110.767 216.779 110.731 216.782 110.695C216.786 110.659 216.797 110.624 216.814 110.592C216.832 110.56 216.856 110.533 216.884 110.511C216.913 110.488 216.946 110.472 216.981 110.463C217.016 110.454 217.053 110.453 217.088 110.458C217.124 110.464 217.158 110.477 217.189 110.497C217.22 110.516 217.246 110.542 217.266 110.572C217.273 110.58 217.911 111.409 218.449 111.817L219.02 112.254C219.063 112.288 219.096 112.335 219.112 112.388C219.128 112.441 219.127 112.498 219.109 112.55C219.091 112.603 219.057 112.648 219.012 112.681C218.967 112.713 218.913 112.731 218.858 112.731H218.859Z" fill="#003056"/>
<path d="M219.833 111.637C219.791 111.637 219.749 111.627 219.712 111.608L219.072 111.275C218.411 110.931 217.614 110.203 217.58 110.173C217.554 110.149 217.534 110.121 217.519 110.089C217.504 110.058 217.496 110.023 217.494 109.989C217.493 109.954 217.498 109.919 217.51 109.886C217.522 109.854 217.54 109.823 217.564 109.798C217.588 109.772 217.616 109.751 217.648 109.737C217.679 109.722 217.713 109.714 217.748 109.712C217.783 109.711 217.818 109.716 217.85 109.728C217.883 109.74 217.913 109.758 217.939 109.782C217.947 109.782 218.718 110.492 219.318 110.805L219.956 111.136C220.009 111.163 220.051 111.207 220.076 111.262C220.101 111.316 220.107 111.377 220.092 111.435C220.078 111.493 220.045 111.544 219.998 111.581C219.951 111.618 219.893 111.637 219.833 111.637V111.637Z" fill="#003056"/>
<path d="M241.776 99.8884C243.528 100.116 253.051 102.042 253.86 112.771C253.868 112.892 253.842 113.013 253.785 113.12C253.727 113.227 253.641 113.316 253.536 113.377L248.029 116.547C247.927 116.605 247.844 116.69 247.787 116.792C247.73 116.894 247.701 117.009 247.705 117.126C247.766 119.089 248.082 128.005 248.914 131.751C249.563 134.671 250.014 137.055 250.23 138.243C250.248 138.342 250.243 138.443 250.215 138.539C250.188 138.635 250.138 138.723 250.07 138.796C250.002 138.87 249.919 138.926 249.825 138.962C249.732 138.997 249.631 139.01 249.532 139C248.184 138.876 245.51 138.581 243.748 138.037C241.534 137.356 240.557 136.056 235.206 138.276C234.651 138.505 234.052 138.61 233.451 138.581C232.851 138.552 232.264 138.391 231.733 138.109C228.801 136.56 222.702 133.808 218.496 135.197C218.388 135.235 218.271 135.243 218.159 135.22C218.046 135.197 217.942 135.145 217.857 135.068C217.771 134.992 217.708 134.894 217.673 134.784C217.638 134.675 217.633 134.558 217.659 134.446C218.273 131.692 219.557 126.382 219.694 123.576C219.864 120.069 217.848 108.391 218.787 107.171C219.68 106.01 223.614 103.339 226.272 102.609C227.249 102.341 228.27 102.316 229.09 102.114C231.161 101.605 236.869 99.2546 241.776 99.8884Z" fill="#003056"/>
<path d="M251.191 126.024C249.554 128.47 247.659 129.249 243.53 128.184C239.401 127.119 230.642 120.851 226.314 114.88C226.314 114.88 226.016 114.331 225.17 114.432C224.324 114.532 220.842 115.874 218.254 113.586C215.666 111.298 216.284 109.656 216.413 109.345C216.632 108.818 220.492 109.491 221.537 109.025C222.583 108.559 222.57 107.837 221.786 106.769C220.85 105.493 222.936 105.203 224.522 107.467C225.487 108.842 227.109 110.651 228.57 111.394C230.088 112.162 245.512 117.714 246.308 117.467C247.104 117.22 252.114 114.193 252.114 114.193C252.114 114.193 252.975 123.363 251.191 126.024Z" fill="white"/>
<path d="M246.616 128.914C245.704 128.914 244.661 128.752 243.462 128.442C239.23 127.35 230.386 120.95 226.099 115.04C226.092 115.032 226.086 115.022 226.081 115.012C226.072 115 225.842 114.626 225.2 114.701C225.017 114.73 224.837 114.767 224.658 114.814C223.262 115.138 220.365 115.814 218.077 113.79C215.565 111.574 215.907 109.881 216.168 109.248C216.341 108.83 217.118 108.841 218.721 108.905C219.775 108.945 220.97 108.993 221.428 108.789C221.796 108.624 222.004 108.436 222.064 108.211C222.143 107.915 221.976 107.485 221.572 106.931C221.225 106.461 221.258 106.131 221.344 105.937C221.404 105.818 221.495 105.717 221.608 105.645C221.721 105.574 221.851 105.535 221.985 105.532C222.683 105.464 223.809 105.991 224.739 107.319C225.669 108.647 227.252 110.431 228.697 111.162C230.493 112.071 245.343 117.305 246.254 117.213C246.864 117.023 250.597 114.806 251.978 113.97C252.016 113.946 252.06 113.933 252.105 113.931C252.15 113.929 252.195 113.939 252.235 113.959C252.275 113.98 252.31 114.01 252.335 114.047C252.36 114.084 252.376 114.127 252.38 114.172C252.416 114.55 253.218 123.467 251.403 126.178C250.156 128.048 248.725 128.914 246.616 128.914ZM226.534 114.732C230.764 120.56 239.447 126.858 243.595 127.927C247.875 129.031 249.54 128.012 250.97 125.876L251.191 126.024L250.97 125.876C252.468 123.643 252.03 116.463 251.89 114.64C250.664 115.375 247.097 117.5 246.394 117.711C246.358 117.72 246.321 117.725 246.284 117.723C244.543 117.723 229.345 112.072 228.457 111.623C226.921 110.848 225.263 108.971 224.305 107.611C223.446 106.388 222.472 106.005 222.036 106.049C221.928 106.059 221.851 106.093 221.828 106.141C221.806 106.188 221.828 106.368 222 106.604C222.519 107.314 222.698 107.861 222.578 108.334C222.475 108.725 222.169 109.032 221.644 109.261C221.072 109.516 219.866 109.469 218.7 109.423C217.925 109.392 216.873 109.35 216.645 109.472C216.432 110.019 216.226 111.426 218.428 113.381C220.512 115.223 223.23 114.589 224.537 114.285C224.791 114.226 224.992 114.179 225.138 114.162C226.064 114.059 226.463 114.617 226.534 114.732Z" fill="#003056"/>
<path d="M219.077 114.171L219.136 114.721L219.479 117.89C219.692 119.569 219.719 121.267 219.558 122.953C219.558 123.828 219.03 124.86 218.372 125.439C217.871 125.915 217.264 126.268 216.602 126.469C214.281 127.307 213.269 127.054 212.425 124.655C211.582 122.255 211.88 120.768 213.863 113.33C213.863 113.33 214.409 111.829 212.871 110.817C211.506 109.92 211.956 107.766 213.216 106.137C215.226 103.54 219.438 113.824 219.077 114.171Z" fill="white"/>
<path d="M214.681 127.174C214.36 127.181 214.043 127.113 213.753 126.977C213.095 126.666 212.608 125.978 212.174 124.744C211.311 122.287 211.573 120.884 213.606 113.263C213.631 113.189 214.061 111.92 212.725 111.043C212.48 110.881 212.271 110.669 212.113 110.42C211.956 110.172 211.852 109.893 211.809 109.601C211.633 108.549 212.089 107.161 213.006 105.972C213.409 105.45 213.867 105.413 214.181 105.468C216.275 105.857 218.771 111.881 219.221 113.386C219.36 113.842 219.387 114.073 219.349 114.212L219.743 117.856C219.959 119.55 219.986 121.263 219.822 122.963C219.822 123.876 219.299 124.971 218.548 125.634C218.032 126.129 217.41 126.498 216.729 126.714L216.7 126.725C215.852 127.025 215.209 127.174 214.681 127.174ZM213.965 105.983C213.856 105.989 213.75 106.021 213.656 106.076C213.563 106.132 213.484 106.209 213.426 106.301C212.599 107.371 212.181 108.602 212.333 109.512C212.363 109.731 212.439 109.942 212.557 110.129C212.675 110.317 212.832 110.477 213.017 110.598C214.71 111.715 214.118 113.404 214.113 113.421C212.123 120.882 211.862 122.253 212.675 124.567C213.059 125.657 213.461 126.253 213.98 126.499C214.526 126.757 215.259 126.676 216.511 126.219L216.54 126.21C217.16 126.02 217.727 125.689 218.196 125.241C218.835 124.682 219.296 123.715 219.292 122.954C219.291 122.943 219.291 122.932 219.292 122.921C219.449 121.257 219.422 119.581 219.214 117.923L218.812 114.2C218.806 114.152 218.813 114.104 218.833 114.06C218.84 113.21 216.124 106.77 214.245 106.039C214.156 106.004 214.061 105.985 213.965 105.983V105.983Z" fill="#003056"/>
<path d="M217.697 109.299C217.697 109.299 221.107 109.663 222.164 108.829C222.946 108.211 221.485 106.361 221.375 106.218C220.45 104.997 218.289 102.154 217.966 101.75C217.676 101.385 217.119 100.516 216.393 100.581C215.667 100.645 211.646 101.306 211.352 101.435C210.739 101.706 210.997 102.552 211.447 103.028C211.896 103.504 217.697 109.299 217.697 109.299Z" fill="#003056"/>
<path d="M246.119 137.675C246.119 137.675 249.412 165.063 249.819 170.342C250.225 175.62 250.835 194.117 249.819 203.262C249.161 209.187 248.702 213.148 248.465 215.205C248.411 215.666 248.191 216.091 247.844 216.4C247.498 216.709 247.05 216.88 246.586 216.88H239.874C239.709 216.88 239.55 216.816 239.433 216.7C239.316 216.584 239.249 216.426 239.247 216.262C239.216 213.795 238.997 204.396 237.424 196.356C235.595 187.003 233.562 172.377 232.546 166.482C232.207 164.515 231.922 162.327 231.68 160.187L230.921 162.421C230.16 164.654 227.262 179.693 226.454 185.594C225.715 190.955 224.472 212.456 224.252 216.306C224.243 216.466 224.173 216.616 224.057 216.725C223.941 216.835 223.787 216.896 223.627 216.895H215.032C214.877 216.896 214.728 216.839 214.613 216.736C214.498 216.633 214.425 216.491 214.408 216.337C214.008 212.351 211.653 188.277 212.026 177.478C212.432 165.691 217.716 151.67 218.727 147.81C219.738 143.95 221.1 134.157 221.1 134.157C221.1 134.157 241.718 134.449 246.119 137.675Z" fill="white"/>
<path d="M246.587 217.147H239.875C239.64 217.146 239.415 217.053 239.249 216.888C239.082 216.724 238.986 216.5 238.983 216.266C238.951 213.613 238.722 204.37 237.168 196.408C235.974 190.306 234.694 181.96 233.667 175.255C233.117 171.672 232.642 168.577 232.29 166.53C232.035 165.049 231.793 163.36 231.557 161.39L231.178 162.507C230.42 164.727 227.548 179.635 226.71 185.624C225.978 190.939 224.756 212.115 224.512 216.306C224.498 216.533 224.398 216.746 224.232 216.902C224.067 217.057 223.848 217.144 223.621 217.144H215.026C214.805 217.145 214.591 217.063 214.427 216.914C214.263 216.766 214.16 216.561 214.138 216.341C213.675 211.726 211.385 188.164 211.755 177.447C212.082 167.985 215.556 157.033 217.423 151.149C217.895 149.661 218.26 148.486 218.47 147.719C219.469 143.918 220.829 134.196 220.843 134.099C220.853 134.035 220.885 133.977 220.934 133.935C220.983 133.893 221.045 133.87 221.11 133.87C221.947 133.882 241.85 134.219 246.274 137.459C246.304 137.48 246.329 137.507 246.347 137.539C246.366 137.57 246.377 137.605 246.381 137.642C246.414 137.921 249.68 165.094 250.082 170.323C250.53 176.149 251.071 194.392 250.082 203.293C249.402 209.414 248.942 213.404 248.728 215.237C248.668 215.762 248.416 216.247 248.021 216.599C247.626 216.952 247.116 217.146 246.587 217.147ZM231.682 159.926H231.711C231.771 159.933 231.827 159.96 231.869 160.002C231.912 160.045 231.939 160.101 231.945 160.16C232.225 162.63 232.504 164.684 232.81 166.442C233.163 168.495 233.637 171.592 234.187 175.177C235.215 181.878 236.494 190.218 237.677 196.309C239.245 204.315 239.474 213.606 239.506 216.263C239.508 216.358 239.547 216.448 239.615 216.514C239.682 216.58 239.773 216.618 239.868 216.618H246.58C246.978 216.618 247.363 216.472 247.661 216.207C247.959 215.942 248.149 215.577 248.195 215.181C248.408 213.348 248.869 209.36 249.549 203.24C250.535 194.371 249.996 176.18 249.549 170.369C249.161 165.327 246.098 139.783 245.864 137.827C241.646 134.928 223.604 134.459 221.332 134.411C221.117 135.923 219.899 144.361 218.979 147.86C218.774 148.639 218.399 149.815 217.924 151.315C216.066 157.179 212.605 168.081 212.281 177.471C211.913 188.154 214.199 211.685 214.655 216.294C214.663 216.383 214.705 216.466 214.772 216.526C214.838 216.585 214.925 216.618 215.015 216.618H223.61C223.702 216.618 223.79 216.583 223.857 216.52C223.924 216.457 223.964 216.371 223.97 216.28C224.209 212.092 225.439 190.889 226.174 185.554C227.002 179.551 229.893 164.576 230.657 162.338L231.416 160.105C231.435 160.05 231.471 160.003 231.519 159.971C231.567 159.939 231.624 159.923 231.682 159.926Z" fill="#003056"/>
<path d="M231.667 160.384C231.601 160.384 231.538 160.36 231.49 160.317C231.441 160.273 231.41 160.213 231.403 160.148C231.263 158.925 231.124 157.62 231.004 156.27C230.886 155.061 230.431 153.91 229.69 152.947C228.95 151.985 227.954 151.25 226.816 150.826L225.332 150.276C225.266 150.251 225.212 150.201 225.183 150.137C225.153 150.073 225.15 150 225.175 149.934C225.199 149.868 225.249 149.815 225.313 149.785C225.377 149.756 225.45 149.753 225.516 149.777L227 150.327C228.231 150.787 229.308 151.583 230.109 152.625C230.909 153.667 231.401 154.913 231.529 156.221C231.656 157.568 231.79 158.874 231.926 160.089C231.931 160.124 231.928 160.159 231.918 160.193C231.908 160.227 231.892 160.258 231.871 160.286C231.849 160.313 231.822 160.336 231.791 160.353C231.76 160.37 231.727 160.38 231.692 160.384H231.667Z" fill="#003056"/>
<path d="M216.916 216.878H222.392C222.582 216.878 222.767 216.934 222.925 217.04C223.083 217.145 223.206 217.295 223.279 217.47C223.764 218.651 224.753 221.411 224.62 224.032C224.602 224.376 224.451 224.701 224.201 224.938C223.95 225.175 223.618 225.308 223.273 225.307H207.202C207.029 225.308 206.858 225.27 206.701 225.197C206.544 225.123 206.406 225.016 206.296 224.882C206.185 224.749 206.106 224.592 206.063 224.424C206.021 224.257 206.016 224.081 206.049 223.911C206.226 223.045 206.838 221.904 208.6 220.879C211.453 219.22 215.039 217.56 216.17 217.046C216.404 216.937 216.658 216.88 216.916 216.878V216.878Z" fill="white"/>
<path d="M223.274 225.571H207.203C206.989 225.571 206.778 225.524 206.584 225.432C206.391 225.34 206.221 225.206 206.086 225.039C205.952 224.876 205.856 224.685 205.805 224.479C205.754 224.274 205.75 224.06 205.793 223.853C205.967 222.999 206.575 221.748 208.47 220.642C211.352 218.967 215.011 217.275 216.063 216.798C216.332 216.674 216.624 216.611 216.919 216.612H222.395C222.638 216.611 222.875 216.683 223.077 216.818C223.278 216.952 223.435 217.144 223.528 217.368C223.983 218.474 225.026 221.339 224.889 224.043C224.868 224.456 224.688 224.846 224.387 225.13C224.086 225.415 223.688 225.573 223.274 225.571ZM216.916 217.144C216.696 217.144 216.479 217.191 216.28 217.283C215.233 217.759 211.595 219.44 208.741 221.104C207.375 221.9 206.537 222.887 206.318 223.962C206.291 224.092 206.293 224.226 206.325 224.355C206.357 224.484 206.418 224.604 206.502 224.706C206.588 224.811 206.695 224.896 206.818 224.954C206.94 225.012 207.074 225.041 207.21 225.041H223.281C223.558 225.042 223.825 224.936 224.026 224.745C224.227 224.555 224.348 224.294 224.362 224.018C224.502 221.422 223.482 218.646 223.04 217.572C222.987 217.446 222.898 217.338 222.784 217.262C222.67 217.186 222.537 217.146 222.4 217.145L216.916 217.144Z" fill="#003056"/>
<path d="M216.171 220.739C216.102 220.739 216.035 220.712 215.986 220.663L213.681 218.395C213.656 218.37 213.636 218.341 213.623 218.309C213.609 218.277 213.602 218.242 213.602 218.207C213.601 218.173 213.608 218.138 213.621 218.106C213.634 218.073 213.653 218.044 213.678 218.019C213.702 217.994 213.732 217.974 213.764 217.961C213.796 217.947 213.83 217.94 213.865 217.94C213.9 217.94 213.935 217.946 213.967 217.959C213.999 217.973 214.029 217.992 214.053 218.016L216.358 220.283C216.396 220.32 216.422 220.368 216.433 220.42C216.444 220.471 216.438 220.525 216.418 220.574C216.398 220.623 216.364 220.665 216.32 220.694C216.276 220.723 216.224 220.739 216.171 220.739V220.739Z" fill="#003056"/>
<path d="M214.685 221.668C214.65 221.668 214.616 221.662 214.584 221.648C214.552 221.635 214.524 221.616 214.499 221.591L212.194 219.324C212.144 219.275 212.116 219.208 212.115 219.137C212.115 219.067 212.142 218.999 212.192 218.949C212.241 218.899 212.308 218.87 212.379 218.87C212.449 218.869 212.517 218.897 212.567 218.946L214.872 221.213C214.91 221.25 214.936 221.297 214.946 221.349C214.957 221.401 214.952 221.455 214.932 221.504C214.912 221.553 214.878 221.595 214.834 221.624C214.79 221.653 214.738 221.669 214.685 221.668V221.668Z" fill="#003056"/>
<path d="M241.082 216.878H246.56C246.75 216.878 246.935 216.934 247.093 217.04C247.25 217.145 247.373 217.295 247.445 217.47C247.931 218.651 248.921 221.411 248.788 224.032C248.769 224.376 248.619 224.701 248.369 224.938C248.118 225.175 247.786 225.308 247.441 225.307H231.369C231.196 225.308 231.025 225.27 230.868 225.196C230.712 225.123 230.573 225.015 230.463 224.882C230.353 224.748 230.274 224.592 230.231 224.424C230.189 224.256 230.184 224.081 230.217 223.911C230.394 223.045 231.006 221.904 232.768 220.879C235.621 219.22 239.206 217.56 240.337 217.046C240.57 216.937 240.824 216.88 241.082 216.878V216.878Z" fill="white"/>
<path d="M247.442 225.571H231.369C231.155 225.571 230.943 225.524 230.75 225.432C230.557 225.34 230.387 225.206 230.252 225.039C230.118 224.876 230.022 224.685 229.971 224.479C229.92 224.274 229.916 224.06 229.959 223.853C230.133 222.999 230.739 221.748 232.635 220.642C235.516 218.967 239.175 217.275 240.228 216.798C240.496 216.674 240.788 216.611 241.084 216.612H246.562C246.804 216.611 247.041 216.683 247.242 216.817C247.444 216.952 247.601 217.144 247.692 217.368C248.147 218.474 249.192 221.34 249.055 224.043C249.033 224.456 248.854 224.845 248.554 225.129C248.254 225.414 247.856 225.572 247.442 225.571V225.571ZM241.084 217.144C240.864 217.144 240.648 217.191 240.448 217.283C239.401 217.759 235.762 219.44 232.903 221.104C231.536 221.9 230.699 222.887 230.478 223.962C230.452 224.092 230.455 224.226 230.487 224.354C230.519 224.483 230.579 224.603 230.662 224.706C230.748 224.811 230.856 224.895 230.978 224.953C231.101 225.011 231.235 225.041 231.37 225.041H247.442C247.72 225.042 247.986 224.936 248.188 224.745C248.389 224.555 248.51 224.294 248.524 224.018C248.656 221.422 247.643 218.646 247.202 217.572C247.149 217.446 247.06 217.338 246.946 217.262C246.832 217.186 246.698 217.146 246.562 217.145L241.084 217.144Z" fill="#003056"/>
<path d="M240.952 220.54C240.883 220.54 240.816 220.513 240.767 220.465L238.462 218.196C238.412 218.147 238.383 218.08 238.383 218.009C238.382 217.939 238.41 217.871 238.459 217.821C238.509 217.771 238.576 217.742 238.646 217.742C238.717 217.741 238.785 217.769 238.835 217.818L241.14 220.085C241.177 220.122 241.203 220.17 241.214 220.221C241.225 220.273 241.22 220.327 241.2 220.376C241.18 220.425 241.145 220.467 241.101 220.496C241.057 220.525 241.005 220.541 240.952 220.54V220.54Z" fill="#003056"/>
<path d="M239.466 221.47C239.432 221.47 239.398 221.463 239.366 221.45C239.334 221.437 239.305 221.418 239.281 221.393L236.972 219.129C236.922 219.08 236.893 219.012 236.893 218.942C236.892 218.871 236.92 218.804 236.969 218.753C237.018 218.703 237.086 218.675 237.156 218.674C237.227 218.674 237.294 218.701 237.344 218.751L239.649 221.018C239.687 221.055 239.713 221.102 239.724 221.154C239.735 221.206 239.73 221.26 239.709 221.309C239.689 221.357 239.655 221.399 239.611 221.429C239.567 221.458 239.515 221.473 239.462 221.473L239.466 221.47Z" fill="#003056"/>
<path d="M234.771 86.3484C234.64 86.3929 234.511 86.4456 234.387 86.5061C234.14 86.6888 233.941 86.9282 233.806 87.2041C233.527 87.7137 233.066 89.2856 232.465 89.1934C231.863 89.1013 231.123 86.6485 231.123 86.6485C231.123 86.6485 230.891 85.4466 229.042 85.9087C227.695 86.2542 226.403 86.7836 225.201 87.482C224.716 87.7782 224.148 87.9081 223.582 87.8519C223.023 87.8058 221.223 86.7421 221.546 85.0306C221.87 83.3191 223.445 82.1548 224.831 82.1618C226.276 82.1618 228.348 81.2362 228.718 81.045C229.088 80.8537 231.265 79.9673 232.452 80.6262C233.51 81.2167 234.406 82.152 234.884 83.7714C235.192 84.8058 234.955 85.7537 234.922 86.065C234.909 86.192 234.887 86.3093 234.771 86.3484Z" fill="#003056"/>
<path d="M224.966 87.6495C224.949 87.6589 224.935 87.673 224.926 87.6901C224.917 87.7072 224.913 87.7265 224.914 87.7459C224.97 88.5845 224.938 89.4266 224.819 90.2587C224.72 90.8394 224.347 92.2535 224.505 92.5453C224.663 92.8371 225.245 92.8594 225.513 92.8371C225.781 92.8147 226.231 92.9264 226.351 93.1498C226.471 93.3731 226.799 95.4602 226.933 95.9529C227.067 96.4457 227.516 97.0293 228.346 96.9399C228.452 96.9273 228.764 96.8589 229.002 96.8003C229.043 96.7906 229.086 96.7895 229.128 96.7971C229.17 96.8047 229.21 96.8209 229.245 96.8446C229.281 96.8683 229.311 96.899 229.334 96.9349C229.357 96.9707 229.372 97.011 229.379 97.053C229.778 99.5853 227.218 102.439 226.602 103.091C226.589 103.107 226.579 103.126 226.574 103.146C226.569 103.166 226.569 103.188 226.573 103.208C226.577 103.229 226.586 103.248 226.599 103.265C226.612 103.281 226.628 103.295 226.647 103.304C232.321 105.782 238.159 101.506 239.755 100.177C239.826 100.117 236.775 99.2908 235.316 95.7826C234.674 94.2401 234.889 91.8389 234.865 90.8855C234.862 90.7912 234.887 90.6983 234.937 90.6181C234.987 90.538 235.059 90.4741 235.144 90.4346C235.664 90.1385 236.056 89.6607 236.246 89.093C236.477 88.2554 236.385 85.603 234.185 86.6695C233.938 86.8517 233.738 87.0912 233.604 87.3675C233.325 87.8757 232.863 89.449 232.263 89.3568C231.663 89.2647 230.921 86.8119 230.921 86.8119C230.921 86.8119 230.689 85.61 228.838 86.0721C227.163 86.4797 225.313 87.4625 224.966 87.6495Z" fill="white"/>
<path d="M230.346 104.33C229.035 104.335 227.737 104.067 226.536 103.543C226.477 103.517 226.425 103.477 226.385 103.427C226.345 103.377 226.317 103.318 226.304 103.255C226.291 103.193 226.294 103.128 226.311 103.066C226.329 103.005 226.361 102.949 226.405 102.902C227.133 102.132 229.476 99.4331 229.112 97.0892C229.111 97.0833 229.109 97.0776 229.106 97.0726C229.102 97.0675 229.098 97.0632 229.093 97.0599C229.082 97.0553 229.07 97.0553 229.058 97.0599C228.832 97.1185 228.602 97.1651 228.37 97.1995C227.446 97.3 226.853 96.6788 226.673 96.0185C226.611 95.7923 226.514 95.2758 226.412 94.7272C226.31 94.1785 226.16 93.3856 226.106 93.2614C226.071 93.1902 225.772 93.0771 225.538 93.0966C225.373 93.1106 224.535 93.1539 224.273 92.6667C224.133 92.4056 224.209 91.8933 224.447 90.7695C224.494 90.5517 224.534 90.3507 224.559 90.2111C224.676 89.4019 224.707 88.5825 224.651 87.7667C224.647 87.6969 224.662 87.6272 224.696 87.5659C224.729 87.5046 224.78 87.4541 224.841 87.4205C225.2 87.2265 227.075 86.2339 228.77 85.8081C229.532 85.6183 230.146 85.6685 230.593 85.9477C230.878 86.1277 231.085 86.4082 231.173 86.7337C231.534 87.9272 232.06 89.0245 232.299 89.0845C232.558 89.125 232.969 88.1352 233.125 87.7625C233.216 87.5489 233.294 87.3633 233.367 87.2306C233.523 86.9143 233.755 86.6414 234.042 86.4363C235.029 85.9575 235.61 86.1767 235.928 86.4363C236.678 87.0617 236.668 88.5303 236.498 89.1529C236.319 89.7951 235.709 90.4526 235.25 90.6648C235.212 90.6827 235.18 90.7114 235.158 90.7474C235.136 90.7835 235.125 90.8251 235.127 90.8672C235.127 91.0613 235.127 91.3139 235.127 91.6085C235.105 92.7546 235.07 94.487 235.562 95.6695C236.357 97.5806 237.749 98.9836 239.697 99.8365C239.891 99.9217 239.998 99.9677 240.02 100.125C240.025 100.171 240.02 100.217 240.003 100.259C239.987 100.302 239.961 100.34 239.926 100.37C238.621 101.457 234.754 104.33 230.346 104.33ZM226.92 103.128C232.098 105.261 237.335 101.753 239.258 100.229C237.355 99.3706 235.855 97.8129 235.07 95.8789C234.535 94.5931 234.571 92.7937 234.594 91.6029C234.594 91.3237 234.605 91.0738 234.594 90.8854C234.59 90.7395 234.629 90.5957 234.706 90.4717C234.783 90.3477 234.894 90.2488 235.026 90.1874C235.477 89.9256 235.817 89.5095 235.984 89.0161C236.124 88.5108 236.111 87.2879 235.586 86.8495C235.307 86.6108 234.873 86.6262 234.312 86.8942C234.11 87.0535 233.946 87.2551 233.831 87.4847C233.771 87.5936 233.692 87.7765 233.612 87.9691C233.286 88.7453 232.884 89.7127 232.216 89.6094C231.518 89.5033 230.897 87.6648 230.661 86.8789C230.66 86.87 230.66 86.8611 230.661 86.8523C230.604 86.6585 230.477 86.4931 230.304 86.3889C229.988 86.1934 229.505 86.1697 228.908 86.3191C227.385 86.7002 225.697 87.5643 225.197 87.8337C225.247 88.6555 225.212 89.4803 225.092 90.2949C225.067 90.4456 225.024 90.6494 224.977 90.877C224.883 91.3167 224.697 92.2325 224.755 92.421C224.809 92.5201 225.173 92.5927 225.504 92.5606C225.835 92.5285 226.413 92.6597 226.593 93.0199C226.664 93.1595 226.755 93.6201 226.944 94.6225C227.04 95.1362 227.139 95.6667 227.195 95.8719C227.235 96.0198 227.474 96.7542 228.323 96.6648C228.356 96.6648 228.485 96.6411 228.947 96.5252C229.024 96.5076 229.103 96.5059 229.181 96.5204C229.259 96.5348 229.332 96.565 229.398 96.6091C229.463 96.6532 229.519 96.7103 229.561 96.7767C229.604 96.8432 229.632 96.9178 229.645 96.9957C230.023 99.4596 227.803 102.164 226.921 103.128H226.92Z" fill="#003056"/>
<path d="M229.155 97.0195C229.09 97.0202 229.028 96.9974 228.979 96.9555C228.93 96.9135 228.898 96.8553 228.889 96.7916C228.88 96.7279 228.895 96.663 228.93 96.6092C228.965 96.5553 229.019 96.5161 229.081 96.4988C230.037 96.199 230.95 95.7766 231.797 95.2424C231.856 95.2037 231.928 95.19 231.997 95.2042C232.066 95.2185 232.126 95.2596 232.165 95.3185C232.204 95.3773 232.218 95.4492 232.203 95.5181C232.189 95.5871 232.148 95.6476 232.089 95.6863C231.197 96.2482 230.236 96.6925 229.23 97.0083C229.206 97.0155 229.18 97.0192 229.155 97.0195V97.0195Z" fill="#003056"/>
</svg>
