<svg width="300" height="273" viewBox="0 0 300 273" fill="none" xmlns="http://www.w3.org/2000/svg">
<path d="M158.287 53.3382C151.759 51.0067 145.325 50.72 139.012 54.1103C136.725 55.3371 134.574 56.8252 133.086 58.8784C131.522 61.0419 130.733 60.7042 129.104 58.8886C118.261 46.8071 99.219 50.1685 93.1165 65.167C90.6649 71.1908 91.7473 77.2265 93.1877 83.2486C94.0173 90.3906 98.0179 95.9427 102.292 101.347C102.924 102.15 103.649 102.886 104.234 103.723C105.025 104.741 105.978 105.611 106.866 106.543C108.581 107.96 109.777 109.84 111.224 111.496C113.397 113.193 115.501 114.976 117.35 117.036C119.812 119.054 122.101 121.278 124.646 123.201C124.97 123.479 125.29 123.759 125.608 124.049C127.676 125.373 129.17 127.782 132.085 127.511C143.293 119.196 153.686 110.006 161.931 98.6644C166.919 91.8024 170.143 84.1343 171.223 75.5873C172.269 67.3304 167.82 58.0063 160.61 53.9762C159.882 53.5758 159.149 53.233 158.287 53.3382Z" fill="#5CDAC8"/>
<path d="M187.215 192.904C186.002 192.261 185.152 191.528 185.322 189.878C186.209 181.177 184.058 172.608 184.087 163.932C184.097 160.708 182.841 159.715 179.53 159.715C159.564 159.715 139.597 159.775 119.64 159.661C116.643 159.644 115.804 160.604 115.823 163.531C115.935 181.145 115.874 198.76 115.876 216.373C115.876 220.182 116.079 220.513 119.871 219.967C133.527 217.999 146.823 214.707 159.571 209.267C168.074 205.642 176.011 201.083 183.547 195.772C184.19 195.318 184.904 194.964 185.775 194.453C186.509 200.927 185.515 207.088 185.381 213.263C186.816 213.115 186.754 211.892 186.908 210.958C187.88 204.96 187.731 198.928 187.215 192.904Z" fill="#D6E3FE"/>
<path d="M158.286 53.3381C171.18 60.9518 172.237 72.0662 168.942 82.9005C166.727 90.1834 163.035 96.5907 158.155 102.377C151.121 110.719 143.093 118.01 134.539 124.748C133.591 125.497 132.744 126.377 131.852 127.195C130.902 128.171 130.891 129.423 130.883 130.65C130.842 136.387 130.793 142.126 130.895 147.861C130.973 152.23 132.043 153.25 136.449 153.313C140.75 153.374 145.055 153.411 149.354 153.293C152.788 153.196 153.408 152.534 153.712 149.123C154.092 144.866 154.209 144.747 158.515 144.727C162.821 144.707 167.12 144.742 171.421 144.71C172.846 144.698 174.317 144.8 175.505 143.744C175.437 141.618 175.271 139.502 175.097 137.38C174.863 134.519 176.285 131.729 176.964 128.924C178.273 123.552 180.231 118.336 181.95 113.065C182.342 111.884 183.144 110.882 184.212 110.242C186.99 108.545 189.853 106.991 192.645 105.321C194.002 104.505 194.681 104.72 194.681 106.385C194.841 106.414 195.006 106.395 195.155 106.33C195.305 106.265 195.431 106.156 195.517 106.018C196.498 103.159 196.067 100.638 193.863 98.4403C192.853 97.4197 192.055 96.2084 191.517 94.8769C189.284 92.3316 189.971 89.0771 189.503 86.1161C189.296 84.8163 190.448 84.4633 191.476 84.2156C193.921 83.6268 195.582 82.1098 196.641 79.8751C194.652 79.4916 195.214 77.8999 195.21 76.6782C195.18 65.3093 195.202 53.9235 195.187 42.5461C195.187 39.3849 194.423 38.6824 191.322 39.2016C179.785 41.136 169.076 45.1626 159.545 52.0671C159.073 52.4099 158.705 52.9087 158.286 53.3381Z" fill="#E9F0FE"/>
<path d="M255.466 122.799C256.436 122.01 256.079 120.908 256.08 119.931C256.104 109.899 256.428 99.8521 255.977 89.839C255.665 82.8989 256.621 76.008 256.095 69.095C255.983 67.6052 255.983 66.2834 258.053 66.0085C259.071 65.8744 259.74 64.9072 259.75 63.7262C259.758 62.7777 259.254 62.0158 258.41 61.8936C254.156 61.276 251.873 57.7245 248.785 55.4456C237.791 47.3007 225.796 41.5196 212.237 39.2628C209.638 38.8284 206.964 38.8572 204.345 38.5195C201.78 38.1802 201.291 39.368 201.308 41.6757C201.408 52.4252 201.189 63.1781 201.445 73.9158C201.528 77.43 200.767 79.4764 197.048 79.7207C199.284 81.124 201.937 80.9085 204.369 81.5703C209.097 82.8531 211.443 88.4272 208.802 92.5506C208.298 93.3213 207.898 94.1555 207.614 95.0314C207.317 96.4364 206.947 97.8142 205.938 98.907C204.386 100.587 203.931 102.626 203.968 104.832C204.044 105.143 204.229 105.415 204.489 105.601C205.412 104.099 206.316 103.651 207.607 105.348C208.807 106.926 210.525 107.617 212.465 108.253C216.789 109.673 220.269 112.326 221.48 117.055C222.149 119.678 223.754 121.828 224.885 124.212C229.235 133.375 228.155 141.914 222.379 150.075C220.513 152.707 219.222 155.853 215.668 156.766C215.199 156.885 214.953 157.251 215.048 157.671C215.262 158.624 216.095 158.49 216.784 158.492C221.799 158.505 226.813 158.492 231.828 158.504C233.964 158.504 236.127 158.286 238.176 159.157C238.419 158.972 238.597 158.716 238.685 158.424C238.855 156.688 237.883 155.2 237.627 153.561C237.088 152.417 236.956 151.123 237.253 149.894C237.498 142.428 237.335 134.973 237.352 127.516C237.352 126.287 237.302 125.05 236.405 124.056H226.492L226.444 122.817H237.014C237.771 120.932 237.309 118.969 237.326 117.048C237.386 109.992 237.362 102.935 237.342 95.8781C237.342 93.942 237.72 92.4997 240.015 92.2027C241.783 91.9754 242.581 90.6875 242.771 88.9872C242.86 88.1727 242.866 87.3548 242.881 86.537C242.967 81.9555 243.02 81.9063 247.533 81.9368C251.739 81.9656 251.995 82.1998 252.046 86.4911C252.073 88.7632 252.105 90.9403 253.846 92.7814C254.796 93.7876 254.504 95.3063 254.509 96.6247C254.528 103.886 254.501 111.148 254.528 118.409C254.548 119.921 254.353 121.506 255.466 122.799Z" fill="#E9F0FE"/>
<path d="M76.4628 218.781C78.6344 217.109 80.8739 218.597 82.9098 218.937C90.8837 220.264 98.9051 220.612 106.962 220.659C108.818 220.671 109.716 220.274 109.899 218.202C110.025 216.799 110.301 215.392 110.301 213.96C110.301 197.883 110.301 181.806 110.301 165.729C110.301 165.22 110.318 164.711 110.301 164.202C110.131 160.005 109.84 159.727 105.72 159.727C95.4815 159.727 85.2426 159.805 75.0123 159.673C72.2977 159.637 71.877 160.754 72.3418 163.01C72.8067 165.267 74.1436 167.381 73.336 169.815C72.4674 171.15 73.2444 172.387 73.616 173.617C74.7934 177.53 76.1371 181.392 77.0363 185.387C77.3332 186.707 77.5927 188.017 76.4459 189.12C75.1972 190.118 74.9715 191.521 74.958 192.972C74.8884 200.502 74.8765 208.035 74.9766 215.567C74.9834 216.756 74.6577 218.321 76.4628 218.781Z" fill="#D6E3FE"/>
<path d="M287.461 157.273C288.437 148.01 288.016 138.716 288.023 129.435C288.023 128.011 288.723 127.264 289.587 126.353C292.98 122.79 292.508 119.554 288.185 117.377C287.149 116.854 286.998 116.303 286.81 115.353C286.068 111.679 285.198 108.031 284.375 104.372C283.477 103.553 282.366 103.4 281.224 103.388C275.897 103.335 270.572 103.349 265.246 103.388C262.871 103.402 261.719 104.25 261.899 106.901C262.257 112.195 261.547 117.521 262.253 122.815H283.352C283.352 123.121 283.364 123.424 283.369 123.73C281.893 124.336 280.288 124.013 278.749 124.029C274.053 124.074 269.355 124.124 264.668 124.012C262.42 123.957 261.587 124.775 261.614 127.039C261.712 135.716 261.682 144.394 261.698 153.072C263.616 153.089 264.525 151.3 266.077 150.618C268.198 149.685 270.229 148.553 272.524 148.1C273.008 148.341 274.304 146.87 273.963 148.806C271.374 154.175 266.759 156.968 261.356 158.766C261.161 158.902 261.006 159.087 260.907 159.302C260.808 159.518 260.769 159.756 260.793 159.992C261.03 164.264 260.26 168.564 261.157 172.816C262.358 174.157 263.001 172.816 263.488 172.158C269.014 164.621 276.691 160.64 285.58 158.61C286.385 158.419 287.169 158.191 287.461 157.273Z" fill="#D5E3FE"/>
<path d="M60.5039 90.7945C59.486 89.7509 58.1813 90.2379 57.009 90.2278C55.8366 90.2176 55.0138 89.9495 54.7932 88.6836C54.2843 85.6887 52.7047 87.0377 51.5053 88.0049C45.3229 93.0038 39.2899 98.169 34.2816 104.41C33.4808 105.404 33.4333 106.429 33.4333 107.554C33.4333 111.542 33.4927 115.529 33.4096 119.517C33.3672 121.535 33.4096 123.299 36.5313 123.214C32.6495 123.798 33.5097 126.484 33.4282 128.734C33.3264 131.538 33.7048 134.368 33.0312 137.94C31.3347 134.361 31.0581 131.179 30.3744 128.123C29.6211 124.755 28.9883 121.36 28.2011 118C28.0637 117.411 28.1366 116.356 27.1594 116.363C26.2721 116.363 26.2025 117.221 26.0362 117.93C25.7088 119.315 25.3067 120.681 24.9437 122.057C24.7604 122.753 24.6145 123.754 23.8714 123.766C19.9065 123.785 19.8539 127.16 18.6833 129.588C19.7403 130.674 21.1416 130.496 22.4412 130.53C24.2107 130.577 25.0658 131.356 25.076 133.15C25.1184 140.427 25.1031 147.705 25.076 154.983C25.076 156.822 24.1514 157.528 22.4073 157.528C20.4613 157.528 18.5052 157.496 16.566 157.562C15.3512 157.605 14.0771 157.493 13.1185 158.504C16.2775 159.934 19.7114 158.504 22.9264 159.72C20.1848 159.72 17.4397 159.753 14.698 159.71C12.9031 159.681 12.3228 160.231 12.3652 162.256C12.5807 173.916 17.5211 183.51 24.9199 192.1C25.3763 192.631 25.8904 193.457 26.6165 193.252C27.6684 192.96 27.2527 191.876 27.2578 191.124C27.2917 185.933 27.2748 180.743 27.6293 175.457C30.6289 178.522 30.6934 183.079 33.4198 186.188C34.6871 184.815 34.2053 183.106 34.268 181.523C34.3495 179.692 34.2511 177.855 34.3105 176.022C34.3393 175.116 34.2477 174.071 35.1231 173.518C36.326 172.759 36.8892 174.101 37.7409 174.507C38.3822 173.986 38.3483 173.256 38.3347 172.542C38.177 164.784 39.2865 157.155 40.8236 149.587C42.2131 142.74 42.0774 135.829 42.0112 128.912C40.9118 128.088 39.8498 129.041 38.4298 128.958C38.8895 127.202 38.4908 125.505 38.0819 123.785C37.6442 121.947 37.7732 120.023 38.9133 118.47C40.4877 116.325 41.6278 113.863 43.433 111.912C46.6005 108.477 48.2122 104.329 49.3031 99.9235C50.4737 95.1876 53.6345 92.2674 58.5596 91.57C59.2874 91.4664 60.0204 91.4444 60.5039 90.7945Z" fill="#E8EFFE"/>
<path d="M117.721 116.631C115.918 114.582 113.931 112.705 111.783 111.021C110.418 110.488 109.809 111.284 109.663 112.422C109.184 116.142 108.855 119.931 108.568 123.605C108.348 126.433 109.464 129.742 109.451 132.905C109.432 137.376 109.388 137.451 105.209 138.664C102.751 139.377 100.309 140.142 97.8596 140.885C95.2825 141.666 94.7565 141.32 94.597 138.612C94.463 136.345 93.6147 134.709 91.455 133.828C89.0458 132.846 88.1076 130.614 89.7211 128.604C92.0624 125.69 92.4203 123.26 90.4235 119.812C88.7795 116.975 88.9339 113.278 88.1619 109.989C87.5528 107.396 87.049 104.782 86.4179 102.196C85.897 100.063 86.7572 99.2074 88.8982 99.0768C93.479 98.7968 94.0474 99.2753 94.0762 103.865C94.0915 106.117 93.9965 108.372 94.1508 110.62C94.3205 113.035 95.52 114.387 98.0411 114.43C100.089 114.464 102.137 114.513 104.183 114.43C107.423 114.303 108.025 113.636 108.11 110.312C108.148 108.864 108.09 107.439 107.262 106.168C106.753 105.029 105.849 104.256 104.87 103.548C103.465 104.917 103.998 106.602 104.215 108.168C104.554 110.683 102.924 111.065 101.083 111.292C99.0472 111.544 98.3533 110.41 98.3092 108.577C98.2447 105.822 98.4075 103.063 98.2192 100.312C97.9885 96.9506 96.9044 95.8765 93.5333 95.4591C93.0243 95.3963 92.5153 95.303 92.0149 95.2894C89.3784 95.1723 88.2009 93.9201 88.4079 91.1898C88.5878 88.8142 88.4928 86.3962 85.7189 85.2882C83.9578 84.4398 83.325 82.2678 81.4112 81.5958C80.4815 79.2203 80.6037 76.675 80.1829 74.2146C77.862 73.059 77.0527 74.6676 76.4996 76.3746C76.1145 77.5624 75.7498 78.5042 74.5452 79.2203C71.2895 81.1496 71.3794 83.123 74.6453 85.2865H80.7801C78.8138 92.9036 82.3494 99.8692 83.4777 107.103C84.2615 112.131 85.5712 117.092 86.7232 122.066C87.6445 126.041 84.1546 130.394 80.0557 130.606C78.6204 130.681 76.2163 130.012 76.0721 131.712C75.8923 133.811 78.4321 133.29 79.8962 133.657C80.685 133.862 81.4491 134.153 82.1747 134.524C83.5235 135.187 84.0223 133.608 85.0436 133.411C88.2417 137.271 87.6496 138.45 82.0034 139.508C82.2069 141.433 80.8904 141.293 79.6417 141.245C77.6205 144.025 74.893 145.466 71.4591 145.57C68.2882 149.441 70.509 153.513 71.0435 157.509C71.1911 158.601 72.1971 158.494 73.003 158.494C84.7569 158.5 96.5113 158.506 108.266 158.511C109.89 158.511 110.16 158.049 109.999 156.305C109.632 152.354 109.768 148.355 109.732 144.374C109.732 143.539 109.961 142.616 110.708 142.248C111.656 141.78 112.097 142.827 112.677 143.325C113.756 144.254 114.793 145.231 115.847 146.19C116.785 145.587 117.217 144.355 118.392 144.067C120.891 143.454 121.227 141.691 120.741 139.584C119.976 136.251 119.815 132.797 117.518 129.854C115.68 127.491 117.178 125.045 120.202 124.908C121.32 124.857 122.453 124.996 123.554 124.813C124.457 124.664 125.744 124.923 125.734 123.35L125.085 122.799C123.578 122.12 121.993 121.971 120.36 121.923C117.457 121.842 117.253 121.54 117.815 118.65C117.947 117.963 118.217 117.286 117.721 116.631Z" fill="#E8EFFE"/>
<path d="M125.751 123.362C123.815 124.762 121.608 123.701 119.559 124.051C118.475 124.232 116.939 123.391 116.522 125.203C116.105 127.015 114.961 129.024 116.717 130.658C119.99 133.699 119.192 137.924 120.11 141.64C120.353 142.614 119.601 143.15 118.627 143.093C116.361 142.957 115.891 144.374 115.848 146.2C115.848 149.266 115.979 152.335 115.835 155.393C115.718 157.855 116.744 158.617 119.089 158.541C123.478 158.414 127.875 158.605 132.263 158.487C147.264 158.083 162.24 159.259 177.236 159.108C183.321 159.048 183.321 159.108 181.698 153.461C181.845 152.856 181.56 152.522 181.009 152.354C180.062 153.595 179.409 153.233 179.034 151.942C178.186 149.057 176.767 146.437 175.51 143.738C169.063 143.738 162.616 143.829 156.181 143.685C153.575 143.626 152.788 144.727 152.735 147.123C152.634 152.346 152.566 152.344 147.26 152.344C143.272 152.344 139.287 152.222 135.296 152.388C132.711 152.495 131.82 151.399 131.835 148.977C131.883 141.715 131.856 134.452 131.857 127.188C129.246 126.83 127.896 124.456 125.751 123.362Z" fill="#D6E3FE"/>
<path d="M282.775 71.9734C291.928 72.0124 299.104 64.7686 299.162 55.7108C299.216 46.9941 292.036 39.0953 282.598 39.3176C273.284 39.5382 266.325 46.3561 266.211 55.5988C266.102 64.9909 273.879 72.2534 282.775 71.9734Z" fill="#E8EFFE"/>
<path d="M63.6568 161.736C63.6313 160.209 63.5957 158.665 63.5821 157.129C63.5482 153.3 62.2367 151.313 58.45 150.81C54.0219 150.223 50.3268 148.251 46.8013 145.798C44.7467 144.369 44.0036 144.537 43.7576 147.245C43.4658 150.469 42.5598 153.632 42.0373 156.841C41.5147 160.05 41.1381 163.253 40.6987 166.464C41.1517 166.518 41.4045 166.633 41.5113 166.549C42.721 165.62 43.8475 164.419 45.5831 165.344C46.8708 166.023 47.1966 167.295 46.8946 168.498C46.3856 170.489 44.8723 172.269 43.0484 172.45C40.1337 172.742 40.1948 174.341 40.1643 176.423C40.1371 178.864 40.5409 181.333 39.8775 183.755C39.4822 185.195 40.6427 185.53 41.5453 185.879C42.5632 186.276 43.4777 186.61 43.2707 187.959C43.4909 188.257 43.791 188.486 44.1359 188.619C46.6604 189.149 49.2257 189.105 51.7315 188.713C54.2917 188.314 56.6804 188.049 59.1523 189.303C61.1594 190.321 61.8974 188.686 62.2062 187.086C62.856 183.782 62.9052 180.402 63.1291 177.061C63.3751 173.395 63.8078 169.764 64.2319 166.124C64.4236 164.621 64.7697 163.075 63.6568 161.736Z" fill="#FEFEFE"/>
<path d="M82.6357 134.456C82.4474 132.864 81.124 133.216 80.1197 132.858C78.9083 132.427 77.4187 133.236 75.9359 131.425C78.0261 131.425 79.6684 131.536 81.275 131.4C83.506 131.212 84.5698 130.137 86.0814 128.045C89.4288 123.413 86.777 119.515 86.1239 115.504C84.8531 107.712 82.9241 100.025 81.1715 92.3164C80.7491 90.4499 80.5557 88.714 81.482 86.9849C81.9401 86.1365 82.0894 85.4153 80.783 85.2881C80.2859 85.9668 79.5479 85.8684 78.8421 85.9007C74.655 86.0924 74.655 86.0958 74.6499 90.1546C74.6499 91.8854 74.6669 93.6162 74.6499 95.347C74.616 98.2469 73.537 98.9426 70.9174 97.7599C70.4594 97.5546 70.0369 97.2746 69.5975 97.0286C69.1343 98.5303 70.4882 100.186 69.2039 101.62C68.9647 102.406 68.9884 103.215 68.9307 104.02C68.6491 107.922 66.1144 110.447 62.1156 110.722C60.7991 110.814 59.3315 110.495 59.4011 112.56C59.9643 114.781 61.3012 116.756 61.5744 119.074C61.6304 119.486 61.1078 118.943 61.5116 119.016C61.6694 119.045 61.6813 118.952 61.5676 118.73C60.6888 117.021 59.3519 115.594 58.563 113.827C57.5942 112.175 57.338 109.904 54.8746 109.536C53.5004 109.957 52.4689 110.61 53.0084 112.317C54.9951 112.582 55.862 114.094 56.6136 115.66C57.8521 118.239 58.9888 120.859 62.1648 121.658C63.1013 121.893 62.896 122.736 62.9079 123.426C62.119 124.546 62.5872 125.576 63.1302 126.603C64.747 127.294 63.4372 129.788 65.3849 130.275C65.6716 127.26 64.7928 124.441 63.914 121.621C63.5441 120.433 63.0793 119.03 64.3653 118.3C65.6801 117.555 66.2179 119.149 66.9983 119.814C67.8687 120.557 68.5253 121.611 68.4438 122.749C68.2742 125.05 69.0597 127.078 69.7163 129.208C71.0582 133.57 72.0626 134.907 76.5501 134.977C79.1781 135.023 79.139 137.446 80.744 138.201C81.6873 137.122 82.8885 136.156 82.6357 134.456Z" fill="#E9F0FE"/>
<path d="M255.465 122.798C255.465 113.382 255.468 103.966 255.473 94.551C255.473 93.1715 255.838 91.7274 253.765 91.2048C252.53 90.8943 253.054 89.4469 253.037 88.4899C252.9 80.9575 252.91 81.1052 245.596 80.9049C242.595 80.8218 241.492 81.7534 241.924 84.6838C242.057 85.5848 241.865 86.53 241.96 87.4412C242.24 90.1341 241.609 91.9073 238.367 91.4576C237.179 91.288 236.409 91.7597 236.414 93.1409C236.443 102.557 236.441 111.976 236.487 121.385C236.487 121.862 236.838 122.335 237.026 122.809L255.465 122.798Z" fill="#D5E3FE"/>
<path d="M236.419 124.053V151.131C237.019 152.032 237.888 152.585 238.858 153.011C246.016 155.896 251.328 160.669 254.375 167.874C255.454 170.419 255.563 170.378 257.281 169.475C257.979 164.575 257.426 159.651 257.621 154.742C257.667 153.554 257.293 152.242 258.406 151.285C256.15 150.425 255.995 148.638 256.031 146.534C256.141 140.286 256.007 134.033 256.101 127.786C256.14 125.115 255.332 123.883 252.39 123.991C247.078 124.188 241.746 124.047 236.419 124.053Z" fill="#D4E2FE"/>
<path d="M237.028 159.73C230.786 159.73 224.543 159.808 218.303 159.684C215.858 159.637 214.767 160.311 214.835 162.961C214.94 167.106 214.797 167.11 210.544 167.113C208.52 167.113 206.496 167.113 204.47 167.303C207.005 168.186 209.664 167.329 212.239 168.121C213.817 168.608 214.663 169.046 213.98 170.799C213.809 171.279 213.707 171.78 213.674 172.289C212.848 181.452 212.862 181.411 221.533 183.997C226.512 185.483 231.324 187.513 236.419 188.631C237.267 187.866 237.331 186.817 237.345 185.797C237.448 177.6 237.353 169.401 237.404 161.203C237.399 160.689 237.27 160.184 237.028 159.73V159.73Z" fill="#E9F0FE"/>
<path d="M248.093 207.714C248.115 208.891 248.138 210.069 248.163 211.247C248.798 214.79 248.163 218.373 248.528 221.937C248.898 225.454 250.24 226.89 253.735 227.046C256.49 227.17 259.262 227.27 262.007 226.961C265.041 226.622 266.16 225.385 266.298 222.559C266.342 219.254 265.875 215.942 266.557 212.643C267.365 209.804 266.338 206.843 267.129 204.003C267.796 202.749 267.424 201.398 267.441 200.1C267.494 195.972 267.272 195.72 263.254 195.668C259.17 195.614 255.086 195.617 251.001 195.68C248.652 195.715 247.418 196.552 247.754 199.213C248.112 202.012 247.452 204.894 248.093 207.714Z" fill="#3F3D56"/>
<path d="M262.253 122.809C262.253 117.518 262.32 112.225 262.206 106.936C262.163 104.926 262.859 104.293 264.842 104.323C271.352 104.425 277.864 104.367 284.375 104.372C283.311 99.6687 281.905 95.0177 279.424 90.9113C274.981 83.5538 270.504 76.1725 264.427 69.9705C263.833 69.3664 263.341 68.1498 262.294 68.5893C261.293 69.0101 261.578 70.2165 261.651 71.0938C262.05 75.9383 260.779 80.8541 262.416 85.6867C262.756 86.6624 261.597 87.8926 261.604 89.1941C261.651 99.7519 261.627 110.31 261.627 120.867C261.627 121.573 261.57 122.311 262.253 122.809Z" fill="#ECF2FE"/>
<path d="M69.6642 101.239C72.6535 99.7861 69.5929 98.4354 69.5946 97.0321C67.9913 92.8714 64.4608 91.5207 60.5027 90.7945C53.2583 90.7809 50.0602 93.5094 48.3161 100.696C47.3813 104.556 45.8815 108.174 43.0567 111.216C41.0717 113.352 39.5058 115.918 37.9857 118.433C36.8269 120.35 36.8846 122.602 37.5768 124.674C38.2012 126.54 38.3674 128.181 36.5487 129.595C38.7865 130.659 40.3286 129.22 42.0371 128.899C44.0917 126.06 45.9562 123.223 49.7107 122.033C51.8705 121.355 52.8019 118.955 52.6933 116.464C52.6322 115.078 52.1114 113.631 53.0089 112.311C53.1785 111.05 54.1965 110.469 55.0736 109.792C56.7702 109.231 56.9297 107.777 56.9687 106.336C57.0264 104.179 57.6948 102.773 60.221 103.153C60.7181 103.229 61.3255 103.202 61.7004 102.903C64.0807 101.006 66.8495 101.037 69.6642 101.239Z" fill="#56224B"/>
<path d="M63.6566 161.736C62.8728 170.56 62.0913 179.378 61.312 188.19C61.2322 189.101 60.7165 189.756 60.0192 189.056C56.9874 186.001 53.5315 187.849 50.2164 187.988C48.1805 188.071 46.1446 188.092 44.1087 188.139C43.0246 188.818 42.5376 189.666 43.2807 190.897C45.9579 192.843 49.0203 191.73 51.9112 191.988C57.4743 192.312 62.9492 191.536 68.4138 190.644C71.41 190.04 74.5012 190.208 77.4922 189.554C79.0191 187.052 77.8315 184.634 77.1529 182.258C75.9789 178.08 74.608 173.957 73.322 169.812C72.7384 168.68 72.1542 167.549 71.5695 166.418C70.3072 163.284 69.9815 159.904 69.0093 156.695L69.0348 156.736C68.6479 154.66 68.8329 152.475 67.8234 150.52C65.3956 149.47 64.4014 150.098 64.3811 152.906C64.3624 155.841 64.4896 158.843 63.6566 161.736Z" fill="#1E2366"/>
<path d="M23.2851 73.2004C16.5921 72.2196 11.918 79.4669 12.0011 84.3351C12.1097 90.4319 17.4777 96.0434 23.6142 95.9059C29.3639 95.7685 35.0695 91.2226 34.8286 84.2197C34.5978 77.5104 30.2784 73.197 23.2851 73.2004Z" fill="#E8EFFE"/>
<path d="M204.725 261.619C204.725 254.918 199.954 249.926 193.565 250.001C186.495 250.084 182.028 256.07 182.001 261.539C181.979 267.913 186.967 272.756 193.276 272.762C200.274 272.764 204.728 268.432 204.725 261.619Z" fill="#E8EFFE"/>
<path d="M237.029 159.73C236.35 160.83 236.406 162.055 236.408 163.28C236.418 171.731 236.422 180.182 236.42 188.633C239.728 190.111 243.435 189.91 246.811 191.105C248.493 189.62 246.62 187.679 247.473 186.092C247.858 185.414 248.452 185.01 249.159 184.735C250.885 184.396 252.622 184.598 254.349 184.552C256.484 184.496 257.573 183.452 257.547 181.343C257.503 178.368 258.396 175.102 255.181 173.028C248.564 170.458 243.355 166.265 240.032 159.88C239.676 159.201 239.353 158.33 238.281 158.452C238.249 158.688 238.216 158.926 238.183 159.162C237.955 159.662 237.497 159.703 237.029 159.73Z" fill="#D5E3FE"/>
<path d="M44.6114 225.987C44.7811 228.247 43.6868 229.201 41.4863 229.578C37.954 230.183 34.4438 230.044 30.9132 229.864C28.9724 229.766 27.196 229.715 27.2469 232.579C27.2961 235.337 28.6738 236.212 31.1355 236.007C35.1428 235.668 39.1094 235.895 43.1965 235.133C46.8424 234.454 51.0787 235.116 55.0216 235.547C61.3345 236.238 67.6085 236.094 73.9316 235.596C79.2029 235.181 84.5047 235.215 89.7302 234.202C91.6202 233.837 94.5841 233.862 94.4382 231.894C94.2872 229.878 91.3131 229.939 89.2907 229.868C88.8836 229.853 88.473 229.902 88.0641 229.92C84.9645 231.799 78.1425 231.193 75.6791 228.873C74.2251 227.502 72.8899 225.782 70.4689 226.476C69.7903 226.851 69.8649 227.592 69.6206 228.283C69.7903 227.636 69.6783 227.095 69.5935 226.54C69.0523 225.582 68.5874 224.504 67.1385 224.984C66.8976 226.681 65.973 227.268 64.2255 227.231C60.9732 227.163 57.7141 227.048 54.4566 227.214C53.1944 228.644 55.0521 229.498 55.2693 230.718C52.9535 231.237 50.9074 230.379 48.8104 230.209C48.4489 230.185 48.1033 230.052 47.8198 229.826C47.5363 229.6 47.3284 229.293 47.2241 228.946C46.7728 227.575 45.2391 227.187 44.6114 225.987Z" fill="#E8EFFE"/>
<path d="M13.1332 158.507C16.5993 158.507 20.0671 158.431 23.5316 158.521C25.2909 158.565 26.1137 158.11 26.0934 156.145C26.0119 148.091 26.0119 140.035 26.0934 131.978C26.112 130.066 25.3961 129.433 23.5808 129.559C21.9571 129.667 20.3199 129.586 18.6878 129.588C15.2947 137.393 12.7057 145.436 12.6192 154.034C12.6039 155.454 10.3661 157.367 13.1332 158.507Z" fill="#D6E3FE"/>
<path d="M203.753 203.362C203.753 205.204 203.861 207.056 203.727 208.89C203.558 211.279 204.153 213.325 205.809 215.066C207.041 216.363 207.456 217.561 205.639 218.827C203.578 220.264 204.961 221.898 205.616 223.435C206.294 225.054 207.253 225.553 208.934 224.503C209.952 223.868 211.163 224.333 212.122 224.991C213.254 225.763 214.328 226.844 215.122 224.691C215.703 223.094 218.175 221.408 215.135 219.901C213.323 219.001 213.064 217.583 213.724 216.081C217.03 208.554 214.896 200.967 214.175 193.386C214.005 191.674 213.393 191.199 211.84 192.028C211.303 192.313 210.653 192.393 210.129 192.697C208.137 193.851 204.903 192.88 203.931 195.149C203.115 197.053 203.761 199.581 203.751 201.833C203.751 202.339 203.752 202.849 203.753 203.362Z" fill="#5CDAC8"/>
<path d="M187.216 192.904C186.322 195.861 186.805 198.902 186.69 201.897C186.544 205.72 186.663 209.567 185.372 213.256C185.056 215.971 184.769 218.706 184.41 221.424C184.296 222.29 184.523 222.75 185.382 223.003C186.24 223.255 187.067 223.742 187.944 223.985C189.93 224.535 192.855 225.151 193.644 223.646C194.706 221.621 196.737 219.234 195.494 216.57C194.767 215.004 194.929 213.614 195.29 212.132C196.388 207.641 196.647 203.053 196.92 198.466C197.141 194.66 196.316 193.715 192.355 193.581C190.602 193.525 188.916 193.23 187.216 192.904Z" fill="#5CDAC8"/>
<path d="M77.4876 189.554C74.4897 189.466 71.4766 188.845 68.5093 189.821C65.2858 195.337 66.0951 201.218 67.0706 207.062C67.6033 210.252 69.0319 213.295 68.5772 216.639C68.3549 217.635 68.2972 218.633 68.5772 219.627C71.631 222.987 74.8732 226.148 78.5072 228.887C79.9748 229.993 81.1251 229.717 81.9004 228.023C78.6769 225.772 76.965 222.636 76.4713 218.784C75.7825 218.141 75.9217 217.284 75.92 216.488C75.9013 208.33 75.9386 200.171 75.8521 192.015C75.83 190.65 76.2796 189.934 77.4876 189.554Z" fill="#FDB0B2"/>
<path d="M51.9623 191.173C49.0781 190.751 46.1362 191.316 43.2843 190.542C41.0092 191.984 40.8684 194.424 40.6512 196.686C40.3899 199.418 40.641 202.159 42.0746 204.636C42.9229 209.569 45.5899 214.266 44.0002 219.516C43.4913 223.035 45.612 225.579 47.4748 228.058C48.9916 230.075 51.3447 229.317 53.4128 226.488C53.4637 225.971 53.4587 225.433 53.2432 224.976C50.8934 220.004 50.7119 214.715 50.9189 209.365C51.6722 204.404 51.3498 199.342 52.3474 194.402C52.5696 193.308 52.7987 192.164 51.9623 191.173Z" fill="#FEB0B1"/>
<path d="M197.793 236.197C204.749 234.975 211.671 235.858 218.351 234.161C218.744 234.061 219.209 234.115 219.538 233.923C220.565 233.331 222.422 233.245 222.39 231.986C222.351 230.582 220.653 230.192 219.347 229.868C217.038 229.294 214.959 228.315 213.524 231.77C212.689 233.779 210.017 232.279 208.207 231.991C207.019 231.801 205.416 231.777 205.631 229.736C205.801 228.108 204.654 227.986 203.426 228.001C201.482 228.029 199.536 228.02 197.591 228.001C196.892 228.001 195.895 228.269 195.581 227.614C194.505 225.334 192.495 226.505 191.779 227.146C188.138 230.402 183.824 229.861 179.574 229.846C177.504 229.846 174.626 229.646 174.36 231.812C174.15 233.536 177.059 233.769 178.904 234.254C185.193 235.919 191.703 234.862 197.793 236.197Z" fill="#E9F0FD"/>
<path d="M265.973 222.514C265.905 225.09 264.115 226.104 262.001 226.274C259.061 226.512 256.084 226.434 253.13 226.305C250.627 226.198 249.307 224.703 249.022 222.207C248.607 218.565 248.941 214.866 248.162 211.255C248.137 214.014 247.971 216.784 248.13 219.534C248.279 222.132 247.484 223.16 244.703 223.183C241.479 223.206 238.219 223.629 235.143 224.852C234.357 225.164 233.511 225.351 233.455 226.356C233.394 227.423 234.366 227.744 235.071 227.929C237.815 228.65 240.57 229.559 243.371 229.795C254.854 230.737 266.341 231.012 277.727 228.657C278.124 228.575 278.565 228.64 278.935 228.499C279.98 228.103 281.393 227.759 281.471 226.559C281.554 225.28 280.131 224.783 279.096 224.55C276.424 223.955 273.721 223.42 271.002 223.164C269.475 223.018 267.973 222.853 266.492 222.473C266.29 222.175 266.119 222.2 265.973 222.514Z" fill="#E9EFFE"/>
<path d="M254.183 173.193C256.321 174.666 257.785 180.576 256.667 183.016C256.195 184.045 255.325 183.671 254.575 183.768C252.397 184.052 250.123 183.144 248.014 184.298C248.238 184.574 248.523 184.795 248.847 184.942C249.171 185.09 249.525 185.159 249.88 185.146C255.211 185.097 260.549 185.553 265.861 184.91C267.387 184.002 266.461 183.49 265.496 183.174C264.125 182.725 262.661 183.055 261.254 182.867C259.488 182.631 260.067 181.944 261.019 181.253C263.813 179.338 266.894 177.912 269.688 175.993C272.319 174.188 274.869 172.316 276.9 169.829C280.517 165.401 285.553 162.671 289.806 159.006C290.269 158.432 291.333 157.867 290.749 157.126C289.926 156.067 289.053 157.375 288.169 157.498C283.524 158.903 280.013 162.013 276.802 165.407C272.275 170.181 267.301 174.313 261.393 177.235C260.795 177.531 259.855 178.917 259.405 177.013C259.473 173.041 259.498 169.079 259.422 165.12C259.383 163.128 259.709 161.298 260.796 159.624L261.5 159.093C266.901 156.934 270.172 152.078 274.634 148.73C275.085 148.263 276.057 147.79 275.506 147.125C274.54 145.961 273.6 147.313 272.633 147.491C270.195 148.465 268.025 150.006 266.303 151.988C264.169 154.387 261.602 156.271 258.531 157.367C258.488 155.34 258.447 153.313 258.406 151.285C256.081 150.646 256.796 152.453 256.777 153.444C256.665 159.113 256.635 164.784 256.577 170.453C256.119 170.806 255.684 170.808 255.208 170.443C251.852 167.884 248.832 165.013 246.878 161.205C245.082 157.629 242.348 154.609 238.968 152.466C238.093 152.069 237.528 151.083 236.423 151.131C235.695 152.117 236.413 152.758 236.973 153.437C241.262 158.307 244.708 163.811 248.666 168.927C250.111 170.787 252.341 171.778 254.183 173.193Z" fill="#535770"/>
<path d="M54.4105 262.575C59.1151 262.497 62.6813 258.777 62.5677 254.07C62.4693 250.049 58.1956 245.83 54.3936 246.005C50.1368 246.202 45.8784 250.607 46.0023 254.686C46.1211 258.648 50.3778 262.651 54.4105 262.575Z" fill="#E8EFFE"/>
<path d="M286.198 199.999C290.879 199.95 294.318 196.497 294.277 191.886C294.235 187.217 290.689 183.928 285.774 184.001C281.193 184.069 277.893 187.395 277.864 191.976C277.839 196.127 281.906 200.043 286.198 199.999Z" fill="#E8EFFE"/>
<path d="M208.316 95.2317C208.485 94.7685 208.529 94.1542 208.857 93.8742C213.506 89.8018 210.063 86.1943 208.236 82.5053C207.851 81.7282 207.162 81.1377 206.353 81.0749C203.217 80.8339 200.276 79.2779 197.047 79.7327C197.033 79.7706 197.011 79.8052 196.983 79.834C196.954 79.8628 196.92 79.8853 196.883 79.8999C196.845 79.9145 196.804 79.9209 196.764 79.9187C196.724 79.9165 196.684 79.9057 196.648 79.8871C194.553 81.3566 192.968 83.6948 189.964 83.6202C189.299 83.6015 188.361 84.2124 188.568 84.9658C189.506 88.3713 187.762 92.4319 191.024 95.2622C191.609 96.2006 192.166 95.8833 192.644 95.1825C193.277 94.2577 193.673 93.2023 194.171 92.2045C195.237 90.0818 196.733 88.8108 199.28 89.4319C199.577 89.4988 199.881 89.5352 200.186 89.5405C204.962 89.6796 204.962 89.6779 206.076 94.3595C206.261 95.1333 206.219 96.131 207.147 96.3805C207.866 96.5535 207.652 95.3488 208.316 95.2317Z" fill="#502C50"/>
<path d="M85.713 85.2865C88.0883 87.2989 87.6268 90.0614 87.5199 92.6525C87.4368 94.709 87.7625 96.0869 90.2531 95.8086C90.6263 95.7662 91.0284 96.0275 91.4254 96.114C97.3991 97.4172 97.3991 97.4155 97.3991 103.85C97.3991 105.686 97.5195 107.532 97.3719 109.356C97.1395 112.241 98.8208 112.563 101.026 112.338C104.957 111.934 105.892 111.133 105.168 108.392C104.733 106.755 104.817 105.168 104.864 103.55C102.691 100.553 100.438 97.6107 98.3644 94.5428C96.0214 91.0778 94.7185 87.1021 93.1797 83.2485C93.1916 84.7842 92.4688 85.4069 90.9063 85.3102C89.1893 85.205 87.4537 85.2865 85.713 85.2865Z" fill="#E9F0FE"/>
<path d="M42.0744 204.636C41.6672 199.868 40.6188 195.045 43.2841 190.54L44.1035 188.139L43.2807 187.959C42.0591 188.08 40.9055 187.869 39.6992 187.569C37.4122 187 36.815 185.884 37.4241 183.595C38.2062 180.63 37.5938 177.537 37.7634 174.505C37.8415 173.037 37.6701 171.888 35.6885 172.007C33.9444 172.112 33.4219 172.991 33.4354 174.569C33.466 178.441 33.4354 182.314 33.4354 186.186C33.4354 189.86 33.5355 193.537 33.41 197.207C33.3404 199.243 34.1327 200.431 35.9107 201.279C38.0145 202.297 40.0233 203.509 42.0744 204.636Z" fill="#D7E3FE"/>
<path d="M204.494 105.601C204.459 105.331 204.421 105.063 204.384 104.793C202.518 104.199 201.669 105.83 200.578 106.694C198.926 107.999 197.525 109.18 196.289 106.336C196.139 105.996 195.65 105.879 195.226 105.889L194.686 106.376C193.933 118.317 194.975 130.302 193.57 142.243C192.795 148.842 194.126 155.468 195.097 162.069C195.278 158.685 195.501 155.303 195.631 151.916C195.979 142.809 196.342 133.702 196.575 124.597C196.615 122.453 197.152 120.348 198.142 118.446C200.321 114.187 202.385 109.88 204.494 105.601Z" fill="#5CDAC8"/>
<path d="M246.826 185.533C245.513 187.387 247.608 189.249 246.811 191.103C247.605 192.01 246.548 193.309 247.467 194.188C252.022 193.464 256.61 194.047 261.179 193.859C262.662 193.798 264.153 193.993 265.632 193.796C259.582 194.105 253.509 193.469 247.469 194.19C247.162 198.722 247.102 203.243 248.093 207.714C248.061 204.77 248.107 201.821 247.964 198.89C247.881 197.151 248.504 196.566 250.224 196.593C255.108 196.674 259.998 196.701 264.881 196.583C266.893 196.535 267.281 197.38 267.13 199.138C266.991 200.748 267.12 202.381 267.13 204.003C268.369 199.742 267.514 195.385 267.743 191.078C265.295 189.931 262.702 190.639 260.18 190.525C257.426 190.399 254.662 190.499 251.904 190.493C256.098 190.493 260.29 190.493 264.484 190.493C265.6 190.493 266.75 190.352 267.743 191.073C268.779 190.121 267.595 189.091 267.85 188.112C266.844 186.955 265.454 187.126 264.158 187.109C260.188 187.053 256.215 187.04 252.246 187.109C250.243 187.138 248.414 186.8 246.826 185.533Z" fill="#9A99AA"/>
<path d="M258.54 178.348C258.725 179.928 259.614 179.18 260.257 178.808C265.749 175.637 271.343 172.647 275.526 167.624C279.031 163.413 283.626 160.458 288.178 157.497L287.462 157.273C282.542 158.602 277.622 159.859 273.131 162.461C268.423 165.188 264.862 169.036 261.645 173.295C259.556 174.332 259.356 176.529 258.54 178.348Z" fill="#5CDAC8"/>
<path d="M74.6492 85.2862C71.9042 81.7127 71.955 81.3835 76.0845 79.7257C77.3094 79.2336 77.1025 78.3309 77.1025 77.4705C77.0872 75.3563 77.9864 74.1821 80.1953 74.2143C79.9442 72.6549 78.8771 72.8314 77.8897 73.2573C71.424 76.0401 65.0093 78.9248 59.1561 82.8971C58.4927 83.3467 57.5223 83.7964 57.7988 84.694C58.0991 85.6935 59.2019 85.2625 59.9535 85.2676C64.8447 85.3032 69.7461 85.2862 74.6492 85.2862Z" fill="#E9F0FE"/>
<path d="M289.811 159.006C285.433 161.042 281.429 163.732 278.274 167.332C273.98 172.253 268.924 176.017 263.217 179.041C262.418 179.465 261.712 180.059 260.962 180.578C261.654 181.435 262.592 181.335 263.476 181.119C270.877 179.317 277.885 176.818 282.546 170.217C285.315 166.696 288.294 163.323 289.811 159.006Z" fill="#5CDAC8"/>
<path d="M129.678 242.002C126.368 242.104 123.85 244.775 124.008 248.019C124.14 250.734 127.337 253.71 129.997 253.583C132.701 253.454 135.765 250.162 135.573 247.58C135.36 244.627 132.486 241.915 129.678 242.002Z" fill="#E8EFFE"/>
<path d="M80.7784 21.5246C77.2156 21.5619 75.3765 23.4369 75.3714 27.024C75.3714 30.2141 77.9265 32.6372 81.2619 32.5999C84.3395 32.5659 86.5213 30.1072 86.4433 26.7644C86.3618 23.274 84.4294 21.4855 80.7784 21.5246Z" fill="#E8EFFE"/>
<path d="M47.2795 140.972C48.0938 139.409 49.0812 138.031 50.8423 137.454C51.319 137.298 51.8348 136.823 51.6668 136.297C50.7507 133.412 52.432 130.947 52.8544 128.286C53.0953 126.788 52.9393 125.037 51.8908 124.405C50.8423 123.774 49.0456 124.405 47.953 125.308C44.3563 128.273 43.6963 137.683 47.2795 140.972Z" fill="#FEFEFE"/>
<path d="M65.5336 148.005C68.2584 148.195 68.9166 146.648 69.0795 144.768C69.2491 142.731 67.8817 142.574 66.2835 142.468C63.2042 142.263 60.3455 141.048 57.4986 140.01C53.9104 138.701 54.8282 142.535 53.2861 143.604C51.9678 144.518 54.1801 145.131 54.9623 145.528C58.3826 147.286 62.2728 147.138 65.5336 148.005Z" fill="#FEFEFE"/>
<path d="M282.557 170.212C277.307 175.302 271.156 178.708 263.986 180.21C262.999 180.417 261.979 180.456 260.973 180.573C260.404 180.795 259.826 180.995 259.276 181.252C258.518 181.591 258.258 182.244 258.408 183.015C258.601 184 259.446 183.793 260.125 183.843C262.33 184.002 264.578 183.274 266.731 184.236C267.07 184.939 267.579 185.277 268.368 185.007C273.616 181.252 278.587 177.211 282.014 171.602C282.265 171.183 282.377 170.677 282.557 170.212Z" fill="#D6E3FE"/>
<path d="M63.668 126.667C63.4135 125.588 63.1579 124.51 62.9012 123.432C59.8914 123.464 57.6893 122.044 55.9605 119.529C55.9147 122.268 57.182 124.769 56.8427 127.463C56.673 128.768 56.7731 130.078 56.3337 131.383C55.9554 132.52 54.8068 133.928 56.5271 134.907C57.5451 135.498 59.2417 136.833 59.7201 136.056C60.5548 134.699 62.533 133.781 61.9256 131.529C61.5236 130.058 61.0773 128.118 63.5968 127.733C63.9361 127.402 63.9021 127.041 63.668 126.667Z" fill="#FEFEFE"/>
<path d="M81.8973 228.024C80.3484 229.261 79.1828 228.843 77.7712 227.526C75.0075 224.964 72.4508 222.139 69.2086 220.123C67.0302 221.034 65.9851 222.395 67.3814 224.725L69.0967 226.792C69.5157 227.145 69.9331 227.148 70.3487 226.792C72.5865 226.61 73.9641 228.027 75.1314 229.578C76.4123 231.275 77.9189 232.006 80.0667 231.847C82.3978 231.677 84.751 231.828 87.0939 231.785C88.4648 231.762 89.0518 231.229 88.0644 229.919C85.8147 229.921 83.6567 229.619 81.8973 228.024Z" fill="#222768"/>
<path d="M268.363 185.002L266.726 184.231L248.018 184.298C247.361 184.467 247.091 184.993 246.83 185.533C246.818 187.552 247.911 188.015 249.782 187.998C255.805 187.942 261.828 188.058 267.853 188.107C268.865 187.22 268.28 186.052 268.363 185.002Z" fill="#43415A"/>
<path d="M196.457 9.83493C199.101 9.88414 201.364 7.58321 201.445 4.76475C201.522 2.1533 199.314 0.0135748 196.551 0C193.914 0 191.741 1.95647 191.631 4.43726C191.527 6.87393 194.135 9.79251 196.457 9.83493Z" fill="#E9EFFE"/>
<path d="M5.74935 192.332C8.67764 192.23 10.7492 190.162 10.5846 187.506C10.4149 184.791 8.32644 183.008 5.41851 183.094C2.60728 183.184 0.710507 185.229 0.83775 188.029C0.963297 190.583 3.06706 192.425 5.74935 192.332Z" fill="#E9EFFE"/>
<path d="M53.1278 226.816C52.327 227.221 51.4821 227.562 50.7339 228.049C49.4225 228.898 48.2909 228.582 47.692 227.328C46.4518 224.728 44.3277 222.541 44.0002 219.522C41.6573 221.92 43.3759 223.934 44.611 225.994C44.8757 228.051 45.9683 230.253 47.5902 230.713C50.5948 231.562 53.8421 232.178 57.5508 231.668C56.4735 229.865 54.6038 229.188 54.29 227.426C54.0847 226.868 53.8047 226.461 53.1278 226.816Z" fill="#2F3370"/>
<path d="M82.6358 134.456C81.9571 135.684 80.5693 136.557 80.7373 138.213L82.0063 139.514C84.3493 140.636 86.1052 139.891 87.5541 137.872C88.4177 136.667 88.438 135.642 87.2759 134.671C87.1232 134.544 86.8721 134.522 86.7398 134.381C84.7056 132.241 84.709 132.242 82.6358 134.456Z" fill="#F7AFB2"/>
<path d="M258.537 157.367C258.561 158.046 258.931 158.327 259.492 157.964C261.684 156.539 264.21 155.395 265.915 153.513C267.975 151.241 270.391 149.485 272.641 147.491C268.289 147.973 264.858 150.259 261.693 153.065L258.537 157.367Z" fill="#5CDAC8"/>
<path d="M63.6695 126.667C63.6458 127.024 63.6203 127.38 63.5966 127.736C63.9065 129.34 63.7127 130.999 63.0418 132.488C61.9916 134.744 62.9519 136.852 63.2573 139.015C63.4269 140.163 64.2905 140.507 65.2287 140.509C66.5622 140.509 66.0634 139.375 66.1414 138.681C66.4604 135.83 65.9718 133.044 65.3797 130.272C64.3804 129.279 65.4373 127.305 63.6695 126.667Z" fill="#3D4179"/>
<path d="M71.4619 145.577C74.8347 146.833 78.8488 144.71 79.6445 141.252C78.5265 141.238 77.4084 141.208 76.2921 141.216C71.8437 141.255 71.8437 141.259 71.4619 145.577Z" fill="#FDB3B4"/>
<path d="M181.011 152.354L181.7 153.463C183.566 153.583 183.033 156.138 184.959 156.551C185.083 154.413 185.334 152.351 185.28 150.298C185.235 148.705 184.262 148.387 183.021 149.378C182.059 150.149 181.23 151.06 181.011 152.354Z" fill="#D38290"/>
<path d="M210.152 153.632C207.226 150.337 206.4 150.464 202.335 154.672C205.153 155.117 207.443 152.965 210.152 153.632Z" fill="#D17A89"/>
<path d="M81.415 81.5956C82.8181 82.8632 83.0896 85.4525 85.7227 85.2879C85.1526 83.0464 84.496 80.9067 81.415 81.5956Z" fill="#E9F0FE"/>
<path d="M69.0141 156.689C69.3653 160.063 69.8352 163.404 71.5742 166.412C70.9719 163.105 70.5868 159.74 69.0141 156.689Z" fill="#E8EFFE"/>
<path d="M265.974 222.514C266.145 222.513 266.315 222.498 266.483 222.468C266.507 219.193 266.529 215.918 266.551 212.643C265.55 215.879 265.872 219.2 265.974 222.514Z" fill="#9A99AA"/>
<path d="M267.13 203.998C266.121 206.823 266.436 209.737 266.558 212.638C267.515 209.808 267.239 206.903 267.13 203.998Z" fill="#9A99AA"/>
<path d="M67.8269 150.515L69.0382 156.73C69.1723 154.555 69.459 152.347 67.8269 150.515Z" fill="#E8EFFE"/>
<path d="M107.26 106.17C107.209 113.592 107.209 113.592 99.6253 113.586C95.0106 113.586 94.9546 113.53 94.9444 108.993C94.9444 106.227 94.9139 103.461 94.9444 100.696C94.9682 99.0666 94.315 98.3335 92.615 98.1825C85.0161 97.5122 84.7802 97.7379 86.2545 105.158C87.1469 109.648 87.9511 114.152 88.9691 118.619C89.2897 120.036 89.6324 121.433 90.7844 122.71C92.1417 124.21 90.8828 126.16 89.5968 127.048C87.0401 128.804 88.3922 131.156 88.2989 133.199C88.2107 135.109 90.0871 134.237 91.1407 134.527C92.8865 135.009 93.6686 136.321 93.6245 138.009C93.5074 142.575 94.1335 143.064 98.4207 141.681C101.525 140.678 104.618 139.562 107.803 138.915C109.638 138.542 110.438 137.636 110.266 136.088C109.817 132.016 111.7 127.692 108.995 123.861C108.89 123.712 108.79 123.399 108.865 123.308C111.542 120.055 109.873 116.208 110.315 112.657C110.438 111.672 110.85 111.17 111.781 111.019L107.26 106.17Z" fill="#D6E3FE"/>
<path d="M131.859 107.335C134.302 108.002 133.959 106.018 134.178 104.771C135.535 97.0217 136.81 89.2621 138.25 80.7252C139.86 85.1608 140.44 89.0771 141.093 92.9307C141.557 95.6609 142.58 96.9929 145.45 96.5568C146.351 96.4211 147.293 96.5857 148.211 96.5195C149.251 96.4448 150.755 96.8589 150.718 95.1281C150.682 93.6705 149.327 93.7451 148.368 93.8911C145.107 94.3865 143.742 93.253 143.265 89.7949C142.515 84.3412 141.031 78.9893 139.872 73.5934C139.65 72.56 139.415 71.4214 138.175 71.3281C136.774 71.2212 136.665 72.4972 136.508 73.478C135.32 80.8474 134.17 88.2202 133.008 95.593C132.68 97.2186 132.46 98.7559 131.515 100.326C130.235 102.458 130.816 105.033 131.859 107.335Z" fill="#E4EDFE"/>
<path d="M131.859 107.335C131.567 104.45 131.311 101.613 132.867 98.8764C133.349 98.0279 132.988 96.701 133.011 95.593C132.713 96.5076 132.414 97.4205 131.873 99.0834C130.695 94.8989 129.715 91.4034 128.729 87.9079C128.434 86.8627 128.478 85.4543 127.017 85.3406C125.524 85.2235 125.373 86.5793 125.034 87.6364C124.659 88.8039 124.272 89.9679 123.887 91.1319C122.764 94.5256 121.436 94.8446 118.83 92.4181C117.418 91.1048 115.888 90.1579 113.923 91.4C116.336 93.852 116.346 95.7049 113.965 98.8492C115.801 100.015 117.265 99.0885 118.612 97.9312C119.291 97.3458 119.729 96.4041 120.818 96.5381C123.734 96.8995 126.103 96.3939 126.378 92.4165L127.107 92.8356C128.266 96.796 129.416 100.758 130.59 104.714C130.875 105.645 130.762 106.789 131.859 107.335Z" fill="#D4E1FE"/>
<path d="M113.969 98.844C117.761 98.3926 116.11 95.4164 116.443 93.4141C116.775 91.4118 115.275 91.4407 113.927 91.4033C110.406 93.6041 110.423 96.6076 113.969 98.844Z" fill="#F4F7FE"/>
<path d="M117.722 116.63C117.352 117.445 116.904 118.232 116.626 119.076C115.765 121.684 116.578 122.778 119.34 122.809C121.257 122.827 123.173 122.809 125.09 122.809L117.722 116.63Z" fill="#C8DAFE"/>
<path d="M195.227 105.886C196.613 106.744 196.126 109.385 197.578 109.449C199.317 109.522 200.413 107.454 201.893 106.458C202.721 105.901 203.554 105.351 204.385 104.796C204.789 102.392 205.373 100.13 207.32 98.3637C208.099 97.6578 208.377 96.4089 208.316 95.2364C207.904 94.7817 207.191 96.7636 206.918 95.0565C206.709 93.7585 206.457 92.4688 206.212 91.1758C206.009 90.1085 205.35 89.3093 204.487 88.7528C201.796 87.0203 195.195 88.9886 193.418 91.7087C192.648 92.8863 193.293 95.1024 191.023 95.2449C191.61 96.3886 191.914 97.9106 192.837 98.6013C195.449 100.548 195.442 103.132 195.227 105.886Z" fill="#CD7080"/>
<path d="M254.184 173.193C248.232 168.76 245.153 161.938 240.338 156.564C239.32 155.429 238.1 154.477 236.972 153.44C236.86 155.251 237.961 156.746 238.278 158.446C241.276 164.295 245.304 169.158 251.364 172.057C252.28 172.491 253.245 172.817 254.184 173.193Z" fill="#5CDAC8"/>
<path d="M258.541 178.348L261.647 173.295C261.666 169.223 261.628 165.167 261.744 161.107C261.769 160.231 261.705 159.749 260.806 159.624C259.109 159.781 258.288 160.57 258.335 162.405C258.468 167.718 258.48 173.034 258.541 178.348Z" fill="#FAFBFD"/>
<path d="M274.639 148.73C272.892 149.341 271.321 150.367 270.058 151.72C267.499 154.538 264.483 156.783 261.504 159.091C267.717 157.961 272.009 154.401 274.639 148.73Z" fill="#5CDAC8"/>
<path d="M69.6655 101.238C67.1393 99.9268 64.7031 99.3329 62.4347 101.807C62.0799 102.193 61.6164 102.462 61.1055 102.579C60.5946 102.696 60.0602 102.656 59.5726 102.464C56.7207 101.33 56.3644 103.168 56.305 105.179C56.2558 106.85 56.0963 108.43 55.0665 109.811C56.6901 110.815 56.9938 112.719 58.0168 114.134C59.235 114.608 59.6184 113.795 59.9323 112.886C60.0222 112.248 59.6914 111.44 60.8383 111.335C68.3405 110.649 70.0541 108.674 69.6655 101.238Z" fill="#FDB0B1"/>
<path d="M59.9237 112.88L58.0083 114.129C58.8803 116.322 60.1579 118.202 62.6484 120.128C62.0987 117.05 61.3947 114.835 59.9237 112.88Z" fill="#42477F"/>
<path d="M238.974 152.466C242.852 156.138 245.678 160.611 248.598 165.023C250.58 168.018 253.566 170.052 256.284 172.34C256.845 171.661 256.623 171.048 256.584 170.453C255.736 169.642 255.49 168.51 255.047 167.48C251.888 160.121 246.576 155.066 238.974 152.466Z" fill="#5CDAC8"/>
<path d="M51.9634 191.173C50.6892 197.232 50.5756 203.407 50.1192 209.548C54.2741 212.529 59.1959 213.682 63.9175 215.292C65.6531 215.884 67.4226 216.393 69.1667 216.967C70.4187 214.637 69.3635 212.331 68.7578 210.2C66.9645 203.904 66.3571 197.674 68.4185 191.339C68.5695 190.873 68.4897 190.321 68.5169 189.812C63.0268 190.669 57.5044 191.034 51.9634 191.173Z" fill="#D6E3FE"/>
<path d="M69.1656 216.967C69.0995 215.922 68.2936 215.73 67.5013 215.511C61.9535 213.984 56.5295 212.128 51.3143 209.677C50.9749 209.516 50.5186 209.586 50.1267 209.548C49.5549 215.577 50.4134 221.358 53.1364 226.815L54.2985 227.421C58.5162 228.69 62.8595 228.1 67.0941 227.871C70.1022 227.711 66.2458 225.726 67.3893 224.725C67.0297 222.808 68.1477 221.475 69.2148 220.123L69.1656 216.967Z" fill="#FEFEFE"/>
<path d="M70.3477 226.785H69.0956C68.9514 228.166 68.7563 229.551 69.3654 231.259C70.8295 229.754 69.9337 228.122 70.3477 226.785Z" fill="#646897"/>
<path d="M267.744 191.068C267.339 190.199 266.599 189.99 265.718 189.994C260.084 190.006 254.45 189.994 248.817 190.019C248.44 190.019 247.989 190.019 247.709 191.069H267.744V191.068Z" fill="#46445E"/>
<path d="M247.468 194.19H266.75C260.318 194.002 253.868 192.586 247.467 194.19H247.468Z" fill="#3F3D56"/>
</svg>
