<svg width="301" height="295" viewBox="0 0 301 295" fill="none" xmlns="http://www.w3.org/2000/svg">
<path d="M278.401 198.589C251.233 262.527 178.864 298.346 116.104 288.685C105.892 287.112 77.8948 282.429 53.1069 260.334C5.38948 217.801 -4.81551 133.584 33.6773 74.2271C61.6929 31.0289 111.915 6.54594 159.634 7.7662C169.913 8.0301 209.306 9.65541 243.925 38.1879C249.01 42.3816 260.226 52.337 270.333 68.136C294.068 105.234 296.108 156.92 278.401 198.589Z" fill="url(#paint0_linear_1128_21643)"/>
<path d="M285.258 51.388C285.084 49.6492 282.683 49.2912 282.022 50.9134C275.63 66.5988 257.583 107.203 234.64 127.23C197.288 159.84 168.461 216.411 186.255 249.431C186.253 249.431 304.144 241.32 285.258 51.388Z" fill="#BDD0FB"/>
<path opacity="0.43" d="M279.429 74.1421C279.326 74.6668 279.201 75.0923 279.087 75.5547L278.719 76.9181L277.954 79.6226C277.434 81.4187 276.881 83.2066 276.332 84.9987C275.22 88.5759 274.067 92.1396 272.873 95.6895C270.48 102.788 267.896 109.822 265.207 116.816C262.518 123.809 259.651 130.736 256.63 137.594C253.609 144.452 250.478 151.265 247.129 157.975C240.461 171.404 233.055 184.483 224.754 196.988C220.539 203.194 216.158 209.295 211.434 215.127C206.669 220.925 201.656 226.522 196.257 231.729C196.201 231.782 196.127 231.811 196.05 231.81C195.973 231.809 195.9 231.778 195.845 231.724C195.791 231.67 195.759 231.597 195.758 231.52C195.756 231.443 195.785 231.369 195.837 231.313C201.003 225.92 205.887 220.265 210.471 214.37C215.076 208.495 219.334 202.357 223.425 196.116C227.516 189.876 231.351 183.466 235.041 176.976C238.731 170.486 242.146 163.841 245.526 157.182C252.229 143.832 258.215 130.128 263.82 116.274C266.611 109.335 269.266 102.346 271.785 95.309C273.053 91.7925 274.285 88.2636 275.479 84.7225L277.219 79.3945L278.064 76.7238L278.474 75.3849C278.6 74.944 278.743 74.4725 278.837 74.0818L278.853 74.0173C278.862 73.9798 278.877 73.9442 278.899 73.9127C278.921 73.8811 278.949 73.8542 278.981 73.8335C279.014 73.8127 279.05 73.7985 279.088 73.7917C279.126 73.7849 279.164 73.7856 279.202 73.7938C279.239 73.802 279.275 73.8175 279.307 73.8395C279.338 73.8614 279.365 73.8893 279.386 73.9217C279.407 73.954 279.421 73.9901 279.428 74.028C279.434 74.0658 279.434 74.1046 279.426 74.1421H279.429Z" fill="white"/>
<path d="M230.628 8.31881C229.922 6.59326 227.363 6.96148 227.181 8.81796C225.423 26.7639 219.338 73.676 202.006 101.079C173.791 145.692 161.556 212.169 189.744 240.467C189.748 240.462 307.589 196.414 230.628 8.31881Z" fill="#91B3FA"/>
<path opacity="0.43" d="M231.597 33.3078C231.654 33.8755 231.655 34.347 231.679 34.8544L231.716 36.3518L231.758 39.3437C231.771 41.3382 231.758 43.3328 231.738 45.3263C231.689 49.3134 231.596 53.2998 231.457 57.2855C231.179 65.2576 230.673 73.2185 230.053 81.1712C229.433 89.1239 228.613 97.0632 227.613 104.979C226.614 112.895 225.487 120.799 224.108 128.662C221.382 144.391 217.796 159.986 213.122 175.264C210.704 182.879 208.086 190.432 205.037 197.818C201.933 205.183 198.515 212.413 194.584 219.364C194.544 219.439 194.475 219.494 194.393 219.518C194.311 219.543 194.223 219.533 194.148 219.493C194.074 219.452 194.018 219.383 193.994 219.301C193.969 219.22 193.979 219.132 194.019 219.057C197.652 211.985 200.918 204.731 203.805 197.324C206.716 189.931 209.196 182.375 211.475 174.766C213.754 167.157 215.721 159.451 217.513 151.709C219.305 143.967 220.773 136.15 222.199 128.329C224.985 112.672 226.933 96.8709 228.441 81.0331C229.182 73.1108 229.769 65.1758 230.202 57.2282C230.429 53.2555 230.614 49.2807 230.758 45.3038L230.923 39.3385L230.974 36.3559L230.983 34.8656C230.978 34.3777 230.983 33.853 230.96 33.4275V33.3549C230.956 33.2725 230.985 33.192 231.04 33.1304C231.094 33.0688 231.171 33.0309 231.253 33.0248C231.335 33.0187 231.417 33.0448 231.48 33.0976C231.543 33.1505 231.584 33.2258 231.592 33.3078H231.597Z" fill="white"/>
<path d="M10.2051 55.8048C10.2053 51.2602 12.0117 46.9018 15.2269 43.6882C18.442 40.4747 22.8026 38.6692 27.3495 38.6689H173.154C177.027 38.6692 180.752 40.1564 183.56 42.8232C186.367 45.4901 188.043 49.1329 188.24 52.9991L199.001 264.278C199.077 265.768 198.853 267.259 198.341 268.661C197.828 270.064 197.039 271.349 196.02 272.44C195.001 273.531 193.773 274.406 192.409 275.014C191.045 275.621 189.572 275.948 188.079 275.975L20.9698 279.011C19.5655 279.036 18.1701 278.782 16.8653 278.262C15.5604 277.742 14.3722 276.968 13.37 275.985C12.3679 275.001 11.5718 273.828 11.0284 272.533C10.485 271.238 10.2051 269.849 10.2051 268.445V55.8048Z" fill="#37CFBA"/>
<path opacity="0.6" d="M45.3925 275.418H45.3864L26.6885 275.177C20.4368 275.096 15.3496 269.946 15.3496 263.696V235.48C15.3496 235.374 15.3917 235.273 15.4665 235.198C15.5414 235.123 15.6429 235.081 15.7487 235.081C15.8546 235.081 15.9561 235.123 16.0309 235.198C16.1058 235.273 16.1478 235.374 16.1478 235.48V263.696C16.1478 269.511 20.8809 274.303 26.6987 274.379L45.3966 274.62C45.5024 274.62 45.604 274.662 45.6788 274.737C45.7537 274.812 45.7957 274.914 45.7957 275.019C45.7957 275.125 45.7537 275.227 45.6788 275.301C45.604 275.376 45.5024 275.418 45.3966 275.418H45.3925Z" fill="white"/>
<path opacity="0.6" d="M15.7487 227.138C15.643 227.138 15.5416 227.096 15.4668 227.021C15.392 226.947 15.3499 226.845 15.3496 226.74V222.169C15.3496 222.064 15.3917 221.962 15.4665 221.887C15.5414 221.813 15.6429 221.771 15.7487 221.771C15.8546 221.771 15.9561 221.813 16.0309 221.887C16.1058 221.962 16.1478 222.064 16.1478 222.169V226.74C16.1478 226.845 16.1058 226.947 16.0309 227.022C15.9561 227.096 15.8546 227.138 15.7487 227.138Z" fill="white"/>
<path d="M22.1485 41.9202C22.1438 41.2075 22.2924 40.502 22.5841 39.8516C22.8758 39.2012 23.3039 38.6211 23.8395 38.1504C24.375 37.6797 25.0055 37.3295 25.6881 37.1235C26.3708 36.9175 27.0898 36.8605 27.7965 36.9563C47.7071 39.6546 116.174 48.0031 172.782 43.658C173.394 43.61 174.01 43.6848 174.593 43.8782C175.176 44.0716 175.714 44.3796 176.176 44.7841C176.638 45.1886 177.015 45.6814 177.284 46.2335C177.552 46.7857 177.708 47.386 177.741 47.999L189.025 260.22C189.1 261.617 188.619 262.988 187.686 264.031C186.753 265.075 185.445 265.707 184.047 265.79C160.239 267.198 62.1897 272.643 27.2173 268.98C26.1892 268.872 25.2373 268.389 24.544 267.622C23.8508 266.856 23.4649 265.861 23.4605 264.828L22.1485 41.9202Z" fill="#7DECDD"/>
<path opacity="0.6" d="M24.4942 47.2391C24.4896 46.5532 24.6325 45.8743 24.9132 45.2483C25.1939 44.6223 25.6059 44.0639 26.1212 43.6109C26.6366 43.1579 27.2433 42.8208 27.9003 42.6225C28.5573 42.4242 29.2492 42.3692 29.9293 42.4614C49.0908 45.0584 114.979 53.0909 169.455 48.9105C170.044 48.8642 170.636 48.9361 171.197 49.1221C171.758 49.3081 172.276 49.6043 172.721 49.9933C173.166 50.3823 173.528 50.8563 173.787 51.3874C174.046 51.9185 174.196 52.4959 174.228 53.0858L185.088 257.316C185.16 258.661 184.696 259.979 183.798 260.984C182.9 261.988 181.641 262.597 180.296 262.677C157.384 264.032 63.027 269.27 29.3716 265.745C28.3825 265.64 27.4668 265.174 26.7997 264.437C26.1327 263.699 25.7611 262.742 25.7561 261.748L24.4942 47.2391Z" fill="white"/>
<g opacity="0.6">
<path d="M163.096 66.792C163.157 66.7921 163.218 66.7798 163.274 66.756C163.33 66.7322 163.381 66.6974 163.423 66.6536C163.465 66.6097 163.498 66.5578 163.52 66.501C163.542 66.4441 163.552 66.3834 163.55 66.3225L163.481 64.3228C163.475 64.1969 163.422 64.078 163.331 63.9898C163.241 63.9016 163.121 63.8507 162.995 63.8472L98.296 62.8643C98.0381 62.8643 97.9071 63.0514 98.0053 63.2908L99.2722 66.3594C99.3313 66.4834 99.4227 66.5891 99.5369 66.6655C99.6511 66.7418 99.7839 66.7859 99.9211 66.793L163.096 66.792Z" fill="white"/>
</g>
<g opacity="0.6">
<path d="M98.296 71.0308C98.0381 71.0308 97.9071 71.219 98.0053 71.4573L99.2722 74.5258C99.3313 74.6499 99.4227 74.7556 99.5369 74.832C99.6511 74.9083 99.7839 74.9524 99.9211 74.9595H163.096C163.157 74.9597 163.218 74.9476 163.274 74.9238C163.33 74.9001 163.381 74.8653 163.423 74.8214C163.466 74.7775 163.499 74.7256 163.52 74.6686C163.542 74.6117 163.552 74.551 163.55 74.4901L163.481 72.4914C163.475 72.3653 163.422 72.2461 163.332 72.1577C163.242 72.0693 163.121 72.0182 162.995 72.0147L98.296 71.0308Z" fill="white"/>
</g>
<g opacity="0.6">
<path d="M98.296 79.312C98.0381 79.312 97.9071 79.5002 98.0053 79.7385L99.2722 82.8071C99.3313 82.9311 99.4227 83.0369 99.5369 83.1132C99.6511 83.1896 99.7839 83.2336 99.9211 83.2408H163.096C163.157 83.241 163.218 83.2288 163.274 83.2051C163.33 83.1814 163.381 83.1465 163.423 83.1027C163.466 83.0588 163.499 83.0068 163.52 82.9499C163.542 82.893 163.552 82.8322 163.55 82.7713L163.481 80.7726C163.475 80.6465 163.422 80.5273 163.332 80.4389C163.242 80.3505 163.121 80.2995 162.995 80.296L98.296 79.312Z" fill="white"/>
</g>
<g opacity="0.6">
<path d="M163.337 120.101C163.398 120.102 163.457 120.09 163.513 120.066C163.568 120.043 163.618 120.008 163.66 119.964C163.701 119.92 163.732 119.867 163.752 119.81C163.772 119.753 163.78 119.693 163.775 119.633L163.643 117.632C163.633 117.505 163.577 117.387 163.484 117.3C163.392 117.213 163.27 117.163 163.143 117.161L37.4736 116.17C37.2147 116.17 37.1349 116.332 37.2966 116.534L39.8458 119.734C39.9425 119.842 40.0596 119.931 40.1904 119.994C40.3212 120.057 40.4632 120.093 40.6082 120.101H163.337Z" fill="white"/>
</g>
<g opacity="0.6">
<path d="M37.4736 124.333C37.2147 124.333 37.1349 124.494 37.2966 124.696L39.8458 127.897C40.0414 128.115 40.3156 128.247 40.6082 128.263H163.337C163.397 128.264 163.457 128.252 163.513 128.229C163.568 128.205 163.618 128.17 163.659 128.126C163.701 128.082 163.732 128.03 163.752 127.973C163.772 127.916 163.78 127.856 163.775 127.796L163.643 125.794C163.633 125.667 163.577 125.549 163.484 125.462C163.392 125.375 163.27 125.325 163.143 125.323L37.4736 124.333Z" fill="white"/>
</g>
<path d="M37.1132 141.045C40.0749 140.818 45.6215 140.713 48.6773 140.671C49.3053 140.66 49.9182 140.864 50.4149 141.248C50.9116 141.633 51.2625 142.175 51.4096 142.785C51.9981 145.228 52.8116 149.467 52.7093 153.96C52.6961 154.606 52.4283 155.221 51.9641 155.672C51.4998 156.122 50.8766 156.371 50.2297 156.364L38.9625 156.243C38.2939 156.234 37.6522 155.979 37.1609 155.525C36.6697 155.072 36.3636 154.453 36.3017 153.788L35.306 143.199C35.2808 142.939 35.3079 142.676 35.3854 142.426C35.463 142.176 35.5896 141.944 35.7578 141.744C35.9261 141.543 36.1326 141.378 36.3653 141.258C36.598 141.138 36.8522 141.066 37.1132 141.045Z" fill="#59DFCC"/>
<g opacity="0.6">
<path d="M56.7138 145.347C56.656 145.342 56.5978 145.35 56.5438 145.371C56.4898 145.393 56.4415 145.426 56.4027 145.469C56.3638 145.512 56.3356 145.564 56.3201 145.62C56.3047 145.676 56.3025 145.734 56.3137 145.791L56.9543 150.056C56.9775 150.184 57.0437 150.299 57.1418 150.384C57.24 150.468 57.3642 150.516 57.4936 150.52H87.3369C87.3986 150.52 87.4598 150.509 87.5169 150.486C87.574 150.462 87.6259 150.428 87.6695 150.384C87.7132 150.341 87.7477 150.289 87.7711 150.232C87.7944 150.175 87.8062 150.114 87.8056 150.052L87.7688 147.114C87.7654 146.988 87.7147 146.867 87.6268 146.777C87.5388 146.686 87.42 146.632 87.294 146.625L56.7138 145.347Z" fill="white"/>
</g>
<path opacity="0.6" d="M98.4981 141.045C101.46 140.818 107.006 140.713 110.062 140.671C110.69 140.661 111.303 140.864 111.799 141.249C112.296 141.633 112.646 142.175 112.793 142.785C113.383 145.228 114.196 149.467 114.094 153.96C114.081 154.606 113.813 155.221 113.349 155.671C112.885 156.122 112.261 156.371 111.615 156.364L100.346 156.243C99.6778 156.234 99.036 155.979 98.5448 155.525C98.0535 155.072 97.7474 154.453 97.6855 153.788L96.6888 143.199C96.6637 142.939 96.6907 142.676 96.7684 142.426C96.8461 142.175 96.9729 141.943 97.1414 141.743C97.3098 141.542 97.5165 141.377 97.7495 141.258C97.9824 141.138 98.2369 141.066 98.4981 141.045Z" fill="white"/>
<g opacity="0.6">
<path d="M118.098 145.347C118.04 145.342 117.982 145.35 117.928 145.372C117.874 145.393 117.826 145.426 117.787 145.47C117.748 145.513 117.72 145.564 117.705 145.62C117.689 145.676 117.687 145.734 117.698 145.791L118.339 150.056C118.362 150.184 118.428 150.299 118.527 150.383C118.625 150.468 118.749 150.516 118.878 150.52H148.722C148.783 150.52 148.844 150.508 148.9 150.484C148.957 150.46 149.008 150.426 149.051 150.382C149.094 150.339 149.128 150.287 149.151 150.23C149.174 150.173 149.186 150.113 149.185 150.051L149.148 147.113C149.145 146.986 149.094 146.866 149.006 146.776C148.918 146.685 148.8 146.631 148.674 146.624L118.098 145.347Z" fill="white"/>
</g>
<path d="M49.8832 183.079H49.8545L39.4581 182.977C37.9722 182.963 36.7462 181.941 36.605 180.601L35.6911 171.881C35.6655 171.626 35.692 171.368 35.769 171.123C35.8461 170.878 35.9721 170.651 36.1394 170.456C36.3387 170.226 36.582 170.038 36.8552 169.903C37.1283 169.768 37.4256 169.69 37.7297 169.672C38.6057 169.612 39.8399 169.507 41.1457 169.397C43.8955 169.162 47.3176 168.871 49.2436 168.846C50.6404 168.84 51.8255 169.665 52.155 170.882C52.6964 172.883 52.6493 176.672 52.5459 180.708C52.5122 182.023 51.321 183.079 49.8832 183.079ZM37.7849 170.472C37.5876 170.482 37.3944 170.531 37.2166 170.618C37.0389 170.704 36.8803 170.825 36.7503 170.974C36.6523 171.087 36.5783 171.218 36.5327 171.36C36.4872 171.503 36.471 171.653 36.4853 171.801L37.3991 180.52C37.5015 181.457 38.3857 182.171 39.4653 182.182L49.8627 182.284H49.8832C50.8912 182.284 51.7252 181.576 51.7477 180.695C51.8501 176.719 51.8982 172.995 51.3844 171.097C51.1542 170.245 50.269 169.654 49.2538 169.651C47.3565 169.675 43.9507 169.964 41.2132 170.197C39.9043 170.309 38.6671 170.414 37.7849 170.475V170.472Z" fill="white"/>
<path opacity="0.6" d="M38.9034 171.372C41.0873 171.222 45.8347 170.741 48.0861 170.712C49.0398 170.701 49.877 171.277 50.1 172.103C50.535 173.709 50.4777 176.911 50.4019 179.865C50.3794 180.749 49.5659 181.456 48.5732 181.446L40.2645 181.366C39.2411 181.357 38.3948 180.66 38.2996 179.753L37.569 172.785C37.4932 172.065 38.0929 171.43 38.9034 171.372Z" fill="white"/>
<g opacity="0.6">
<path d="M59.0166 177.29C59.1629 177.845 59.49 178.335 59.9461 178.683C60.4022 179.031 60.9613 179.217 61.5351 179.212L157.731 178.394C158.241 178.381 158.726 178.17 159.082 177.804C159.438 177.439 159.637 176.949 159.636 176.439C159.635 175.929 159.434 175.44 159.077 175.076C158.72 174.712 158.234 174.502 157.724 174.492L61.5218 174.053C61.1261 174.051 60.7353 174.141 60.3798 174.315C60.0242 174.489 59.7134 174.742 59.4713 175.055C59.2291 175.367 59.0622 175.732 58.9834 176.119C58.9046 176.507 58.9159 176.908 59.0166 177.29Z" fill="white"/>
</g>
<path d="M39.3466 172.738C39.53 172.631 39.7329 172.561 39.9435 172.533C40.1542 172.505 40.3683 172.52 40.5733 172.576C40.7783 172.631 40.9701 172.728 41.1375 172.858C41.3048 172.989 41.4444 173.152 41.5479 173.338L43.5946 177.012C43.6407 177.095 43.7091 177.164 43.7921 177.21C43.8751 177.256 43.9694 177.279 44.0644 177.275C44.1594 177.271 44.2514 177.24 44.33 177.187C44.4086 177.133 44.4708 177.059 44.5095 176.972L49.5956 165.654C49.6493 165.535 49.7427 165.438 49.8598 165.379C49.9769 165.321 50.1106 165.304 50.2384 165.333C50.3661 165.362 50.4799 165.434 50.5607 165.537C50.6414 165.64 50.684 165.768 50.6814 165.899C50.6302 169.361 49.7112 175.942 44.1759 181.446C44.1759 181.446 41.1262 180.261 38.6702 174.87C38.5 174.494 38.475 174.068 38.5998 173.675C38.7247 173.281 38.9907 172.948 39.3466 172.738Z" fill="#59DFCC"/>
<path d="M49.8833 205.353H49.8546L39.4583 205.251C37.9723 205.236 36.7463 204.215 36.6051 202.875L35.6913 194.156C35.6654 193.9 35.6918 193.642 35.7689 193.397C35.8459 193.152 35.972 192.926 36.1395 192.731C36.3387 192.501 36.5821 192.313 36.8552 192.178C37.1283 192.043 37.4257 191.964 37.7298 191.946C38.6058 191.886 39.84 191.781 41.1458 191.67C43.8956 191.436 47.3177 191.145 49.2437 191.121H49.2856C50.6528 191.121 51.8287 191.954 52.151 193.158C52.6924 195.158 52.6453 198.948 52.542 202.984C52.5123 204.296 51.3211 205.353 49.8833 205.353ZM37.7851 192.744C37.5878 192.755 37.3946 192.805 37.2169 192.891C37.0392 192.977 36.8806 193.098 36.7504 193.247C36.6525 193.359 36.5785 193.491 36.5329 193.633C36.4874 193.775 36.4712 193.925 36.4854 194.074L37.3993 202.794C37.5016 203.73 38.3858 204.445 39.4654 204.455L49.8628 204.557H49.8833C50.8913 204.557 51.7253 203.848 51.7478 202.968C51.8502 198.993 51.8983 195.268 51.3845 193.369C51.1543 192.519 50.2588 191.908 49.2539 191.924C47.3566 191.948 43.9508 192.237 41.2133 192.47C39.9044 192.582 38.6672 192.687 37.7851 192.747V192.744Z" fill="white"/>
<path opacity="0.6" d="M38.9034 193.644C41.0873 193.495 45.8347 193.013 48.0861 192.986C49.0398 192.973 49.877 193.549 50.1 194.377C50.535 195.983 50.4777 199.184 50.4019 202.137C50.3794 203.023 49.5659 203.729 48.5732 203.719L40.2645 203.64C39.2411 203.629 38.3948 202.933 38.2996 202.027L37.569 195.058C37.4932 194.342 38.0929 193.7 38.9034 193.644Z" fill="white"/>
<g opacity="0.6">
<path d="M59.0164 199.559C59.1626 200.113 59.4896 200.603 59.9457 200.952C60.4018 201.3 60.9609 201.486 61.5349 201.482L157.731 200.663C158.241 200.651 158.726 200.439 159.082 200.074C159.438 199.709 159.636 199.219 159.636 198.709C159.635 198.199 159.434 197.71 159.077 197.346C158.72 196.982 158.234 196.772 157.724 196.761L61.5216 196.322C61.1259 196.321 60.7353 196.411 60.3798 196.584C60.0244 196.758 59.7136 197.011 59.4715 197.324C59.2294 197.637 59.0624 198.001 58.9835 198.388C58.9046 198.776 58.9158 199.176 59.0164 199.559Z" fill="white"/>
</g>
<path d="M39.3449 195.012C39.5282 194.904 39.7313 194.834 39.9422 194.806C40.153 194.777 40.3674 194.791 40.5727 194.847C40.778 194.903 40.97 194.999 41.1376 195.13C41.3051 195.261 41.4447 195.424 41.5482 195.61L43.595 199.284C43.6411 199.367 43.7095 199.436 43.7924 199.483C43.8754 199.529 43.9697 199.551 44.0647 199.547C44.1598 199.543 44.2517 199.513 44.3304 199.459C44.409 199.406 44.4711 199.331 44.5098 199.244L49.596 187.927C49.6497 187.807 49.743 187.71 49.8601 187.652C49.9773 187.593 50.111 187.577 50.2387 187.606C50.3664 187.634 50.4803 187.706 50.561 187.809C50.6418 187.912 50.6844 188.04 50.6817 188.171C50.6306 191.633 49.7116 198.214 44.1762 203.718C44.1762 203.718 41.1266 202.533 38.6705 197.142C38.5003 196.767 38.4749 196.341 38.5994 195.948C38.7239 195.555 38.9894 195.221 39.3449 195.012Z" fill="#59DFCC"/>
<path d="M49.8832 227.626H49.8545L39.4582 227.523C37.9723 227.51 36.7463 226.488 36.605 225.148L35.6912 216.436C35.6654 216.18 35.6919 215.922 35.769 215.677C35.846 215.432 35.972 215.206 36.1394 215.011C36.3385 214.78 36.5819 214.592 36.855 214.458C37.1282 214.323 37.4256 214.244 37.7297 214.226C38.6057 214.166 39.8399 214.061 41.1457 213.95C43.8955 213.716 47.3176 213.424 49.2436 213.401H49.2856C50.6528 213.401 51.8286 214.233 52.151 215.437C52.6923 217.439 52.6453 221.228 52.5419 225.264C52.5122 226.569 51.321 227.626 49.8832 227.626ZM37.785 215.017C37.5878 215.028 37.3946 215.078 37.217 215.164C37.0393 215.25 36.8807 215.371 36.7504 215.519C36.6523 215.632 36.5783 215.764 36.5327 215.906C36.4872 216.049 36.471 216.199 36.4853 216.348L37.3992 225.066C37.5015 226.003 38.3857 226.717 39.4653 226.728L49.8627 226.83H49.8832C50.8912 226.83 51.7253 226.12 51.7478 225.239C51.8501 221.265 51.8982 217.539 51.3845 215.641C51.1542 214.791 50.2588 214.176 49.2538 214.196C47.3565 214.219 43.9508 214.51 41.2133 214.742C39.9044 214.853 38.6671 214.959 37.785 215.019V215.017Z" fill="white"/>
<path opacity="0.6" d="M38.9034 215.917C41.0873 215.767 45.8347 215.286 48.0861 215.258C49.0398 215.246 49.877 215.822 50.1 216.649C50.535 218.255 50.4777 221.456 50.4019 224.41C50.3794 225.295 49.5659 226.001 48.5732 225.992L40.2645 225.912C39.2411 225.902 38.3948 225.206 38.2996 224.299L37.569 217.331C37.4932 216.61 38.0929 215.972 38.9034 215.917Z" fill="white"/>
<g opacity="0.6">
<path d="M59.0166 221.836C59.1629 222.391 59.49 222.881 59.9461 223.229C60.4022 223.577 60.9613 223.763 61.5351 223.758L157.731 222.94C158.241 222.927 158.726 222.716 159.082 222.35C159.438 221.985 159.637 221.495 159.636 220.985C159.635 220.475 159.434 219.986 159.077 219.622C158.72 219.258 158.234 219.048 157.724 219.037L61.5218 218.599C61.1261 218.597 60.7353 218.687 60.3798 218.861C60.0242 219.034 59.7134 219.288 59.4713 219.6C59.2291 219.913 59.0622 220.278 58.9834 220.665C58.9046 221.053 58.9159 221.453 59.0166 221.836Z" fill="white"/>
</g>
<path d="M49.8832 249.898H49.8545L39.4582 249.796C37.9723 249.782 36.7463 248.761 36.605 247.421L35.6912 238.701C35.6654 238.445 35.6919 238.187 35.769 237.942C35.846 237.697 35.972 237.471 36.1394 237.276C36.3387 237.046 36.5821 236.858 36.8552 236.723C37.1283 236.588 37.4257 236.51 37.7297 236.491C38.6057 236.431 39.8399 236.327 41.1457 236.215C43.8955 235.981 47.3176 235.691 49.2436 235.666H49.2856C50.6528 235.666 51.8286 236.498 52.151 237.701C52.6923 239.703 52.6453 243.492 52.5419 247.528C52.5122 248.841 51.321 249.898 49.8832 249.898ZM37.785 237.289C37.5878 237.3 37.3946 237.35 37.217 237.436C37.0393 237.522 36.8807 237.643 36.7504 237.792C36.6523 237.904 36.5783 238.036 36.5327 238.179C36.4872 238.321 36.471 238.471 36.4853 238.62L37.3992 247.339C37.5015 248.276 38.3857 248.99 39.4653 249L49.8627 249.102H49.8832C50.8912 249.102 51.7253 248.392 51.7478 247.512C51.8501 243.537 51.8982 239.812 51.3845 237.913C51.1542 237.063 50.2588 236.446 49.2538 236.468C47.3565 236.491 43.9508 236.782 41.2133 237.015C39.9044 237.126 38.6671 237.231 37.785 237.291V237.289Z" fill="white"/>
<path opacity="0.6" d="M38.9034 238.19C41.0873 238.04 45.8347 237.559 48.0861 237.531C49.0398 237.519 49.877 238.096 50.1 238.922C50.535 240.528 50.4777 243.729 50.4019 246.683C50.3794 247.568 49.5659 248.274 48.5732 248.265L40.2645 248.185C39.2411 248.176 38.3948 247.479 38.2996 246.572L37.569 239.604C37.4932 238.883 38.0929 238.245 38.9034 238.19Z" fill="white"/>
<g opacity="0.6">
<path d="M59.015 244.109C59.1613 244.664 59.4883 245.154 59.9444 245.502C60.4005 245.85 60.9597 246.036 61.5335 246.031L157.73 245.213C158.248 245.212 158.744 245.005 159.109 244.638C159.475 244.272 159.68 243.775 159.679 243.257C159.678 242.74 159.471 242.244 159.104 241.878C158.737 241.513 158.24 241.308 157.723 241.309L61.5202 240.872C61.1244 240.87 60.7335 240.96 60.3778 241.133C60.0222 241.307 59.7113 241.56 59.4691 241.873C59.2269 242.186 59.06 242.55 58.9813 242.938C58.9025 243.326 58.9141 243.726 59.015 244.109Z" fill="white"/>
</g>
<path d="M39.345 239.557C39.5284 239.45 39.7314 239.38 39.9422 239.351C40.153 239.323 40.3674 239.337 40.5726 239.393C40.7779 239.449 40.9699 239.545 41.1375 239.676C41.305 239.807 41.4447 239.97 41.5483 240.156L43.595 243.831C43.6412 243.914 43.7095 243.983 43.7925 244.029C43.8755 244.075 43.9698 244.098 44.0648 244.094C44.1598 244.09 44.2518 244.059 44.3304 244.006C44.4091 243.952 44.4712 243.878 44.5099 243.791L49.596 232.472C49.6498 232.353 49.7432 232.255 49.8604 232.197C49.9777 232.138 50.1115 232.122 50.2393 232.151C50.3671 232.18 50.481 232.252 50.5616 232.355C50.6423 232.459 50.6847 232.587 50.6818 232.717C50.6307 236.18 49.7117 242.76 44.1763 248.265C44.1763 248.265 41.1267 247.079 38.6706 241.689C38.5003 241.313 38.4749 240.887 38.5994 240.494C38.7239 240.101 38.9894 239.767 39.345 239.557Z" fill="#59DFCC"/>
<path d="M39.3455 216.698C39.5289 216.591 39.7318 216.521 39.9425 216.493C40.1531 216.465 40.3672 216.479 40.5722 216.535C40.7772 216.591 40.9691 216.687 41.1364 216.818C41.3038 216.949 41.4433 217.112 41.5468 217.297L43.5935 220.972C43.6385 221.057 43.7067 221.128 43.7904 221.177C43.8741 221.225 43.9698 221.249 44.0664 221.245C44.1629 221.241 44.2565 221.21 44.3362 221.155C44.4159 221.101 44.4784 221.025 44.5166 220.936L49.6027 209.618C49.6564 209.499 49.7498 209.401 49.8669 209.343C49.984 209.285 50.1177 209.268 50.2455 209.297C50.3732 209.326 50.487 209.398 50.5678 209.501C50.6485 209.604 50.6912 209.732 50.6885 209.862C50.6373 213.325 49.7184 219.906 44.183 225.41C44.183 225.41 41.1334 224.225 38.6773 218.834C38.5053 218.458 38.4783 218.032 38.6017 217.638C38.7251 217.244 38.99 216.909 39.3455 216.698Z" fill="#59DFCC"/>
<path d="M80.889 93.1559C89.8332 84.2163 89.8332 69.7222 80.889 60.7825C71.9449 51.8429 57.4436 51.8429 48.4995 60.7825C39.5553 69.7222 39.5553 84.2163 48.4995 93.1559C57.4436 102.096 71.9449 102.096 80.889 93.1559Z" fill="#91B3FA"/>
<path d="M77.8071 70.6443H70.1973V64.0919C70.1973 63.3532 69.9037 62.6447 69.3811 62.1224C68.8585 61.6001 68.1498 61.3066 67.4107 61.3066H61.8334C61.0947 61.3072 60.3864 61.6009 59.8642 62.1231C59.3421 62.6454 59.0488 63.3535 59.0488 64.0919V70.6443H51.437C50.698 70.6443 49.9892 70.9377 49.4666 71.46C48.944 71.9824 48.6504 72.6908 48.6504 73.4295V79.9072C48.6504 80.6459 48.944 81.3543 49.4666 81.8767C49.9892 82.399 50.698 82.6924 51.437 82.6924H59.0488V89.2448C59.0488 89.9835 59.3424 90.692 59.865 91.2143C60.3876 91.7366 61.0964 92.0301 61.8354 92.0301H67.4127C68.1518 92.0301 68.8606 91.7366 69.3832 91.2143C69.9058 90.692 70.1994 89.9835 70.1994 89.2448V82.6924H77.8071C78.5461 82.6924 79.2549 82.399 79.7775 81.8767C80.3001 81.3543 80.5937 80.6459 80.5937 79.9072V73.4295C80.5937 72.6908 80.3001 71.9824 79.7775 71.46C79.2549 70.9377 78.5461 70.6443 77.8071 70.6443Z" fill="white"/>
<path d="M109.295 9.86215C104.028 6.20034 99.4496 6.27194 96.226 7.22319C94.8002 7.64747 93.5656 8.55281 92.7328 9.78491C91.9 11.017 91.5204 12.4997 91.6587 13.9802L93.0454 29.1511L109.589 30.6189C109.589 30.6189 119.62 17.0436 109.295 9.86215ZM102.017 22.0934C101.201 22.0934 100.404 21.8516 99.7254 21.3986C99.047 20.9455 98.5183 20.3016 98.206 19.5482C97.8938 18.7948 97.8121 17.9657 97.9713 17.1659C98.1305 16.3661 98.5234 15.6314 99.1003 15.0548C99.6772 14.4782 100.412 14.0855 101.212 13.9264C102.013 13.7673 102.842 13.849 103.596 14.161C104.35 14.4731 104.994 15.0016 105.447 15.6796C105.9 16.3577 106.142 17.1548 106.142 17.9703C106.142 19.0638 105.708 20.1126 104.934 20.8858C104.161 21.659 103.111 22.0934 102.017 22.0934Z" fill="url(#paint1_linear_1128_21643)"/>
<path d="M94.698 22.7663C94.5985 22.766 94.5027 22.7286 94.4293 22.6615C94.3559 22.5943 94.3101 22.5023 94.3009 22.4032L94.0799 19.9883C94.0751 19.9361 94.0807 19.8835 94.0963 19.8334C94.1118 19.7834 94.1371 19.7369 94.1706 19.6966C94.2042 19.6564 94.2454 19.6231 94.2918 19.5987C94.3382 19.5743 94.3889 19.5593 94.4411 19.5546C94.4933 19.5498 94.546 19.5554 94.5961 19.5709C94.6461 19.5865 94.6926 19.6118 94.7329 19.6453C94.7732 19.6788 94.8065 19.7199 94.8309 19.7663C94.8553 19.8127 94.8703 19.8635 94.875 19.9156L95.0961 22.3306C95.101 22.3828 95.0956 22.4355 95.0801 22.4856C95.0645 22.5357 95.0393 22.5822 95.0057 22.6225C94.9721 22.6628 94.9309 22.6961 94.8844 22.7204C94.8379 22.7448 94.7871 22.7597 94.7348 22.7643C94.7226 22.766 94.7103 22.7667 94.698 22.7663ZM94.2641 18.0326C94.1648 18.0323 94.0691 17.995 93.9957 17.9281C93.9223 17.8612 93.8764 17.7693 93.867 17.6705L93.6992 15.8365C93.5706 14.4267 93.9336 13.0159 94.7266 11.843C95.5196 10.6701 96.6939 9.80728 98.0505 9.40071C100.014 8.81798 102.092 8.73257 104.097 9.15216C104.148 9.16228 104.198 9.18255 104.241 9.21179C104.285 9.24104 104.323 9.27868 104.352 9.32255C104.381 9.36642 104.402 9.41564 104.412 9.46738C104.422 9.51911 104.422 9.57232 104.411 9.62395C104.4 9.67558 104.38 9.72459 104.35 9.76816C104.32 9.81172 104.282 9.84898 104.238 9.87777C104.194 9.90657 104.144 9.92633 104.093 9.93591C104.041 9.9455 103.987 9.94472 103.936 9.93362C102.059 9.54141 100.115 9.6212 98.2767 10.1658C97.096 10.5185 96.0737 11.2687 95.3835 12.2891C94.6933 13.3096 94.3777 14.5373 94.4903 15.7639L94.6612 17.5979C94.666 17.65 94.6604 17.7027 94.6448 17.7527C94.6293 17.8028 94.604 17.8492 94.5704 17.8895C94.5369 17.9298 94.4957 17.9631 94.4493 17.9874C94.4029 18.0118 94.3521 18.0268 94.2999 18.0315L94.2641 18.0326Z" fill="#BDD0FB"/>
<path d="M70.4688 38.9478V31.3224C70.4687 30.6983 70.5942 30.0806 70.8379 29.506C71.0816 28.9314 71.4384 28.4117 71.8872 27.9778C72.3359 27.5439 72.8674 27.2046 73.45 26.9802C74.0327 26.7558 74.6545 26.6508 75.2786 26.6715L127.879 28.4728C129.006 28.5117 130.077 28.969 130.884 29.7552C131.691 30.5415 132.176 31.6003 132.244 32.7248L132.683 40.0514L70.4688 38.9478Z" fill="url(#paint2_linear_1128_21643)"/>
<path d="M90.0807 29.5449H87.819C87.7132 29.5449 87.6117 29.5029 87.5368 29.4281C87.462 29.3532 87.4199 29.2518 87.4199 29.146C87.4199 29.0402 87.462 28.9387 87.5368 28.8639C87.6117 28.7891 87.7132 28.7471 87.819 28.7471H90.0807C90.1865 28.7471 90.288 28.7891 90.3629 28.8639C90.4377 28.9387 90.4798 29.0402 90.4798 29.146C90.4798 29.2518 90.4377 29.3532 90.3629 29.4281C90.288 29.5029 90.1865 29.5449 90.0807 29.5449Z" fill="#BDD0FB"/>
<path d="M73.3151 36.5535C73.2093 36.5535 73.1078 36.5115 73.0329 36.4366C72.9581 36.3618 72.916 36.2604 72.916 36.1546V33.0696C72.9171 31.9236 73.3731 30.8247 74.1839 30.0143C74.9947 29.2039 76.0941 28.7482 77.2408 28.7471H85.5535C85.6594 28.7471 85.7609 28.7891 85.8357 28.8639C85.9106 28.9387 85.9527 29.0402 85.9527 29.146C85.9527 29.2518 85.9106 29.3532 85.8357 29.4281C85.7609 29.5029 85.6594 29.5449 85.5535 29.5449H77.2408C76.3058 29.546 75.4094 29.9177 74.7483 30.5785C74.0872 31.2393 73.7153 32.1352 73.7142 33.0696V36.1546C73.714 36.2603 73.6718 36.3616 73.597 36.4363C73.5223 36.5111 73.4209 36.5532 73.3151 36.5535Z" fill="#BDD0FB"/>
<path d="M50.2244 40.6778C50.2854 39.4065 50.8337 38.2074 51.7555 37.3292C52.6773 36.4511 53.902 35.9613 55.1754 35.9614H147.154C148.757 35.9614 150.307 36.5269 151.533 37.5583C152.758 38.5896 153.58 40.0204 153.853 41.5984L153.931 42.0474C154.077 42.8849 154.037 43.7441 153.815 44.5648C153.594 45.3855 153.195 46.1477 152.647 46.7982C152.1 47.4487 151.417 47.9716 150.646 48.3303C149.875 48.6891 149.034 48.8749 148.184 48.8749H53.8133C53.2999 48.875 52.7918 48.7708 52.3197 48.5689C51.8477 48.367 51.4215 48.0714 51.0671 47.7001C50.7126 47.3288 50.4372 46.8895 50.2576 46.4088C50.0779 45.928 49.9977 45.4158 50.0218 44.9032L50.2244 40.6778Z" fill="#84E5D8"/>
<path d="M93.7516 267.453C93.7052 267.406 93.6548 267.359 93.6074 267.312C93.6638 267.35 93.7127 267.397 93.7516 267.453Z" fill="url(#paint3_linear_1128_21643)"/>
<path fill-rule="evenodd" clip-rule="evenodd" d="M203.296 272.999C203.296 272.999 194.615 279.739 197.371 279.538C200.126 279.338 208.053 278.849 208.207 278.326C208.36 277.804 207.481 272.905 206.732 272.999C205.983 273.093 203.296 273.741 203.296 272.999Z" fill="url(#paint4_linear_1128_21643)"/>
<path d="M217.875 81.0098C217.875 81.0098 225.243 85.8888 224.776 97.6874C224.469 105.461 229.236 113.144 233.27 119.431C238.403 127.427 248.389 135.853 241.969 146.072C237.94 152.485 228.218 162.239 219.895 161.346C215.64 160.888 209.699 156.476 207.684 152.736C194.763 128.753 195.269 94.536 200.949 87.9437C206.629 81.3514 217.875 81.0098 217.875 81.0098Z" fill="url(#paint5_linear_1128_21643)"/>
<path fill-rule="evenodd" clip-rule="evenodd" d="M208.2 231.347C208.2 231.347 208.2 264.078 206.659 273.294C206.622 273.525 206.515 273.739 206.351 273.906C206.188 274.073 205.976 274.185 205.746 274.227C205.157 274.316 204.555 274.227 204.017 273.971C203.844 273.89 203.694 273.766 203.582 273.61C203.47 273.454 203.401 273.273 203.38 273.082L199.025 231.92L208.2 231.347Z" fill="url(#paint6_linear_1128_21643)"/>
<path fill-rule="evenodd" clip-rule="evenodd" d="M212.085 272.272L211.573 273.525L211.207 278.039C211.237 278.673 211.748 279.205 212.435 279.311C213.378 279.456 215.321 279.604 216.609 279.504C217.618 279.426 218.247 278.481 217.856 277.633L216.34 274.377C216.228 274.136 216.068 273.92 215.87 273.742C215.672 273.564 215.441 273.428 215.189 273.341L212.085 272.272Z" fill="url(#paint7_linear_1128_21643)"/>
<path fill-rule="evenodd" clip-rule="evenodd" d="M210.494 231.347C210.494 231.347 210.494 264.507 212.073 273.513C212.097 273.658 212.161 273.794 212.257 273.906C212.353 274.018 212.478 274.101 212.619 274.147C213.077 274.293 213.847 274.382 214.827 273.9C214.953 273.839 215.061 273.747 215.142 273.633C215.224 273.52 215.276 273.388 215.294 273.249L219.669 231.92L210.494 231.347Z" fill="url(#paint8_linear_1128_21643)"/>
<path d="M203.462 111.304C203.462 111.304 197.748 116.039 196.7 123.015C195.652 129.991 187.681 137.09 195.631 144.808C195.631 144.808 174.23 168.57 190.772 193.373C192.736 213.836 194.028 233.904 194.028 233.904H223.611C223.611 233.904 236.476 167.803 220.815 160.39C223.028 148.037 225.044 123.235 224.499 120.045C223.843 116.235 211.852 107.927 203.462 111.304Z" fill="url(#paint9_linear_1128_21643)"/>
<path d="M203.547 102.991V113.731C203.546 114.151 203.696 114.558 203.97 114.877C204.244 115.197 204.624 115.407 205.04 115.47C206.464 115.683 208.667 115.85 210.557 115.281C210.977 115.157 211.337 114.881 211.565 114.507C211.793 114.132 211.874 113.687 211.791 113.256L209.789 102.991H203.547Z" fill="url(#paint10_linear_1128_21643)"/>
<path d="M199.574 87.2583C199.574 87.2583 192.768 105.4 201.416 107.603C211.597 110.196 215.027 96.7545 215.027 96.7545C215.027 96.7545 206.097 71.1003 199.574 87.2583Z" fill="url(#paint11_linear_1128_21643)"/>
<path d="M196.817 85.756C196.725 86.0969 196.722 86.4559 196.81 86.798C196.898 87.1401 197.073 87.4537 197.317 87.7083C197.562 87.9629 197.869 88.1497 198.208 88.2507C198.546 88.3517 198.905 88.3633 199.25 88.2845C200.767 87.9357 202.634 87.6206 204.251 87.683C215.17 88.1085 210.916 95.1949 210.916 96.3292C210.916 98.648 213.196 95.1222 213.326 95.9037C213.611 97.6047 212.282 102.765 212.282 102.765C212.282 102.765 219.282 101.29 221.551 97.888C223.82 94.486 221.267 86.833 220.417 83.9987C219.567 81.1644 213.894 78.3291 210.774 78.6124C207.989 78.862 199.08 77.5323 196.817 85.756Z" fill="url(#paint12_linear_1128_21643)"/>
<path d="M211.912 97.8866C211.912 97.8866 212.763 93.6346 215.031 94.4856C217.3 95.3367 213.329 100.154 211.912 101.005V97.8866Z" fill="url(#paint13_linear_1128_21643)"/>
<path d="M218.727 118.591C218.906 118.098 219.226 117.668 219.647 117.355C220.067 117.042 220.571 116.859 221.094 116.829C221.618 116.798 222.139 116.922 222.593 117.184C223.047 117.446 223.415 117.836 223.65 118.304C229.194 129.339 238.862 155.076 217.033 168.582L214.453 164.917C214.453 164.917 226.355 147.495 217.202 130.823C216.649 129.817 216.318 128.704 216.23 127.56C216.142 126.416 216.299 125.265 216.69 124.187L218.727 118.591Z" fill="url(#paint14_linear_1128_21643)"/>
<path d="M214.342 164.884C214.342 164.884 207.946 167.236 207.609 172.285C207.272 177.334 207.946 178.678 208.956 176.995C209.966 175.313 210.975 173.631 212.995 172.285C215.015 170.939 217.034 168.584 217.034 168.584C217.034 168.584 216.698 164.884 214.342 164.884Z" fill="url(#paint15_linear_1128_21643)"/>
<path d="M187.201 155.413C187.201 155.413 182.408 161.568 186.142 162.386C186.142 162.386 189.411 159.871 190.497 157.312C191.582 154.754 188.552 153.365 187.201 155.413Z" fill="url(#paint16_linear_1128_21643)"/>
<path d="M237.728 142.831C237.712 142.831 237.697 142.828 237.682 142.823C237.667 142.817 237.652 142.808 237.64 142.797C237.627 142.785 237.617 142.772 237.61 142.756C237.603 142.741 237.599 142.724 237.599 142.708C237.598 142.691 237.601 142.674 237.607 142.658C240.081 135.974 236.686 129.166 229.557 118.94C222.482 108.796 221.786 94.5228 221.779 94.3796C221.779 94.3628 221.781 94.346 221.787 94.3302C221.793 94.3145 221.802 94.3 221.813 94.2876C221.825 94.2753 221.838 94.2653 221.854 94.2583C221.869 94.2512 221.885 94.2472 221.902 94.2466H221.908C221.941 94.2465 221.973 94.2592 221.997 94.2818C222.021 94.3045 222.035 94.3355 222.036 94.3683C222.042 94.5105 222.737 108.712 229.768 118.794C236.948 129.09 240.362 135.957 237.852 142.747C237.843 142.773 237.826 142.794 237.804 142.809C237.781 142.824 237.755 142.832 237.728 142.831Z" fill="#91B3FA"/>
<path d="M111.138 138.421C111.118 138.435 111.102 138.453 111.089 138.473L111.218 138.481C111.197 138.512 111.307 138.564 111.307 138.625L111.17 138.691C111.17 138.755 111.096 138.838 111.078 138.929L111.04 138.968C110.814 140.307 109.545 143.969 108.203 148.71C108.189 148.75 108.172 148.793 108.16 148.832C105.146 159.47 100.785 175.529 99.4722 182.943C99.4722 182.943 97.1379 183.689 93.5203 184.714H93.5121C88.2858 185.737 80.3988 186.855 73.0602 184.934C73.0602 184.934 69.1172 152.736 73.8953 124.854C73.8953 124.854 86.4294 121.719 99.9593 120.865C100.029 120.865 100.099 120.729 100.164 120.725C101.256 120.664 102.351 120.497 103.447 120.497H104.699C105.259 120.497 106.272 121.063 107.455 121.562C107.49 121.575 107.558 121.635 107.558 121.653C107.558 121.653 107.566 121.643 107.571 121.643C107.666 121.707 107.765 121.766 107.867 121.819C108.001 121.876 108.14 121.956 108.283 122.023C108.314 122.041 108.349 122.065 108.38 122.078C108.393 122.088 108.41 122.095 108.423 122.104C108.515 122.152 108.61 122.206 108.71 122.249C108.732 122.257 108.749 122.268 108.766 122.276C108.879 122.333 108.993 122.393 109.11 122.455C109.128 122.463 109.036 122.472 109.053 122.485C109.188 122.555 109.36 122.629 109.501 122.702C109.642 122.776 109.723 122.837 109.731 122.907L109.749 122.794C109.814 122.829 109.884 122.868 109.954 122.907C109.96 122.909 109.966 122.912 109.971 122.916C110.72 123.348 111.43 123.846 112.092 124.402C112.092 124.402 112.092 124.41 112.101 124.416L112.131 124.459C115.162 129.503 116.572 137.746 111.138 138.421Z" fill="url(#paint17_linear_1128_21643)"/>
<path d="M142.799 146.76C129.163 145.318 122.761 134.818 117.693 128.144C111.001 119.328 103.613 120.851 103.613 120.851L108.135 140.305C118.253 156.419 132.724 157.182 142.453 155.34C143.29 152.555 143.409 149.603 142.799 146.76Z" fill="#BDD0FB"/>
<path d="M163.282 143.727L158.32 144.938C152.274 146.759 147.166 147.223 142.799 146.761C143.409 149.604 143.29 152.555 142.453 155.339C148.646 154.167 152.917 151.939 152.917 151.939C164.305 148.62 163.282 143.727 163.282 143.727Z" fill="#BDD0FB"/>
<path d="M174.51 153.19C174.491 152.693 174.361 152.206 174.129 151.767C173.896 151.327 173.568 150.945 173.168 150.65L165.258 144.803C165.258 144.803 165.42 143.637 167.619 143.387C169.818 143.136 169.934 140.777 169.934 140.777C169.934 140.777 166.878 141.313 162.361 142.249C159.78 142.784 157.978 144.446 156.906 145.771L158.403 149.351C163.418 152.4 168.85 154.144 174.573 154.94L174.51 153.19Z" fill="url(#paint18_linear_1128_21643)"/>
<path d="M104.838 120.743C104.79 120.743 104.747 120.743 104.703 120.743C104.69 120.743 104.681 120.743 104.668 120.733L104.838 120.743Z" fill="url(#paint19_linear_1128_21643)"/>
<path d="M107.582 120.595L107.562 120.604V120.585C107.565 120.588 107.568 120.59 107.571 120.592C107.574 120.594 107.578 120.595 107.582 120.595Z" fill="url(#paint20_linear_1128_21643)"/>
<path d="M99.5843 272.328C99.5843 272.328 98.8762 276.334 98.5293 280.299C98.4981 280.667 98.5419 281.037 98.6578 281.387C98.7738 281.738 98.9595 282.061 99.2039 282.337C99.4483 282.614 99.7461 282.838 100.08 282.996C100.413 283.155 100.775 283.244 101.144 283.258C106.427 283.478 117.722 283.906 121.781 283.725C121.923 283.718 122.061 283.678 122.183 283.607C122.306 283.536 122.41 283.437 122.487 283.318C122.563 283.199 122.61 283.063 122.624 282.922C122.637 282.781 122.617 282.639 122.564 282.508C122.373 282.032 122.007 281.648 121.541 281.436L102.874 272.861L99.5843 272.328Z" fill="url(#paint21_linear_1128_21643)"/>
<path d="M99.0039 269.975L99.5729 274.766C99.5729 274.766 102.848 276.288 105.076 274.575L103.722 269.235L99.0039 269.975Z" fill="url(#paint22_linear_1128_21643)"/>
<path d="M99.4324 179.901C99.1868 181.152 98.1133 242.337 104.652 269.756C104.705 269.972 104.679 270.2 104.579 270.398C104.479 270.597 104.311 270.753 104.105 270.839C103.102 271.248 101.137 271.842 98.7765 271.921C98.4212 271.932 98.0721 271.826 97.7841 271.617C97.4961 271.409 97.2854 271.111 97.1851 270.77C95.3206 264.407 86.3579 232.535 85.1882 202.088C83.8814 168.065 85.1882 200.929 85.1882 200.929L85.9547 179.898L99.4324 179.901Z" fill="url(#paint23_linear_1128_21643)"/>
<path d="M78.1115 274.418C78.1115 274.418 76.9858 276.44 75.8938 281.813C75.8465 282.042 75.8479 282.279 75.8981 282.507C75.9482 282.736 76.0459 282.951 76.1848 283.14C76.3237 283.328 76.5007 283.485 76.7043 283.6C76.9079 283.716 77.1335 283.787 77.3665 283.81C79.1062 283.981 81.7956 284.202 83.9467 284.186C84.1808 284.185 84.4121 284.135 84.6254 284.039C84.8388 283.943 85.0294 283.803 85.1849 283.628C85.3403 283.453 85.457 283.247 85.5274 283.024C85.5978 282.801 85.6202 282.565 85.5933 282.333C85.3548 280.372 84.6119 277.154 82.3185 274.646L78.1115 274.418Z" fill="url(#paint24_linear_1128_21643)"/>
<path d="M77.123 268.255L78.4534 275.501C78.4534 275.501 79.7674 276.478 82.3668 275.77L81.7333 267.974L77.123 268.255Z" fill="url(#paint25_linear_1128_21643)"/>
<path d="M73.5331 181.779C68.181 214.06 74.6936 261.562 76.8898 270.864C76.9548 271.142 77.1007 271.395 77.3092 271.591C77.5177 271.787 77.7794 271.917 78.0615 271.964C79.0419 272.127 80.6558 272.26 82.2471 271.797C82.5152 271.719 82.7517 271.558 82.9233 271.338C83.0948 271.118 83.1927 270.849 83.2029 270.57C83.4976 263.052 82.9675 216.905 87.9544 198.663C88.2089 197.743 88.7736 196.939 89.5529 196.388L99.2308 189.511L99.9728 178.395L73.5331 181.779Z" fill="url(#paint26_linear_1128_21643)"/>
<path d="M80.0498 140.343L73.8983 124.821C73.8983 124.821 58.9183 134.994 56.4551 147.892C59.2857 148.097 64.4373 148.837 69.4774 151.381C70.5857 145.291 80.0498 140.343 80.0498 140.343Z" fill="white"/>
<path d="M91.3872 107.598L86.2837 122.347C86.2424 122.465 86.2441 122.594 86.2884 122.711C86.3328 122.829 86.417 122.926 86.5262 122.988C87.917 123.757 92.9294 125.978 98.9683 122.151C99.28 121.956 99.545 121.695 99.7443 121.386C99.9437 121.077 100.072 120.728 100.122 120.364L101.774 107.598H91.3872Z" fill="url(#paint27_linear_1128_21643)"/>
<path d="M81.7026 123.16L87.7916 117.991L96.8996 140.22L90.261 228.55L69.5174 229.17C69.445 229.172 69.3728 229.159 69.3055 229.132C69.2382 229.106 69.177 229.065 69.1259 229.014C69.0747 228.963 69.0346 228.901 69.0079 228.834C68.9813 228.767 68.9687 228.694 68.971 228.622L71.8671 143.642C71.8671 143.642 71.9459 125.28 73.8985 124.822C75.851 124.364 81.7026 123.16 81.7026 123.16Z" fill="white"/>
<path d="M111.191 138.481L111.307 138.625L111.17 138.69L111.077 138.929L111.017 138.968L109.256 156.506V156.516L102.036 229.69C102.034 229.76 102.017 229.829 101.988 229.892C101.959 229.956 101.917 230.013 101.865 230.06C101.811 230.103 101.748 230.134 101.681 230.152C101.614 230.169 101.544 230.173 101.475 230.162L90.252 228.545L93.5144 184.625L93.5196 184.559L96.9325 139.074L100.029 120.81V120.799L100.464 117.988L103.468 120.638H103.507L104.367 120.685L104.722 120.702C105.278 120.851 107.561 121.711 107.561 121.711C107.561 121.711 108.357 122.067 108.74 122.25C108.755 122.258 108.77 122.266 108.784 122.276C108.898 122.332 109.004 122.393 109.122 122.454C109.139 122.463 109.084 122.471 109.101 122.484C109.336 122.615 109.598 122.758 109.598 122.911V122.919L110.928 138.411L111.068 138.463L111.191 138.481Z" fill="#BDD0FB"/>
<path d="M100.713 140.039V142.201L108.572 141.721V139.318L100.713 140.039Z" fill="url(#paint28_linear_1128_21643)"/>
<path d="M96.4097 145.288C96.3814 145.288 96.3536 145.281 96.3289 145.267L89.329 141.51C89.3056 141.498 89.2855 141.48 89.2702 141.458C89.2549 141.437 89.2449 141.412 89.241 141.386L88.278 134.901L85.691 134.441C85.6601 134.436 85.6312 134.422 85.6077 134.401C85.5842 134.381 85.567 134.354 85.5579 134.324L82.8573 125.556C82.8506 125.534 82.8483 125.512 82.8503 125.49C82.8524 125.467 82.8588 125.446 82.8693 125.426C82.8797 125.406 82.894 125.388 82.9113 125.374C82.9285 125.36 82.9484 125.349 82.9699 125.342C82.9914 125.335 83.014 125.333 83.0365 125.335C83.059 125.337 83.0809 125.343 83.1008 125.354C83.1207 125.364 83.1384 125.379 83.1526 125.396C83.1668 125.414 83.1774 125.434 83.1837 125.456L85.8537 134.124L88.4582 134.587C88.4935 134.592 88.5261 134.609 88.5511 134.635C88.5762 134.66 88.5923 134.693 88.5973 134.729L89.5665 141.251L96.4905 144.967C96.524 144.985 96.5505 145.013 96.5658 145.048C96.5812 145.083 96.5845 145.122 96.5752 145.159C96.5659 145.195 96.5446 145.228 96.5146 145.252C96.4846 145.275 96.4477 145.288 96.4097 145.288Z" fill="#91B3FA"/>
<path d="M98.0738 143.14C98.0516 143.14 98.0297 143.135 98.0103 143.124C97.9956 143.115 97.9827 143.104 97.9724 143.091C97.962 143.078 97.9544 143.062 97.9499 143.046C97.9454 143.03 97.9442 143.013 97.9463 142.996C97.9484 142.979 97.9539 142.963 97.9622 142.949L101.646 136.505L101.038 132.856C101.034 132.83 101.038 132.803 101.05 132.779C101.062 132.755 101.081 132.735 101.104 132.722L104.079 131.14L103.327 120.656C103.324 120.622 103.336 120.589 103.358 120.563C103.38 120.538 103.412 120.522 103.445 120.52C103.462 120.518 103.479 120.52 103.495 120.525C103.512 120.53 103.526 120.539 103.539 120.55C103.552 120.561 103.562 120.574 103.57 120.59C103.577 120.605 103.582 120.621 103.583 120.638L104.341 131.205C104.343 131.23 104.337 131.255 104.325 131.276C104.313 131.298 104.295 131.316 104.273 131.327L101.306 132.905L101.906 136.508C101.911 136.537 101.906 136.567 101.892 136.593L98.1905 143.079C98.1782 143.098 98.1609 143.114 98.1404 143.125C98.1199 143.136 98.0969 143.141 98.0738 143.14Z" fill="white"/>
<path d="M93.1609 154.493C93.1609 154.493 76.344 163.994 70.6664 155.883C69.4885 154.199 69.207 152.525 69.4967 150.929C64.4556 148.384 59.305 147.649 56.4744 147.44C55.7314 151.327 56.1244 155.464 58.4106 159.645C68.3505 177.82 95.3867 158.64 95.3867 158.64L93.1609 154.493Z" fill="white"/>
<path d="M91.1397 166.512L100.319 134.472C100.37 134.295 100.472 134.136 100.612 134.016C100.753 133.896 100.926 133.821 101.109 133.799C102.773 133.606 107.592 133.061 113.156 132.59C119.858 132.024 127.641 131.568 132.293 131.955C132.446 131.967 132.593 132.017 132.723 132.099C132.852 132.181 132.959 132.293 133.034 132.427C133.11 132.56 133.152 132.709 133.156 132.862C133.161 133.015 133.128 133.167 133.06 133.304C130.415 138.653 119.536 160.41 114.089 167.534C114 167.651 113.885 167.745 113.754 167.809C113.622 167.874 113.478 167.907 113.331 167.905L92.0341 167.708C91.8895 167.707 91.7471 167.672 91.6181 167.607C91.4891 167.542 91.3769 167.447 91.2904 167.332C91.2038 167.216 91.1451 167.082 91.119 166.94C91.0928 166.797 91.0999 166.651 91.1397 166.512Z" fill="url(#paint29_linear_1128_21643)"/>
<path d="M114.106 129.813L120.758 128.704C120.839 128.691 120.922 128.698 120.999 128.727C121.077 128.755 121.145 128.802 121.199 128.865C121.252 128.927 121.289 129.002 121.305 129.083C121.321 129.164 121.315 129.247 121.29 129.325L120.631 131.32C120.603 131.404 120.552 131.478 120.484 131.535C120.416 131.591 120.333 131.628 120.246 131.641L113.842 132.496C113.765 132.506 113.687 132.498 113.614 132.471C113.542 132.445 113.476 132.401 113.424 132.344C113.372 132.286 113.335 132.217 113.316 132.143C113.297 132.068 113.296 131.989 113.314 131.914L113.723 130.175C113.744 130.084 113.792 130.001 113.86 129.936C113.928 129.872 114.013 129.829 114.106 129.813Z" fill="#91B3FA"/>
<path d="M109.125 135.444L109.673 132.59C109.7 132.45 109.771 132.323 109.876 132.227C109.981 132.131 110.114 132.072 110.255 132.057L123.697 130.694C123.802 130.683 123.908 130.698 124.006 130.737C124.104 130.776 124.191 130.837 124.26 130.917C124.329 130.996 124.379 131.091 124.404 131.193C124.429 131.295 124.43 131.402 124.405 131.505L123.551 135.061C123.517 135.201 123.439 135.325 123.328 135.416C123.217 135.507 123.08 135.56 122.936 135.567L109.808 136.227C109.708 136.232 109.608 136.215 109.516 136.176C109.423 136.137 109.341 136.077 109.276 136.002C109.21 135.926 109.162 135.837 109.136 135.74C109.11 135.643 109.106 135.542 109.125 135.444Z" fill="#7D97F4"/>
<path d="M93.3577 158.771C93.3577 158.771 92.0795 153.516 92.5953 151.651C93.1111 149.786 94.1099 147.39 97.4409 147.923C100.772 148.456 104.707 149.858 104.707 149.858C104.707 149.858 104.508 152.286 101.976 151.503L103.546 152.717C103.546 152.717 103.322 154.66 101.183 153.623L102.644 155.233C102.644 155.233 101.723 156.83 100.152 155.806C98.5809 154.782 97.8196 159.404 93.3577 158.771Z" fill="url(#paint30_linear_1128_21643)"/>
<path d="M77.3284 159.165C75.7729 159.165 74.3453 158.935 73.2606 158.339C73.2208 158.317 73.1913 158.281 73.1787 158.237C73.166 158.194 73.1712 158.147 73.193 158.107C73.2149 158.067 73.2516 158.038 73.2952 158.025C73.3387 158.013 73.3856 158.018 73.4253 158.04C77.9281 160.51 89.0081 156.292 89.1196 156.248C89.1473 156.238 91.3158 155.487 92.0874 153.971C92.108 153.93 92.144 153.899 92.1873 153.885C92.2307 153.871 92.278 153.874 92.3187 153.895C92.3594 153.916 92.3902 153.952 92.4044 153.995C92.4186 154.038 92.415 154.086 92.3944 154.126C91.5542 155.763 89.3243 156.537 89.2342 156.57C88.8873 156.701 82.4197 159.165 77.3284 159.165Z" fill="#91B3FA"/>
<path d="M71.2619 167.628C71.2166 167.629 71.1728 167.611 71.1401 167.58C71.1075 167.548 71.0887 167.505 71.0879 167.46C71.0871 167.415 71.1043 167.371 71.1358 167.338C71.1673 167.306 71.2104 167.287 71.2558 167.286C84.0365 166.847 91.327 160.993 91.3996 160.933C91.4169 160.918 91.437 160.907 91.4586 160.9C91.4803 160.893 91.5031 160.891 91.5257 160.893C91.5484 160.895 91.5704 160.901 91.5905 160.912C91.6107 160.922 91.6285 160.937 91.6429 160.954C91.6573 160.972 91.6681 160.992 91.6746 161.014C91.6811 161.036 91.6832 161.059 91.6808 161.081C91.6783 161.104 91.6714 161.126 91.6604 161.146C91.6493 161.166 91.6345 161.183 91.6166 161.197C91.5429 161.257 84.1716 167.184 71.268 167.628H71.2619Z" fill="#91B3FA"/>
<path d="M104.862 93.6152C104.862 93.6152 107.325 102.562 106.938 107.015C106.551 111.467 107.093 114.474 101.853 114.633C96.612 114.791 92.669 111.629 90.9651 106.892C90.9651 106.892 88.2808 99.5846 89.4986 96.9231C90.7164 94.2617 104.862 93.6152 104.862 93.6152Z" fill="url(#paint31_linear_1128_21643)"/>
<path d="M83.976 94.1135C85.0925 93.4179 85.8181 93.6583 86.2438 94.0112C86.2966 94.0558 86.3614 94.0837 86.43 94.0916C86.4987 94.0994 86.5681 94.0867 86.6296 94.0552C86.6408 93.9232 87.4882 84.7789 99.9599 86.3838C100.594 86.4656 101.237 86.357 101.809 86.0719C102.381 85.7869 102.855 85.3382 103.17 84.783C104.645 82.187 107.442 78.3707 109.554 82.099C112.56 87.4036 113.451 94.3631 104.94 95.8053C104.436 95.8912 103.929 95.9587 103.418 96.0098C99.9047 96.8752 95.9023 97.1483 94.4194 97.5216C91.9419 98.1466 93.8351 103.908 93.8351 103.908L93.1883 103.815L91.8109 103.619C91.6062 103.59 91.4159 103.816 91.4015 104.018L91.0802 107.958C91.0735 108.042 91.0384 108.122 90.9806 108.184C90.9229 108.246 90.8458 108.287 90.7619 108.299C90.1326 108.368 88.4982 108.306 85.9859 106.458C83.5298 104.657 84.7087 103.743 85.4609 103.39C85.51 103.366 85.5527 103.33 85.5855 103.286C85.6182 103.243 85.6402 103.192 85.6496 103.138C85.659 103.084 85.6555 103.029 85.6394 102.977C85.6233 102.924 85.5951 102.877 85.5571 102.837C82.2035 99.1971 82.0357 95.3215 83.976 94.1135Z" fill="url(#paint32_linear_1128_21643)"/>
<path d="M93.2087 104.811C93.2087 104.811 92.5794 99.2309 89.9503 100.394C87.3213 101.557 90.3392 106.601 92.2509 107.079L93.2087 104.811Z" fill="url(#paint33_linear_1128_21643)"/>
<path d="M107.147 94.1174C107.113 94.1127 107.082 94.0982 107.056 94.0758C107.031 94.0534 107.013 94.024 107.004 93.9914C106.995 93.9587 106.996 93.9241 107.007 93.892C107.017 93.8599 107.037 93.8316 107.064 93.8106C108.857 92.3939 109.841 90.7553 109.991 88.9408C110.251 85.7853 107.873 83.13 107.849 83.1034C107.822 83.0688 107.809 83.0252 107.812 82.9815C107.816 82.9377 107.836 82.897 107.869 82.8674C107.901 82.8379 107.944 82.8218 107.988 82.8223C108.032 82.8228 108.074 82.8399 108.106 82.8702C108.208 82.9827 110.607 85.6584 110.337 88.9664C110.18 90.8822 109.152 92.6026 107.279 94.0806C107.261 94.0958 107.24 94.107 107.217 94.1133C107.194 94.1197 107.17 94.1211 107.147 94.1174Z" fill="white"/>
<path d="M247.489 172.825L232.201 173.014L237.553 167.979C238.201 167.367 239.035 166.989 239.922 166.906C240.809 166.823 241.699 167.039 242.449 167.52C243.478 168.178 244.396 168.996 245.168 169.942C245.168 169.942 254.708 166.457 259.333 158.661C261.158 161.384 262.694 164.29 263.916 167.331C259.766 169.764 254.393 171.676 247.489 172.825Z" fill="url(#paint34_linear_1128_21643)"/>
<path d="M227.603 281.829C231.674 282.18 238.741 282.749 244.311 282.997C247.659 283.144 249.587 282.817 250.698 282.372C250.698 282.498 250.693 282.615 250.687 282.726C250.672 283.01 250.551 283.279 250.349 283.48C250.147 283.68 249.877 283.799 249.592 283.813C239.067 284.4 230.696 284.018 227.716 283.834C227.576 283.828 227.44 283.785 227.321 283.71C227.202 283.635 227.104 283.532 227.037 283.408C226.97 283.285 226.936 283.147 226.938 283.006C226.939 282.866 226.977 282.728 227.048 282.607C227.214 282.335 227.4 282.074 227.603 281.829Z" fill="url(#paint35_linear_1128_21643)"/>
<path d="M244.311 282.996C238.741 282.752 231.674 282.178 227.604 281.828C231.606 276.919 244.311 273.612 244.311 273.612H247.899C250.367 277.167 250.724 280.553 250.698 282.372C249.587 282.819 247.655 283.144 244.311 282.996Z" fill="url(#paint36_linear_1128_21643)"/>
<path d="M248.503 267.757L248.168 274.399C248.151 274.75 248.012 275.084 247.776 275.344C247.539 275.604 247.22 275.774 246.872 275.825C245.969 275.96 245.046 275.884 244.177 275.602C243.87 275.501 243.596 275.32 243.383 275.077C243.171 274.835 243.028 274.539 242.969 274.222L241.809 267.757H248.503Z" fill="url(#paint37_linear_1128_21643)"/>
<path d="M290.149 287.538C291.915 287.251 292.714 286.184 293.048 285.042C293.048 285.053 293.048 285.064 293.055 285.074C293.315 286.277 292.713 287.529 291.509 288.118C290.054 288.834 288.463 288.957 287.228 288.898C285.903 288.834 284.686 288.196 284.018 287.175L284.008 287.16C285.338 287.926 287.205 288.016 290.149 287.538Z" fill="url(#paint38_linear_1128_21643)"/>
<path d="M281.824 269.803H284.784C289.287 269.696 292.122 280.759 293.048 285.044C292.713 286.185 291.915 287.252 290.148 287.539C287.204 288.017 285.339 287.927 284.008 287.161C281.573 283.432 280.366 277.97 279.786 274.784C279.125 271.158 281.824 269.803 281.824 269.803Z" fill="url(#paint39_linear_1128_21643)"/>
<path d="M284.403 263.638L286.047 270.171C286.144 270.561 286.106 270.972 285.938 271.337C285.771 271.702 285.484 271.999 285.126 272.18C284.205 272.652 282.912 273.147 281.723 273.003C281.45 272.968 281.192 272.856 280.978 272.682C280.765 272.508 280.604 272.277 280.515 272.016L278.102 265.144L284.403 263.638Z" fill="url(#paint40_linear_1128_21643)"/>
<path d="M226.6 177.606C226.6 177.606 241.284 269.349 241.042 269.853C241.042 269.853 245.098 271.694 249.52 270.088C249.52 270.088 248.19 221.044 245.081 202.24C245.081 202.24 270.142 246.076 278.099 267.918C278.099 267.918 282.25 267.423 285.687 265.163C285.687 265.163 258.703 186.261 251.506 175.752L226.6 177.606Z" fill="url(#paint41_linear_1128_21643)"/>
<path d="M244.495 202.039C244.628 202.039 244.758 202.001 244.87 201.93C245.03 201.831 245.143 201.672 245.185 201.489C245.227 201.305 245.195 201.113 245.095 200.954L239.608 192.194C239.557 192.112 239.489 192.042 239.41 191.987C239.331 191.932 239.241 191.894 239.147 191.875L235.108 191.063C235.016 191.041 234.92 191.038 234.826 191.054C234.732 191.07 234.643 191.105 234.563 191.157C234.483 191.208 234.414 191.275 234.36 191.353C234.306 191.432 234.269 191.52 234.25 191.614C234.232 191.707 234.232 191.803 234.251 191.896C234.27 191.989 234.307 192.078 234.361 192.156C234.415 192.234 234.484 192.301 234.564 192.352C234.645 192.403 234.734 192.438 234.828 192.454L238.567 193.206L243.889 201.707C243.953 201.81 244.043 201.894 244.149 201.952C244.255 202.01 244.374 202.04 244.495 202.039Z" fill="url(#paint42_linear_1128_21643)"/>
<path d="M225.1 118.321C227.57 113.144 248.893 112.593 264.516 117.757C266.137 118.29 267.626 119.16 268.888 120.307C270.149 121.455 271.155 122.856 271.838 124.419C276.065 134.112 282.906 156.186 263.913 167.331C262.692 164.29 261.155 161.384 259.33 158.661C262.389 153.504 263.294 146.461 257.866 137.289C253.908 147.971 252.052 163.557 251.664 170.454C251.537 172.725 251.935 174.995 252.826 177.088L252.923 177.317C252.968 177.423 252.989 177.538 252.985 177.653C252.98 177.768 252.951 177.88 252.898 177.982C252.846 178.085 252.771 178.174 252.68 178.244C252.589 178.315 252.484 178.364 252.372 178.389C241.679 180.79 230.558 180.137 227.236 179.863C226.948 179.84 226.675 179.726 226.455 179.538C226.235 179.35 226.081 179.098 226.013 178.817C220.814 156.92 221.38 126.118 225.1 118.321Z" fill="#84E5D8"/>
<path d="M248.44 100.791C248.44 100.791 249.522 112.221 250.475 115.602C250.545 115.852 250.529 116.117 250.431 116.357C250.332 116.596 250.156 116.796 249.93 116.923C248.313 117.844 244.437 119.352 239.134 116.754C238.716 116.546 238.369 116.222 238.132 115.82C237.896 115.418 237.782 114.956 237.803 114.491L238.27 103.444L248.44 100.791Z" fill="url(#paint43_linear_1128_21643)"/>
<path d="M238.035 86.166C238.035 86.166 234.576 94.1095 234.344 98.2786C234.111 102.448 233.212 105.153 238.035 105.993C242.858 106.833 246.922 104.431 249.123 100.278C249.123 100.278 252.572 93.8783 251.798 91.2578C251.024 88.6372 238.035 86.166 238.035 86.166Z" fill="url(#paint44_linear_1128_21643)"/>
<path d="M247.471 97.2928L247.196 97.1711C247.114 97.135 247.039 97.0822 246.977 97.0162C246.916 96.9501 246.868 96.8721 246.838 96.7869C246.808 96.7018 246.795 96.6114 246.801 96.5212C246.807 96.4311 246.832 96.3431 246.873 96.2628C247.553 94.9484 248.879 91.9392 247.166 91.2365C244.958 90.3323 236.216 88.5494 234.328 85.4482C232.514 82.4676 234.123 78.6206 236.536 77.5262C236.613 77.4897 236.701 77.4842 236.782 77.5106C236.863 77.5371 236.93 77.5935 236.971 77.6683L237.176 78.0488C237.206 78.1063 237.254 78.1533 237.311 78.1839C237.369 78.2144 237.434 78.2272 237.499 78.2205C237.564 78.2138 237.625 78.188 237.675 78.1463C237.725 78.1046 237.762 78.049 237.78 77.9864C237.798 77.9258 237.832 77.8715 237.88 77.83C237.927 77.7886 237.986 77.7618 238.048 77.7529C238.111 77.744 238.175 77.7534 238.232 77.78C238.289 77.8066 238.337 77.8491 238.371 77.9026C238.951 78.8303 240.52 80.3339 244.703 81.1061C250.653 82.2037 254.587 84.6104 254.685 88.7203C254.686 88.7796 254.702 88.8377 254.733 88.8883C254.764 88.939 254.808 88.9804 254.86 89.0081C254.913 89.0358 254.972 89.0488 255.031 89.0456C255.09 89.0425 255.148 89.0234 255.197 88.9903C255.636 88.7233 256.339 88.5975 257.279 89.3872C258.916 90.7609 258.245 94.3235 254.662 97.2539C254.621 97.2853 254.589 97.3258 254.567 97.3721C254.545 97.4183 254.535 97.4691 254.536 97.5202C254.538 97.5713 254.551 97.6213 254.576 97.6662C254.6 97.7112 254.635 97.7497 254.677 97.7787C255.327 98.2011 256.295 99.2106 253.786 100.546C251.192 101.933 249.254 101.819 248.508 101.696C248.464 101.689 248.422 101.673 248.385 101.649C248.347 101.625 248.315 101.594 248.29 101.557C248.266 101.52 248.249 101.478 248.241 101.434C248.232 101.391 248.233 101.346 248.243 101.302L249.039 97.6907C249.05 97.6428 249.05 97.5932 249.039 97.5454C249.027 97.4977 249.006 97.4531 248.975 97.4149C248.944 97.3767 248.905 97.3459 248.861 97.3248C248.817 97.3036 248.768 97.2927 248.719 97.2928H247.471Z" fill="url(#paint45_linear_1128_21643)"/>
<path d="M247.322 98.0546C247.322 98.0546 248.642 92.9802 250.918 94.403C253.194 95.8258 249.737 100.088 247.907 100.278L247.322 98.0546Z" fill="url(#paint46_linear_1128_21643)"/>
<path d="M253.897 166.669C253.897 166.669 252.596 164.502 249.56 164.502C246.525 164.502 243.055 170.137 243.055 170.137C243.055 170.137 247.825 172.304 249.56 174.038C251.296 175.772 253.897 170.137 253.897 166.669Z" fill="url(#paint47_linear_1128_21643)"/>
<path d="M141.239 274.656L152.962 275.065C153.15 275.072 153.337 275.039 153.511 274.97C153.686 274.901 153.844 274.796 153.976 274.663C154.108 274.529 154.211 274.37 154.278 274.194C154.345 274.019 154.375 273.832 154.366 273.645L153.816 262.086C153.799 261.738 153.648 261.41 153.396 261.169C153.143 260.929 152.808 260.795 152.459 260.794H141.286C140.926 260.794 140.58 260.937 140.325 261.192C140.071 261.447 139.928 261.792 139.928 262.152V273.301C139.928 273.652 140.065 273.99 140.309 274.243C140.554 274.496 140.887 274.644 141.239 274.656Z" fill="url(#paint48_linear_1128_21643)"/>
<path d="M177.724 251.953C177.724 251.953 166.011 264.136 158.602 251.953L156.453 255.298C156.453 255.298 165.058 272.976 183.701 257.446L177.724 251.953Z" fill="url(#paint49_linear_1128_21643)"/>
<path d="M183.275 244.079C184.701 243.096 186.283 242.361 187.954 241.904C188.582 241.733 191.976 242.722 194.074 242.67C196.952 242.604 199.883 241.294 202.261 241.885C204.614 242.472 206.548 243.239 207.662 244.033C210.997 246.404 212.955 250.825 214.148 255.204C211.889 257.522 209.045 258.552 209.045 258.552L208.52 279.835L195.653 283.728L181.557 279.062L182.069 258.263C182.069 258.263 176.146 253.206 175.812 252.433C175.477 251.66 179.249 246.846 183.275 244.079Z" fill="url(#paint50_linear_1128_21643)"/>
<path d="M221.11 282.972C217.95 282.247 210.646 282.638 210.646 282.638L210.35 283.442L209.857 287.438C209.857 287.438 216.816 288.691 220.242 288.688C220.568 288.689 220.892 288.641 221.203 288.545C221.306 288.451 221.408 288.354 221.51 288.248C222.962 286.66 222.541 284.328 221.11 282.972Z" fill="url(#paint51_linear_1128_21643)"/>
<path d="M221.423 283.052C221.323 283.024 221.219 282.997 221.109 282.972C222.542 284.327 222.961 286.66 221.505 288.248C221.409 288.35 221.307 288.453 221.198 288.545C223.774 287.744 224.079 283.799 221.423 283.052Z" fill="url(#paint52_linear_1128_21643)"/>
<path d="M208.547 282.41L209.784 282.462C210.121 282.48 210.45 282.569 210.75 282.724C211.05 282.879 211.313 283.096 211.523 283.36C211.977 283.926 212.204 284.64 212.161 285.364C212.135 285.937 211.896 286.481 211.492 286.889C211.303 287.078 211.077 287.225 210.827 287.32C210.578 287.414 210.311 287.455 210.045 287.438L208.152 287.303L208.547 282.41Z" fill="url(#paint53_linear_1128_21643)"/>
<path d="M166.964 282.587C170.136 281.96 177.432 282.574 177.432 282.574L177.708 283.386L178.1 287.397C178.1 287.397 171.117 288.436 167.689 288.328C167.363 288.318 167.04 288.26 166.732 288.155C166.629 288.052 166.527 287.957 166.436 287.848C165.021 286.217 165.499 283.899 166.964 282.587Z" fill="url(#paint54_linear_1128_21643)"/>
<path d="M166.648 282.657C166.75 282.632 166.853 282.61 166.963 282.587C165.499 283.899 165.019 286.218 166.435 287.849C166.529 287.957 166.629 288.054 166.731 288.156C164.18 287.276 163.974 283.323 166.648 282.657Z" fill="url(#paint55_linear_1128_21643)"/>
<path d="M179.534 282.41L178.296 282.424C177.96 282.432 177.629 282.511 177.326 282.656C177.022 282.802 176.753 283.01 176.537 283.268C176.069 283.821 175.824 284.528 175.849 285.252C175.861 285.827 176.086 286.378 176.481 286.797C176.664 286.992 176.886 287.145 177.133 287.248C177.38 287.35 177.646 287.398 177.914 287.39L179.805 287.319L179.534 282.41Z" fill="url(#paint56_linear_1128_21643)"/>
<path d="M221.994 270.442C220.561 267.145 217.056 266.61 214.073 268.152C214.021 268.22 195.128 277.897 178.467 282.139C178.937 283.682 179.198 285.281 179.243 286.892C179.253 287.248 179.242 287.599 179.226 287.946C192.003 287.29 205.868 283.036 217.784 279.289C221.479 278.099 223.582 274.097 221.994 270.442Z" fill="url(#paint57_linear_1128_21643)"/>
<path d="M208.638 287.144C208.575 285.367 208.943 283.601 209.713 281.998C209.736 281.926 209.761 281.856 209.785 281.785C208.833 281.49 207.604 281.091 205.989 280.543C194.158 276.496 185.133 272.41 176.516 267.706C173.17 265.879 169.365 267.104 168.293 271.061C167.337 274.594 169.436 277.607 172.624 278.671C182.159 281.842 177.195 280.961 180.309 281.963C188.673 284.548 199.079 286.902 208.656 287.545C208.651 287.411 208.643 287.277 208.638 287.144Z" fill="url(#paint58_linear_1128_21643)"/>
<path d="M187.953 241.904C187.953 241.904 189.225 247.416 195.403 247.301C201.695 247.187 202.26 241.886 202.26 241.886L198.15 241.007L197.807 236.43L191.624 236.887L191.509 241.236L187.953 241.904Z" fill="url(#paint59_linear_1128_21643)"/>
<path fill-rule="evenodd" clip-rule="evenodd" d="M183.644 230.169C183.644 230.169 181.118 227.573 183.017 225.51C183.017 225.51 181.146 223.15 182.997 220.749C182.997 220.749 184.627 211.557 193.823 215.768C193.823 215.768 200.021 212.397 204.147 219.993C204.147 219.993 206.663 220.723 206.386 223.955C206.386 223.955 209.381 235.072 198.384 233.484L183.644 230.169Z" fill="url(#paint60_linear_1128_21643)"/>
<path fill-rule="evenodd" clip-rule="evenodd" d="M185.388 222.489C185.388 222.489 178.044 236.124 187.119 239.63C196.194 243.135 199.817 233.545 199.817 233.545C199.817 233.545 203.185 229.044 201.492 226.117C199.8 223.189 187.379 220.52 185.388 222.489Z" fill="url(#paint61_linear_1128_21643)"/>
<path fill-rule="evenodd" clip-rule="evenodd" d="M183.453 229.044C183.453 229.044 183.827 227.335 182.311 227.23C180.796 227.126 182.756 231.29 182.756 231.29L183.453 229.044Z" fill="url(#paint62_linear_1128_21643)"/>
<path fill-rule="evenodd" clip-rule="evenodd" d="M200.427 231.289C200.427 231.289 191.228 229.609 191.319 224.292C191.319 224.292 189.805 224.639 189.107 222.895C189.107 222.895 185.261 227.346 183.772 224.761C183.772 224.761 183.676 217.908 189.257 219.427C194.837 220.946 199.962 222.562 201.579 223.941C203.196 225.32 204.857 228.945 200.427 231.289Z" fill="url(#paint63_linear_1128_21643)"/>
<path fill-rule="evenodd" clip-rule="evenodd" d="M198.811 234.906L199.834 230.39C199.834 230.39 202.693 228.613 202.591 231.011C202.489 233.41 199.926 235.051 198.811 234.906Z" fill="url(#paint64_linear_1128_21643)"/>
<path d="M213.85 255.271C213.85 255.271 218.594 274.409 204.014 279.903C201.118 279.519 199.473 278.231 199.473 278.231C199.473 278.231 209.121 271.582 208.478 258.514C210.152 257.137 213.85 255.271 213.85 255.271Z" fill="url(#paint65_linear_1128_21643)"/>
<path d="M203.298 281.098C203.298 281.098 198.757 280.143 196.844 279.903C194.932 279.664 192.361 279.21 193.527 276.451C194.692 273.693 196.366 274.17 198.518 275.364C199.506 275.913 204.731 279.426 203.298 281.098Z" fill="url(#paint66_linear_1128_21643)"/>
<path d="M146.656 266.33L157.384 266.703C157.556 266.709 157.727 266.68 157.887 266.616C158.047 266.553 158.192 266.457 158.312 266.335C158.433 266.212 158.527 266.066 158.589 265.906C158.65 265.745 158.678 265.574 158.67 265.402L158.165 254.825C158.15 254.506 158.013 254.205 157.782 253.985C157.551 253.764 157.243 253.641 156.924 253.642H146.699C146.536 253.642 146.375 253.674 146.224 253.736C146.073 253.799 145.936 253.89 145.821 254.006C145.705 254.121 145.614 254.258 145.551 254.409C145.489 254.56 145.457 254.721 145.457 254.884V265.088C145.457 265.41 145.582 265.72 145.806 265.951C146.03 266.183 146.335 266.319 146.656 266.33Z" fill="#91B3FA"/>
<path d="M149.531 255.265C149.731 254.298 150.385 250.912 152.128 250.239C155.734 248.848 158.719 252.172 158.719 252.172L159.319 254.878C159.207 254.708 159.051 254.571 158.868 254.481C158.405 256.259 156.946 257.98 156.207 257.686C155.012 257.208 155.25 257.208 156.445 255.298L156.455 255.282C156.532 255.155 156.572 255.01 156.572 254.862C156.571 254.714 156.53 254.569 156.453 254.442C156.376 254.316 156.266 254.213 156.134 254.145C156.003 254.076 155.855 254.045 155.707 254.055C154.147 254.157 152.62 254.59 152.322 255.261C151.729 256.618 149.331 256.232 149.531 255.265Z" fill="url(#paint67_linear_1128_21643)"/>
<path d="M149.844 288.273L161.568 288.683C161.755 288.689 161.942 288.657 162.117 288.587C162.291 288.518 162.45 288.413 162.582 288.28C162.713 288.146 162.816 287.987 162.883 287.812C162.951 287.636 162.981 287.449 162.972 287.262L162.421 275.704C162.404 275.355 162.254 275.026 162.002 274.786C161.749 274.545 161.413 274.411 161.064 274.411H149.891C149.531 274.411 149.186 274.554 148.931 274.808C148.676 275.063 148.533 275.408 148.533 275.768V286.917C148.534 287.269 148.67 287.607 148.915 287.86C149.159 288.113 149.492 288.261 149.844 288.273Z" fill="#91B3FA"/>
<path d="M134.857 288.334L146.584 288.621C146.771 288.626 146.957 288.591 147.131 288.52C147.304 288.449 147.461 288.343 147.592 288.209C147.722 288.074 147.823 287.914 147.889 287.739C147.954 287.563 147.983 287.376 147.972 287.189L147.302 275.637C147.282 275.289 147.128 274.962 146.873 274.724C146.618 274.485 146.281 274.355 145.932 274.358L134.76 274.474C134.581 274.476 134.405 274.513 134.241 274.583C134.077 274.653 133.928 274.754 133.804 274.882C133.679 275.009 133.58 275.16 133.514 275.325C133.447 275.491 133.414 275.667 133.416 275.846L133.532 286.995C133.536 287.346 133.677 287.682 133.924 287.931C134.171 288.181 134.506 288.325 134.857 288.334Z" fill="#7D97F4"/>
<defs>
<linearGradient id="paint0_linear_1128_21643" x1="314.127" y1="294.069" x2="104.004" y2="110.118" gradientUnits="userSpaceOnUse">
<stop stop-color="#DAE3FE"/>
<stop offset="1" stop-color="#E9EFFD"/>
</linearGradient>
<linearGradient id="paint1_linear_1128_21643" x1="125.559" y1="-11.8909" x2="58.538" y2="76.3175" gradientUnits="userSpaceOnUse">
<stop stop-color="#09005D"/>
<stop offset="1" stop-color="#1A0F91"/>
</linearGradient>
<linearGradient id="paint2_linear_1128_21643" x1="132.916" y1="-6.30118" x2="65.8948" y2="81.9071" gradientUnits="userSpaceOnUse">
<stop stop-color="#09005D"/>
<stop offset="1" stop-color="#1A0F91"/>
</linearGradient>
<linearGradient id="paint3_linear_1128_21643" x1="93.6074" y1="267.383" x2="93.7516" y2="267.383" gradientUnits="userSpaceOnUse">
<stop stop-color="#53D8FF"/>
<stop offset="1" stop-color="#3840F7"/>
</linearGradient>
<linearGradient id="paint4_linear_1128_21643" x1="196.83" y1="276.269" x2="208.224" y2="276.269" gradientUnits="userSpaceOnUse">
<stop stop-color="#CB236D"/>
<stop offset="1" stop-color="#4C246D"/>
</linearGradient>
<linearGradient id="paint5_linear_1128_21643" x1="192.941" y1="81.1315" x2="211.771" y2="113.927" gradientUnits="userSpaceOnUse">
<stop stop-color="#09005D"/>
<stop offset="1" stop-color="#1A0F91"/>
</linearGradient>
<linearGradient id="paint6_linear_1128_21643" x1="197.687" y1="316.861" x2="203.832" y2="241.261" gradientUnits="userSpaceOnUse">
<stop stop-color="#FEBBBA"/>
<stop offset="1" stop-color="#FF928E"/>
</linearGradient>
<linearGradient id="paint7_linear_1128_21643" x1="211.208" y1="275.904" x2="217.979" y2="275.904" gradientUnits="userSpaceOnUse">
<stop stop-color="#CB236D"/>
<stop offset="1" stop-color="#4C246D"/>
</linearGradient>
<linearGradient id="paint8_linear_1128_21643" x1="215.082" y1="297.777" x2="215.082" y2="239.483" gradientUnits="userSpaceOnUse">
<stop stop-color="#FEBBBA"/>
<stop offset="1" stop-color="#FF928E"/>
</linearGradient>
<linearGradient id="paint9_linear_1128_21643" x1="358.67" y1="66.0463" x2="247.986" y2="147.392" gradientUnits="userSpaceOnUse">
<stop stop-color="#4F52FF"/>
<stop offset="1" stop-color="#4042E2"/>
</linearGradient>
<linearGradient id="paint10_linear_1128_21643" x1="200.041" y1="130.481" x2="209.913" y2="101.979" gradientUnits="userSpaceOnUse">
<stop stop-color="#FEBBBA"/>
<stop offset="1" stop-color="#FF928E"/>
</linearGradient>
<linearGradient id="paint11_linear_1128_21643" x1="196.378" y1="106.873" x2="216.307" y2="81.1013" gradientUnits="userSpaceOnUse">
<stop stop-color="#FEBBBA"/>
<stop offset="1" stop-color="#FF928E"/>
</linearGradient>
<linearGradient id="paint12_linear_1128_21643" x1="202.886" y1="75.4221" x2="221.716" y2="108.218" gradientUnits="userSpaceOnUse">
<stop stop-color="#09005D"/>
<stop offset="1" stop-color="#1A0F91"/>
</linearGradient>
<linearGradient id="paint13_linear_1128_21643" x1="202.246" y1="111.638" x2="222.223" y2="85.8042" gradientUnits="userSpaceOnUse">
<stop stop-color="#FEBBBA"/>
<stop offset="1" stop-color="#FF928E"/>
</linearGradient>
<linearGradient id="paint14_linear_1128_21643" x1="210.948" y1="183.748" x2="227.511" y2="121.822" gradientUnits="userSpaceOnUse">
<stop stop-color="#FEBBBA"/>
<stop offset="1" stop-color="#FF928E"/>
</linearGradient>
<linearGradient id="paint15_linear_1128_21643" x1="208.568" y1="184.228" x2="226.233" y2="118.184" gradientUnits="userSpaceOnUse">
<stop stop-color="#FEBBBA"/>
<stop offset="1" stop-color="#FF928E"/>
</linearGradient>
<linearGradient id="paint16_linear_1128_21643" x1="188.479" y1="154.224" x2="186.883" y2="163.15" gradientUnits="userSpaceOnUse">
<stop stop-color="#FEBBBA"/>
<stop offset="1" stop-color="#FF928E"/>
</linearGradient>
<linearGradient id="paint17_linear_1128_21643" x1="71.5303" y1="153.245" x2="114.81" y2="153.245" gradientUnits="userSpaceOnUse">
<stop stop-color="#09005D"/>
<stop offset="1" stop-color="#1A0F91"/>
</linearGradient>
<linearGradient id="paint18_linear_1128_21643" x1="189.425" y1="132.341" x2="109.124" y2="194.069" gradientUnits="userSpaceOnUse">
<stop stop-color="#A22B25"/>
<stop offset="1" stop-color="#C0423C"/>
</linearGradient>
<linearGradient id="paint19_linear_1128_21643" x1="104.668" y1="120.736" x2="104.838" y2="120.736" gradientUnits="userSpaceOnUse">
<stop stop-color="#09005D"/>
<stop offset="1" stop-color="#1A0F91"/>
</linearGradient>
<linearGradient id="paint20_linear_1128_21643" x1="107.55" y1="120.624" x2="107.528" y2="120.659" gradientUnits="userSpaceOnUse">
<stop stop-color="#53EAC9"/>
<stop offset="1" stop-color="#45AED8"/>
</linearGradient>
<linearGradient id="paint21_linear_1128_21643" x1="121.191" y1="266.792" x2="52.874" y2="341.139" gradientUnits="userSpaceOnUse">
<stop stop-color="#09005D"/>
<stop offset="1" stop-color="#1A0F91"/>
</linearGradient>
<linearGradient id="paint22_linear_1128_21643" x1="99.0039" y1="272.312" x2="105.076" y2="272.312" gradientUnits="userSpaceOnUse">
<stop stop-color="#A22B25"/>
<stop offset="1" stop-color="#C0423C"/>
</linearGradient>
<linearGradient id="paint23_linear_1128_21643" x1="126.573" y1="182.753" x2="68.4488" y2="261.573" gradientUnits="userSpaceOnUse">
<stop stop-color="#09005D"/>
<stop offset="1" stop-color="#1A0F91"/>
</linearGradient>
<linearGradient id="paint24_linear_1128_21643" x1="105.856" y1="252.702" x2="37.5394" y2="327.049" gradientUnits="userSpaceOnUse">
<stop stop-color="#09005D"/>
<stop offset="1" stop-color="#1A0F91"/>
</linearGradient>
<linearGradient id="paint25_linear_1128_21643" x1="77.123" y1="272.001" x2="82.3647" y2="272.001" gradientUnits="userSpaceOnUse">
<stop stop-color="#A22B25"/>
<stop offset="1" stop-color="#C0423C"/>
</linearGradient>
<linearGradient id="paint26_linear_1128_21643" x1="116.207" y1="175.109" x2="58.0822" y2="253.929" gradientUnits="userSpaceOnUse">
<stop stop-color="#09005D"/>
<stop offset="1" stop-color="#1A0F91"/>
</linearGradient>
<linearGradient id="paint27_linear_1128_21643" x1="102.546" y1="98.0667" x2="84.6359" y2="140.385" gradientUnits="userSpaceOnUse">
<stop stop-color="#A22B25"/>
<stop offset="1" stop-color="#C0423C"/>
</linearGradient>
<linearGradient id="paint28_linear_1128_21643" x1="99.6097" y1="144.5" x2="127.471" y2="124.439" gradientUnits="userSpaceOnUse">
<stop stop-color="#9CFFFB"/>
<stop offset="1" stop-color="#9BFFFA"/>
</linearGradient>
<linearGradient id="paint29_linear_1128_21643" x1="107.262" y1="129.559" x2="128.826" y2="219.454" gradientUnits="userSpaceOnUse">
<stop stop-color="#4F52FF"/>
<stop offset="1" stop-color="#4042E2"/>
</linearGradient>
<linearGradient id="paint30_linear_1128_21643" x1="92.4725" y1="153.339" x2="104.702" y2="153.339" gradientUnits="userSpaceOnUse">
<stop stop-color="#A22B25"/>
<stop offset="1" stop-color="#C0423C"/>
</linearGradient>
<linearGradient id="paint31_linear_1128_21643" x1="104.564" y1="101.118" x2="81.3053" y2="114.162" gradientUnits="userSpaceOnUse">
<stop stop-color="#A22B25"/>
<stop offset="1" stop-color="#C0423C"/>
</linearGradient>
<linearGradient id="paint32_linear_1128_21643" x1="112.023" y1="79.1986" x2="66.8142" y2="123.054" gradientUnits="userSpaceOnUse">
<stop stop-color="#09005D"/>
<stop offset="1" stop-color="#1A0F91"/>
</linearGradient>
<linearGradient id="paint33_linear_1128_21643" x1="102.45" y1="97.3489" x2="79.19" y2="110.393" gradientUnits="userSpaceOnUse">
<stop stop-color="#A22B25"/>
<stop offset="1" stop-color="#C0423C"/>
</linearGradient>
<linearGradient id="paint34_linear_1128_21643" x1="228.164" y1="139.452" x2="241.997" y2="160.213" gradientUnits="userSpaceOnUse">
<stop stop-color="#FEBBBA"/>
<stop offset="1" stop-color="#FF928E"/>
</linearGradient>
<linearGradient id="paint35_linear_1128_21643" x1="250.698" y1="282.977" x2="226.932" y2="282.977" gradientUnits="userSpaceOnUse">
<stop stop-color="#4F52FF"/>
<stop offset="1" stop-color="#4042E2"/>
</linearGradient>
<linearGradient id="paint36_linear_1128_21643" x1="227.012" y1="243.238" x2="232.418" y2="260.033" gradientUnits="userSpaceOnUse">
<stop stop-color="#09005D"/>
<stop offset="1" stop-color="#1A0F91"/>
</linearGradient>
<linearGradient id="paint37_linear_1128_21643" x1="248.503" y1="271.823" x2="241.81" y2="271.823" gradientUnits="userSpaceOnUse">
<stop stop-color="#FEBBBA"/>
<stop offset="1" stop-color="#FF928E"/>
</linearGradient>
<linearGradient id="paint38_linear_1128_21643" x1="293.115" y1="286.977" x2="284.008" y2="286.977" gradientUnits="userSpaceOnUse">
<stop stop-color="#4F52FF"/>
<stop offset="1" stop-color="#4042E2"/>
</linearGradient>
<linearGradient id="paint39_linear_1128_21643" x1="270.049" y1="229.386" x2="275.454" y2="246.18" gradientUnits="userSpaceOnUse">
<stop stop-color="#09005D"/>
<stop offset="1" stop-color="#1A0F91"/>
</linearGradient>
<linearGradient id="paint40_linear_1128_21643" x1="286.1" y1="268.334" x2="278.1" y2="268.334" gradientUnits="userSpaceOnUse">
<stop stop-color="#FEBBBA"/>
<stop offset="1" stop-color="#FF928E"/>
</linearGradient>
<linearGradient id="paint41_linear_1128_21643" x1="221.39" y1="182.044" x2="289.643" y2="293.907" gradientUnits="userSpaceOnUse">
<stop stop-color="#09005D"/>
<stop offset="1" stop-color="#1A0F91"/>
</linearGradient>
<linearGradient id="paint42_linear_1128_21643" x1="299.058" y1="123.903" x2="258.076" y2="174.131" gradientUnits="userSpaceOnUse">
<stop stop-color="#020039"/>
<stop offset="1" stop-color="#090056"/>
</linearGradient>
<linearGradient id="paint43_linear_1128_21643" x1="246.686" y1="126.531" x2="243.223" y2="108.34" gradientUnits="userSpaceOnUse">
<stop stop-color="#FEBBBA"/>
<stop offset="1" stop-color="#FF928E"/>
</linearGradient>
<linearGradient id="paint44_linear_1128_21643" x1="237.307" y1="93.1582" x2="257.078" y2="108.294" gradientUnits="userSpaceOnUse">
<stop stop-color="#FEBBBA"/>
<stop offset="1" stop-color="#FF928E"/>
</linearGradient>
<linearGradient id="paint45_linear_1128_21643" x1="251.229" y1="81.1818" x2="232.82" y2="104.895" gradientUnits="userSpaceOnUse">
<stop stop-color="#09005D"/>
<stop offset="1" stop-color="#1A0F91"/>
</linearGradient>
<linearGradient id="paint46_linear_1128_21643" x1="239.761" y1="89.9536" x2="259.532" y2="105.089" gradientUnits="userSpaceOnUse">
<stop stop-color="#FEBBBA"/>
<stop offset="1" stop-color="#FF928E"/>
</linearGradient>
<linearGradient id="paint47_linear_1128_21643" x1="244.661" y1="162.687" x2="253.78" y2="176.372" gradientUnits="userSpaceOnUse">
<stop stop-color="#FEBBBA"/>
<stop offset="1" stop-color="#FF928E"/>
</linearGradient>
<linearGradient id="paint48_linear_1128_21643" x1="152.105" y1="256.854" x2="142.455" y2="278.435" gradientUnits="userSpaceOnUse">
<stop stop-color="#4F52FF"/>
<stop offset="1" stop-color="#4042E2"/>
</linearGradient>
<linearGradient id="paint49_linear_1128_21643" x1="179.941" y1="259.397" x2="147.818" y2="252.559" gradientUnits="userSpaceOnUse">
<stop stop-color="#FEBBBA"/>
<stop offset="1" stop-color="#FF928E"/>
</linearGradient>
<linearGradient id="paint50_linear_1128_21643" x1="307.309" y1="83.874" x2="263.252" y2="153.58" gradientUnits="userSpaceOnUse">
<stop stop-color="#4F52FF"/>
<stop offset="1" stop-color="#4042E2"/>
</linearGradient>
<linearGradient id="paint51_linear_1128_21643" x1="216.48" y1="269.912" x2="217.087" y2="240.2" gradientUnits="userSpaceOnUse">
<stop stop-color="#09005D"/>
<stop offset="1" stop-color="#1A0F91"/>
</linearGradient>
<linearGradient id="paint52_linear_1128_21643" x1="224.555" y1="285.815" x2="213.075" y2="285.59" gradientUnits="userSpaceOnUse">
<stop stop-color="#4F52FF"/>
<stop offset="1" stop-color="#4042E2"/>
</linearGradient>
<linearGradient id="paint53_linear_1128_21643" x1="218.502" y1="261.986" x2="204.712" y2="299.357" gradientUnits="userSpaceOnUse">
<stop stop-color="#FEBBBA"/>
<stop offset="1" stop-color="#FF928E"/>
</linearGradient>
<linearGradient id="paint54_linear_1128_21643" x1="172.169" y1="258.524" x2="172.384" y2="228.8" gradientUnits="userSpaceOnUse">
<stop stop-color="#09005D"/>
<stop offset="1" stop-color="#1A0F91"/>
</linearGradient>
<linearGradient id="paint55_linear_1128_21643" x1="163.573" y1="285.4" x2="175.019" y2="285.492" gradientUnits="userSpaceOnUse">
<stop stop-color="#4F52FF"/>
<stop offset="1" stop-color="#4042E2"/>
</linearGradient>
<linearGradient id="paint56_linear_1128_21643" x1="190.848" y1="250.726" x2="177.051" y2="288.116" gradientUnits="userSpaceOnUse">
<stop stop-color="#FEBBBA"/>
<stop offset="1" stop-color="#FF928E"/>
</linearGradient>
<linearGradient id="paint57_linear_1128_21643" x1="224.352" y1="261.265" x2="188.485" y2="288.222" gradientUnits="userSpaceOnUse">
<stop stop-color="#09005D"/>
<stop offset="1" stop-color="#1A0F91"/>
</linearGradient>
<linearGradient id="paint58_linear_1128_21643" x1="191.904" y1="285.427" x2="182.509" y2="261.456" gradientUnits="userSpaceOnUse">
<stop stop-color="#09005D"/>
<stop offset="1" stop-color="#1A0F91"/>
</linearGradient>
<linearGradient id="paint59_linear_1128_21643" x1="195.261" y1="255.485" x2="194.943" y2="227.798" gradientUnits="userSpaceOnUse">
<stop stop-color="#FEBBBA"/>
<stop offset="1" stop-color="#FF928E"/>
</linearGradient>
<linearGradient id="paint60_linear_1128_21643" x1="217.207" y1="198.639" x2="194.124" y2="225.554" gradientUnits="userSpaceOnUse">
<stop stop-color="#09005D"/>
<stop offset="1" stop-color="#1A0F91"/>
</linearGradient>
<linearGradient id="paint61_linear_1128_21643" x1="200.273" y1="231.106" x2="176.351" y2="231.106" gradientUnits="userSpaceOnUse">
<stop stop-color="#FEBBBA"/>
<stop offset="1" stop-color="#FF928E"/>
</linearGradient>
<linearGradient id="paint62_linear_1128_21643" x1="200.272" y1="229.259" x2="176.35" y2="229.259" gradientUnits="userSpaceOnUse">
<stop stop-color="#FEBBBA"/>
<stop offset="1" stop-color="#FF928E"/>
</linearGradient>
<linearGradient id="paint63_linear_1128_21643" x1="216.839" y1="198.322" x2="193.756" y2="225.236" gradientUnits="userSpaceOnUse">
<stop stop-color="#09005D"/>
<stop offset="1" stop-color="#1A0F91"/>
</linearGradient>
<linearGradient id="paint64_linear_1128_21643" x1="200.273" y1="232.336" x2="176.351" y2="232.336" gradientUnits="userSpaceOnUse">
<stop stop-color="#FEBBBA"/>
<stop offset="1" stop-color="#FF928E"/>
</linearGradient>
<linearGradient id="paint65_linear_1128_21643" x1="216.435" y1="250.085" x2="190.869" y2="311.871" gradientUnits="userSpaceOnUse">
<stop stop-color="#FEBBBA"/>
<stop offset="1" stop-color="#FF928E"/>
</linearGradient>
<linearGradient id="paint66_linear_1128_21643" x1="200.131" y1="274.692" x2="195.066" y2="286.936" gradientUnits="userSpaceOnUse">
<stop stop-color="#FEBBBA"/>
<stop offset="1" stop-color="#FF928E"/>
</linearGradient>
<linearGradient id="paint67_linear_1128_21643" x1="180.015" y1="259.043" x2="147.893" y2="252.205" gradientUnits="userSpaceOnUse">
<stop stop-color="#FEBBBA"/>
<stop offset="1" stop-color="#FF928E"/>
</linearGradient>
</defs>
</svg>
