<svg width="315" height="366" viewBox="0 0 315 366" fill="none" xmlns="http://www.w3.org/2000/svg">
<path d="M163.287 103.338C156.759 101.007 150.325 100.72 144.012 104.11C141.725 105.337 139.574 106.825 138.086 108.878C136.522 111.042 135.733 110.704 134.104 108.889C123.261 96.8071 104.219 100.169 98.1165 115.167C95.6649 121.191 96.7473 127.226 98.1877 133.249C99.0173 140.391 103.018 145.943 107.292 151.347C107.924 152.15 108.649 152.886 109.234 153.723C110.025 154.741 110.978 155.611 111.866 156.543C113.581 157.96 114.777 159.84 116.224 161.496C118.397 163.193 120.501 164.976 122.35 167.036C124.812 169.054 127.101 171.278 129.646 173.201C129.97 173.479 130.29 173.759 130.608 174.049C132.676 175.373 134.17 177.782 137.085 177.511C148.293 169.196 158.686 160.006 166.931 148.664C171.919 141.802 175.143 134.134 176.223 125.587C177.269 117.33 172.82 108.006 165.61 103.976C164.882 103.576 164.149 103.233 163.287 103.338Z" fill="#5CDAC8"/>
<path d="M192.215 242.904C191.002 242.261 190.152 241.528 190.322 239.878C191.209 231.177 189.058 222.608 189.087 213.932C189.097 210.708 187.841 209.715 184.53 209.715C164.564 209.715 144.597 209.775 124.64 209.661C121.643 209.644 120.804 210.604 120.823 213.531C120.935 231.145 120.874 248.76 120.876 266.373C120.876 270.182 121.079 270.513 124.871 269.967C138.527 267.999 151.823 264.707 164.571 259.267C173.074 255.642 181.011 251.083 188.547 245.772C189.19 245.318 189.904 244.964 190.775 244.453C191.509 250.927 190.515 257.088 190.381 263.263C191.816 263.115 191.754 261.892 191.908 260.958C192.88 254.96 192.731 248.928 192.215 242.904Z" fill="#D6E3FE"/>
<path d="M163.286 103.338C176.18 110.952 177.237 122.066 173.942 132.901C171.727 140.183 168.035 146.591 163.155 152.377C156.121 160.719 148.093 168.01 139.539 174.748C138.591 175.497 137.744 176.377 136.852 177.195C135.902 178.171 135.891 179.423 135.883 180.65C135.842 186.387 135.793 192.126 135.895 197.861C135.973 202.23 137.043 203.25 141.449 203.313C145.75 203.374 150.055 203.411 154.354 203.293C157.788 203.196 158.408 202.534 158.712 199.123C159.092 194.866 159.209 194.747 163.515 194.727C167.821 194.707 172.12 194.742 176.421 194.71C177.846 194.698 179.317 194.8 180.505 193.744C180.437 191.618 180.271 189.502 180.097 187.38C179.863 184.519 181.285 181.729 181.964 178.924C183.273 173.552 185.231 168.336 186.95 163.065C187.342 161.884 188.144 160.882 189.212 160.242C191.99 158.545 194.853 156.991 197.645 155.321C199.002 154.505 199.681 154.72 199.681 156.385C199.841 156.414 200.006 156.395 200.155 156.33C200.305 156.265 200.431 156.156 200.517 156.018C201.498 153.159 201.067 150.638 198.863 148.44C197.853 147.42 197.055 146.208 196.517 144.877C194.284 142.332 194.971 139.077 194.503 136.116C194.296 134.816 195.448 134.463 196.476 134.216C198.921 133.627 200.582 132.11 201.641 129.875C199.652 129.492 200.214 127.9 200.21 126.678C200.18 115.309 200.202 103.923 200.187 92.5461C200.187 89.3849 199.423 88.6824 196.322 89.2016C184.785 91.136 174.076 95.1626 164.545 102.067C164.073 102.41 163.705 102.909 163.286 103.338Z" fill="#E9F0FE"/>
<path d="M260.466 172.799C261.436 172.01 261.079 170.908 261.08 169.931C261.104 159.899 261.428 149.852 260.977 139.839C260.665 132.899 261.621 126.008 261.095 119.095C260.983 117.605 260.983 116.283 263.053 116.008C264.071 115.874 264.74 114.907 264.75 113.726C264.758 112.778 264.254 112.016 263.41 111.894C259.156 111.276 256.873 107.724 253.785 105.446C242.791 97.3007 230.796 91.5196 217.237 89.2628C214.638 88.8284 211.964 88.8572 209.345 88.5195C206.78 88.1802 206.291 89.368 206.308 91.6757C206.408 102.425 206.189 113.178 206.445 123.916C206.528 127.43 205.767 129.476 202.048 129.721C204.284 131.124 206.937 130.909 209.369 131.57C214.097 132.853 216.443 138.427 213.802 142.551C213.298 143.321 212.898 144.156 212.614 145.031C212.317 146.436 211.947 147.814 210.938 148.907C209.386 150.587 208.931 152.626 208.968 154.832C209.044 155.143 209.229 155.415 209.489 155.601C210.412 154.099 211.316 153.651 212.607 155.348C213.807 156.926 215.525 157.617 217.465 158.253C221.789 159.673 225.269 162.326 226.48 167.055C227.149 169.678 228.754 171.828 229.885 174.212C234.235 183.375 233.155 191.914 227.379 200.075C225.513 202.707 224.222 205.853 220.668 206.766C220.199 206.885 219.953 207.251 220.049 207.671C220.262 208.624 221.095 208.49 221.784 208.492C226.799 208.505 231.813 208.492 236.828 208.504C238.964 208.504 241.127 208.286 243.176 209.157C243.419 208.972 243.597 208.716 243.685 208.424C243.855 206.688 242.883 205.2 242.627 203.561C242.088 202.417 241.956 201.123 242.253 199.894C242.498 192.428 242.335 184.973 242.352 177.516C242.352 176.287 242.302 175.05 241.405 174.056H231.492L231.444 172.817H242.014C242.771 170.932 242.309 168.969 242.326 167.048C242.386 159.992 242.362 152.935 242.342 145.878C242.342 143.942 242.72 142.5 245.015 142.203C246.783 141.975 247.581 140.687 247.771 138.987C247.86 138.173 247.866 137.355 247.881 136.537C247.967 131.955 248.02 131.906 252.533 131.937C256.739 131.966 256.995 132.2 257.046 136.491C257.073 138.763 257.105 140.94 258.846 142.781C259.796 143.788 259.504 145.306 259.509 146.625C259.528 153.886 259.501 161.148 259.528 168.409C259.548 169.921 259.353 171.506 260.466 172.799Z" fill="#E9F0FE"/>
<path d="M81.4628 268.781C83.6344 267.109 85.8739 268.597 87.9098 268.937C95.8837 270.264 103.905 270.612 111.962 270.659C113.818 270.671 114.716 270.274 114.899 268.202C115.025 266.799 115.301 265.392 115.301 263.96C115.301 247.883 115.301 231.806 115.301 215.729C115.301 215.22 115.318 214.711 115.301 214.202C115.131 210.005 114.84 209.727 110.72 209.727C100.481 209.727 90.2426 209.805 80.0123 209.673C77.2977 209.637 76.877 210.754 77.3418 213.01C77.8067 215.267 79.1436 217.381 78.336 219.815C77.4674 221.15 78.2444 222.387 78.616 223.617C79.7934 227.53 81.1371 231.392 82.0363 235.387C82.3332 236.707 82.5927 238.017 81.4459 239.12C80.1972 240.118 79.9715 241.521 79.958 242.972C79.8884 250.502 79.8765 258.035 79.9766 265.567C79.9834 266.756 79.6577 268.321 81.4628 268.781Z" fill="#D6E3FE"/>
<path d="M292.461 207.273C293.437 198.01 293.016 188.716 293.023 179.435C293.023 178.011 293.723 177.264 294.587 176.353C297.98 172.79 297.508 169.554 293.185 167.377C292.149 166.854 291.998 166.303 291.81 165.353C291.068 161.679 290.198 158.031 289.375 154.372C288.477 153.553 287.366 153.4 286.224 153.388C280.897 153.335 275.572 153.349 270.246 153.388C267.871 153.402 266.719 154.25 266.899 156.901C267.257 162.195 266.547 167.521 267.253 172.815H288.352C288.352 173.121 288.364 173.424 288.369 173.73C286.893 174.336 285.288 174.013 283.749 174.029C279.053 174.074 274.355 174.124 269.667 174.012C267.42 173.957 266.587 174.775 266.614 177.039C266.712 185.716 266.682 194.394 266.698 203.072C268.616 203.089 269.525 201.3 271.077 200.618C273.198 199.685 275.229 198.553 277.524 198.1C278.008 198.341 279.304 196.87 278.963 198.806C276.374 204.175 271.759 206.968 266.356 208.766C266.161 208.902 266.006 209.087 265.907 209.302C265.808 209.518 265.769 209.756 265.793 209.992C266.03 214.264 265.26 218.564 266.157 222.816C267.358 224.157 268.001 222.816 268.488 222.158C274.014 214.621 281.691 210.64 290.58 208.61C291.385 208.419 292.169 208.191 292.461 207.273Z" fill="#D5E3FE"/>
<path d="M65.5039 140.794C64.486 139.751 63.1813 140.238 62.009 140.228C60.8366 140.218 60.0138 139.949 59.7932 138.684C59.2843 135.689 57.7047 137.038 56.5053 138.005C50.3229 143.004 44.2899 148.169 39.2816 154.41C38.4808 155.404 38.4333 156.429 38.4333 157.554C38.4333 161.542 38.4927 165.529 38.4096 169.517C38.3672 171.535 38.4096 173.299 41.5313 173.214C37.6495 173.798 38.5097 176.484 38.4282 178.734C38.3264 181.538 38.7048 184.368 38.0312 187.94C36.3347 184.361 36.0581 181.179 35.3744 178.123C34.6211 174.755 33.9883 171.36 33.2011 168C33.0637 167.411 33.1366 166.356 32.1594 166.363C31.2721 166.363 31.2025 167.221 31.0363 167.93C30.7088 169.315 30.3067 170.681 29.9437 172.057C29.7604 172.753 29.6145 173.754 28.8714 173.766C24.9065 173.785 24.8539 177.16 23.6833 179.588C24.7403 180.674 26.1416 180.496 27.4412 180.53C29.2107 180.577 30.0658 181.356 30.076 183.15C30.1184 190.427 30.1031 197.705 30.076 204.983C30.076 206.822 29.1514 207.528 27.4073 207.528C25.4613 207.528 23.5052 207.496 21.566 207.562C20.3512 207.604 19.0771 207.493 18.1185 208.504C21.2775 209.934 24.7114 208.504 27.9264 209.72C25.1848 209.72 22.4397 209.753 19.698 209.71C17.9031 209.681 17.3228 210.231 17.3652 212.256C17.5807 223.916 22.5211 233.51 29.9199 242.1C30.3763 242.631 30.8904 243.457 31.6165 243.252C32.6684 242.96 32.2527 241.876 32.2578 241.124C32.2917 235.933 32.2748 230.743 32.6293 225.457C35.6289 228.522 35.6934 233.079 38.4198 236.188C39.6871 234.815 39.2053 233.106 39.268 231.523C39.3495 229.692 39.2511 227.855 39.3105 226.022C39.3393 225.116 39.2477 224.071 40.1231 223.518C41.326 222.759 41.8892 224.101 42.7409 224.507C43.3822 223.986 43.3483 223.256 43.3347 222.542C43.177 214.784 44.2865 207.155 45.8236 199.587C47.2131 192.74 47.0774 185.829 47.0112 178.912C45.9118 178.088 44.8498 179.041 43.4298 178.958C43.8895 177.202 43.4908 175.505 43.0819 173.785C42.6442 171.947 42.7732 170.023 43.9133 168.47C45.4877 166.325 46.6278 163.863 48.433 161.912C51.6005 158.477 53.2122 154.329 54.3031 149.924C55.4737 145.188 58.6345 142.267 63.5596 141.57C64.2874 141.466 65.0204 141.444 65.5039 140.794Z" fill="#E8EFFE"/>
<path d="M122.721 166.631C120.918 164.582 118.931 162.705 116.783 161.021C115.418 160.488 114.809 161.284 114.663 162.422C114.184 166.142 113.855 169.931 113.568 173.605C113.348 176.433 114.464 179.742 114.451 182.905C114.432 187.376 114.388 187.451 110.209 188.664C107.751 189.377 105.309 190.142 102.86 190.885C100.282 191.666 99.7565 191.32 99.597 188.612C99.463 186.345 98.6147 184.709 96.455 183.828C94.0458 182.846 93.1076 180.614 94.7211 178.604C97.0624 175.69 97.4203 173.26 95.4235 169.812C93.7795 166.975 93.9339 163.278 93.1619 159.989C92.5528 157.396 92.049 154.782 91.4179 152.196C90.897 150.063 91.7572 149.207 93.8982 149.077C98.479 148.797 99.0474 149.275 99.0762 153.865C99.0915 156.117 98.9965 158.372 99.1508 160.62C99.3205 163.035 100.52 164.387 103.041 164.43C105.089 164.464 107.137 164.513 109.183 164.43C112.423 164.303 113.025 163.636 113.11 160.312C113.148 158.864 113.09 157.439 112.262 156.168C111.753 155.029 110.849 154.256 109.87 153.548C108.465 154.917 108.998 156.602 109.215 158.168C109.554 160.683 107.924 161.065 106.083 161.292C104.047 161.544 103.353 160.41 103.309 158.577C103.245 155.822 103.408 153.063 103.219 150.312C102.988 146.951 101.904 145.877 98.5333 145.459C98.0243 145.396 97.5153 145.303 97.0149 145.289C94.3784 145.172 93.201 143.92 93.4079 141.19C93.5878 138.814 93.4928 136.396 90.7189 135.288C88.9578 134.44 88.325 132.268 86.4112 131.596C85.4815 129.22 85.6037 126.675 85.1829 124.215C82.862 123.059 82.0527 124.668 81.4996 126.375C81.1145 127.562 80.7498 128.504 79.5452 129.22C76.2895 131.15 76.3794 133.123 79.6453 135.286H85.7801C83.8138 142.904 87.3494 149.869 88.4777 157.103C89.2615 162.131 90.5712 167.092 91.7232 172.066C92.6445 176.041 89.1546 180.394 85.0557 180.606C83.6204 180.681 81.2163 180.012 81.0721 181.712C80.8923 183.811 83.4321 183.29 84.8962 183.657C85.685 183.862 86.4491 184.153 87.1747 184.524C88.5235 185.187 89.0223 183.608 90.0436 183.411C93.2417 187.271 92.6496 188.45 87.0034 189.508C87.2069 191.433 85.8904 191.293 84.6417 191.245C82.6205 194.025 79.893 195.466 76.4591 195.57C73.2882 199.441 75.509 203.513 76.0435 207.509C76.1911 208.601 77.1971 208.494 78.003 208.494C89.7569 208.5 101.511 208.506 113.266 208.511C114.89 208.511 115.16 208.049 114.999 206.305C114.632 202.354 114.768 198.355 114.732 194.374C114.732 193.539 114.961 192.616 115.708 192.248C116.656 191.78 117.097 192.827 117.677 193.325C118.756 194.254 119.793 195.231 120.847 196.19C121.785 195.587 122.217 194.355 123.392 194.067C125.891 193.454 126.227 191.691 125.741 189.584C124.976 186.251 124.815 182.797 122.518 179.854C120.68 177.491 122.178 175.045 125.202 174.908C126.32 174.857 127.453 174.996 128.554 174.813C129.457 174.664 130.744 174.923 130.734 173.35L130.085 172.799C128.578 172.12 126.993 171.971 125.36 171.923C122.457 171.842 122.253 171.54 122.815 168.65C122.947 167.963 123.217 167.286 122.721 166.631Z" fill="#E8EFFE"/>
<path d="M130.751 173.362C128.815 174.762 126.608 173.701 124.559 174.051C123.475 174.232 121.939 173.391 121.522 175.203C121.105 177.015 119.961 179.024 121.717 180.658C124.99 183.699 124.192 187.924 125.11 191.64C125.353 192.614 124.601 193.15 123.627 193.093C121.361 192.957 120.891 194.374 120.848 196.2C120.848 199.266 120.979 202.335 120.835 205.393C120.718 207.855 121.744 208.617 124.089 208.541C128.478 208.414 132.875 208.605 137.263 208.487C152.264 208.083 167.24 209.259 182.236 209.108C188.321 209.048 188.321 209.108 186.698 203.461C186.845 202.856 186.56 202.522 186.009 202.354C185.062 203.595 184.409 203.233 184.034 201.942C183.186 199.057 181.767 196.437 180.51 193.738C174.063 193.738 167.616 193.829 161.181 193.685C158.575 193.626 157.788 194.727 157.735 197.123C157.634 202.346 157.566 202.344 152.26 202.344C148.272 202.344 144.287 202.222 140.296 202.388C137.711 202.495 136.82 201.399 136.835 198.977C136.883 191.715 136.856 184.452 136.857 177.188C134.246 176.83 132.896 174.456 130.751 173.362Z" fill="#D6E3FE"/>
<path d="M282.132 76.2307C291.285 76.2698 298.462 69.0259 298.519 59.9681C298.574 51.2514 291.394 43.3526 281.956 43.5749C272.641 43.7955 265.682 50.6134 265.568 59.8562C265.46 69.2482 273.237 76.5107 282.132 76.2307Z" fill="#E8EFFE"/>
<path d="M68.6568 211.736C68.6313 210.209 68.5957 208.665 68.5821 207.129C68.5482 203.3 67.2367 201.313 63.45 200.81C59.0219 200.223 55.3268 198.251 51.8013 195.798C49.7467 194.369 49.0036 194.537 48.7576 197.245C48.4658 200.469 47.5598 203.632 47.0373 206.841C46.5147 210.05 46.1381 213.253 45.6987 216.464C46.1517 216.518 46.4045 216.633 46.5113 216.549C47.721 215.62 48.8475 214.419 50.5831 215.344C51.8708 216.023 52.1966 217.295 51.8946 218.498C51.3856 220.489 49.8723 222.269 48.0484 222.45C45.1337 222.742 45.1948 224.341 45.1643 226.423C45.1371 228.864 45.5409 231.333 44.8775 233.755C44.4822 235.195 45.6427 235.53 46.5453 235.879C47.5632 236.276 48.4777 236.61 48.2707 237.959C48.4909 238.257 48.791 238.486 49.1359 238.619C51.6604 239.149 54.2257 239.105 56.7315 238.713C59.2917 238.314 61.6804 238.049 64.1523 239.303C66.1594 240.321 66.8974 238.686 67.2062 237.086C67.856 233.782 67.9052 230.402 68.1291 227.061C68.3751 223.395 68.8078 219.764 69.2319 216.124C69.4236 214.621 69.7697 213.075 68.6568 211.736Z" fill="#FEFEFE"/>
<path d="M87.6357 184.456C87.4474 182.864 86.124 183.216 85.1197 182.858C83.9083 182.427 82.4187 183.236 80.9359 181.425C83.0261 181.425 84.6684 181.536 86.275 181.4C88.506 181.212 89.5698 180.137 91.0814 178.045C94.4288 173.413 91.777 169.515 91.1239 165.504C89.8531 157.712 87.9241 150.025 86.1715 142.316C85.7491 140.45 85.5557 138.714 86.482 136.985C86.9401 136.137 87.0894 135.415 85.783 135.288C85.2859 135.967 84.5479 135.868 83.8421 135.901C79.655 136.092 79.655 136.096 79.6499 140.155C79.6499 141.885 79.6669 143.616 79.6499 145.347C79.616 148.247 78.537 148.943 75.9174 147.76C75.4594 147.555 75.0369 147.275 74.5975 147.029C74.1343 148.53 75.4882 150.186 74.2039 151.62C73.9647 152.406 73.9884 153.215 73.9307 154.02C73.6491 157.922 71.1144 160.447 67.1156 160.722C65.7991 160.814 64.3315 160.495 64.4011 162.56C64.9643 164.781 66.3012 166.756 66.5744 169.074C66.6304 169.486 66.1078 168.943 66.5116 169.016C66.6694 169.045 66.6813 168.952 66.5676 168.73C65.6888 167.021 64.3519 165.594 63.563 163.827C62.5942 162.175 62.338 159.904 59.8746 159.536C58.5004 159.957 57.4689 160.61 58.0084 162.317C59.9951 162.582 60.862 164.094 61.6136 165.66C62.8521 168.239 63.9888 170.859 67.1648 171.658C68.1013 171.893 67.896 172.736 67.9079 173.426C67.119 174.546 67.5872 175.576 68.1302 176.603C69.747 177.294 68.4372 179.788 70.3849 180.275C70.6716 177.26 69.7928 174.441 68.914 171.621C68.5441 170.433 68.0793 169.03 69.3653 168.3C70.6801 167.555 71.2179 169.149 71.9983 169.814C72.8687 170.557 73.5253 171.611 73.4438 172.749C73.2742 175.05 74.0597 177.078 74.7163 179.208C76.0582 183.57 77.0626 184.907 81.5501 184.977C84.1781 185.023 84.139 187.446 85.744 188.201C86.6873 187.122 87.8885 186.156 87.6357 184.456Z" fill="#E9F0FE"/>
<path d="M260.465 172.798C260.465 163.382 260.468 153.966 260.473 144.551C260.473 143.171 260.838 141.727 258.765 141.205C257.53 140.894 258.054 139.447 258.037 138.49C257.9 130.958 257.91 131.105 250.596 130.905C247.595 130.822 246.492 131.753 246.924 134.684C247.057 135.585 246.865 136.53 246.96 137.441C247.24 140.134 246.609 141.907 243.367 141.458C242.179 141.288 241.409 141.76 241.414 143.141C241.443 152.557 241.441 161.976 241.487 171.385C241.487 171.862 241.838 172.335 242.026 172.809L260.465 172.798Z" fill="#D5E3FE"/>
<path d="M241.419 174.053V201.131C242.019 202.032 242.888 202.585 243.858 203.011C251.016 205.896 256.328 210.669 259.375 217.874C260.454 220.419 260.563 220.378 262.281 219.475C262.979 214.575 262.426 209.651 262.621 204.742C262.667 203.554 262.293 202.242 263.406 201.285C261.15 200.425 260.995 198.638 261.031 196.534C261.141 190.286 261.007 184.033 261.101 177.786C261.14 175.115 260.332 173.883 257.39 173.991C252.078 174.188 246.746 174.047 241.419 174.053Z" fill="#D4E2FE"/>
<path d="M242.028 209.73C235.786 209.73 229.543 209.808 223.303 209.684C220.858 209.637 219.767 210.311 219.835 212.961C219.94 217.106 219.797 217.11 215.544 217.113C213.52 217.113 211.496 217.113 209.47 217.303C212.005 218.186 214.664 217.329 217.239 218.121C218.817 218.608 219.663 219.046 218.98 220.799C218.809 221.279 218.707 221.78 218.674 222.289C217.848 231.452 217.862 231.411 226.533 233.997C231.512 235.483 236.324 237.513 241.419 238.631C242.267 237.866 242.331 236.817 242.345 235.797C242.448 227.6 242.353 219.401 242.404 211.203C242.399 210.689 242.27 210.184 242.028 209.73Z" fill="#E9F0FE"/>
<path d="M253.093 257.714C253.115 258.891 253.138 260.069 253.163 261.247C253.798 264.79 253.163 268.373 253.528 271.937C253.898 275.454 255.24 276.89 258.735 277.046C261.49 277.17 264.262 277.27 267.007 276.961C270.041 276.622 271.16 275.385 271.298 272.559C271.342 269.254 270.875 265.942 271.557 262.643C272.365 259.804 271.338 256.843 272.129 254.003C272.796 252.749 272.424 251.398 272.441 250.1C272.494 245.972 272.272 245.72 268.254 245.668C264.17 245.614 260.086 245.617 256.001 245.68C253.652 245.715 252.418 246.552 252.754 249.213C253.112 252.012 252.452 254.894 253.093 257.714Z" fill="#3F3D56"/>
<path d="M267.253 172.809C267.253 167.518 267.32 162.225 267.206 156.936C267.163 154.926 267.859 154.293 269.842 154.323C276.352 154.425 282.864 154.367 289.375 154.372C288.311 149.669 286.905 145.018 284.424 140.911C279.981 133.554 275.504 126.172 269.427 119.971C268.833 119.366 268.341 118.15 267.294 118.589C266.293 119.01 266.578 120.217 266.651 121.094C267.05 125.938 265.779 130.854 267.416 135.687C267.756 136.662 266.597 137.893 266.604 139.194C266.651 149.752 266.627 160.31 266.627 170.867C266.627 171.573 266.57 172.311 267.253 172.809Z" fill="#ECF2FE"/>
<path d="M74.6642 151.239C77.6535 149.786 74.5929 148.435 74.5946 147.032C72.9913 142.871 69.4608 141.521 65.5027 140.794C58.2583 140.781 55.0602 143.509 53.3161 150.696C52.3813 154.556 50.8815 158.174 48.0567 161.216C46.0717 163.352 44.5058 165.918 42.9857 168.433C41.8269 170.35 41.8846 172.602 42.5768 174.674C43.2012 176.54 43.3674 178.181 41.5487 179.595C43.7865 180.659 45.3286 179.22 47.0371 178.899C49.0917 176.06 50.9562 173.223 54.7107 172.033C56.8705 171.355 57.8019 168.955 57.6933 166.464C57.6322 165.078 57.1114 163.631 58.0089 162.311C58.1785 161.05 59.1965 160.469 60.0736 159.792C61.7702 159.231 61.9297 157.777 61.9687 156.336C62.0264 154.179 62.6948 152.773 65.221 153.153C65.7181 153.229 66.3255 153.202 66.7004 152.903C69.0807 151.006 71.8495 151.037 74.6642 151.239Z" fill="#56224B"/>
<path d="M68.6566 211.736C67.8728 220.56 67.0913 229.378 66.312 238.19C66.2322 239.101 65.7165 239.756 65.0192 239.056C61.9874 236.001 58.5315 237.849 55.2164 237.988C53.1805 238.071 51.1446 238.092 49.1087 238.139C48.0246 238.818 47.5376 239.666 48.2807 240.897C50.9579 242.843 54.0203 241.73 56.9112 241.988C62.4743 242.312 67.9492 241.536 73.4138 240.644C76.41 240.04 79.5012 240.208 82.4922 239.554C84.0191 237.052 82.8315 234.634 82.1529 232.258C80.9789 228.08 79.608 223.957 78.322 219.812C77.7384 218.68 77.1542 217.549 76.5695 216.418C75.3072 213.284 74.9815 209.904 74.0093 206.695L74.0348 206.736C73.648 204.66 73.8329 202.475 72.8234 200.52C70.3956 199.47 69.4014 200.098 69.3811 202.906C69.3624 205.841 69.4896 208.843 68.6566 211.736Z" fill="#1E2366"/>
<path d="M22.6425 77.4577C15.9495 76.477 11.2754 83.7242 11.3586 88.5925C11.4671 94.6892 16.8351 100.301 22.9716 100.163C28.7213 100.026 34.4269 95.48 34.186 88.4771C33.9553 81.7677 29.6358 77.4543 22.6425 77.4577Z" fill="#E8EFFE"/>
<path d="M235.879 341.929C235.879 335.228 231.108 330.236 224.719 330.31C217.649 330.394 213.182 336.38 213.155 341.849C213.133 348.222 218.121 353.065 224.43 353.072C231.429 353.074 235.882 348.742 235.879 341.929Z" fill="#E8EFFE"/>
<path d="M242.029 209.73C241.35 210.83 241.406 212.055 241.408 213.28C241.418 221.731 241.422 230.182 241.42 238.633C244.728 240.111 248.435 239.91 251.811 241.105C253.493 239.62 251.62 237.679 252.473 236.092C252.858 235.414 253.452 235.01 254.159 234.735C255.885 234.396 257.622 234.598 259.349 234.552C261.484 234.496 262.573 233.452 262.547 231.343C262.503 228.368 263.396 225.102 260.181 223.028C253.564 220.458 248.355 216.265 245.032 209.88C244.676 209.201 244.353 208.33 243.281 208.452C243.249 208.688 243.216 208.926 243.183 209.162C242.955 209.662 242.497 209.703 242.029 209.73Z" fill="#D5E3FE"/>
<path d="M49.6114 275.987C49.7811 278.247 48.6868 279.201 46.4863 279.578C42.954 280.183 39.4438 280.044 35.9132 279.864C33.9724 279.766 32.196 279.715 32.2469 282.579C32.2961 285.337 33.6738 286.212 36.1355 286.007C40.1428 285.668 44.1094 285.895 48.1965 285.133C51.8424 284.454 56.0787 285.116 60.0216 285.547C66.3345 286.238 72.6085 286.094 78.9316 285.596C84.2029 285.181 89.5047 285.215 94.7302 284.202C96.6202 283.837 99.5841 283.862 99.4382 281.894C99.2872 279.878 96.3131 279.939 94.2907 279.868C93.8836 279.853 93.473 279.902 93.0641 279.92C89.9645 281.799 83.1425 281.193 80.6791 278.873C79.2251 277.502 77.8899 275.782 75.4689 276.476C74.7903 276.851 74.8649 277.592 74.6206 278.283C74.7903 277.636 74.6783 277.095 74.5935 276.54C74.0523 275.582 73.5874 274.504 72.1385 274.984C71.8976 276.681 70.973 277.268 69.2255 277.231C65.9732 277.163 62.7141 277.048 59.4566 277.214C58.1944 278.644 60.0521 279.498 60.2693 280.718C57.9535 281.237 55.9074 280.379 53.8104 280.209C53.4489 280.185 53.1033 280.052 52.8198 279.826C52.5363 279.6 52.3284 279.293 52.2241 278.946C51.7728 277.575 50.2391 277.187 49.6114 275.987Z" fill="#E8EFFE"/>
<path d="M18.1332 208.507C21.5993 208.507 25.0671 208.431 28.5316 208.521C30.2909 208.565 31.1137 208.11 31.0934 206.145C31.0119 198.091 31.0119 190.035 31.0934 181.978C31.112 180.066 30.3961 179.433 28.5808 179.559C26.9571 179.667 25.3199 179.586 23.6878 179.588C20.2947 187.393 17.7057 195.436 17.6192 204.034C17.6039 205.454 15.3661 207.367 18.1332 208.507Z" fill="#D6E3FE"/>
<path d="M208.753 253.362C208.753 255.204 208.861 257.056 208.727 258.89C208.558 261.279 209.153 263.325 210.809 265.066C212.041 266.363 212.456 267.561 210.639 268.827C208.578 270.264 209.961 271.898 210.616 273.435C211.294 275.054 212.253 275.553 213.934 274.503C214.952 273.868 216.163 274.333 217.122 274.991C218.254 275.763 219.328 276.844 220.122 274.691C220.703 273.094 223.175 271.408 220.135 269.901C218.323 269.001 218.064 267.583 218.724 266.081C222.03 258.554 219.896 250.967 219.175 243.386C219.005 241.674 218.393 241.199 216.84 242.028C216.303 242.313 215.653 242.393 215.129 242.697C213.137 243.851 209.903 242.88 208.931 245.149C208.115 247.053 208.761 249.581 208.751 251.833C208.751 252.339 208.752 252.849 208.753 253.362Z" fill="#5CDAC8"/>
<path d="M192.216 242.904C191.322 245.861 191.805 248.902 191.69 251.897C191.544 255.72 191.663 259.567 190.372 263.256C190.056 265.971 189.769 268.706 189.41 271.424C189.296 272.29 189.523 272.75 190.382 273.003C191.24 273.255 192.067 273.742 192.944 273.985C194.93 274.535 197.855 275.151 198.644 273.646C199.706 271.621 201.737 269.234 200.494 266.57C199.767 265.004 199.929 263.614 200.29 262.132C201.388 257.641 201.647 253.053 201.92 248.466C202.141 244.66 201.316 243.715 197.355 243.581C195.602 243.525 193.916 243.23 192.216 242.904Z" fill="#5CDAC8"/>
<path d="M82.4876 239.554C79.4897 239.466 76.4766 238.845 73.5093 239.821C70.2858 245.337 71.0951 251.218 72.0706 257.062C72.6033 260.252 74.0319 263.295 73.5772 266.639C73.3549 267.635 73.2972 268.633 73.5772 269.627C76.631 272.987 79.8732 276.148 83.5072 278.887C84.9748 279.993 86.1251 279.717 86.9004 278.023C83.6769 275.772 81.965 272.636 81.4713 268.784C80.7825 268.141 80.9217 267.284 80.92 266.488C80.9013 258.33 80.9386 250.171 80.8521 242.015C80.83 240.65 81.2796 239.934 82.4876 239.554Z" fill="#FDB0B2"/>
<path d="M56.9623 241.173C54.0781 240.751 51.1362 241.316 48.2843 240.542C46.0092 241.984 45.8684 244.424 45.6512 246.686C45.3899 249.418 45.641 252.159 47.0746 254.636C47.9229 259.569 50.5899 264.266 49.0002 269.516C48.4913 273.035 50.612 275.579 52.4748 278.058C53.9916 280.075 56.3447 279.317 58.4128 276.488C58.4637 275.971 58.4587 275.433 58.2432 274.976C55.8934 270.004 55.7119 264.715 55.9189 259.365C56.6722 254.404 56.3498 249.342 57.3474 244.402C57.5696 243.308 57.7987 242.164 56.9623 241.173Z" fill="#FEB0B1"/>
<path d="M202.793 286.197C209.749 284.975 216.671 285.858 223.351 284.161C223.744 284.061 224.209 284.115 224.538 283.923C225.565 283.331 227.422 283.245 227.39 281.986C227.351 280.582 225.653 280.192 224.347 279.868C222.038 279.294 219.959 278.315 218.524 281.77C217.689 283.779 215.017 282.279 213.207 281.991C212.019 281.801 210.416 281.777 210.631 279.736C210.801 278.108 209.654 277.986 208.426 278.001C206.482 278.029 204.536 278.02 202.591 278.001C201.892 278.001 200.895 278.269 200.581 277.614C199.505 275.334 197.495 276.505 196.779 277.146C193.138 280.402 188.824 279.861 184.574 279.846C182.504 279.846 179.626 279.646 179.36 281.812C179.15 283.536 182.059 283.769 183.904 284.254C190.193 285.919 196.703 284.862 202.793 286.197Z" fill="#E9F0FD"/>
<path d="M270.973 272.514C270.905 275.09 269.115 276.104 267.001 276.274C264.061 276.512 261.084 276.434 258.13 276.305C255.627 276.198 254.307 274.703 254.022 272.207C253.607 268.565 253.941 264.866 253.162 261.255C253.137 264.014 252.971 266.784 253.13 269.534C253.279 272.132 252.484 273.16 249.703 273.183C246.479 273.206 243.219 273.629 240.143 274.852C239.357 275.164 238.511 275.351 238.455 276.356C238.394 277.423 239.366 277.744 240.071 277.929C242.815 278.65 245.57 279.559 248.371 279.795C259.854 280.737 271.341 281.012 282.727 278.657C283.124 278.575 283.565 278.64 283.935 278.499C284.98 278.103 286.393 277.759 286.471 276.559C286.554 275.28 285.131 274.783 284.096 274.55C281.424 273.955 278.721 273.42 276.002 273.164C274.475 273.018 272.973 272.853 271.492 272.473C271.29 272.175 271.119 272.2 270.973 272.514Z" fill="#E9EFFE"/>
<path d="M259.183 223.193C261.321 224.666 262.785 230.576 261.667 233.016C261.195 234.045 260.325 233.671 259.575 233.768C257.397 234.052 255.123 233.144 253.014 234.298C253.238 234.574 253.523 234.795 253.847 234.942C254.171 235.09 254.525 235.159 254.88 235.146C260.211 235.097 265.549 235.553 270.861 234.91C272.387 234.002 271.461 233.49 270.496 233.174C269.125 232.725 267.661 233.055 266.254 232.867C264.488 232.631 265.067 231.944 266.019 231.253C268.813 229.338 271.894 227.912 274.688 225.993C277.319 224.188 279.869 222.316 281.9 219.829C285.517 215.401 290.553 212.671 294.806 209.006C295.269 208.432 296.333 207.867 295.749 207.126C294.926 206.067 294.053 207.375 293.169 207.498C288.524 208.903 285.013 212.013 281.802 215.407C277.275 220.181 272.301 224.313 266.393 227.235C265.795 227.531 264.855 228.917 264.405 227.013C264.473 223.041 264.498 219.079 264.422 215.12C264.383 213.128 264.709 211.298 265.796 209.624L266.5 209.093C271.901 206.934 275.172 202.078 279.634 198.73C280.085 198.263 281.057 197.79 280.506 197.125C279.54 195.961 278.6 197.313 277.633 197.491C275.195 198.465 273.025 200.006 271.303 201.988C269.169 204.387 266.602 206.271 263.531 207.367C263.488 205.34 263.446 203.313 263.406 201.285C261.081 200.646 261.796 202.453 261.777 203.444C261.665 209.113 261.635 214.784 261.577 220.453C261.119 220.806 260.684 220.808 260.208 220.443C256.852 217.884 253.832 215.013 251.878 211.205C250.082 207.629 247.348 204.609 243.968 202.466C243.093 202.069 242.528 201.083 241.423 201.131C240.695 202.117 241.413 202.758 241.973 203.437C246.262 208.307 249.708 213.811 253.666 218.927C255.111 220.787 257.341 221.778 259.183 223.193Z" fill="#535770"/>
<path d="M32.7426 320.458C37.4472 320.38 41.0134 316.661 40.8997 311.954C40.8013 307.932 36.5276 303.714 32.7256 303.889C28.4689 304.085 24.2105 308.49 24.3343 312.57C24.4531 316.532 28.7098 320.535 32.7426 320.458Z" fill="#E8EFFE"/>
<path d="M298.53 266.324C303.211 266.275 306.65 262.821 306.609 258.211C306.567 253.541 303.021 250.253 298.106 250.326C293.525 250.394 290.225 253.72 290.196 258.301C290.171 262.452 294.238 266.368 298.53 266.324Z" fill="#E8EFFE"/>
<path d="M213.316 145.232C213.485 144.768 213.529 144.154 213.857 143.874C218.506 139.802 215.063 136.194 213.236 132.505C212.851 131.728 212.162 131.138 211.353 131.075C208.217 130.834 205.276 129.278 202.047 129.733C202.033 129.771 202.011 129.805 201.983 129.834C201.954 129.863 201.92 129.885 201.883 129.9C201.845 129.914 201.804 129.921 201.764 129.919C201.724 129.917 201.684 129.906 201.648 129.887C199.553 131.357 197.968 133.695 194.964 133.62C194.299 133.602 193.361 134.212 193.568 134.966C194.506 138.371 192.762 142.432 196.024 145.262C196.609 146.201 197.166 145.883 197.644 145.182C198.277 144.258 198.673 143.202 199.171 142.205C200.237 140.082 201.733 138.811 204.28 139.432C204.577 139.499 204.881 139.535 205.186 139.54C209.962 139.68 209.962 139.678 211.076 144.36C211.261 145.133 211.219 146.131 212.147 146.38C212.866 146.554 212.652 145.349 213.316 145.232Z" fill="#502C50"/>
<path d="M90.713 135.286C93.0883 137.299 92.6268 140.061 92.5199 142.652C92.4368 144.709 92.7625 146.087 95.2531 145.809C95.6263 145.766 96.0284 146.028 96.4254 146.114C102.399 147.417 102.399 147.416 102.399 153.85C102.399 155.686 102.52 157.532 102.372 159.356C102.139 162.241 103.821 162.563 106.026 162.338C109.957 161.934 110.892 161.133 110.168 158.392C109.733 156.755 109.817 155.168 109.864 153.55C107.691 150.553 105.438 147.611 103.364 144.543C101.021 141.078 99.7185 137.102 98.1797 133.249C98.1916 134.784 97.4688 135.407 95.9063 135.31C94.1893 135.205 92.4537 135.286 90.713 135.286Z" fill="#E9F0FE"/>
<path d="M47.0744 254.636C46.6672 249.868 45.6188 245.045 48.2841 240.54L49.1035 238.139L48.2807 237.959C47.0591 238.08 45.9055 237.869 44.6992 237.569C42.4122 237 41.815 235.884 42.4241 233.595C43.2062 230.63 42.5938 227.537 42.7634 224.505C42.8415 223.037 42.6701 221.888 40.6885 222.007C38.9444 222.112 38.4219 222.991 38.4354 224.569C38.466 228.441 38.4354 232.314 38.4354 236.186C38.4354 239.86 38.5355 243.537 38.41 247.207C38.3404 249.243 39.1327 250.431 40.9107 251.279C43.0145 252.297 45.0233 253.509 47.0744 254.636Z" fill="#D7E3FE"/>
<path d="M209.494 155.601C209.459 155.331 209.421 155.063 209.384 154.793C207.518 154.199 206.669 155.83 205.578 156.694C203.926 157.999 202.525 159.18 201.289 156.336C201.139 155.996 200.65 155.879 200.226 155.889L199.686 156.376C198.933 168.317 199.975 180.302 198.57 192.243C197.795 198.842 199.126 205.468 200.097 212.069C200.278 208.685 200.501 205.303 200.631 201.916C200.979 192.809 201.342 183.702 201.575 174.597C201.615 172.453 202.152 170.348 203.142 168.446C205.321 164.187 207.385 159.88 209.494 155.601Z" fill="#5CDAC8"/>
<path d="M251.826 235.533C250.513 237.387 252.608 239.249 251.811 241.103C252.605 242.01 251.548 243.309 252.467 244.188C257.022 243.464 261.61 244.047 266.179 243.859C267.662 243.798 269.153 243.993 270.632 243.796C264.582 244.105 258.509 243.469 252.469 244.19C252.162 248.722 252.102 253.243 253.093 257.714C253.061 254.77 253.107 251.821 252.964 248.89C252.881 247.151 253.504 246.566 255.224 246.593C260.108 246.674 264.998 246.701 269.881 246.583C271.893 246.535 272.281 247.38 272.13 249.138C271.991 250.748 272.12 252.381 272.13 254.003C273.369 249.742 272.514 245.385 272.743 241.078C270.295 239.931 267.702 240.639 265.18 240.525C262.426 240.399 259.662 240.499 256.904 240.493C261.098 240.493 265.29 240.493 269.484 240.493C270.6 240.493 271.75 240.352 272.743 241.073C273.779 240.121 272.595 239.091 272.85 238.112C271.844 236.955 270.454 237.126 269.158 237.109C265.188 237.053 261.215 237.04 257.246 237.109C255.243 237.138 253.414 236.8 251.826 235.533Z" fill="#9A99AA"/>
<path d="M263.54 228.348C263.725 229.928 264.614 229.18 265.257 228.808C270.749 225.637 276.343 222.647 280.526 217.624C284.031 213.413 288.626 210.458 293.178 207.497L292.462 207.273C287.542 208.602 282.622 209.859 278.131 212.461C273.423 215.188 269.862 219.036 266.645 223.295C264.556 224.332 264.356 226.529 263.54 228.348Z" fill="#5CDAC8"/>
<path d="M79.6492 135.286C76.9042 131.713 76.955 131.383 81.0845 129.726C82.3094 129.234 82.1025 128.331 82.1025 127.471C82.0872 125.356 82.9864 124.182 85.1953 124.214C84.9442 122.655 83.8771 122.831 82.8897 123.257C76.424 126.04 70.0093 128.925 64.1561 132.897C63.4927 133.347 62.5223 133.796 62.7988 134.694C63.0991 135.693 64.2019 135.262 64.9535 135.268C69.8447 135.303 74.7461 135.286 79.6492 135.286Z" fill="#E9F0FE"/>
<path d="M294.811 209.006C290.433 211.042 286.429 213.732 283.274 217.332C278.98 222.253 273.924 226.017 268.217 229.041C267.418 229.465 266.712 230.059 265.962 230.578C266.654 231.435 267.592 231.335 268.476 231.119C275.877 229.317 282.885 226.818 287.546 220.217C290.315 216.696 293.294 213.323 294.811 209.006Z" fill="#5CDAC8"/>
<path d="M117.934 325.396C114.624 325.498 112.106 328.169 112.264 331.413C112.396 334.128 115.592 337.104 118.253 336.977C120.957 336.848 124.021 333.556 123.829 330.974C123.616 328.021 120.742 325.31 117.934 325.396Z" fill="#E8EFFE"/>
<path d="M80.1358 25.7819C76.573 25.8192 74.7339 27.6942 74.7288 31.2814C74.7288 34.4714 77.2839 36.8945 80.6194 36.8572C83.6969 36.8233 85.8787 34.3645 85.8007 31.0217C85.7193 27.5313 83.7869 25.7428 80.1358 25.7819Z" fill="#E8EFFE"/>
<path d="M52.2795 190.972C53.0938 189.409 54.0812 188.031 55.8423 187.454C56.319 187.298 56.8348 186.823 56.6668 186.297C55.7507 183.412 57.432 180.947 57.8544 178.286C58.0953 176.788 57.9393 175.037 56.8908 174.405C55.8423 173.774 54.0456 174.405 52.953 175.308C49.3563 178.273 48.6963 187.683 52.2795 190.972Z" fill="#FEFEFE"/>
<path d="M70.5336 198.005C73.2584 198.195 73.9166 196.648 74.0795 194.768C74.2491 192.731 72.8817 192.574 71.2835 192.468C68.2042 192.263 65.3455 191.048 62.4986 190.01C58.9104 188.701 59.8282 192.535 58.2861 193.604C56.9678 194.518 59.1801 195.131 59.9623 195.528C63.3826 197.286 67.2728 197.138 70.5336 198.005Z" fill="#FEFEFE"/>
<path d="M287.557 220.212C282.307 225.302 276.156 228.708 268.986 230.21C267.999 230.417 266.979 230.456 265.973 230.573C265.404 230.795 264.826 230.995 264.276 231.252C263.518 231.591 263.258 232.244 263.408 233.015C263.601 234 264.446 233.793 265.125 233.843C267.33 234.002 269.578 233.274 271.731 234.236C272.07 234.939 272.579 235.277 273.368 235.007C278.616 231.252 283.587 227.211 287.014 221.602C287.265 221.183 287.377 220.677 287.557 220.212Z" fill="#D6E3FE"/>
<path d="M68.668 176.667C68.4135 175.588 68.1579 174.51 67.9012 173.432C64.8914 173.464 62.6893 172.044 60.9605 169.529C60.9147 172.268 62.182 174.769 61.8427 177.463C61.673 178.768 61.7731 180.078 61.3337 181.383C60.9554 182.52 59.8068 183.928 61.5271 184.907C62.5451 185.498 64.2417 186.833 64.7201 186.056C65.5548 184.699 67.533 183.781 66.9256 181.529C66.5236 180.058 66.0773 178.118 68.5968 177.733C68.9361 177.402 68.9021 177.041 68.668 176.667Z" fill="#FEFEFE"/>
<path d="M86.8973 278.024C85.3484 279.261 84.1828 278.843 82.7712 277.526C80.0075 274.964 77.4508 272.139 74.2086 270.123C72.0302 271.034 70.9851 272.395 72.3814 274.725L74.0967 276.792C74.5157 277.145 74.9331 277.148 75.3487 276.792C77.5865 276.61 78.9641 278.027 80.1314 279.578C81.4123 281.275 82.9188 282.006 85.0667 281.847C87.3978 281.677 89.751 281.828 92.0939 281.785C93.4648 281.762 94.0518 281.229 93.0644 279.919C90.8147 279.921 88.6567 279.619 86.8973 278.024Z" fill="#222768"/>
<path d="M273.363 235.002L271.726 234.231L253.018 234.298C252.361 234.467 252.091 234.993 251.83 235.533C251.818 237.552 252.911 238.015 254.782 237.998C260.805 237.942 266.828 238.058 272.853 238.107C273.865 237.22 273.28 236.052 273.363 235.002Z" fill="#43415A"/>
<path d="M195.815 14.0923C198.458 14.1415 200.721 11.8405 200.803 9.02207C200.879 6.41062 198.672 4.2709 195.908 4.25732C193.272 4.25732 191.098 6.21379 190.988 8.69458C190.885 11.1313 193.492 14.0498 195.815 14.0923Z" fill="#E9EFFE"/>
<path d="M10.7494 242.332C13.6776 242.23 15.7492 240.162 15.5846 237.506C15.4149 234.791 13.3264 233.008 10.4185 233.094C7.60728 233.184 5.71051 235.229 5.83775 238.029C5.9633 240.583 8.06706 242.425 10.7494 242.332Z" fill="#E9EFFE"/>
<path d="M58.1278 276.816C57.327 277.221 56.4821 277.562 55.7339 278.049C54.4225 278.898 53.2909 278.582 52.692 277.328C51.4518 274.728 49.3277 272.541 49.0002 269.522C46.6573 271.92 48.3759 273.934 49.611 275.994C49.8757 278.051 50.9683 280.253 52.5902 280.713C55.5948 281.562 58.8421 282.178 62.5508 281.668C61.4735 279.865 59.6038 279.188 59.29 277.426C59.0847 276.868 58.8047 276.461 58.1278 276.816Z" fill="#2F3370"/>
<path d="M87.6358 184.456C86.9571 185.684 85.5693 186.557 85.7373 188.213L87.0063 189.514C89.3493 190.636 91.1052 189.891 92.5541 187.872C93.4177 186.667 93.438 185.642 92.2759 184.671C92.1232 184.544 91.8721 184.522 91.7398 184.381C89.7056 182.241 89.709 182.242 87.6358 184.456Z" fill="#F7AFB2"/>
<path d="M263.537 207.367C263.561 208.046 263.931 208.327 264.492 207.964C266.684 206.539 269.21 205.395 270.915 203.513C272.975 201.241 275.391 199.485 277.641 197.491C273.289 197.973 269.858 200.259 266.693 203.065L263.537 207.367Z" fill="#5CDAC8"/>
<path d="M68.6695 176.667C68.6458 177.024 68.6203 177.38 68.5966 177.736C68.9065 179.34 68.7127 180.999 68.0418 182.488C66.9916 184.744 67.9519 186.852 68.2573 189.015C68.4269 190.163 69.2905 190.507 70.2287 190.509C71.5622 190.509 71.0634 189.375 71.1414 188.681C71.4604 185.83 70.9718 183.044 70.3797 180.272C69.3804 179.279 70.4373 177.305 68.6695 176.667Z" fill="#3D4179"/>
<path d="M76.4619 195.577C79.8347 196.833 83.8488 194.71 84.6445 191.252C83.5265 191.238 82.4084 191.208 81.2921 191.216C76.8437 191.255 76.8437 191.259 76.4619 195.577Z" fill="#FDB3B4"/>
<path d="M186.011 202.354L186.7 203.463C188.566 203.583 188.033 206.138 189.959 206.551C190.083 204.413 190.334 202.351 190.28 200.298C190.235 198.705 189.262 198.387 188.021 199.378C187.059 200.149 186.23 201.06 186.011 202.354Z" fill="#D38290"/>
<path d="M215.152 203.632C212.226 200.337 211.4 200.464 207.335 204.672C210.153 205.117 212.443 202.965 215.152 203.632Z" fill="#D17A89"/>
<path d="M86.415 131.596C87.8181 132.863 88.0896 135.453 90.7227 135.288C90.1526 133.046 89.496 130.907 86.415 131.596Z" fill="#E9F0FE"/>
<path d="M74.0141 206.689C74.3653 210.063 74.8352 213.404 76.5742 216.412C75.9719 213.105 75.5868 209.74 74.0141 206.689Z" fill="#E8EFFE"/>
<path d="M270.974 272.514C271.145 272.513 271.315 272.498 271.483 272.468C271.507 269.193 271.529 265.918 271.551 262.643C270.55 265.879 270.872 269.2 270.974 272.514Z" fill="#9A99AA"/>
<path d="M272.13 253.998C271.121 256.823 271.436 259.737 271.558 262.638C272.515 259.808 272.239 256.903 272.13 253.998Z" fill="#9A99AA"/>
<path d="M72.8269 200.515L74.0382 206.73C74.1723 204.555 74.459 202.347 72.8269 200.515Z" fill="#E8EFFE"/>
<path d="M112.26 156.17C112.209 163.592 112.209 163.592 104.625 163.586C100.011 163.586 99.9546 163.53 99.9444 158.993C99.9444 156.227 99.9139 153.461 99.9444 150.696C99.9682 149.067 99.315 148.334 97.615 148.182C90.0161 147.512 89.7802 147.738 91.2545 155.158C92.1469 159.648 92.9511 164.152 93.9691 168.619C94.2897 170.036 94.6324 171.433 95.7844 172.71C97.1417 174.21 95.8828 176.16 94.5968 177.048C92.0401 178.804 93.3922 181.156 93.2989 183.199C93.2107 185.109 95.0871 184.237 96.1407 184.527C97.8865 185.009 98.6686 186.321 98.6245 188.009C98.5074 192.575 99.1335 193.064 103.421 191.681C106.525 190.678 109.618 189.562 112.803 188.915C114.638 188.542 115.438 187.636 115.266 186.088C114.817 182.016 116.7 177.692 113.995 173.861C113.89 173.712 113.79 173.399 113.865 173.308C116.542 170.055 114.873 166.208 115.315 162.657C115.438 161.672 115.85 161.17 116.781 161.019L112.26 156.17Z" fill="#D6E3FE"/>
<path d="M136.859 157.335C139.302 158.002 138.959 156.018 139.178 154.771C140.535 147.022 141.81 139.262 143.25 130.725C144.86 135.161 145.44 139.077 146.093 142.931C146.557 145.661 147.58 146.993 150.45 146.557C151.351 146.421 152.293 146.586 153.211 146.519C154.251 146.445 155.755 146.859 155.718 145.128C155.682 143.67 154.327 143.745 153.368 143.891C150.107 144.387 148.742 143.253 148.265 139.795C147.515 134.341 146.031 128.989 144.872 123.593C144.65 122.56 144.415 121.421 143.175 121.328C141.774 121.221 141.665 122.497 141.508 123.478C140.32 130.847 139.17 138.22 138.008 145.593C137.68 147.219 137.46 148.756 136.515 150.326C135.235 152.458 135.816 155.033 136.859 157.335Z" fill="#E4EDFE"/>
<path d="M136.859 157.335C136.567 154.45 136.311 151.613 137.867 148.876C138.349 148.028 137.988 146.701 138.011 145.593C137.713 146.508 137.414 147.42 136.873 149.083C135.695 144.899 134.715 141.403 133.729 137.908C133.434 136.863 133.478 135.454 132.017 135.341C130.524 135.224 130.373 136.579 130.034 137.636C129.659 138.804 129.272 139.968 128.887 141.132C127.764 144.526 126.436 144.845 123.83 142.418C122.418 141.105 120.888 140.158 118.923 141.4C121.336 143.852 121.346 145.705 118.965 148.849C120.801 150.015 122.265 149.088 123.612 147.931C124.291 147.346 124.729 146.404 125.818 146.538C128.734 146.9 131.103 146.394 131.378 142.416L132.107 142.836C133.266 146.796 134.416 150.758 135.59 154.714C135.875 155.645 135.762 156.789 136.859 157.335Z" fill="#D4E1FE"/>
<path d="M118.969 148.844C122.761 148.393 121.11 145.416 121.443 143.414C121.775 141.412 120.275 141.441 118.927 141.403C115.406 143.604 115.423 146.608 118.969 148.844Z" fill="#F4F7FE"/>
<path d="M122.722 166.63C122.352 167.445 121.904 168.232 121.626 169.076C120.765 171.684 121.578 172.778 124.34 172.809C126.257 172.827 128.173 172.809 130.09 172.809L122.722 166.63Z" fill="#C8DAFE"/>
<path d="M200.227 155.886C201.613 156.744 201.126 159.385 202.578 159.449C204.317 159.522 205.413 157.454 206.893 156.458C207.721 155.901 208.554 155.351 209.385 154.796C209.789 152.392 210.373 150.13 212.32 148.364C213.099 147.658 213.377 146.409 213.316 145.236C212.904 144.782 212.191 146.764 211.918 145.057C211.709 143.758 211.457 142.469 211.212 141.176C211.009 140.109 210.35 139.309 209.487 138.753C206.796 137.02 200.195 138.989 198.418 141.709C197.648 142.886 198.293 145.102 196.023 145.245C196.61 146.389 196.914 147.911 197.837 148.601C200.449 150.548 200.442 153.132 200.227 155.886Z" fill="#CD7080"/>
<path d="M259.184 223.193C253.232 218.76 250.153 211.938 245.338 206.564C244.32 205.429 243.1 204.477 241.972 203.44C241.86 205.251 242.961 206.746 243.278 208.446C246.276 214.295 250.304 219.158 256.364 222.057C257.28 222.491 258.245 222.817 259.184 223.193Z" fill="#5CDAC8"/>
<path d="M263.541 228.348L266.647 223.295C266.666 219.223 266.628 215.167 266.744 211.107C266.769 210.231 266.705 209.749 265.806 209.624C264.109 209.781 263.288 210.57 263.335 212.405C263.468 217.718 263.48 223.034 263.541 228.348Z" fill="#FAFBFD"/>
<path d="M279.639 198.73C277.892 199.341 276.321 200.367 275.058 201.72C272.499 204.538 269.483 206.783 266.504 209.091C272.717 207.961 277.009 204.401 279.639 198.73Z" fill="#5CDAC8"/>
<path d="M74.6655 151.238C72.1393 149.927 69.7031 149.333 67.4347 151.807C67.0799 152.193 66.6164 152.462 66.1055 152.579C65.5946 152.696 65.0602 152.656 64.5726 152.464C61.7207 151.33 61.3644 153.168 61.305 155.179C61.2558 156.85 61.0963 158.43 60.0665 159.811C61.6901 160.815 61.9938 162.719 63.0168 164.134C64.235 164.608 64.6184 163.795 64.9323 162.886C65.0222 162.248 64.6914 161.44 65.8383 161.335C73.3405 160.649 75.0541 158.674 74.6655 151.238Z" fill="#FDB0B1"/>
<path d="M64.9237 162.88L63.0083 164.129C63.8803 166.322 65.1579 168.202 67.6484 170.128C67.0987 167.05 66.3947 164.835 64.9237 162.88Z" fill="#42477F"/>
<path d="M243.974 202.466C247.852 206.138 250.678 210.611 253.598 215.023C255.58 218.018 258.566 220.052 261.284 222.34C261.845 221.661 261.623 221.048 261.584 220.453C260.736 219.642 260.49 218.51 260.047 217.48C256.888 210.121 251.576 205.066 243.974 202.466Z" fill="#5CDAC8"/>
<path d="M56.9634 241.173C55.6892 247.232 55.5756 253.407 55.1192 259.548C59.2741 262.529 64.1959 263.682 68.9175 265.292C70.6531 265.884 72.4226 266.393 74.1667 266.967C75.4187 264.637 74.3635 262.331 73.7578 260.2C71.9645 253.904 71.3571 247.674 73.4185 241.339C73.5695 240.873 73.4897 240.321 73.5169 239.812C68.0268 240.669 62.5044 241.034 56.9634 241.173Z" fill="#D6E3FE"/>
<path d="M74.1656 266.967C74.0995 265.922 73.2936 265.73 72.5013 265.511C66.9535 263.984 61.5295 262.128 56.3143 259.677C55.9749 259.516 55.5186 259.586 55.1267 259.548C54.5549 265.577 55.4134 271.358 58.1364 276.815L59.2985 277.421C63.5162 278.69 67.8595 278.1 72.0941 277.871C75.1022 277.711 71.2458 275.726 72.3893 274.725C72.0297 272.808 73.1477 271.475 74.2148 270.123L74.1656 266.967Z" fill="#FEFEFE"/>
<path d="M75.3477 276.785H74.0956C73.9514 278.166 73.7563 279.551 74.3654 281.259C75.8295 279.754 74.9337 278.122 75.3477 276.785Z" fill="#646897"/>
<path d="M272.744 241.068C272.339 240.199 271.599 239.99 270.718 239.994C265.084 240.006 259.45 239.994 253.817 240.019C253.44 240.019 252.989 240.019 252.709 241.069H272.744V241.068Z" fill="#46445E"/>
<path d="M252.468 244.19H271.75C265.318 244.002 258.868 242.586 252.467 244.19H252.468Z" fill="#3F3D56"/>
</svg>
