<svg id="Layer_1" data-name="Layer 1" xmlns="http://www.w3.org/2000/svg" viewBox="0 0 471.83 527.74"><defs><style>.cls-1{fill:#dad6eb;}.cls-2{fill:#eca492;}.cls-3{fill:#7493cb;}.cls-4{fill:#232735;}.cls-5{fill:#818082;}.cls-6{fill:#fefefe;}</style></defs><path class="cls-1" d="M208,169.47c-1.78-1.44-3.4-.05-4.94.47-9.68,3.24-19.3,6.64-29.07,9.63-7.18,2.21-14.29,4.65-21.38,7.13-6.23,2.17-10.73,6.65-14.56,11.77-5.86,7.84-9.82,16.67-13.51,25.71-1.85,4.53-4.16,8.94-6.19,13.44-4.31,9.52-8.5,19.1-12.9,28.58-.65,1.4-1.32,3-2.78,3.95a39.39,39.39,0,0,1-1.73-3.95c-3.55-10.91-7.12-21.82-10.51-32.78-1.11-3.59-2.78-7-3.48-10.72-.36-2-1.3-3.1-3.45-1.41a5.29,5.29,0,0,1-3.58,1.32c-.68-2.11-1.37-4.21-2.05-6.32,1.19-1.29,3.21-3,.66-4.21s-1.67-2.83-1.08-4.32c.87-2.21,2.26-4.21,3.13-6.41,3.86-9.73,5.44-20.09,8.18-30.13,1.27-4.68,1.14-4.71-3.77-5.35-1.34-1.64-4.42-.4-5.12-3.1a4.13,4.13,0,0,1-.63-3.31.8.8,0,0,0,1.24-.3c1.89-.93,1.47-2.36,0-2.66-3.31-.63-2.66-2.45-2-4.6.78-2.54,2.1-4.93,2-7.72-.07-1.89-.4-3.88-2.28-4.43-1.57-.46-2,1.57-2.71,2.64-2.59,3.78-2.56,3.8-5.75,1.21a3.69,3.69,0,0,0-1.13-2.67c-3.31-3.69-5.17-8.3-7.94-12.34s-2.73-4.1-7-2.48l-2.1-2.74a6.06,6.06,0,0,1-2.77-2.51q-4.74-7.39-9.65-14.68c-.52-.78-.79-2-2.36-2.25C40.55,111.82,47,117.8,49.46,126l1.41,2.25c-1.06,1.35-4.45,1.39-2.34,4.53,4.18,6.23,8.21,12.57,12.34,18.84.57.85.87,2.08,2.24,2.15-.23,1.71,2.11,3,1.39,4.28s-3,.1-4.44.62c-.19.07-.43.1-.54.23-2.92,3.48-7.24,4.31-11.13,6-1,.43-1.88,1.1-3,.92-4.55-.71-6.92,2.59-7.31,6.78a68.17,68.17,0,0,0,1.06,20.1,57.1,57.1,0,0,0,11.12,23.79c2.22,2.85,2.55,5.88,1,8.15-.73,1.06-1.7,2.09-.68,3.48s2.19,1,3.48.52a5.43,5.43,0,0,1,1.47-.18c-.55,2.88,1.1,5.46,1.15,8.26-1.65,2.27-4.38,3-6.6,4.42-5.51,3.5-5.63,3.48-4.09,9.85,2.79,11.55,5.65,23.1,9.5,34.32A205,205,0,0,0,65.82,310.8,115,115,0,0,0,79.3,332.1c9.52,11.65,23.8,16.68,38.31,10.69,9.87-4.08,17-11.45,23.87-19.22,2.29-2.6,4.19-5.53,6.24-8.33.42-.56.75-1.19,1.59-1.17.84,6.05.2,12.24,1.66,18.23,1.44,23.95.7,47.93.52,71.89-.07,8.33-.27,16.68-.35,25l-.5.66a59.17,59.17,0,0,0,0,9.6c0,.3,0,.59,0,.89-.28,5-.86,10.08-.75,15.11.23,10.13-.85,20.22-.63,30.34,0,.27.05.55.07.83-.57,9.53-.87,19.08-.73,28.63,0,3.16-.74,3.78-3.68,3.24-9.64-1.77-19.37-3.15-28.89-5.43a197.83,197.83,0,0,1-26.48-8A156.61,156.61,0,0,1,64,492.56a105,105,0,0,1-22.92-19.3c-11-12.27-16.29-26.93-19-42.62-1.71-9.73-1.53-19.64-.42-29.6,1.73-15.49,5.4-30.58,8.33-45.83,2.43-12.63,4.71-25.29,6.23-38.07,1.07-9,1.81-18.12,2.56-27.2.43-5.24.82-10.57.73-15.72-.13-7.38-.18-14.83-1.23-22.24a284.54,284.54,0,0,0-5.7-30c-1.81-7.19-4-14.29-6.22-21.38-2.82-9.1-5.7-18.18-8.76-27.2a204.66,204.66,0,0,1-8.66-34.17,118.83,118.83,0,0,1-.05-37c2.07-13.26,7-25.37,13.2-37A87.07,87.07,0,0,1,43,38.77,103.59,103.59,0,0,1,56.59,28.6,127.36,127.36,0,0,1,94.85,13.77a144.07,144.07,0,0,1,31.86-3.39,166,166,0,0,1,41.39,5.89c8.47,2.31,16.37,5.93,24.45,9.17A8.88,8.88,0,0,1,197.22,29c-8.26,3.62-10.78,8.23-8.88,16.33a18.55,18.55,0,0,0,1.26,4c1,2,.94,3-1.71,3a15.38,15.38,0,0,0-6.34,1.52c-5.93,2.66-7.38,9.47-3,14.32a17.63,17.63,0,0,0,8,4.93c2.17.7,4.39,1.23,6.6,1.83A13.64,13.64,0,0,0,192,83.23a4.89,4.89,0,0,0-.08,3,15.82,15.82,0,0,0-.64,3.19c0,9.89-.42,19.76,2.19,29.55s7,18.06,16.32,23c1,.54,1.79.94,1.8,2.34.09,7.25.94,14.48.45,21.74C209.71,166,209.42,168.43,208,169.47Z"/><path class="cls-1" d="M437.09,236.34c1.37,4.81,3.44,9.38,5,14.16A171.86,171.86,0,0,1,446.61,268a178.56,178.56,0,0,1,3,41.79c-.25,7.42-1.13,14.78-2.12,22.15-1.71,12.66-5.06,24.88-9,36.94a168.58,168.58,0,0,1-10.14,24.59c-4.63,9.12-9.42,18.09-14.93,26.73a204.4,204.4,0,0,1-34.6,40.77,155.41,155.41,0,0,1-34.49,24.19c-1.47.74-2.27.82-2.52-1.25-.88-7.27-1.9-14.52-2.91-21.76q-1.67-11.78-4.39-23.34c-4.21-17.74-8.77-35.41-12.67-53.21-2.86-13.09-4.69-26.39-3.83-39.85.65-10.22.66-20.45,1.15-30.67,0-.65-.33-1.6.54-1.83s1.3.68,1.72,1.34a161,161,0,0,0,13.16,17.56c5.23,6.11,10.83,11.91,17.58,16.43,5.75,3.84,11.87,7.11,18.86,7.26,6.31.14,12.06-2.4,17-6.28,11.1-8.68,18.45-20.3,25.18-32.43,6.6-11.92,11.81-24.46,16.62-37.17,2.9-7.66,5.38-15.48,8.08-23.22.61-1.75.28-2.89-1.37-4-2.44-1.66-5-3.21-6.76-5.73q1.75-5.67,3.52-11.33Z"/><path class="cls-1" d="M408.34,231c-2.28-.65-3.82-2.45-5.68-3.73-1.67-1.14-2.7-1.2-3.73.78-3.74,7.18-7.64,14.29-11.4,21.47-3.26,6.21-6.43,12.48-9.61,18.74-1.56,3.08-3,6.22-4.63,9.27-.38.7-.71,1.87-1.83,1.71s-.78-1.27-.95-2c-3.18-13.18-6.25-26.38-9.5-39.55-3-12-6.49-23.86-12-35a42.71,42.71,0,0,0-5.17-8.33,13.77,13.77,0,0,0-6.62-4.26c-11.07-3.76-22-7.88-33-11.78-9.25-3.28-18.56-6.41-27.83-9.64q-4.06-1.41-8.09-3c-1-.39-1.88-.66-2.78.12a.3.3,0,0,1,.2-.46c0-.52-.31-.76-.72-1-.66-.9-1-2.25-2.58-1.88a3.23,3.23,0,0,1-.67-2.23c-.22-6-.37-11.93-.69-17.88-.21-3.86-.76-7.7-1-11.55-.32-4.66-.49-9.33-.74-14-.07-1.49.36-2.39,2.08-2.63,8.42-1.17,12.64-6.08,12.95-14.93,3.52,1.32,6,4.16,8.81,6.42a277.26,277.26,0,0,0,25.19,17.89c8.45,5.46,17.13,10.51,25.82,15.57,11,6.43,22.17,12.61,33,19.47,12.34,7.84,24,16.39,34.36,26.77,3.28,3.3,6.54,6.61,9.76,10a3.08,3.08,0,0,0,1.72,1c.65,3.3,1.5,6.58,1.91,9.91.48,4,1.19,8.55-1.37,11.81-1.9,2.42-1.87,3.76-.18,5.74A26.86,26.86,0,0,0,408.34,231Z"/><path class="cls-2" d="M274.33,99.32c-.31,8.85-4.53,13.76-12.95,14.93-1.72.24-2.15,1.14-2.08,2.63.25,4.66.42,9.33.74,14,.26,3.85.81,7.69,1,11.55.32,6,.47,11.92.69,17.88a3.19,3.19,0,0,0,.68,2.23,1.64,1.64,0,0,0-.3,2.31c-1.15.25-2.3.24-3.32,1.12-7.19,6.2-15.38,10.47-24.82,11.82-7.25,1.05-14.08.22-18.65-6.61a3.69,3.69,0,0,0-2.76-1.59c-.76-1.1-.31-2.38-.55-3.55.49-7.26-.36-14.49-.45-21.74,0-1.4-.79-1.8-1.8-2.34-9.28-4.94-13.7-13.16-16.32-23s-2.15-19.66-2.19-29.55a15.82,15.82,0,0,1,.64-3.19,13.2,13.2,0,0,0,9.56.15c1.3-.45,2.75-1.13,2.52-2.86-.2-1.57-1.65-1.79-2.92-2.07-3.29-.72-6.2.48-9.08,1.8a13.71,13.71,0,0,1,1.15-8.39c16.22,1.31,31.73-1.91,46.9-7.49,0,14.36,2.67,20.18,12.43,27.38,1,.74,1.79,1.37,3.1.35a15.19,15.19,0,0,1,9.52-3C269.64,92.63,272.4,95.44,274.33,99.32Zm-11.49.62,5.09-1c-2.21-.9-4.26-1-6.08.5-2.69,1.39-5.1,3-6.66,6.65,3.1-1.46,5.54-2.67,8.36-2.23-1.25-1-2.81-.46-4.33-.9C260,101.34,261.57,100.8,262.84,99.94ZM223.1,81.48c-1.39,0-2-.06-2.57,0-1.47.16-3.27.09-3.57,2-.27,1.67,1.31,2.3,2.57,2.85a26.26,26.26,0,0,0,13.95,1.92c1-.13,2.36-.26,2.53-1.64s-.95-1.86-1.92-2.36A27.93,27.93,0,0,0,223.1,81.48Zm-20.83,14.2c-.3-1.74-.74-3.54-2.89-3.53-2.47,0-3,1.89-3,3.93,0,1.87.86,3.46,2.94,3.4C201.58,99.41,202.05,97.56,202.27,95.68Zm23.94,1.93c-.19-2.15-.87-4.08-3.2-4s-3,2.1-3,4.08c.08,1.73.48,3.77,2.78,3.83C225.41,101.58,226,99.61,226.21,97.61Zm-18.36,1.74a24.86,24.86,0,0,0-4,11.17c-.27,3.61,1.81,6,5.78,6.4-5.18-2.17-5.19-6.07-3.81-10.47C206.51,104.1,207.16,101.72,207.85,99.35Zm19.42,22.81c-2.86,3.3-6.67,4.88-11.07,6.24C221.57,128.91,226.16,126.33,227.27,122.16Zm-7.64-29a15.64,15.64,0,0,1,5-1.34c1.85-.18,3.1,1.9,5.19,1.29C226,90.06,222.37,90.07,219.63,93.13ZM203.56,91c-3.64-2.65-6.12-2.37-8.2,1.31C198.09,89.77,200.76,90.14,203.56,91Z"/><path class="cls-3" d="M212.58,169.58a3.69,3.69,0,0,1,2.76,1.59c4.57,6.83,11.4,7.66,18.65,6.61,9.44-1.35,17.63-5.62,24.82-11.82,1-.88,2.17-.87,3.32-1.12l-.06.07c-4.07,13.74-7.1,27.74-10.55,41.64C242,245,232.32,283.34,220.88,321.24c-.25.84-.61,1.64-1.12,3-1.16-4-1.23-7.67-1.48-11.22-.95-13.19-2-26.37-2.64-39.58-.67-14.51-1.34-29-1.85-43.53-.54-15.22-1-30.43-1.16-45.66,0-3.38-.28-6.75-.38-10.13a6.64,6.64,0,0,1,.64-3.77C212.79,170.1,212.68,169.84,212.58,169.58Z"/><path class="cls-4" d="M265.09,92.13a15.19,15.19,0,0,0-9.52,3c-1.31,1-2.1.39-3.1-.35-9.76-7.2-12.42-13-12.43-27.38-15.17,5.58-30.68,8.8-46.9,7.49-2.2-.6-4.42-1.13-6.59-1.83a17.63,17.63,0,0,1-8-4.93c-4.34-4.85-2.89-11.66,3-14.32a15.38,15.38,0,0,1,6.34-1.52c2.65,0,2.72-1,1.71-3a18.55,18.55,0,0,1-1.26-4c-1.9-8.1.62-12.71,8.88-16.33l2.35-.37.92-.15h2.25l1,.17c8,1.48,11.91,7.65,15.83,14.32,1.37-5.09,4.26-7.79,9.23-7.82,4.46,0,7.77,2,9.34,6.14.83,2.17,1.89,2.45,3.93,2.33a38.49,38.49,0,0,1,15.31,1.87c6.64,2.39,10.14,7,10.45,14.07A123.21,123.21,0,0,1,265.54,88C265.29,89.35,265.24,90.75,265.09,92.13Z"/><path class="cls-3" d="M413.31,223.91c-1.69-2-1.72-3.32.18-5.74,2.56-3.26,1.85-7.78,1.37-11.81-.41-3.33-1.26-6.61-1.91-9.91.48-4.44,1-8.89,1.44-13.33a23.65,23.65,0,0,0-2.4-12.75c-1.84-4-1.22-4.79,3.4-4.92l1-.2a29.44,29.44,0,0,1,7.58,8.89c-.24,1.06.42,1.92.71,2.84,1.18,3.73,1.38,3.78,4.68,1.54,5.25-3.55,9.39-8.3,13.7-12.84a22.26,22.26,0,0,0,6.28-14.07c1.8-.35,2.62-1.34,2.13-3.21,5.89-1.76,5.76-1.75,6,4.55.2,5.22-.45,10.14-3.66,14.44-.85,1.14-.48,2,.36,2.87,2.48,2.57,3.1,5.44,1.51,8.73a1.72,1.72,0,0,0,.76,2.54c3.8,2,4.35,5.12,3.22,8.86a4.52,4.52,0,0,0,.9,4.87c2,2.36,1.25,6.61-1.39,9.56a134.58,134.58,0,0,1-13.35,12.36c-3.9,3.33-7.78,6.6-8.41,12.17-.09.78-.58,1.65.11,2.26,2.09,1.85.94,3.28-.47,4.73l-3.72-.7c-3.67-2.28-7.29-4.65-11-6.82C419.39,227.1,416.67,224.91,413.31,223.91Z"/><path class="cls-4" d="M212.58,169.58c.1.26.21.52.31.77-.28-.8.46-2.08-.74-2.35-.86-.2-1.19.9-1.61,1.54a135.22,135.22,0,0,0-18,42.17,3.93,3.93,0,0,0,0,2.9l-.26.88c-1.28.56-1,1.83-1.14,2.8-1.3,6.53-1.86,13.16-2.54,19.77a6.59,6.59,0,0,0-.37,4.33l0,1.63c-.32.82.12,1.17.85,1.32l-.35.54c-1.77,2.27-1.54,4.72-.67,7.24a1.4,1.4,0,0,1,.15.49c.14,1.1-1,2-.56,3.14a37.49,37.49,0,0,1,0,5.3c-.42,3.2.81,4.75,4,4.71l1.24.08c1.1,1.12,2.28,2.15,3.26,3.35,2.51,3.07,2.9,6.57,1.85,10.3-.43.51-.49,1,.16,1.36l.23,1.12-.65,0h0c-.15-.21-.28-.58-.44-.59-.44,0-.67.3-.69.74-3.31,4.12-7.56,5.61-12,4.21a10.81,10.81,0,0,1-7.68-9.61,10.52,10.52,0,0,1,6.64-10.62,2.34,2.34,0,0,0,1.65-2.64c0-4.77,0-9.53.06-14.29.82-2,.59-4,.39-6.11.07-1.15.13-2.31.2-3.46a8,8,0,0,0,.43-4.89l.09-1.14a6.11,6.11,0,0,0,.49-4.26l.1-1.12a4.74,4.74,0,0,0,.48-3.68l.26-2.24a12.59,12.59,0,0,0,1-5.52l.16-1.08a1.63,1.63,0,0,0,.42-1.92l.18-1.07a1,1,0,0,0,.39-1.34l0-1a.53.53,0,0,0-.35-.76,1.28,1.28,0,0,1-.2-.5c.55,0,1.14.14,1.18-.69a140.18,140.18,0,0,1,7.95-22.59,6,6,0,0,0,1.61-4.92c3.08-3.84,5.35-8.19,7.92-12.35,1.44-1,1.73-3.44,4.05-3.44C212.27,167.2,211.82,168.48,212.58,169.58ZM180.25,277a7.49,7.49,0,0,0,7.53,7.63,7.62,7.62,0,1,0-7.53-7.63Z"/><path class="cls-2" d="M413.31,223.91c3.36,1,6.08,3.19,9,4.91,3.73,2.17,7.35,4.54,11,6.82q-1.75,5.66-3.52,11.33c-2.3-.09-3.57-1.86-5.23-3.06-4.79-3.47-9.3-7.33-14.38-10.4a3.53,3.53,0,0,1-1.9-2.52A26.86,26.86,0,0,1,413.31,223.91Z"/><path class="cls-4" d="M262.07,164.91l.06-.07a1.64,1.64,0,0,1,.3-2.31c1.58-.37,1.91,1,2.58,1.88a.79.79,0,0,0,.71,1,.3.3,0,0,0-.2.46c1.89,5.34,3.22,10.88,5.61,16.05l-.82-.15c-.14-.12-.38-.37-.41-.35-.31.23-.2.5,0,.74.28,1.13.55,2.26.83,3.38.7,7.14,1.89,14.24,1.92,21.44-.2,1.2-.8,2.63,1.39,2.5-1.25,1.14-1.21,2.6-1.18,4.13a293,293,0,0,1-1.27,32.85c-1,.77-1.92.37-2.87,0l-.49-1,.13-.91a10.85,10.85,0,0,0,1.17-4.79c.51-7.5.73-15,.76-22.53,0-1.55-.49-2.24-1.84-2.57h.05a2.57,2.57,0,0,0,1.68-2.81c-.44-15.11-1.67-30.1-7-44.44C262.9,166.49,262.45,165.71,262.07,164.91Z"/><path class="cls-5" d="M217.46,377.17q1.6,69.27,3.2,138.56l-1.28,0q-1.63-69.31-3.26-138.62Z"/><path class="cls-2" d="M77.85,216.29c.68,2.11,1.37,4.21,2.05,6.32-2,2.6-4.83,3.89-7.55,5.44-4.36,2.49-8.66,5.09-13,7.64a4.94,4.94,0,0,1-2.71,1c0-2.8-1.7-5.38-1.15-8.26.39-.43.71-1,1.2-1.27C63.73,223.53,70.79,219.92,77.85,216.29Z"/><path class="cls-5" d="M151,332.3c-1.46-6-.82-12.18-1.66-18.23q-.28-12.54-.58-25.07c-.49-20.72-.58-41.43.14-62.15.25-7.16.54-14.33.83-21.49,0-.44-.23-1,.65-1.41a27.94,27.94,0,0,1,.45,4.35c-1.64,33.65-1.29,67.31-.29,101,.21,6.94.36,13.87.94,20.79A2.54,2.54,0,0,1,151,332.3Z"/><path class="cls-5" d="M309.58,422.57l4.21-.25h0c.09.88-1,.6-1.19,1.2-11.28,1.32-22.56,2.72-33.86,3.88-2.31.24-2.22,1.39-2,3q1,8.91,2,17.81c.75,6.51,1.59,13,2.23,19.52a14.53,14.53,0,0,0,16,13.38c3.47-.3,6.93-.73,10.39-1.14,1.11-.14,2.17-.32,2.89.75-3.77.44-7.6.85-11.43,1.34-10.27,1.3-17.5-4.18-18.82-14.48-1.63-12.74-3.09-25.5-4.68-38.25-.23-1.86.21-2.68,2.23-2.89,8.32-.88,16.63-1.9,24.94-2.87,1-.12,2-.31,2.93-.46C306.8,422.73,308.27,423.27,309.58,422.57Z"/><path class="cls-4" d="M289.4,287.54c-.77-10.94-2.25-21.68-8.78-31a23.89,23.89,0,0,0-1.95-2.21,2.67,2.67,0,0,1,1.72-2c6.11,6,8.32,13.83,10.05,21.84a119.67,119.67,0,0,1,2.18,22.51,18.37,18.37,0,0,1-.38,2.93,2.13,2.13,0,0,1-2.17-.31c-.12-2.68-.25-5.36-.37-8A6.67,6.67,0,0,0,289.4,287.54Z"/><path class="cls-4" d="M252.25,283.58c-1.39,2-.54,4.17-.46,6.27.13,3.32,1.24,6.56,1,9.92l-1.55.53c-1.47-2.37-1.42-5.14-2.06-7.73,0-1.12.9-2.53-1-3.07a6.15,6.15,0,0,0,.65-4c-.48-7.81,0-15.53,2.61-23a21,21,0,0,1,7.69-10.74,2,2,0,0,1,1.19,2.4,16.93,16.93,0,0,0-5.61,7.17,41.65,41.65,0,0,0-3.26,15C251.24,278.8,249.82,281.39,252.25,283.58Z"/><path class="cls-5" d="M319.26,421.6c1.68-.17,3.38-.22,5-.54,2-.38,2.68.4,2.89,2.26,1.4,12.46,2.74,24.93,4.35,37.37,1.48,11.51-5.55,19.39-18,19.67-.59,0-.91-.29-1.2-.91,2.13-.28,4.25-.46,6.32-.87a14.52,14.52,0,0,0,11.77-16.42q-2.15-17.49-4-35c-.54-5.11-.4-5.13-5.45-4.61a.5.5,0,0,0-.5,0l-1.88.21A1.14,1.14,0,0,1,319.26,421.6Z"/><path class="cls-3" d="M260.37,254.15a2,2,0,0,0-1.19-2.4c.88-3.33,3.85-3.65,6.46-4.42,1-.3,2.17-.24,3.09-.93.95.38,1.91.78,2.87,0,1.48.51,3,1,4.45,1.55,2.13.79,3.85,2,4.34,4.43a2.67,2.67,0,0,0-1.72,2c-3.08.22-5.55-2.55-8.74-1.79h-1.07C265.85,252.13,263.35,254.4,260.37,254.15Z"/><path class="cls-5" d="M197.78,282.94l.65,0c2,2.89,2.66,6.36,3.83,9.6,4.91,13.66,9.69,27.38,14.49,41.09.23.66,1,1.38.17,2.19-1,.11-1-.75-1.23-1.34q-8.94-25.33-17.84-50.69A3.61,3.61,0,0,1,197.78,282.94Z"/><path class="cls-5" d="M323.43,209.44a229.5,229.5,0,0,0-7.17,38.92c-.28,3-.49,5.95-.8,8.91-.09.93.3,2-.69,2.73-.87-.16-.78-.79-.74-1.38,1.19-15.4,2.88-30.71,7.35-45.57.4-1.35.44-3,2.1-3.58Z"/><path class="cls-5" d="M248.23,289.5c1.85.54.94,1.95,1,3.07-1.89-1.42-2,.7-2.38,1.42-5,8.7-10,17.46-14.94,26.19-3,5.31-6.13,10.59-9.18,15.86-1-.47-.7-1-.47-1.37q12.66-22.34,25.34-44.64C247.68,289.8,248,289.67,248.23,289.5Z"/><path class="cls-3" d="M315.73,405.16l1.23,1c-.41,3.87.52,7.61,1,11.39.63,4.72.49,4.86-4.19,4.81h0c-.11-.77-.21-1.55-.32-2.32-.25-3.44-.35-6.89-1.44-10.21-.12-1-.23-2.05-.35-3.07l.39-1.1.71-.3,2.24.06Z"/><path class="cls-5" d="M150.64,429.87l.5-.66c5.18.2,10.35.47,15.52.56,2,0,1.94,1,1.87,2.49q-.79,16.85-1.5,33.7c0,.42-.34.91.2,1.36-1.52-2.14-1.17-4.47-1.06-6.78.44-9,.78-17.9,1.31-26.84.12-2.1-.53-2.79-2.56-2.92C160.16,430.47,155.35,431,150.64,429.87Z"/><path class="cls-3" d="M309.58,422.57c-1.31.7-2.78.16-4.14.52-.54-4.22-1-8.45-1.66-12.66-.28-1.89.71-2.43,2.24-2.73,1.94-.37,1.84,1.13,2,2.21C308.58,414.12,309.06,418.35,309.58,422.57Z"/><path class="cls-4" d="M451.51,148.4c.49,1.87-.33,2.86-2.13,3.21l-1.79-1c0-.3,0-.29-.21-.08-.45-.16-.76-.1-.72.49-.12-2.81-2.61-3.86-4.18-5.59l-1.74-1.83c-.67-1.27-.77-2.48.58-3.36s2.39-.1,3.32.89Q448.08,144.76,451.51,148.4Z"/><path class="cls-5" d="M398.78,241.82,428,266l-.71.85-29.21-24.13Z"/><path class="cls-5" d="M87.4,236,56.88,258.3l-.66-.88,30.51-22.35Z"/><path class="cls-5" d="M268.86,252.57h1.07c-3.6,7.43-7.93,14.47-12,21.64-1.8,3.18-3.28,6.56-5.68,9.38-2.43-2.19-1-4.78-.75-7.25l.3,6.22Z"/><path class="cls-5" d="M190.5,209.33c0,.83-.63.73-1.18.69-2.17-1.88-3-4.62-4.43-6.94a1.53,1.53,0,0,1,.23-1.92c5.07-6.38,9.59-13.18,14.94-19.34a6,6,0,0,1-1.61,4.92c-.24-.41-.53-.57-.87-.12Q192,194,186.48,201.38c-.38.49-.67,1-.24,1.63C187.74,205.06,188.23,207.8,190.5,209.33Z"/><path class="cls-5" d="M274.05,209.43c-2.19.13-1.59-1.3-1.39-2.5.23.52.46,1,.78,1.74,1.26-1.52,2.35-3,3.66-4.36,1.48-1.48,1.64-2.85.72-4.76-1.85-3.85-3.41-7.85-5.13-11.76-.41-.93-.46-2.25-1.95-2.3-.28-1.12-.55-2.25-.83-3.38a4.89,4.89,0,0,0,.4-.39l.82.15c3.56,6.17,5.73,12.95,8.63,19.42a1.74,1.74,0,0,1-.28,2C277.67,205.3,276.23,207.69,274.05,209.43Z"/><path class="cls-5" d="M189.1,245.34c-.73-.15-1.17-.5-.85-1.32,1,.06,1.31-.73,1.77-1.36,2.81-3.85,5.55-7.75,8.48-11.51,1.17-1.51,1.1-2.66.16-4.25-2.21-3.74-4.23-7.6-6.32-11.41l.26-.88c3.14,4.22,5.3,9,8.12,13.44a1.58,1.58,0,0,1,0,1.95C196.81,235.07,193.51,240.63,189.1,245.34Z"/><path class="cls-5" d="M236.63,446.59a6,6,0,0,1-6,5.74,6.11,6.11,0,0,1-6-6.07,6.28,6.28,0,0,1,6-5.8A6.18,6.18,0,0,1,236.63,446.59Zm-1.28,0a4.7,4.7,0,0,0-9.39-.13,4.7,4.7,0,0,0,9.39.13Z"/><path class="cls-5" d="M230.45,493.18a6.13,6.13,0,0,1-5.78-6,6,6,0,0,1,12,.47A5.9,5.9,0,0,1,230.45,493.18Zm4.89-5.65a4.7,4.7,0,1,0-9.38-.47,4.7,4.7,0,1,0,9.38.47Z"/><path class="cls-5" d="M268.37,244.48l-.13.91c-3.89-4.9-7.16-10.22-10.66-15.39-.33-.49-.66-1.12-.15-1.65,2.92-3,4.77-7.09,8.53-9.37l0,0c-.85,3.11-3.42,5-5.36,7.3-1.66,2-2,3.3-.39,5.57A104.22,104.22,0,0,1,268.37,244.48Z"/><path class="cls-5" d="M224.49,406.22c4.73,3.34,6.68,3.62,8.73,1.25a4.66,4.66,0,0,0-.4-6.45c-2.33-2.14-4.17-1.7-8.42,2a4.9,4.9,0,0,1,5.36-4.53,5.83,5.83,0,0,1,5.75,5.37,6,6,0,0,1-5,6.38C227.55,410.72,225.35,409.24,224.49,406.22Z"/><path class="cls-5" d="M433.35,256a4.83,4.83,0,0,1-4.86,4.63,4.61,4.61,0,1,1,4.86-4.63Zm-1.35-.28a3.16,3.16,0,0,0-3.37-3.16,3.22,3.22,0,0,0-3.5,3.54,3.16,3.16,0,0,0,3.36,3.37C430.62,259.49,432,258.23,432,255.73Z"/><path class="cls-5" d="M56.84,251.28a4.72,4.72,0,0,1-4.53-4.65,4.57,4.57,0,0,1,4.92-4.49,4.57,4.57,0,1,1-.39,9.14Zm-.27-1.15a3.42,3.42,0,0,0,3.73-3.32,3.35,3.35,0,0,0-3.46-3.62c-2,.21-3.33,1.28-3.29,3.48A3.19,3.19,0,0,0,56.57,250.13Z"/><path class="cls-1" d="M290.07,299.36a2.13,2.13,0,0,0,2.17.31,9.19,9.19,0,0,0-.44,2.58c.62,5.3-.58,9.61-6,11.85a3.08,3.08,0,0,0-1.26-3c4.24-.66,4.54-1,4.77-5.05C289.47,303.79,289.82,301.58,290.07,299.36Z"/><path class="cls-5" d="M149.39,486.64c0-.28,0-.56-.07-.83,8.14,0,13.72-3.71,16.56-11.54C164.65,482.42,158,487.23,149.39,486.64Z"/><path class="cls-3" d="M251.24,300.3l1.55-.53c.52,2.71,1,5.42,1.57,8.12.47,2.3,2.45,2.84,4.3,3.5a3.07,3.07,0,0,0-1.25,2.53C251.9,310.94,252.39,305.25,251.24,300.3Z"/><path class="cls-4" d="M257.41,313.92a3.07,3.07,0,0,1,1.25-2.53,3.7,3.7,0,0,1,5,1.93,1.92,1.92,0,0,1-1.35,2.82A3.65,3.65,0,0,1,257.41,313.92Z"/><path class="cls-1" d="M313.8,422.33c4.68.05,4.82-.09,4.19-4.81-.51-3.78-1.44-7.52-1-11.39l1.49.65a66,66,0,0,0,.78,11.41c-.67,1.14.23,2.27,0,3.41a1.14,1.14,0,0,0-.68,1.18c-1.82,1.59-4,.42-6,.75C312.8,422.93,313.89,423.21,313.8,422.33Z"/><path class="cls-4" d="M284.57,311.07a3.08,3.08,0,0,1,1.26,3,7,7,0,0,1-1.5,1.4c-1.49.74-3.14,1.09-4.34-.39s-.25-2.76,1-3.8c.31.19.4,0,.44-.25l1.33-.23.56,0Z"/><path class="cls-5" d="M323.48,209.47a3.28,3.28,0,0,1-.07-2.57c1.78-4.89,3.71-9.69,7.59-13.41-3.08,5.06-5.23,10.55-7.57,15.94Z"/><path class="cls-5" d="M103.31,271.76l4.88,12-.78.34c-2.26-3.7-3.37-7.92-5.13-11.85Z"/><path class="cls-1" d="M440.74,143.56l1.74,1.83c-1.69.28-3.27,2.13-5,1-2.51-1.61-3.93-.38-5.47,1.33-.63.7-1.17,1.61-2.25,1.77l-1.08,0c1.08-1.16,2.22-2.27,3.22-3.48,1.56-1.87,3.28-2.34,5.49-1.11C439,145.79,440.32,145.67,440.74,143.56Z"/><path class="cls-5" d="M192.93,266.84l-1.24-.08c-1-3.48-1.47-7.16-4-10-.41-1.15.7-2,.56-3.14A69,69,0,0,1,192.93,266.84Z"/><path class="cls-5" d="M364.45,291.36l6.16-10.13.89.52q-3.09,5.1-6.17,10.2Z"/><path class="cls-5" d="M319.23,418.19a66,66,0,0,1-.78-11.41c.8-.14,1.34.07,1.39,1,.17,3,.37,6,.54,9.07C320.42,417.62,320.1,418.16,319.23,418.19Z"/><path class="cls-5" d="M150.7,440.36c0-.3,0-.59,0-.89h9.54l0,1.32Z"/><path class="cls-4" d="M315,405.38l-2.24-.06c-.08-.3-.15-.6-.23-.91a2.38,2.38,0,0,0-.37-2.05c.14-.84,0-2,1.23-2s1.13,1.14,1.29,2c.09.48.25.95.38,1.42Z"/><path class="cls-2" d="M416.43,165.24l-1,.21c-1.22-1.45-1.15-2.81.32-4l4.49-3.81.06.8c-1.16,1.14-2.27,2.34-3.5,3.39S415.38,164,416.43,165.24Z"/><path class="cls-1" d="M312,409.79c1.09,3.32,1.19,6.77,1.44,10.21-1.68-1.19-.21-3.27-1.28-4.59-.61-.77,1.07-2.78-1.62-2.65C310,412.78,311.47,410.82,312,409.79Z"/><path class="cls-5" d="M313,433.1c2.38-.44,4.8-1.28,7.3-.5C317.92,433,315.57,434,313,433.1Z"/><path class="cls-5" d="M420.26,158.39l-.06-.8a31.27,31.27,0,0,1,5.53-5l0,0c-.19,1.89-1.93,2.55-3,3.7-.87.91-1.21,1.69-.53,2.78l-.61.1Z"/><path class="cls-5" d="M283.15,436.57c2.33-.17,4.62-2,7.06-.05C287.81,436.45,285.5,437.33,283.15,436.57Z"/><path class="cls-5" d="M188.08,253.12c-.87-2.52-1.1-5,.67-7.24A31.4,31.4,0,0,0,188.08,253.12Z"/><path class="cls-5" d="M428.71,149.51l1.08,0c-.84.45-.45,1.2-.45,1.85l-3,.58,0,0Z"/><path class="cls-5" d="M188.69,217.71a12.59,12.59,0,0,1-1,5.52A9.75,9.75,0,0,1,188.69,217.71Z"/><path class="cls-5" d="M185.68,244c.2,2.06.43,4.12-.39,6.11C185.13,248.07,184.91,246,185.68,244Z"/><path class="cls-5" d="M186.89,230.27a6.11,6.11,0,0,1-.49,4.26A7,7,0,0,1,186.89,230.27Z"/><path class="cls-5" d="M187.47,225.47a4.74,4.74,0,0,1-.48,3.68A5.17,5.17,0,0,1,187.47,225.47Z"/><path class="cls-5" d="M186.31,235.67a8,8,0,0,1-.43,4.89A9.16,9.16,0,0,1,186.31,235.67Z"/><path class="cls-1" d="M289.4,287.54a6.67,6.67,0,0,1,.3,3.78C288.93,290.11,289.27,288.81,289.4,287.54Z"/><path class="cls-5" d="M266,219c.29-.41,0-1.16.74-1.3,0,0,.16.13.17.21.06.68-.27,1-.95,1.05Z"/><path class="cls-1" d="M315,405.38l.06-1.61c.57.3.56.87.65,1.39Z"/><path class="cls-1" d="M312.18,402.36a2.38,2.38,0,0,1,.37,2.05A1.82,1.82,0,0,1,312.18,402.36Z"/><path class="cls-5" d="M310.45,434.12l-.25-.22a.61.61,0,0,1,.26,0,3.61,3.61,0,0,1,.46.17Z"/><path class="cls-5" d="M189.27,214.71a1.63,1.63,0,0,1-.42,1.92A1.78,1.78,0,0,1,189.27,214.71Z"/><path class="cls-5" d="M198.2,281.85c-.65-.39-.59-.85-.16-1.36C198.09,280.94,198.15,281.4,198.2,281.85Z"/><path class="cls-5" d="M196.65,283.08c0-.44.25-.76.69-.74.16,0,.29.38.44.59Z"/><path class="cls-1" d="M312.07,405.62l-.39,1.1C311.36,406.19,311.45,405.81,312.07,405.62Z"/><polygon class="cls-5" points="292.26 435.14 292.5 435.22 292.25 435.26 292.26 435.14"/><path class="cls-4" d="M268.46,214.59c1.3.57.53,1-.12,1.38l.05.07c-.48-.54.32-.95.13-1.46Z"/><path class="cls-5" d="M189.84,212.3a1,1,0,0,1-.39,1.34A1.09,1.09,0,0,1,189.84,212.3Z"/><path class="cls-4" d="M268.34,216l-.45.53c0-.09-.14-.2-.11-.27.1-.33.33-.38.61-.19Z"/><path class="cls-5" d="M425.73,152.59l.61-.59,0,0c0,.44-.18.62-.6.59Z"/><path class="cls-1" d="M283.29,310.8l-.56,0C282.91,310.53,283.09,310.51,283.29,310.8Z"/><path class="cls-1" d="M281.4,311.06c0,.27-.13.44-.44.25A.42.42,0,0,1,281.4,311.06Z"/><path class="cls-1" d="M203.72,28.59l-1-.17A.77.77,0,0,1,203.72,28.59Z"/><path class="cls-1" d="M200.49,28.43l-.92.15A.7.7,0,0,1,200.49,28.43Z"/><path class="cls-5" d="M189.52,210.52a.53.53,0,0,1,.35.76A.55.55,0,0,1,189.52,210.52Z"/><path class="cls-1" d="M320.46,422.57a.5.5,0,0,1,.5,0Z"/><path class="cls-3" d="M77.85,216.29c-7.06,3.63-14.12,7.24-21.16,10.9-.49.26-.81.84-1.2,1.27a5.43,5.43,0,0,0-1.47.18c-1.29.53-2.51.79-3.48-.52s0-2.42.68-3.48c1.56-2.27,1.23-5.3-1-8.15A57.1,57.1,0,0,1,39.11,192.7a68.17,68.17,0,0,1-1.06-20.1c.39-4.19,2.76-7.49,7.31-6.78,1.15.18,2-.49,3-.92,3.89-1.68,8.21-2.51,11.13-6,.11-.13.35-.16.54-.23,1.49-.52,3.65.76,4.44-.62s-1.62-2.57-1.39-4.28h0a12.47,12.47,0,0,1,1.76,2.34c2.12,4.94,6.09,5.35,10.2,4.25-.67,3,1.55-.14,1.83.87l0,0c-.17,1.63.47,3.31-.42,4.88-.46.81-1.36,1.68-.37,2.6s1.65-.69,2.59-.59c-.09,1.23-1.53,1.24-2,2.16-.54.17-1.12.28-1.35.88,0,.12.06.43.14.45.79.19,1.15-.43,1.58-.91,1.89-1.05,4.26-1.45,5.17-3.83h0a2.33,2.33,0,0,0,1.79-.24,1,1,0,0,0,1-.81c4.91.64,5,.67,3.77,5.35-2.74,10-4.32,20.4-8.18,30.13-.87,2.2-2.26,4.2-3.13,6.41-.59,1.49-1.61,3,1.08,4.32S79,215,77.85,216.29Zm0-44.26a3.57,3.57,0,0,0-.77.11c-.89.33-1.78,1.22-2.69.16s.19-1.52.73-2.17.1-1.21-.53-1.3c-1-.15-2.31-.47-3.09.46s.5,1.34.79,2a7.43,7.43,0,0,0,1.33,2c1,1.14,1.46,3.61,3,3.3s.87-2.79,1.46-4.22C78,172.3,77.92,172.19,77.82,172Z"/><path class="cls-3" d="M63.11,153.78c-1.37-.07-1.67-1.3-2.24-2.15-4.13-6.27-8.16-12.61-12.34-18.84-2.11-3.14,1.28-3.18,2.35-4.53a2.19,2.19,0,0,0,2.76-2.16c4.26-1.61,4.2-1.57,7,2.49s4.63,8.65,7.94,12.34a3.69,3.69,0,0,1,1.13,2.67l0,0c-2.56-.93-7.74.65-9.59,3.42-1.32,2,1.35,3.06,1.9,4.69a14,14,0,0,0,1.11,2.05Z"/><path class="cls-3" d="M69.7,143.6c3.19,2.59,3.16,2.57,5.75-1.21.73-1.07,1.14-3.1,2.71-2.64,1.88.55,2.21,2.54,2.28,4.43.09,2.79-1.23,5.18-2,7.72-.67,2.15-1.32,4,2,4.6,1.51.3,1.93,1.73,0,2.66h0c.41-2.79-1.58-.83-2.4-1.21-.5-2-1.09-3.9-3.59-4.18h0a4.67,4.67,0,0,0-3.58-5.38h0c.87-1.5.75-2.6-1.19-3h0v-1.78Z"/><path class="cls-4" d="M192,83.23c2.88-1.32,5.79-2.52,9.08-1.8,1.27.28,2.72.5,2.92,2.07.23,1.73-1.22,2.41-2.52,2.86a13.2,13.2,0,0,1-9.56-.15A4.89,4.89,0,0,1,192,83.23Z"/><path class="cls-5" d="M49.46,126c-2.49-8.21-8.91-14.19-12.7-22.08,1.57.29,1.84,1.47,2.36,2.25q4.91,7.29,9.65,14.68a6.06,6.06,0,0,0,2.77,2.51C49.29,123,49.35,124.49,49.46,126Z"/><path class="cls-4" d="M49.46,126c-.11-1.52-.17-3,2.08-2.64l2.1,2.74a2.19,2.19,0,0,1-2.76,2.15C50.4,127.51,49.93,126.76,49.46,126Z"/><path class="cls-5" d="M85,165.87a1,1,0,0,1-1,.81c.08-.38.14-.88-.35-.9a1.38,1.38,0,0,0-1.44,1.14h0L81,167c.42-1.63-1.38-2.65-1.16-4.22l0,0C80.55,165.47,83.63,164.23,85,165.87Zm-2.75-.49c-.07-.08-.12-.21-.19-.22s-.16.1-.24.16.12.21.19.22S82.14,165.44,82.22,165.38Z"/><path class="cls-5" d="M76.86,161.27l0,0c.53-.94,1.53-1.25,2.37-1.78h0a4.13,4.13,0,0,0,.63,3.31l0,0C78.72,162.56,78.29,160.88,76.86,161.27Z"/><path class="cls-3" d="M79.22,159.46h0l1.21-.29h0A.8.8,0,0,1,79.22,159.46Z"/><path class="cls-6" d="M265.72,165.36a.79.79,0,0,1-.71-1C265.41,164.6,265.76,164.84,265.72,165.36Z"/><path class="cls-4" d="M223.1,81.48a27.93,27.93,0,0,1,11,2.74c1,.5,2.07,1.06,1.92,2.36s-1.5,1.51-2.53,1.64a26.26,26.26,0,0,1-13.95-1.92c-1.26-.55-2.84-1.18-2.57-2.85.3-1.87,2.1-1.8,3.57-2C221.11,81.42,221.71,81.48,223.1,81.48Z"/><path class="cls-4" d="M202.27,95.68c-.22,1.88-.69,3.73-3,3.8-2.08.06-2.9-1.53-2.94-3.4,0-2,.53-3.93,3-3.93C201.53,92.14,202,93.94,202.27,95.68Z"/><path class="cls-4" d="M226.21,97.61c-.22,2-.8,4-3.38,3.9-2.3-.06-2.7-2.1-2.78-3.83-.09-2,.65-4,3-4.08S226,95.46,226.21,97.61Z"/><path class="cls-4" d="M207.85,99.35c-.69,2.37-1.34,4.75-2.07,7.1-1.38,4.4-1.37,8.3,3.81,10.47-4-.42-6.05-2.79-5.78-6.4A24.86,24.86,0,0,1,207.85,99.35Z"/><path class="cls-4" d="M262.84,99.94c-1.27.86-2.82,1.4-3.62,3,1.52.44,3.08-.15,4.33.9-2.82-.44-5.26.77-8.36,2.23,1.56-3.6,4-5.26,6.65-6.65Z"/><path class="cls-4" d="M227.27,122.16c-1.11,4.17-5.7,6.75-11.07,6.24C220.6,127,224.41,125.46,227.27,122.16Z"/><path class="cls-4" d="M219.63,93.13c2.74-3.06,6.39-3.07,10.2,0-2.09.61-3.34-1.47-5.19-1.29A15.64,15.64,0,0,0,219.63,93.13Z"/><path class="cls-4" d="M203.56,91c-2.8-.88-5.47-1.25-8.2,1.31C197.44,88.65,199.92,88.37,203.56,91Z"/><path class="cls-5" d="M262.84,99.94l-1-.51c1.83-1.48,3.88-1.4,6.09-.5Z"/><path class="cls-6" d="M447.59,150.57l1.79,1a22.26,22.26,0,0,1-6.28,14.07c-4.31,4.54-8.45,9.29-13.7,12.84-3.3,2.24-3.5,2.19-4.68-1.54-.29-.92-1-1.78-.71-2.84,2.86,2.73,2.87,2.74,5.73-.1.9-.89,1.74-1.85,2.61-2.77.7-.77,2-1.14,1.78-2.53l0,0c1.39.19,1.89-.82,2.4-1.8h0a.55.55,0,0,0,.6-.6h0c.3-.4.61-.8.91-1.21l0,0c.48.06.83-.06.92-.6h0l1-.7c.66-.08.76-.56.76-1.1l.06,0,.54-.54,0,0a.91.91,0,0,0,1.16-.58l0,0a.89.89,0,0,0,.58-1.16l0,0a.9.9,0,0,0,1.17-.58l0,0c2.39-1,2.89-2.84,1.83-5a4.5,4.5,0,0,1-.06-3.36l.61-.43c-.05-.58.26-.64.71-.48l.06.17Z"/><path class="cls-1" d="M432.35,171.27c-.87.92-1.71,1.88-2.61,2.77-2.86,2.84-2.87,2.83-5.73.1a29.44,29.44,0,0,0-7.58-8.89,2.16,2.16,0,0,1,.33-3.47c1.23-1.05,2.34-2.25,3.5-3.39l1.29.75c.19,1.34-.85,2-1.65,2.64-1.6,1.33-1.61,2.42-.06,3.86a48.93,48.93,0,0,1,4.61,5c1.48,1.82,2.79,2,4.26.07S431.41,169.19,432.35,171.27Z"/><path class="cls-3" d="M180.25,277a7.57,7.57,0,1,1,7.53,7.63A7.49,7.49,0,0,1,180.25,277Z"/><path class="cls-6" d="M192.34,215.49c2.09,3.81,4.11,7.67,6.32,11.41.94,1.59,1,2.74-.16,4.25-2.93,3.76-5.67,7.66-8.48,11.51-.46.63-.79,1.42-1.77,1.36,0-.55,0-1.09,0-1.63a7.21,7.21,0,0,0,.37-4.33c.68-6.61,1.24-13.24,2.54-19.77C191.39,217.32,191.06,216.05,192.34,215.49Z"/><path class="cls-6" d="M190.5,209.33c-2.27-1.53-2.76-4.27-4.26-6.32-.43-.59-.14-1.14.24-1.63q5.55-7.4,11.1-14.76c.34-.45.63-.29.87.12A140.18,140.18,0,0,0,190.5,209.33Z"/><path class="cls-1" d="M187.67,256.75c2.55,2.85,3,6.53,4,10-3.22,0-4.45-1.51-4-4.71A37.49,37.49,0,0,0,187.67,256.75Z"/><path class="cls-5" d="M188.66,238.06a7.21,7.21,0,0,1-.37,4.33A6.59,6.59,0,0,1,188.66,238.06Z"/><path class="cls-6" d="M270.74,185.49c1.49,0,1.54,1.37,1.95,2.3,1.72,3.91,3.28,7.91,5.13,11.76.92,1.91.76,3.28-.72,4.76-1.31,1.31-2.4,2.84-3.66,4.36-.32-.7-.55-1.22-.78-1.74C272.63,199.73,271.44,192.63,270.74,185.49Z"/><path class="cls-5" d="M269.91,182.11c-.21-.24-.32-.51,0-.74,0,0,.27.23.41.35A4.89,4.89,0,0,1,269.91,182.11Z"/><path class="cls-6" d="M268.86,252.57l-17.06,30-.3-6.22a41.65,41.65,0,0,1,3.26-15,16.93,16.93,0,0,1,5.61-7.17C263.35,254.4,265.85,252.13,268.86,252.57Z"/><path class="cls-6" d="M429.34,151.39c0-.65-.39-1.4.45-1.85,1.08-.17,1.62-1.08,2.25-1.78,1.54-1.71,3-2.94,5.47-1.33,1.7,1.09,3.28-.76,5-1,1.57,1.73,4.06,2.78,4.18,5.59l-.6.42a1.52,1.52,0,0,0-1.28,2.35c1.41,2.23.41,4.07-.49,6l0,0a.94.94,0,0,0-1.17.58l0,0a.91.91,0,0,0-.58,1.16l0,0a.87.87,0,0,0-1.16.58l0,0-.54.54-.06,0-1.17-1.18a1.67,1.67,0,0,1,.65-1.57c2-1.42,1.65-2.67,0-4.17s-2.8-3.05-4.22-4.57c-2.53-2.74-2.55-2.73-5,.38l-1.63-.29Z"/><path class="cls-2" d="M447.59,150.57l-.15.09-.06-.17C447.54,150.28,447.62,150.27,447.59,150.57Z"/><path class="cls-6" d="M235.35,446.62a4.7,4.7,0,0,1-9.39-.13,4.7,4.7,0,0,1,9.39.13Z"/><path class="cls-6" d="M235.34,487.53a4.7,4.7,0,1,1-9.38-.47,4.7,4.7,0,1,1,9.38.47Z"/><path class="cls-6" d="M432,255.73c0,2.5-1.38,3.76-3.51,3.75a3.16,3.16,0,0,1-3.36-3.37,3.22,3.22,0,0,1,3.5-3.54A3.16,3.16,0,0,1,432,255.73Z"/><path class="cls-6" d="M56.57,250.13a3.19,3.19,0,0,1-3-3.46c0-2.2,1.29-3.27,3.29-3.48a3.35,3.35,0,0,1,3.46,3.62A3.42,3.42,0,0,1,56.57,250.13Z"/><path class="cls-1" d="M439.51,161.58l1.17,1.18c0,.54-.1,1-.76,1.1-.92-.62-.91.12-1,.7h0l-.92.6,0,0a1.11,1.11,0,0,0-.91,1.21h0c-.43,0-.62.18-.6.6h0c-1.29-.06-1.85.86-2.4,1.8l0,0c-1.31.91-2.1.09-3-.8-3-3-6-5.94-9-8.9-.68-1.09-.34-1.87.53-2.78,1.09-1.15,2.83-1.81,3-3.7.42,0,.64-.15.6-.59l3-.58,0,0a1.78,1.78,0,0,0,.94,1.34C433.06,156,435.51,159.58,439.51,161.58Z"/><path class="cls-3" d="M422.16,159c3,3,6,5.91,9,8.9.88.89,1.67,1.71,3,.8.18,1.39-1.08,1.76-1.78,2.53-.94-2.08-2.14-2.47-3.64-.52s-2.78,1.75-4.26-.07a48.93,48.93,0,0,0-4.61-5c-1.55-1.44-1.54-2.53.06-3.86.8-.66,1.84-1.3,1.65-2.64Z"/><path class="cls-1" d="M69.68,143.62v1.78c-.55.13-1.22,0-1.53.64,0,.06.08.24.13.24.67.05,1-.44,1.41-.87,1.94.38,2.06,1.48,1.19,3l-.55.14.14.23.42-.36a4.67,4.67,0,0,1,3.58,5.38l-.58.28c.07,0,.16.06.2,0a3.89,3.89,0,0,0,.39-.32c2.5.28,3.09,2.19,3.59,4.18L78,158c-1.19.5-2.6.7-2.91,2.3l0,0c-4.11,1.1-8.08.69-10.2-4.25a12.47,12.47,0,0,0-1.76-2.34A14,14,0,0,1,62,151.73c-.55-1.63-3.22-2.71-1.9-4.69C61.94,144.27,67.12,142.69,69.68,143.62Zm-2.55,3.31-.15-.09,0,.14Z"/><path class="cls-1" d="M77.82,172c.1.16.22.27.19.32-.59,1.43,0,3.91-1.46,4.22s-1.93-2.16-3-3.3a7.43,7.43,0,0,1-1.33-2c-.29-.67-1.47-1.19-.79-2s2-.61,3.09-.46c.63.09,1.08.64.53,1.3s-1.64,1.11-.73,2.17,1.8.17,2.69-.16A3.57,3.57,0,0,1,77.82,172Z"/><path class="cls-1" d="M76.86,161.27c1.43-.39,1.86,1.29,3,1.47-.22,1.57,1.58,2.59,1.16,4.22l0,0c-.48.09-1,.09-1.26.63v0l-1.08.53-.08.06c-.94-.1-1.57,1.54-2.59.59s-.09-1.79.37-2.6C77.33,164.58,76.69,162.9,76.86,161.27Z"/><path class="cls-1" d="M80.47,159.17l-1.21.29c-.84.53-1.84.84-2.37,1.78-.28-1-2.5,2.09-1.83-.87l0,0c1.18-.49,2.37-1,2.91-2.3l.07-.08C78.89,158.34,80.88,156.38,80.47,159.17Z"/><path class="cls-1" d="M81,167l1.2-.05c-.91,2.38-3.28,2.78-5.17,3.83l-.37-.42c.43-.92,1.87-.93,2-2.16l.08-.06c.44,0,.87,0,1.08-.53v0l1.26-.63Z"/><path class="cls-1" d="M82.23,166.92a1.38,1.38,0,0,1,1.44-1.14c.49,0,.43.52.35.9A2.33,2.33,0,0,1,82.23,166.92Z"/><path class="cls-1" d="M77.07,170.74c-.43.48-.79,1.1-1.58.91-.08,0-.19-.33-.14-.45.23-.6.81-.71,1.35-.88Z"/><path class="cls-1" d="M82.22,165.38c-.08.06-.17.17-.24.16s-.13-.14-.19-.22.17-.17.24-.16S82.15,165.3,82.22,165.38Z"/><path class="cls-2" d="M444.29,159.75c.9-1.93,1.9-3.77.49-6a1.52,1.52,0,0,1,1.28-2.35,4.5,4.5,0,0,0,.06,3.36C447.18,156.91,446.68,158.74,444.29,159.75Z"/><path class="cls-3" d="M434.11,168.76c.55-.94,1.11-1.86,2.4-1.8C436,167.94,435.5,169,434.11,168.76Z"/><path class="cls-3" d="M438.91,164.56c.1-.58.09-1.32,1-.7Z"/><path class="cls-2" d="M441.31,162.15a.87.87,0,0,1,1.16-.58A.91.91,0,0,1,441.31,162.15Z"/><path class="cls-2" d="M442.5,161.54a.91.91,0,0,1,.58-1.16A.89.89,0,0,1,442.5,161.54Z"/><path class="cls-2" d="M443.1,160.35a.94.94,0,0,1,1.17-.58A.9.9,0,0,1,443.1,160.35Z"/><path class="cls-3" d="M437.11,166.35a1.11,1.11,0,0,1,.91-1.21C437.72,165.55,437.41,166,437.11,166.35Z"/><path class="cls-3" d="M438,165.16l.92-.6C438.82,165.1,438.47,165.22,438,165.16Z"/><path class="cls-3" d="M436.52,167c0-.42.17-.62.6-.6A.55.55,0,0,1,436.52,167Z"/><path class="cls-2" d="M440.74,162.71l.54-.54Z"/><path class="cls-3" d="M439.51,161.58c-4-2-6.45-5.62-9.25-8.88a1,1,0,0,0,.69-1c2.42-3.11,2.44-3.12,5-.38,1.42,1.52,2.68,3.19,4.22,4.57s2.05,2.75,0,4.17A1.67,1.67,0,0,0,439.51,161.58Z"/><path class="cls-5" d="M431,151.65a1,1,0,0,1-.69,1,1.78,1.78,0,0,1-.94-1.34Z"/><path class="cls-3" d="M78,158c-.54,1.32-1.73,1.81-2.91,2.3C75.4,158.74,76.81,158.54,78,158Z"/><path class="cls-3" d="M69.69,145.41c-.38.43-.74.92-1.41.87,0,0-.16-.18-.13-.24.31-.67,1-.51,1.53-.64Z"/><path class="cls-3" d="M70.89,148.4l-.42.36-.14-.23.55-.14Z"/><path class="cls-3" d="M74.48,153.78a3.89,3.89,0,0,1-.39.32s-.13,0-.2,0l.58-.28Z"/><polygon class="cls-3" points="67.13 146.93 66.96 146.98 66.98 146.84 67.13 146.93"/><path class="cls-3" d="M79.82,167.57c-.21.48-.64.52-1.08.53Z"/><path class="cls-5" d="M81.09,166.92l-1.26.63C80.09,167,80.61,167,81.09,166.92Z"/></svg>