<svg width="13" height="13" viewBox="0 0 13 13" fill="none" xmlns="http://www.w3.org/2000/svg">
<path d="M9.00472 2.66062L10.3396 3.99488L9.00472 2.66062ZM9.86314 1.48519L6.25364 5.09468C6.06714 5.28092 5.93995 5.5182 5.88809 5.77662L5.55469 7.44554L7.22361 7.11151C7.48202 7.05983 7.719 6.93314 7.90555 6.74659L11.515 3.1371C11.6235 3.02863 11.7095 2.89986 11.7682 2.75814C11.827 2.61643 11.8572 2.46454 11.8572 2.31114C11.8572 2.15775 11.827 2.00586 11.7682 1.86414C11.7095 1.72242 11.6235 1.59365 11.515 1.48519C11.4066 1.37672 11.2778 1.29068 11.1361 1.23198C10.9944 1.17328 10.8425 1.14307 10.6891 1.14307C10.5357 1.14307 10.3838 1.17328 10.2421 1.23198C10.1004 1.29068 9.9716 1.37672 9.86314 1.48519V1.48519Z" stroke="#003762" stroke-width="1.07143" stroke-linecap="round" stroke-linejoin="round"/>
<path d="M10.5965 8.70591V10.5967C10.5965 10.931 10.4637 11.2516 10.2273 11.488C9.99087 11.7244 9.67025 11.8572 9.33594 11.8572H2.4031C2.06879 11.8572 1.74817 11.7244 1.51177 11.488C1.27538 11.2516 1.14258 10.931 1.14258 10.5967V3.66384C1.14258 3.32953 1.27538 3.00891 1.51177 2.77252C1.74817 2.53612 2.06879 2.40332 2.4031 2.40332H4.29387" stroke="#003762" stroke-width="1.07143" stroke-linecap="round" stroke-linejoin="round"/>
</svg>
