<svg width="22" height="18" viewBox="0 0 22 18" fill="none" xmlns="http://www.w3.org/2000/svg">
<path d="M18.3516 0C19.2529 0 20.1173 0.364697 20.7546 1.01386C21.392 1.66303 21.75 2.54348 21.75 3.46154V14.5385C21.75 15.4565 21.392 16.337 20.7546 16.9861C20.1173 17.6353 19.2529 18 18.3516 18H3.39844C2.49712 18 1.63271 17.6353 0.995379 16.9861C0.358049 16.337 0 15.4565 0 14.5385V3.46154C0 2.54348 0.358049 1.66303 0.995379 1.01386C1.63271 0.364697 2.49712 0 3.39844 0H18.3516ZM20.3906 5.48446L11.2203 10.9814C11.1336 11.0332 11.0367 11.0648 10.9365 11.0739C10.8364 11.083 10.7355 11.0694 10.6412 11.034L10.5297 10.9814L1.35938 5.48723V14.5385C1.35938 15.0893 1.5742 15.6176 1.9566 16.0071C2.339 16.3966 2.85764 16.6154 3.39844 16.6154H18.3516C18.8924 16.6154 19.411 16.3966 19.7934 16.0071C20.1758 15.6176 20.3906 15.0893 20.3906 14.5385V5.48446ZM18.3516 1.38462H3.39844C2.85764 1.38462 2.339 1.60343 1.9566 1.99293C1.5742 2.38243 1.35938 2.9107 1.35938 3.46154V3.87969L10.875 9.58154L20.3906 3.87692V3.46154C20.3906 2.9107 20.1758 2.38243 19.7934 1.99293C19.411 1.60343 18.8924 1.38462 18.3516 1.38462Z" fill="#003762"/>
</svg>
