<svg width="14" height="12" viewBox="0 0 14 12" fill="none" xmlns="http://www.w3.org/2000/svg">
<path d="M2.625 2.625C2.625 3.45234 1.95234 4.125 1.125 4.125V7.875C1.95234 7.875 2.625 8.54766 2.625 9.375H10.875C10.875 8.54766 11.5477 7.875 12.375 7.875V4.125C11.5477 4.125 10.875 3.45234 10.875 2.625H2.625ZM0 3C0 2.17266 0.672656 1.5 1.5 1.5H12C12.8273 1.5 13.5 2.17266 13.5 3V9C13.5 9.82734 12.8273 10.5 12 10.5H1.5C0.672656 10.5 0 9.82734 0 9V3ZM4.125 6C4.125 5.65528 4.1929 5.31394 4.32482 4.99546C4.45673 4.67698 4.65009 4.3876 4.89384 4.14384C5.1376 3.90009 5.42698 3.70673 5.74546 3.57482C6.06394 3.4429 6.40528 3.375 6.75 3.375C7.09472 3.375 7.43606 3.4429 7.75454 3.57482C8.07302 3.70673 8.3624 3.90009 8.60616 4.14384C8.84991 4.3876 9.04327 4.67698 9.17518 4.99546C9.3071 5.31394 9.375 5.65528 9.375 6C9.375 6.34472 9.3071 6.68606 9.17518 7.00454C9.04327 7.32302 8.84991 7.6124 8.60616 7.85616C8.3624 8.09991 8.07302 8.29327 7.75454 8.42518C7.43606 8.5571 7.09472 8.625 6.75 8.625C6.40528 8.625 6.06394 8.5571 5.74546 8.42518C5.42698 8.29327 5.1376 8.09991 4.89384 7.85616C4.65009 7.6124 4.45673 7.32302 4.32482 7.00454C4.1929 6.68606 4.125 6.34472 4.125 6ZM6 4.875C6 5.08125 6.16875 5.25 6.375 5.25V6.75H6.1875C5.98125 6.75 5.8125 6.91875 5.8125 7.125C5.8125 7.33125 5.98125 7.5 6.1875 7.5H7.3125C7.51875 7.5 7.6875 7.33125 7.6875 7.125C7.6875 6.91875 7.51875 6.75 7.3125 6.75H7.125V4.875C7.125 4.66875 6.95625 4.5 6.75 4.5H6.375C6.16875 4.5 6 4.66875 6 4.875Z" fill="#003762"/>
</svg>
