<svg width="13" height="8" viewBox="0 0 13 8" fill="none" xmlns="http://www.w3.org/2000/svg">
<path d="M0.875 6.84375C0.875 6.71943 0.924386 6.6002 1.01229 6.51229C1.1002 6.42439 1.21943 6.375 1.34375 6.375H4.15625C4.28057 6.375 4.3998 6.42439 4.48771 6.51229C4.57561 6.6002 4.625 6.71943 4.625 6.84375C4.625 6.96807 4.57561 7.0873 4.48771 7.17521C4.3998 7.26311 4.28057 7.3125 4.15625 7.3125H1.34375C1.21943 7.3125 1.1002 7.26311 1.01229 7.17521C0.924386 7.0873 0.875 6.96807 0.875 6.84375ZM0.875 4.03125C0.875 3.90693 0.924386 3.7877 1.01229 3.69979C1.1002 3.61189 1.21943 3.5625 1.34375 3.5625H7.90625C8.03057 3.5625 8.1498 3.61189 8.23771 3.69979C8.32561 3.7877 8.375 3.90693 8.375 4.03125C8.375 4.15557 8.32561 4.2748 8.23771 4.36271C8.1498 4.45061 8.03057 4.5 7.90625 4.5H1.34375C1.21943 4.5 1.1002 4.45061 1.01229 4.36271C0.924386 4.2748 0.875 4.15557 0.875 4.03125ZM0.875 1.21875C0.875 1.09443 0.924386 0.975201 1.01229 0.887294C1.1002 0.799386 1.21943 0.75 1.34375 0.75H11.6562C11.7806 0.75 11.8998 0.799386 11.9877 0.887294C12.0756 0.975201 12.125 1.09443 12.125 1.21875C12.125 1.34307 12.0756 1.4623 11.9877 1.55021C11.8998 1.63811 11.7806 1.6875 11.6562 1.6875H1.34375C1.21943 1.6875 1.1002 1.63811 1.01229 1.55021C0.924386 1.4623 0.875 1.34307 0.875 1.21875Z" fill="#003762"/>
</svg>
