<svg width="235" height="216" viewBox="0 0 235 216" fill="none" xmlns="http://www.w3.org/2000/svg">
<path d="M52.6058 95.0991C51.8634 93.2302 52.8005 92.4655 54.4167 91.7098C57.6765 90.23 60.8505 88.5682 63.9237 86.7322C65.7074 85.6507 66.0334 83.3701 66.64 81.5555C68.4916 76.0937 71.4524 71.1207 73.3493 65.6906C73.8518 64.2607 74.558 63.057 76.4504 63.0344C77.1838 63.0344 77.9081 62.3058 78.637 61.9076C78.9863 61.92 79.331 61.8252 79.6248 61.6359C79.9186 61.4466 80.1474 61.1719 80.2803 60.8488C82.3266 60.9302 83.5354 59.1654 85.2602 58.5862C87.2612 57.9256 88.5016 56.6721 88.8548 54.5634C88.8628 54.3514 88.9132 54.1431 89.0029 53.9508C89.0926 53.7585 89.2198 53.586 89.3771 53.4436C89.5344 53.3011 89.7186 53.1915 89.9189 53.1211C90.1192 53.0508 90.3315 53.0211 90.5434 53.034C92.8341 52.8756 95.2018 52.8756 97.3703 52.2375C100.508 51.3325 102.323 52.9027 104.084 54.9526C104.615 55.5168 105.313 55.8959 106.076 56.0341C108.552 56.6676 111.024 57.3147 113.523 57.8441C117.951 58.8034 116.86 59.1111 117.444 62.3692C118.263 66.9486 118.643 71.5958 119.178 76.2204C119.694 80.7184 120.083 85.2344 120.495 89.7369C120.64 91.2075 121.065 92.6872 120.712 94.2619C119.146 101.235 117.788 108.253 116.208 115.222C115.941 116.403 116.258 117.987 114.746 118.702L109.87 117.562C109.041 116.914 109.376 116.028 109.462 115.245C109.639 113.665 109.942 112.1 110.146 110.525C110.798 105.547 111.364 100.543 112.093 95.5652C112.491 92.8501 112.808 90.1713 111.282 87.5286C110.196 88.4698 110.236 89.8907 109.897 90.9903C107.95 97.2575 105.877 103.475 103.831 109.706C102.441 113.955 101.114 118.231 99.7833 122.489C99.5569 123.191 99.5343 124.087 98.4568 124.105C95.3241 123.471 92.1641 122.933 89.1671 121.756C84.5359 119.946 80.887 117.231 79.9227 111.91C79.5922 110.068 78.5374 108.502 77.3784 107.014C75.4272 104.502 72.7471 103.068 69.9584 101.755C70.4111 101.081 71.3166 101.04 71.8462 101.068C74.9066 101.203 76.3145 98.9363 78.0439 97.1037C78.9991 95.7054 78.4423 94.6194 77.3332 93.6465C77.478 93.1126 76.559 92.5198 77.4237 92.022C78.0937 92.2392 78.2929 91.7007 78.5872 91.3025C80.4478 88.7911 80.5836 85.162 78.8135 81.0442C78.7818 82.4515 78.8135 83.8814 77.4011 84.7095C76.6314 84.7095 76.3055 85.2208 75.9931 85.8227C74.9836 87.7594 73.9695 89.6916 72.9011 91.5921C72.4121 92.4655 72.1043 93.6058 71.0404 93.9316C65.7753 95.5561 60.6913 97.7281 55.3131 98.9997C54.213 97.8548 54.1043 95.995 52.6058 95.0991Z" fill="#00CDB0"/>
<path d="M80.3076 60.826C80.1747 61.1491 79.9459 61.4238 79.6521 61.6131C79.3583 61.8024 79.0136 61.8972 78.6643 61.8848C79.2845 59.2965 77.5777 57.0521 77.5596 54.595C77.5596 52.7849 76.8262 50.7758 78.5466 49.192C78.8453 48.916 78.6462 48.0788 78.6462 47.4996C78.6462 39.1373 78.6462 30.7569 78.6462 22.4126C78.6733 13.7064 84.4409 6.6925 92.9701 4.99107C93.9831 4.81298 95.0111 4.73418 96.0395 4.75576C117.983 4.75576 139.921 4.68336 161.86 4.81459C170.914 4.87342 178.397 12.3534 178.61 21.4397C178.981 36.0331 178.642 50.6672 179.661 65.2108C180.263 73.7813 180.398 82.3156 180.204 90.8408C179.955 101.828 180.539 112.792 180.326 123.765C180.294 125.39 180.81 125.865 182.399 125.811C185.614 125.697 188.837 125.752 192.056 125.779C196.619 125.82 199.363 128.58 199.363 133.164C199.363 147.062 199.363 160.958 199.363 174.853C199.363 179.265 196.569 182.094 192.155 182.148C188.534 182.189 184.948 182.202 181.345 182.148C180.068 182.125 179.534 182.46 179.461 183.831C179.244 187.614 179.009 191.406 178.529 195.144C177.691 202.049 173.911 206.823 167.573 209.624C165.872 210.213 164.075 210.48 162.276 210.411C140.244 210.384 118.197 210.384 96.1345 210.411C94.0837 210.411 92.0329 210.466 90.0455 209.814C85.5838 207.986 81.969 204.554 79.9138 200.194L79.5108 199.081C80.706 198.945 80.6879 198.085 80.8056 197.153C81.0003 195.583 80.4932 193.927 81.3534 192.438C80.9007 193.868 81.8061 194.325 82.9243 194.732C91.5893 197.823 100.49 200.099 109.367 202.452C114.266 203.755 119.105 205.475 124.144 206.027C135.969 207.312 147.844 208.14 159.696 209.131C169.203 209.923 177.424 202.022 177.053 192.723C176.944 189.963 176.917 187.184 177.08 184.428C177.193 182.523 176.514 182.112 174.703 182.116C146.137 182.17 117.571 182.179 89.0043 182.143C87.4017 182.143 85.7719 182.365 84.2281 181.741C83.3227 181.383 83.128 182.044 82.8292 182.6C82.6436 181.808 82.7523 180.935 81.9872 180.338C80.3076 179.012 79.9952 177.107 79.9907 175.148C79.9907 160.948 79.9907 146.753 79.9636 132.553C79.9941 131.141 80.4173 129.765 81.1859 128.58C82.2362 126.815 84.459 125.901 86.1658 126.381C81.8152 127.897 80.4298 129.431 80.4253 132.987C80.4012 146.931 80.4012 160.871 80.4253 174.808C80.4253 179.016 82.8157 181.365 87.0078 181.374C94.206 181.398 101.404 181.398 108.602 181.374C114.773 181.374 120.939 181.32 127.105 181.293C127.358 181.388 127.73 181.388 127.752 181.161C127.793 180.795 127.376 180.709 127.082 180.627C125.564 179.302 124.571 177.477 124.284 175.482C124.33 172.387 124.372 169.292 124.411 166.197C124.514 166.097 124.596 165.977 124.652 165.845C124.708 165.713 124.736 165.571 124.736 165.428C124.736 165.284 124.708 165.142 124.652 165.01C124.596 164.878 124.514 164.758 124.411 164.658L124.434 159.957C124.434 159.504 124.434 159.052 124.456 158.622L124.429 152.916C124.516 152.695 124.55 152.457 124.527 152.221C124.504 151.985 124.426 151.758 124.298 151.558C124.325 146.548 124.352 141.538 124.379 136.531C124.402 133.119 123.759 129.562 127.141 126.575H115.072C114.673 126.421 114.746 126.096 114.791 125.783C125.529 125.666 136.268 125.503 147.006 125.444C156.079 125.396 165.151 125.417 174.223 125.507C177.066 125.535 177.062 125.679 177.062 122.792C177.062 89.7291 177.062 56.6629 177.062 23.5937C177.062 22.5665 177.062 21.5302 176.953 20.5121C176.247 13.091 169.841 6.83277 162.389 6.44362C158.858 6.26261 155.313 6.37574 151.773 6.37122C150.035 6.37122 149.08 7.27623 148.654 8.94146C148.056 11.2538 147.264 11.8737 144.842 11.8782C134.028 11.8782 123.216 11.8782 112.405 11.8782C110.006 11.8782 109.191 11.213 108.648 8.90073C108.34 7.58846 107.683 6.49339 106.289 6.46624C101.861 6.33502 97.3795 5.88251 93.0018 6.68345C85.4007 8.10885 80.2397 14.7426 80.208 22.8153C80.1718 31.1143 80.208 39.4133 80.208 47.7033C80.2125 52.0835 80.2714 56.4548 80.3076 60.826ZM179.792 178.709C179.393 179.736 178.357 180.238 177.447 181.247C178.257 181.302 178.746 181.356 179.258 181.356C183.567 181.356 187.859 181.383 192.183 181.356C196.185 181.329 198.62 178.849 198.625 174.817C198.625 168.199 198.625 161.578 198.625 154.957C198.625 142.155 192.377 132.883 180.516 128.064C180.231 128.155 179.747 127.213 179.642 128.232C179.837 128.598 180.036 128.96 180.235 129.327C180.435 129.919 180.629 130.517 180.824 131.109C180.602 131.652 180.444 132.191 180.878 132.711V133.567H180.765H180.878C180.878 133.852 180.878 134.141 180.878 134.426C180.512 135.759 180.512 137.166 180.878 138.499V139.359H180.765H180.878V140.218C180.512 141.551 180.512 142.958 180.878 144.291V145.151H180.765H180.878C180.878 145.436 180.878 145.725 180.878 146.011C180.149 147.617 181.259 149.49 180.154 151.042L179.796 148.689C180.05 148.237 179.701 147.925 179.606 147.549C176.686 134.879 165.468 125.765 151.266 126.132C144.964 126.295 138.658 126.132 132.352 126.164C127.553 126.164 125.149 128.48 125.14 133.205C125.113 144.906 125.09 156.608 125.14 168.31C125.176 176.111 130.201 181.066 137.997 181.084C148.862 181.112 159.727 181.112 170.593 181.084C175.876 181.084 178.823 178.74 180.131 173.636C180.915 174.265 180.389 175.256 180.788 175.994C180.766 176.982 180.421 177.935 179.805 178.709H179.792Z" fill="#003762"/>
<path d="M81.3797 192.429C80.5195 193.918 81.0266 195.574 80.8319 197.144C80.7142 198.076 80.7323 198.954 79.5372 199.072L72.7057 199.257C72.3118 196.823 72.8958 194.388 72.7057 191.958C72.8551 191.383 73.095 190.809 72.7645 190.216C73.0646 187.588 73.1886 184.942 73.1358 182.297C73.2275 182.152 73.2762 181.984 73.2762 181.813C73.2762 181.641 73.2275 181.474 73.1358 181.329C73.2354 179.217 73.3334 177.105 73.43 174.994C73.5259 174.851 73.5793 174.685 73.5841 174.513C73.589 174.342 73.5449 174.173 73.4572 174.025L73.4979 173.048C73.5943 172.906 73.6458 172.738 73.6458 172.566C73.6458 172.394 73.5943 172.226 73.4979 172.084C73.6217 169.577 73.7424 167.069 73.8601 164.559C74.08 163.762 74.1064 162.924 73.9371 162.115C73.9371 154.296 75.5125 146.694 76.9521 139.037C77.9843 133.567 76.4179 128.331 74.426 123.249C74.1046 122.421 73.6202 122.295 72.7826 122.421C69.3571 122.946 65.9225 123.417 62.4788 123.833C61.3697 123.964 60.9758 124.476 60.8355 125.53C59.1574 138.378 57.4401 151.234 55.6836 164.097C55.4029 166.152 55.5387 168.315 54.4658 170.215L47.8833 171.763C45.2847 172.175 45.2757 172.175 45.3526 169.473C45.7012 157.151 45.9502 144.825 45.6514 132.494C45.6107 130.766 45.3979 129.041 45.2666 127.313C48.92 122.824 50.4955 117.602 50.6675 111.896C55.5976 108.95 60.5503 106.045 65.4396 103.036C66.7936 102.184 68.3673 101.747 69.9668 101.778C72.7555 103.09 75.4356 104.525 77.3868 107.036C78.5457 108.525 79.6005 110.09 79.931 111.932C80.8953 117.254 84.5442 119.955 89.1755 121.779C92.1724 122.955 95.3324 123.494 98.4652 124.127C98.4652 124.272 98.4652 124.412 98.4652 124.557L98.3565 124.906H98.18C97.605 125.272 97.8042 125.856 97.7725 126.372H96.6317C96.5694 126.275 96.4837 126.195 96.3825 126.139C96.2812 126.084 96.1676 126.055 96.0522 126.055C95.9368 126.055 95.8232 126.084 95.7219 126.139C95.6207 126.195 95.535 126.275 95.4727 126.372H86.2011C84.4808 125.892 82.258 126.824 81.2213 128.571C80.4527 129.756 80.0294 131.132 79.9989 132.544C80.0306 146.744 79.9989 160.939 80.0261 175.138C80.0261 177.098 80.343 179.003 82.0226 180.329C82.7876 180.935 82.679 181.808 82.8646 182.591C82.8374 182.786 82.8148 182.98 82.7876 183.17C82.3938 183.37 82.2851 183.623 82.6654 183.935L82.5794 184.745C82.3666 185.22 81.7238 185.609 82.267 186.247C82.3312 186.916 82.2253 187.59 81.9592 188.207C81.5925 188.401 81.5065 188.637 81.8415 188.94L81.3797 192.429Z" fill="#003056"/>
<path d="M50.6721 111.896C50.5001 117.602 48.9247 122.824 45.2712 127.313C41.405 131.553 36.81 134.476 31.065 135.531C20.5756 137.449 10.2401 132.182 5.40966 122.34C0.954937 113.29 3.28189 101.737 10.9509 94.8592C13.3226 92.7061 16.1079 91.058 19.1373 90.0153C22.1667 88.9726 25.3767 88.5572 28.5718 88.7942C31.767 89.0313 34.8804 89.9159 37.7226 91.3943C40.5647 92.8726 43.0761 94.9137 45.1037 97.3932C45.3844 97.7371 45.7194 98.0313 46.0318 98.348L48.8251 103.226C49.7531 106.05 50.2104 108.973 50.6721 111.896ZM26.7099 124.412C28.1224 124.412 29.5349 124.412 30.9473 124.412C33.3467 124.372 34.388 123.403 34.4468 121.037C34.5057 118.67 34.4468 116.285 34.4468 113.91C34.4468 112.806 34.0846 111.702 33.0525 111.353C31.3638 110.783 31.2869 109.634 31.3865 108.208C31.4634 107.122 31.4227 106.027 31.3865 104.937C31.3231 102.117 29.5303 100.253 26.8593 100.23C24.1883 100.208 22.2642 102.145 22.1828 105.013C22.1511 106.425 22.1465 107.837 22.1828 109.249C22.2054 110.095 22.0696 110.706 21.1325 111.023C19.7426 111.502 19.1948 112.652 19.1767 114.046C19.145 116.485 19.1133 118.928 19.1767 121.367C19.222 123.177 20.4126 124.326 22.2326 124.399C23.7356 124.44 25.216 124.408 26.7099 124.412Z" fill="#005BA2"/>
<path d="M90.0901 209.805C92.0775 210.457 94.1283 210.403 96.1791 210.403C118.226 210.403 140.274 210.403 162.321 210.403C164.12 210.471 165.916 210.204 167.618 209.615C168.265 210.57 169.261 210.172 170.103 210.172C189.793 210.193 209.485 210.206 229.178 210.212C230.006 210.212 231.496 209.76 231.505 210.796C231.505 211.9 230.052 211.33 229.282 211.33C156.694 211.36 84.1082 211.36 11.5258 211.33C10.7245 211.33 9.26227 211.873 9.22152 210.801C9.18078 209.728 10.6702 210.217 11.4534 210.217C28.2039 210.176 44.9181 210.217 61.646 210.163C62.4337 210.163 63.5428 210.692 63.8778 209.335C64.1319 209.707 64.4738 210.01 64.8734 210.219C65.273 210.427 65.7179 210.534 66.1686 210.529C70.3426 210.529 74.5167 210.529 78.6907 210.529C79.7002 210.529 80.4427 210.181 80.6102 209.077C80.9633 209.398 80.7777 210.208 81.4839 210.167C84.327 210.018 87.2334 210.656 90.0901 209.805Z" fill="#00CDB0"/>
<path d="M54.4938 180.758C55.9651 182.116 55.5576 183.786 55.2407 185.401C55.0868 186.18 54.3036 186.17 53.6562 186.166C49.3615 186.133 45.0652 186.095 40.7674 186.053C39.7307 186.053 38.8253 185.872 38.7574 184.546C38.6895 183.22 39.4048 182.623 40.6316 182.691C44.3122 182.903 46.4762 180.12 49.1879 178.433C50.6457 179.921 51.9495 181.749 54.4938 180.758Z" fill="#003056"/>
<path d="M80.5833 209.058C80.4158 210.162 79.6779 210.511 78.6638 210.511C74.4898 210.511 70.3157 210.511 66.1417 210.511C65.691 210.516 65.2461 210.409 64.8465 210.201C64.4469 209.992 64.105 209.688 63.8509 209.316C63.5884 206.891 65.4671 207.144 66.9204 206.864C67.1063 206.946 67.3122 206.973 67.5131 206.941C67.7141 206.909 67.9013 206.819 68.0522 206.683L68.8535 206.456C69.0436 206.579 69.1341 206.484 69.1794 206.307L74.3041 202.687C74.861 202.841 74.9515 203.429 75.2956 203.764C76.5179 204.94 77.8127 205.959 79.6462 204.972C80.2392 205.402 80.357 206.103 80.6422 206.71L80.7327 207.208L80.5833 209.058Z" fill="#003056"/>
<path d="M54.4933 180.759C51.9491 181.75 50.6453 179.922 49.1875 178.433C49.1882 176.642 49.0504 174.854 48.7755 173.084C48.6624 172.442 48.4813 172.003 47.8701 171.763L54.4526 170.215C54.4737 173.733 54.4873 177.247 54.4933 180.759Z" fill="#FEBABA"/>
<path d="M48.8255 103.226L46.0322 98.3481C46.1797 98.0986 46.3833 97.8869 46.6269 97.7298C46.8705 97.5727 47.1474 97.4745 47.4356 97.4431C49.3687 97.1082 51.0121 96.1761 52.6057 95.1172C54.1041 96.0222 54.2128 97.8684 55.3219 99.0359C53.7737 99.8006 52.2616 100.615 51.0755 101.918C50.4643 102.57 49.7988 103.172 48.8255 103.226Z" fill="#FEBABA"/>
<path d="M79.6462 205.018C77.8127 206.004 76.5179 204.986 75.2956 203.81C74.9515 203.475 74.8429 202.905 74.3041 202.733C74.3449 201.307 74.4762 199.846 72.7061 199.253L79.5375 199.072L79.9404 200.185C79.4153 201.769 79.6507 203.402 79.6462 205.018Z" fill="#FEBABA"/>
<path d="M72.7512 190.216C73.0817 190.809 72.8418 191.384 72.6924 191.958C72.5745 191.844 72.4819 191.706 72.4204 191.554C72.359 191.402 72.3301 191.238 72.3356 191.074C72.3412 190.91 72.381 190.749 72.4526 190.601C72.5242 190.454 72.6259 190.322 72.7512 190.216Z" fill="#FEBABA"/>
<path d="M73.969 162.097C74.1384 162.906 74.112 163.744 73.892 164.541C73.7204 163.732 73.7468 162.894 73.969 162.097Z" fill="#FEBABA"/>
<path d="M73.467 174.007C73.5548 174.155 73.5988 174.324 73.594 174.495C73.5892 174.667 73.5357 174.833 73.4399 174.976C73.0324 174.641 73.046 174.32 73.467 174.007Z" fill="#FEBABA"/>
<path d="M68.0517 206.714C67.9009 206.851 67.7136 206.941 67.5127 206.973C67.3118 207.005 67.1058 206.978 66.9199 206.895C67.2595 206.592 67.5583 206.049 68.0517 206.714Z" fill="#00CDB0"/>
<path d="M73.1449 181.329C73.2366 181.474 73.2853 181.642 73.2853 181.813C73.2853 181.985 73.2366 182.153 73.1449 182.297C73.1313 181.972 73.1403 181.65 73.1449 181.329Z" fill="#FEBABA"/>
<path d="M73.5301 172.066C73.6264 172.208 73.6779 172.376 73.6779 172.548C73.6779 172.72 73.6264 172.887 73.5301 173.03C73.5165 172.708 73.521 172.405 73.5301 172.066Z" fill="#FEBABA"/>
<path d="M69.1795 206.344C69.1342 206.52 69.0437 206.615 68.8535 206.493C68.8869 206.438 68.9357 206.395 68.9937 206.369C69.0518 206.342 69.1164 206.333 69.1795 206.344Z" fill="#00CDB0"/>
<path d="M80.3067 60.8261C80.2705 56.4549 80.2116 52.0836 80.2026 47.7034C80.2026 39.4044 80.1709 31.1054 80.2026 22.8155C80.2343 14.7427 85.3952 8.10895 92.9963 6.68355C97.3786 5.88262 101.86 6.33512 106.288 6.4392C107.682 6.46635 108.339 7.56142 108.647 8.87369C109.19 11.186 110.005 11.8512 112.404 11.8512C123.215 11.8693 134.027 11.8693 144.841 11.8512C147.263 11.8512 148.056 11.2267 148.653 8.91442C149.079 7.26729 150.034 6.33965 151.772 6.34417C155.313 6.34417 158.857 6.23557 162.388 6.41657C169.84 6.80573 176.246 13.0639 176.952 20.485C177.047 21.5032 177.061 22.5394 177.061 23.5666C177.061 56.6298 177.061 89.6961 177.061 122.765C177.061 125.643 177.061 125.48 174.222 125.48C165.15 125.39 156.078 125.369 147.005 125.417C136.267 125.476 125.528 125.639 114.79 125.756C114.862 123.412 114.432 121.073 114.749 118.729C116.261 118.014 115.944 116.43 116.212 115.249C117.792 108.281 119.15 101.262 120.716 94.289C121.069 92.7053 120.644 91.2256 120.499 89.764C120.073 85.2389 119.697 80.7455 119.181 76.2476C118.647 71.6229 118.276 66.9757 117.447 62.3963C116.863 59.1382 117.954 58.8305 113.527 57.8712C111.028 57.3282 108.547 56.6811 106.08 56.0612C105.317 55.923 104.619 55.544 104.088 54.9797C102.327 52.9298 100.511 51.3596 97.374 52.2646C95.2055 52.9027 92.8469 52.9027 90.5471 53.0611C90.1281 53.0451 89.7198 53.1947 89.4104 53.4776C89.1011 53.7605 88.9158 54.1539 88.8947 54.5724C88.5416 56.6811 87.3011 57.9346 85.3001 58.5952C83.5617 59.1428 82.353 60.9075 80.3067 60.8261ZM103.549 39.2415C104.138 35.3544 102.526 31.3181 99.2845 30.5171C96.6044 29.8474 93.7976 29.0148 90.9364 29.2592C84.1457 29.8293 80.9767 34.0919 82.3348 40.7438C82.5846 41.6699 82.7244 42.6222 82.7513 43.581C82.6925 45.6671 83.8198 47.0925 85.522 48.1061C87.0309 48.9713 88.7312 49.4486 90.4701 49.4953C90.9002 49.6175 91.3394 49.7125 91.7604 49.8664C98.6643 52.4095 105.36 45.5223 103.549 39.2415ZM142.858 122.593C144.669 122.593 146.48 122.503 148.259 122.593C152.035 122.82 155.562 122.358 158.993 120.467C161.836 118.901 165.173 118.335 168.097 116.819C170.881 115.376 172.561 113.199 172.787 110.032C173.29 103.072 170.823 97.2892 165.544 92.7641C159.047 87.1756 151.279 84.3248 142.908 83.3791C131.251 82.0623 123.591 89.1938 123.591 100.909C123.591 108.493 126.244 115.218 130.191 121.539C130.392 121.898 130.693 122.19 131.057 122.38C131.421 122.569 131.833 122.648 132.242 122.607C135.782 122.557 139.323 122.589 142.858 122.593ZM98.2387 10.6204C100.226 10.6204 102.209 10.6204 104.196 10.6204C104.762 10.6204 105.46 10.7018 105.437 9.83301C105.414 8.96419 104.708 9.09089 104.156 9.08637C100.232 9.08637 96.3222 9.08637 92.4259 9.08637C91.9188 9.08637 91.3258 9.05017 91.2805 9.77871C91.2262 10.652 91.8871 10.6204 92.4711 10.6204C94.4042 10.6249 96.3283 10.6204 98.2387 10.6204ZM154.013 7.95058C153.659 7.98308 153.327 8.14073 153.078 8.3953C152.829 8.64986 152.679 8.98468 152.655 9.33977C152.574 10.2131 153.081 10.6068 153.932 10.6158C154.783 10.6249 155.322 10.3127 155.29 9.41217C155.279 9.06076 155.147 8.72382 154.917 8.45775C154.687 8.19168 154.373 8.01263 154.027 7.95058H154.013ZM159.183 9.2357C159.183 8.38951 158.785 7.87817 157.911 7.95963C157.142 8.03655 156.553 8.51168 156.553 9.31715C156.564 9.49554 156.61 9.67002 156.689 9.83057C156.767 9.99113 156.877 10.1346 157.011 10.2527C157.145 10.3709 157.301 10.4614 157.47 10.519C157.64 10.5767 157.819 10.6003 157.997 10.5887C158.903 10.6249 159.21 10.0547 159.197 9.2357H159.183ZM163.425 9.26737C163.289 8.68816 162.936 8.02298 162.13 8.00035C161.951 7.98743 161.77 8.01407 161.602 8.07838C161.434 8.14268 161.282 8.2431 161.157 8.37255C161.032 8.502 160.936 8.65732 160.878 8.82757C160.819 8.99781 160.799 9.17884 160.818 9.35787C160.807 9.53484 160.835 9.71203 160.901 9.87669C160.967 10.0414 161.068 10.1894 161.198 10.3101C161.328 10.4309 161.483 10.5213 161.652 10.575C161.821 10.6286 162 10.6441 162.176 10.6204C162.977 10.5706 163.403 10.2312 163.43 9.26737H163.425Z" fill="white"/>
<path d="M48.8252 103.226C49.794 103.158 50.464 102.57 51.0888 101.905C52.2749 100.601 53.8051 99.787 55.3352 99.0222C60.7135 97.7507 65.7975 95.5787 71.0626 93.9542C72.1265 93.6284 72.4207 92.488 72.9232 91.6147C73.9916 89.7142 75.0057 87.782 76.0153 85.8452C76.3277 85.2434 76.6536 84.723 77.4232 84.732C77.4232 87.1696 77.4308 89.6071 77.4459 92.0446C76.5812 92.5423 77.5002 93.1351 77.3553 93.6691C77.5138 94.8365 76.7396 96.1986 78.0661 97.1262C76.3367 98.9589 74.9288 101.226 71.8684 101.09C71.3161 101.063 70.4424 101.09 69.9806 101.778C68.3811 101.747 66.8075 102.184 65.4534 103.036C60.5641 106.045 55.6114 108.95 50.6813 111.896C50.2105 108.973 49.7533 106.05 48.8252 103.226Z" fill="white"/>
<path d="M98.4705 124.557C98.4705 124.413 98.4705 124.272 98.4705 124.127C99.548 124.127 99.5706 123.222 99.797 122.512C101.155 118.254 102.454 113.978 103.844 109.729C105.891 103.498 107.964 97.2802 109.911 91.013C110.25 89.9134 110.209 88.4925 111.296 87.5513C112.822 90.1939 112.505 92.8547 112.106 95.5878C111.377 100.565 110.812 105.543 110.16 110.548C109.956 112.122 109.653 113.688 109.476 115.267C109.39 116.05 109.055 116.937 109.883 117.584C110.418 120.467 108.466 122.96 108.598 125.775C105.646 125.775 102.712 125.775 99.7472 125.775C99.0862 125.775 98.2487 126.005 98.1943 124.892H98.3709L98.4705 124.557Z" fill="white"/>
<path d="M108.588 125.797C108.457 122.983 110.399 120.489 109.874 117.607L114.75 118.747C114.433 121.091 114.863 123.431 114.791 125.775C114.745 126.087 114.673 126.413 115.071 126.567C114.511 126.968 114.018 127.456 113.609 128.01C112.432 129.707 110.318 129.648 109.24 127.897C108.946 127.444 108.788 126.861 108.271 126.571L108.588 125.797Z" fill="#FEBABA"/>
<path d="M77.4142 92.0447C77.4142 89.6072 77.4067 87.1697 77.3916 84.7322C78.7814 83.9041 78.7724 82.4697 78.8041 81.0669C80.5742 85.1847 80.4384 88.8138 78.5777 91.3252C78.3197 91.7235 78.0978 92.2619 77.4142 92.0447Z" fill="#003762"/>
<path d="M78.0486 97.1261C76.7221 96.2211 77.4963 94.8364 77.3378 93.6689C78.447 94.6418 79.0038 95.7279 78.0486 97.1261Z" fill="#FEBABA"/>
<path d="M180.127 173.627C178.818 178.736 175.871 181.071 170.588 181.08C159.723 181.098 148.858 181.098 137.992 181.08C130.197 181.08 125.172 176.102 125.135 168.306C125.081 156.604 125.104 144.902 125.135 133.2C125.135 128.476 127.548 126.168 132.347 126.159C138.653 126.159 144.96 126.29 151.262 126.127C165.463 125.761 176.681 134.874 179.602 147.54C179.533 147.731 179.514 147.937 179.548 148.137C179.581 148.338 179.665 148.526 179.792 148.685C179.909 149.468 180.032 150.255 180.149 151.033L180.127 173.627ZM131.229 128.06C133.841 131.874 136.711 135.073 140.863 136.897C143.126 137.888 145.24 137.589 146.839 135.748C148.939 133.331 150.125 130.209 153.145 128.055L131.229 128.06ZM151.28 149.581C155.707 149.581 160.139 149.581 164.567 149.581C165.155 149.581 166.124 149.843 166.142 148.979C166.16 148.115 165.192 148.332 164.599 148.332C155.801 148.332 147.008 148.332 138.219 148.332C137.599 148.332 136.652 148.183 136.643 148.988C136.643 149.893 137.617 149.576 138.187 149.581C142.551 149.613 146.915 149.599 151.28 149.599V149.581ZM144.462 173.672C142.411 173.672 140.36 173.672 138.309 173.672C137.82 173.672 137.141 173.595 137.155 174.319C137.155 174.912 137.793 174.835 138.219 174.835C142.444 174.835 146.669 174.835 150.895 174.835C151.348 174.835 151.95 174.867 151.959 174.292C151.959 173.568 151.262 173.681 150.795 173.677C148.686 173.659 146.571 173.672 144.462 173.672ZM151.284 142.875C153.407 142.875 155.526 142.875 157.645 142.875C158.134 142.875 158.817 142.992 158.84 142.268C158.863 141.544 158.206 141.581 157.699 141.581C153.525 141.581 149.35 141.581 145.173 141.581C144.661 141.581 144.009 141.581 144.081 142.314C144.154 143.047 144.828 142.875 145.313 142.879C147.305 142.888 149.297 142.875 151.284 142.875ZM151.348 155.056C149.356 155.056 147.359 155.056 145.367 155.056C144.81 155.056 144.041 154.966 144.072 155.789C144.1 156.454 144.806 156.382 145.304 156.382C149.357 156.382 153.407 156.382 157.455 156.382C158.002 156.382 158.858 156.504 158.845 155.758C158.845 154.911 157.939 155.065 157.328 155.061C155.331 155.047 153.339 155.056 151.348 155.056Z" fill="white"/>
<path d="M108.271 126.548C108.81 126.838 108.946 127.399 109.24 127.874C110.317 129.626 112.409 129.684 113.609 127.987C114.018 127.433 114.511 126.946 115.071 126.544H127.172C123.79 129.544 124.433 133.101 124.41 136.499C124.38 141.507 124.353 146.516 124.329 151.527H113.26L112.857 151.853C112.841 151.972 112.849 152.093 112.882 152.209C112.915 152.324 112.971 152.432 113.048 152.525C113.125 152.617 113.22 152.693 113.327 152.747C113.434 152.802 113.552 152.833 113.672 152.839C115.234 153.337 116.841 153.038 118.426 153.052C123.727 153.097 123.727 153.052 123.663 158.373C120.603 158.405 117.543 158.423 114.482 158.482C113.917 158.482 112.984 158.229 113.029 159.161C113.065 159.871 113.935 159.695 114.473 159.704C117.534 159.753 120.594 159.785 123.654 159.821C123.654 161.426 123.662 163.033 123.677 164.641C123.125 164.926 122.007 164.315 122.011 165.369C122.016 166.423 123.125 165.822 123.691 166.12C123.691 168.713 123.691 171.301 123.691 173.894C123.691 174.478 123.433 175.22 124.329 175.46C124.616 177.454 125.608 179.28 127.127 180.605C127.127 180.827 127.127 181.058 127.149 181.27C120.983 181.297 114.817 181.338 108.647 181.352C101.449 181.352 94.2506 181.352 87.0524 181.352C82.8602 181.352 80.4744 178.994 80.4699 174.786C80.4397 160.843 80.4397 146.902 80.4699 132.965C80.4699 129.408 81.8597 127.874 86.2103 126.358H95.4819C95.6623 126.447 95.8605 126.493 96.0614 126.493C96.2623 126.493 96.4605 126.447 96.6409 126.358H97.7817L108.271 126.548ZM112.427 144.839C110.24 144.839 108.054 144.839 105.867 144.839C105.415 144.839 104.803 144.785 104.772 145.346C104.731 146.074 105.433 146.002 105.908 146.006C110.154 146.006 114.401 146.006 118.647 146.006C119.1 146.006 119.671 146.006 119.652 145.386C119.634 144.766 119.028 144.843 118.607 144.839C116.547 144.83 114.487 144.839 112.427 144.839Z" fill="white"/>
<path d="M81.3804 192.429C81.5298 191.262 81.6837 190.099 81.8331 188.936C81.8921 188.898 81.9425 188.848 81.9809 188.789C82.0193 188.731 82.045 188.665 82.0561 188.595C82.0672 188.526 82.0635 188.455 82.0454 188.388C82.0273 188.32 81.995 188.257 81.9508 188.203C82.2169 187.586 82.3228 186.912 82.2586 186.243C82.4223 186.033 82.5355 185.789 82.5897 185.528C82.6439 185.268 82.6375 184.999 82.571 184.741L82.657 183.931C82.7184 183.891 82.7708 183.839 82.8107 183.778C82.8507 183.717 82.8773 183.648 82.8888 183.576C82.9003 183.504 82.8965 183.43 82.8776 183.359C82.8588 183.289 82.8252 183.223 82.7792 183.166C82.8064 182.976 82.829 182.782 82.8562 182.587C83.155 182.035 83.3723 181.374 84.2551 181.732C85.7989 182.356 87.4241 182.134 89.0312 182.134C117.598 182.134 146.164 182.125 174.73 182.107C176.541 182.107 177.22 182.515 177.107 184.42C176.944 187.175 176.971 189.954 177.08 192.714C177.451 202.013 169.234 209.909 159.723 209.122C147.871 208.131 135.996 207.312 124.171 206.018C119.132 205.466 114.293 203.755 109.394 202.443C100.517 200.09 91.6162 197.814 82.9513 194.723C81.8104 194.316 80.9367 193.859 81.3804 192.429Z" fill="white"/>
<path d="M180.208 129.326L179.615 128.236L180.488 128.064C192.359 132.883 198.597 142.155 198.597 154.956C198.597 161.575 198.597 168.195 198.597 174.817C198.597 178.849 196.157 181.329 192.155 181.356C187.85 181.383 183.553 181.356 179.23 181.356C178.741 181.356 178.252 181.301 177.419 181.247C178.324 180.238 179.366 179.736 179.759 178.709L179.814 178.745L179.773 178.7C180.388 177.926 180.733 176.972 180.755 175.985C181.235 175.428 181.004 174.758 181.004 174.143C181.027 166.342 181.05 158.536 181.004 150.735C181.004 149.16 181.222 147.567 180.819 145.997C180.819 145.712 180.819 145.422 180.819 145.137V144.277C181.108 142.935 181.108 141.547 180.819 140.205C180.819 139.92 180.819 139.635 180.819 139.35V138.494C181.108 137.152 181.108 135.764 180.819 134.422C180.819 134.137 180.819 133.847 180.819 133.562C180.819 133.277 180.819 132.992 180.819 132.711C180.946 132.461 181.008 132.182 180.998 131.901C180.989 131.62 180.908 131.346 180.765 131.105C180.57 130.512 180.375 129.915 180.176 129.322L180.226 129.277L180.208 129.326Z" fill="white"/>
<path d="M79.6462 205.018C79.6462 203.402 79.4154 201.769 79.9405 200.185C82.0001 204.548 85.6219 207.981 90.0904 209.805C87.2519 210.656 84.3454 210.018 81.4888 210.167C80.7826 210.208 80.9682 209.398 80.6151 209.077C80.6649 208.47 80.7147 207.86 80.769 207.267C80.769 207.208 80.8233 207.145 80.8097 207.095C80.7711 206.984 80.7257 206.875 80.6739 206.769C80.357 206.149 80.2393 205.439 79.6462 205.018Z" fill="white"/>
<path d="M180.851 146.006C181.254 147.572 181.027 149.174 181.036 150.744C181.077 158.545 181.036 166.351 181.036 174.152C181.036 174.768 181.267 175.437 180.787 175.994C180.389 175.252 180.914 174.261 180.131 173.632V151.034C181.231 149.486 180.122 147.613 180.851 146.006Z" fill="#005BA2"/>
<path d="M123.655 159.83C120.595 159.794 117.534 159.762 114.474 159.713C113.926 159.713 113.066 159.88 113.03 159.17C112.985 158.238 113.935 158.5 114.483 158.491C117.543 158.432 120.604 158.414 123.664 158.382L124.488 158.609C124.488 159.061 124.488 159.514 124.465 159.943L123.655 159.83Z" fill="#005BA2"/>
<path d="M113.673 152.848C113.553 152.842 113.435 152.81 113.328 152.756C113.22 152.702 113.125 152.626 113.049 152.534C112.972 152.441 112.915 152.333 112.883 152.217C112.85 152.102 112.841 151.981 112.858 151.861L113.261 151.536H124.33C124.457 151.735 124.536 151.963 124.559 152.199C124.582 152.435 124.548 152.673 124.461 152.893C120.869 152.654 117.266 152.639 113.673 152.848Z" fill="#005BA2"/>
<path d="M113.672 152.848C117.266 152.642 120.869 152.66 124.46 152.902L124.487 158.608L123.663 158.382C123.727 153.079 123.727 153.106 118.425 153.061C116.841 153.047 115.234 153.346 113.672 152.848Z" fill="#00CDB0"/>
<path d="M124.329 175.469C123.424 175.229 123.696 174.487 123.691 173.903C123.691 171.31 123.691 168.722 123.691 166.129L124.456 166.183C124.414 169.278 124.372 172.374 124.329 175.469Z" fill="#00CDB0"/>
<path d="M124.456 166.183L123.691 166.129C123.125 165.853 122.016 166.396 122.012 165.378C122.007 164.36 123.125 164.925 123.678 164.649H124.443C124.546 164.748 124.628 164.867 124.685 164.998C124.742 165.129 124.771 165.271 124.773 165.414C124.774 165.556 124.747 165.698 124.692 165.83C124.638 165.963 124.558 166.083 124.456 166.183Z" fill="#005BA2"/>
<path d="M124.442 164.645H123.677C123.677 163.037 123.669 161.431 123.654 159.826L124.465 159.939C124.456 161.509 124.451 163.079 124.442 164.645Z" fill="#00CDB0"/>
<path d="M180.851 134.426C181.14 135.768 181.14 137.157 180.851 138.499C180.485 137.166 180.485 135.759 180.851 134.426Z" fill="#005BA2"/>
<path d="M180.851 140.214C181.14 141.556 181.14 142.944 180.851 144.286C180.485 142.954 180.485 141.547 180.851 140.214Z" fill="#005BA2"/>
<path d="M180.805 131.127C180.949 131.369 181.03 131.643 181.039 131.924C181.049 132.205 180.987 132.483 180.86 132.734C180.425 132.209 180.584 131.68 180.805 131.127Z" fill="#005BA2"/>
<path d="M179.769 148.685C179.642 148.526 179.558 148.338 179.525 148.137C179.492 147.937 179.51 147.731 179.579 147.54C179.674 147.92 180.023 148.25 179.769 148.685Z" fill="#005BA2"/>
<path d="M180.489 128.06L179.615 128.231C179.728 127.213 180.204 128.155 180.489 128.06Z" fill="#005BA2"/>
<path d="M127.15 181.279C127.15 181.057 127.15 180.826 127.127 180.614C127.421 180.713 127.838 180.781 127.797 181.148C127.774 181.374 127.403 181.374 127.15 181.279Z" fill="#00CDB0"/>
<path d="M179.801 178.7L179.842 178.745L179.787 178.709L179.801 178.7Z" fill="#005BA2"/>
<path d="M180.843 139.373V139.354L180.729 139.364L180.843 139.373Z" fill="#005BA2"/>
<path d="M180.843 133.585V133.567L180.729 133.571L180.843 133.585Z" fill="#005BA2"/>
<path d="M180.843 145.165V145.146L180.729 145.156L180.843 145.165Z" fill="#005BA2"/>
<path d="M180.208 129.327L180.267 129.304L180.217 129.345L180.208 129.327Z" fill="#005BA2"/>
<path d="M108.271 126.548L97.7861 126.354C97.8178 125.838 97.6186 125.254 98.1935 124.888C98.2479 126.001 99.099 125.766 99.7464 125.77C102.698 125.77 105.632 125.77 108.597 125.77L108.271 126.548Z" fill="#003762"/>
<path d="M82.5711 184.741C82.6376 184.998 82.644 185.268 82.5899 185.528C82.5357 185.789 82.4224 186.033 82.2588 186.243C81.7155 185.605 82.3584 185.216 82.5711 184.741Z" fill="#003762"/>
<path d="M82.7788 183.166C82.8248 183.223 82.8583 183.289 82.8772 183.359C82.8961 183.43 82.8999 183.503 82.8883 183.576C82.8768 183.648 82.8502 183.717 82.8103 183.778C82.7703 183.839 82.718 183.891 82.6566 183.931C82.2763 183.609 82.394 183.365 82.7788 183.166Z" fill="#003762"/>
<path d="M81.9418 188.203C81.9861 188.257 82.0183 188.32 82.0365 188.388C82.0546 188.456 82.0582 188.526 82.0471 188.596C82.036 188.665 82.0104 188.731 81.972 188.789C81.9336 188.848 81.8832 188.898 81.8241 188.936C81.4891 188.633 81.5842 188.397 81.9418 188.203Z" fill="#003762"/>
<path d="M96.6365 126.335C96.4561 126.424 96.2579 126.47 96.057 126.47C95.8561 126.47 95.6579 126.424 95.4775 126.335C95.5398 126.238 95.6255 126.158 95.7268 126.103C95.828 126.048 95.9416 126.019 96.057 126.019C96.1724 126.019 96.286 126.048 96.3873 126.103C96.4885 126.158 96.5742 126.238 96.6365 126.335Z" fill="#003762"/>
<path d="M98.47 124.557L98.3613 124.906L98.47 124.557Z" fill="#00CDB0"/>
<path d="M26.7101 124.412C25.2297 124.412 23.7493 124.453 22.2735 124.412C20.4626 124.34 19.2629 123.195 19.2176 121.381C19.1497 118.942 19.1814 116.498 19.2176 114.059C19.2176 112.665 19.7835 111.516 21.1734 111.036C22.1105 110.72 22.2463 110.131 22.2237 109.263C22.1829 107.851 22.1875 106.439 22.2237 105.027C22.2871 102.158 24.2111 100.212 26.9048 100.24C29.5984 100.267 31.3504 102.126 31.4319 104.946C31.4591 106.036 31.4998 107.131 31.4319 108.217C31.3323 109.643 31.4319 110.792 33.0979 111.362C34.1301 111.711 34.4877 112.815 34.4923 113.919C34.4923 116.295 34.5375 118.675 34.4923 121.046C34.447 123.417 33.3922 124.381 30.9928 124.422C29.5214 124.44 28.109 124.412 26.7101 124.412ZM26.7101 122.729C28.1226 122.729 29.535 122.702 30.9475 122.729C32.36 122.756 32.9349 122.123 32.9168 120.756C32.8896 118.702 32.8715 116.647 32.9168 114.598C32.9576 113.014 32.1789 112.394 30.6849 112.412C28.951 112.412 27.2171 112.412 25.4832 112.412C20.7569 112.412 20.8293 111.959 20.8565 116.973C20.8746 122.729 20.8519 122.734 26.7101 122.729ZM23.9395 106.824C23.9395 107.729 23.9712 108.634 23.9395 109.539C23.9078 110.444 24.3152 110.806 25.2025 110.783C26.4249 110.747 27.6472 110.783 28.8741 110.783C29.4762 110.783 29.8429 110.493 29.8383 109.851C29.8383 108.041 29.9379 106.231 29.7523 104.457C29.5758 102.81 28.2086 101.882 26.6105 101.995C24.7996 102.126 24.0391 103.235 23.953 104.928C23.8987 105.538 23.9259 106.181 23.9259 106.824H23.9395Z" fill="#00CDB0"/>
<path d="M80.6426 206.755C80.6944 206.861 80.7397 206.97 80.7784 207.081C80.7784 207.131 80.7512 207.194 80.7376 207.253L80.6426 206.755Z" fill="#00CDB0"/>
<path d="M142.858 122.589C139.323 122.589 135.782 122.557 132.247 122.616C131.838 122.658 131.426 122.579 131.062 122.389C130.697 122.199 130.396 121.907 130.196 121.548C126.248 115.227 123.591 108.502 123.591 100.909C123.591 89.1849 131.246 82.0534 142.926 83.3702C151.292 84.3159 159.061 87.1667 165.562 92.7552C170.823 97.2802 173.29 103.063 172.806 110.023C172.579 113.19 170.9 115.385 168.115 116.81C165.191 118.326 161.854 118.892 159.011 120.458C155.58 122.349 152.053 122.811 148.277 122.584C146.467 122.503 144.66 122.594 142.858 122.589ZM145.62 113.675C146.906 113.675 148.191 113.706 149.473 113.675C151.229 113.625 152.234 112.729 152.266 110.937C152.302 108.883 152.266 106.828 152.266 104.774C152.266 103.629 151.813 102.728 150.776 102.294C149.871 101.914 149.762 101.285 149.776 100.457C149.836 99.1748 149.816 97.8902 149.717 96.6105C149.628 95.5729 149.145 94.6086 148.367 93.9159C147.589 93.2233 146.575 92.8548 145.534 92.8864C143.388 92.995 141.885 94.6648 141.831 97.0223C141.808 97.9816 141.781 98.95 141.831 99.9093C141.903 101.081 141.767 101.973 140.423 102.452C139.549 102.765 139.191 103.71 139.191 104.683C139.191 106.801 139.123 108.923 139.191 111.018C139.259 112.679 140.269 113.58 141.908 113.652C143.18 113.715 144.416 113.675 145.62 113.675Z" fill="#005BA2"/>
<path d="M90.4571 49.477C88.7181 49.4303 87.0179 48.953 85.5089 48.0878C83.8067 47.0923 82.6794 45.6669 82.7383 43.5627C82.7113 42.6039 82.5715 41.6516 82.3218 40.7255C80.9636 34.0736 84.1598 29.811 90.9234 29.2409C93.7845 28.9965 96.5913 29.8291 99.2714 30.4988C102.513 31.2998 104.125 35.3361 103.536 39.2232C103.289 39.0757 103.074 38.8792 102.906 38.6457C102.738 38.4122 102.62 38.1467 102.558 37.8657C101.97 35.8384 100.498 35.4538 98.6738 35.6484C97.7842 35.6704 96.9142 35.9146 96.1432 36.3588C94.9525 37.1326 93.6442 37.7163 92.0687 37.3679C91.4349 37.2231 90.448 37.1824 90.5657 38.2729C90.7649 40.0513 89.7418 41.1871 88.6236 42.2143C87.5868 43.1645 87.7181 43.9474 88.37 45.0379C89.2166 46.4407 90.2941 47.7575 90.4571 49.477Z" fill="#003056"/>
<path d="M90.4572 49.477C90.2942 47.7575 89.2168 46.4407 88.4019 45.0289C87.7726 43.9383 87.6187 43.1555 88.6554 42.2052C89.7736 41.178 90.7967 40.0422 90.5975 38.2639C90.4798 37.1824 91.4667 37.2231 92.1006 37.3589C93.6579 37.7164 94.9662 37.1236 96.175 36.3498C96.9428 35.911 97.8078 35.6699 98.6921 35.6484C100.503 35.4538 101.988 35.8385 102.576 37.8657C102.638 38.1468 102.756 38.4123 102.925 38.6458C103.093 38.8792 103.307 39.0758 103.554 39.2232C105.365 45.504 98.6694 52.3912 91.752 49.83C91.3264 49.6942 90.8873 49.5992 90.4572 49.477Z" fill="#FEBABA"/>
<path d="M98.2397 10.6205C96.3157 10.6205 94.3916 10.6205 92.4721 10.6205C91.8881 10.6205 91.2271 10.6521 91.2815 9.77879C91.3267 9.05025 91.9198 9.08645 92.4268 9.08645C96.3504 9.08645 100.26 9.08645 104.157 9.08645C104.709 9.08645 105.415 8.96428 105.438 9.83309C105.46 10.7019 104.763 10.6159 104.197 10.6205C102.224 10.6295 100.241 10.6205 98.2397 10.6205Z" fill="#00CDB0"/>
<path d="M154.027 7.95068C154.376 8.009 154.695 8.18643 154.929 8.45285C155.162 8.71927 155.296 9.05827 155.308 9.41228C155.34 10.3173 154.774 10.6205 153.95 10.616C153.126 10.6114 152.592 10.2132 152.673 9.33988C152.697 8.9855 152.847 8.65123 153.095 8.39677C153.343 8.1423 153.673 7.9842 154.027 7.95068Z" fill="#00CDB0"/>
<path d="M159.197 9.23555C159.197 10.0546 158.899 10.6248 157.993 10.5931C157.637 10.6066 157.289 10.4795 157.026 10.239C156.762 9.99851 156.604 9.66407 156.585 9.30795C156.553 8.51607 157.156 8.04093 157.943 7.95043C158.799 7.87351 159.193 8.38936 159.197 9.23555Z" fill="#00CDB0"/>
<path d="M163.43 9.26713C163.394 10.231 162.978 10.5704 162.199 10.6247C162.023 10.6484 161.844 10.6329 161.675 10.5793C161.506 10.5256 161.351 10.4352 161.221 10.3144C161.091 10.1937 160.99 10.0456 160.924 9.88098C160.858 9.71632 160.83 9.53912 160.841 9.36216C160.822 9.18313 160.842 9.0021 160.901 8.83186C160.96 8.66161 161.055 8.50629 161.18 8.37684C161.305 8.24739 161.457 8.14697 161.626 8.08266C161.794 8.01835 161.974 7.99172 162.154 8.00464C162.951 8.02274 163.304 8.68792 163.43 9.26713Z" fill="#00CDB0"/>
<path d="M131.229 128.06H153.144C150.125 130.209 148.939 133.331 146.838 135.752C145.24 137.594 143.126 137.893 140.862 136.902C136.72 135.092 133.841 131.892 131.229 128.06Z" fill="#005BA2"/>
<path d="M151.279 149.599C146.915 149.599 142.551 149.599 138.186 149.599C137.616 149.599 136.634 149.907 136.643 149.006C136.643 148.201 137.598 148.35 138.218 148.35C147.01 148.35 155.803 148.35 164.598 148.35C165.191 148.35 166.155 148.124 166.142 148.997C166.128 149.871 165.155 149.594 164.566 149.599C160.139 149.608 155.706 149.599 151.279 149.599Z" fill="#005BA2"/>
<path d="M144.461 173.672C146.571 173.672 148.685 173.672 150.799 173.672C151.252 173.672 151.972 173.564 151.963 174.288C151.963 174.862 151.334 174.826 150.899 174.831C146.674 174.831 142.448 174.831 138.223 174.831C137.798 174.831 137.173 174.908 137.159 174.315C137.159 173.591 137.825 173.672 138.314 173.668C140.342 173.663 142.411 173.672 144.461 173.672Z" fill="#005BA2"/>
<path d="M151.284 142.875C149.297 142.875 147.305 142.875 145.313 142.875C144.828 142.875 144.145 143.02 144.081 142.309C144.018 141.599 144.661 141.576 145.173 141.576C149.347 141.576 153.522 141.576 157.699 141.576C158.206 141.576 158.867 141.549 158.84 142.264C158.813 142.979 158.134 142.866 157.645 142.87C155.526 142.884 153.407 142.875 151.284 142.875Z" fill="#005BA2"/>
<path d="M151.347 155.056C153.339 155.056 155.331 155.056 157.328 155.056C157.934 155.056 158.826 154.907 158.844 155.753C158.844 156.5 158.002 156.373 157.455 156.377C153.407 156.377 149.357 156.377 145.304 156.377C144.806 156.377 144.099 156.45 144.072 155.785C144.041 154.961 144.81 155.061 145.367 155.052C147.359 155.047 149.355 155.056 151.347 155.056Z" fill="#005BA2"/>
<path d="M112.428 144.838C114.487 144.838 116.547 144.838 118.607 144.838C119.028 144.838 119.635 144.762 119.653 145.386C119.671 146.01 119.087 146.001 118.648 146.006C114.401 146.006 110.155 146.006 105.909 146.006C105.433 146.006 104.731 146.074 104.772 145.345C104.804 144.784 105.433 144.838 105.868 144.838C108.054 144.834 110.241 144.838 112.428 144.838Z" fill="#005BA2"/>
<path d="M113.26 151.536L112.857 151.861L113.26 151.536Z" fill="#00CDB0"/>
<path d="M26.7105 122.729C20.8659 122.729 20.8885 122.729 20.8614 116.978C20.8342 112 20.7618 112.398 25.4881 112.416C27.222 112.416 28.9559 112.416 30.6898 112.416C32.1838 112.416 32.9534 113.018 32.9217 114.602C32.8719 116.652 32.89 118.706 32.9217 120.76C32.9217 122.118 32.3287 122.765 30.9524 122.733C29.5761 122.702 28.1093 122.729 26.7105 122.729Z" fill="#005BA2"/>
<path d="M23.9256 106.823C23.9256 106.181 23.8984 105.538 23.9256 104.896C24.0116 103.203 24.7631 102.095 26.583 101.963C28.1811 101.85 29.5483 102.778 29.7249 104.425C29.9105 106.203 29.8018 108.018 29.8109 109.819C29.8109 110.461 29.4487 110.724 28.8466 110.751C27.6197 110.751 26.3974 110.751 25.1751 110.751C24.2697 110.774 23.8713 110.425 23.912 109.507C23.9528 108.588 23.9256 107.724 23.9256 106.823Z" fill="#005BA2"/>
<path d="M145.62 113.675C144.402 113.675 143.18 113.715 141.962 113.675C140.31 113.602 139.3 112.702 139.246 111.041C139.16 108.928 139.223 106.806 139.246 104.706C139.246 103.733 139.604 102.787 140.477 102.475C141.835 101.995 141.958 101.118 141.885 99.932C141.831 98.9727 141.858 98.0043 141.885 97.045C141.94 94.6875 143.443 93.0177 145.588 92.9091C146.63 92.8775 147.644 93.246 148.422 93.9386C149.2 94.6313 149.683 95.5956 149.772 96.6332C149.87 97.9129 149.89 99.1975 149.83 100.48C149.83 101.308 149.925 101.937 150.831 102.317C151.868 102.769 152.329 103.674 152.32 104.796C152.32 106.851 152.32 108.905 152.32 110.96C152.289 112.77 151.284 113.648 149.527 113.697C148.192 113.706 146.906 113.675 145.62 113.675ZM145.801 112.227C146.829 112.227 147.861 112.181 148.884 112.227C150.279 112.304 150.89 111.729 150.84 110.313C150.781 108.643 150.79 106.973 150.84 105.308C150.876 103.95 150.337 103.267 148.925 103.29C146.87 103.321 144.814 103.29 142.759 103.29C141.224 103.29 140.495 103.982 140.654 105.552C140.704 106.059 140.654 106.575 140.654 107.091C140.69 112.869 140.011 112.195 145.801 112.222V112.227ZM148.364 99.0044C148.364 98.4297 148.395 97.855 148.364 97.2803C148.237 95.4703 147.173 94.3209 145.706 94.3707C144.239 94.4205 143.334 95.502 143.293 97.4387C143.293 97.8233 143.293 98.2034 143.293 98.5881C143.293 102.24 143.293 102.208 146.974 102.032C148.06 101.982 148.481 101.579 148.386 100.538C148.327 100.032 148.364 99.5157 148.364 99.0044Z" fill="#00CDB0"/>
<path d="M145.802 112.222C140.012 112.19 140.691 112.865 140.659 107.095C140.659 106.579 140.7 106.063 140.659 105.557C140.505 103.991 141.229 103.294 142.764 103.294C144.819 103.294 146.875 103.321 148.93 103.294C150.343 103.271 150.881 103.955 150.845 105.312C150.8 106.977 150.791 108.647 150.845 110.317C150.895 111.733 150.284 112.308 148.889 112.231C147.862 112.181 146.829 112.222 145.802 112.222Z" fill="#005BA2"/>
<path d="M148.364 99.0044C148.364 99.5157 148.327 100.032 148.364 100.538C148.459 101.593 148.038 101.982 146.951 102.032C143.271 102.199 143.271 102.24 143.271 98.5881C143.271 98.2034 143.271 97.8233 143.271 97.4387C143.311 95.502 144.176 94.4205 145.683 94.3707C147.191 94.3209 148.214 95.4658 148.341 97.2803C148.395 97.855 148.364 98.4297 148.364 99.0044Z" fill="#005BA2"/>
</svg>
