<svg width="18" height="19" viewBox="0 0 18 19" fill="none" xmlns="http://www.w3.org/2000/svg">
<path d="M13.1011 0.5V1.89963H15.5946L13.2327 4.28321C12.3884 3.64575 11.3596 3.30037 10.3017 3.29927C8.993 3.29927 7.77107 3.81713 6.84588 4.74299C6.38856 5.19478 6.02548 5.73286 5.77769 6.32603C5.52991 6.91919 5.40235 7.55565 5.40242 8.19849C5.40248 8.84132 5.53017 9.47775 5.77807 10.0709C6.02598 10.664 6.38916 11.202 6.84658 11.6537C7.45544 12.2625 8.18048 12.6999 8.9895 12.9218C9.06928 12.8609 9.15886 12.7972 9.23025 12.7258C9.52359 12.4275 9.73437 12.058 9.84191 11.6537C9.08001 11.5596 8.3716 11.213 7.82986 10.669C7.16921 10.0091 6.80249 9.13295 6.80249 8.19799C6.80249 7.26303 7.16991 6.38826 7.83126 5.72763C8.49051 5.06491 9.36672 4.6989 10.3017 4.6989C11.2367 4.6989 12.1122 5.06631 12.7722 5.72763C13.0987 6.05076 13.3578 6.43552 13.5344 6.8596C13.711 7.28368 13.8016 7.73861 13.8009 8.19799C13.8009 8.80333 13.6295 9.36668 13.3418 9.88175C13.409 10.2429 13.451 10.6222 13.451 10.9973C13.451 11.3458 13.4216 11.6901 13.3635 12.026C13.5035 11.9119 13.6281 11.7825 13.7575 11.6537C14.6827 10.7271 15.2006 9.50665 15.2006 8.19799C15.2006 7.12727 14.8479 6.10974 14.2166 5.26716L16.6003 2.90597V5.39872H18V0.5H13.1011ZM8.81454 6.27349C8.73476 6.33438 8.64518 6.39806 8.5738 6.46944C8.27146 6.77316 8.07411 7.14127 7.96213 7.54226C8.72496 7.64023 9.42131 7.97335 9.97418 8.5262C10.6355 9.18613 11.003 10.0623 11.003 10.9966C11.003 11.9308 10.6355 12.8063 9.97418 13.4669C9.31353 14.1303 8.43733 14.4963 7.50233 14.4963C6.56734 14.4963 5.69184 14.1289 5.03188 13.4676C4.70509 13.1447 4.44583 12.7599 4.26921 12.3358C4.09258 11.9117 4.00213 11.4567 4.00311 10.9973C4.00311 10.3919 4.17457 9.82856 4.46221 9.3135C4.39194 8.94576 4.3554 8.57237 4.35303 8.19799C4.35303 7.84948 4.38243 7.50517 4.44051 7.16926C4.30054 7.28333 4.17667 7.41279 4.0465 7.54226C3.12271 8.46672 2.60342 9.6886 2.60342 10.9973C2.60342 12.068 2.95614 13.0855 3.5874 13.9281L2.40746 15.1087L1.00778 13.7091L0 14.693L1.39969 16.0926L0 17.4923L1.00778 18.5L2.40746 17.1004L3.80715 18.5L4.79044 17.4923L3.39075 16.0926L4.57208 14.9127C5.41551 15.5512 6.4445 15.8965 7.50233 15.896C8.81104 15.896 10.033 15.3781 10.9582 14.4523C11.8834 13.5278 12.4012 12.3059 12.4012 10.9973C12.4012 9.6886 11.8834 8.46812 10.9575 7.54156C10.3486 6.93272 9.62356 6.49533 8.81454 6.27349Z" fill="#003762"/>
</svg>
