<svg width="31" height="31" viewBox="0 0 31 31" fill="none" xmlns="http://www.w3.org/2000/svg">
<path d="M28.1651 12.9709H27.1247V12.9173H15.4997V18.084H22.7995C21.7346 21.0916 18.8729 23.2507 15.4997 23.2507C11.2197 23.2507 7.74967 19.7806 7.74967 15.5007C7.74967 11.2207 11.2197 7.75065 15.4997 7.75065C17.4753 7.75065 19.2726 8.49594 20.6412 9.71334L24.2946 6.05986C21.9877 3.90988 18.9019 2.58398 15.4997 2.58398C8.36645 2.58398 2.58301 8.36742 2.58301 15.5007C2.58301 22.6339 8.36645 28.4173 15.4997 28.4173C22.6329 28.4173 28.4163 22.6339 28.4163 15.5007C28.4163 14.6346 28.3272 13.7892 28.1651 12.9709Z" fill="#FFC107"/>
<path d="M4.07227 9.48859L8.31604 12.6009C9.46433 9.7579 12.2453 7.75065 15.4996 7.75065C17.4752 7.75065 19.2726 8.49594 20.6411 9.71334L24.2946 6.05986C21.9877 3.90988 18.9019 2.58398 15.4996 2.58398C10.5383 2.58398 6.23581 5.38496 4.07227 9.48859Z" fill="#FF3D00"/>
<path d="M15.5 28.4176C18.8364 28.4176 21.868 27.1408 24.16 25.0644L20.1623 21.6816C18.8219 22.7009 17.184 23.2523 15.5 23.2509C12.1404 23.2509 9.28777 21.1087 8.2131 18.1191L4.00098 21.3645C6.13868 25.5475 10.48 28.4176 15.5 28.4176Z" fill="#4CAF50"/>
<path d="M28.1654 12.9696H27.125V12.916H15.5V18.0827H22.7999C22.2904 19.5141 21.3728 20.7649 20.1603 21.6806L20.1623 21.6793L24.16 25.0622C23.8771 25.3192 28.4167 21.9577 28.4167 15.4993C28.4167 14.6333 28.3275 13.7879 28.1654 12.9696Z" fill="#1976D2"/>
</svg>
