<svg width="12" height="15" viewBox="0 0 12 15" fill="none" xmlns="http://www.w3.org/2000/svg">
<path fill-rule="evenodd" clip-rule="evenodd" d="M3.69191 0C3.3859 0 3.09242 0.121562 2.87604 0.337944C2.65966 0.554326 2.53809 0.847802 2.53809 1.15381H1.38428C1.07827 1.15381 0.784794 1.27537 0.568412 1.49176C0.352031 1.70814 0.230469 2.00161 0.230469 2.30762V13.0765C0.230469 13.3825 0.352031 13.676 0.568412 13.8924C0.784794 14.1088 1.07827 14.2304 1.38428 14.2304H5.99953V13.4611H1.38428C1.28228 13.4611 1.18445 13.4206 1.11232 13.3485C1.0402 13.2764 0.999677 13.1785 0.999677 13.0765V2.30762C0.999677 2.20562 1.0402 2.1078 1.11232 2.03567C1.18445 1.96354 1.28228 1.92302 1.38428 1.92302H2.53809C2.53809 2.22903 2.65966 2.52251 2.87604 2.73889C3.09242 2.95527 3.3859 3.07683 3.69191 3.07683H6.76874C7.07475 3.07683 7.36822 2.95527 7.58461 2.73889C7.80099 2.52251 7.92255 2.22903 7.92255 1.92302H9.07636C9.17837 1.92302 9.27619 1.96354 9.34832 2.03567C9.42045 2.1078 9.46097 2.20562 9.46097 2.30762V8.07668H10.2302V2.30762C10.2302 2.00161 10.1086 1.70814 9.89223 1.49176C9.67585 1.27537 9.38237 1.15381 9.07636 1.15381H7.92255C7.92255 0.847802 7.80099 0.554326 7.58461 0.337944C7.36822 0.121562 7.07475 0 6.76874 0H3.69191ZM3.3073 1.15381C3.3073 1.05181 3.34782 0.953983 3.41995 0.881856C3.49208 0.809729 3.5899 0.769208 3.69191 0.769208H6.76874C6.87074 0.769208 6.96857 0.809729 7.04069 0.881856C7.11282 0.953983 7.15334 1.05181 7.15334 1.15381V1.92302C7.15334 2.02502 7.11282 2.12285 7.04069 2.19498C6.96857 2.2671 6.87074 2.30762 6.76874 2.30762H3.69191C3.5899 2.30762 3.49208 2.2671 3.41995 2.19498C3.34782 2.12285 3.3073 2.02502 3.3073 1.92302V1.15381ZM4.84572 5.76906V4.61525H5.61493V5.76906H6.76874V6.53827H5.61493V7.69208H4.84572V6.53827H3.69191V5.76906H4.84572ZM6.38413 9.2305C6.38413 9.12849 6.42465 9.03067 6.49678 8.95854C6.56891 8.88641 6.66673 8.84589 6.76874 8.84589H11.384C11.486 8.84589 11.5838 8.88641 11.6559 8.95854C11.7281 9.03067 11.7686 9.12849 11.7686 9.2305V11.8416C11.7686 12.2848 11.6591 12.7211 11.45 13.1118C11.2409 13.5026 10.9385 13.8357 10.5698 14.0815L9.28982 14.9353C9.22662 14.9775 9.15234 15 9.07636 15C9.00038 15 8.92611 14.9775 8.86291 14.9353L7.58294 14.0815C7.21425 13.8357 6.91192 13.5027 6.7028 13.112C6.49367 12.7213 6.38422 12.2851 6.38413 11.842V9.2305ZM7.15334 9.6151V11.8416C7.15338 12.1582 7.23158 12.4698 7.38099 12.7489C7.53041 13.028 7.74642 13.266 8.00985 13.4415L9.07636 14.1534L10.1429 13.4419C10.4063 13.2663 10.6223 13.0284 10.7717 12.7493C10.9211 12.4702 10.9993 12.1585 10.9994 11.842V9.6151H7.15334ZM8.96367 12.5792L10.5021 11.0408L9.95826 10.497L8.69176 11.7635L8.19447 11.2662L7.65063 11.81L8.41984 12.5792C8.49197 12.6513 8.58978 12.6919 8.69176 12.6919C8.79374 12.6919 8.89155 12.6513 8.96367 12.5792Z" fill="#003762"/>
</svg>
