<svg width="15" height="20" viewBox="0 0 15 20" fill="none" xmlns="http://www.w3.org/2000/svg">
<path d="M3 0.5C4.52571 0.5 5.28857 2.525 4.21714 3.70625C3.13714 4.87813 1.28571 4.04375 1.28571 2.375C1.28571 1.87772 1.46633 1.40081 1.78782 1.04917C2.10931 0.697544 2.54534 0.5 3 0.5ZM1.71429 5.1875H4.28571C4.74037 5.1875 5.17641 5.38504 5.4979 5.73667C5.81939 6.08831 6 6.56522 6 7.0625V12.2188H4.71429V19.25H1.28571V12.2188H0V7.0625C0 6.56522 0.180612 6.08831 0.502103 5.73667C0.823593 5.38504 1.25963 5.1875 1.71429 5.1875ZM15 6.125H9.85714V8H15V6.125ZM15 8.9375H12.4286V10.8125H15V8.9375ZM15 0.5H9.85714V2.375H15V0.5ZM15 3.3125H12.4286V5.1875H15V3.3125ZM15 11.75H9.85714V13.625H15V11.75ZM15 17.375H9.85714V19.25H15V17.375ZM15 14.5625H12.4286V16.4375H15" fill="#003762"/>
</svg>
