<svg width="22" height="23" viewBox="0 0 22 23" fill="none" xmlns="http://www.w3.org/2000/svg">
<path d="M20.8774 19.5246V11.7947C20.8775 11.2569 20.7677 10.7248 20.5549 10.2309C20.3421 9.73697 20.0307 9.29172 19.6398 8.92239L12.3574 2.03997C11.9906 1.69321 11.505 1.5 11.0002 1.5C10.4955 1.5 10.0099 1.69321 9.64311 2.03997L2.36066 8.92239C1.96974 9.29172 1.65834 9.73697 1.44553 10.2309C1.23273 10.7248 1.12299 11.2569 1.12305 11.7947V19.5246C1.12305 20.0485 1.33117 20.5509 1.70164 20.9214C2.07211 21.2919 2.57457 21.5 3.09848 21.5H18.902C19.4259 21.5 19.9284 21.2919 20.2988 20.9214C20.6693 20.5509 20.8774 20.0485 20.8774 19.5246Z" stroke="#003762" stroke-width="1.5" stroke-linecap="round" stroke-linejoin="round"/>
</svg>
