<svg width="15" height="20" viewBox="0 0 15 20" fill="none" xmlns="http://www.w3.org/2000/svg">
<path d="M6.66667 0.75C5.755 0.75 5 1.4295 5 2.25H0V19.5H15V2.25H10C10 1.4295 9.245 0.75 8.33333 0.75H6.66667ZM6.66667 2.25H8.33333V3.75H6.66667V2.25ZM1.66667 3.75H5V5.25H10V3.75H13.3333V18H1.66667V3.75ZM7.5 6.75C5.66667 6.75 4.16667 8.1 4.16667 9.75C4.16667 10.5848 4.56417 11.3378 5.1825 11.883C4.61527 12.2275 4.15025 12.6916 3.82794 13.2349C3.50564 13.7782 3.33584 14.3841 3.33333 15H5C5 13.749 6.11 12.75 7.5 12.75C8.89 12.75 10 13.749 10 15H11.6667C11.6642 14.3841 11.4944 13.7782 11.1721 13.2349C10.8498 12.6916 10.3847 12.2275 9.8175 11.883C10.4358 11.3378 10.8333 10.5855 10.8333 9.75C10.8333 8.1 9.33333 6.75 7.5 6.75ZM7.5 8.25C8.43083 8.25 9.16667 8.91225 9.16667 9.75C9.16667 10.5878 8.43083 11.25 7.5 11.25C6.56917 11.25 5.83333 10.5878 5.83333 9.75C5.83333 8.91225 6.56917 8.25 7.5 8.25Z" fill="#003762"/>
</svg>
