<svg width="12" height="10" viewBox="0 0 12 10" fill="none" xmlns="http://www.w3.org/2000/svg">
<path d="M11 0.5H1C0.455 0.52 0.02 0.955 0 1.5V8.5C0.02 9.045 0.455 9.48 1 9.5H11C11.545 9.48 11.98 9.045 12 8.5V1.5C11.9908 1.23771 11.8825 0.988671 11.6969 0.803093C11.5113 0.617514 11.2623 0.509203 11 0.5ZM11 8.5H1V1.5H11V8.5ZM7 7.5V6.875C7 6.045 5.33 5.625 4.5 5.625C3.67 5.625 2 6.045 2 6.875V7.5H7ZM4.5 2.5C4.16848 2.5 3.85054 2.6317 3.61612 2.86612C3.3817 3.10054 3.25 3.41848 3.25 3.75C3.25 3.91415 3.28233 4.0767 3.34515 4.22835C3.40797 4.38001 3.50004 4.51781 3.61612 4.63388C3.85054 4.8683 4.16848 5 4.5 5C4.66415 5 4.8267 4.96767 4.97835 4.90485C5.13001 4.84203 5.26781 4.74996 5.38388 4.63388C5.49996 4.51781 5.59203 4.38001 5.65485 4.22835C5.71767 4.0767 5.75 3.91415 5.75 3.75C5.75 3.58585 5.71767 3.4233 5.65485 3.27165C5.59203 3.11999 5.49996 2.98219 5.38388 2.86612C5.26781 2.75004 5.13001 2.65797 4.97835 2.59515C4.8267 2.53233 4.66415 2.5 4.5 2.5M7 2.5V3H10V2.5H7ZM7 3.5V4H10V3.5H7ZM7 4.5V5H9V4.5H7Z" fill="#003762"/>
</svg>
