<svg width="12" height="15" viewBox="0 0 12 15" fill="none" xmlns="http://www.w3.org/2000/svg">
<path d="M5.89286 0C4.33055 0.00184311 2.83275 0.623288 1.72802 1.72801C0.623294 2.83274 0.00184938 4.33054 6.2694e-06 5.89286C-0.00186492 7.16958 0.415174 8.41167 1.18715 9.42857C1.18715 9.42857 1.34786 9.64018 1.37411 9.67071L5.89286 15L10.4138 9.66804C10.4373 9.63964 10.5986 9.42857 10.5986 9.42857L10.5991 9.42696C11.3707 8.41051 11.7876 7.169 11.7857 5.89286C11.7839 4.33054 11.1624 2.83274 10.0577 1.72801C8.95298 0.623288 7.45518 0.00184311 5.89286 0ZM5.89286 8.03571C5.46905 8.03571 5.05475 7.91004 4.70236 7.67458C4.34996 7.43912 4.07531 7.10445 3.91312 6.71289C3.75093 6.32134 3.7085 5.89048 3.79118 5.47481C3.87386 5.05913 4.07795 4.67731 4.37763 4.37763C4.67732 4.07794 5.05914 3.87386 5.47481 3.79117C5.89049 3.70849 6.32134 3.75093 6.7129 3.91312C7.10445 4.0753 7.43912 4.34996 7.67458 4.70235C7.91004 5.05474 8.03572 5.46904 8.03572 5.89286C8.03501 6.46096 7.80902 7.00559 7.40731 7.4073C7.0056 7.80901 6.46097 8.03501 5.89286 8.03571Z" fill="#003762"/>
</svg>
