<svg width="264" height="245" viewBox="0 0 264 245" fill="none" xmlns="http://www.w3.org/2000/svg">
<path d="M232.447 143.521C236.924 145.307 240.401 148.598 243.926 151.674C250.204 157.145 255.406 163.544 257.652 171.799C259.99 180.399 258.948 188.633 254.299 196.316C247.984 206.757 238.67 213.782 228.207 219.56C212.159 228.414 194.806 233.362 176.963 236.669C168.831 238.148 160.619 239.146 152.37 239.659C145.035 240.139 137.726 239.853 130.411 240.047C111.284 240.549 92.5227 237.916 73.9814 233.34C63.8281 230.9 53.9452 227.44 44.4821 223.013C34.7009 218.368 25.5002 212.708 18.0246 204.669C10.8822 196.937 6.41618 188.147 7.36743 177.27C7.9371 170.747 10.5167 164.984 14.4776 159.875C21.1685 151.242 29.7996 144.999 39.3121 139.911C45.9504 136.399 52.8719 133.456 60.003 131.111C59.4064 133.771 58.3531 136.35 58.8153 139.205C58.9442 140.025 58.3531 140.489 57.4126 140.284C55.1231 139.847 55.3919 141.282 55.6659 142.722C55.7874 143.62 56.2215 144.446 56.8913 145.053C57.3911 145.48 57.8318 146.068 57.4986 146.672C56.6763 148.199 57.6168 148.577 58.7776 148.792C59.9385 149.008 61.0402 149.332 60.9274 150.951C60.8682 151.755 61.5561 152.175 62.0452 152.699C62.6973 153.342 63.2142 154.109 63.565 154.956C63.9158 155.804 64.0935 156.713 64.0874 157.63C64.1304 159.281 63.8241 162.346 67.0594 162.724C67.9891 162.832 67.8655 163.803 67.8118 164.493C67.7097 165.869 68.3492 166.36 69.6713 166.56C72.9496 167.067 74.6479 168.718 75.0455 171.745C75.1907 172.857 74.2233 173.455 73.6106 174.205C72.0467 176.11 70.069 177.756 70.3054 180.68C70.3807 181.646 70.2571 182.299 71.3803 182.73C72.7131 183.211 73.2613 184.608 73.9438 185.725C75.0509 187.538 72.7561 187.727 72.2617 188.833C73.0839 189.178 73.3849 188.552 73.7772 188.099C75.1208 186.583 76.1365 186.561 76.8782 188.406C77.5285 190.025 78.3346 190.478 79.8985 190.025C80.347 189.945 80.8088 190.042 81.1883 190.295C86.1219 193.052 91.5553 193.338 97.0102 193.532C98.7998 193.586 100.815 193.284 100.45 196.171C100.435 196.445 100.525 196.716 100.702 196.926C102.229 198.798 104.733 199.084 106.528 200.654C108.678 202.489 110.768 201.318 112.918 200.115C115.444 198.701 117.943 196.996 121.065 197.163C121.861 197.207 122.049 196.57 122.452 196.111C124.13 194.14 126.388 192.753 128.901 192.151C131.551 192.895 137.226 192.248 138.843 191.072C140.085 190.165 140.902 189.048 140.687 187.457C140.472 185.865 141.251 185.299 142.605 184.759C145.83 183.432 148.952 182.601 152.473 183.637C154.493 184.236 155.509 183.227 155.869 180.912C156.1 179.407 155.762 177.853 156.251 176.364C156.366 176.111 156.546 175.894 156.773 175.734C156.999 175.575 157.265 175.479 157.541 175.457C158.669 175.5 159.819 175.84 160.851 174.918C160.977 174.783 161.128 174.676 161.296 174.601C161.463 174.527 161.644 174.487 161.828 174.484C162.011 174.481 162.193 174.515 162.363 174.584C162.534 174.653 162.688 174.755 162.818 174.885C164.618 176.963 167.193 176.029 169.359 176.633C170.433 176.936 170.896 176.369 170.53 175.047C169.337 170.763 169.842 170.056 174.013 169.155C175.297 168.875 176.635 168.616 177.775 167.736C177.49 166.592 176.017 165.729 176.958 164.332C177.104 164.121 177.286 163.938 177.495 163.792C179.141 163.264 180.713 162.529 182.176 161.607C182.393 161.474 182.621 161.362 182.859 161.272C184.557 161.224 186.271 161.591 187.545 159.756C188.163 158.871 189.378 159.103 189.808 160.387C190.345 161.968 191.361 161.504 192.382 161.067C193.51 160.587 194.161 160.069 193.226 158.677C192.651 157.825 195.015 154.695 196.504 154.188C197.848 153.729 199.223 153.416 200.454 152.613C200.63 152.467 200.837 152.364 201.059 152.313C201.281 152.261 201.512 152.261 201.734 152.313C201.956 152.365 202.163 152.468 202.339 152.613C202.515 152.759 202.655 152.943 202.749 153.152C203.286 154.123 202.69 154.647 201.862 155.003C201.669 155.066 201.49 155.167 201.337 155.301C201.184 155.435 201.059 155.598 200.971 155.782C200.882 155.965 200.831 156.164 200.82 156.368C200.81 156.572 200.841 156.775 200.911 156.967C201.69 159.724 201.255 162.443 200.938 165.206C200.621 167.968 200.997 168.324 203.894 168.303C204.428 168.269 204.962 168.359 205.456 168.565C205.95 168.772 206.39 169.09 206.742 169.495C208.198 171.491 208.924 173.812 209.837 176.083C209.687 179.649 208.639 183.184 209.596 186.793C209.972 188.201 209.133 189.55 209.058 190.959C208.343 192.334 206.989 192.933 205.769 193.694C203.845 195.313 203.619 197.428 204.608 200.708C205.103 202.354 205.828 203.142 207.537 202.866C207.78 202.914 208.014 202.999 208.231 203.12C208.603 203.724 209.12 204.225 209.735 204.577C210.35 204.928 211.043 205.12 211.751 205.133C211.979 205.231 212.185 205.374 212.358 205.553C212.772 206.74 213.191 207.415 214.809 206.897C216.776 206.266 218.823 207.14 220.769 207.652C222.112 208.003 223.354 208.192 224.654 207.652C225.143 207.436 225.729 207.156 226.197 207.318C230.598 208.775 232.952 205.445 235.79 203.239C236.746 202.251 237.359 200.929 238.617 200.228C240.831 198.48 240.342 195.512 237.542 193.651C236.639 193.149 235.849 192.466 235.22 191.644C234.841 191.024 234.277 190.54 233.608 190.262C232.114 189.626 231.695 188.779 232.882 187.419C233.554 186.647 233.097 185.719 233.033 184.84C232.845 183.148 232.86 181.44 233.076 179.752C233.275 178.592 233.001 177.847 232.001 177.292C231.05 176.132 231.781 175.231 232.447 174.313C233.554 172.813 233.049 171.022 233.183 169.398C233.533 165.119 233.124 160.814 233.264 156.519C233.264 155.904 232.812 155.58 232.452 155.192C232.065 154.75 231.837 154.19 231.807 153.602C231.776 153.014 231.945 152.433 232.286 151.954C233.78 150.4 233.361 148.593 232.974 146.785C232.823 145.679 231.979 144.73 232.447 143.521Z" fill="#F4F4F4"/>
<path d="M177.711 10.7481C177.904 11.1581 178.093 11.5628 178.281 11.9729C178.662 20.8053 178.334 29.6486 178.458 38.4811C178.482 38.7285 178.456 38.9783 178.38 39.2149C178.304 39.4515 178.18 39.6698 178.016 39.8562C177.852 40.0425 177.652 40.1929 177.427 40.298C177.203 40.403 176.959 40.4604 176.711 40.4666C175.405 40.6069 175.475 39.4469 175.352 38.616C175.147 37.2995 175.486 35.9182 174.943 34.6557C173.949 32.8482 172.794 33.9974 171.799 34.5639C166.339 37.634 160.922 40.785 155.505 43.9306C143.353 50.9825 131.229 58.083 119.024 65.0486C116.52 66.4731 115.525 68.2536 115.531 71.0916C115.581 104.846 115.592 138.6 115.563 172.355C115.563 172.808 115.563 173.256 115.59 173.704C115.66 175.349 116.337 175.695 117.836 174.961C120.072 173.882 121.958 172.058 124.533 171.67C126.102 171.842 126.145 173.045 126.252 174.222C126.376 175.9 126.113 177.594 126.462 179.256C127.488 180.653 128.563 179.795 129.498 179.213C132.46 177.367 135.577 175.808 138.565 174.017C139.452 173.477 140.279 172.652 141.488 172.97C142.214 173.612 142.225 175.214 143.751 174.772C145.568 174.232 146.782 172.965 147.739 171.378C148.206 170.612 147.943 169.808 147.981 169.015C149.926 166.954 152.538 165.902 154.897 164.488C161.416 160.576 168.08 156.907 174.61 153.006C175.214 152.622 175.855 152.298 176.523 152.041C177.835 151.582 178.635 152.041 178.786 153.427C178.927 155.127 178.94 156.835 178.823 158.537C178.447 160.976 176.894 162.53 174.89 163.695C157.154 173.99 139.407 184.265 121.647 194.52C119.943 195.507 118.277 196.57 116.563 197.541C115.37 198.216 114.139 198.75 112.747 198.054C111.355 197.358 111.049 196.036 110.844 194.682C110.698 193.343 110.652 191.996 110.705 190.651V57.101C110.705 54.9428 110.635 52.7846 111.28 50.7019C112.077 48.2931 113.767 46.2842 115.998 45.0906C135.27 33.8895 154.573 22.7387 173.906 11.6383C175.094 10.9531 176.276 10.365 177.711 10.7481Z" fill="#003762"/>
<path d="M61.6365 130.572C62.749 129.18 63.7486 127.642 65.5221 126.995C66.307 126.661 67.1715 126.564 68.0104 126.716C68.8492 126.867 69.626 127.26 70.2461 127.847C72.2507 129.331 72.7827 131.689 73.7071 133.782C75.1474 137.063 75.8568 137.532 79.4307 137.219C81.5428 137.392 83.628 136.647 85.7401 136.998C86.3527 136.998 86.6806 136.156 87.39 136.458C90.9585 139.313 93.3017 142.723 93.1512 147.595C93.0867 150.066 94.7312 151.372 97.2464 151.625C100.347 151.938 103.008 152.958 103.62 156.578C103.884 163.495 104.05 170.412 103.55 177.324C103.067 178.608 102.175 178.511 101.164 178.031C96.4635 175.857 92.1154 172.985 88.266 169.511C87.5057 168.744 87.0297 167.739 86.917 166.663C86.0303 161.844 85.1005 157.032 85.1543 153.805C85.3247 157.759 85.8645 161.688 86.7666 165.54C86.9063 166.166 86.9385 166.878 86.2291 167.159C85.5197 167.44 85.1543 166.738 84.6975 166.333C80.2864 162.13 76.5517 157.265 73.6265 151.911C71.9175 148.879 70.2568 145.836 69.7301 144.109C73.1374 152.203 78.329 161.035 86.4925 167.909C89.0184 170.04 91.4475 172.274 94.1884 174.13C95.5159 175.02 95.0644 175.673 94.0057 176.288C91.856 177.54 89.4322 177.556 87.0568 177.783C86.7021 177.81 87.1159 178.322 87.003 177.966C86.96 177.826 87.003 177.745 87.1535 177.74C89.8406 177.664 92.5278 177.378 94.8656 175.889C95.3331 175.598 95.9028 175.349 96.3865 175.635C98.7243 177.054 101.519 177.637 103.534 179.633C104.035 183.252 104.017 186.924 103.481 190.538C102.406 192.081 100.643 191.984 99.1166 192.102C93.7493 192.514 88.3535 191.873 83.2303 190.214C79.4199 189 76.4748 186.545 74.051 183.475C71.6272 180.405 71.8637 177.54 74.4057 174.723C74.5885 174.518 74.7819 174.335 74.9432 174.135C77.6679 171.206 77.6572 170.067 74.7658 167.159C72.4871 164.871 70.3052 162.513 68.2307 160.026C62.7651 153.465 60.5133 145.717 59.9382 137.413C59.7609 135.104 59.8146 132.557 61.6365 130.572Z" fill="#00CDB0"/>
<path d="M102.95 191.001V179.131C102.812 178.994 102.731 178.809 102.725 178.614C102.719 178.42 102.788 178.23 102.917 178.085L102.95 155.963C102.196 153.466 101.935 150.845 102.181 148.247C102.014 140.613 101.644 132.946 102.224 125.354C103.025 114.563 102.428 103.842 102.718 93.0943C102.682 92.6468 102.76 92.1974 102.944 91.7886C102.98 77.3285 103.014 62.8685 103.046 48.4085C103.046 46.7899 103.046 45.1712 104.121 43.8062C107.109 44.2917 109.383 46.1586 111.742 47.8366C111.894 47.9321 112.026 48.0578 112.128 48.206C112.23 48.3542 112.301 48.5217 112.337 48.6984C112.373 48.8752 112.372 49.0573 112.336 49.2338C112.299 49.4103 112.227 49.5775 112.123 49.725C111.29 53.9875 111.586 58.3039 111.586 62.5934C111.586 106.053 111.586 149.513 111.586 192.976C111.586 194.919 111.344 196.98 113.687 197.935C113.629 198.214 113.489 198.469 113.287 198.669C113.084 198.868 112.827 199.004 112.548 199.057C108.356 198.927 105.062 197.298 103.122 193.397C102.853 192.62 102.353 191.854 102.95 191.001Z" fill="#005BA2"/>
<path d="M102.949 191.002L103.486 193.16C103.575 193.254 103.642 193.365 103.685 193.487C103.728 193.609 103.744 193.738 103.733 193.867C103.776 194.946 101.347 195.82 103.196 196.942C105.281 198.226 107.114 200.53 110.021 199.64C110.969 199.435 111.865 199.039 112.655 198.474L113.73 197.87C116.272 197.412 118.212 195.712 120.351 194.498C138.424 184.079 156.444 173.579 174.512 163.155C176.42 162.076 177.737 160.663 178.274 158.526C178.699 157.862 178.274 157.053 178.629 156.368C178.801 156.298 179.054 156.233 179.113 156.341C180.779 159.303 182.665 158.003 184.552 156.632C185.132 156.395 185.693 156.112 186.228 155.785C189.087 153.848 192.436 152.548 194.236 149.267C194.8 148.355 195.315 147.413 195.778 146.445C196.359 145.07 196.278 143.958 194.542 143.613C192.296 143.165 191.957 141.735 192.511 139.787C192.664 139.086 192.899 138.405 193.21 137.759C194.786 135.059 195.81 132.071 196.225 128.969C198.514 128.025 199.223 129.654 199.831 131.289C200.099 132.023 200.019 132.849 200.481 133.577C202.201 136.275 201.696 137.607 198.654 138.589C198.256 138.719 197.762 138.546 197.412 139C198.6 139.102 199.562 139.744 199.487 140.872C199.245 144.001 201.4 145.469 203.491 147.104C202.674 144.719 204.313 141.87 201.841 139.782C201.153 139.199 201.556 138.244 202.201 137.624C202.846 137.003 203.512 137.311 204.125 137.775C204.737 138.239 204.99 138.908 205.511 139.431C206.049 136.388 205.64 133 208.639 130.879C209.048 130.448 209.176 129.455 210.144 130.156C211.117 132.39 210.144 134.602 209.913 136.766C209.069 144.066 208.15 151.334 207.043 158.618C206.811 160.312 207.076 162.037 207.806 163.582C210.966 170.898 214.157 178.202 217.378 185.493C217.888 186.642 218.452 187.764 218.372 189.075C218.028 190.527 216.722 190.57 215.647 190.861C213.471 191.365 211.373 192.165 209.413 193.241C205.495 195.561 205.35 199.019 209.176 201.415C213.648 204.21 218.657 205.1 223.821 204.652C227.444 204.329 231.104 203.865 234.307 201.787C238.477 199.09 238.396 195.609 234.054 193.095C232.799 192.41 231.477 191.855 230.109 191.439C228.841 191.018 227.546 190.565 227.062 189.081C226.857 188.114 226.87 187.113 227.1 186.151C228.475 179.304 229.308 172.371 230.356 165.475C230.636 163.657 230.7 161.85 229.857 160.22C228.621 157.825 228.653 155.391 229.319 152.92C229.986 150.449 229.69 147.891 231.168 145.712C233.199 145.339 233.549 146.85 233.748 148.237C233.929 149.578 233.662 150.942 232.99 152.116C232.801 152.286 232.65 152.494 232.547 152.726C232.444 152.959 232.391 153.21 232.391 153.465C232.391 153.719 232.444 153.971 232.547 154.203C232.65 154.436 232.801 154.644 232.99 154.814C233.474 155.116 233.898 155.537 233.785 156.109C233.006 159.977 234.264 163.841 233.785 167.704C233.495 170.056 233.549 172.446 232.984 174.772C232.447 175.398 231.539 175.937 232.447 176.93C232.571 177.065 232.791 177.189 232.796 177.329C232.974 180.734 233.56 184.219 232.565 187.5C232.141 188.892 231.92 189.34 233.382 189.744C233.863 189.861 234.315 190.077 234.709 190.378C235.103 190.679 235.431 191.058 235.672 191.493L237.821 193.111C240.654 195.464 241.073 198.388 238.896 200.665C237.665 201.205 237.563 202.926 236.209 203.363C234.086 205.203 231.55 206.498 228.819 207.14C223.88 208.397 219.097 207.312 214.255 206.897C213.282 206.811 212.804 205.92 212.036 205.505C210.563 205.176 208.962 205.062 208.274 203.347H207.736C203.485 202.321 202.303 196.667 205.586 193.095L208.811 190.937C210.832 189.318 209.617 186.264 211.745 184.543C212.638 183.826 211.541 183.21 210.638 183.205C208.596 183.205 208.381 182.228 209.262 180.637C210.144 179.045 209.477 177.443 209.348 175.84C208.456 173.862 207.561 171.883 206.661 169.905C205.748 168.114 203.437 168.286 202.265 166.668C201.319 165.319 200.562 164.261 201.287 162.589C202.066 160.808 201.427 159.114 200.777 157.425C200.18 155.882 200.196 154.598 202.426 155.159C203.904 155.531 203.469 154.398 203.286 153.972C202.577 152.353 201.174 151.156 200.524 149.456C200.282 148.819 199.643 149.024 199.261 149.559C198.842 150.143 198.303 150.631 197.681 150.988C198.562 150.638 199.213 149.996 199.831 150.783C200.018 151.039 200.126 151.343 200.143 151.66C200.159 151.976 200.082 152.291 199.922 152.564C199.503 153.514 198.611 153.735 197.729 153.87C196.149 154.107 194.999 154.242 194.43 156.411C194.086 157.717 192.172 159.47 189.899 159.292C188.518 159.184 187.276 159.411 186.486 160.83C186.396 161.015 186.267 161.177 186.108 161.306C185.948 161.435 185.762 161.527 185.563 161.576C185.364 161.625 185.157 161.63 184.956 161.589C184.755 161.549 184.566 161.465 184.401 161.342C183.6 160.868 183.068 161.467 182.482 161.839C180.972 162.778 179.193 163.123 177.646 163.997C176.689 164.445 176.7 165.357 176.463 166.225C175.813 168.621 174.545 169.398 172.239 168.767C171.417 168.54 171.132 168.691 170.853 169.403C170.533 170.147 170.03 170.797 169.391 171.292C167.886 172.517 167.94 173.585 169.541 174.664C170.079 175.042 170.965 175.5 170.562 176.283C170.159 177.065 169.235 176.779 168.413 176.617C166.43 176.218 164.339 176.239 162.797 174.551C162.682 174.438 162.545 174.351 162.395 174.296C162.244 174.241 162.083 174.22 161.923 174.233C161.764 174.246 161.609 174.294 161.469 174.373C161.329 174.452 161.208 174.561 161.114 174.691C160.206 175.77 158.965 175.77 157.756 175.851C157.543 175.823 157.327 175.86 157.136 175.956C156.944 176.052 156.786 176.203 156.681 176.391C155.799 177.632 154.929 178.797 155.649 180.534C155.741 180.726 155.774 180.941 155.745 181.152C155.716 181.362 155.625 181.56 155.484 181.719C155.344 181.878 155.159 181.992 154.954 182.046C154.749 182.1 154.533 182.092 154.332 182.023C150.323 180.48 147.389 183.426 143.992 184.349C142.02 184.888 140.031 185.477 140.499 188.379C140.649 189.318 139.789 189.998 138.639 189.545C138.36 189.303 138.062 189.084 137.747 188.892C137.994 189.146 138.349 189.243 138.591 189.512C139.247 190.592 138.881 191.433 137.962 192.038C137.75 192.205 137.507 192.329 137.247 192.402C136.987 192.475 136.715 192.496 136.447 192.463C136.179 192.431 135.919 192.345 135.684 192.212C135.449 192.079 135.242 191.9 135.076 191.687C134.759 191.347 134.265 190.511 133.888 191.147C132.588 193.43 130.605 192.636 128.745 192.55C126.671 194.255 123.231 194.32 122.565 197.751C122.522 197.978 121.92 198.34 121.743 198.264C118.185 196.678 115.75 199.419 113.144 200.773C109.382 202.737 108.355 202.996 105.034 200.271C104.228 199.607 103.266 199.446 102.384 199.036C100.337 198.081 98.8482 196.877 100.004 194.088C94.538 194.579 89.4755 193.635 84.4183 192.583C83.4241 192.372 82.4513 192.162 81.7688 191.439C80.8175 190.446 79.8878 190.225 78.6893 190.958C77.4909 191.692 76.7653 191.261 76.674 189.928C76.6041 188.849 76.459 187.77 75.3895 187.505C74.089 187.171 74.6963 188.622 74.2341 189.151C73.1592 190.414 72.0199 189.55 70.5849 189.421C71.0632 188.833 71.5577 188.503 71.5684 188.158C71.6114 186.955 75.1423 187.673 73.0625 185.595C72.2671 184.797 72.3531 182.806 70.3753 183.281C69.7466 183.432 69.1661 182.779 69.2145 182.072C69.4026 179.256 70.0421 176.596 72.251 174.588C72.6487 174.227 73.1861 173.892 73.3258 173.434C73.5515 172.792 76.2172 172.08 73.3903 171.351C74.0513 166.765 70.6494 167.574 67.9784 166.965C66.0652 166.522 67.3389 164.542 67.2475 163.026C65.1784 164.067 64.1734 163.409 64.2809 161.191C64.3049 160.789 64.2386 160.386 64.087 160.012C63.9354 159.639 63.7023 159.304 63.4049 159.033C62.9427 158.585 62.3784 157.895 62.8675 157.414C64.8882 155.44 62.5235 154.522 61.7926 153.449C61.0617 152.375 59.3474 152.094 60.218 150.125C60.5404 149.391 59.4925 149.796 59.0625 149.677C58.0414 149.391 57.16 148.701 55.9186 148.841C56.2303 147.325 58.036 146.03 55.5424 144.74C54.6449 144.276 54.3117 141.972 54.6771 140.5C55.2414 138.212 56.8268 139.469 58.3047 139.911C57.7297 136.674 57.7028 133.642 59.9439 131.09L61.5562 130.55C59.1163 141.573 62.1796 151.188 68.9619 159.875C71.1761 162.707 73.831 165.108 76.3032 167.698C78.4529 169.927 78.3454 171.783 76.0989 173.925C71.8855 177.95 71.9231 180.567 75.9377 184.791C80.9197 190.03 87.4333 190.851 94.0597 191.439C97.0962 191.746 100.014 191.19 102.949 191.002Z" fill="#F4F4F4"/>
<path d="M231.496 145.706C230.926 148.523 230.346 151.334 229.798 154.155C229.438 156.017 229.346 157.776 230.427 159.551C231.507 161.326 231.469 163.468 231.136 165.578C229.9 173.461 228.739 181.354 227.546 189.248C227.51 189.457 227.43 189.656 227.31 189.832C227.191 190.007 227.034 190.154 226.853 190.262C226.073 190.635 225.079 190.613 224.552 191.46C223.359 193.376 221.645 193.548 219.689 192.965C218.238 192.135 218.189 190.667 218.012 189.253C214.82 181.84 211.858 174.308 208.338 167.051C206.339 162.918 206.108 158.957 206.764 154.566C207.984 146.408 208.865 138.201 209.886 130.016C209.101 128.705 209.72 127.475 210.101 126.239C210.338 125.849 210.709 125.56 211.144 125.428C211.579 125.295 212.048 125.329 212.46 125.521C217.351 127.485 221.887 126.536 226.245 123.903C226.563 123.734 226.919 123.653 227.277 123.665C227.621 123.707 227.951 123.826 228.243 124.013C228.535 124.199 228.782 124.449 228.965 124.744C229.873 126.288 230.953 127.75 231.335 129.557C231.872 132.892 232.539 136.21 232.383 139.615C231.63 141.589 232.952 143.855 231.496 145.706Z" fill="#006254"/>
<path d="M102.934 148.291V155.931C102.025 152.985 99.4566 152.37 97.022 152.337C93.2171 152.283 92.4324 150.066 92.3034 146.882C92.1583 143.348 91.4006 140.343 88.1276 138.498C87.3161 138.039 87.5902 137.009 86.9292 136.48C85.2793 133.469 85.4351 130.086 85.3169 126.86C85.0858 120.924 84.9998 114.919 85.8543 108.973C85.72 108.612 85.247 108.973 85.5856 108.865C85.677 108.833 85.7468 108.909 85.7307 109.087C85.3706 113.986 85.1395 118.885 85.1933 123.806C85.2355 127.645 85.5751 131.474 86.209 135.26C86.3595 136.167 86.8163 137.16 86.2735 138.12C85.6476 137.789 84.96 137.591 84.2542 137.54C83.5484 137.489 82.8397 137.585 82.1729 137.823C81.1733 138.131 80.2973 138.239 79.4428 137.553C76.9975 135.018 76.8256 131.618 76.7933 128.527C76.7557 124.75 76.5676 120.887 77.1749 117.099C77.9757 113.899 78.4325 110.597 80.1845 107.705C81.8666 104.921 83.9088 102.666 87.429 102.466C91.062 102.256 93.1311 103.61 94.3242 107.096C95.6677 111.034 95.7376 115.189 96.0278 119.268C96.8716 122.964 96.8931 126.725 96.6996 130.464C96.3771 137.294 97.5971 143.521 102.934 148.291Z" fill="#006254"/>
<path d="M112.133 49.693C111.596 47.1733 109.059 47.0762 107.495 45.7975C106.426 45.039 105.301 44.3627 104.131 43.7741C104.598 42.3983 105.743 41.6753 106.888 41.0008C126.436 29.681 145.982 18.3648 165.526 7.05218C170.143 4.35442 175.431 6.05401 177.705 10.7481C172.991 12.4045 168.939 15.3127 164.645 17.7623C153.897 23.8772 143.162 30.0407 132.442 36.2528C126.735 39.5494 121.065 42.9054 115.363 46.2075C113.934 47.0384 113.181 48.5006 112.133 49.693Z" fill="#004174"/>
<path d="M210.386 90.7419C209.489 88.0172 210.923 84.6989 214.024 83.1882C219.667 80.4311 227.229 81.4562 228.707 89.733C229.835 96.0727 230.819 102.418 232.619 108.617C232.861 113.511 231.894 114.714 226.208 116.597C218.087 117.757 211.826 114.099 214.653 103.146C214.653 102.396 214.707 101.652 214.728 100.902C214.073 98.8514 214.363 97.0871 216.19 95.7274C216.83 95.2526 217.571 94.6483 217.174 93.7526C216.776 92.857 215.948 93.3695 215.287 93.4397C214.277 93.5368 213.879 92.83 213.546 92.0746C213.039 90.798 212.854 89.4152 213.009 88.0496C211.923 88.8535 212.074 90.7041 210.386 90.7419Z" fill="#36474F"/>
<path d="M187.793 109.529C189.035 112.329 191.217 114.493 192.813 117.05C193.716 118.496 194.468 118.167 195.527 117.185C199.633 113.371 203.814 109.631 207.941 105.855C209.489 104.43 211.096 103.54 213.187 104.684C214.536 108.331 212.547 114.148 209.36 115.885C207.909 115.826 206.867 116.57 205.829 117.504C202.783 120.275 199.597 122.888 196.285 125.332C192.99 127.76 191.378 127.41 189.443 123.897C188.841 122.818 188.132 121.739 187.551 120.66C187.143 119.757 186.599 118.921 185.939 118.183C183.789 113.899 181.871 109.491 177.786 106.513C175.943 105.169 174.933 103.276 176.491 100.955C177.33 99.6983 176.841 98.5922 176.094 97.5077C175.819 96.6175 175.234 95.5923 176.212 94.9017C177.287 94.1463 178.136 94.9394 178.899 95.684C179.587 96.6013 180.302 97.5131 181.011 98.425C181.64 99.2289 182.215 99.7469 183.134 98.7649C183.617 98.2253 184.252 97.7235 185.004 98.1714C185.918 98.7109 185.821 99.7091 185.638 100.578C185.165 102.817 185.02 104.991 186.477 106.966C186.976 107.775 187.32 108.687 187.793 109.529Z" fill="#E8A7A7"/>
<path d="M187.793 109.529C187.371 109.327 187.003 109.024 186.723 108.649C186.442 108.273 186.256 107.835 186.18 107.371C184.745 103.346 185.643 99.1751 185.584 95.1015C185.385 77.4204 185.498 59.7338 185.498 42.0473C185.498 41.3297 185.498 40.6121 185.498 39.8891C185.498 38.2704 184.794 37.9791 183.488 38.7452C180.634 40.4232 177.732 42.0149 174.889 43.6983C159.637 52.7035 144.207 61.4226 128.961 70.4386C128.505 70.7264 128.011 70.948 127.493 71.0968C127.067 71.184 126.624 71.1131 126.247 70.8972C125.252 68.739 127.074 68.0645 128.332 67.2984C132.975 64.4549 137.742 61.8273 142.45 59.0972C152.328 53.3671 162.168 47.5615 172.121 41.961C174.024 40.8819 175.104 39.5923 174.884 37.283C174.776 36.2039 174.534 34.9198 175.625 34.0457C176.367 36.0097 175.475 38.1301 176.163 40.1211C178.044 39.8297 178.312 38.6211 178.312 37.0025C178.269 28.661 178.312 20.3195 178.312 11.978C179.065 12.933 178.742 14.0553 178.742 15.102C178.775 22.8176 178.742 30.5332 178.742 38.4755C180.892 37.9089 182.429 36.5708 184.187 35.659C186.6 34.4018 187.879 35.0439 187.879 37.6338C187.864 61.6007 187.836 85.5658 187.793 109.529Z" fill="#00CDB0"/>
<path d="M208.833 115.523C212.461 113.829 212.058 110.079 213.058 107.074C213.3 106.335 213.154 105.455 213.187 104.662C214.337 104.781 214.014 103.491 214.654 103.125C214.654 104.808 214.654 106.497 214.718 108.18C214.939 113.139 217.405 115.701 222.296 116.036C223.704 116.128 225.128 115.971 226.542 115.933C227.079 115.826 227.203 116.133 227.219 116.565C226.735 117.412 226.681 118.54 225.607 118.987C224.467 119.192 223.661 120.158 222.516 120.363C223.629 120.228 224.413 119.257 225.547 119.16C226.359 120.725 227.724 122.041 227.633 124.016C226.128 124.771 224.639 125.565 223.108 126.266C219.759 127.798 216.363 127.663 212.956 126.428C212.133 126.131 211.343 125.57 210.462 126.309C208.968 122.925 208.406 119.2 208.833 115.523Z" fill="#59DFCC"/>
<path d="M102.934 148.291C97.6565 145.809 96.4849 140.899 96.1409 135.849C95.7808 130.345 96.0549 124.799 96.0549 119.268C96.5171 121.081 96.8879 122.446 99.5643 122.101C101.886 121.804 102.536 121.297 102.499 118.971C102.359 110.835 102.434 102.693 102.461 94.5566C102.461 93.6124 102.117 92.5711 102.945 91.7563C102.988 101.085 103.063 110.419 103.058 119.754C103.058 129.266 102.977 138.778 102.934 148.291Z" fill="#F3F3F4"/>
<path d="M226.998 116.543L226.541 115.928C229.981 114.66 232.893 112.95 232.619 108.59C232.974 112.723 234.387 116.581 235.742 120.46C236.161 121.642 236.279 122.743 235.602 123.806C234.339 125.845 233.275 128.041 231.346 129.59C229.921 128.376 229.513 126.563 228.658 125.02C229.518 121.906 227.283 119.419 226.998 116.543Z" fill="#E38F8F"/>
<path d="M77.2004 117.083C76.8564 124.022 77.2434 130.879 79.4683 137.537C76.7812 138.789 75.1689 138.32 73.8361 135.654C72.5516 133.102 71.4338 130.459 70.2461 127.852C71.8906 127.459 73.5351 127.086 75.1689 126.665C76.4534 126.336 76.5985 125.376 76.6845 124.189C76.8511 121.836 75.9966 119.387 77.2004 117.083Z" fill="#F1F5F4"/>
<path d="M210.387 90.7421C211.634 89.6252 211.564 87.5048 213.611 86.6577C213.815 88.4814 213.488 90.2781 214.1 91.9345C214.353 92.6144 214.434 93.4345 215.498 92.6306C216.401 91.9507 217.368 91.9615 217.997 93.0622C218.625 94.1629 218.233 95.4039 217.4 95.6574C214.536 96.5153 215.32 99.0081 214.713 100.88C212.192 101.058 211.381 99.8012 210.736 97.384C210.134 95.0801 210.618 92.9381 210.387 90.7421Z" fill="#E4A7A7"/>
<path d="M231.496 145.706C231.797 143.685 232.096 141.661 232.394 139.636C232.394 140.931 232.431 142.226 232.447 143.521C233.522 145.517 234.253 147.584 234.06 149.909C233.99 150.848 233.952 151.706 232.985 152.154C233.044 149.877 234.597 147.249 231.496 145.706Z" fill="#F4F4F4"/>
<path d="M39.5167 166.824C41 167.256 42.4457 167.774 44.1224 167.563C44.9554 167.455 45.122 168.745 44.8211 169.533C44.3535 170.752 44.6921 171.804 45.6917 172.311C46.8794 172.916 47.0299 171.475 47.5458 170.876C48.8894 169.322 50.98 169.08 52.6299 168.61C55.4836 167.801 55.6825 170.855 56.1662 172.662C57.5771 177.665 57.2666 182.999 55.2848 187.802C54.9462 188.628 54.7796 189.361 54.0057 190.009C52.2859 191.455 52.7642 193.289 54.8387 194.282C56.451 195.059 56.5424 196.289 55.6664 197.827C54.9462 199.089 54.4518 200.395 52.8879 198.685C52.431 198.183 51.813 197.848 51.2756 198.458C49.0453 200.865 45.9604 200.077 43.2518 200.66C42.3973 200.843 41.3117 200.552 40.8119 201.426C39.9251 202.98 39.0223 204.15 36.9478 203.498C36.5178 203.357 36.1685 203.902 36.1846 204.614C36.2223 206.454 34.8518 207.28 33.0944 207.48C30.5524 207.776 28.2576 207.118 25.8284 206.654C24.3183 206.363 23.9367 205.818 24.3021 204.28C25.1754 201.033 24.8331 197.578 23.3401 194.568C22.6312 193.132 22.2419 191.558 22.1992 189.955C22.1566 188.353 22.4615 186.76 23.0929 185.288C23.9904 183.178 25.9789 183.264 27.6073 183C29.5635 182.682 30.3858 181.921 30.5094 179.935C30.6821 177.971 31.2064 176.053 32.0572 174.275C32.6484 172.964 31.4177 171.578 32.9063 170.029C34.8411 168.006 37.2004 167.725 39.5167 166.824Z" fill="#F4F4F4"/>
<path d="M182.483 161.866C182.575 161.709 182.661 161.429 182.763 161.423C185.627 161.294 187.567 158.801 190.47 158.537C192.205 158.375 194.119 157.684 194.119 155.1C194.119 153.897 195.118 153.195 196.403 153.508C197.381 153.751 198.155 153.298 198.945 152.969C199.097 152.91 199.235 152.82 199.35 152.704C199.465 152.589 199.556 152.451 199.615 152.298C199.674 152.146 199.701 151.983 199.694 151.82C199.687 151.656 199.646 151.496 199.574 151.35C199.085 150.384 198.531 151.172 198.139 151.528C197.537 152.067 196.72 152.483 196.311 151.776C195.774 150.848 196.849 150.697 197.472 150.47C197.971 150.259 198.378 149.876 198.622 149.391C199.047 148.765 199.106 147.454 200.004 147.708C200.404 147.891 200.755 148.168 201.028 148.515C201.3 148.862 201.485 149.27 201.567 149.704C201.766 152.186 205.179 153.481 203.97 156.395C203.255 156.896 203.013 156.19 202.642 155.909C202.271 155.629 201.707 155.208 201.197 155.558C200.498 156.033 200.89 156.67 201.159 157.231C202.159 159.292 202.589 161.154 201.696 163.625C200.933 165.691 203.491 166.954 205.012 168.135C205.7 168.675 206.657 168.794 206.678 169.916C205.603 169.074 204.443 168.475 202.981 169.074C200.982 169.894 200.358 168.68 200.294 167.013C200.23 165.854 200.304 164.691 200.514 163.549C200.901 161.488 201.051 159.476 200.315 157.463C199.858 156.147 199.88 154.976 201.39 154.35C201.863 154.156 202.895 154.452 202.384 153.352C201.965 152.44 201.309 152.65 200.622 153.12C198.251 154.738 194.678 154.657 193.721 158.353C193.614 159.071 195.822 158.893 195.016 160.091C194.086 161.493 192.41 162.195 190.69 162.324C189.481 162.411 188.922 161.823 189.266 160.447C189.448 159.724 188.417 159.503 188.239 159.875C186.928 162.567 184.644 161.968 182.483 161.866Z" fill="#F4F4F4"/>
<path d="M138.435 189.383C139.155 189.383 140.128 189.345 139.977 188.39C139.478 185.153 141.912 184.246 144.03 183.755C146.486 183.183 148.232 181.209 150.801 180.939C151.846 180.819 152.902 181.006 153.843 181.478C154.8 181.921 155.853 181.532 155.117 180.566C153.209 178.052 155.219 177.442 156.697 176.455C156.643 178.149 156.793 179.876 156.492 181.521C155.955 184.419 154.638 185.471 152.032 184.392C148.238 182.827 145.217 184.931 141.896 185.703C141.036 185.903 141.283 186.534 141.358 187.187C141.708 190.85 138.671 193.516 135.017 192.804C134.281 192.663 133.566 192.555 132.964 192.998C131.438 194.125 130.121 193.381 128.777 192.636C128.92 192.406 129.138 192.233 129.393 192.145C129.649 192.058 129.927 192.062 130.18 192.156C131.825 192.696 132.932 192.474 133.19 190.494C133.225 190.23 133.352 189.986 133.549 189.806C133.745 189.627 133.999 189.523 134.264 189.512C134.374 189.494 134.486 189.499 134.593 189.528C134.7 189.557 134.8 189.609 134.885 189.68C134.97 189.751 135.039 189.84 135.087 189.941C135.135 190.041 135.16 190.151 135.162 190.262C135.302 191.536 135.898 192.296 137.242 192C138.682 191.638 138.381 190.392 138.435 189.383Z" fill="#F4F4F4"/>
<path d="M157.772 175.894C158.729 175.112 160.089 175.187 160.997 174.162C161.653 173.412 162.674 173.623 163.41 174.297C165.323 176.11 167.828 175.813 170.128 176.455C170.321 175.295 169.44 175.527 168.999 175.252C167.091 174.06 167.027 172.846 168.537 171.243C169.37 170.358 170.853 169.851 170.397 168.006C170.16 167.072 171.128 167.294 171.708 167.574C174.497 168.918 175.072 168.734 176.007 165.761C176.308 164.79 176.572 164.089 177.673 164.029C177.136 165.065 176.797 166.042 178.238 166.673C180.054 167.466 179.313 168.292 178.103 168.772C176.691 169.308 175.226 169.695 173.734 169.927C170.703 170.401 169.746 171.939 171.128 174.632C171.52 175.403 171.971 176.034 171.455 176.817C171.189 177.191 170.794 177.452 170.346 177.552C169.899 177.652 169.431 177.582 169.032 177.356C166.882 176.369 163.851 178.052 162.271 175.122C162.018 174.658 161.319 175.306 160.965 175.662C159.933 176.725 158.874 176.488 157.772 175.894Z" fill="#F4F4F4"/>
<path d="M212.031 205.569C220.409 208.472 228.476 207.846 236.215 203.411C235.296 205.267 233.603 206.341 231.883 207.145C227.046 209.406 222.043 208.693 217.082 207.544C216.384 207.382 215.653 206.945 215.046 207.388C212.53 209.174 211.81 208.181 212.031 205.569Z" fill="#F4F4F4"/>
<path d="M209.344 175.894C209.908 177.588 210.956 179.196 209.521 181.058C208.72 182.094 208.903 183.049 210.564 182.552C211.719 182.207 212.466 182.471 212.896 183.631C213.326 184.791 212.633 185.25 211.821 185.746C210.166 186.825 209.822 188.002 211.859 189.21C210.865 190.154 209.37 189.809 208.806 191.007C209.908 187.467 207.694 183.944 208.86 180.275C209.247 179.034 209.22 177.351 209.344 175.894Z" fill="#F4F4F4"/>
<path d="M235.667 191.541C235.117 191.092 234.514 190.713 233.872 190.413C231.658 189.696 230.352 188.795 232.657 186.636C232.775 186.523 232.915 186.248 232.867 186.172C230.878 183.183 233.238 180.005 232.442 177C233.678 177.103 234.216 177.842 233.985 178.991C233.5 181.289 233.513 183.664 234.022 185.957C234.312 187.252 233.485 188.082 232.55 188.8C233.63 189.863 235.608 189.62 235.667 191.541Z" fill="#F4F4F4"/>
<path d="M232.98 174.815C232.894 170.644 233.968 166.517 233.49 162.352C233.129 159.87 232.959 157.365 232.98 154.857C233.161 154.846 233.343 154.876 233.513 154.943C233.682 155.011 233.834 155.115 233.959 155.249C234.083 155.382 234.177 155.541 234.234 155.715C234.29 155.889 234.308 156.073 234.285 156.255C233.748 161.958 234.162 167.672 233.995 173.38C233.988 173.694 233.888 173.998 233.707 174.254C233.526 174.51 233.272 174.705 232.98 174.815Z" fill="#F4F4F4"/>
<path d="M171.267 234.08C169.8 234.716 168.929 236.044 167.392 236.238C166.661 236.34 165.661 236.152 165.946 235.223C166.484 233.508 168.472 233.697 169.708 232.866C170.267 232.547 170.67 233.454 171.267 234.08Z" fill="#F4F4F4"/>
<path d="M205.587 193.16C204.738 194.978 203.486 196.645 204.142 198.895C204.744 200.929 205.604 202.672 207.732 203.406C205.749 204.01 204.728 203.611 204.099 201.275C203.52 199.337 203.338 197.301 203.561 195.291C203.717 194.239 204.222 193.187 205.587 193.16Z" fill="#F4F4F4"/>
<path d="M238.891 200.713C240.858 197.865 239.773 195.453 237.816 193.16C240.95 193.834 240.278 196.629 240.778 198.695C241.095 199.985 240.031 200.492 238.891 200.713Z" fill="#F4F4F4"/>
<path d="M100.763 234.204C101.424 234.484 102.375 234.554 102.321 235.623C102.323 235.804 102.281 235.983 102.199 236.145C102.117 236.307 101.997 236.447 101.85 236.552C101.703 236.658 101.533 236.727 101.354 236.753C101.175 236.779 100.993 236.761 100.822 236.702C100.15 236.551 99.3387 236.329 99.3226 235.455C99.3065 234.581 99.8708 234.204 100.763 234.204Z" fill="#F4F4F4"/>
<path d="M92.5718 234.419C90.3737 234.694 88.9764 234.997 87.5898 233.691C89.3634 232.466 90.5457 233.561 92.5718 234.419Z" fill="#F4F4F4"/>
<path d="M66.1297 227.152C66.9466 227.125 67.527 227.384 67.4679 228.328C67.4249 228.97 67.0272 229.315 66.393 229.154C65.7589 228.992 64.9366 228.792 64.9474 227.902C64.9796 227.206 65.5654 227.152 66.1297 227.152Z" fill="#F4F4F4"/>
<path d="M191.045 230.184C191.06 230.376 191.037 230.57 190.977 230.753C190.917 230.937 190.821 231.106 190.695 231.252C190.569 231.398 190.415 231.517 190.242 231.602C190.07 231.687 189.882 231.737 189.69 231.749C188.89 231.894 188.508 230.977 188.572 230.599C188.691 229.887 189.438 229.461 190.185 229.375C190.932 229.288 190.996 229.849 191.045 230.184Z" fill="#F4F4F4"/>
<path d="M63.3142 166.657C62.7015 166.657 62.277 166.446 62.2393 165.794C62.1802 165.054 62.4973 164.601 63.3142 164.623C63.4461 164.613 63.5787 164.632 63.7026 164.679C63.8264 164.726 63.9384 164.799 64.0307 164.894C64.123 164.99 64.1933 165.104 64.2367 165.23C64.28 165.355 64.2953 165.489 64.2816 165.621C64.3047 165.757 64.2963 165.896 64.2569 166.028C64.2175 166.159 64.1482 166.28 64.0545 166.38C63.9608 166.481 63.8451 166.558 63.7167 166.606C63.5882 166.654 63.4505 166.671 63.3142 166.657Z" fill="#F4F4F4"/>
<path d="M177.651 164.024C178.882 162.443 180.656 162.098 182.488 161.866C181.892 162.563 181.149 163.119 180.312 163.492C179.475 163.865 178.567 164.047 177.651 164.024Z" fill="#F4F4F4"/>
<path d="M209.822 225.355C208.946 226.402 208.145 226.823 207.108 226.332C207.032 226.242 206.981 226.134 206.959 226.019C206.937 225.903 206.946 225.784 206.984 225.673C207.694 224.697 208.607 224.837 209.822 225.355Z" fill="#F4F4F4"/>
<path d="M64.1097 226.957C63.9592 227.643 63.4756 227.637 63.0349 227.599C62.8788 227.589 62.7265 227.547 62.5871 227.475C62.4477 227.404 62.3241 227.305 62.2237 227.185C62.1233 227.064 62.0482 226.925 62.0029 226.774C61.9576 226.624 61.943 226.466 61.96 226.31C61.9613 226.196 61.991 226.084 62.0464 225.984C62.1018 225.884 62.1812 225.8 62.2773 225.739C62.3734 225.678 62.4833 225.642 62.5968 225.634C62.7103 225.626 62.824 225.647 62.9274 225.695C63.2077 225.8 63.4602 225.969 63.6652 226.188C63.8702 226.407 64.0223 226.67 64.1097 226.957Z" fill="#F4F4F4"/>
<path d="M118.191 237.533C117.03 238.32 115.993 238.66 114.854 237.252C116.149 236.551 117.159 236.826 118.191 237.533Z" fill="#F4F4F4"/>
<path d="M188.395 230.34C187.605 230.729 186.783 231.247 186.063 230.297C186.001 230.234 185.957 230.157 185.932 230.073C185.907 229.988 185.903 229.899 185.921 229.813C185.938 229.727 185.977 229.646 186.032 229.578C186.088 229.51 186.159 229.457 186.24 229.423C186.441 229.335 186.657 229.289 186.876 229.288C187.095 229.287 187.312 229.331 187.514 229.416C187.716 229.502 187.898 229.629 188.049 229.787C188.201 229.946 188.318 230.134 188.395 230.34Z" fill="#F4F4F4"/>
<path d="M128.041 237.684C126.526 238.617 125.671 238.531 124.602 238.072C125.499 236.95 126.434 237.403 128.041 237.684Z" fill="#F4F4F4"/>
<path d="M208.269 203.411C209.343 204.49 210.735 204.916 212.031 205.569C210.37 205.569 208.462 205.969 208.269 203.411Z" fill="#F4F4F4"/>
<path d="M175.604 34.0349C175.604 34.1213 175.529 34.2184 175.545 34.2939C176.62 39.6517 173.615 42.0473 169.316 44.4267C155.628 51.9804 142.181 60.009 128.638 67.8487C127.472 68.5231 126.279 69.1652 126.064 70.7029C126.101 70.8756 126.139 71.0482 126.182 71.2425C126.308 72.2226 126.346 73.2122 126.295 74.1992C126.295 105.285 126.295 136.368 126.295 167.45C126.379 168.615 126.307 169.785 126.08 170.93C125.87 171.777 125.107 171.815 124.468 172.052C122.146 173.396 119.835 174.75 117.481 176.072C115.219 177.335 114.762 177.043 114.692 174.378C114.692 173.838 114.692 173.299 114.692 172.759C114.692 138.886 114.672 105.011 114.633 71.1346C114.633 67.935 115.708 66.0682 118.486 64.4873C136.506 54.144 154.456 43.6659 172.438 33.2634C173.653 32.562 175.201 31.0728 175.604 34.0349Z" fill="#FDFEFE"/>
<path d="M178.743 156.47C178.694 157.193 178.909 157.981 178.27 158.569C178.27 158.478 178.27 158.386 178.232 158.3C178.044 156.341 179.184 153.4 177.91 152.661C176.298 151.722 174.341 154.053 172.611 155.041C164.377 159.746 156.219 164.58 148.034 169.371C146.272 171.26 144.24 172.679 141.634 173.105C137.64 175.387 133.653 177.68 129.649 179.941C128.52 180.583 127.365 181.522 126.097 180.151C125.992 180.037 125.911 179.902 125.859 179.756C125.807 179.609 125.786 179.454 125.795 179.299C125.805 179.143 125.845 178.992 125.915 178.853C125.984 178.714 126.081 178.59 126.199 178.49C126.844 178.376 127.542 179.029 128.144 178.339C140.14 171.276 152.189 164.31 164.238 157.361C167.328 155.575 170.37 153.713 173.492 151.965C174.658 151.318 175.76 150.514 177.2 150.616C179.716 151.927 180.113 153.427 178.743 156.47Z" fill="#00CDB0"/>
<path d="M126.569 178.543C126.031 178.959 126.096 179.563 126.096 180.162C124.849 178.317 125.8 176.25 125.499 174.313C125.365 173.466 125.983 172.268 124.473 172.042L125.295 171.502C126.397 170.795 125.784 169.706 125.784 168.831C125.82 137.095 125.834 105.36 125.827 73.6275C125.827 72.6563 125.596 71.6527 126.063 70.7139L127.283 70.7678C127.436 71.0921 127.49 71.4542 127.439 71.8092C127.289 85.5462 127.396 99.2886 127.38 113.031C127.38 133.507 127.38 153.988 127.38 174.464C127.369 175.84 127.751 177.362 126.569 178.543Z" fill="#00CDB0"/>
<path d="M113.961 198.048C114.047 198.048 114.116 164.12 114.116 122.268C114.116 80.4157 114.047 46.4878 113.961 46.4878C113.874 46.4878 113.805 80.4157 113.805 122.268C113.805 164.12 113.874 198.048 113.961 198.048Z" fill="#354952"/>
<path d="M157.466 34.7685C157.278 36.3548 156.735 37.2019 155.724 37.7846C151.343 40.3205 146.97 42.8672 142.606 45.4247C141.886 45.8455 141.074 46.1908 140.456 45.3599C139.838 44.529 140.526 43.8168 140.967 43.2017C142.015 41.7611 143.804 41.4158 145.218 40.504C148.36 38.504 151.568 36.6066 154.843 34.8117C155.536 34.4394 156.821 33.452 157.466 34.7685Z" fill="#D2EAFF"/>
<path d="M141.634 173.099L148.035 169.366C148.282 169.452 148.733 169.501 148.749 169.619C149.034 171.529 147.803 172.738 146.6 173.849C145.525 174.837 144.353 176.008 142.655 175.533C141.344 175.187 140.941 174.346 141.634 173.099Z" fill="#374A51"/>
<path d="M102.916 178.052L102.949 179.099C102.43 178.97 101.926 178.789 101.444 178.559C98.316 176.698 95.2258 175.403 91.6035 177.54C89.8677 178.565 87.7771 177.944 85.8155 177.842C88.7444 176.925 92.1141 177.534 94.7851 175.112C86.9064 169.754 80.1349 163.436 75.126 155.429C72.2508 150.832 69.5529 146.105 68.3867 140.64C72.7238 150.422 77.7971 159.686 86.3744 167.391C85.5467 161.396 84.2247 156.06 84.8105 150.125C86.1863 153.567 85.6435 156.886 86.2347 160.042C86.6753 162.411 87.1429 164.774 87.6158 167.137C88.0673 169.414 89.873 170.488 91.5498 171.653C95.1237 174.178 98.5525 176.973 102.916 178.052Z" fill="#BFF7F1"/>
<path d="M86.2998 138.125C84.1386 127.93 84.124 117.394 86.2568 107.193C85.4775 116.986 85.1282 126.762 86.9447 136.485C86.8533 137.073 87.0253 137.775 86.2998 138.125Z" fill="#C0ECE6"/>
<path d="M112.651 198.507C110.007 201.172 109.136 201.307 105.981 199.505C105.363 199.154 104.756 198.777 104.154 198.394C101.177 196.505 101.182 196.505 103.31 193.953C103.461 193.77 103.439 193.414 103.498 193.182C105.605 196.592 108.749 198.199 112.651 198.507Z" fill="#DDDEDE"/>
<path d="M107.84 74.9439C106.625 74.2856 105.55 73.4601 105.69 71.7659C105.76 70.8595 106.195 70.0555 107.13 70.3091C107.83 70.4468 108.452 70.8433 108.874 71.4199C109.296 71.9964 109.487 72.7111 109.409 73.4223C109.425 73.631 109.396 73.8408 109.322 74.0366C109.248 74.2324 109.132 74.4093 108.982 74.5547C108.832 74.7002 108.652 74.8105 108.454 74.8777C108.257 74.945 108.047 74.9676 107.84 74.9439Z" fill="#E0F1FF"/>
<path d="M109.356 86.4202C109.356 87.4993 108.781 88.0064 107.84 87.9471C106.228 87.8392 105.868 86.582 105.718 85.3087C105.61 84.3914 106.105 83.6199 107.099 83.771C108.561 83.9976 108.942 85.2871 109.356 86.4202Z" fill="#E0F1FF"/>
<path d="M218.013 189.275C218.55 190.403 219.087 191.53 219.663 192.663C220.775 194.563 220.367 195.312 218.211 195.361C216.626 195.404 215.1 194.422 213.493 195.102C212.332 196.1 213.165 196.721 213.993 197.093C216.911 198.453 220.023 199.213 223.129 199.936C223.736 200.077 224.655 200.001 224.768 199.397C225.155 197.276 227.272 195.588 226.332 193.144C226.332 191.978 226.224 190.796 227.058 189.82L227.536 189.28C229.336 191.25 232.072 191.163 234.254 192.383C239.268 195.178 239.628 199.429 234.684 202.391C229.739 205.354 224.279 205.936 218.684 205.327C214.955 204.917 211.343 203.989 208.188 201.749C204.663 199.246 204.631 195.669 208.188 193.197C210.112 191.859 212.316 191.126 214.541 190.462C215.718 190.106 217.035 190.176 218.013 189.275Z" fill="#EAEAEA"/>
<path d="M178.742 156.47C178.205 154.614 180.22 151.738 176.625 151.074C176.663 149.332 178.237 149.105 179.312 148.479C186.164 144.379 185.417 145.781 185.455 137.645C185.482 132.287 185.455 126.929 185.482 121.572C185.482 120.369 185.197 119.02 186.422 118.129C187.535 118.485 187.717 119.489 188.002 120.417C189.104 123.779 188.276 127.296 188.706 130.96C190.856 129.098 192.748 127.226 195.693 128.009C195.888 128.091 196.062 128.22 196.198 128.383C196.334 128.546 196.43 128.74 196.478 128.947C196.859 131.37 196.22 133.55 195.037 135.654C194.346 136.909 193.763 138.221 193.296 139.577C192.624 141.487 192.35 143.051 195.37 143.041C197.547 143.041 197.289 144.897 196.693 146.251C195.188 149.666 193.188 152.726 189.706 154.479C188.513 155.089 187.39 155.839 186.234 156.519C184.514 154.9 184.966 151.625 187.073 150.384C188.432 149.575 190.104 149.305 191.066 148.28C189.991 149.089 188.599 150.055 186.992 149.898C186.051 149.823 186.309 148.63 186.401 147.843C185.81 152.116 185.595 152.407 183.789 151.382C183.563 151.101 183.364 151.571 183.569 151.274C185.455 152.893 185.665 154.824 184.643 156.988C181.435 160.074 181.156 160.047 178.742 156.47Z" fill="#00CDB0"/>
<path d="M195.876 128.441C192.474 128.009 190.362 130.194 187.997 132.757V120.428C188.701 121.567 189.448 122.684 190.098 123.849C191.711 126.757 192.915 127.113 195.586 125.036C199.041 122.338 202.362 119.495 205.754 116.727C206.64 116.004 207.323 114.677 208.833 115.518C209.647 119.068 210.186 122.676 210.445 126.309C210.263 127.561 210.083 128.811 209.908 130.059C209.263 130.432 209.371 131.074 209.338 131.678C205.786 132.665 202.771 130.75 199.627 129.725C198.375 129.288 197.149 128.786 195.876 128.441Z" fill="#FDFDFD"/>
<path d="M195.876 128.44C199.579 128.349 202.739 130.421 206.248 131.1C207.275 131.3 208.242 131.807 209.328 131.64C207.146 132.913 205.792 136.14 206.313 138.962C206.453 139.717 207.103 140.71 206.114 141.028C205.125 141.347 205.071 140.041 204.625 139.442C204.454 139.129 204.263 138.826 204.056 138.535C203.647 138.125 203.217 137.354 202.545 137.996C202.067 138.46 201.594 139.107 202.497 139.787C204.072 140.963 204.819 142.296 203.717 144.352C203.239 145.242 204.862 146.127 204.507 147.309C204.383 147.724 204.416 148.35 204.152 148.517C203.556 148.889 203.276 148.253 202.916 147.87C201.793 146.683 200.605 145.555 199.482 144.373C198.945 143.78 198.407 143.052 198.773 142.215C199.154 141.276 199.181 140.516 198.37 139.793C197.295 138.843 196.983 140.677 195.94 140.332C196.053 138.989 196.838 138.46 198.09 138.104C201.433 137.17 201.659 136.485 199.616 133.955C199.436 133.755 199.302 133.517 199.226 133.258C199.149 132.999 199.132 132.726 199.176 132.46C199.579 130.259 198.316 129.39 196.462 128.969L195.876 128.44Z" fill="#F4F4F4"/>
<path d="M184.654 157.01C185.401 154.096 183.493 151.857 182.209 149.122C183.897 149.661 183.714 151.14 184.799 151.722C185.874 150.168 185.31 147.902 186.949 146.451C187.315 147.579 186.234 148.609 187.051 149.591C189.443 149.408 191.017 147.616 192.904 146.397C192.307 148.787 190.217 149.3 188.486 150.174C185.799 151.544 185.127 153.384 186.245 156.497C185.837 157.112 185.213 156.967 184.654 157.01Z" fill="#BDF6EE"/>
<path d="M138.656 189.448C137.646 189.167 136.63 189.809 136.05 188.881C135.775 188.434 136.254 188.029 136.657 187.905C137.925 187.506 137.925 188.763 138.656 189.448Z" fill="#F4F4F4"/>
<path d="M165.087 171.351C165.458 170.434 165.947 169.911 166.866 170.094C166.946 170.094 167.043 170.553 166.973 170.742C166.672 171.535 166.065 171.686 165.087 171.351Z" fill="#F4F4F4"/>
<path d="M221.887 178.052C221.35 175.187 220.742 172.327 220.275 169.452C219.924 167.13 218.814 164.991 217.12 163.371C216.637 162.987 216.291 162.456 216.134 161.857C215.977 161.259 216.018 160.626 216.25 160.053C217.491 155.974 218.587 151.851 220.232 147.778C220.909 157.849 221.584 167.93 222.258 178.02L221.887 178.052Z" fill="#EDF4F3"/>
<path d="M213.144 194.579C214.729 193.435 216.255 194.579 217.808 194.708C219.362 194.838 220.705 194.854 219.663 192.663C221.49 192.577 223.537 193.241 224.182 190.376C224.419 189.351 226.079 190.03 227.068 189.804C227.068 191.099 227.068 192.388 227.068 193.683C226.945 193.813 226.832 193.948 226.714 194.077C225.574 195.34 225.639 197.622 223.489 198.027C221.116 198.465 218.666 198.122 216.502 197.05C215.199 196.513 214.047 195.664 213.144 194.579Z" fill="#DFA5A4"/>
<path d="M226.998 116.543C227.442 117.508 227.935 118.448 228.476 119.36C229.712 121.232 229.901 123.083 228.643 125.004L227.611 123.989C226.896 122.371 225.327 121.189 225.418 119.22C225.257 119.101 225.203 118.988 225.263 118.874C225.322 118.761 225.381 118.712 225.435 118.712C226.359 118.286 225.553 116.597 226.998 116.543Z" fill="#F8F9F9"/>
<path d="M186.417 118.162C186.369 126.136 186.235 134.116 186.337 142.086C186.369 144.492 185.525 145.927 183.494 147.017C181.151 148.28 178.91 149.715 176.62 151.107C167.57 156.308 158.504 161.483 149.464 166.711C142.365 170.822 135.303 174.993 128.225 179.121C127.634 179.477 127.15 179.326 126.962 178.694C126.852 178.075 126.829 177.443 126.892 176.817C126.892 142.336 126.892 107.853 126.892 73.3682C126.892 72.6614 126.752 71.9276 127.112 71.2532C127.197 71.0988 127.253 70.9308 127.279 70.7568C132.884 66.8828 138.936 63.7426 144.794 60.311C157.219 53.0055 169.709 45.8187 182.188 38.6156C183.327 37.9574 184.617 36.5653 185.724 37.0833C187.025 37.6876 186.262 39.5167 186.262 40.7792C186.305 62.0772 186.314 83.3733 186.289 104.668C186.289 105.563 186.219 106.464 186.181 107.365C184.09 105.331 184.44 102.909 185.015 100.411C185.16 99.7739 185.504 98.8351 184.708 98.506C183.913 98.1768 183.408 99.0455 183.204 99.6552C182.639 101.36 181.828 100.772 181.274 99.8225C180.517 98.5221 179.092 97.702 178.722 96.1535C178.484 94.0975 178.511 92.0193 178.802 89.9702C164.555 98.1391 150.157 106.642 135.641 114.952C133.981 115.901 133.105 118.383 133.846 120.05C134.47 121.464 135.367 120.552 136.034 120.153C139.72 117.951 143.466 115.836 147.18 113.678C156.08 108.515 164.969 103.335 173.906 98.2362C174.723 97.7668 175.518 97.0006 176.593 97.4916C177.797 98.3981 178.13 99.2182 177.233 100.783C175.685 103.481 176.104 104.598 179.168 106.891C183.005 109.766 184.612 114.002 186.417 118.162Z" fill="#FEFEFE"/>
<path d="M176.603 97.5024C163.432 105.117 150.258 112.723 137.081 120.32C135.952 120.968 134.716 122.397 133.539 121.707C132.362 121.016 133.216 119.23 133.044 117.93C132.829 116.311 133.469 115.335 134.936 114.493C148.839 106.529 162.694 98.479 176.571 90.4721C177.323 90.035 178.118 89.0908 178.941 89.5224C179.763 89.9541 179.344 91.1411 179.301 91.9936C179.231 93.3803 179.838 94.891 178.715 96.1266C177.93 95.8406 177.404 94.5079 176.447 95.2363C175.738 95.8136 176.764 96.7201 176.603 97.5024Z" fill="#59DFCC"/>
<path d="M225.434 118.702C225.451 118.87 225.451 119.04 225.434 119.209C224.257 120.649 222.64 120.93 220.78 120.639L225.434 118.702Z" fill="#00CDB0"/>
<path d="M42.8221 196.937C40.6977 198.628 38.3704 200.046 35.8947 201.156C34.6855 199.386 35.1691 197.919 36.819 196.839C38.3603 195.845 39.6975 194.563 40.7584 193.063C40.4574 193.726 39.5008 194.622 38.5388 195.496C37.7703 196.203 36.862 197.244 35.8517 196.742C34.9757 196.311 35.2068 194.994 35.1906 194.018C35.1477 191.32 35.5937 188.665 35.9592 186.021C36.3431 182.75 37.0231 179.521 37.9906 176.374C36.4805 181.263 35.8732 186.313 35.3035 191.368C35.196 192.291 35.6367 193.575 34.32 193.84C33.2129 194.066 33.1162 192.707 32.5035 192.124C32.1476 191.722 31.9474 191.205 31.9392 190.667C31.9816 191.199 32.1316 191.718 32.3802 192.19C32.6287 192.662 32.9706 193.078 33.3849 193.413C36.2816 195.852 35.4916 198.809 34.7983 201.771C33.3688 202.667 31.9392 203.568 30.4989 204.469C28.4997 205.699 26.8659 205.062 27.3335 202.85C28.2525 198.566 26.6348 195.167 25.1515 191.439C23.7757 187.964 25.6567 185.471 29.3703 185.147C31.7511 184.942 32.5519 183.432 32.9764 181.5C33.401 179.568 33.6912 177.464 34.0835 175.452C34.2198 174.749 34.4269 174.062 34.7016 173.401C35.8786 170.552 38.1519 168.972 40.3553 169.419C42.333 169.824 43.5799 172.182 43.3112 175.355C43.1231 177.577 42.6931 179.773 42.3975 181.986C41.9783 185.066 42.9995 186.815 46.0413 188.271C46.8367 189.62 45.9338 191.082 46.3369 192.464C45.8209 194.476 44.4075 195.766 42.8221 196.937Z" fill="#00CDB0"/>
<path d="M46.0314 192.62C44.7631 191.169 45.9185 189.723 46.0314 188.277C46.9173 184.801 47.4574 181.246 47.6437 177.664C47.6974 175.505 48.2993 173.347 50.9596 173.266C53.6198 173.185 54.3722 175.424 54.512 177.507C54.8667 182.962 52.803 187.705 49.5247 191.913C48.3853 193.375 46.8375 194.535 45.4886 195.83C43.9838 194.892 45.3757 194.26 45.811 193.715C49.874 188.649 51.3895 184.484 51.4218 178.457C51.505 183.254 50.0276 187.948 47.2137 191.827C46.9181 192.237 46.7569 192.836 46.0314 192.62Z" fill="#006254"/>
<path d="M34.7824 201.793C36.083 196.937 32.3963 193.451 31.0957 189.281C32.4715 190.5 32.6112 192.518 34.4546 193.597C35.5295 186.982 35.8036 180.238 38.7218 174.114C36.8677 181.457 35.5456 188.849 35.8573 196.597C38.9636 195.642 40.0761 192.82 42.4085 190.246C42.1253 191.53 41.5883 192.743 40.8295 193.815C40.0707 194.886 39.1054 195.794 37.9909 196.484C36.1368 197.735 35.4865 199.122 35.8949 201.189L34.7824 201.793Z" fill="#C0F7EF"/>
<path d="M46.0307 192.62C49.6583 187.856 50.2549 185.865 51.0288 175.738C52.0553 176.072 51.9155 176.919 51.9263 177.626C51.9908 183.534 50.4268 188.887 46.595 193.489C46.0576 194.147 44.9451 194.622 45.4825 195.831C44.8107 196.721 43.8702 196.937 42.8223 196.91L46.0307 192.62Z" fill="#BAEAE2"/>
<path d="M126.065 70.6812C126.065 103.508 126.065 136.334 126.065 169.16C126.065 169.975 126.479 171.016 125.291 171.47C125.372 170.315 125.527 169.155 125.527 168C125.527 136.674 125.538 105.347 125.56 74.021C125.565 72.9311 125.135 71.6955 126.065 70.6812Z" fill="#00CDB0"/>
<path d="M127.117 71.2534C127.117 106.27 127.117 141.286 127.117 176.299C127.117 177.27 126.343 178.77 128.192 179.121C127.246 180.07 126.784 179.612 126.537 178.543C126.537 143.893 126.553 109.245 126.585 74.5986C126.623 73.4818 126.182 72.2462 127.117 71.2534Z" fill="#00CDB0"/>
<path d="M213.144 194.579C213.842 194.795 214.509 194.627 215.245 195.307C217.626 197.465 220.619 197.784 223.72 197.336C224.462 197.233 225.214 196.866 225.016 195.971C224.607 194.147 225.73 193.861 227.058 193.683C227.273 195.102 228.24 196.715 226.053 197.503C225.974 197.54 225.906 197.596 225.853 197.666C225.801 197.735 225.766 197.816 225.752 197.902C226.053 202.343 223.242 200.735 221.189 200.169C218.459 199.408 215.6 198.976 213.128 197.471C211.564 196.57 210.865 195.528 213.144 194.579Z" fill="#3C4851"/>
<path d="M188.046 142.982C188.207 138.665 190.669 135.428 192.963 132.077C191.464 135.757 189.556 139.269 188.046 142.982Z" fill="#BAF6EF"/>
<path d="M179.178 115.879C179.829 118.496 178.764 119.732 176.776 120.87C163.437 128.51 150.179 136.296 136.867 143.99C135.819 144.594 134.615 145.884 133.556 145.339C132.39 144.74 133.25 143.057 133.019 141.87C132.664 139.884 133.674 138.773 135.313 137.828C149.33 129.735 163.26 121.529 177.356 113.603C180.758 111.687 178.48 115.464 179.178 115.879Z" fill="#59DFCC"/>
<path d="M148.636 89.6089C145.326 87.6071 144.589 84.2781 145.03 80.9383C146.067 73.0716 149.405 66.3704 156.316 61.973C159.17 60.1547 162.254 58.9839 165.329 61.1313C168.403 63.2787 168.741 66.6995 168.381 70.0933C167.919 73.7482 166.68 77.2607 164.748 80.3933C163.673 80.6361 163.448 79.7513 163.055 79.0768C161.658 76.6812 160.459 76.2334 158.089 77.5661C154.075 79.8268 150.909 82.7889 150.367 87.7582C150.264 88.7186 150.393 90.1376 148.636 89.6089Z" fill="#00CDB0"/>
<path d="M170.724 135.967C171.477 138.595 169.778 140.095 167.328 141.433C162.459 144.093 157.729 147.012 152.903 149.747C150.753 150.967 150.517 150.648 150.216 148.166C149.786 144.325 150.941 141.8 154.671 140.073C159.191 137.947 163.383 135.131 167.725 132.622C170.482 131.003 170.676 131.127 170.703 134.197C170.73 134.608 170.724 135.061 170.724 135.967Z" fill="#00CDB0"/>
<path d="M148.636 89.6089C149.985 89.4525 149.635 88.3896 149.711 87.5586C150.141 82.9617 155.053 77.1453 159.422 76.228C161.507 75.7802 163.13 76.4654 163.662 78.7424C163.834 79.4708 163.958 80.1398 164.737 80.4366C162.453 83.9814 159.653 86.9921 155.929 89.0694C153.591 90.3158 151.167 90.6449 148.636 89.6089Z" fill="#59DFCC"/>
<path d="M150.371 97.7668C150.446 99.0294 149.49 99.6715 148.447 100.276C144.191 102.731 139.95 105.223 135.667 107.635C134.936 108.051 133.942 109.227 133.195 107.883C132.657 106.88 133.141 105.725 134.151 105.072C136.118 103.837 138.155 102.709 140.16 101.538C142.94 99.9161 145.719 98.2974 148.495 96.6823C149.57 96.0403 150.398 96.0079 150.371 97.7668Z" fill="#00CDB0"/>
<path d="M150.372 121C150.372 122.333 149.646 123.066 148.668 123.633C144.197 126.217 139.736 128.818 135.233 131.386C134.663 131.71 133.959 132.395 133.335 131.64C132.712 130.884 132.997 129.935 133.583 129.196C133.923 128.783 134.333 128.433 134.792 128.16C139.242 125.541 143.701 122.939 148.168 120.352C149.136 119.807 150.232 119.155 150.372 121Z" fill="#00CDB0"/>
<path d="M160.443 70.2497C160.201 72.9151 158.702 74.8791 156.601 76.3197C156.258 76.5774 155.848 76.7311 155.421 76.7624C154.994 76.7938 154.566 76.7015 154.19 76.4965C153.813 76.2915 153.503 75.9825 153.296 75.6059C153.089 75.2294 152.993 74.8011 153.021 74.3719C153.199 71.7551 154.016 69.2839 156.504 67.8595C157.38 67.3577 158.304 66.5754 159.438 67.3685C160.459 68.0807 160.551 69.1167 160.443 70.2497Z" fill="#BCF5EB"/>
<path d="M34.7288 54.1174C34.1914 53.8692 33.9764 52.9303 33.1166 53.9879C30.4294 57.2953 30.3757 57.2252 26.6352 54.6947C26.6352 53.076 27.6563 51.8728 28.3173 50.5293C28.8548 49.3855 29.6394 48.1877 28.5968 47.0708C27.5542 45.9539 26.4901 47.0222 25.4959 47.5132C25.355 47.6179 25.1907 47.6864 25.0174 47.7127C24.8441 47.739 24.667 47.7224 24.5016 47.6643C24.3917 47.4814 24.2324 47.3336 24.0421 47.2381C23.8518 47.1426 23.6384 47.1033 23.4268 47.1247C22.1638 45.2903 22.8302 43.186 22.5938 41.1897C23.0237 39.7383 24.5231 39.5063 25.5173 38.7131C26.3934 38.0171 27.0759 37.3373 27.1296 36.1826C29.5749 34.0244 29.6179 33.0101 27.4413 30.7871C26.8717 30.2152 25.9097 29.8375 26.0333 28.7314C28.2824 26.5706 29.8152 23.7678 30.4241 20.7029H30.9615C31.5806 20.7868 32.1676 21.0303 32.6651 21.4097C35.191 22.8881 36.8517 22.1704 37.7492 19.2515C38.2919 17.1946 38.3763 15.0429 37.9964 12.9495C38.6574 12.4099 39.5012 12.4369 40.2482 12.151C44.51 10.5323 44.51 10.5323 47.2348 14.3793C47.2616 14.7516 46.8048 14.8271 46.7564 15.1563L47.2939 14.5682C48.9921 14.4548 49.981 13.4027 50.857 12.0754C51.5019 11.115 51.8942 9.67981 53.5441 9.91721C57.1933 11.7841 57.1933 11.7841 55.1564 15.8523C54.6781 16.3918 54.8823 17.0339 54.8716 17.6274C54.834 20.5302 55.409 20.9403 58.037 19.8881C58.8378 19.5644 59.6493 19.0626 60.5199 19.6399C60.4681 20.3584 60.4681 21.0797 60.5199 21.7982C60.9499 24.8143 60.2136 27.0858 57.1449 28.3969C54.6889 29.4436 54.6405 32.136 53.9203 34.2672C53.614 35.1575 54.6889 35.5352 55.3606 35.9398C56.8009 36.8031 57.0105 37.9092 56.1077 39.3066C55.4659 40.1619 54.9248 41.0889 54.4954 42.0691C53.7484 44.2274 52.5875 44.7022 50.4808 43.7795C48.8685 43.0673 45.8428 45.6194 45.472 47.7668C45.3054 48.7272 45.171 49.6984 44.9722 50.6534C44.7733 51.6084 45.4505 53.0059 44.2574 53.594C42.5108 54.4573 41.0812 55.9249 39.0927 56.2917C38.8708 56.3307 38.6424 56.3041 38.4353 56.215C38.2282 56.1259 38.0514 55.9782 37.9265 55.79C38.0006 55.5343 38.0332 55.2683 38.0233 55.0022C37.8352 53.9231 38.4156 52.3746 37.029 51.9807C35.5081 51.5275 35.535 53.4159 34.7288 54.1174Z" fill="#005BA2"/>
<path d="M63.7182 68.7174C62.8852 69.0303 62.552 69.7965 62.3155 70.5141C61.4556 73.1309 59.9132 73.3629 57.8172 71.9493C56.8123 70.6867 57.9086 69.6346 58.1558 68.5015C58.2848 67.9026 58.5696 67.266 57.9301 66.8181C57.3927 66.4566 56.9359 66.8181 56.4737 67.0447C55.6622 67.4872 54.9528 68.3666 53.8779 67.649C53.0714 66.1775 52.5259 64.5763 52.2656 62.9172C53.448 61.5305 55.4418 61.0018 56.1835 59.1403C56.4307 58.3633 56.7531 57.3975 56.0384 56.8904C53.2652 54.9156 54.9958 52.8545 55.7911 50.8096C55.9735 50.3047 56.2984 49.8641 56.7263 49.5417C57.6345 49.0021 58.7739 49.2719 59.6821 48.7215C61.4717 47.6424 62.1005 45.9806 61.9447 43.9411C61.8802 43.1588 61.6598 42.3224 62.0414 41.5725C62.9886 40.8282 63.9931 40.1607 65.0456 39.5761C65.8948 39.0905 66.8138 38.8207 67.6575 39.6409C68.1949 40.2506 68.1305 42.0689 69.7212 40.72C70.7585 40.1265 71.2045 39.0582 71.8172 38.1193C72.5642 36.9701 73.4295 36.0205 74.9988 36.8298C75.2148 36.8128 75.432 36.8429 75.6353 36.9182C75.8386 36.9936 76.0232 37.1122 76.1765 37.2661C76.3297 37.4199 76.4479 37.6053 76.5229 37.8094C76.598 38.0135 76.628 38.2316 76.611 38.4485C76.2725 39.7865 75.5792 41.4214 76.2295 42.4681C77.3043 44.1515 78.578 41.8153 79.8786 42.0958C80.0489 42.1231 80.2162 42.1664 80.3784 42.2253C81.2383 45.0796 80.5128 47.2594 78.1212 49.2395C76.5895 50.4913 76.3961 52.4013 78.4705 53.6908C79.6797 54.4462 79.6421 55.2609 79.008 56.3886C77.96 58.2123 77.6537 60.2788 74.4882 60.2949C72.2471 60.2949 71.7473 63.1168 71.7635 65.4045C71.7279 66.6882 71.2092 67.9108 70.3117 68.8259C69.4142 69.7409 68.2046 70.2806 66.9266 70.336C66.4161 68.685 65.6368 67.5573 63.7182 68.7174Z" fill="#005BA2"/>
<path d="M47.073 14.762C46.4442 13.5912 44.8105 13.4293 44.5364 11.6865C44.359 10.5427 42.994 11.3143 42.3867 11.8106C41.7801 12.3241 41.0752 12.7073 40.3154 12.9365C39.5556 13.1657 38.757 13.2361 37.969 13.1433C36.7061 13.0084 35.5022 12.4797 34.207 12.6038C35.1583 9.33949 40.1832 7.13812 42.6607 9.12906C44.7675 10.8287 46.1486 11.1416 47.3256 8.30894C47.863 7.07337 48.9379 6.74424 49.916 7.71544C50.9909 8.79454 52.4258 9.02655 53.5436 9.87365C52.0496 10.6722 51.5175 12.2477 50.6254 13.5318C49.7333 14.8159 48.6746 15.5174 47.0945 14.7296L47.073 14.762Z" fill="#2087D6"/>
<path d="M67.4893 40.1103C66.3553 38.9665 65.49 40.024 64.7 40.5851C63.91 41.1463 63.2221 41.8908 62.115 41.7344C60.5027 42.1984 59.5031 41.0491 58.5949 40.3207C58.9227 41.702 59.9384 43.2883 57.8156 44.4267C57.8478 41.729 57.1599 38.9665 60.5833 37.4126C61.9215 36.7975 62.6793 36.2525 64.0497 37.1967C65.0279 37.8712 66.2478 38.2165 67.2743 36.7813C69.424 33.7868 70.4666 33.6627 73.5676 35.7346C74.105 36.0745 74.5349 36.4953 75.0186 36.8784C73.2827 36.7111 72.6002 37.9143 71.966 39.2093C71.4824 40.202 71.176 41.4214 69.6444 41.1948C68.6985 41.2758 68.0751 40.7362 67.4893 40.1103Z" fill="#2087D6"/>
<path d="M34.186 12.6149C35.723 10.7426 36.7656 12.4368 37.948 13.1544C39.9203 15.7065 38.5445 22.1218 35.5994 23.093C33.568 23.7674 32.2566 22.0139 30.9453 20.6974C33.2347 18.4852 34.8255 16.0033 34.186 12.6149Z" fill="#003762"/>
<path d="M56.7531 49.8169C56.4146 50.7234 56.033 51.619 55.7428 52.5147C55.3075 53.8797 54.0982 55.2448 56.651 56.1782C57.9247 56.6422 57.2798 58.3364 56.7424 59.5127C54.7055 60.0091 53.5178 58.7573 52.443 57.3545C52.443 55.6441 53.4587 53.5776 50.734 52.8816C50.562 52.8384 50.4169 52.4769 50.3524 52.2341C50.0138 50.9985 52.142 47.5616 53.5017 47.1191C54.5712 48.0526 56.7478 47.6101 56.7531 49.8169Z" fill="#003762"/>
<path d="M30.4228 20.7026C31.0731 23.2709 28.5096 28.0783 26.1234 28.7959C26.0417 28.8783 25.9413 28.9395 25.8308 28.9742C25.7204 29.009 25.6031 29.0163 25.4892 28.9956C24.6939 28.742 24.2048 27.9974 23.4255 27.7168C22.485 27.6035 22.2056 27.064 22.5979 26.2384C22.9418 25.5316 23.4309 24.895 23.791 24.1935C25.9568 19.9634 25.9461 19.9634 30.4228 20.7026Z" fill="#2087D6"/>
<path d="M24.5125 47.6639C24.5896 47.6197 24.6617 47.5673 24.7274 47.5074C25.8507 46.288 27.4146 45.0686 28.8065 46.0614C30.4188 47.2161 30.1877 49.1153 28.9033 50.7933C27.995 51.9803 27.7639 53.6044 26.6461 54.6943C25.5013 54.6187 24.8296 53.6152 23.8246 53.2537C22.2983 52.7141 22.3359 51.7591 23.0614 50.5559C23.6096 49.6387 24.0342 48.6243 24.5125 47.6639Z" fill="#003762"/>
<path d="M57.8154 44.4266C58.9977 43.1316 57.896 41.459 58.5893 39.9429L62.1148 41.7342C63.3993 45.5758 62.9102 47.2916 59.9651 49.2879C58.1271 49.2016 56.5578 48.7484 56.2031 46.5902L57.8154 44.4266Z" fill="#003762"/>
<path d="M27.1984 36.339C27.2898 36.8785 28.6656 37.1915 27.8165 37.7526C26.2311 38.7939 25.0756 40.6338 22.899 40.6554C21.2169 40.8065 20.0937 39.436 18.5996 39.0367C18.9489 37.5907 20.2119 36.9379 21.2867 36.3929C22.7031 35.7067 23.8252 34.5304 24.4468 33.0801C25.2852 34.2617 26.6771 34.9307 27.1984 36.339Z" fill="#2087D6"/>
<path d="M18.6173 39.0476C20.5144 38.3138 21.5087 40.0134 22.9167 40.6662C23.9486 42.7489 23.2499 44.9826 23.4541 47.1409C19.9609 46.434 18.6173 44.8693 18.6173 41.454C18.6119 40.6446 18.6119 39.8461 18.6173 39.0476Z" fill="#005BA2"/>
<path d="M27.1997 36.3389C26.1249 35.4109 24.2654 35.1249 24.5126 33.1016C24.8566 31.8714 25.2328 30.6466 25.05 29.3247C24.9103 28.8176 25.05 28.5855 25.5875 28.7852H26.1249C27.1463 29.6318 28.1222 30.5324 29.0485 31.4829C30.6769 33.3228 29.7095 35.7616 27.1997 36.3389Z" fill="#003762"/>
<path d="M52.4527 57.3706L56.7521 59.5288C55.731 61.1475 54.6024 62.6151 52.4527 62.7661C50.9748 63.187 49.9591 61.9892 48.6907 61.687C48.0996 61.2284 48.2608 60.7806 48.7445 60.3867C49.9805 59.3508 51.2113 58.3742 52.4527 57.3706Z" fill="#2087D6"/>
<path d="M54.0607 67.6223C54.8507 67.6223 55.3075 67.0828 55.8772 66.6458C56.6833 66.0468 57.4518 65.0864 58.6395 66.0361C59.8273 66.9857 58.9942 68 58.7202 68.9335C58.4461 69.8669 57.6937 70.8111 57.8173 71.9496C56.3931 71.7607 55.286 70.8705 54.023 70.2877C52.9482 69.8075 52.9912 69.0306 53.534 68.1295C53.6396 67.8999 53.8277 67.7187 54.0607 67.6223Z" fill="#005BA2"/>
<path d="M54.0603 67.622L53.5229 68.1616C53.2058 67.3361 52.448 66.98 51.744 66.6778C49.5513 65.7066 48.7237 63.9801 48.6699 61.6924C50.2822 60.8129 51.1528 62.5017 52.4319 62.7715C53.5874 64.2067 53.8346 65.9009 54.0603 67.622Z" fill="#004174"/>
<path d="M60.4976 19.629C59.8366 19.8664 59.1917 20.1685 58.5145 20.3304C57.3322 20.6271 56.1176 22.4886 55.0481 21.1343C53.8443 19.6344 53.3337 17.5733 55.1341 15.8413C56.4293 17.8053 58.9821 17.9725 60.4976 19.629Z" fill="#2087D6"/>
<path d="M34.7285 54.1173C34.8951 53.1623 34.191 51.889 35.6743 51.4196C36.545 51.1444 38.1035 50.389 38.1626 51.4196C38.2379 52.7846 40.1672 54.495 37.9208 55.736L34.7285 54.1173Z" fill="#005BA2"/>
<path d="M80.3834 42.2684C79.6906 42.674 78.9726 43.0344 78.2337 43.3475C77.476 43.6173 76.7773 44.6695 75.8691 43.8331C74.9608 42.9968 75.0683 41.9447 75.552 40.9034C75.9174 40.1156 75.8906 39.1498 76.6268 38.5186C76.4549 39.7164 77.2287 40.202 78.1424 40.6768C79.056 41.1516 79.9643 41.2649 80.3834 42.2684Z" fill="#2087D6"/>
<path d="M56.1989 46.585C57.134 47.9338 58.6226 48.5058 59.9608 49.2827C59.0203 50.2539 57.8111 49.6442 56.7363 49.8223C56.1182 48.3655 54.119 48.5921 53.5117 47.1245C54.4415 47.2293 55.3807 47.0407 56.1989 46.585Z" fill="#3D77A7"/>
<path d="M63.7168 68.7173C63.7553 68.4538 63.8544 68.2029 64.0062 67.9844C64.158 67.766 64.3584 67.586 64.5915 67.4588C64.8246 67.3316 65.084 67.2606 65.3491 67.2515C65.6142 67.2424 65.8779 67.2953 66.1191 67.4062C67.2853 67.8594 67.1456 69.2083 66.9306 70.336C65.7327 70.0999 64.6215 69.5402 63.7168 68.7173Z" fill="#004174"/>
<path d="M25.5872 28.7798L25.0498 29.3194C24.3491 28.9733 23.7822 28.4042 23.4375 27.7007C24.4801 27.3824 24.9315 28.2942 25.5872 28.7798Z" fill="#005BA2"/>
<path d="M44.9232 29.3299C46.1324 27.4469 44.9985 25.2833 45.6326 23.3301C48.5455 23.7833 49.7117 25.0782 49.7601 27.8623C49.8891 34.8765 46.8795 40.0616 40.6722 43.3313C40.0877 43.6667 39.4339 43.8622 38.7618 43.9024C38.0897 43.9426 37.4175 43.8266 36.7973 43.5633C35.0776 42.8457 34.8357 41.8907 36.3298 40.6497C36.3795 40.385 36.4823 40.1332 36.6319 39.9097C36.7816 39.6861 36.975 39.4955 37.2004 39.3494C40.3067 36.9862 42.7682 34.0941 44.0687 30.3281C44.2185 29.8994 44.5236 29.543 44.9232 29.3299Z" fill="#3D77A7"/>
<path d="M44.923 29.3299C43.7568 34.4017 40.6236 37.9627 36.3242 40.6605C34.7119 40.8763 34.1261 40.2396 34.1369 38.567C34.1852 32.4755 36.824 27.8245 41.6931 24.3444C42.4455 23.8049 43.4827 23.206 44.3802 23.6646C45.2777 24.1232 44.8263 25.2833 44.88 26.1196C44.9821 27.1771 44.9284 28.2508 44.923 29.3299Z" fill="#D2EAFF"/>
<path d="M47.0741 14.7623C47.6115 16.3378 46.4238 15.782 45.7842 15.7874C45.3113 15.7874 44.8599 15.4205 45.0641 14.9296C45.6015 13.6778 46.413 15.0321 47.0741 14.7623Z" fill="#004174"/>
<path d="M68.544 47.6693C71.5159 46.8061 72.7681 47.6693 72.8434 50.6908C73.0046 55.822 70.0756 60.7697 66.0288 62.4261C64.653 62.9657 63.6158 62.5556 62.5517 61.8218C61.6649 61.2121 61.4768 60.4513 62.1002 59.5341C62.1923 58.9122 62.5195 58.3499 63.0139 57.964C65.7914 55.5624 67.5821 52.2111 68.0388 48.5596C68.1235 48.2223 68.2982 47.9145 68.544 47.6693Z" fill="#3D77A7"/>
<path d="M68.5429 47.6694C68.7095 52.8815 66.0223 56.5397 62.0938 59.5396C61.6423 59.4641 61.2016 59.3507 61.1049 58.8166C60.4492 55.0343 64.8185 48.468 68.5429 47.6694Z" fill="#D2EAFF"/>
<path d="M67.49 40.1104C67.9032 40.131 68.3076 40.2376 68.6777 40.4234C69.0477 40.6091 69.3753 40.87 69.6397 41.1895C69.5698 41.9448 69.2044 42.4035 68.4198 42.1229C67.49 41.7884 67.4793 40.9359 67.49 40.1104Z" fill="#003762"/>
</svg>
