<svg width="36" height="39" viewBox="0 0 36 39" fill="none" xmlns="http://www.w3.org/2000/svg">
<path d="M15.2791 19.5999C14.8221 17.9391 14.3659 16.2783 13.901 14.5814C13.7371 14.8209 13.6682 15.0626 13.5695 15.2879C13.2584 15.9966 12.9552 16.7099 12.6542 17.4239C12.6393 17.4751 12.6075 17.5191 12.5643 17.5482C12.5212 17.5773 12.4695 17.5896 12.4184 17.5829C11.5698 17.5778 10.7215 17.5778 9.87334 17.5829C9.74205 17.5829 9.69201 17.5362 9.66662 17.4059C9.35909 15.7948 9.69201 14.3433 10.7219 13.0998C11.7642 11.8405 13.1155 11.2793 14.7111 11.3795C15.9188 11.4548 16.9495 11.9662 17.8104 12.846C18.0577 13.0998 18.3058 13.3529 18.5451 13.615C18.6525 13.7332 18.7214 13.7242 18.8302 13.615C19.2907 13.1345 19.7172 12.6155 20.2677 12.2366C21.5595 11.3486 22.9565 11.1355 24.431 11.6009C25.7953 12.031 26.7709 12.9484 27.3758 14.2891C27.4751 14.509 27.4722 14.5151 27.2438 14.5151C26.3901 14.5151 25.5386 14.5151 24.6856 14.4917C23.9139 14.4691 23.235 15.1508 23.235 15.9439C23.235 16.4124 23.235 16.8816 23.2393 17.3501C23.2393 17.5196 23.1871 17.5829 23.029 17.5829C21.9236 17.5829 20.8178 17.5829 19.7114 17.5829C19.586 17.5829 19.5664 17.5075 19.5388 17.4126C19.3343 16.7084 19.1254 16.0049 18.9245 15.2992C18.8825 15.1491 18.8205 15.0058 18.7402 14.8736C18.424 15.9281 18.1179 16.9479 17.8126 17.9677L17.7545 17.9723L16.7543 15.4581C16.2662 16.8794 15.7984 18.2404 15.3306 19.6007L15.2791 19.5999Z" fill="#0EB8FA"/>
<path d="M13.8457 15.4766C14.3172 17.1871 14.7806 18.8712 15.2441 20.5546L15.2971 20.5614L16.7412 16.3638L16.797 16.3586L17.7892 18.8652H17.8385L18.735 15.8645H18.7829C18.8975 16.2541 19.0119 16.6433 19.126 17.0319C19.1905 17.2526 19.2623 17.4718 19.3153 17.6962C19.3479 17.8348 19.4146 17.8732 19.5481 17.8725C20.5896 17.869 21.6312 17.8635 22.6727 17.8559C22.8316 17.8559 23.002 17.8559 23.1326 17.9516C23.2631 18.0472 23.3175 18.2679 23.1957 18.3741C23.1173 18.4266 23.0234 18.4485 22.9309 18.4359L21.3033 18.408C20.998 18.4027 20.6861 18.3982 20.3945 18.4939C20.0386 18.6163 19.7418 18.8763 19.5655 19.22C19.3436 19.6501 19.4596 20.0673 19.4589 20.5328C19.4589 21.2935 19.4589 22.055 19.464 22.8158C19.464 23.0056 19.4226 23.0598 19.234 23.053C17.2917 22.983 15.3652 22.7856 13.462 22.3638C13.3795 22.3543 13.3019 22.3182 13.2401 22.2606C12.3632 21.3485 11.4595 20.4643 10.629 19.5062C10.2663 19.0889 10.032 18.5873 9.83911 18.0646C9.77891 17.9011 9.82461 17.8672 9.97765 17.868C10.848 17.8732 11.7184 17.868 12.5888 17.8732C12.6459 17.8807 12.7038 17.8667 12.7518 17.8337C12.7999 17.8006 12.8349 17.7508 12.8506 17.6932C13.1349 17.0108 13.4308 16.3322 13.721 15.6528C13.7422 15.5811 13.7862 15.519 13.8457 15.4766Z" fill="#0EB8FA"/>
<path d="M33.444 20.5314C32.7455 21.3772 31.8483 21.9112 30.8938 22.3669C29.3221 23.1201 27.6538 23.5344 25.9552 23.8312C24.4737 24.0883 22.9754 24.227 21.4735 24.2462C18.6615 24.2838 15.8763 24.0398 13.1527 23.267C11.7021 22.855 10.3059 22.3127 9.06417 21.4089C8.59997 21.0714 8.17929 20.6805 7.87974 20.1744C7.58019 19.6682 7.46123 19.1854 7.50185 18.7086C7.5664 17.9554 8.02915 17.4402 8.21411 17.2331C8.35289 17.0782 8.50675 16.9386 8.67323 16.8166L8.98438 16.6275L8.71602 16.8874C8.65582 16.9552 8.5637 17.0599 8.45056 17.1887L8.386 17.264C8.25749 17.4162 8.14129 17.5792 8.03858 17.7513C7.61355 18.497 7.68245 19.3376 8.21701 20.0064C8.72472 20.6436 9.3775 21.0684 10.0818 21.4254C11.3786 22.083 12.7553 22.4799 14.1638 22.7707C15.7276 23.0852 17.3116 23.2785 18.903 23.3491C20.5846 23.4355 22.2701 23.399 23.9468 23.2399C25.9726 23.0478 27.9737 22.7127 29.9023 22.0039C30.9032 21.6393 31.8693 21.1995 32.6897 20.4749C32.9721 20.2386 33.2097 19.9497 33.3903 19.623C33.7711 18.8834 33.6224 18.1919 33.1647 17.5562C32.7071 16.9205 32.0964 16.495 31.4581 16.0988C31.0359 15.8349 30.594 15.6067 30.1366 15.4164C30.1054 15.4069 30.0766 15.3905 30.0522 15.3682C30.0277 15.346 30.0083 15.3185 29.9951 15.2876C30.6365 15.4706 31.2558 15.7285 31.8411 16.0566C32.475 16.3956 33.0661 16.8008 33.5172 17.389C34.289 18.3915 34.2513 19.553 33.444 20.5314Z" fill="#30A48F"/>
<path d="M14.9512 23.9795C15.2413 24.0307 15.5104 24.0782 15.7809 24.1301C17.679 24.4666 19.6042 24.6086 21.529 24.5542C21.5773 24.5512 21.6258 24.5512 21.6741 24.5542C21.7263 24.5595 21.7981 24.5263 21.8249 24.5903C21.8518 24.6544 21.78 24.6875 21.7444 24.7252C20.9804 25.5246 20.2155 26.3212 19.4495 27.1151C19.2385 27.335 19.0223 27.5497 18.8171 27.7749C18.7235 27.8766 18.6662 27.9014 18.5545 27.7847C17.6015 26.7844 16.6411 25.7924 15.6823 24.7975C15.4814 24.5888 15.2783 24.3809 15.0781 24.1708C15.0154 24.1246 14.9705 24.0568 14.9512 23.9795Z" fill="#0EB8FA"/>
<path d="M24.5006 24.3696C24.5006 25.1778 24.5115 25.986 24.5006 26.7934C24.5006 26.9885 24.555 27.036 24.7356 27.0352C25.8613 27.0269 26.9841 27.0307 28.1127 27.0314C28.252 27.02 28.392 27.0422 28.5217 27.0962C28.4362 27.1697 28.3577 27.2517 28.2875 27.341C27.9531 27.8449 27.4954 27.9586 26.9239 27.9323C25.9251 27.8863 24.9228 27.9149 23.9225 27.924C23.7296 27.924 23.6564 27.8795 23.6593 27.6626C23.6694 26.6669 23.6672 25.6712 23.6593 24.6762C23.6593 24.4977 23.7122 24.4352 23.8812 24.4314C24.0872 24.4224 24.2939 24.39 24.5006 24.3696Z" fill="#11819C"/>
<path d="M20.7443 18.916C20.7443 20.2969 20.7443 21.6778 20.7443 23.0586C20.5086 23.0631 20.2736 23.0654 20.0378 23.0737C19.9334 23.0737 19.8884 23.0368 19.8884 22.923C19.8884 21.901 19.8884 20.8781 19.8884 19.856C19.8847 19.8131 19.8955 19.7703 19.9189 19.7347C20.1974 19.4598 20.436 19.1488 20.7443 18.916Z" fill="#11819C"/>
<path d="M24.5012 15.0039C24.5897 16.1202 24.5266 17.2387 24.5426 18.3557C24.5377 18.507 24.5242 18.6579 24.502 18.8076C24.4954 18.8716 24.4613 18.9236 24.3975 18.9206C24.1502 18.9077 23.8978 18.9763 23.6562 18.8746C23.6562 17.9587 23.665 17.0436 23.6562 16.1277C23.6562 15.9326 23.6925 15.7759 23.8383 15.6517C24.074 15.4498 24.2474 15.1824 24.5012 15.0039Z" fill="#11819C"/>
<path d="M28.5991 23.994C28.6049 23.8543 28.5883 23.7145 28.5498 23.5805L30.173 23.0337C30.2731 23.1293 30.3972 23.1293 30.5219 23.1301L32.3018 23.1384C32.0842 23.4397 31.8093 23.6792 31.5548 23.9405C31.4822 24.0159 31.372 23.9948 31.2762 23.9948C30.3851 23.9953 29.4927 23.995 28.5991 23.994Z" fill="#11819C"/>
<path d="M24.502 15.0039C24.5726 14.9726 24.6502 14.9624 24.7261 14.9746C25.9366 14.9746 27.1472 14.9746 28.357 14.9678C28.5441 14.9678 28.5746 15.0431 28.5746 15.2088C28.5695 16.3499 28.5746 17.491 28.5659 18.6321C28.5659 18.8581 28.6333 18.9048 28.8386 18.9032C29.9302 18.892 31.0225 18.9032 32.1141 18.8927C32.3223 18.8927 32.3745 18.9643 32.365 19.1661C32.348 19.4835 32.348 19.8016 32.365 20.1189C32.3788 20.3404 32.286 20.4661 32.1221 20.5769C31.4841 21.0025 30.8003 21.3491 30.0847 21.6095C28.2475 22.2911 26.3435 22.6489 24.4091 22.8523C23.1919 22.9888 21.9685 23.0572 20.7441 23.0572C20.7441 21.6763 20.7441 20.2954 20.7441 18.9145C20.8445 18.8848 20.949 18.8734 21.0531 18.8807L23.6555 18.8709C23.8971 18.9725 24.1495 18.904 24.3968 18.9168C24.4606 18.9168 24.4947 18.8678 24.5012 18.8038C24.5234 18.6542 24.537 18.5033 24.5419 18.3519C24.5274 17.2387 24.5883 16.1187 24.502 15.0039Z" fill="#07D9A0"/>
<path d="M28.5993 23.9939C28.55 24.0647 28.571 24.1445 28.571 24.2236C28.571 25.092 28.571 25.9605 28.571 26.8289C28.571 26.9193 28.5964 27.0172 28.5261 27.0963C28.3963 27.0422 28.2563 27.0201 28.117 27.0315C26.9913 27.0315 25.8685 27.027 24.7399 27.0353C24.5593 27.0353 24.5028 26.9886 24.5049 26.7935C24.5144 25.9861 24.5049 25.1779 24.5049 24.3697C25.3434 24.2469 26.1848 24.1437 27.0131 23.9562C27.5288 23.841 28.0401 23.7061 28.5543 23.5796C28.5914 23.7141 28.6066 23.8541 28.5993 23.9939Z" fill="#07D9A0"/>
<path d="M32.3036 23.1386L30.5237 23.1303C30.3989 23.1303 30.2749 23.1303 30.1748 23.0339C30.5679 22.82 30.9951 22.6844 31.3817 22.4547C31.6588 22.2905 31.9395 22.1331 32.218 21.9711C32.2775 21.9365 32.3544 21.8672 32.3558 22.0088C32.3558 22.3613 32.3558 22.7145 32.3471 23.0678C32.3486 23.0919 32.3188 23.1152 32.3036 23.1386Z" fill="#07D9A0"/>
<path d="M11.031 6.94624C8.41986 9.03788 6.90323 11.9482 6.90323 11.9482C6.08178 13.5475 5.52543 15.279 5.25751 17.07C4.67218 20.9113 5.33004 24.5553 7.33769 27.8408C10.1882 32.5061 14.3144 35.1001 19.6491 35.3939C24.249 35.647 28.1671 33.9477 31.3991 30.5463C31.4419 30.5011 31.4847 30.4552 31.5289 30.4115C31.534 30.4054 31.5478 30.4115 31.616 30.4664C30.9588 31.1692 30.3394 31.9156 29.6388 32.5679C26.0985 35.8631 21.9309 37.3703 17.1968 37.0396C15.462 36.9271 13.7552 36.53 12.14 35.8631C11.5793 35.6296 8.89566 34.4803 6.40495 31.8523C5.46924 30.8666 4.6508 29.7679 3.96718 28.5797C3.6362 27.9928 3.33832 27.3865 3.07505 26.7637C2.29256 24.9251 1.81299 22.9631 1.65635 20.9595C1.57492 19.7359 1.61747 18.5067 1.78328 17.2922C1.94502 16.0871 2.39399 13.008 4.4894 9.83552C4.81434 9.34443 6.15762 7.36878 8.59466 5.56336C9.642 4.78606 12.3039 2.86238 16.2982 2.33966C20.3142 1.81242 23.2945 3.01151 25.2659 3.80463C25.2659 3.80463 27.0487 4.52168 29.9572 7.07805C29.9777 7.09669 29.9947 7.11917 30.0072 7.14433C30.0116 7.15412 30.0239 7.18349 30.0203 7.18801C29.9753 7.24752 28.7423 6.25103 28.7423 6.25103C27.9503 5.61156 25.1281 3.88673 21.305 3.64119C21.305 3.64119 17.4333 3.39188 13.7516 5.21237C13.2264 5.47642 12.7147 5.7683 12.2183 6.08683C12.2183 6.08683 11.6083 6.48377 11.031 6.94624Z" fill="#03CDAF"/>
</svg>
