<svg width="12" height="12" viewBox="0 0 12 12" fill="none" xmlns="http://www.w3.org/2000/svg">
<path d="M6.5 6.0875L7.625 7.2125C7.71667 7.30417 7.7625 7.41883 7.7625 7.5565C7.7625 7.69383 7.71667 7.8125 7.625 7.9125C7.525 8.0125 7.40633 8.0625 7.269 8.0625C7.13133 8.0625 7.0125 8.0125 6.9125 7.9125L5.85 6.85C5.73333 6.73333 5.64583 6.60417 5.5875 6.4625C5.52917 6.32083 5.5 6.16667 5.5 6V4.5C5.5 4.35833 5.548 4.2395 5.644 4.1435C5.73967 4.04783 5.85833 4 6 4C6.14167 4 6.2605 4.04783 6.3565 4.1435C6.45217 4.2395 6.5 4.35833 6.5 4.5V6.0875ZM6 2C6.14167 2 6.2605 2.04783 6.3565 2.1435C6.45217 2.2395 6.5 2.35833 6.5 2.5C6.5 2.64167 6.45217 2.7605 6.3565 2.8565C6.2605 2.95217 6.14167 3 6 3C5.85833 3 5.73967 2.95217 5.644 2.8565C5.548 2.7605 5.5 2.64167 5.5 2.5C5.5 2.35833 5.548 2.2395 5.644 2.1435C5.73967 2.04783 5.85833 2 6 2ZM10 6C10 6.14167 9.952 6.26033 9.856 6.356C9.76033 6.452 9.64167 6.5 9.5 6.5C9.35833 6.5 9.23967 6.452 9.144 6.356C9.048 6.26033 9 6.14167 9 6C9 5.85833 9.048 5.7395 9.144 5.6435C9.23967 5.54783 9.35833 5.5 9.5 5.5C9.64167 5.5 9.76033 5.54783 9.856 5.6435C9.952 5.7395 10 5.85833 10 6ZM6 9C6.14167 9 6.2605 9.048 6.3565 9.144C6.45217 9.23967 6.5 9.35833 6.5 9.5C6.5 9.64167 6.45217 9.76033 6.3565 9.856C6.2605 9.952 6.14167 10 6 10C5.85833 10 5.73967 9.952 5.644 9.856C5.548 9.76033 5.5 9.64167 5.5 9.5C5.5 9.35833 5.548 9.23967 5.644 9.144C5.73967 9.048 5.85833 9 6 9ZM3 6C3 6.14167 2.95217 6.26033 2.8565 6.356C2.7605 6.452 2.64167 6.5 2.5 6.5C2.35833 6.5 2.2395 6.452 2.1435 6.356C2.04783 6.26033 2 6.14167 2 6C2 5.85833 2.04783 5.7395 2.1435 5.6435C2.2395 5.54783 2.35833 5.5 2.5 5.5C2.64167 5.5 2.7605 5.54783 2.8565 5.6435C2.95217 5.7395 3 5.85833 3 6ZM6 11C5.30833 11 4.65833 10.8687 4.05 10.606C3.44167 10.3437 2.9125 9.9875 2.4625 9.5375C2.0125 9.0875 1.65633 8.55833 1.394 7.95C1.13133 7.34167 1 6.69167 1 6C1 5.30833 1.13133 4.65833 1.394 4.05C1.65633 3.44167 2.0125 2.9125 2.4625 2.4625C2.9125 2.0125 3.44167 1.65617 4.05 1.3935C4.65833 1.13117 5.30833 1 6 1C6.69167 1 7.34167 1.13117 7.95 1.3935C8.55833 1.65617 9.0875 2.0125 9.5375 2.4625C9.9875 2.9125 10.3437 3.44167 10.606 4.05C10.8687 4.65833 11 5.30833 11 6C11 6.69167 10.8687 7.34167 10.606 7.95C10.3437 8.55833 9.9875 9.0875 9.5375 9.5375C9.0875 9.9875 8.55833 10.3437 7.95 10.606C7.34167 10.8687 6.69167 11 6 11ZM6 10C7.11667 10 8.0625 9.6125 8.8375 8.8375C9.6125 8.0625 10 7.11667 10 6C10 4.88333 9.6125 3.9375 8.8375 3.1625C8.0625 2.3875 7.11667 2 6 2C4.88333 2 3.9375 2.3875 3.1625 3.1625C2.3875 3.9375 2 4.88333 2 6C2 7.11667 2.3875 8.0625 3.1625 8.8375C3.9375 9.6125 4.88333 10 6 10Z" fill="#003762"/>
</svg>
