<svg width="20" height="21" viewBox="0 0 20 21" fill="none" xmlns="http://www.w3.org/2000/svg">
<path d="M0 1.92857C0 1.54969 0.131696 1.18633 0.366117 0.918419C0.600537 0.65051 0.918479 0.5 1.25 0.5H18.75C19.0815 0.5 19.3995 0.65051 19.6339 0.918419C19.8683 1.18633 20 1.54969 20 1.92857C20 2.30745 19.8683 2.67081 19.6339 2.93872C19.3995 3.20663 19.0815 3.35714 18.75 3.35714H1.25C0.918479 3.35714 0.600537 3.20663 0.366117 2.93872C0.131696 2.67081 0 2.30745 0 1.92857ZM0 19.0714C0 18.6925 0.131696 18.3292 0.366117 18.0613C0.600537 17.7934 0.918479 17.6429 1.25 17.6429H18.75C19.0815 17.6429 19.3995 17.7934 19.6339 18.0613C19.8683 18.3292 20 18.6925 20 19.0714C20 19.4503 19.8683 19.8137 19.6339 20.0816C19.3995 20.3495 19.0815 20.5 18.75 20.5H1.25C0.918479 20.5 0.600537 20.3495 0.366117 20.0816C0.131696 19.8137 0 19.4503 0 19.0714ZM8.75 9.07143C8.41848 9.07143 8.10054 9.22194 7.86612 9.48985C7.6317 9.75776 7.5 10.1211 7.5 10.5C7.5 10.8789 7.6317 11.2422 7.86612 11.5102C8.10054 11.7781 8.41848 11.9286 8.75 11.9286H18.75C19.0815 11.9286 19.3995 11.7781 19.6339 11.5102C19.8683 11.2422 20 10.8789 20 10.5C20 10.1211 19.8683 9.75776 19.6339 9.48985C19.3995 9.22194 19.0815 9.07143 18.75 9.07143H8.75Z" fill="#003762"/>
</svg>
