<svg width="11" height="15" viewBox="0 0 11 15" fill="none" xmlns="http://www.w3.org/2000/svg">
<path d="M1.28125 6.09375C1.40557 6.09375 1.5248 6.14314 1.61271 6.23104C1.70061 6.31895 1.75 6.43818 1.75 6.5625V7.5C1.75 8.49456 2.14509 9.44839 2.84835 10.1517C3.55161 10.8549 4.50544 11.25 5.5 11.25C6.49456 11.25 7.44839 10.8549 8.15165 10.1517C8.85491 9.44839 9.25 8.49456 9.25 7.5V6.5625C9.25 6.43818 9.29939 6.31895 9.38729 6.23104C9.4752 6.14314 9.59443 6.09375 9.71875 6.09375C9.84307 6.09375 9.9623 6.14314 10.0502 6.23104C10.1381 6.31895 10.1875 6.43818 10.1875 6.5625V7.5C10.1875 8.66206 9.75589 9.7827 8.97636 10.6445C8.19684 11.5063 7.12498 12.0479 5.96875 12.1641V14.0625H8.78125C8.90557 14.0625 9.0248 14.1119 9.11271 14.1998C9.20061 14.2877 9.25 14.4069 9.25 14.5312C9.25 14.6556 9.20061 14.7748 9.11271 14.8627C9.0248 14.9506 8.90557 15 8.78125 15H2.21875C2.09443 15 1.9752 14.9506 1.88729 14.8627C1.79939 14.7748 1.75 14.6556 1.75 14.5312C1.75 14.4069 1.79939 14.2877 1.88729 14.1998C1.9752 14.1119 2.09443 14.0625 2.21875 14.0625H5.03125V12.1641C3.87502 12.0479 2.80316 11.5063 2.02364 10.6445C1.24411 9.7827 0.812485 8.66206 0.8125 7.5V6.5625C0.8125 6.43818 0.861886 6.31895 0.949794 6.23104C1.0377 6.14314 1.15693 6.09375 1.28125 6.09375Z" fill="#003762"/>
<path d="M7.375 7.5C7.375 7.99728 7.17746 8.47419 6.82582 8.82582C6.47419 9.17746 5.99728 9.375 5.5 9.375C5.00272 9.375 4.52581 9.17746 4.17417 8.82582C3.82254 8.47419 3.625 7.99728 3.625 7.5V2.8125C3.625 2.31522 3.82254 1.83831 4.17417 1.48667C4.52581 1.13504 5.00272 0.9375 5.5 0.9375C5.99728 0.9375 6.47419 1.13504 6.82582 1.48667C7.17746 1.83831 7.375 2.31522 7.375 2.8125V7.5ZM5.5 0C4.75408 0 4.03871 0.296316 3.51126 0.823762C2.98382 1.35121 2.6875 2.06658 2.6875 2.8125V7.5C2.6875 8.24592 2.98382 8.96129 3.51126 9.48874C4.03871 10.0162 4.75408 10.3125 5.5 10.3125C6.24592 10.3125 6.96129 10.0162 7.48874 9.48874C8.01618 8.96129 8.3125 8.24592 8.3125 7.5V2.8125C8.3125 2.06658 8.01618 1.35121 7.48874 0.823762C6.96129 0.296316 6.24592 0 5.5 0V0Z" fill="#003762"/>
</svg>
