<svg width="15" height="20" viewBox="0 0 15 20" fill="none" xmlns="http://www.w3.org/2000/svg">
<path d="M13.3344 9.99825C13.3344 10.7034 13.2259 11.3822 13.0274 12.0149L12.0881 10.9972C12.1495 10.6684 12.1805 10.3337 12.1804 9.99825V8.74803C12.1804 8.58224 12.2412 8.42325 12.3494 8.30602C12.4576 8.18878 12.6044 8.12292 12.7574 8.12292C12.9104 8.12292 13.0572 8.18878 13.1654 8.30602C13.2736 8.42325 13.3344 8.58224 13.3344 8.74803V9.99825ZM7.56418 14.9991C8.50819 14.9991 9.38527 14.6928 10.1169 14.1652L10.9455 15.0641C10.1217 15.7113 9.15389 16.1096 8.14121 16.2181V18.7498H11.6034C11.7564 18.7498 11.9032 18.8156 12.0114 18.9329C12.1196 19.0501 12.1804 19.2091 12.1804 19.3749C12.1804 19.5407 12.1196 19.6997 12.0114 19.8169C11.9032 19.9341 11.7564 20 11.6034 20H3.52502C3.37198 20 3.22521 19.9341 3.117 19.8169C3.00879 19.6997 2.94799 19.5407 2.94799 19.3749C2.94799 19.2091 3.00879 19.0501 3.117 18.9329C3.22521 18.8156 3.37198 18.7498 3.52502 18.7498H6.98716V16.2181C5.56385 16.0631 4.24442 15.3409 3.28484 14.1917C2.32525 13.0424 1.79393 11.5479 1.79395 9.99825V8.74803C1.79395 8.58224 1.85474 8.42325 1.96295 8.30602C2.07116 8.18878 2.21793 8.12292 2.37097 8.12292C2.52401 8.12292 2.67077 8.18878 2.77899 8.30602C2.8872 8.42325 2.94799 8.58224 2.94799 8.74803V9.99825C2.94799 11.3246 3.43434 12.5966 4.30004 13.5344C5.16575 14.4722 6.33989 14.9991 7.56418 14.9991ZM11.0263 3.74716V9.84698L9.87228 8.59676V3.74716C9.87495 3.09487 9.64221 2.46728 9.22374 1.99827C8.80526 1.52927 8.23417 1.25599 7.63232 1.23674C7.03046 1.21749 6.44549 1.4538 6.0022 1.89524C5.55891 2.33668 5.29241 2.94831 5.25955 3.59963L4.28438 2.5432C4.54859 1.7021 5.07975 0.989875 5.7833 0.533307C6.48684 0.076739 7.31712 -0.0945384 8.12632 0.0499665C8.93552 0.194471 9.67113 0.645381 10.2022 1.32242C10.7332 1.99946 11.0253 2.8587 11.0263 3.74716Z" fill="#003762"/>
<path d="M9.27918 13.2571L8.41595 12.322C8.06584 12.4726 7.68702 12.528 7.31257 12.4835C6.93811 12.439 6.57941 12.2959 6.26775 12.0667C5.9561 11.8374 5.70098 11.529 5.52465 11.1684C5.34832 10.8078 5.25614 10.4059 5.25617 9.99782V8.90013L4.10212 7.64991V9.99782C4.10194 10.6546 4.26095 11.2999 4.56325 11.8692C4.86555 12.4384 5.30053 12.9118 5.82469 13.2418C6.34885 13.5718 6.9438 13.7469 7.55004 13.7496C8.15627 13.7523 8.75254 13.5825 9.27918 13.2571ZM0.231445 1.68887L14.08 16.6915L14.8971 15.8063L1.04851 0.803711L0.231445 1.68887Z" fill="#003762"/>
</svg>
