<svg width="17" height="18" viewBox="0 0 17 18" fill="none" xmlns="http://www.w3.org/2000/svg">
<path d="M6.3756 0.857315C6.47932 0.98341 6.54286 1.13773 6.55802 1.30032C6.57317 1.46292 6.53924 1.62633 6.4606 1.76944C5.84627 2.89787 5.52545 4.16274 5.52764 5.44769C5.52764 9.72234 9.01084 13.1837 13.3037 13.1837C13.8637 13.1837 14.4088 13.1253 14.9327 13.0136C15.0933 12.9788 15.2606 12.9922 15.4136 13.0519C15.5667 13.1116 15.6988 13.2152 15.7934 13.3496C15.8933 13.4893 15.9442 13.6582 15.9382 13.8298C15.9323 14.0015 15.8698 14.1664 15.7605 14.2989C14.9271 15.3231 13.8757 16.1483 12.683 16.7144C11.4903 17.2805 10.1864 17.5732 8.86633 17.5711C3.96775 17.5711 0 13.6228 0 8.75813C0 5.09688 2.24634 1.95654 5.44476 0.625564C5.60408 0.558199 5.78095 0.544372 5.9488 0.586162C6.11665 0.627951 6.26642 0.7231 6.3756 0.857315V0.857315Z" fill="#00CDB0"/>
<path d="M11.4697 3.90748C11.485 3.86145 11.5143 3.82138 11.5536 3.79299C11.5929 3.76459 11.6402 3.74931 11.6886 3.74931C11.7371 3.74931 11.7843 3.76459 11.8236 3.79299C11.8629 3.82138 11.8923 3.86145 11.9075 3.90748L12.3188 5.14278C12.5026 5.69346 12.934 6.12507 13.4844 6.30898L14.7192 6.72039C14.7652 6.73564 14.8052 6.765 14.8336 6.80432C14.862 6.84363 14.8773 6.89089 14.8773 6.93939C14.8773 6.98788 14.862 7.03515 14.8336 7.07446C14.8052 7.11377 14.7652 7.14314 14.7192 7.15838L13.4844 7.56979C13.213 7.66028 12.9663 7.81278 12.764 8.0152C12.5616 8.21762 12.4092 8.4644 12.3188 8.73599L11.9075 9.97129C11.8923 10.0173 11.8629 10.0574 11.8236 10.0858C11.7843 10.1142 11.7371 10.1295 11.6886 10.1295C11.6402 10.1295 11.5929 10.1142 11.5536 10.0858C11.5143 10.0574 11.485 10.0173 11.4697 9.97129L11.0585 8.73599C10.9681 8.4644 10.8156 8.21762 10.6133 8.0152C10.411 7.81278 10.1643 7.66028 9.89284 7.56979L8.6581 7.15838C8.61208 7.14314 8.57204 7.11377 8.54366 7.07446C8.51528 7.03515 8.5 6.98788 8.5 6.93939C8.5 6.89089 8.51528 6.84363 8.54366 6.80432C8.57204 6.765 8.61208 6.73564 8.6581 6.72039L9.89284 6.30898C10.1643 6.2185 10.411 6.066 10.6133 5.86358C10.8156 5.66116 10.9681 5.41437 11.0585 5.14278L11.4697 3.90748V3.90748ZM14.7309 0.666153C14.7413 0.635883 14.761 0.609635 14.7871 0.591059C14.8132 0.572482 14.8444 0.5625 14.8764 0.5625C14.9085 0.5625 14.9397 0.572482 14.9658 0.591059C14.9919 0.609635 15.0115 0.635883 15.022 0.666153L15.2962 1.48898C15.4184 1.8568 15.7063 2.1449 16.074 2.26715L16.8964 2.54143C16.9267 2.55192 16.9529 2.57159 16.9715 2.59769C16.9901 2.62379 17 2.65503 17 2.68707C17 2.71911 16.9901 2.75035 16.9715 2.77645C16.9529 2.80255 16.9267 2.82222 16.8964 2.83271L16.074 3.10698C15.8928 3.16729 15.7282 3.26902 15.5931 3.4041C15.4581 3.53918 15.3564 3.70389 15.2962 3.88516L15.022 4.70798C15.0115 4.73825 14.9919 4.7645 14.9658 4.78308C14.9397 4.80165 14.9085 4.81164 14.8764 4.81164C14.8444 4.81164 14.8132 4.80165 14.7871 4.78308C14.761 4.7645 14.7413 4.73825 14.7309 4.70798L14.4567 3.88516C14.3964 3.70389 14.2947 3.53918 14.1597 3.4041C14.0247 3.26902 13.8601 3.16729 13.6789 3.10698L12.8564 2.83271C12.8262 2.82222 12.7999 2.80255 12.7814 2.77645C12.7628 2.75035 12.7528 2.71911 12.7528 2.68707C12.7528 2.65503 12.7628 2.62379 12.7814 2.59769C12.7999 2.57159 12.8262 2.55192 12.8564 2.54143L13.6789 2.26715C14.0465 2.1449 14.3345 1.8568 14.4567 1.48898L14.7309 0.667216V0.666153Z" fill="#00CDB0"/>
</svg>
