<svg width="255" height="246" viewBox="0 0 255 246" fill="none" xmlns="http://www.w3.org/2000/svg">
<path d="M169.36 38.2225C171.148 38.6061 172.943 38.8838 174.446 40.094C175.899 41.2831 176.844 42.9794 177.09 44.8386C177.336 46.6979 176.864 48.581 175.771 50.1059C175.347 50.6614 174.877 51.1772 174.373 51.7724C175.137 52.0352 175.952 52.1123 176.751 51.9972C185.256 51.9972 193.76 52.103 202.258 51.9509C205.179 51.898 207.338 53.4521 206.894 56.4477C206.79 56.7947 206.768 57.1612 206.83 57.5181C206.892 57.8751 207.037 58.2127 207.252 58.5043C207.557 59.073 207.285 59.6748 207.338 60.2567C207.272 63.4706 207.417 66.6779 207.398 69.8851C207.398 74.1571 206.133 75.4201 201.88 75.4267C185.94 75.4267 169.993 75.4267 154.04 75.4267C148.595 75.4267 143.151 75.4267 137.7 75.4267C133.646 75.4267 132.183 73.8925 132.116 69.7992C132.063 66.4596 132.388 63.1201 132.05 59.7872C131.951 59.4392 131.911 59.0772 131.931 58.7159C132.03 57.8033 132.136 56.8974 132.196 55.9782C132.388 53.0883 133.931 51.5542 136.832 51.4748C140.309 51.3822 143.787 51.4748 147.264 51.4748C152.119 51.4748 156.974 51.4748 161.835 51.4748C162.498 51.4748 163.16 51.6533 163.862 51.1904C163.2 49.8679 162.326 48.6246 162.153 47.0904C161.657 42.7127 163.438 40.0874 168.346 38.0771C168.514 38.0174 168.694 37.9995 168.871 38.0248C169.047 38.0502 169.215 38.118 169.36 38.2225Z" fill="#003056"/>
<path d="M48.5033 39.611C48.7285 38.6587 48.2053 37.8255 48.0066 36.9658C47.3442 34.162 48.245 32.7071 51.007 31.8739C59.8624 29.2287 68.698 26.491 77.5402 23.7863C77.5932 23.7863 77.6263 23.6937 77.8449 23.4425C75.116 21.8289 73.076 19.726 73.2085 16.2807C73.1896 14.6983 73.7157 13.1575 74.6988 11.9162C77.2223 8.88084 81.0837 8.27906 84.6338 10.296C87.6673 12.0352 88.4621 16.1286 86.5083 20.9692C88.7205 20.3542 90.7538 19.8384 92.7541 19.2234C99.861 17.0345 106.948 14.7994 114.062 12.6105C116.519 11.8566 118.036 12.6965 118.903 15.1829C119.208 16.0426 119.566 16.8891 119.864 17.7355C120.241 17.9485 120.525 18.2955 120.658 18.7076C121.428 21.9523 122.372 25.1532 123.487 28.2963C124.712 32.1649 123.699 34.0694 119.837 35.2465C106.127 39.4192 92.3832 43.506 78.6993 47.811C71.7712 49.9337 64.9094 52.0565 57.9747 54.0536C54.3385 55.0984 52.8284 54.2321 51.5898 50.6083C50.5102 47.4473 49.7551 44.1937 48.6159 41.0526C48.457 40.5831 48.086 40.1268 48.5033 39.611Z" fill="#003056"/>
<path d="M96.5688 239.122C96.3405 239.195 96.0967 239.204 95.8634 239.15C95.6302 239.095 95.4161 238.978 95.2441 238.811C95.3794 238.587 95.56 238.394 95.7744 238.244C95.9888 238.093 96.2323 237.989 96.4893 237.938C97.7851 237.729 99.1003 237.665 100.41 237.747C146.73 237.747 193.049 237.758 239.369 237.78C244.668 237.78 246.767 236.742 246.754 230.459C246.648 175.96 246.63 121.459 246.701 66.9553C246.701 65.183 246.701 63.4174 246.039 61.7443C245.966 61.4943 245.976 61.2277 246.067 60.9838C246.157 60.7398 246.324 60.5312 246.542 60.3887C247.218 60.9559 247.75 61.6743 248.095 62.4856C248.44 63.2968 248.589 64.178 248.529 65.0574C248.529 120.958 248.529 176.855 248.529 232.747C248.529 236.146 246.635 238.441 243.356 239.102C242.655 238.924 241.928 238.877 241.21 238.963C193.707 238.963 146.202 238.963 98.6949 238.963C97.9829 238.866 97.2583 238.92 96.5688 239.122Z" fill="#00CDB0"/>
<path d="M48.5032 39.6113L48.8211 40.3983C48.6688 41.1587 47.9733 41.1323 47.4501 41.291C37.7888 44.2051 28.154 47.1941 18.5457 50.2581C17.6714 50.5358 16.7507 50.6284 15.8963 50.9194C12.8032 52.0105 11.5249 54.411 12.4257 57.572C14.9492 66.387 17.7244 75.1292 20.3737 83.8913C24.1093 96.0987 27.8471 108.306 31.5871 120.514C35.0931 131.901 38.599 143.288 42.105 154.676C44.4828 162.367 46.8407 170.071 49.0927 177.821C50.8346 183.773 52.7024 189.724 54.5702 195.676C56.7957 202.732 58.9019 209.827 61.081 216.897C62.2865 220.792 64.9226 222.187 68.7774 220.917C74.4337 219.019 80.2159 217.551 85.8524 215.587C86.4663 215.345 87.1298 215.254 87.7864 215.323C87.9922 215.361 88.1864 215.446 88.3541 215.571C88.5218 215.696 88.6584 215.857 88.7535 216.044C86.5942 217.181 84.1767 217.565 81.885 218.325C77.3546 219.826 72.7448 221.096 68.168 222.471C64.4324 223.596 61.1671 221.989 59.9749 218.232C58.0409 212.188 56.2128 206.111 54.3715 200.034C51.1658 189.453 47.9932 178.912 44.7809 168.358C41.1645 156.494 37.5283 144.635 33.8722 132.781C30.1498 120.732 26.3414 108.71 22.6124 96.6542C19.5855 86.7878 16.6514 76.8883 13.6775 67.0086C12.8827 64.3634 11.9687 61.7976 11.1474 59.1855C9.90879 55.2178 10.591 52.2949 13.2668 50.5887C14.9227 49.5108 16.9163 49.1736 18.7841 48.6049C27.7168 45.8407 36.6562 43.0875 45.6022 40.3454C46.5824 40.0147 47.5494 39.8428 48.5032 39.6113Z" fill="#00CDB0"/>
<path d="M96.1442 238.355C95.972 238.732 95.6209 238.752 95.2765 238.811C94.212 238.525 93.2656 237.909 92.5731 237.053C91.8805 236.196 91.4775 235.143 91.4217 234.043C91.6652 233.363 91.7268 232.632 91.6006 231.921C90.8852 176.584 91.4018 121.254 91.2429 65.9368C91.2827 65.2182 91.2427 64.4974 91.1237 63.7876C91.1237 63.252 91.0773 62.7031 91.786 62.5576C91.9707 62.6257 92.1379 62.734 92.2754 62.8747C92.4128 63.0154 92.5172 63.185 92.5808 63.371C92.851 64.6529 92.9335 65.9671 92.8259 67.2726C92.8259 121.551 92.8259 175.832 92.8259 230.115C92.8259 231.101 92.8259 232.099 92.8259 233.065C92.8279 233.788 92.9976 234.501 93.3216 235.148C93.6457 235.795 94.1153 236.359 94.6937 236.794C95.3363 237.141 95.8462 237.689 96.1442 238.355Z" fill="#00CDB0"/>
<path d="M91.4614 63.4248C92.031 64.0861 91.7727 64.9392 91.7727 65.693C91.7727 121.122 91.7727 176.554 91.7727 231.988C91.7727 232.649 92.0442 233.436 91.4415 234.044C91.4018 228.754 91.362 223.464 91.3223 218.173C91.3223 215.449 91.3223 215.449 88.7855 216.051C88.4544 215.958 88.0636 215.984 87.8848 215.588C88.0835 215.416 87.7722 215.522 88.004 215.436C90.9911 214.331 90.8255 211.884 90.8189 209.325C90.7836 162.012 90.7836 114.695 90.8189 67.3727C90.7924 66.0369 90.395 64.5887 91.4614 63.4248Z" fill="#00CDB0"/>
<path d="M120.162 18.3702L119.811 17.7089C124.447 16.2739 129.037 14.8257 133.66 13.4039C139.707 11.5391 145.84 9.88583 151.801 7.7697C156.637 6.05034 160.471 8.24583 161.737 12.8682C164.088 21.3658 166.79 29.7576 169.347 38.1957L168.519 38.2287C167.512 38.0105 167.578 37.0715 167.36 36.3837C165.035 28.8781 162.81 21.3394 160.452 13.8403C160.241 13.0821 159.989 12.336 159.697 11.6052C159.288 10.5686 158.523 9.71111 157.539 9.18643C156.554 8.66174 155.415 8.50412 154.325 8.7418C151.417 9.29067 148.655 10.3686 145.827 11.2018C141.688 12.4252 137.568 13.7478 133.428 14.9976C129.719 16.1086 126.083 17.4444 122.327 18.3834C121.612 18.5487 120.864 19.1307 120.162 18.3702Z" fill="#00CDB0"/>
<path d="M96.5684 239.123C97.2307 238.508 98.0785 238.805 98.8269 238.805C146.321 238.805 193.813 238.805 241.302 238.805C241.965 238.805 242.753 238.528 243.369 239.103C242.647 239.143 241.932 239.209 241.21 239.209H98.5289C97.8798 239.209 97.2241 239.149 96.5684 239.123Z" fill="#00CDB0"/>
<path d="M246.541 60.3891C246.563 60.5429 246.529 60.6994 246.447 60.8312C246.365 60.963 246.239 61.0617 246.091 61.1099C241.534 59.4104 236.818 60.1841 232.122 60.118C224.922 60.0121 217.716 60.118 210.51 60.118C209.528 60.1876 208.542 60.1275 207.576 59.9394C207.335 59.861 207.12 59.7194 206.953 59.5294L207.271 58.5375C218.703 58.425 230.135 58.3655 241.567 58.5375C243.395 58.532 245.163 59.19 246.541 60.3891Z" fill="#00CDB0"/>
<path d="M206.955 59.5157L207.207 59.6017C207.929 60.349 207.796 61.3078 207.816 62.2072C207.909 65.5136 207.902 65.5136 211.307 65.5136C217.148 65.5136 222.988 65.5136 228.825 65.5136C229.488 65.5136 230.15 65.5136 230.812 65.5136C234.124 65.6128 235.277 66.6775 235.687 69.9244C235.791 70.9681 235.828 72.0172 235.8 73.0656C235.8 100.588 236.124 128.118 235.694 155.628C235.383 175.81 235.628 195.966 235.409 216.162C235.363 220.236 234.343 221.287 230.256 221.294H109.353C105.266 221.294 104.18 220.189 104.18 215.944C104.154 194.452 104.154 172.96 104.18 151.468V72.0803C104.18 66.3138 104.968 65.5401 110.803 65.5401C116.904 65.5401 123.01 65.5401 129.11 65.5401C131.541 65.5401 131.694 65.3483 131.76 62.9941C131.701 62.0134 131.765 61.0293 131.952 60.0646C132.037 59.8129 132.182 59.5859 132.376 59.4033C133.118 59.939 132.813 60.7259 132.813 61.3872C132.813 64.5283 132.813 67.6761 132.813 70.8172C132.813 73.5549 134.051 74.7386 136.787 74.7386H202.921C205.882 74.7386 206.895 73.7136 206.928 70.6915C206.948 66.9553 206.942 63.2256 206.955 59.5157Z" fill="#E0F1FF"/>
<path d="M120.161 18.3709C126.93 16.6251 133.547 14.4032 140.23 12.3598C144.661 11.0372 149.053 9.55595 153.523 8.39207C157.166 7.43982 159.445 8.88804 160.551 12.4458C163.2 21.047 165.849 29.6437 168.499 38.2361C167.285 38.8397 166.128 39.5501 165.041 40.3588C163.601 41.6314 162.723 43.4212 162.598 45.3376C162.474 47.2541 163.114 49.1419 164.379 50.589C164.67 50.9395 164.969 51.2503 165.3 51.6603C164.637 52.2753 163.902 51.9777 163.24 51.9777C154.709 51.9777 146.178 51.9777 137.647 51.9777C133.911 51.9777 132.819 53.0358 132.759 56.6927C132.759 57.354 132.891 58.0153 132.375 58.5576C131.62 59.4569 130.573 59.2189 129.62 59.2189C120.069 59.2189 110.504 59.3313 100.954 59.1792C97.3438 59.1197 94.0454 59.3114 91.7471 62.5451C91.6148 62.6432 91.5164 62.7799 91.4654 62.9363C91.4144 63.0927 91.4133 63.261 91.4623 63.418C91.4026 64.4629 91.2834 65.5011 91.2834 66.5459C91.2834 112.739 91.2834 158.933 91.2834 205.126C91.2834 207.48 91.1775 209.854 91.3629 212.195C91.5285 214.212 90.7469 215.138 88.8195 215.31C88.496 215.367 88.1788 215.456 87.8724 215.574C81.812 217.419 75.7185 219.165 69.6978 221.149C64.5316 222.849 61.9485 221.612 60.3655 216.427C55.5084 200.556 50.6512 184.685 45.7941 168.814C42.3698 157.619 39.0184 146.403 35.5742 135.208C30.653 119.211 25.6391 103.234 20.7511 87.2311C17.6977 77.3118 14.7172 67.3263 11.7367 57.3672C11.5153 56.6781 11.4362 55.9513 11.504 55.2307C11.5718 54.5101 11.7852 53.8107 12.1312 53.1748C12.4772 52.5388 12.9487 51.9795 13.5173 51.5305C14.0858 51.0815 14.7396 50.7523 15.4391 50.5626C23.7978 47.9174 32.183 45.4376 40.5616 42.8916C43.3236 42.0518 46.0855 41.2318 48.8408 40.4051C50.3377 43.6455 51 47.2032 52.1194 50.6022C53.2388 54.0013 54.3117 54.6097 57.6234 53.6243C66.8167 50.891 75.9812 48.0761 85.1171 45.1797C94.9925 42.0716 104.954 39.228 114.863 36.2324C116.671 35.6901 118.459 35.0751 120.287 34.5726C123.307 33.7393 124.129 31.8414 123.148 28.8524C122.168 25.8634 121.241 22.7553 120.274 19.7134C120.098 19.2883 120.059 18.8193 120.161 18.3709Z" fill="white"/>
<path d="M165.411 45.7416C165.411 43.1692 167.259 41.4167 169.902 41.4234C170.488 41.4 171.073 41.496 171.621 41.7054C172.169 41.9149 172.668 42.2334 173.089 42.6417C173.51 43.05 173.843 43.5394 174.068 44.0803C174.293 44.6212 174.406 45.2021 174.399 45.7879C174.399 46.3897 174.277 46.9854 174.043 47.5397C173.808 48.094 173.464 48.5958 173.032 49.0155C172.6 49.4351 172.088 49.7642 171.527 49.9833C170.965 50.2024 170.366 50.3071 169.763 50.2913C169.174 50.2929 168.59 50.1747 168.048 49.944C167.505 49.7133 167.016 49.3748 166.609 48.9492C166.202 48.5236 165.886 48.0197 165.68 47.4683C165.474 46.9169 165.383 46.3294 165.411 45.7416Z" fill="#00CDB0"/>
<path d="M91.7461 62.5517C92.7661 59.8206 94.8657 58.584 97.6541 58.584C109.225 58.584 120.796 58.584 132.374 58.584C132.374 58.8551 132.374 59.1262 132.374 59.3908V59.5164C131.466 60.2372 130.387 60.0587 129.354 60.0587C119.419 60.0587 109.45 60.105 99.5021 60.0587C96.9521 60.0587 94.667 60.343 93.1105 62.6377C93.0168 62.7739 92.8878 62.8821 92.7374 62.9508C92.5869 63.0195 92.4205 63.0461 92.2561 63.0279L91.7461 62.5517Z" fill="#00CDB0"/>
<path d="M80.5134 11.7709C81.1318 11.7704 81.7439 11.8946 82.3131 12.1359C82.8823 12.3772 83.3969 12.7307 83.8261 13.1753C84.2553 13.6198 84.5902 14.1463 84.8108 14.7231C85.0314 15.2999 85.1331 15.9152 85.11 16.5322C85.1007 17.1336 84.9713 17.7272 84.7294 18.2781C84.4876 18.829 84.1381 19.3262 83.7014 19.7406C83.2647 20.1551 82.7497 20.4784 82.1863 20.6916C81.623 20.9049 81.0227 21.0038 80.4206 20.9827C79.7732 21.0452 79.1199 20.971 78.5031 20.7649C77.8863 20.5589 77.3198 20.2255 76.8404 19.7866C76.3611 19.3477 75.9796 18.8129 75.7208 18.2172C75.462 17.6214 75.3316 16.9779 75.3381 16.3286C75.3447 15.6792 75.488 15.0385 75.7588 14.448C76.0295 13.8576 76.4217 13.3306 76.9098 12.9014C77.3979 12.4722 77.971 12.1503 78.5918 11.9567C79.2126 11.763 79.8673 11.702 80.5134 11.7775V11.7709Z" fill="#00CDB0"/>
<path d="M92.2363 63.0275C93.561 60.303 95.7732 59.3838 98.7868 59.4169C109.974 59.5491 121.167 59.5095 132.354 59.5293C132.291 61.0345 132.304 62.542 132.394 64.0459C132.586 65.8645 131.824 66.2149 130.155 66.1951C123.068 66.1091 115.981 66.1554 108.894 66.1951C105.702 66.1951 104.801 67.0746 104.801 70.229C104.801 80.7743 104.801 91.3219 104.801 101.872V216.242C104.801 220.117 105.364 220.686 109.219 220.686H230.493C234.215 220.686 234.758 220.13 234.758 216.341C234.758 198.585 234.46 180.823 234.831 163.074C235.46 132.655 234.91 102.169 235.169 71.7169C235.163 70.5445 235.018 69.377 234.738 68.2385C234.341 66.5191 233.003 66.1554 231.427 66.1554C224.141 66.1554 216.855 66.0959 209.569 66.2017C207.629 66.2017 206.986 65.5404 207.152 63.7086C207.278 62.3464 207.152 60.9577 207.152 59.5822L242.62 59.5161C244.024 59.5161 245.018 60.3956 246.091 61.1032C247.323 62.5448 247.482 64.2443 247.482 66.0628C247.455 121.36 247.468 176.653 247.521 231.941C247.521 236.087 244.872 238.435 241.024 238.428C192.735 238.331 144.442 238.305 96.1441 238.349C93.3491 237.192 92.084 235.175 92.084 232.086C92.137 176.578 92.1635 121.073 92.1635 65.5735C92.1635 64.727 92.2098 63.8806 92.2363 63.0275Z" fill="white"/>
</svg>
