<svg width="308" height="230" viewBox="0 0 308 230" fill="none" xmlns="http://www.w3.org/2000/svg">
<path d="M202.787 69.6298L210.481 79.887C212.804 84.0317 214.884 88.3082 216.711 92.6949C216.711 93.2919 216.711 94.2145 217.957 94.3773C218.134 95.3672 218.37 96.3458 218.662 97.308C220.153 101.719 221.224 106.262 221.858 110.876C222.252 111.933 222.436 113.058 222.4 114.186C221.995 115.402 221.995 116.716 222.4 117.931C222.662 124.397 222.244 130.873 221.154 137.251C220.179 141.973 218.716 146.586 217.361 151.253V151.579L216.982 152.067V152.339C216.457 153.109 216.089 153.976 215.898 154.889V155.215C212.64 162.117 208.486 168.559 203.546 174.373C199.965 178.245 196.128 181.872 192.06 185.227C191.627 185.227 191.139 185.715 190.706 186.041C181.98 192.64 171.952 197.303 161.287 199.717C144.294 203.777 126.435 202.059 110.523 194.833C105.002 192.27 99.7405 189.181 94.8114 185.607C88.3344 180.44 82.6086 174.394 77.7996 167.643C74.7314 163.167 72.1006 158.405 69.9439 153.424C69.9439 152.827 69.2937 152.23 69.0228 151.633C68.752 151.036 68.6436 150.439 68.4811 149.896C65.3434 141.412 63.6583 132.458 63.4967 123.412C63.4756 117.553 63.9833 111.704 65.0137 105.937C65.7722 104.417 65.3388 102.627 66.1514 101.107C67.6049 96.6809 69.2867 92.3334 71.19 88.0819C73.8228 82.7573 76.9423 77.6885 80.5085 72.9403C81.7761 71.7764 82.8546 70.4214 83.705 68.9243C84.4635 68.9243 84.8427 68.056 85.3303 67.5133C98.5826 53.3573 116.622 44.6512 135.932 43.0914C154.423 41.2503 172.962 46.0807 188.214 56.7134C193.544 60.4522 198.433 64.7854 202.787 69.6298V69.6298ZM118.216 137.36C114.968 139.802 111.956 142.546 109.223 145.555C105.07 149.895 102.298 155.373 101.259 161.293C101.026 162.641 101.309 164.027 102.053 165.174C102.796 166.321 103.944 167.145 105.268 167.48C106.916 167.876 108.617 168.004 110.306 167.86C115.02 167.317 119.733 166.449 124.447 165.581C130.323 164.397 136.283 163.671 142.271 163.41C149.748 163.463 157.197 164.337 164.484 166.015C168.606 166.988 172.786 167.695 176.999 168.131C182.092 168.457 184.963 167.046 184.475 161.348C184.135 158.652 183.309 156.041 182.037 153.641C178.761 147.599 174.258 142.312 168.818 138.12C152.402 124.823 134.74 125.095 118.216 137.36ZM171.744 123.141C176.036 123.049 180.175 121.52 183.5 118.799C186.353 117.199 188.529 114.614 189.622 111.527C189.947 110.442 190.164 109.41 189.135 108.542C188.712 108.203 188.186 108.018 187.645 108.018C187.103 108.018 186.578 108.203 186.155 108.542C184.242 109.58 182.202 110.365 180.087 110.876C176.281 112.057 172.271 112.426 168.314 111.959C164.357 111.491 160.543 110.198 157.116 108.162C156.141 107.565 155.274 106.643 154.19 107.348C153.107 108.054 153.432 109.41 153.54 110.55C153.615 111.088 153.799 111.606 154.082 112.07C155.695 115.387 158.206 118.183 161.329 120.141C164.451 122.098 168.06 123.138 171.744 123.141V123.141ZM115.182 123.141C116.748 123.166 118.301 122.852 119.733 122.218C124.668 120.644 128.877 117.352 131.598 112.938C132.302 111.635 133.007 110.062 131.923 108.759C130.84 107.457 129.106 108.162 127.806 108.759C125.994 109.662 124.086 110.354 122.117 110.821C118.402 111.889 114.51 112.193 110.675 111.718C106.839 111.242 103.139 109.996 99.7958 108.054C98.8747 107.511 97.8995 106.48 96.9243 107.24C95.9491 107.999 96.1117 109.573 96.3284 110.821C96.4664 111.358 96.6856 111.871 96.9785 112.341C98.7105 115.658 101.331 118.427 104.547 120.334C107.763 122.242 111.446 123.214 115.182 123.141V123.141Z" fill="#00CDB0"/>
<path d="M202.788 69.6298C198.366 64.7727 193.403 60.439 187.997 56.7134C172.745 46.0808 154.206 41.2503 135.716 43.0914C116.405 44.6512 98.3659 53.3574 85.1136 67.5133C84.626 68.056 84.2468 68.7072 83.4341 68.9243H15.1161C14.791 68.9243 14.2493 68.9243 14.3034 69.7384C17.0123 69.7384 19.7212 69.7384 22.5384 69.7384C29.0939 70.3896 35.7036 70.5525 42.3133 70.8238C47.7311 70.8238 53.1488 71.7464 58.5666 71.8007C65.7722 71.8007 72.9779 72.5062 80.2377 72.9404C76.6714 77.6885 73.5519 82.7574 70.9191 88.0819C69.0158 92.3334 67.3341 96.6809 65.8806 101.107H64.472C56.562 101.378 48.6521 100.727 40.7421 100.619C32.8322 100.51 24.4888 99.913 16.0371 99.8587C14.5743 99.8587 13.1115 99.3703 11.5946 99.4246C10.0776 99.4788 10.3485 98.8818 10.2401 98.0135C9.70211 95.4525 9.32215 92.8606 9.10238 90.2528C8.62505 85.9466 8.49822 81.6088 8.72314 77.282C9.10238 74.5685 9.15656 71.8549 9.58998 69.1414C10.0234 66.4279 9.96923 63.3887 10.6735 60.6209C11.8465 55.2869 13.4037 50.0451 15.3328 44.9366C15.5339 44.4282 15.8994 44.0022 16.371 43.7267C16.8425 43.4511 17.3926 43.3421 17.9333 43.417C25.3015 42.9286 32.6697 43.417 40.0378 42.9828C49.844 42.4401 59.6501 42.4944 69.4021 42.1145C75.5784 42.1145 81.7546 42.1145 87.8767 41.7346C93.9988 41.3547 100.879 41.7346 107.326 41.3547C113.774 40.9748 119.516 41.3547 125.584 40.9205C131.652 40.4864 136.42 40.9205 141.838 40.5406C147.255 40.1608 154.028 40.5407 160.096 40.1608C166.976 39.6723 173.911 40.1608 180.791 39.6723C187.672 39.1839 192.981 39.6723 199.049 39.3467C200.458 39.3467 201.867 39.3467 203.275 38.9125C203.979 40.8663 205.496 40.0522 206.959 40.215C209.488 40.4067 211.993 39.6091 213.948 37.9899C216.173 38.533 218.495 38.533 220.72 37.9899C227.547 37.9899 234.807 37.9899 241.795 37.9899C252.631 37.9899 263.467 37.1759 274.302 37.4472C274.79 37.4472 275.386 37.4472 275.819 36.9588C275.134 36.7231 274.391 36.7231 273.706 36.9588H215.953C218.84 33.0743 221.123 28.7744 222.725 24.2051C220.937 24.2051 219.853 25.6162 218.337 25.8332C216.82 26.0503 216.982 26.7558 217.307 27.9498C217.647 28.7571 217.822 29.6244 217.822 30.5005C217.822 31.3767 217.647 32.2439 217.307 33.0513C217.341 31.6097 217.195 30.1694 216.874 28.7639C216.711 27.7327 216.711 27.1357 215.953 27.1357C215.608 27.1315 215.267 27.2078 214.956 27.3585C214.646 27.5092 214.375 27.7302 214.165 28.0041C213.515 28.7096 214.165 29.4151 214.165 30.1206C214.569 31.0349 214.779 32.024 214.779 33.0241C214.779 34.0243 214.569 35.0133 214.165 35.9276C214.221 33.9531 214.002 31.9804 213.515 30.0664C213.515 29.4694 212.919 28.5468 212.16 29.2523C211.402 29.9578 209.993 29.7407 210.752 31.3146C211.759 33.2103 212.066 35.4013 211.618 37.5015C211.293 36.3075 211.293 35.4935 211.293 34.7337C211.293 33.9739 211.293 32.9427 210.86 32.1287C210.427 31.3146 210.535 30.6091 209.776 31.1518C209.018 31.6945 207.555 32.5086 208.151 34.2452C208.784 35.3869 208.94 36.7334 208.585 37.9899C207.718 36.796 208.585 35.005 207.284 34.5709C205.984 34.1367 205.388 33.7025 204.359 34.5709C204.359 34.0281 205.009 33.5397 205.496 33.594C207.501 33.594 207.772 32.1287 208.91 30.8262H205.388C207.122 28.8724 210.264 31.3689 211.564 28.5468C210.481 27.6785 209.018 28.5468 207.23 27.6242C208.525 27.1325 209.919 26.9649 211.293 27.1357C211.926 27.3508 212.611 27.3508 213.244 27.1357C213.786 27.1357 214.598 26.8101 214.544 26.1046C214.49 25.3991 213.731 25.5619 213.19 25.4533C212.648 25.3448 211.781 25.8332 211.402 24.9106C212.368 24.7218 213.361 24.7218 214.327 24.9106C214.787 25.1207 215.285 25.2294 215.79 25.2294C216.295 25.2294 216.794 25.1207 217.253 24.9106C214.707 23.6624 213.623 23.3911 211.835 23.988C205.984 25.9961 202.571 29.0895 203.221 35.602C203.248 35.9271 203.248 36.2538 203.221 36.5789H21.9967C19.342 36.5789 19.2878 36.5789 20.6422 34.2995C25.7889 24.9433 34.414 18.0001 44.6429 14.9791C51.3308 13.2067 58.3753 13.3005 65.0137 15.2504C73.0602 17.4829 81.2392 19.2049 89.502 20.4062C97.0869 21.4916 104.618 21.98 112.257 22.4684C119.006 22.8208 125.77 22.8208 132.519 22.4684C139.454 22.4684 146.389 21.7629 153.269 21.0574C163.057 20.0805 172.773 18.6876 182.417 16.8785C189.244 15.5661 195.755 12.9497 201.596 9.17208C205.199 7.00957 209.268 5.74406 213.461 5.48166C219.558 4.80692 225.698 4.60733 231.827 4.88468C240.441 5.37312 249.055 5.69874 257.615 6.78416C262.248 7.18079 266.846 7.90623 271.376 8.955C271.972 8.955 272.568 8.955 272.948 9.71479C273.327 10.4746 271.864 10.149 271.322 10.149H260.487C258.861 10.149 257.561 10.5831 257.507 12.3741C257.453 14.165 258.591 14.7077 260.216 14.6534C261.841 14.5992 261.191 15.1419 261.299 16.1188C261.299 18.6695 260.758 19.4293 258.265 19.2665C257.938 19.2724 257.616 19.3526 257.324 19.5011C257.032 19.6495 256.778 19.8623 256.58 20.1234C256.381 20.3845 256.245 20.6873 256.18 21.0088C256.116 21.3304 256.125 21.6624 256.207 21.98C256.478 23.5539 257.561 23.6081 258.807 23.6081H285.625C289.147 23.6081 290.014 24.3679 291.043 27.7327C292.231 32.5233 292.777 37.4509 292.668 42.3859C292.39 48.459 291.538 54.492 290.122 60.4038C289.58 62.4661 289.038 64.5284 288.442 66.5907C288.31 67.3267 287.896 67.9819 287.289 68.4176C286.683 68.8532 285.93 69.035 285.192 68.9243C258.699 68.9243 232.206 68.9243 205.659 68.9243C204.413 68.8701 203.329 68.4902 202.788 69.6298ZM195.04 19.1579C195.04 17.9097 194.119 18.2896 193.577 18.0182C193.036 17.7469 192.494 18.2896 192.169 18.778C191.496 20.0625 191.322 21.5515 191.681 22.9569C191.681 23.5539 192.115 23.7167 192.819 23.7709C194.006 23.8766 195.197 23.6094 196.226 23.0065C197.255 22.4035 198.072 21.4947 198.562 20.4062C199.266 19.1579 200.566 17.4755 199.808 16.4986C199.049 15.5218 196.991 16.4986 195.474 16.4986C195.148 16.4986 194.39 16.4987 194.769 17.4213C195.148 18.3439 195.528 17.9097 195.961 17.4213C196.956 16.7302 198.175 16.4396 199.374 16.6072L195.04 19.1579ZM45.9432 61.4892H59.1084C62.359 61.4892 62.7383 61.1093 62.6299 57.9073C62.6299 57.039 63.0092 57.039 63.5509 57.039C64.2166 57.1213 64.8898 57.1213 65.5555 57.039C66.6932 56.7134 67.9393 56.1164 67.9935 54.8682C67.9973 54.2792 67.7837 53.7096 67.3937 53.2688C67.0036 52.828 66.4648 52.5472 65.8806 52.4802C64.6887 52.4802 63.7676 52.0461 64.3094 50.3094C64.3828 50.062 64.4002 49.8014 64.3604 49.5464C64.3205 49.2915 64.2245 49.0486 64.0792 48.8355C63.9339 48.6224 63.743 48.4444 63.5204 48.3144C63.2979 48.1845 63.0492 48.1059 62.7925 48.0843C61.8662 47.8755 60.9236 47.7484 59.9752 47.7044H35.4327C34.6868 47.7413 33.9444 47.832 33.2114 47.9758C31.6945 47.9758 30.6651 49.0612 30.8276 50.4722C30.9902 51.8833 32.2362 52.1003 33.5365 52.2632C36.8413 52.6973 33.0489 55.1395 34.5659 56.3335C34.9993 56.6591 34.1325 57.039 33.5907 57.0933H31.5319C30.6109 57.0933 29.5815 57.4732 29.4732 58.6671C29.3913 59.2098 29.4902 59.7644 29.7546 60.2451C30.019 60.7258 30.4342 61.1059 30.936 61.3264C31.5976 61.4594 32.279 61.4594 32.9406 61.3264L45.9432 61.4892ZM214.923 23.4996C217.09 23.4996 219.474 25.182 221.696 22.8483C219.421 22.6564 217.13 22.8584 214.923 23.4453V23.4996Z" fill="#E0F1FF"/>
<path d="M94.5395 185.878C99.4686 189.452 104.73 192.541 110.251 195.104C126.163 202.33 144.022 204.048 161.015 199.988C171.68 197.574 181.709 192.912 190.434 186.312C190.867 185.986 191.355 185.769 191.788 185.498C191.953 185.756 192.19 185.96 192.469 186.086C192.748 186.211 193.058 186.252 193.36 186.204C194.768 186.204 196.177 186.529 197.585 186.529C206.579 186.529 215.518 187.669 224.674 187.832C225.157 190.913 224.953 194.064 224.078 197.058C223.753 198.36 223.591 199.934 224.891 200.423C225.666 200.771 226.506 200.952 227.356 200.952C228.206 200.952 229.046 200.771 229.821 200.423C230.905 199.771 230.58 198.089 230.525 196.841C230.582 196.499 230.582 196.151 230.525 195.81C230.01 193.449 230.01 191.006 230.525 188.646L237.081 189.134C237.399 191.817 237.14 194.537 236.322 197.112C235.997 198.415 235.835 199.988 237.189 200.477C237.952 200.867 238.797 201.071 239.654 201.071C240.511 201.071 241.356 200.867 242.119 200.477C243.095 199.826 242.932 198.035 242.77 196.678C242.255 194.574 242.255 192.377 242.77 190.274C249.691 190.732 256.521 192.101 263.086 194.344C264.116 194.724 265.47 195.05 265.362 196.515C265.253 197.98 263.899 198.36 262.761 198.74C255.89 200.896 248.805 202.297 241.632 202.919C233.722 203.842 225.704 204.493 217.739 204.981L203.003 205.795C194.497 206.284 185.991 206.284 177.485 206.609C160.203 207.315 142.92 206.609 125.692 206.609C120.545 206.609 115.398 206.609 110.305 206.284C104.075 205.904 97.8985 205.85 91.6681 205.47C83.9749 205.09 76.2275 204.601 68.5342 203.842C59.4115 203.235 50.3525 201.892 41.4454 199.826C39.5332 199.52 37.6953 198.858 36.0276 197.872C34.1314 196.515 34.1314 195.375 36.0276 194.344C38.9926 193.031 42.1311 192.154 45.3462 191.739C51.6308 190.6 57.9696 189.785 64.3625 189.188C70.7555 188.591 78.2862 187.886 85.2751 187.506C87.7673 187.506 90.2595 187.18 92.7516 187.235C93.1618 187.257 93.5667 187.133 93.8941 186.885C94.2216 186.636 94.4503 186.28 94.5395 185.878Z" fill="#E0F1FF"/>
<path d="M65.0134 105.936C63.9484 111.791 63.4225 117.732 63.4423 123.683C63.6038 132.729 65.2889 141.683 68.4266 150.167C68.4266 150.71 68.7517 151.307 68.9684 151.904C65.1308 151.787 61.3166 151.26 57.5911 150.33C51.8086 149.288 46.1948 147.463 40.9044 144.903C33.9511 141.374 27.9347 136.24 23.3508 129.924C18.4394 122.918 14.7736 115.115 12.5153 106.859C12.136 105.556 12.5153 105.502 13.653 105.502C20.967 105.502 28.3351 105.177 35.5949 105.502C45.1844 106.153 54.9906 105.719 65.0134 105.936Z" fill="#E0F1FF"/>
<path d="M217.686 151.253C219.04 146.586 220.503 141.973 221.478 137.251C222.569 130.872 222.986 124.397 222.724 117.931L223.266 117.279C229.009 117.279 234.806 117.279 240.549 117.551C241.686 118.148 242.065 119.396 242.932 120.481L241.795 109.627C240.711 110.387 240.874 111.472 240.494 112.286C237.894 113.48 235.077 112.286 232.368 112.992C231.915 113.166 231.423 113.213 230.945 113.127C230.468 113.041 230.023 112.825 229.659 112.503C229.497 112.376 229.296 112.306 229.09 112.306C228.884 112.306 228.683 112.376 228.521 112.503C227.847 112.963 227.04 113.186 226.226 113.136C225.413 113.087 224.638 112.769 224.024 112.232C223.954 112.16 223.869 112.103 223.776 112.063C223.683 112.024 223.583 112.004 223.483 112.004C223.382 112.004 223.282 112.024 223.189 112.063C223.096 112.103 223.011 112.16 222.941 112.232L222.128 110.875C221.494 106.262 220.423 101.719 218.932 97.3076C218.64 96.3454 218.404 95.3668 218.227 94.3769C218.708 93.4112 219.522 92.6531 220.518 92.2438C221.515 91.8345 222.626 91.8018 223.645 92.1518C224.92 92.4845 226.254 92.5217 227.546 92.2604H229.225C231.772 93.183 234.264 94.1056 236.648 91.9348C236.845 91.9033 237.046 91.9033 237.244 91.9348C239.573 91.2292 241.524 92.586 243.582 93.183C244.874 93.3792 246.052 94.0366 246.898 95.0339C247.744 96.0312 248.202 97.3013 248.188 98.6101C248.346 102.315 248.689 106.01 249.217 109.681C249.262 113.527 249.661 117.36 250.409 121.132V122.652C250.298 123.015 250.27 123.399 250.326 123.774C250.383 124.15 250.522 124.508 250.734 124.823V126.288L251.059 126.885C251.74 127.95 252.063 129.205 251.98 130.467C251.926 131.008 251.926 131.554 251.98 132.095C252.251 133.995 251.98 134.809 249.759 133.886C248.513 133.343 247.212 133.343 247.754 135.406C247.865 135.665 247.87 135.958 247.769 136.221C247.668 136.485 247.468 136.698 247.212 136.817C246.237 136.328 245.37 135.894 245.695 137.739C245.731 141.929 246.258 146.101 247.267 150.167C247.646 151.09 247.267 151.416 246.237 151.524L242.228 152.013C238.381 152.718 236.81 149.136 234.21 147.617C233.999 148.214 233.999 148.865 234.21 149.462H230.58C229.93 148.756 230.58 147.725 229.93 146.803L221.315 151.524H218.065L217.686 151.253Z" fill="#F86D6D"/>
<path d="M249.217 109.681C248.63 105.959 248.232 102.21 248.025 98.4472C248.04 97.1384 247.582 95.8683 246.736 94.871C245.889 93.8737 244.712 93.2164 243.42 93.0201C241.361 92.4231 239.411 91.0664 237.081 91.7719C236.969 91.5268 236.958 91.2475 237.049 90.9939C237.14 90.7403 237.327 90.5326 237.569 90.4151C238.761 89.6553 238.706 88.8413 238.111 87.5388C237.515 86.2363 236.323 86.2363 235.889 85.3679C235.077 83.5227 234.047 82.4373 231.88 83.1428C231.338 83.1428 230.688 83.1428 230.201 82.4916C229.713 81.8403 228.629 82.2202 228.142 83.1971C227.583 84.288 227.386 85.5294 227.581 86.74C227.776 87.9506 228.352 89.0671 229.225 89.9267C230.417 91.0121 230.201 91.5548 229.225 92.2603H227.546C227.546 91.7719 228.846 92.2603 228.359 91.5006C226.679 89.7639 226.95 87.2131 225.595 85.3137C225.108 84.6645 224.844 83.874 224.844 83.0614C224.844 82.2489 225.108 81.4584 225.595 80.8092C226.199 80.3682 226.673 79.7729 226.969 79.0856C227.264 78.3982 227.37 77.644 227.275 76.9017C227.275 74.0796 228.142 73.4283 230.905 74.2967C231.892 74.7374 232.999 74.833 234.047 74.568C234.649 74.2835 235.302 74.1253 235.967 74.1032C236.632 74.0812 237.295 74.1957 237.914 74.4397C238.533 74.6837 239.096 75.0521 239.568 75.5222C240.039 75.9923 240.41 76.5541 240.657 77.173C241.361 78.4755 241.849 79.8866 242.445 81.2434C242.428 81.2932 242.422 81.3459 242.427 81.3982C242.432 81.4505 242.448 81.5011 242.473 81.547C242.499 81.5929 242.533 81.6331 242.575 81.6648C242.617 81.6966 242.665 81.7194 242.716 81.7318V81.7318C242.987 83.3599 243.799 85.0966 245.316 85.2594C246.833 85.4222 247.808 86.7247 248.404 88.1358C249 89.5468 249.542 90.5779 250.084 91.8262C250.436 93.0852 251.128 94.2224 252.084 95.1129C253.04 96.0033 254.222 96.6125 255.502 96.8734C256.458 96.9996 257.345 97.4418 258.022 98.1299C258.699 98.818 259.128 99.7127 259.24 100.672C259.324 101.689 259.717 102.655 260.366 103.441C261.015 104.227 261.889 104.795 262.87 105.068C263.837 105.521 264.777 106.028 265.687 106.588L266.445 107.782C267.096 108.813 267.041 109.573 265.687 109.844C264.333 110.115 264.116 110.658 264.224 111.961C264.287 112.676 264.076 113.389 263.633 113.953C263.19 114.518 262.549 114.892 261.84 115C261.19 115 260.594 115 260.269 115.977C258.752 119.342 257.452 119.613 254.418 117.496C253.566 116.142 252.892 114.682 252.413 113.155C252.204 112.358 251.803 111.626 251.246 111.02C250.689 110.415 249.992 109.955 249.217 109.681Z" fill="#003056"/>
<path d="M265.471 106.425C264.562 105.866 263.621 105.359 262.654 104.906C261.673 104.632 260.8 104.064 260.151 103.278C259.502 102.492 259.109 101.526 259.024 100.51C258.912 99.5503 258.483 98.6556 257.806 97.9675C257.129 97.2794 256.242 96.8372 255.286 96.7109C254.007 96.45 252.824 95.8409 251.869 94.9504C250.913 94.06 250.221 92.9227 249.868 91.6637C249.326 90.4155 248.676 89.2215 248.189 87.9733C247.701 86.7251 247.159 85.314 245.101 85.0969C243.042 84.8799 242.771 83.1975 242.5 81.5693C246.41 81.5699 250.317 81.7873 254.202 82.2206C257.074 82.5462 259.999 82.2206 262.871 82.6005C266.88 82.6005 270.835 83.3603 274.844 83.1432C276.524 83.1432 278.149 83.6859 279.883 83.5231C281.616 83.3603 280.804 83.903 280.37 84.6628C276.794 91.2496 272.526 97.4354 267.638 103.115C266.687 104.049 265.948 105.179 265.471 106.425V106.425Z" fill="#E0F1FF"/>
<path d="M242.336 189.948C241.822 192.052 241.822 194.248 242.336 196.352V196.352C242.336 197.709 242.661 199.5 241.686 200.151C240.923 200.542 240.078 200.745 239.221 200.745C238.364 200.745 237.519 200.542 236.756 200.151C235.401 199.662 235.564 198.089 235.889 196.786C236.707 194.211 236.966 191.491 236.647 188.808C236.573 186.515 236.338 184.23 235.943 181.97C234.87 177.852 234.091 173.663 233.613 169.434C233.613 168.402 233.018 167.317 233.939 166.394C236.332 166.149 238.738 166.041 241.144 166.069C241.469 166.394 241.848 166.72 241.794 167.263C241.895 170.729 241.695 174.197 241.198 177.629C240.819 179.094 241.794 180.451 241.578 181.699C241.307 184.521 242.932 187.18 242.336 189.948Z" fill="#003056"/>
<path d="M204.357 34.1902C205.387 33.5389 206.47 34.1902 207.283 34.1902C208.096 34.1902 207.716 36.4153 208.583 37.6093C208.912 36.4101 208.776 35.1309 208.204 34.0274C207.608 32.2907 208.854 31.6395 209.829 30.9339C210.805 30.2284 210.75 31.3681 210.913 31.9108C211.075 32.4535 210.913 33.6475 211.346 34.5158C211.78 35.3842 211.346 36.0897 211.834 37.0666C212.281 34.9664 211.974 32.7753 210.967 30.8797C210.209 29.3058 211.78 29.3058 212.376 28.8174C212.972 28.3289 213.513 28.8174 213.73 29.6314C214.217 31.5455 214.436 33.5182 214.38 35.4927C214.785 34.5784 214.994 33.5893 214.994 32.5892C214.994 31.5891 214.785 30.6 214.38 29.6857C214.38 28.9802 213.622 28.2747 214.38 27.5691C214.83 27.2302 215.392 27.0751 215.951 27.135C216.71 27.135 216.927 27.949 217.089 28.6003C217.411 30.0059 217.556 31.4461 217.523 32.8877C217.862 32.0804 218.037 31.2131 218.037 30.337C218.037 29.4608 217.862 28.5936 217.523 27.7862C217.198 26.5923 217.523 25.8868 218.552 25.6697C219.581 25.4526 221.152 24.2044 222.94 24.0415C221.338 28.6108 219.055 32.9107 216.168 36.7952L214.164 38.4233C212.181 39.829 209.749 40.4479 207.337 40.16C205.874 40.16 204.357 40.8112 203.653 38.8575V36.8495C203.68 36.5244 203.68 36.1977 203.653 35.8726C203.003 29.3601 206.416 26.2666 212.267 24.2586C213.893 23.6616 214.976 23.933 217.685 25.1812C217.226 25.3913 216.727 25.5 216.222 25.5C215.718 25.5 215.219 25.3913 214.76 25.1812C213.793 24.9924 212.8 24.9924 211.834 25.1812C212.213 26.1038 212.972 25.6697 213.622 25.7239C214.272 25.7782 214.868 25.7239 214.976 26.3752C215.085 27.0264 214.218 27.2435 213.676 27.4063C213.281 27.5258 212.866 27.5634 212.456 27.5167C212.046 27.4701 211.65 27.3402 211.292 27.135C210.027 26.8407 208.711 26.8407 207.446 27.135C209.233 27.8405 210.696 27.135 211.78 28.0576C210.479 30.8797 207.337 28.3832 205.603 30.337H209.125C207.987 31.6395 207.716 33.2676 205.712 33.1048C205.224 33.1048 204.737 33.5389 204.574 34.0817L204.357 34.1902Z" fill="#00CDB0"/>
<path d="M225.433 80.6461C224.945 81.2953 224.681 82.0858 224.681 82.8983C224.681 83.7109 224.945 84.5014 225.433 85.1506C226.787 87.0501 226.516 89.6008 228.196 91.3375C228.683 91.8259 227.491 91.6088 227.383 92.0972C226.152 92.3696 224.876 92.3696 223.645 92.0972C222.626 91.7472 221.515 91.7799 220.518 92.1892C219.521 92.5985 218.707 93.3566 218.227 94.3224C217.252 94.3224 217.252 93.2369 216.981 92.64C215.101 88.2495 212.966 83.9729 210.588 79.832L225.433 80.6461Z" fill="#E0F1FF"/>
<path d="M241.307 166.341C238.901 166.312 236.495 166.421 234.101 166.666C234.534 160.94 234.534 155.189 234.101 149.462C233.891 148.865 233.891 148.214 234.101 147.617C236.756 149.137 238.273 152.719 242.12 152.013L241.307 166.341Z" fill="#FEBABA"/>
<path d="M268.18 203.244C267.855 202.05 266.88 201.996 266.338 201.345C265.796 200.694 265.146 199.934 265.742 199.011C265.877 198.811 266.052 198.64 266.255 198.509C266.457 198.378 266.685 198.29 266.923 198.249C267.161 198.209 267.404 198.217 267.639 198.273C267.874 198.33 268.095 198.433 268.288 198.577C269.047 198.957 269.589 199.337 270.239 198.577C270.889 197.817 271.214 197.22 272.081 197.6C272.948 197.98 272.623 198.903 272.568 199.608C272.543 199.806 272.543 200.007 272.568 200.205C273.652 200.205 274.573 198.251 275.602 199.662C276.632 201.073 274.627 201.996 274.194 203.299L279.612 204.33C280.153 204.33 280.803 204.33 280.749 205.252C280.695 206.175 280.099 205.904 279.612 206.012C273.647 207.287 267.481 207.287 261.516 206.012C261.029 206.012 260.487 206.012 260.433 205.252C260.378 204.492 261.083 204.492 261.57 204.33C263.727 203.725 265.944 203.361 268.18 203.244Z" fill="#00CDB0"/>
<path d="M22.1587 189.948C25.9512 188.374 26.7638 191.685 28.2808 193.747C28.7684 194.453 29.7978 195.212 29.2018 196.243C28.6059 197.275 27.3598 197.275 26.2762 197.166C23.1784 197.103 20.094 196.739 17.066 196.081C16.3207 195.805 15.6902 195.285 15.2771 194.605C14.864 193.926 14.6926 193.126 14.7906 192.336C14.7906 191.468 15.6032 191.576 16.1992 191.522C16.7952 191.468 18.5288 191.522 19.3957 190.654C20.3631 190.67 21.3171 190.426 22.1587 189.948V189.948Z" fill="#FEBABA"/>
<path d="M22.1585 189.948C21.3169 190.426 20.3628 190.67 19.3954 190.653C18.9555 189.707 18.316 188.868 17.5209 188.193C16.7259 187.519 15.7943 187.025 14.7903 186.746C13.5984 186.746 13.2733 185.715 13.7609 184.629C14.2577 183.339 15.1249 182.225 16.2531 181.427C16.2531 184.575 18.7995 186.312 19.9914 188.754C19.9914 189.242 20.6957 189.568 21.0208 188.754C22.2127 186.312 24.8132 184.575 24.8132 181.373C25.4254 181.798 25.9435 182.346 26.335 182.981C26.7265 183.616 26.9831 184.325 27.0887 185.063C27.4137 186.04 27.0887 186.583 25.8967 186.746C25.0656 186.946 24.2937 187.341 23.644 187.897C22.9943 188.454 22.4852 189.157 22.1585 189.948Z" fill="#00CDB0"/>
<path d="M247.213 136.816C247.469 136.698 247.668 136.484 247.769 136.221C247.87 135.958 247.865 135.665 247.755 135.405C247.213 133.343 248.513 133.343 249.759 133.886C251.872 134.808 252.251 133.886 251.981 132.095C251.927 131.554 251.927 131.008 251.981 130.467C252.231 133.658 252.981 136.789 254.202 139.747C254.581 140.887 255.069 142.895 253.768 143.492C252.468 144.089 251.764 142.189 250.951 141.321C250.083 140.297 249.321 139.188 248.676 138.01C248.541 137.711 248.339 137.448 248.085 137.241C247.831 137.034 247.532 136.888 247.213 136.816V136.816Z" fill="#FEBABA"/>
<path d="M249.217 109.682C249.933 109.968 250.575 110.416 251.091 110.99C251.608 111.564 251.986 112.249 252.197 112.992C252.675 114.52 253.349 115.979 254.201 117.334C253.212 117.386 252.278 117.803 251.577 118.505C250.877 119.206 250.461 120.142 250.409 121.133C249.661 117.361 249.262 113.527 249.217 109.682V109.682Z" fill="#E0F1FF"/>
<path d="M61.167 212.254C62.9817 212.148 64.8024 212.276 66.5848 212.634C67.0182 212.634 67.8309 212.634 67.7225 213.393C67.7091 213.515 67.6717 213.632 67.6125 213.739C67.5533 213.846 67.4735 213.94 67.3778 214.016C67.282 214.092 67.1721 214.148 67.0546 214.181C66.9371 214.213 66.8142 214.223 66.6931 214.207C64.0525 214.731 61.3447 214.823 58.6748 214.479C57.8165 214.3 56.948 214.173 56.0743 214.099C55.6409 214.099 55.0449 213.773 55.0449 213.231C55.0449 212.688 55.7492 212.796 56.1285 212.634C57.7864 212.303 59.4783 212.175 61.167 212.254V212.254Z" fill="#E0F1FF"/>
<path d="M287.142 193.638C284.541 193.638 282.699 193.313 280.803 193.096C280.316 193.096 279.611 193.096 279.611 192.282C279.611 191.468 280.261 191.63 280.695 191.576C284.275 190.898 287.95 190.898 291.53 191.576C292.018 191.576 292.722 191.576 292.722 192.445C292.722 193.313 292.072 193.15 291.639 193.15C289.634 193.042 288.009 193.801 287.142 193.638Z" fill="#E0F1FF"/>
<path d="M20.9666 213.176L15.5489 212.634C15.0613 212.634 14.357 212.634 14.4112 211.711C14.4653 210.788 15.0071 211.168 15.4947 211.06C18.9573 210.494 22.4884 210.494 25.951 211.06C26.4386 211.06 26.9804 211.06 26.9804 211.819C26.9804 212.579 26.3844 212.579 25.951 212.579C24.3032 212.879 22.6386 213.079 20.9666 213.176V213.176Z" fill="#E0F1FF"/>
<path d="M250.735 124.823C250.522 124.508 250.383 124.15 250.327 123.775C250.271 123.399 250.299 123.016 250.41 122.652C251.06 123.304 250.68 124.063 250.735 124.823Z" fill="#E0F1FF"/>
<path d="M251.114 126.885L250.789 126.288L251.114 126.885Z" fill="#E0F1FF"/>
<path d="M242.554 81.4064C242.503 81.3941 242.455 81.3713 242.413 81.3395C242.372 81.3077 242.337 81.2676 242.311 81.2217C242.286 81.1758 242.27 81.1251 242.265 81.0728C242.26 81.0205 242.266 80.9678 242.283 80.918L242.554 81.4064Z" fill="#E0F1FF"/>
<path d="M168.817 138.119C174.257 142.312 178.76 147.599 182.036 153.641C183.307 156.041 184.133 158.652 184.474 161.347C184.962 167.046 182.09 168.457 176.997 168.131C172.785 167.695 168.605 166.988 164.482 166.015C157.195 164.336 149.747 163.463 142.27 163.41C136.281 163.671 130.322 164.397 124.445 165.58C119.732 166.449 115.018 167.317 110.305 167.86C108.616 168.003 106.915 167.875 105.266 167.48C103.943 167.144 102.795 166.321 102.051 165.174C101.308 164.026 101.024 162.641 101.257 161.293C102.297 155.372 105.069 149.894 109.221 145.554C111.955 142.545 114.966 139.802 118.215 137.36C123.307 136.925 128.454 136.274 133.601 136.111C145.375 135.776 157.157 136.447 168.817 138.119V138.119Z" fill="#003056"/>
<path d="M217.848 151.524H221.099L221.478 151.85V152.99L221.803 153.424V154.672C221.207 155.215 221.424 155.92 221.424 156.572C221.617 159.914 221.398 163.268 220.774 166.557C220.749 166.639 220.74 166.726 220.749 166.811C220.757 166.896 220.782 166.979 220.822 167.055C220.862 167.13 220.917 167.197 220.983 167.252C221.049 167.306 221.126 167.347 221.207 167.372V168.24C220.341 169.108 220.124 169.977 221.207 170.736C221.287 170.916 221.327 171.11 221.327 171.306C221.327 171.502 221.287 171.696 221.207 171.876C220.503 172.31 220.666 172.582 221.207 172.744C221.298 172.93 221.346 173.134 221.346 173.341C221.346 173.548 221.298 173.752 221.207 173.938C220.557 174.318 220.611 174.59 221.207 174.807C221.288 174.995 221.329 175.198 221.329 175.404C221.329 175.609 221.288 175.812 221.207 176.001C220.503 176.489 220.503 176.923 221.207 177.249V178.063C220.503 178.606 220.557 179.04 221.207 179.311V180.071C220.557 180.505 220.72 180.722 221.207 180.939L221.966 183.707C221.207 184.087 221.262 184.358 221.966 184.575V187.832C213.027 187.832 204.087 186.692 194.877 186.529C193.468 186.529 192.06 186.204 190.651 186.204C190.349 186.252 190.04 186.211 189.761 186.086C189.481 185.96 189.245 185.756 189.08 185.498C193.148 182.143 196.985 178.517 200.566 174.644C206.481 168.916 211.552 162.374 215.627 155.215C215.664 155.109 215.664 154.995 215.627 154.889C215.818 153.976 216.186 153.109 216.711 152.338C216.728 152.249 216.728 152.157 216.711 152.067L217.09 151.579L217.848 151.524Z" fill="white"/>
<path d="M171.744 123.141C168.092 123.147 164.511 122.135 161.401 120.218C158.291 118.301 155.776 115.555 154.136 112.287C153.853 111.823 153.669 111.305 153.594 110.767C153.594 109.627 153.106 108.27 154.244 107.565C155.382 106.859 156.195 107.565 157.17 108.379C160.566 110.368 164.335 111.63 168.242 112.088C172.149 112.546 176.108 112.188 179.87 111.038C181.993 110.476 184.033 109.636 185.938 108.542C186.361 108.203 186.886 108.018 187.428 108.018C187.97 108.018 188.495 108.203 188.918 108.542C189.947 109.41 189.731 110.441 189.406 111.527C188.366 114.579 186.272 117.158 183.5 118.799C180.175 121.52 176.036 123.049 171.744 123.141V123.141Z" fill="#003056"/>
<path d="M115.182 123.141C111.44 123.209 107.753 122.229 104.537 120.311C101.321 118.393 98.7028 115.614 96.9783 112.287C96.6854 111.816 96.4661 111.304 96.3281 110.767C96.3281 109.519 95.7864 108.054 96.9241 107.185C98.0618 106.317 98.8745 107.185 99.7955 107.999C103.139 109.942 106.839 111.188 110.674 111.664C114.51 112.139 118.402 111.834 122.117 110.767C124.085 110.3 125.994 109.608 127.805 108.705C129.106 107.999 130.677 107.131 131.923 108.705C133.169 110.279 132.302 111.581 131.598 112.884C128.877 117.298 124.668 120.59 119.733 122.164C118.304 122.816 116.752 123.149 115.182 123.141Z" fill="#003056"/>
<path d="M168.817 138.12C157.157 136.448 145.375 135.776 133.601 136.112C128.454 136.112 123.308 136.926 118.215 137.36C134.739 125.095 152.401 124.823 168.817 138.12Z" fill="#E0F1FF"/>
<path d="M80.2911 72.9399C73.0855 72.5057 65.8799 71.9088 58.6201 71.8002C53.2023 71.8002 47.7845 71.0404 42.3668 70.8233C35.7029 70.552 29.0932 70.552 22.5377 69.7379C19.7747 69.7379 17.12 69.7379 14.3027 69.7379C14.3027 68.8153 14.7903 68.9239 15.1154 68.9239H83.4334C82.6195 70.4304 81.557 71.7882 80.2911 72.9399V72.9399Z" fill="white"/>
<path d="M222.129 110.875L223.05 112.069C223.596 113.825 223.707 115.687 223.375 117.496L222.833 118.147C222.428 116.932 222.428 115.618 222.833 114.403C222.847 113.19 222.607 111.989 222.129 110.875V110.875Z" fill="#E0F1FF"/>
<path d="M217.847 151.524H217.414V151.198L217.847 151.524Z" fill="#E0F1FF"/>
<path d="M217.035 151.958C217.053 152.048 217.053 152.14 217.035 152.229V151.958Z" fill="#E0F1FF"/>
<path d="M215.789 154.889C215.826 154.994 215.826 155.109 215.789 155.214V154.889Z" fill="#E0F1FF"/>
<path d="M45.9433 61.4892H32.9407C32.2791 61.6222 31.5977 61.6222 30.9361 61.4892C30.4344 61.2686 30.0192 60.8886 29.7547 60.4079C29.4903 59.9272 29.3914 59.3726 29.4733 58.8299C29.4733 57.6359 30.6111 57.4189 31.5321 57.2561H33.5908C34.1326 57.2561 34.9994 56.8219 34.566 56.4963C33.049 55.3023 36.8415 52.8601 33.5366 52.4259C32.2364 52.4259 30.9361 51.9918 30.8278 50.635C30.7194 49.2782 31.6946 48.3556 33.2116 48.1385C33.9445 47.9948 34.6869 47.9041 35.4329 47.8672H59.9753C60.9237 47.9112 61.8664 48.0383 62.7926 48.2471C63.0493 48.2687 63.298 48.3473 63.5206 48.4772C63.7432 48.6072 63.934 48.7851 64.0793 48.9983C64.2246 49.2114 64.3207 49.4542 64.3605 49.7092C64.4003 49.9642 64.3829 50.2248 64.3096 50.4722C63.7678 52.2089 64.6888 52.4259 65.8807 52.643C66.4649 52.7099 67.0038 52.9908 67.3938 53.4316C67.7838 53.8723 67.9974 54.442 67.9936 55.0309C67.9936 56.2792 66.6934 56.8762 65.5556 57.2018C64.89 57.2841 64.2167 57.2841 63.5511 57.2018C63.0093 57.2018 62.5759 57.2018 62.63 58.0701C62.63 61.2721 62.3592 61.652 59.1085 61.652L45.9433 61.4892Z" fill="white"/>
<path d="M213.947 37.9895L215.952 36.3613H273.705C274.39 36.1256 275.133 36.1256 275.818 36.3613C275.385 37.1211 274.789 36.8498 274.301 36.8498C263.466 36.5784 252.63 37.2297 241.795 37.3925C234.806 37.3925 227.763 37.3925 220.719 37.7181C218.516 38.3508 216.194 38.4438 213.947 37.9895Z" fill="white"/>
<path d="M195.04 19.1574L199.157 16.8237C197.958 16.6561 196.74 16.9467 195.744 17.6378C195.311 18.0177 194.769 18.0177 194.552 17.6378C194.336 17.2579 195.04 16.8237 195.04 16.6066C196.557 16.6066 198.453 15.1956 199.374 16.6066C200.295 18.0177 198.832 19.2659 198.128 20.5141C197.638 21.6027 196.822 22.5115 195.793 23.1144C194.764 23.7174 193.573 23.9845 192.385 23.8789C191.681 23.8789 191.356 23.8789 191.247 23.0649C190.888 21.6595 191.062 20.1705 191.735 18.886C192.06 18.3976 192.494 17.8006 193.144 18.1262C193.794 18.4518 194.877 18.1262 194.606 19.2659H192.439C193.035 19.6458 193.577 19.8086 193.415 20.5141C193.252 21.2196 192.331 20.5141 192.114 21.1111C192.819 21.491 193.198 21.1111 193.36 20.4599C193.523 19.8086 195.04 19.7543 195.04 19.1574Z" fill="#00CDB0"/>
<path d="M214.922 23.4454C217.125 22.8402 219.416 22.6199 221.694 22.7942C219.473 25.1278 217.089 23.6082 214.922 23.4454Z" fill="#00CDB0"/>
<path d="M222.398 176.001C222.479 175.812 222.52 175.609 222.52 175.404C222.52 175.198 222.479 174.995 222.398 174.807C222.48 174.677 222.524 174.526 222.524 174.372C222.524 174.219 222.48 174.068 222.398 173.938C222.489 173.752 222.537 173.548 222.537 173.341C222.537 173.134 222.489 172.93 222.398 172.744C222.475 172.612 222.515 172.463 222.515 172.31C222.515 172.158 222.475 172.008 222.398 171.876C222.478 171.696 222.518 171.502 222.518 171.306C222.518 171.11 222.478 170.916 222.398 170.736C222.562 169.912 222.562 169.064 222.398 168.24V167.534L223.049 166.72C225.439 166.43 227.847 166.303 230.254 166.34C230.502 166.523 230.69 166.775 230.796 167.065C230.902 167.354 230.921 167.668 230.85 167.968C230.941 171.6 230.706 175.233 230.146 178.823C230.01 179.339 230.01 179.881 230.146 180.397C231.013 183.056 230.579 185.824 231.338 188.591C230.823 190.951 230.823 193.395 231.338 195.755C231.394 196.097 231.394 196.445 231.338 196.786C231.338 198.035 231.717 199.717 230.633 200.368C229.858 200.717 229.018 200.898 228.168 200.898C227.319 200.898 226.478 200.717 225.703 200.368C224.403 199.88 224.566 198.306 224.891 197.003C225.766 194.01 225.969 190.859 225.487 187.777V184.521C225.568 184.391 225.612 184.241 225.612 184.087C225.612 183.933 225.568 183.783 225.487 183.653L224.728 180.885C224.728 180.559 224.728 180.234 224.728 180.017V179.257C224.728 178.768 224.728 178.334 224.728 178.009V177.195C224.731 176.922 224.657 176.655 224.517 176.422C224.376 176.189 224.173 176 223.932 175.876C223.69 175.752 223.418 175.698 223.147 175.72C222.877 175.742 222.617 175.839 222.398 176.001Z" fill="#003056"/>
<path d="M230.254 188.592C229.496 185.933 229.929 183.165 229.063 180.397C228.927 179.881 228.927 179.339 229.063 178.823C229.622 175.234 229.858 171.601 229.767 167.969C229.838 167.669 229.819 167.355 229.713 167.065C229.607 166.776 229.418 166.524 229.171 166.341C229.171 162.487 229.442 158.689 229.767 154.835C229.697 153.003 229.917 151.172 230.417 149.408H234.047C234.48 155.135 234.48 160.886 234.047 166.612C233.126 167.535 233.613 168.62 233.722 169.651C234.2 173.88 234.978 178.07 236.051 182.188C236.446 184.448 236.682 186.733 236.756 189.026L230.254 188.592Z" fill="white"/>
<path d="M230.364 149.517C229.864 151.28 229.644 153.112 229.714 154.944C229.389 158.797 229.28 162.596 229.118 166.449C226.71 166.412 224.303 166.539 221.912 166.829C221.912 165.092 221.912 163.356 221.912 161.402C222.426 159.225 222.426 156.958 221.912 154.781V153.587L221.587 153.153V151.959H221.1L229.714 147.237C230.256 147.78 229.714 148.811 230.364 149.517Z" fill="#FEBABA"/>
<path d="M228.956 92.2608C230.093 91.5553 230.31 91.0126 228.956 89.9272C228.082 89.0676 227.506 87.9511 227.312 86.7405C227.117 85.5299 227.313 84.2885 227.872 83.1976C228.36 82.2207 228.956 81.7323 229.931 82.4921C230.906 83.2519 231.068 83.3604 231.61 83.1433C233.777 82.4378 234.807 83.5232 235.619 85.3684C236.053 86.2368 237.299 86.3996 237.841 87.5393C238.382 88.679 238.491 89.6558 237.299 90.4156C237.057 90.5331 236.87 90.7408 236.779 90.9944C236.688 91.248 236.699 91.5273 236.811 91.7724C236.614 91.7409 236.413 91.7409 236.215 91.7724C233.994 93.9432 231.502 93.0206 228.956 92.2608Z" fill="#FEBABA"/>
<path d="M223.266 117.279C223.599 115.47 223.487 113.608 222.941 111.852C223.012 111.78 223.096 111.723 223.189 111.683C223.282 111.644 223.382 111.624 223.483 111.624C223.584 111.624 223.684 111.644 223.777 111.683C223.87 111.723 223.954 111.78 224.025 111.852C224.639 112.389 225.413 112.707 226.227 112.756C227.041 112.806 227.848 112.583 228.522 112.123C228.684 111.996 228.884 111.926 229.091 111.926C229.297 111.926 229.497 111.996 229.659 112.123C230.023 112.445 230.468 112.661 230.946 112.747C231.423 112.833 231.915 112.786 232.368 112.612C235.023 111.689 237.786 113.1 240.495 111.906C240.386 113.714 240.386 115.526 240.495 117.333C234.806 117.062 229.009 117.442 223.266 117.279Z" fill="#003056"/>
<path d="M240.548 117.551C240.44 115.744 240.44 113.932 240.548 112.124C240.928 111.31 240.548 110.225 241.849 109.465L242.986 120.319C242.065 119.396 241.686 118.148 240.548 117.551Z" fill="#E0F1FF"/>
<path d="M222.128 154.835C222.642 157.012 222.642 159.279 222.128 161.456C222.128 163.247 222.128 164.984 222.128 166.883L221.478 167.697C221.396 167.672 221.319 167.632 221.253 167.577C221.187 167.523 221.132 167.456 221.092 167.38C221.052 167.305 221.027 167.222 221.019 167.136C221.01 167.051 221.019 166.965 221.044 166.883C221.668 163.594 221.887 160.24 221.694 156.897C221.478 156.083 221.261 155.378 222.128 154.835Z" fill="#E0F1FF"/>
<path d="M221.261 168.24C221.424 169.064 221.424 169.913 221.261 170.737C220.177 169.977 220.394 169.109 221.261 168.24Z" fill="#E0F1FF"/>
<path d="M222.399 176C222.491 176.195 222.539 176.408 222.539 176.624C222.539 176.84 222.491 177.053 222.399 177.248C221.695 176.923 221.695 176.488 222.399 176Z" fill="#E0F1FF"/>
<path d="M222.779 178.062C223.158 178.388 223.05 178.822 222.779 179.311C222.508 179.799 222.129 178.605 222.779 178.062Z" fill="#E0F1FF"/>
<path d="M221.641 171.876C221.717 172.008 221.757 172.158 221.757 172.31C221.757 172.463 221.717 172.612 221.641 172.744C221.099 172.581 220.937 172.31 221.641 171.876Z" fill="#E0F1FF"/>
<path d="M222.129 173.938C222.211 174.068 222.254 174.219 222.254 174.373C222.254 174.526 222.211 174.677 222.129 174.807C221.425 174.59 221.37 174.318 222.129 173.938Z" fill="#E0F1FF"/>
<path d="M223.213 180.07C223.213 180.07 223.213 180.613 223.213 180.939C223.213 181.264 222.563 180.504 223.213 180.07Z" fill="#E0F1FF"/>
<path d="M224.133 183.707C224.215 183.837 224.258 183.988 224.258 184.141C224.258 184.295 224.215 184.445 224.133 184.575C223.428 184.521 223.374 184.087 224.133 183.707Z" fill="#E0F1FF"/>
<path d="M221.1 151.958L221.479 152.284L221.1 151.958Z" fill="#E0F1FF"/>
<path d="M221.479 153.152L221.804 153.587L221.479 153.152Z" fill="#E0F1FF"/>
<path d="M195.04 19.1578C195.04 19.7548 194.227 19.9718 193.794 20.3517C193.794 19.6462 193.414 19.4834 192.818 19.1035L195.04 19.1578Z" fill="#E0F1FF"/>
<path d="M193.793 20.3516C193.793 21.1114 193.251 21.3827 192.547 21.0028C192.547 20.4058 193.305 20.4058 193.847 20.4058L193.793 20.3516Z" fill="#E0F1FF"/>
</svg>
