<svg width="20" height="20" viewBox="0 0 20 20" fill="none" xmlns="http://www.w3.org/2000/svg">
<path d="M18.061 15.4613C17.5253 14.9837 17.0563 14.4362 16.6666 13.8336C16.2411 13.0016 15.9861 12.0931 15.9166 11.1613V8.41688C15.9202 6.95334 15.3893 5.53881 14.4236 4.43909C13.4579 3.33937 12.1239 2.63014 10.6721 2.44466V1.72799C10.6721 1.53129 10.594 1.34265 10.4549 1.20356C10.3158 1.06447 10.1271 0.986328 9.93045 0.986328C9.73375 0.986328 9.5451 1.06447 9.40601 1.20356C9.26692 1.34265 9.18878 1.53129 9.18878 1.72799V2.45577C7.75003 2.65462 6.4321 3.36814 5.47907 4.46417C4.52605 5.56019 4.00252 6.96446 4.00545 8.41688V11.1613C3.93587 12.0931 3.68088 13.0016 3.25545 13.8336C2.8726 14.4349 2.41111 14.9823 1.88322 15.4613C1.82396 15.5134 1.77647 15.5775 1.7439 15.6493C1.71133 15.7212 1.69444 15.7991 1.69434 15.878V16.6336C1.69434 16.7809 1.75287 16.9222 1.85705 17.0264C1.96124 17.1306 2.10255 17.1891 2.24989 17.1891H17.6943C17.8417 17.1891 17.983 17.1306 18.0872 17.0264C18.1914 16.9222 18.2499 16.7809 18.2499 16.6336V15.878C18.2498 15.7991 18.2329 15.7212 18.2003 15.6493C18.1678 15.5775 18.1203 15.5134 18.061 15.4613ZM2.84989 16.078C3.36679 15.5787 3.82189 15.0191 4.20545 14.4113C4.74134 13.4066 5.05402 12.298 5.12211 11.1613V8.41688C5.10008 7.76579 5.20929 7.11693 5.44325 6.50892C5.67721 5.90092 6.03112 5.34621 6.48392 4.87783C6.93672 4.40945 7.47914 4.03698 8.07888 3.78259C8.67863 3.52821 9.32343 3.39711 9.97489 3.39711C10.6264 3.39711 11.2712 3.52821 11.8709 3.78259C12.4706 4.03698 13.0131 4.40945 13.4659 4.87783C13.9187 5.34621 14.2726 5.90092 14.5065 6.50892C14.7405 7.11693 14.8497 7.76579 14.8277 8.41688V11.1613C14.8958 12.298 15.2084 13.4066 15.7443 14.4113C16.1279 15.0191 16.583 15.5787 17.0999 16.078H2.84989Z" fill="#003056"/>
<path d="M10.0006 19.0445C10.3506 19.0364 10.6864 18.9049 10.9487 18.6731C11.211 18.4413 11.3829 18.1241 11.4339 17.7778H8.51172C8.5642 18.1336 8.74412 18.4581 9.018 18.6911C9.29188 18.9241 9.64107 19.0497 10.0006 19.0445Z" fill="#003056"/>
</svg>
