<svg width="20" height="6" viewBox="0 0 20 6" fill="none" xmlns="http://www.w3.org/2000/svg">
<path d="M17.7308 5.99998H17.1837C17.1394 5.98791 17.0992 5.96779 17.0549 5.95975C15.9043 5.78272 14.995 4.82516 14.9185 3.70267C14.83 2.44738 15.5462 1.38522 16.7129 1.03921C16.8658 0.994951 17.0268 0.962764 17.1837 0.922531H17.7308C17.7671 0.934601 17.7992 0.954717 17.8395 0.958741C18.9016 1.13174 19.7103 1.89618 19.9396 2.94225C19.9557 3.02272 19.9799 3.10319 20 3.18365V3.73083C19.9879 3.76704 19.9678 3.80325 19.9638 3.83946C19.7948 4.88553 19.0505 5.68214 18.0165 5.92356C17.9159 5.9477 17.8234 5.97584 17.7308 5.99998ZM2.26513 0.92251L2.81234 0.922531C2.8566 0.934601 2.89683 0.954717 2.94109 0.958741C4.09982 1.13979 5.00507 2.10137 5.07749 3.23596C5.15796 4.48722 4.43375 5.54536 3.26296 5.88735C3.11407 5.9316 2.96121 5.96379 2.81232 6H2.26515C2.22894 5.98793 2.19675 5.96781 2.16054 5.95977C1.11447 5.76665 0.430499 5.15912 0.104607 4.14524C0.0603503 4.01246 0.0362102 3.87165 0 3.73485L0 3.18768C0.0120701 3.15147 0.0321868 3.11526 0.0362102 3.07905C0.209214 2.02895 0.949511 1.23635 1.98351 0.99495C2.08007 0.97079 2.17261 0.94665 2.26513 0.92251ZM9.72444 0.922531H10.2716C10.3159 0.934601 10.3561 0.954718 10.4004 0.962764C11.5551 1.14382 12.4845 2.14161 12.5327 3.26814C12.5891 4.5355 11.8246 5.60973 10.6458 5.91149C10.5211 5.94367 10.3963 5.97184 10.2716 6H9.72444C9.68018 5.98793 9.63995 5.96781 9.59569 5.95977C8.44099 5.78274 7.51158 4.78092 7.45929 3.65439C7.39894 2.38703 8.1674 1.3128 9.34625 1.01104C9.47499 0.978857 9.59972 0.950694 9.72444 0.922531Z" fill="#003762"/>
</svg>
