<svg id="Layer_1" data-name="Layer 1" xmlns="http://www.w3.org/2000/svg" viewBox="0 0 490.2 510.85"><defs><style>.cls-1{fill:#f0755f;}.cls-2{fill:#f6f6f6;}.cls-3{fill:#3b5b64;}.cls-4{fill:#1f3137;}.cls-5{fill:#cf795e;}.cls-6{fill:#e3e3e3;}.cls-7{fill:#243339;}.cls-8{fill:#f5bc9c;}.cls-9{fill:#ececed;}.cls-10{fill:#bdbfbe;}.cls-11{fill:#494243;}.cls-12{fill:#888d8c;}.cls-13{fill:#d3d4d3;}.cls-14{fill:#bc5c4e;}.cls-15{fill:#986959;}.cls-16{fill:#fdfdfd;}</style></defs><path class="cls-1" d="M260.6,331.16c.57-3.21,3-4.71,5.6-6,3.93-2,8.23-3,12.31-1.48,3.89,1.4,7.6,1.14,11.46.84-3.77,3.6-6.47,8.53-11.52,9.92,13.15,1.67,56.82-.1,60.71-2.6-1.58-.94-3.56.26-5.65-1.25,3-.88,5.31-2.07,7.93-2.36,3.25.17,6.56-.5,9.68,1s6.17,1.24,9.26.37c6.45-1.82,10.95-6.48,14.6-11.59,3.31-4.64,6-10,3.54-16.2a1.41,1.41,0,0,1,.08-1.2c2.28-2.48,1.53-5.58,1.78-8.47,2-.74,2.22-2.72,2.25-4.21.2-7.5.09-15,.09-22.54a38,38,0,0,0-1.22,9.35c.14,3.27-.07,6.55,0,9.82a14.08,14.08,0,0,1-1.39,7.35c-.55.32-1.09.65-1.65,1-2.24,1.19-4.68,1.1-7.12,1.12-.73,0-1.64.15-1.56,1.13s1,.64,1.53.66a14.23,14.23,0,0,0,4.39-.44c1-.27,2.22-1.62,3.07-.11a2.91,2.91,0,0,1-.76,3.51c-1.74,1.57-1.74,3.45-1.66,5.5a16.84,16.84,0,0,1-.3,4.41c-1.81,7.92-7.38,12.18-14.37,15.23-3.78,1.65-7.13,1.81-10.06-1.51.18-2.16-1.13-3.78-2-5.57a1.13,1.13,0,0,0-1.2-1.28v0c0-.72.07-1.46-.66-1.93l0,0a1.3,1.3,0,0,0-.65-1.3v0c0-1.23.13-2.52-1.27-3.19h0c-.05-.89.19-1.86-.66-2.54l0-.65c-.85-1.24-.5-2.4.22-3.54,1.65-2.62,5.13-3.06,8.11-1.08,3.67,2.44,6.41,5.78,9,9.28,1,1.35,2.18,2.19,3.76,1.53,1.8-.76,1.35-2.49,1-3.88-1-3.83-3.07-6.63-7.21-7.46-1.86-.37-3.68-.92-5.52-1.37-3.5-.84-4.72-2.38-4.88-6a72.57,72.57,0,0,1,.58-8.2c.62-8.5,1.35-17,2.52-25.44.46-3.3.67-6.64,1-10-.57.2-.76.45-.8.72-1.26,9.16-2.78,18.31-3.66,27.51-.59,6.16-1.78,12.37-.43,18.59.29,1.33-.25,1.85-1.38,2.38-3.75,1.73-4.25,2.8-3.57,6.91-5.34,1.47-9.83,4.75-14.86,6.89s-9.95,4.59-15,6.79c-1.95.85-2.71.16-2.34-2.06.49-3,.7-6,1-9.06.58-3.83,1.66-7.55,2.3-11.39,1.71-10.17,3.68-20.3,3.39-30.69,0-.47,0-.93,0-1.39V265c-.69-10,3.76-18.44,8.55-26.75,4.71-8.16,10-15.94,15.23-23.76,3-.57,5.9-1.18,8.87-1.68,6.28-1,12.42-3,18.88-2.84,5.24,3.69,10.13,7.69,12.79,13.77a1.05,1.05,0,0,1,0,.31c0,.09-.13.23-.2.23-1,0-1.37-.9-1.91-1.47-3.73-3.95-8.24-3.88-12.87-2.33-5.12,1.72-8.15,5.5-9.54,10.63a48.15,48.15,0,0,1,5.52-6.34c5.92-5.77,15.18-4.42,18.83,3a5.94,5.94,0,0,0,2.85,2.7,20.81,20.81,0,0,1,.31,6.35,34.41,34.41,0,0,0,0,11.32c-.1,3.61-.19,7.22-.29,10.83,0,2.83-1.21,5.59-.43,8.45l-.9,17.65a6.84,6.84,0,0,0-.39,5.23l-.27,4.34a.9.9,0,0,0-.22,1.42l-.41,8.11c0,1.53-.88,3-.31,4.59l-.18,2.37-.09,1.31-.11,1.29c-.82.77-.6,1.66-.32,2.56l-.23,4.41c0,.42-.05.84-.07,1.25-.21,6.69,1.73,13.25,1.18,19.95-.42,5-.43,10.25-3.16,14.74-7.49,12.34-18.69,18.31-33,18.61-9.21.19-18.42.13-27.64.18a2.3,2.3,0,0,1-.34-.28c-1.85-5.39-4.79-10.28-7-15.49-1-2.25-2.2-3.23-4.59-2.39-1.16-.82-1.06-2.23-1.56-3.35.26-.59-.07-1-.39-1.43.86-1.17,2.12-.73,3.23-.75,7.07-.13,11.5-5.62,10.15-12.6-.18-.95-.52-1.65-1.56-1.62-5.59.15-11.19-.56-16.75.37h-1.84l-12.77,0c-1.06-.26-1.94-.12-1.92,1.21.05,3.22.13,6.44,2.43,9,.51,2,2,2.75,3.84,3.15,2.58.56,5.19.33,7.79.4l1,1.51.6,2.3a8.24,8.24,0,0,1-.65,1.07c-.71.88-3-.21-2.66,1.39s2.33.62,3.58.85a2.25,2.25,0,0,0,.63,0c.1.18.21.36.31.55a1.06,1.06,0,0,0,.65,1.54l.68,2.27c-.4.83-.07,1.28.77,1.45,1,.84,2.2.41,3.33.43.95,1.24,1.93.53,2.68-.13s.31-1.33-.4-1.81c-.27-.95-.55-1.9-.82-2.85,1-2,1.84-1.27,2.5.19,2.14,4.79,4.24,9.6,6.35,14.41-5.34.78-10.69.49-16,.27-.75-1.79-2.6-1-3.87-1.55-7.16-2.89-10.87-8.45-13.35-15.45-3.14-8.85-7.17-17.07-16.86-20.94C263.78,336.18,260.73,334.68,260.6,331.16Z"/><path class="cls-2" d="M423.32,323.73a4.91,4.91,0,0,0,4.58,2c6.17-.39,12.33.27,18.49.6.15,54.7-.49,109.4.66,164.1-.48.71-1.22.61-1.92.63l-3.82,0-37.68.09-1.15-.62q0-6.5,0-13c0-10.25,0-10.18-10.13-10.06-2.55,0-3.3,1-3.25,3.38.12,5.69.05,11.39.05,17.09l-1.3.37L386.2,488a2,2,0,0,0-2.33-.42l-1.71-.29a1.69,1.69,0,0,0-2.05-.39l-1.77-.29a1,1,0,0,0-1.48-.23l-1.69-.39a3.92,3.92,0,0,0-3.24-.58l-1.14-.19a1.07,1.07,0,0,0-1.4-.46l-2.4-.19-.61-.49,0-1.28c.07-.06.21-.14.2-.18a2.67,2.67,0,0,0-.2-.46V472c.73-.81.49-1.8.49-2.73q0-26.21,0-52.4c0-.92.25-1.92-.48-2.73,0-2.78,0-5.55.07-8.33a.41.41,0,0,0,.4-.36c4.12-.09,8.24-.34,12.36-.22,2.24.06,3.38-.73,4.36-2.71q9.48-19.22,19.18-38.32Q413,343.94,423.32,323.73Z"/><path class="cls-3" d="M382.13,313.64c0-.43.08-.86.11-1.29.59-.4.58-.84.09-1.31l.18-2.37c1.36-1.45,1-3,.31-4.59.13-2.7.27-5.41.41-8.11.56-.4,1.08-.8.22-1.42l.27-4.34c1.57-1.64,1.07-3.42.39-5.23l.9-17.65c1.58-2.74,1-5.6.43-8.45.1-3.61.19-7.22.29-10.83a58.65,58.65,0,0,0,0-11.32,20.81,20.81,0,0,0-.31-6.35c.77-2.36-1.53-4-1.46-6.19.33-7.81.34-7.75,8.21-8,14.44-.4,28.88-.88,43.32-1.33,0,15.57,0,31.14.05,46.71a12.72,12.72,0,0,1-1.46,6.05q-13.86,27.27-27.63,54.57Q390.88,353.12,375.34,384a4.42,4.42,0,0,1-4.63,2.84c-14.08-.1-28.17-.06-42.25,0-1.32,0-2.8-.47-3.85.85l-5.7-12.33c9.22,0,18.43,0,27.64-.18,14.29-.3,25.49-6.27,33-18.61,2.73-4.49,2.74-9.7,3.16-14.74.55-6.7-1.39-13.26-1.18-19.95.58-.38.61-.8.07-1.25.08-1.47.16-2.94.23-4.41C382.16,315.38,383.14,314.64,382.13,313.64Z"/><path class="cls-4" d="M132.19,398.21,132,397a51.37,51.37,0,0,0-1.1-10.2l-.21-1.93a125.87,125.87,0,0,0-1.67-14,7.33,7.33,0,0,0-.42-3.71l.42-1,2.54.31a1,1,0,0,0,1.38.23l2.45.33a1.72,1.72,0,0,0,1.94.35l2.51.28a1,1,0,0,0,1.37.22l3.72.43a1,1,0,0,0,1.36.26l4.35.42a1,1,0,0,0,1.38.24l4.35.36a1.75,1.75,0,0,0,2,.3l4.36.34a6.44,6.44,0,0,0,3.9.35l5,.28a53.42,53.42,0,0,0,14.62,0l3.09-.28a3.05,3.05,0,0,0,2.63-.34l1.83-.28a1.06,1.06,0,0,0,1.36-.32l1.84-.26,1,1-.35,3.08c-.33.38-.75.72-.53,1.31-2.11,22.36-5.51,44.56-8.55,66.8Q186.78,455,185,468.56c-.16,1.16-.19,2.33-1.12,3.21-3.86-.27-7.72-.66-11.59-.77-2-.05-4-.59-5.88.52a4.37,4.37,0,0,0-2.9.1,179.15,179.15,0,0,0-19.8,0c-1.66-.17-1.81-1.37-2-2.71-2.55-14.93-4.22-30-6.2-45-.32-2.41-.67-4.81-1-7.22s-.15-4.79-.89-7.11l-.28-3.08C132.94,403.73,133,400.92,132.19,398.21Zm33.38,65.68v-89.4C164.15,404.29,163.28,434.09,165.57,463.89Zm-.49,5.07a5.73,5.73,0,0,0,.17-.94,1.08,1.08,0,0,0-.21-.51c-.52.15-.35.59-.33.94C164.72,468.59,164.9,468.73,165.08,469Z"/><path class="cls-4" d="M366.4,472v10.82c0,.42,0,.85,0,1.28l-.13-.14-.17.09H320.89c1.13,1.46,1.8,1.3,2.4,1.3h40.62c.83,0,1.72.17,2.34-.62l.74-.15,2.4.19a1,1,0,0,0,1.4.46l1.14.19a3.12,3.12,0,0,0,3.24.58l1.69.39c.42.55.89.78,1.48.23l1.77.29c.58.64,1.23,1,2.05.39l1.71.29a1.72,1.72,0,0,0,2.33.42l1.67.33a2.33,2.33,0,0,0,2.76.4l1.07.23a1.61,1.61,0,0,0,2.11.36l1,.18a2.09,2.09,0,0,0,2.21.41l2.34.37c0,.42-.08.84-.13,1.27h-3a4.63,4.63,0,0,0-4,0l-101,0a16,16,0,0,0-7.77,0h-3.65c0-.42-.07-.84-.1-1.26l1.71-.21A14.21,14.21,0,0,0,288,489l1.07-.2a98.33,98.33,0,0,0,19.28-3l1.06-.18a2.84,2.84,0,0,0,2.75-.44l1.69-.28a1.09,1.09,0,0,0,1.49-.28l1.11-.2c.45.08.59-.12.5-.54l.08-1c.08-2.09,0-4.2.26-6.28.28-2.62-.68-3.42-3.33-3.39-9.89.11-19.78,0-29.67-.07l-.18-.76c1.65-3,5-2.69,7.6-3.76,7.4.06,14.81,0,22.21.23,2.52.07,3.22-.69,3.2-3.21q-.15-28.56,0-57.14c0-2.69-.8-3.37-3.4-3.33-9.94.11-19.89-.08-29.84,0-2.69,0-3.82-.62-3.62-3.53a94.59,94.59,0,0,0,0-11.42c-.13-2.35.59-3.37,2.95-3.09l36.64.18c.88,0,1.69-.15,2-1.13,2.26,2.82,3.08,6.38,4.91,9.42l3.75,8.94H318.34l0,1.26h47.83l.16.06.11-.12c0,2.78,0,5.55-.07,8.33Z"/><path class="cls-5" d="M260.6,331.16c.13,3.52,3.18,5,5.47,5.94,9.69,3.87,13.72,12.09,16.86,20.94,2.48,7,6.19,12.56,13.35,15.45,1.27.52,3.12-.24,3.87,1.55-3.59.86-7.13-.66-10.7-.25-7-.84-14-1.76-21-2.45-1.47-.14-3.57-1.43-4.38,0s1.22,2.9,2.16,4.2c6.23,8.65,11.39,17.74,12.79,28.55.28,2.17.39,4.4,1.42,6.41l.32,1.91a1.63,1.63,0,0,0,.31,1.92l.34,1.89a4,4,0,0,0,.52,3.14l.22,1.32a.88.88,0,0,0,.21,1.28,4.17,4.17,0,0,0,.4,2.53,4.73,4.73,0,0,0,.64,3.5c.17,1.38.33,2.75.5,4.13a1.79,1.79,0,0,0,.32,1.95l.15,1.29a3.92,3.92,0,0,0,.51,3.13c.07.64.14,1.28.22,1.91a2.73,2.73,0,0,0,.41,2.56l.18,1.26c-.12,1.1-.29,2.2.5,3.16l.21,1.93c-.45,1.73.36,3.33.51,5-2.06-1.2-2.57-3.5-3.21-5.41-.86-2.57-1.58-2.05-3.18-.77-3.2,2.57-6.61,4.78-10.9,5.15a2.75,2.75,0,0,0-1.91,1c-1,1.54-2.38,1.49-3.85,1.46-.05-.42-.1-.85-.14-1.27-.11-.22-.23-.45-.34-.68-12.05-27.91-23.87-55.91-35-84.22-1.66-4.23-2.93-8.62-4.53-12.88-3.6-9.61,1.26-16,8.74-19.31C241.58,334.48,251.21,333.27,260.6,331.16Zm-6.89,30.92-.66.73,8.24,7.34.54-.61C259.7,366.41,256.65,364.31,253.71,362.08Z"/><path class="cls-4" d="M324.61,387.68c1.05-1.33,2.53-.86,3.85-.86,14.08,0,28.17-.07,42.25,0a4.42,4.42,0,0,0,4.63-2.84q15.48-30.93,31.15-61.78,13.8-27.28,27.63-54.57a12.72,12.72,0,0,0,1.46-6.05c-.07-15.57,0-31.14-.05-46.71,5-1.05,10.07-.35,15.1-.38,1.72,0,1.12,1.76,1.12,2.78.05,11.77-.47,23.56.19,35.28.56,10-2,18.73-6.71,27.46-7.75,14.32-14.65,29.1-21.91,43.69Q413,343.95,402.78,364.17q-9.66,19.13-19.18,38.32c-1,2-2.12,2.77-4.36,2.71-4.12-.12-8.24.13-12.36.22a.44.44,0,0,0-.57-.07c-.95-1.26-2.32-.75-3.51-.75-10.19-.05-20.39,0-30.58,0a37.56,37.56,0,0,0-4.47-9.74Z"/><path class="cls-6" d="M447.05,490.44c-1.15-54.7-.51-109.4-.66-164.1,6.46,0,12.93.07,19.39,0,2.19,0,2.92.62,2.92,2.87q-.09,67.54,0,135.09c0,2.5-.85,3.38-3.33,3.31-6.12-.19-5.6-.36-5.6,5.68,0,5.72,0,11.44,0,17.17Z"/><path class="cls-7" d="M355.78,130.76c2.22-7.83,8.73-10.27,15.37-5.7a6.31,6.31,0,0,0,4.44,1.16c8.7-.76,14.33,5.69,12.36,14.23-.38,1.62-.23,2.32,1.33,3.15,6.48,3.45,8.59,10.24,5.25,16.71a3.67,3.67,0,0,0-.09,4c2.44,4.47,1,9-3.71,11-2.59,1.16-3.26,2.75-2.42,5.25a3.79,3.79,0,0,1-2,5.06,3.27,3.27,0,0,0-1.91,4.13c.93,3.82-.36,6-4.07,7.35s-7.3.76-10.91-.28c-.18-3-.33-5.92-.55-8.87-.12-1.6.38-2.4,2.09-2.92,3.65-1.11,5-6.57,2.47-9.41a4.72,4.72,0,0,0-5.28-1.19c-1.83.58-1,2.28-1.13,3.56-.08.88.83,2.05-.39,2.56a2.21,2.21,0,0,1-2.92-1.19c-.16-.27-.33-.54-.5-.81l-.63-1.22c0-1-.41-2.09.19-3,1.06-1.63.54-2.88-.74-4-1.33-2.67-.12-6-2.18-8.51-.17-.2.14-.79.24-1.2.23-1-3.14-7.51-4.06-7.76-.39-.11-1-.21-1.23,0-4.28,3.26-10.64-.78-14.48,4.13-.3.39-1.45,0-2.14.21-2.84.81-6,1.25-6.93,4.79a4.36,4.36,0,0,1-1.38,2.07c-1,.78-.51,1.77-.41,2.7-1.48,3.75-1.26,7.64-1,11.54-2.67-.65-4.26-2.24-4.26-5.09a3.23,3.23,0,0,0-1.08-2.51,10.65,10.65,0,0,1-.95-1.26c-2.3-3,.49-6.39-1-9.74s1.16-6,3.47-8.39c1.23-1.26.79-3.22,2-4.56,2.82-3.25,7.29-4.69,9.42-8.68a1,1,0,0,1,.85-.36c4.36,1.05,7.88-1.85,11.86-2.49,1.74.25,3.56.2,5.07,1.37a2.86,2.86,0,0,0,2.63.73,11.15,11.15,0,0,1,8.79,1.59.72.72,0,0,0,.33.45c.68,2.32,2.13,1.56,3.32.67,1.65-1.23,1.82-2.7.07-4.09-2.17-1.45-4.9-1.91-6.59-4.28-.71-1-2.37-.57-3.53.12C357.42,132.65,356.51,132,355.78,130.76Z"/><path class="cls-6" d="M77.5,491c-1.07-5.53-4-10.4-5.65-15.73-2.69-8.76-5.11-17.57-5.8-26.77-.18-2.39.47-3.32,3.11-3.3,15.56.13,31.12.06,46.68.07,3.45,0,4,.77,3.61,4.16A132.33,132.33,0,0,1,109,488.6a8,8,0,0,0-.34,1.85C98.27,490.28,87.9,491.57,77.5,491Z"/><path class="cls-8" d="M159,173.54l-1.17,1.9c.15-2,.31-4,.45-6q1.6-22,3.2-44.07c.51-.37.65-.79.18-1.3.05-1,.09-2,.14-3a8.18,8.18,0,0,0,.27-3.87c-.15-2.72,2.05-3.55,3.79-4.75l1.47.08c-.25.73-.09,1.3.77,1.22,2.21-.23,4.42-.55,6.75-.85-.51-1.17-1.46-1.16-2.07-1.63-.34-.55-.71-.54-1.1-.07l-1.42.1-.84-1.36A51.29,51.29,0,0,0,182.6,97.39c.64-.32,1.42-.45,1.72-1.25l.09-.68,0,.05c1.6-1.47,3.08-1.13,4.66.16a18.23,18.23,0,0,1,6.67,11.59,108.41,108.41,0,0,1,.36,32c-.74,5-2.73,10-7.35,12-5.34,2.38-5.88,6.1-5.53,10.82.07.95,0,1.91,0,2.86-.36,1.64.34,3.39-.51,5a1.25,1.25,0,0,0-1.67-.14c-6.54,3.24-13.3,5.18-20.63,3C159.56,172.57,159.19,172.77,159,173.54Zm29.63-59c-.64.46-1.52.74-1.38,2,1.06,0,2.08,0,3.11,0,.6,0,1.44.22,1.57-.59.1-.62-.49-1.11-1.08-1.42,1.21-1.22,1.82-2.38-.5-2.92-1.57-.37-3.63-.53-4.24,1C185.32,114.76,188.35,113.14,188.66,114.56Zm-13.09,18.62c-.16,1.51-.35,2.64-.38,3.77,0,1.51,1.1,1.64,2.21,1.54s2.88.67,3.43-.74a2.1,2.1,0,0,0-1.81-2.52C177.61,135.08,176.9,134,175.57,133.18Zm6.31-1.79c2.71.21,4.74.45,4.32-1.73a33.41,33.41,0,0,0-4.69-11.49c.17,3.27,1.48,6.15,2.69,9C185,129,185.72,130.6,181.88,131.39Zm9.31-11.65a1.75,1.75,0,0,0-1.51,1.92,1.56,1.56,0,0,0,1.73,1.5,1.63,1.63,0,0,0,1.68-1.89C193,120.33,192.34,119.8,191.19,119.74ZM175,122.19c-.07-1-.53-1.69-1.54-1.7a1.66,1.66,0,0,0-1.88,1.7,1.55,1.55,0,0,0,1.56,1.66A1.64,1.64,0,0,0,175,122.19Zm-.49-3.94c-2.88-2.85-4.68-2.78-6.59,0C170.05,117.75,172,118.06,174.51,118.25Zm6.41-1.52.08-.26-.25.17Z"/><path class="cls-9" d="M414,91a17.68,17.68,0,0,0,1.23-3.18c.75-4.21-1.63-7.22-6-7.59-1.27-.1-2.49-.38-3.74-.56-1.92-.27-1.63-1.57-1.66-2.82,0-1.55.66-2.38,2.27-2.37s3.18,0,4.77,0c1.93,0,2.33-.88,1.08-2.32-1.75-2-1.35-4.07-.35-6.18s2.68-3,5.28-3c16.2.14,32.4.06,48.6.08,1.94,0,4.22-.6,5,2.08,1,3.34,0,7.94-2.41,8.87-2.66,1-1.94,2.94-1.89,4.68.06,2.26,2,1.31,3.15,1.52.62.11,1.56,0,1.63.68.2,2.09.08,4.22.27,6.32.22,2.35-.38,3.8-3,4.2a2.59,2.59,0,0,0-2,2.29c0,3.14-.73,6.34.51,9.41-4.23,0-8.46.09-12.69,0A6.14,6.14,0,0,1,448.5,95c.43-1.41,3-2,1.88-3.46-.92-1.15-2.89.29-4.47.2-3.64-.23-7.3-.19-11-.16C427.94,91.62,420.93,91.89,414,91Z"/><path class="cls-7" d="M161.51,125.39q-1.6,22-3.2,44.07c-.14,2-.3,4-.45,6-1.06,4.14-3.75,7.38-6,10.85L149.48,189c-2.28,2-4.57,4-7.63,4.74l-4,0-1.85-.37c-.12-.31-.3-.43-.61-.21l-1.23-.46c-.11-.37-.33-.53-.71-.37l-.59-.26c-.08-.37-.3-.53-.68-.39L128.23,189c0-.35-.18-.49-.52-.42q-1.77-1.74-3.56-3.46c.14-.3,0-.39-.27-.35l0-.17-.16-.06c.06-.35-.08-.52-.44-.53-.68-1.46-2.45-2.49-1.79-4.48,2.69-1.25,1.54-3.92,2.21-5.91l.27-.58c3.8-10.5,11.5-17.94,19.46-25.27S159,132.8,161,121.45c0-.15.51-.23.79-.34-.05,1-.09,2-.14,3ZM131.4,163.21c5-4.67,10.39-8.91,15.11-13.87C140.77,153.21,135.39,157.46,131.4,163.21Zm-3.64,6.56c-3,3.16-3.38,9.76-1.11,13.77C126.62,179.07,125.76,174.6,127.76,169.77Zm26.6-28.21c3.22-3.24,5.71-6.89,5.61-11.77C159,134.17,155.84,137.41,154.36,141.56Zm-1.57,2a10,10,0,0,0-4.91,5A9.68,9.68,0,0,0,152.79,143.52Zm-21.92,20.26c-1.63,1.11-2.27,1.93-2.15,3.39C130.29,166.82,130.53,165.76,130.87,163.78Z"/><path class="cls-6" d="M414,91c7,.88,14,.61,21,.55,3.66,0,7.32-.07,11,.16,1.58.09,3.55-1.35,4.47-.2,1.15,1.43-1.45,2-1.88,3.46a6.14,6.14,0,0,0,5.56,8.1c4.23.11,8.46,0,12.69,0,1.77,1.06,3.72.61,5.6.62s2.69.74,2.67,2.65-1.31,1.83-2.61,1.83c-6.46,0-12.92.08-19.38,0-2.25,0-3,.72-2.87,2.92s-.05,4.66.06,7c.13,2.9-2,2.21-3.49,2.19s-3.66.78-3.53-2.15c.08-2.11-.14-4.24.05-6.35.25-2.84-.95-3.61-3.68-3.6-18.85.09-37.71,0-56.56,0-4.34,0-8.69.09-13,0-2.38-.06-3.26.88-3.12,3.2.13,2-.13,4,.07,6,.25,2.54-.94,3-3.16,3-2-.06-3.55-.11-3.29-2.82.2-2.1-.05-4.24.06-6.35s-.78-3-3-3c-5.93.09-11.86,0-17.79,0-1.66,0-2.84-.08-2.83-2.29s1.39-2.18,2.93-2.18c7.1,0,14.19,0,21.29,0,.52.68,1.28.62,2,.62h22.7c.73,0,1.48,0,2-.63h15.9c.26.37.71.7.92.18.29-.71-.43-.73-.91-.82-4.14-4.37-2.94-9.13-.1-11,1.75-1.16,3.6-1,5.49-1Zm1.27,6.59c0-.77,0-1.29,0-1.82,0-1.14.14-2.58-1.43-2.68-1.83-.12-1.71,1.43-1.74,2.69,0,.41,0,.83,0,1.25.07,1.72-.48,4.35,1.76,4.38C416.25,101.46,414.75,98.77,415.22,97.6Z"/><path class="cls-5" d="M349.67,316.78c.86,1.79,2.17,3.41,2,5.57-.07,1.48-1.39,1.64-2.31,2.26-2.43,1.66-5.56,1.76-7.91,3.6-2.62.29-4.93,1.48-7.93,2.36,2.09,1.51,4.07.31,5.65,1.25-3.89,2.5-47.56,4.27-60.71,2.6,5.05-1.39,7.75-6.32,11.52-9.92,2.23-.49,4.37-1.41,6.72-1.42a2.21,2.21,0,0,0,2-1.68c2.13-5.48,4.29-10.95,6.35-16.45a10.15,10.15,0,0,0,.24-2.78c.46-.21,1.17-.31,1.34-.66,1.4-3,3.87-3.52,6.79-3.18a14.17,14.17,0,0,0-.34,2.12c0,2.69-1.86,5.32-.3,8.07-.33,3-.54,6.06-1,9.06-.37,2.22.39,2.91,2.34,2.06,5-2.2,9.92-4.64,15-6.79s9.52-5.42,14.86-6.89h1.3l0,.65c.11.87-.31,1.89.66,2.54h0a3.54,3.54,0,0,0,1.27,3.19v0a1.3,1.3,0,0,0,.65,1.3l0,0c0,.71-.11,1.47.66,1.93v0A1.11,1.11,0,0,0,349.67,316.78Z"/><path class="cls-5" d="M362.61,177.38l.63,1.22c.17.27.34.54.5.81a2.21,2.21,0,0,0,2.92,1.19c1.22-.51.31-1.68.39-2.56.11-1.28-.7-3,1.13-3.56a4.72,4.72,0,0,1,5.28,1.19c2.53,2.84,1.18,8.3-2.47,9.41-1.71.52-2.21,1.32-2.09,2.92.22,2.95.37,5.91.55,8.87l.57,13c-6.46-.2-12.6,1.8-18.88,2.84-3,.5-5.91,1.11-8.87,1.68a18.8,18.8,0,0,1-.13-5.75c6.37-.59,12.6-1.46,16.15-7.89a34.76,34.76,0,0,1-16.81,4c-6.69-1.31-11.35-7.12-11.86-14.78.36-.81.67-1.62-.29-2.26a8.53,8.53,0,0,1-.38-5.28c3-.14,6.05.72,8.83-1.11.85,3.83.85,3.83,4.07,2.7-1.84-.71-2.68-1.71-1.76-3.64a13.17,13.17,0,0,0,.66-3.37c.14-.35.28-.71.43-1.07.78-1.17,1.72-3.42,2.33-3.34,2.38.33,2.44-1.49,3.26-2.66,1.87-2.66,4.5-4.18,7.62-3.22,2.63.81,5.32,2.2,5.54,5.67-.06,3.28-2.33,5.53-3.81,8.15-3.29,3.39-6.14-.67-9.54-.91,3.83,4.33,8.95,4.88,12.06.34C360.64,180.18,360.55,177.19,362.61,177.38ZM349.35,172c-1,1.1-1.26,2.26.12,3.19a1.54,1.54,0,0,0,2.4-.63c.67-1.48,0-2.4-1.53-2.75.61-.79,1.5-.56,2.3-.71s2.51.8,2.42-.89c-.07-1.19-1.64-1.63-2.78-1.51C350.43,168.89,348.62,169.4,349.35,172Zm-.62,12.41c-1.79,2.59-5.15,2-6.26,5,1.23.71,2.53,1.83,3.95.85C348.09,189,348.92,187.23,348.73,184.41Zm-3.36-6.58c.1.17.2.53.41.64.38.18.61-.16.6-.49a1,1,0,0,0-.37-.75C345.64,177,345.47,177.38,345.37,177.83Z"/><path class="cls-6" d="M269.59,179.42c-1.69.25-2.19-1-2.66-2.17-1.95-4.88-3.57-9.87-5-14.92-1-3.59.26-6.42,2.37-9,1.76-2.18,2.84-3.91.09-6.31-3.72-3.25-5.09-7.56-4.34-12.52.18-1.25-.19-2.58.06-3.8,1.89-9.19-4.48-13.31-10.76-17.28-3.33-2.1-7-4-11.27-2.72s-5.48,5.23-2.4,8.41a19.49,19.49,0,0,0,2.75,2.63c1.54,1.06,3.1,2.16,5.19.82,1.28-.81,2.9-.26,4.37-.35,0,3.88-2.38,6.84-3.81,10.16-1.16.1-2.27-.16-2.57-1.37-1-4.18-4.88-5.39-7.78-7.61a9.09,9.09,0,0,1-3.81-9.08c.72-4.37,4.8-7.05,10-7.41,7.3-.5,13,2.93,18.46,7.09a6.66,6.66,0,0,1,1.47,1.19c3.57,4.87,8.72,4.27,13.91,4.63a22.26,22.26,0,0,0,16.7-5.36,21.07,21.07,0,0,1,15-5c5.2.29,9.66,2.68,10.42,6.16a11.52,11.52,0,0,1-7.23,12.68,4.26,4.26,0,0,0-3.11,3c-.63,1.92-1.73,3.7-4.24,3.6-.68-3.5-3.1-6.46-3.18-10.16,1.89.09,3.76.19,5.65.4,3.41.38,5.54-2.17,7.47-4.54a4.07,4.07,0,0,0,.08-5c-1.71-2.7-4.29-3.31-7.2-2.82-4.63.77-8.31,3.45-11.94,6.18-1,.76-2,1.54-2.94,2.39-2.72,2.44-5.07,5.06-4.5,9.17.18,1.24-.1,2.55.05,3.8.6,4.94-.63,9.12-4.49,12.5-2.14,1.89-2.27,4.08-.16,6.28,3.62,3.79,3.31,8.13,1.65,12.66-1.41,3.85-2.73,7.74-4.08,11.62a2.73,2.73,0,0,1-2.49,2.09c-.06-4.14,1.53-8,2.09-12,.7-5,1.8-10.13-2.55-14.27-.84-.81-1.66-1.89-1.26-3.09.66-2,.43-4,.42-6,0-1.4.33-2.65,1.5-3.29,4-2.2,5.61-5.46,4.94-10-.12-.87.41-1.83.54-2.77a5,5,0,0,0-5-5.88c-2.64,0-5.3-.12-7.93,0s-4.38,1.34-4.25,4.38a74.49,74.49,0,0,1,0,7.62,4.45,4.45,0,0,0,2.14,4.56c3.58,2.09,4.84,5.12,4.31,9.21-.29,2.26,0,4.31-2.21,6.15a8.28,8.28,0,0,0-2.88,8.27c.68,3.17,1,6.38,2.3,9.47C268.49,174.23,269.65,176.7,269.59,179.42Z"/><path class="cls-7" d="M182.6,97.39A51.29,51.29,0,0,1,169.45,110a7.75,7.75,0,0,0-3.56,2.51c-1.74,1.2-3.94,2-3.79,4.75-1.48-1.06-1.75-.21-1.8,1.11-.2,4.91-2.16,9.21-4.66,13.33-4.57,7.56-11.31,13.13-17.59,19.1-5.25,5-10.06,10.31-13.12,17-.29.63-.5,1.43-1.44,1.48.19-7,2.56-13.12,6.06-19.2,5.2-9,6.87-19.5,10.19-29.3.34-1,.64-2,.95-3a1,1,0,0,0,.44-1.24l.13-.64c1-.11,2.33.36,2.33-1.4,2.72-5.51,7.75-7.56,13.3-8.65,6.64-1.31,13.23-2.71,19.47-5.5C178.46,99.36,180.19,97.63,182.6,97.39Z"/><path class="cls-9" d="M387.88,103.74c-.52.68-1.27.63-2,.63h-22.7c-.73,0-1.49.06-2-.62.15-6.22-1.93-12.16-2.22-18.33-.13-2.81-.63-5.59-1-8.39,1,0,1.92,0,2.86.06,10.68,1.21,21.37,2.13,32.11,2.47C390.7,87.5,389.33,95.63,387.88,103.74Z"/><path class="cls-7" d="M183.18,165c0-.95.07-1.91,0-2.86-.35-4.72.19-8.44,5.53-10.82,4.62-2.05,6.61-7,7.35-12a108.41,108.41,0,0,0-.36-32A18.23,18.23,0,0,0,189,95.67c-1.58-1.29-3.06-1.63-4.66-.16.12-.72.25-1.44.42-2.39l-1.65,1.21c0-1.31,0-2.62,0-3.93a11,11,0,0,0,4,.88c7.54.47,11.56,4,12.57,11.63.68,5.14,1,10.33,1.32,15.5a27.28,27.28,0,0,0,1,6.57c3.91,12.22,2.54,24.49.46,36.78-.12.73-.27,1.45-.41,2.18l-.31.87-.19.66-.35.6-.49,1.23-.59.87c-1.63.54-3.28.22-4.92.09a6.54,6.54,0,0,0-3.87-.85,2.76,2.76,0,0,0-1.87-.71c-.14-.32-.33-.47-.66-.25l-1.32-.35c-.11-.3-.28-.44-.57-.19Z"/><path class="cls-9" d="M269.59,179.42c.06-2.72-1.1-5.19-2.1-7.54-1.3-3.09-1.62-6.3-2.3-9.47a8.28,8.28,0,0,1,2.88-8.27c2.24-1.84,1.92-3.89,2.21-6.15.53-4.09-.73-7.12-4.31-9.21a4.45,4.45,0,0,1-2.14-4.56,74.49,74.49,0,0,0,0-7.62c-.13-3,1.61-4.22,4.25-4.38s5.29-.07,7.93,0a5,5,0,0,1,5,5.88c-.13.94-.66,1.9-.54,2.77.67,4.51-.94,7.77-4.94,10-1.17.64-1.51,1.89-1.5,3.29,0,2,.24,4-.42,6-.4,1.2.42,2.28,1.26,3.09,4.35,4.14,3.25,9.31,2.55,14.27-.56,4-2.15,7.85-2.09,12Z"/><path class="cls-1" d="M263.89,456.73c1.47,0,2.88.08,3.85-1.46a2.75,2.75,0,0,1,1.91-1c4.29-.37,7.7-2.58,10.9-5.15,1.6-1.28,2.32-1.8,3.18.77.64,1.91,1.15,4.21,3.21,5.42l1.09.06.05,0,.55.69,2.14,5.07.37.74.44,1.61a3.65,3.65,0,0,1-2.34,2c-9.48,3.9-18.92,7.86-28.42,11.71-1.22.5-2.53,1.83-4,.46,1.11-1.47,2.21-2.95,3.31-4.42,2.7-1.57,4.4-4,6-6.68-3.95,1.17-7.63,2.69-11.33,4.18-1.42.57-2.82,1.62-4.46.57l2.36-3.06a3.2,3.2,0,0,0,2.34-2.59c.64-.66,1.27-1.33,1.91-2,.88.06,1.29-.34,1.18-1.23l2.62-2.61c.83.06,1.29-.29,1.26-1.16Zm16.37-3.17a1.72,1.72,0,0,0-1.71,1.91c.05,1.11.64,1.87,1.82,1.69a1.93,1.93,0,0,0,1.76-2C282.15,454,281.33,453.59,280.26,453.56Zm7.13,8.55a1.67,1.67,0,0,0-1.76-1.57,1.21,1.21,0,0,0-1.37,1.35,1.59,1.59,0,0,0,1.72,1.79C286.85,463.7,287.33,463.24,287.39,462.11Zm-13.09,2.07a2.51,2.51,0,0,0-3.27-1.61c-.45.1-.75.53-.43.94C271.53,464.7,272.81,464.34,274.3,464.18Z"/><path class="cls-8" d="M137.21,250.5a.74.74,0,0,1,.07-.39l.63-.75,0-1.21c2.41-2.53,3.09-5.91,4.44-9l2-1.79a4.85,4.85,0,0,0,3.69-3.11c1.57-3.41,4.06-5.29,8-4.65a9.27,9.27,0,0,0,1.9,0c3.49-.18,7-.41,9.16,3.2a1.89,1.89,0,0,0,1.32,1.82c.91,1.08,1.81,2.17,2.71,3.26,0,.63-.08,1.27-.13,1.9a.91.91,0,0,0-.13.48c-1.71.74-1.44,1.51,0,2.28,0,.85.3,1.78-.55,2.44-2.64.58-4.49-1.51-7-2.39.27,2.25,2.3,3.45,2,5.48l-2,0c-2.46-1.64-3.95-5.25-8.58-4,3.13,1.66,5.8,2.94,6.77,6l-.07.06-2.57,0a11.78,11.78,0,0,0-2.5-1.27c-2-.46-4.22-1.62-5.35,1.53-.53,1.48-2,2-3.55,2.2l-.72,0c-3.18-.38-5.84,1.48-8.82,2C137.66,253.28,138.52,251.68,137.21,250.5Z"/><path class="cls-4" d="M183.09,90.4c0,1.31,0,2.62,0,3.93A7.69,7.69,0,0,1,180,96.81c-7.6,3.82-15.68,6-24,7.61-5,1-9.88,2.41-12.36,7.6-1-.64-.26-1.71-.62-2.5,1.19-3.32,1.66-6.9,3.78-9.86l0,.07a.32.32,0,0,1,.24-.42l.41-.64a1.63,1.63,0,0,1,.93-1.34.76.76,0,0,0,.36-.46,16.43,16.43,0,0,1,7.75-6.06c1.91.25,3.35-.92,4.93-1.65l1.3-.06c1.05.29,1.73-.48,2.52-.91l2.61-.18a5.81,5.81,0,0,0,5,0,6,6,0,0,1,3.77.41c.36,1.13,1.22.81,2,.68l1.27,0c.37.6.77.68,1.23.09A1.91,1.91,0,0,1,183.09,90.4Z"/><path class="cls-6" d="M46.78,336.33c-.41-.29-.74-.55-1.09-.76-1.08-.64-3.22-.3-2.93-2.19.23-1.49,1.94-2.16,3.35-2.53a23.88,23.88,0,0,1,18.32,2.54c1,.55,2.21,2.25,3.17,1.28,1.27-1.28-.69-2.29-1.24-3.44-3.5-7.29-5-14.9-3.44-23,.11-.55.27-1.13.83-1.22s.84.49,1.11,1c3.6,6.3,6.09,12.94,6.3,20.29.06,2.11,0,4.23,0,6.35,0,3.06-1.18,4-4.33,3.51-2.59-.38-5.2-.64-7.8-1-3.32-.48-5.78,1.21-8.36,2.94C45,343.91,39,347.25,31.85,347.31c-.8,0-1.82.36-2.35-.49-.68-1.1.44-1.67,1-2.4,3.64-5,8.79-6.93,14.72-7.29A1.47,1.47,0,0,0,46.78,336.33Z"/><path class="cls-1" d="M143.66,471.6a179.15,179.15,0,0,1,19.8,0l-.18,16.24-35.49,1.24a2.92,2.92,0,0,1-2.11-.44c2.58-3.18,6.66-3.82,9.9-5.87a10.14,10.14,0,0,1,2.64-1.06c3.6-1,6.36-2.64,5.95-7,1-.49,2.13.68,3.16-.2-.75-1.72-2.11-1.18-3.28-1.22Zm14.59,7.18a1.88,1.88,0,0,0-3.75.28,1.72,1.72,0,0,0,2.06,1.85C157.68,480.82,158.22,480.1,158.25,478.78Z"/><path class="cls-6" d="M52.79,381.21c-2.06-2.38-4.32-5.29-6.9-7.88-3-3.05-4.42-6.9-5.73-10.78-.36-1.07-.79-2.76.48-3.49s1.94.86,2.79,1.55A39.54,39.54,0,0,1,57,381c.26-5.08-.2-10.16,2.08-14.91a29.78,29.78,0,0,1,4.14-5.94c.95-1.14,1.94-1.14,2.28.76,1,5.72-1.47,10.65-3.22,15.81-2.46,7.29-7.61,9.66-14.86,9.45-4.54-.14-8.83-.58-12.6-3.34-2.16-1.57-2.14-2.78.34-3.79,2.82-1.14,5.83-.84,8.73-.22C47.11,379.57,50.31,380.55,52.79,381.21Z"/><path class="cls-1" d="M159,173.54c.16-.77.53-1,1.34-.73,7.33,2.16,14.09.22,20.63-3a1.25,1.25,0,0,1,1.67.14c-.18,1.26-.33,2.52-.56,3.76q-2.62,14.34-5.28,28.67c-.64.48-.42,1.94-1.79,1.56A322.12,322.12,0,0,0,159,173.54Z"/><path class="cls-10" d="M198.07,370.31l-1-1c2.91-1.95,6.58-1.75,9.61-3.41,1.58-.86,3.3-1.43,4.86-2.32,4.15-2.36,6.42-5.5,6.13-10.78-.5-8.65.16-17.36-.34-26-.7-12.15,0-24.32-.66-36.45-.43-8.14-.29-16.26-.48-24.4,0-1.76,0-3.56-2.5-1.77-1.06.74-2.08.11-3-.26-6.59-2.61-10.46-7.27-10.87-14.52h1.07c-.15,6,3.85,9.31,8.24,12.22,2.67,1.76,3.29,1.3,3.32-2,0-1.48-.06-3-.09-4.44s0-2.7.12-4c.27-2.51-.81-5.14.67-7.54,1,1.33.53,2.86.55,4.3.07,3.91,0,7.82,0,11.73,0,.7-.37,1.6.35,2.06s1.27-.42,1.85-.79c4.91-3.05,8.76-7.31,12.64-11.47s3.42-9.65,3.43-15c0-15.26-6.08-29-10.58-43.09a9.14,9.14,0,0,1-.76-4.32l.06-.05c3.58,6.87,5.29,14.42,7.94,21.63,3.75,10.19,5,20.65,4.82,31.42a17.33,17.33,0,0,1-4.77,11.72,92.46,92.46,0,0,1-9.08,8.4,5.82,5.82,0,0,0-2.19,4.95c.22,14.59.49,29.2.9,43.78.31,11.11.15,22.21.5,33.31.13,3.91.29,7.81.55,11.71.29,4.52-1.88,7.63-5.42,10.07C209.09,367.33,203.61,368.87,198.07,370.31Z"/><path class="cls-1" d="M186.53,497.45c.41,1.7.88,3.39,1.21,5.1.39,2-.1,3.5-2.52,3.58a9.08,9.08,0,0,0-1-1.94q-8.82-10.56-17.7-21.06l-.06-11c2.82,0,5.65-.16,8.47-.07,1.51.05,3.91-.89,3.36,2.39-.14.77.87.68,1.47.7,1.26,0,2.51,0,3.77.05a17,17,0,0,1-.45,6.34c-1.85-.26-3.9-1.55-5.72,1.3h5.75c1.2,2.47,1.16,5.27,2,7.81.15.46.3.92.46,1.39l.37,1.28c0,.74,0,1.49,0,2.24-1.41.71-3.6.42-3.85,2.93C183.78,498.34,185,497.08,186.53,497.45ZM170.8,475c-.94.23-1.6.71-1.52,1.73a1.58,1.58,0,0,0,1.94,1.56,1.39,1.39,0,0,0,1.28-1.8A1.64,1.64,0,0,0,170.8,475ZM178,489.82l6.09-2C181.05,486.8,179.26,487.47,178,489.82Zm6.73,2.74c-1.92-1.09-3.25-.77-4.45,1.9Z"/><path class="cls-1" d="M113.14,99.79a2.41,2.41,0,0,1-1.06,2q-10.86,10.23-21.71,20.47c-1.14,1.08-1.89.86-2.91-.13-3.64-3.54-7.3-7.06-11-10.49-1.4-1.27-1.15-2.11,0-3.35,3.32-3.45,3.27-3.5,6.8-.35,6.41,5.69,6.4,5.69,12.6-.29,3.66-3.52,7.32-7,11-10.5.76-.71,1.47-2.29,2.82-1.25A10.28,10.28,0,0,1,113.14,99.79Z"/><path class="cls-9" d="M357.37,75.76c-1.5-.77-3.05-1.35-3.22-3.48-.35-4.21.09-4.79,4.32-4.79q17.26,0,34.54,0c1.36,0,3.36-.55,3.09,1.9-.24,2.11,1.4,5.18-2.51,5.72-10.42,0-20.84,0-31.26,0A16.54,16.54,0,0,0,357.37,75.76Z"/><path class="cls-6" d="M128.41,30c4.45,0,4.45,0,4.45,4.39,0,25.68,0,51.36,0,77,0,2.51-.71,3.53-3.19,3.18,1.3-5.66.17-11.12-1.34-16.54a1.56,1.56,0,0,0,0-2.57,17.73,17.73,0,0,0,.64-5q0-29,0-58Z"/><path class="cls-6" d="M132.19,398.21c.76,2.71.75,5.52,1.06,8.28l-7.79,3.58.22.84c2.58-.78,5.51,1.67,7.85-1.34.74,2.32.58,4.74.89,7.11-4.24.79-8.06,2.95-12.47,3.4a34,34,0,0,1-9.72-.22c-2.24-.4-1.74-1.32-.73-2.52a12.45,12.45,0,0,1,5.4-3.78c.85-.31,1.88-.32,2.34-1.6-2-1-3.8.87-5.77.48-.21-1.44.79-2.28,1.65-3.15a37.57,37.57,0,0,1,14-9.06A7.57,7.57,0,0,0,132.19,398.21Z"/><path class="cls-9" d="M128.41,30c.2.85.41,1.7.62,2.54-2.52,1.4-4-1.4-6.47-1.38q-45.43.26-90.87,0c-1.85,0-3.2,1.93-4.2,1.49-3-1.36-2.74.59-2.74,2.28q0,36.69,0,73.4c0,3.46,2.18,5.58,5.62,5.58,9.1,0,18.21,0,27.32,0l.11,1.29c-10.18,0-20.35,0-30.52,0-2.13,0-3.13-.27-3.26-2.86C22.7,85.91,23.89,59.44,23.43,33c-.05-3.09,1.73-3,3.9-3Q68,30,108.7,30Z"/><path class="cls-8" d="M213.09,243.63c-1.48,2.4-.4,5-.67,7.54-.14,1.33-.08,2.69-.12,4-1.5-.36-2.73-1.56-4.39-1.41-2.66.26-4.3-1-5.25-3.41-.25-.65-.42-2.18-1.83-1h-1.07c-.09-.05-.22-.07-.28-.14-1.14-1.5-3.63-8.5-3.58-10,.15-4.59,7.37-8.73,11.11-6.3,1.08.7,2.23.55,3.34.81l.5.94C210.9,237.84,213.27,240.41,213.09,243.63Z"/><path class="cls-10" d="M57.8,115.19c0-.43-.07-.86-.11-1.29,1.77-3.58.05-7.2.15-10.79.33-1.11.68-2.21,1-3.33A36.26,36.26,0,0,1,102.8,74c4.89,1.26,9.1,3.86,13.38,6.36a49.73,49.73,0,0,1,11.46,15.23l.74,2.5c1.51,5.42,2.64,10.88,1.34,16.54-.12.67,0,1.41-.67,1.89h-.71c1.06-8.36.31-16.46-4-23.9a34.91,34.91,0,0,0-54.57-8.39c-13.9,12.9-14.73,36.59,0,50.42,3.61,3.38,8,5.48,12.2,7.88,0,.24,0,.49,0,.74-4.45-.38-7.79-3.07-11-5.72-6.8-5.59-11.33-12.64-12.85-21.45A3.83,3.83,0,0,0,57.8,115.19Z"/><path class="cls-6" d="M78.1,414.44c-2-8.46-2.63-16.12-.62-23.89a14,14,0,0,1,4.09-7c1.78-1.68,2.38-1,2.91.92,1.35,4.78,0,9.39-.83,14-.68,4-1.71,7.85-4.22,11.15C78.52,410.86,79.08,412.5,78.1,414.44Z"/><path class="cls-6" d="M110.65,295.8a60.88,60.88,0,0,1-8.34,12.87,51.64,51.64,0,0,1-7.42,6.3c-.52.4-1.12.77-1.69.2s.12-.91.31-1.37c1.28-3.21,2.61-6.41,3.76-9.67a25.3,25.3,0,0,1,7.94-10.83,8,8,0,0,1,5.84-2C111.05,292.81,111.61,294.37,110.65,295.8Z"/><path class="cls-1" d="M313.45,298.33c-2.92-.34-5.39.22-6.79,3.18-.17.35-.88.45-1.34.66a4,4,0,0,1-1-4.63c3.79-8.09,7.76-16.09,12.84-23.48a18.55,18.55,0,0,1,0,3.16C316,284.26,314.69,291.3,313.45,298.33Z"/><path class="cls-10" d="M113.24,180.69c-3.72,11.88-7.78,23.67-11,35.67-2.64,9.7-6.15,19.2-6.36,29.52s4.89,12.92,11.35,15.8c3.19,1.42,6.9.69,9.91,2.62l-2,1.66-1.27-.08c0-1.24-1-1.5-1.93-1.72-2.33-.56-4.68-1-7-1.55l-4.31-1.82c-3.42-3.56-6.65-7.4-6.3-12.64.33-4.8.13-9.67,1.55-14.4,4-13.31,7.85-26.68,11.91-40,1.35-4.43,3.18-8.71,4.79-13.06Z"/><path class="cls-6" d="M91.81,286.54c-10.23-8.78-16.62-18.7-13.42-25.23C87.25,267.3,91.23,275.93,91.81,286.54Z"/><path class="cls-6" d="M67.12,400.68c-2-7-2.56-13.73-.48-20.49a51.63,51.63,0,0,1,3.28-7.46c.24-.49.57-1,1.14-1s.63.44.71.89C73.1,379.79,73.38,393.48,67.12,400.68Z"/><path class="cls-6" d="M112,281.8c-4.24,1.86-7.79,5-12.12,6.65-1.76.69-3.48,1.5-5.26,2.14-.41.15-1-.15-1.48-.24a4.61,4.61,0,0,1,.27-1.15c4.26-7.71,10.31-13.14,19.17-15C112.2,276.75,112.94,279.34,112,281.8Z"/><path class="cls-6" d="M42.66,353.05a13.87,13.87,0,0,1-1.58,0c-.69-.08-1.64.35-2-.53s.53-1.27,1.07-1.73A41.1,41.1,0,0,1,63.35,341c.6-.06,1.33-.25,1.72.42s-.14,1-.53,1.33C58,347.68,51.32,352.54,42.66,353.05Z"/><path class="cls-6" d="M57.59,428.77c-1.74.16-2-.87-1-2.68,3.91-7.3,10.27-10.88,18.24-12,.59-.08,1.31-.22,1.72.44.28.45,0,.85-.32,1.12-4.34,4-7.75,9-13.21,11.71A11.61,11.61,0,0,1,57.59,428.77Z"/><path class="cls-11" d="M125.68,488.66a2.92,2.92,0,0,0,2.11.44l35.49-1.24c.21,1.21.41,2.43.62,3.64l-39.27.12c-1.36,0-2.51-.11-1.34-1.89l.69-.56Z"/><path class="cls-8" d="M256.78,477.68c1.51,1.37,2.82,0,4-.46,9.5-3.85,18.94-7.81,28.42-11.71a3.65,3.65,0,0,0,2.34-2c1.28.85.61,2.24.93,3.35l-.76,1.74c-2.63,1.07-5.95.73-7.6,3.76-1.24-.93-2.43-.3-3.6.14-7.41,2.79-14.81,5.63-22.23,8.39-1,.37-2.39,1.56-3,.38A2.55,2.55,0,0,1,256.78,477.68Z"/><path class="cls-6" d="M110.65,364c.06,7.17.25,14.37-2.55,21.21-.24.57-.14,1.34-1,1.4-.62,0-.83-.48-1-1-2.72-7.4-3.77-14.83-.62-22.39C107.1,364.15,108.93,363.68,110.65,364Z"/><path class="cls-6" d="M46.89,417.81c-1.41-.09-1.32-1.13-1-2a27.69,27.69,0,0,1,15.8-16.19,1.74,1.74,0,0,1,2.06.29c.2.27,0,1.05-.25,1.43-3.37,5.09-6.6,10.29-11.39,14.22A13.66,13.66,0,0,1,46.89,417.81Z"/><path class="cls-12" d="M185.63,492c-.16-.47-.31-.93-.46-1.39,4.66.05,9.31.13,14,.14q36.72,0,73.45,0c2.39,0,4.79-.27,7.18-.42,0,.42.07.84.1,1.26-2.51.66-5.05.08-7.57.08-24.2.05-48.41,0-72.61.05-4.54,0-9.08.24-13.61.38Z"/><path class="cls-10" d="M174.07,250.54l1.33-1.22.79.06c.77,13.93.12,27.89.7,41.81.67,15.95.24,31.9.44,47.84h-1.16c0-4.34,0-8.69-.12-13-.61-24.13-.68-48.26-.69-72.39,0-1,.74-2.47-1.08-2.85Z"/><path class="cls-6" d="M357.37,75.76a16.54,16.54,0,0,1,5-.66c10.42,0,20.84,0,31.26,0-.21,1.48-.43,3-.64,4.44-10.74-.34-21.43-1.26-32.11-2.47-.94-.11-1.9,0-2.86-.06A1.3,1.3,0,0,1,357.37,75.76Z"/><path class="cls-10" d="M112,281.8c1-2.46.21-5.05.58-7.56.74-.74.45-1.71.59-2.59h1.22c-1.62,11-2.17,22-3.09,33-1.17,14.08-2.19,28.17-3.34,42.25-.35,4.36-.89,8.72-1.4,13.68-.82-3.09-1.88-5.49,0-8.06.92-1.3-.54-2.78-.39-4.29q.9-9.6,1.59-19.23c.51-6.91,1.31-13.8,1.71-20.72.24-4.15.14-8.41,1.23-12.51,1-1.43.4-3,.4-4.5C111.88,288.18,111.79,285,112,281.8Z"/><path class="cls-5" d="M328.53,178.31c-.3-3.9-.52-7.79,1-11.54.87-.86,2.45.47,3.11-1l1.08.05c1.43.95,2.79,2,4.6,2.18h0c0,.86.4,1.31,1.28,1.29v0l0,3.77c-.52,2.76-2.63,4.66-3.81,7.06-2.33,2.11-4.66,1.42-7,0C328.66,179.48,328.6,178.89,328.53,178.31Zm6.59-4.7c-.13-1-.69-1.75-1.78-1.69a1.51,1.51,0,0,0-1.4,1.73c0,.9.39,1.7,1.39,1.69A1.65,1.65,0,0,0,335.12,173.61Zm2.3-3.06a2.07,2.07,0,0,0-1.85-1.26c-1.13-.09-2.35-.38-3.26.63a.93.93,0,0,0-.08.86c.89.82,2,.32,3,.36C335.93,171.17,336.73,171.45,337.42,170.55Z"/><path class="cls-6" d="M100.56,260.79l4.31,1.82c-2.11,8-7.53,14.2-11.56,21.75-1-2.67.11-4.84.22-6.95a29.81,29.81,0,0,1,5.35-15.23A7.68,7.68,0,0,1,100.56,260.79Z"/><path class="cls-6" d="M107.3,416.23c-1.63-3.25-1.3-6.54-.8-9.84a30.18,30.18,0,0,1,5-12.48c.47-.69,1-1.44,2-1.28s.86,1.06.87,1.77C114.52,402.44,111.88,409.59,107.3,416.23Z"/><path class="cls-13" d="M144.4,237.4l-2,1.79c-.2,0-.41,0-.62,0-.1-.9-.64-1.24-1.5-1.26a71.33,71.33,0,0,1-17.4-2.5c-6.77-1.84-13.32-.7-19.52,2.51,5.52-5.35,12.27-5.92,20.29-4.24-3.84-4.34-8.35-5.25-13.08-6.47,5-1.68,9.71.18,15.23,5.87a8.05,8.05,0,0,1,1.42-5.39l.26,0h.26c0,1.35.24,2.83-.2,4-.94,2.53.39,3.24,2.38,3.54C134.72,236,139.57,236.71,144.4,237.4Z"/><path class="cls-12" d="M123.49,169.25c.94-.05,1.15-.85,1.44-1.48,3.06-6.68,7.87-12,13.12-17,6.28-6,13-11.54,17.59-19.1,2.5-4.12,4.46-8.42,4.66-13.33,0-1.32.32-2.17,1.8-1.11a8.18,8.18,0,0,1-.27,3.87c-.28.11-.76.19-.79.34-2,11.35-9.67,19-17.63,26.35S127.75,162.57,124,173.07c-.11-1.2-1.07-1.16-1.91-1.29h0c0-.21,0-.42,0-.62,1.2-.21,1.58-.84,1-2l.23-.15Z"/><path class="cls-9" d="M244.15,132.35c1.43-3.32,3.86-6.28,3.81-10.16a13.13,13.13,0,0,1,7.57,4c2.52,2.88,1.78,6.16-1.79,7.5S247.15,134.21,244.15,132.35Z"/><path class="cls-9" d="M298.21,124.73c.08,3.7,2.5,6.66,3.18,10.16-2.65,1.46-5.27,2.25-8.44,1.37-3.88-1.07-5-4.1-2.52-7.31A10.59,10.59,0,0,1,298.21,124.73Z"/><path class="cls-6" d="M72.43,307.3c3.45-.39,5.73,1.48,7.94,3.21a28.31,28.31,0,0,1,6.33,7.4c.32.51,1.06,1,.63,1.63s-1.39.56-2,.33c-3.57-1.23-7.2-2.38-10.05-5.05-1.38-1.29-2.69-2.67-4-4-.82-.83-2-1.8-1.59-2.9C70.1,306.56,71.68,307.55,72.43,307.3Z"/><path class="cls-6" d="M90,316.24c-3.77-7.33-5.29-14.35-3.58-21.88.18-.79.3-1.91,1.26-2s1.13,1.12,1.44,1.84A30.16,30.16,0,0,1,90,316.24Z"/><path class="cls-10" d="M210.85,234.68l-.5-.94c2.83-.45,3.56-2.07,3.37-4.89-.64-9.15-1-18.33-1.46-27.49a4.68,4.68,0,0,1,.59-2.87c.22,2.45.5,4.91.65,7.37.5,7.78,1,15.57,1.36,23.36.1,2.31.68,2.31,2.57,1.51,4.54-1.93,7.92-1.15,11.35,2.49-2.92-.56-5.3-2.33-8.57-1.43,3.82,1.85,7.71,3.24,8.88,7.77C224.07,233.67,217.86,232.64,210.85,234.68Z"/><path class="cls-1" d="M355.78,130.76c.73,1.23,1.64,1.89,3.1,1,1.16-.69,2.82-1.12,3.53-.12,1.69,2.37,4.42,2.83,6.59,4.28l-.33.36c-1.87-.08-1.78,2.37-3.39,2.61a11.15,11.15,0,0,0-8.79-1.59,2.86,2.86,0,0,1-2.63-.73c-1.51-1.17-3.33-1.12-5.07-1.37.39-.29,1.06-.53,1.12-.88C350.49,130.84,352.89,130.44,355.78,130.76Zm1.13,2.18c-.82,1.11-1.48,1.9-1,3.12a.83.83,0,0,0,.75.18C357.54,135.4,357.44,134.41,356.91,132.94Z"/><path class="cls-6" d="M82.06,347.61c-3.44-7.36-3.3-14.8-.86-22.32.15-.47.12-1.13.81-1.2a1.47,1.47,0,0,1,1.44,1,9.8,9.8,0,0,1,.8,2.69A44.76,44.76,0,0,1,82.06,347.61Z"/><path class="cls-2" d="M138,254.65c3-.52,5.64-2.38,8.82-2-.22,3.54-.47,7.08-.65,10.62-.08,1.67-1,2.16-2.5,2-.39-.71-1.06-.69-1.73-.67a1.64,1.64,0,0,0-1.77-.62,2.91,2.91,0,0,1-.31-.3C139.82,260.56,137.05,258,138,254.65Z"/><path class="cls-9" d="M378.14,30.16c.2-1.45-1.45-2.19-2.58-3.1A9.26,9.26,0,0,1,372,19.4c0-.78.14-1.55.92-1.86s1.37.38,1.84.91c2,2.24,2.68,5.21,4,7.8.92,1.83,1.16,1.76,2.44.63.8-.71,1.84-1.86,3-.73a3,3,0,0,1,.22,3.56,6.61,6.61,0,0,1-2.61,3.07c-1,.54-1.93,1.42-3.16.71S377.63,31.76,378.14,30.16Z"/><path class="cls-11" d="M166.53,483.13q8.86,10.53,17.7,21.06a9.08,9.08,0,0,1,1,1.94c-1.68.58-2.51-.69-3.4-1.66-3.77-4.05-7.5-8.15-11.25-12.23C169.09,489.26,165.12,487.39,166.53,483.13Z"/><path class="cls-10" d="M191.33,167.41a6.54,6.54,0,0,1,3.87.85c-.09.46-1.2.25-.72,1,.32.54.88.94,1.14,1.49.67,1.39,2.93,2.38,2.27,3.82-.8,1.78-2.84-.24-4.3.3a10.34,10.34,0,0,1-1.64.29c3.19,3.67,1.53,6.85-.61,9.9-3.68,5.22-6.76,10.89-11.32,15.47a.6.6,0,0,0-.27-.2c2.53-5.61,6.83-10.08,9.87-15.37,3.77-6.57,3.9-6.49-2.24-10.95-.11-.08-.08-.37-.15-.79,2.46-.7,5.25,1.41,7.49-.57C194.24,170.44,191.84,169.55,191.33,167.41Z"/><path class="cls-9" d="M358.9,57.56c2.12-.35,3.57,1,5.17,1.85.77.42,1.54,1.66,2.42.68a17.67,17.67,0,0,0,2.19-3.72c.06-.12-.26-.61-.47-.67-.63-.17-.89.38-1.22.79-.65.81-1.05,2.51-2.47,1.48-1.18-.85-.83-2.18.11-3.34a9.48,9.48,0,0,0,.83-2c.3-.66.57-1.45,1.49-1.41.75,0,.94.67,1.21,1.26,1,2.09,3.22,2.91,4.62,4.59.8,1,1.71,1.83,2.55,2.76a1.16,1.16,0,0,1,.23,1.45c-.44.65-1.09.45-1.69.17a.92.92,0,0,1-.28-.15c-2.42-2.64-4.37-2.68-5.76,1a1.48,1.48,0,0,1-1,.66C365.49,63.14,359.67,59.25,358.9,57.56Z"/><path class="cls-10" d="M176.1,232.85v14.42a175.66,175.66,0,0,0,14.58-16.8c4-5.05,7.19-10.64,11.5-15.42l0,0c-.63,3.92-3.45,6.63-5.53,9.72a202.15,202.15,0,0,1-17.75,22.07,3.45,3.45,0,0,1-2,1.38l-1.4-.06q-.27-7.62-.53-15.25Z"/><path class="cls-6" d="M130.91,386.76A51.37,51.37,0,0,1,132,397c-4.64-.35-7.79-3.52-11.18-6.12-1.28-1-2.07-2.6-2.9-3.71A19.81,19.81,0,0,1,126,388.9C128.89,390.37,130.39,390.05,130.91,386.76Z"/><path class="cls-6" d="M166.53,483.13c-1.41,4.26,2.56,6.13,4,9.11-2.23-.19-4.6.92-6.67-.74-.21-1.21-.41-2.43-.62-3.64l.18-16.24a4.37,4.37,0,0,1,2.9-.1.49.49,0,0,0,.11.57Z"/><path class="cls-14" d="M384,224.19c-.07,2.19,2.23,3.83,1.46,6.19a5.94,5.94,0,0,1-2.85-2.7c-3.65-7.38-12.91-8.73-18.83-3a48.15,48.15,0,0,0-5.52,6.34c1.39-5.13,4.42-8.91,9.54-10.63,4.63-1.55,9.14-1.62,12.87,2.33.54.57.9,1.48,1.91,1.47.07,0,.16-.14.2-.23a1.05,1.05,0,0,0,0-.31Z"/><path class="cls-8" d="M250.29,471.33c1.64,1.05,3,0,4.46-.57,3.7-1.49,7.38-3,11.33-4.18-1.59,2.66-3.29,5.11-6,6.68-.12-1.52-1-1.22-2-.86-2,.77-4.09,1.54-6.18,2.2-1,.32-2.38,1.5-3,.36A2.55,2.55,0,0,1,250.29,471.33Z"/><path class="cls-9" d="M383.46,52.84a15.81,15.81,0,0,1-5.23,4.37c-.55.31-1.42.88-2.05.31a1.85,1.85,0,0,1-.14-2.35,23.45,23.45,0,0,1,4.64-5.53,2.18,2.18,0,0,1,1.42-.46c2.54.3,5.77,3.75,6.21,6.47.09.55.21,1.09-.29,1.42a1.27,1.27,0,0,1-1.46-.2C385.18,56,384.65,54.4,383.46,52.84Z"/><path class="cls-10" d="M77.5,491c10.4.56,20.77-.73,31.16-.56,4.08.06,8.18-.1,12.19,1.21H56.54c0-.19,0-.39,0-.58Z"/><path class="cls-14" d="M341.48,204.85a34.76,34.76,0,0,0,16.81-4c-3.55,6.43-9.78,7.3-16.15,7.89-.07-.6-.14-1.2-.2-1.8,0-.07.1-.15.09-.21a3.52,3.52,0,0,0-.15-.42Z"/><path class="cls-14" d="M313.45,298.33c1.24-7,2.51-14.07,3.7-21.11a18.55,18.55,0,0,0,0-3.16c1.2-2.4.35-5.18,1.37-7.62.29,10.39-1.68,20.52-3.39,30.69-.64,3.84-1.72,7.56-2.3,11.39-1.56-2.75.27-5.38.3-8.07A14.17,14.17,0,0,1,313.45,298.33Z"/><path class="cls-13" d="M87.08,143.78c5.25-.06,10.5.35,15.74-.8,5-1.1,9.1-4.46,14-5.79-9,6.48-18.48,10.68-29.76,7.38C87.06,144.3,87.07,144,87.08,143.78Z"/><path class="cls-13" d="M176.17,339h1.16c.85,10.39.69,20.81.63,31.22h-1.18C176.41,359.84,175.75,349.44,176.17,339Z"/><path class="cls-12" d="M284.33,473.16c9.89,0,19.78.18,29.67.07,2.65,0,3.61.77,3.33,3.39-.23,2.08-.18,4.19-.26,6.28-.79-1.93-.39-4-.32-5.93.09-2.27-.8-2.87-2.94-2.84-8.87.09-17.75.06-26.62,0C286.22,474.11,284.8,474.88,284.33,473.16Z"/><path class="cls-10" d="M149.48,189l2.36-2.74c-.22,1.5.72,2.21,1.79,3,5.69,4.34,11.31,8.77,16.94,13.19.61.48,1.5.82,1.26,2.39-4.62-3.41-9-6.72-13.48-9.91C155.44,192.93,153,190.25,149.48,189Z"/><path class="cls-9" d="M379.57,18c.14-2.64.75-5.13,2.88-7a2.14,2.14,0,0,1,2.61-.4,1.9,1.9,0,0,1,.73,2.5,14.12,14.12,0,0,1-3.19,6.07c-.69.7-.91,2.23-2.26,1.73S379.83,19,379.57,18Z"/><path class="cls-6" d="M129,370.86a125.87,125.87,0,0,1,1.67,14c-1.22-2.12-4.07-1.39-5.49-3.15,0-.43,0-.86,0-1.29C125.15,376.68,128.39,374.29,129,370.86Z"/><path class="cls-13" d="M176.1,232.85l-1.2,0q.07-14.49.14-29c1.37.38,1.15-1.08,1.79-1.56,1.49.1,1.6-1.83,2.92-2a.6.6,0,0,1,.27.2c-.25.58-.33,1.34-.76,1.71-3.55,3.07-3.53,7-3.28,11.26C176.35,220,176.09,226.41,176.1,232.85Z"/><path class="cls-6" d="M360.32,37.41c1.5-.64,2-3.39,3.64-1.78,1.22,1.21.34,3.23-.77,4.62s-2.32,1.71-3-.31a3.23,3.23,0,0,0-2.63-2.38,1.4,1.4,0,0,1-.58-.22c-1.59-1.26-3.16-2.54-3.38-4.75,0-.33.3-1,.46-1,2.05,0,3,1.77,4.3,2.88A7.72,7.72,0,0,1,360.32,37.41Z"/><path class="cls-9" d="M368.81,32.88a2.46,2.46,0,0,1,1.46-2.57,2.06,2.06,0,0,1,2.47.9,67.14,67.14,0,0,1,4,6,1.27,1.27,0,0,1-1,2.09C373.7,39.56,368.81,35,368.81,32.88Z"/><path class="cls-10" d="M110.65,364c-1.72-.33-3.55.14-5.17-.79.12-1.61,1.31-1.44,2.33-1.27q10.36,1.67,20.72,3.45c.2,0,.33.48.5.73l-.42,1Z"/><path class="cls-13" d="M141.93,264.62c.67,0,1.34,0,1.73.67-.37.64-1.37.87-1.24,1.85a108.35,108.35,0,0,1-19.12-1.23c0-.43,0-.85,0-1.28,4.67.22,9.33.48,14,.64,1.09,0,2.33.44,3.21-.65Z"/><path class="cls-9" d="M375.76,50.09c0,.86-.16,1.36-1.29,1.18-1.9-.31-6.47-4.16-6.83-6.11-.32-1.77.54-2.64,2.34-2.36C370.83,42.92,375.71,49.2,375.76,50.09Z"/><path class="cls-6" d="M56.55,491.09c0,.19,0,.39,0,.58-.92,1.06-2.16.62-3.27.63-4.34.05-8.67,0-13,0-1.24,0-2.56.21-3.57-.92a6.24,6.24,0,0,1,3.9-1C45.9,490.8,51.28,489.64,56.55,491.09Z"/><path class="cls-9" d="M383.43,37.63c0,2.67-2.77,6.21-5.31,7.06-.47.16-1,.61-1.39,0a1.79,1.79,0,0,1-.15-1.47c1.27-2.4,2.38-4.93,4.5-6.77.48-.42,1-.88,1.67-.59C383.64,36.26,383.33,37.12,383.43,37.63Z"/><path class="cls-14" d="M166.47,472.09a.49.49,0,0,1-.11-.57c1.87-1.11,3.93-.57,5.88-.52,3.87.11,7.73.5,11.59.77-.12.49-.25,1-.38,1.47-.06.06-.19.14-.18.18a2.49,2.49,0,0,0,.18.45l.09,1.29c-1.26,0-2.51,0-3.77-.05-.6,0-1.61.07-1.47-.7.55-3.28-1.85-2.34-3.36-2.39C172.12,471.93,169.29,472.05,166.47,472.09Z"/><path class="cls-10" d="M127.71,227.73h-.26l-.26,0a3.12,3.12,0,0,1-.69-2.35c1-6.27,1.5-12.61,3.33-18.76C129.83,213.72,128.68,220.71,127.71,227.73Z"/><path class="cls-15" d="M328.73,180.06c2.32,1.43,4.65,2.12,7,0,2.17-.15,2.81-2.9,5-3a13.17,13.17,0,0,1-.66,3.37c-.92,1.93-.08,2.93,1.76,3.64-3.22,1.13-3.22,1.13-4.07-2.7-2.78,1.83-5.86,1-8.83,1.11C328.62,181.73,327.82,181,328.73,180.06Z"/><path class="cls-13" d="M200.12,168.17l.59-.87c4.5,1.74,9.31,2.8,13.26,5.83C209.19,171.9,204.38,170.8,200.12,168.17Z"/><path class="cls-13" d="M403.63,491.14l37.68-.09c0,.22,0,.44,0,.66l-37.68-.13A3.2,3.2,0,0,1,403.63,491.14Z"/><path class="cls-6" d="M359,45.89a7.82,7.82,0,0,1-1.61-.4c-1.47-.66-2.82-1.51-3.12-3.28a1,1,0,0,1,.68-1.27c1.67-.39,2.8.62,3.91,1.62.39.35.76.74,1.17,1.07s1.41.76.91,1.71C360.54,46,359.8,45.81,359,45.89Z"/><path class="cls-12" d="M308.39,485.83a98.33,98.33,0,0,1-19.28,3A86.73,86.73,0,0,1,308.39,485.83Z"/><path class="cls-13" d="M128.34,116.47h.71a10.29,10.29,0,0,1-1.48,6c-1.85,3.27-3.59,6.48-.44,10.13-3.23-2.48-3.82-4.41-2.1-7.41C126.63,122.46,126.76,119.2,128.34,116.47Z"/><path class="cls-6" d="M359.94,32.66c-1.53-2.43-1.4-4.55-1.26-6.66a1.64,1.64,0,0,1,1.89-1.68c1.2.05,1.18.95,1.24,1.82A10.36,10.36,0,0,1,359.94,32.66Z"/><path class="cls-13" d="M113.24,180.69h-.73c1.47-4.8,4-8.46,9.54-8.91h0c-.49,2-2.69,1.66-3.91,2.79C116.16,176.39,115,178.8,113.24,180.69Z"/><path class="cls-6" d="M365.66,44.12a7.3,7.3,0,0,1-2.82,5.22c-.44.31-.75-.07-1-.47-.58-1.1.82-5.56,2-6.36a1.49,1.49,0,0,1,1.13-.19C365.76,42.62,365.54,43.38,365.66,44.12Z"/><path class="cls-13" d="M212.43,196.27c-2.16-3.84-1-7.93-.87-12C212.25,188.26,213.24,192.17,212.43,196.27Z"/><path class="cls-10" d="M138,254.65c-.94,3.34,1.83,5.91,1.86,9-3.67-3.84-4.62-8.23-2.64-13.2C138.52,251.68,137.66,253.28,138,254.65Z"/><path class="cls-10" d="M142.42,267.14c-.13-1,.87-1.21,1.24-1.85,1.49.14,2.42-.35,2.5-2,.18-3.54.43-7.08.65-10.62l.72,0q-.33,6.25-.64,12.51C146.72,268.76,144,266.67,142.42,267.14Z"/><path class="cls-10" d="M176.78,370.25H178c2.75.38,5.61-.67,8.31.55a53.42,53.42,0,0,1-14.62,0C173.25,369.65,175.08,370.55,176.78,370.25Z"/><path class="cls-13" d="M447.05,490.44l12.71,0,.64.62c0,.23,0,.45,0,.67H445.12c0-.21,0-.42,0-.63C445.83,491.05,446.57,491.15,447.05,490.44Z"/><path class="cls-6" d="M360.68,54.19a7.77,7.77,0,0,1-1.86-.64c-1.22-.75-3.23-1.7-2.43-3.15,1.06-1.93,2.46.13,3.66.65a13.48,13.48,0,0,1,1.56,1.07c.54.33,1.29.61,1.15,1.32C362.56,54.46,361.58,54,360.68,54.19Z"/><path class="cls-2" d="M161.57,250.05c-1-3-3.64-4.32-6.77-6,4.63-1.23,6.12,2.38,8.58,4C162.94,248.9,162.74,249.92,161.57,250.05Z"/><path class="cls-13" d="M219.78,185.81c-2.67-3.27-3-7.59-4.8-11.26,2.31,3.53,4.66,7,5.6,11.26Z"/><path class="cls-2" d="M165.35,248.13c.34-2-1.69-3.23-2-5.48,2.49.88,4.34,3,7,2.39-.21.34-.35.89-.64,1A16.39,16.39,0,0,0,165.35,248.13Z"/><path class="cls-10" d="M141.75,239.2c.21,0,.42,0,.62,0-1.35,3.05-2,6.43-4.44,9A17,17,0,0,1,141.75,239.2Z"/><path class="cls-10" d="M129.87,198.16c-1.72-1.51-1.92-3.62-2.29-5.67C129.76,193.83,130,195.93,129.87,198.16Z"/><path class="cls-14" d="M183.12,482.8h-5.75c1.82-2.85,3.87-1.56,5.72-1.3Z"/><path class="cls-3" d="M143,109.52c.36.79-.34,1.86.62,2.5-.11.81-1.19,1.6,0,2.43,0,1.76-1.34,1.29-2.33,1.4Q142.13,112.69,143,109.52Z"/><path class="cls-6" d="M120.13,138.09c2.46-.18,4.45,1.22,6.66,1.91-2.35.19-4.63.1-6.66-1.25Z"/><path class="cls-13" d="M114.38,271.65h-1.22c.22-1.92.45-3.84.67-5.77l1.27.08C114.9,267.86,115.46,269.86,114.38,271.65Z"/><path class="cls-13" d="M123.68,173.65c-.67,2,.48,4.66-2.21,5.91C121.19,177.21,122.48,175.44,123.68,173.65Z"/><path class="cls-5" d="M186.53,497.45c-1.55-.37-2.75.89-4.39,1,.25-2.51,2.44-2.22,3.85-2.93A2.14,2.14,0,0,1,186.53,497.45Z"/><path class="cls-12" d="M288,489a14.21,14.21,0,0,1-6.57,1.06A11,11,0,0,1,288,489Z"/><path class="cls-13" d="M173.61,251.46c-.49,1.76-2,2.53-3.36,3.4a4.3,4.3,0,0,1,3.12-3.63A.35.35,0,0,1,173.61,251.46Z"/><path class="cls-3" d="M172.87,88a5.81,5.81,0,0,1-5,0A8,8,0,0,1,172.87,88Z"/><path class="cls-12" d="M403.63,491.14a3.2,3.2,0,0,0,0,.44c-1.48,0-3,.53-4.43,0,.05-.43.09-.85.13-1.27,1.11-.69,2.07.47,3.14.25Z"/><path class="cls-7" d="M161.45,89.16c-1.58.73-3,1.9-4.93,1.65A7.13,7.13,0,0,1,161.45,89.16Z"/><path class="cls-10" d="M166.64,370.55a6.44,6.44,0,0,1-3.9-.35C164.12,369.44,165.46,369.1,166.64,370.55Z"/><path class="cls-10" d="M137.84,193.81l4,0C140.53,195.12,139.19,195,137.84,193.81Z"/><path class="cls-9" d="M125.22,380.39c0,.43,0,.86,0,1.29-.41,0-.83,0-1.24,0-.87-.09-1.92-.33-1.57-1.38.29-.88,1.23-.27,1.9,0A6.8,6.8,0,0,0,125.22,380.39Z"/><path class="cls-10" d="M123.32,264.63c0,.43,0,.85,0,1.28l-4.38-.21C120.82,264.18,122.14,264.75,123.32,264.63Z"/><path class="cls-12" d="M283.51,491.58a16,16,0,0,1,7.77,0A22,22,0,0,1,283.51,491.58Z"/><path class="cls-9" d="M131.28,141.29c-1.27-1-1.78-1.71-1.2-3C131.24,138.88,131.64,139.68,131.28,141.29Z"/><path class="cls-14" d="M144.05,473.29c1.17,0,2.53-.5,3.28,1.22-1,.88-2.18-.29-3.16.2Z"/><path class="cls-8" d="M255,465.68a3.2,3.2,0,0,1-2.34,2.59C252.6,466.65,253.56,466,255,465.68Z"/><path class="cls-9" d="M128.39,134.9c.8.4,1.4.93,1.11,1.93a.57.57,0,0,1-.44.31c-1.06-.37-1.13-1.33-1.3-2.23Z"/><path class="cls-12" d="M312.2,485.21a2.84,2.84,0,0,1-2.75.44A2.1,2.1,0,0,1,312.2,485.21Z"/><path class="cls-10" d="M192,370.18a3.05,3.05,0,0,1-2.63.34C190.1,369.31,191,369.38,192,370.18Z"/><path class="cls-2" d="M158.93,250.15l2.57,0C160.67,251.78,159.81,251.81,158.93,250.15Z"/><path class="cls-15" d="M329.33,187.81c1,.64.65,1.45.29,2.26A2.22,2.22,0,0,1,329.33,187.81Z"/><path class="cls-6" d="M35,491.27c-1.78.53-2.77.49-3.79,0Z"/><path class="cls-10" d="M158.38,369.86a1.75,1.75,0,0,1-2-.3C157.19,368.71,157.85,368.85,158.38,369.86Z"/><path class="cls-6" d="M445.13,491.07c0,.21,0,.42,0,.63h-3.8c0-.22,0-.44,0-.66Z"/><path class="cls-12" d="M392.25,491.55a4.63,4.63,0,0,1,4,0A6,6,0,0,1,392.25,491.55Z"/><path class="cls-3" d="M178.65,89.1c-.79.13-1.65.45-2-.68C177.61,87.76,178,88.78,178.65,89.1Z"/><path class="cls-2" d="M171.07,239.84c.05-.63.09-1.27.13-1.9.49.1,1,.26,1,.87C172.23,239.58,171.69,239.76,171.07,239.84Z"/><path class="cls-2" d="M170.92,242.6c-1.42-.77-1.69-1.54,0-2.28C170.94,241.08,170.93,241.84,170.92,242.6Z"/><path class="cls-3" d="M165.27,88.19c-.79.43-1.47,1.2-2.52.91C163.52,88.59,164.14,87.69,165.27,88.19Z"/><path class="cls-10" d="M137.34,367.35a1.72,1.72,0,0,1-1.94-.35C136.21,366.16,136.77,366.75,137.34,367.35Z"/><path class="cls-2" d="M168.49,234.68a1.89,1.89,0,0,1-1.32-1.82C168.43,232.86,168.47,233.76,168.49,234.68Z"/><path class="cls-13" d="M123.06,169.21c.57,1.12.19,1.75-1,2A2.19,2.19,0,0,1,123.06,169.21Z"/><path class="cls-10" d="M195.18,369.58a1.06,1.06,0,0,1-1.36.32C194.11,369.07,194.52,368.78,195.18,369.58Z"/><path class="cls-9" d="M403.79,103.1c.48.09,1.2.11.91.82-.21.52-.66.19-.92-.18C403.78,103.53,403.79,103.31,403.79,103.1Z"/><path class="cls-7" d="M181.15,89.22c-.46.59-.86.51-1.23-.09A.8.8,0,0,1,181.15,89.22Z"/><path class="cls-10" d="M197.19,374.7c-.22-.59.2-.93.53-1.31C198.65,374.28,197.87,374.47,197.19,374.7Z"/><path class="cls-12" d="M315.38,484.65a1.09,1.09,0,0,1-1.49.28A.93.93,0,0,1,315.38,484.65Z"/><path class="cls-13" d="M175.43,248.14l1.4.06c-.21.4-.43.79-.64,1.18l-.79-.06Z"/><path class="cls-10" d="M133,366.67a1,1,0,0,1-1.38-.23C132.18,365.64,132.61,365.85,133,366.67Z"/><path class="cls-10" d="M141.22,367.85a1,1,0,0,1-1.37-.22C140.44,366.89,140.87,367.15,141.22,367.85Z"/><path class="cls-10" d="M146.3,368.54a1,1,0,0,1-1.36-.26C145.56,367.5,146,367.81,146.3,368.54Z"/><path class="cls-10" d="M152,369.2a1,1,0,0,1-1.38-.24C151.26,368.16,151.69,368.4,152,369.2Z"/><path class="cls-10" d="M87.08,143.78c0,.26,0,.52,0,.79-.42-.16-1.16-.16-1-.75S86.7,143.4,87.08,143.78Z"/><path class="cls-13" d="M120.13,138.09v.66c-.47-.11-1.21-.1-.94-.82C119.39,137.4,119.86,137.73,120.13,138.09Z"/><path class="cls-8" d="M262,458.68c0,.87-.43,1.22-1.26,1.16A1.09,1.09,0,0,1,262,458.68Z"/><path class="cls-13" d="M128.39,134.9h-.63c-.35-.26-.7-.72-.19-.93C128.28,133.7,128.29,134.43,128.39,134.9Z"/><path class="cls-8" d="M258.08,462.45c.11.89-.3,1.29-1.18,1.23A1.1,1.1,0,0,1,258.08,462.45Z"/><path class="cls-6" d="M460.39,491.7c0-.22,0-.44,0-.67l1.41.16v.38Z"/><path class="cls-10" d="M141.93,264.62h-1.4l-.37-.62A1.64,1.64,0,0,1,141.93,264.62Z"/><path class="cls-3" d="M141.13,116.49a1,1,0,0,1-.44,1.24Z"/><path class="cls-10" d="M219.78,185.81h.8l.06,1.22-.06.05C220,186.86,219.94,186.31,219.78,185.81Z"/><path class="cls-12" d="M317,483.91c.09.42-.05.62-.5.54C316.45,484.09,316.61,483.9,317,483.91Z"/><path class="cls-7" d="M148.77,96.87a.76.76,0,0,1-.36.46Z"/><polygon class="cls-7" points="146.83 99.73 146.8 99.66 146.76 99.74 146.83 99.73"/><path class="cls-8" d="M263.41,454.78c.11.23.23.46.34.68C263.63,455.24,263.52,455,263.41,454.78Z"/><path class="cls-5" d="M341.88,206.26a3.52,3.52,0,0,1,.15.42c0,.06-.06.14-.09.21a2.44,2.44,0,0,1-.21-.43C341.72,206.41,341.83,206.33,341.88,206.26Z"/><path class="cls-10" d="M135.38,193.23c.31-.22.49-.1.61.21Z"/><path class="cls-13" d="M82,143.22c0-.25,0-.5,0-.74C82.48,142.73,82.55,143,82,143.22Z"/><path class="cls-10" d="M133.44,192.4c.38-.16.6,0,.71.37A.49.49,0,0,1,133.44,192.4Z"/><path class="cls-10" d="M132.17,191.75c.38-.14.6,0,.68.39A.48.48,0,0,1,132.17,191.75Z"/><path class="cls-13" d="M201.74,164.81l.31-.87Z"/><path class="cls-10" d="M124,489.17l-.69.56A.59.59,0,0,1,124,489.17Z"/><path class="cls-10" d="M127.71,188.61c.34-.07.52.07.52.42Z"/><path class="cls-14" d="M318.49,265v.1l-.12-.07Z"/><path class="cls-13" d="M123.88,184.8c.29,0,.41,0,.27.35A.27.27,0,0,1,123.88,184.8Z"/><path class="cls-10" d="M202.18,215.05l.26-.27c0,.05,0,.14-.05.16a.79.79,0,0,1-.23.09Z"/><path class="cls-10" d="M174.28,250.75l-.67.71a.35.35,0,0,0-.24-.23l.7-.69Z"/><path class="cls-13" d="M201.2,166.07l.35-.6Z"/><path class="cls-7" d="M147.48,98.67l-.41.64Z"/><path class="cls-13" d="M123.26,184c.36,0,.5.18.44.53Z"/><path class="cls-10" d="M137.91,249.36l-.63.75Z"/><path class="cls-13" d="M185.63,492l.44.08c0,.4,0,.8-.07,1.2C185.88,492.85,185.75,492.43,185.63,492Z"/><path class="cls-1" d="M183.45,473.87a2.49,2.49,0,0,1-.18-.45s.12-.12.18-.18Z"/><path class="cls-3" d="M289.45,374.79c3.57-.41,7.11,1.11,10.7.25,5.35.22,10.7.51,16-.27l1.09.53,4.66,10.92c-.34,1-1.15,1.13-2,1.13l-36.64-.18C283,381.89,285,377.71,289.45,374.79Z"/><path class="cls-6" d="M300.08,337.8c5.56-.93,11.16-.22,16.75-.37,1,0,1.38.67,1.56,1.62,1.35,7-3.08,12.47-10.15,12.6-1.11,0-2.37-.42-3.23.75-.63.68-.18,1.07.39,1.43.5,1.12.4,2.53,1.56,3.34.57.95-1.07,2.17.38,3,.27.95.55,1.9.81,2.85-.25,1.25-1.46,1.36-2.27,1.94-1.13,0-2.31.41-3.33-.43a1.24,1.24,0,0,0-.77-1.45l-.68-2.27a1.06,1.06,0,0,0-.65-1.54c-.1-.19-.21-.37-.31-.55-.21-1.12.43-2.46-.9-3.27l-.6-2.3c.13-.82.29-1.67-1-1.51-2.6-.07-5.21.16-7.79-.4-1.84-.4-3.33-1.16-3.84-3.15.89-.95,1.23.14,1.74.49A7.59,7.59,0,0,0,299,345.79C300.29,343.24,300.18,340.52,300.08,337.8Z"/><path class="cls-14" d="M341.44,328.21c2.35-1.84,5.48-1.94,7.91-3.6.92-.62,2.24-.78,2.31-2.26,2.93,3.32,6.28,3.16,10.06,1.51,7-3.05,12.56-7.31,14.37-15.23a16.84,16.84,0,0,0,.3-4.41c-.08-2.05-.08-3.93,1.66-5.5a2.91,2.91,0,0,0,.76-3.51c-.85-1.51-2.11-.16-3.07.11a14.23,14.23,0,0,1-4.39.44c-.57,0-1.46.21-1.53-.66s.83-1.12,1.56-1.13c2.44,0,4.88.07,7.12-1.12.56-.3,1.1-.63,1.65-1l.23.23c-.25,2.89.5,6-1.78,8.47a1.41,1.41,0,0,0-.08,1.2C381,308,378.29,313.36,375,318c-3.65,5.11-8.15,9.77-14.6,11.59-3.09.87-6.25,1.1-9.26-.37S344.69,328.38,341.44,328.21Z"/><path class="cls-14" d="M345.24,306h-1.3c-.68-4.11-.18-5.18,3.57-6.91,1.13-.53,1.67-1.05,1.38-2.38-1.35-6.22-.16-12.43.43-18.59.88-9.2,2.4-18.35,3.66-27.51,0-.27.23-.52.8-.72-.32,3.33-.53,6.67-1,10-1.17,8.45-1.9,16.94-2.52,25.44a72.57,72.57,0,0,0-.58,8.2c.16,3.61,1.38,5.15,4.88,6,1.84.45,3.66,1,5.52,1.37,4.14.83,6.24,3.63,7.21,7.46.36,1.39.81,3.12-1,3.88-1.58.66-2.77-.18-3.76-1.53-2.57-3.5-5.31-6.84-9-9.28-3-2-6.46-1.54-8.11,1.08C344.74,303.57,344.39,304.73,345.24,306Z"/><path class="cls-6" d="M285.47,337.83l12.77,0a8,8,0,0,1-.09,6.72,6.3,6.3,0,0,1-5.19,4.06c-2.55.29-4.34-.88-5.83-2.91C285.36,343.25,285.48,340.55,285.47,337.83Z"/><path class="cls-13" d="M285.47,337.83c0,2.72-.11,5.42,1.66,7.83,1.49,2,3.28,3.2,5.83,2.91a6.3,6.3,0,0,0,5.19-4.06,8,8,0,0,0,.09-6.72h1.84c.1,2.72.21,5.44-1.12,8a7.59,7.59,0,0,1-11.24,2.79c-.51-.35-.85-1.44-1.74-.49-2.3-2.61-2.38-5.83-2.43-9C283.53,337.71,284.41,337.57,285.47,337.83Z"/><path class="cls-8" d="M307.34,360.17c-1.45-.83.19-2.05-.38-3,2.39-.83,3.63.15,4.59,2.4,2.23,5.21,5.17,10.1,7,15.49l-1.29.24-1.09-.53c-2.11-4.81-4.21-9.62-6.35-14.41C309.18,358.9,308.33,358.15,307.34,360.17Z"/><path class="cls-10" d="M317.28,375.3l1.29-.24a2.3,2.3,0,0,0,.34.28l5.7,12.33c1.05,2.39,2.09,4.77,3.14,7.15l-.9.82c-1.83-3-2.65-6.6-4.91-9.42Z"/><path class="cls-14" d="M380.15,291.9a14.08,14.08,0,0,0,1.39-7.35c-.11-3.27.1-6.55,0-9.82a38,38,0,0,1,1.22-9.35c0,7.52.11,15-.09,22.54,0,1.49-.29,3.47-2.25,4.21Z"/><path class="cls-8" d="M299.24,355.45c1.33.81.69,2.15.9,3.27a2.25,2.25,0,0,1-.63,0c-1.25-.23-3.23.82-3.58-.85s1.95-.51,2.66-1.39A8.24,8.24,0,0,0,299.24,355.45Z"/><path class="cls-15" d="M385.44,258.88c.61,2.85,1.15,5.71-.43,8.45C384.23,264.47,385.48,261.71,385.44,258.88Z"/><path class="cls-14" d="M385.77,236.73a58.65,58.65,0,0,1,0,11.32A34.41,34.41,0,0,1,385.77,236.73Z"/><path class="cls-15" d="M384.11,285c.68,1.81,1.18,3.59-.39,5.23A6.84,6.84,0,0,1,384.11,285Z"/><path class="cls-8" d="M305.88,365c.81-.58,2-.69,2.27-1.94.72.48,1.12,1.18.41,1.81S306.83,366.2,305.88,365Z"/><path class="cls-15" d="M382.82,304.08c.69,1.58,1.05,3.14-.31,4.59C381.94,307.09,382.79,305.61,382.82,304.08Z"/><path class="cls-14" d="M347.2,312.34a3.54,3.54,0,0,1-1.27-3.19C347.33,309.82,347.19,311.11,347.2,312.34Z"/><path class="cls-15" d="M382.13,313.64c1,1,0,1.74-.32,2.56C381.53,315.3,381.31,314.41,382.13,313.64Z"/><path class="cls-14" d="M345.93,309.16c-1-.65-.55-1.67-.66-2.54C346.12,307.3,345.88,308.27,345.93,309.16Z"/><path class="cls-15" d="M383.45,294.55c.86.62.34,1-.22,1.42A.9.9,0,0,1,383.45,294.55Z"/><path class="cls-8" d="M297.61,351.64c1.32-.16,1.16.69,1,1.51C298.3,352.65,298,352.14,297.61,351.64Z"/><path class="cls-8" d="M300.45,359.27a1.06,1.06,0,0,1,.65,1.54A1.06,1.06,0,0,1,300.45,359.27Z"/><path class="cls-8" d="M301.78,363.08a1.24,1.24,0,0,1,.77,1.45C301.71,364.36,301.38,363.91,301.78,363.08Z"/><path class="cls-14" d="M349.67,316.78a1.11,1.11,0,0,1-1.2-1.28A1.13,1.13,0,0,1,349.67,316.78Z"/><path class="cls-8" d="M305.4,353.83c-.57-.36-1-.75-.39-1.43C305.33,352.83,305.66,353.24,305.4,353.83Z"/><path class="cls-14" d="M348.48,315.52c-.77-.46-.63-1.22-.66-1.93C348.55,314.06,348.48,314.8,348.48,315.52Z"/><path class="cls-14" d="M347.84,313.62a1.3,1.3,0,0,1-.65-1.3A1.3,1.3,0,0,1,347.84,313.62Z"/><path class="cls-15" d="M382.33,311c.49.47.5.91-.09,1.31Z"/><path class="cls-15" d="M381.58,320.61c.54.45.51.87-.07,1.25C381.53,321.45,381.56,321,381.58,320.61Z"/><path class="cls-6" d="M402.48,490.52c-1.07.22-2-.94-3.14-.25L397,489.9a1.6,1.6,0,0,0-2.21-.41l-1-.18c-.61-.66-1.28-1-2.11-.36l-1.07-.23c-.3-.61-.94-.57-1.46-.77,0-5.7.07-11.4-.05-17.09-.05-2.42.7-3.35,3.25-3.38,10.13-.12,10.13-.19,10.13,10.06Q402.5,484,402.48,490.52Z"/><path class="cls-6" d="M366.4,472V414.11c.73.81.48,1.81.48,2.73q0,26.21,0,52.4C366.89,470.17,367.13,471.16,366.4,472Z"/><path class="cls-12" d="M389.17,488c.52.2,1.16.16,1.46.77a2.33,2.33,0,0,1-2.76-.4Z"/><path class="cls-12" d="M375.17,486a3.12,3.12,0,0,1-3.24-.58A3.92,3.92,0,0,1,375.17,486Z"/><path class="cls-12" d="M386.2,488a1.72,1.72,0,0,1-2.33-.42A2,2,0,0,1,386.2,488Z"/><path class="cls-12" d="M382.16,487.28c-.82.57-1.47.25-2.05-.39A1.69,1.69,0,0,1,382.16,487.28Z"/><path class="cls-12" d="M378.34,486.6c-.59.55-1.06.32-1.48-.23A1,1,0,0,1,378.34,486.6Z"/><path class="cls-12" d="M370.79,485.21a1,1,0,0,1-1.4-.46A1.07,1.07,0,0,1,370.79,485.21Z"/><path class="cls-6" d="M366.31,405.35a.44.44,0,0,1,.57.07.41.41,0,0,1-.4.36l-.11.12-.16-.06A.37.37,0,0,0,366.31,405.35Z"/><path class="cls-12" d="M367,484.56l-.74.15c-.06-.23-.11-.46-.17-.69l.17-.09.13.14Z"/><path class="cls-6" d="M366.4,482.79v-.64a2.67,2.67,0,0,1,.2.46S366.47,482.73,366.4,482.79Z"/><path class="cls-7" d="M165.57,463.89c-2.29-29.8-1.42-59.6,0-89.4Z"/><path class="cls-16" d="M133.53,409.57c-2.34,3-5.27.56-7.85,1.34l-.22-.84,7.79-3.58C133.34,407.52,133.44,408.54,133.53,409.57Z"/><path class="cls-7" d="M165.08,469c-.18-.23-.36-.37-.37-.51,0-.35-.19-.79.33-.94a1.08,1.08,0,0,1,.21.51A5.73,5.73,0,0,1,165.08,469Z"/><path class="cls-6" d="M289.45,374.79c-4.48,2.92-6.42,7.1-6.18,12.38-2.36-.28-3.08.74-2.95,3.09a94.59,94.59,0,0,1,0,11.42c-.2,2.91.93,3.56,3.62,3.53,9.95-.1,19.9.09,29.84,0,2.6,0,3.41.64,3.4,3.33q-.18,28.58,0,57.14c0,2.52-.68,3.28-3.2,3.21-7.4-.21-14.81-.17-22.21-.23.25-.58.5-1.16.76-1.74a8.76,8.76,0,0,0,2.12.56c6.56.06,13.12.05,19.68.07,2,0,1.71-1.48,1.71-2.71,0-18.51,0-37,.05-55.54,0-2.27-.76-2.88-2.93-2.86-9.2.1-18.41.05-27.61,0-1.56,0-3.5-.78-4.6-.1-1.59,1,.35,2.87,0,4.39a2.74,2.74,0,0,1-.49.78c-1-2-1.14-4.24-1.42-6.41-1.4-10.81-6.56-19.9-12.79-28.55-.94-1.3-3-2.62-2.16-4.2s2.91-.16,4.38,0C275.48,373,282.46,374,289.45,374.79Z"/><path class="cls-11" d="M366.31,405.35a.37.37,0,0,1-.1.49H318.38l0-1.26H330.6c.54.22,1.08.56,1.62,0,10.19,0,20.39,0,30.58,0C364,404.6,365.36,404.09,366.31,405.35Z"/><path class="cls-7" d="M366.08,484c.06.23.11.46.17.69-.62.79-1.51.62-2.34.62H323.29c-.6,0-1.27.16-2.4-1.3Z"/><path class="cls-12" d="M332.22,404.56c-.54.58-1.08.24-1.62,0l-3.75-8.94.9-.82A37.56,37.56,0,0,1,332.22,404.56Z"/><path class="cls-12" d="M391.7,489c.83-.64,1.5-.3,2.11.36A1.61,1.61,0,0,1,391.7,489Z"/><path class="cls-12" d="M394.79,489.49a1.6,1.6,0,0,1,2.21.41A2.09,2.09,0,0,1,394.79,489.49Z"/><path class="cls-16" d="M280.47,411.52a2.74,2.74,0,0,0,.49-.78c.32-1.52-1.62-3.41,0-4.39,1.1-.68,3,.09,4.6.1,9.2,0,18.41.07,27.61,0,2.17,0,2.94.59,2.93,2.86-.08,18.51,0,37-.05,55.54,0,1.23.29,2.71-1.71,2.71-6.56,0-13.12,0-19.68-.07a8.76,8.76,0,0,1-2.12-.56c-.32-1.11.35-2.5-.93-3.35-.15-.53-.29-1.07-.44-1.61l-.37-.74-2.14-5.07-.55-.69-.05,0c-1-1.56.16-3.78-1.6-5.08l-.21-1.93c.74-1.2,1.11-2.34-.5-3.16l-.18-1.26c.81-1,1-1.91-.41-2.56-.08-.63-.15-1.27-.22-1.91,1.07-1.25.61-2.24-.51-3.13l-.15-1.29c.85-.81.78-1.46-.32-1.95-.17-1.38-.33-2.75-.5-4.13,0-1.21.72-2.54-.64-3.5a4.17,4.17,0,0,1-.4-2.53c.75-.56.46-1-.21-1.28-.07-.44-.15-.88-.23-1.32.46-1.15.85-2.28-.51-3.14-.11-.63-.23-1.26-.34-1.89.84-.79.73-1.43-.31-1.92Z"/><path class="cls-14" d="M253.71,362.08c2.94,2.23,6,4.33,8.12,7.46l-.54.61-8.24-7.34Z"/><path class="cls-6" d="M286.43,450.33c1.76,1.3.64,3.52,1.6,5.08l-1.09-.07C286.79,453.66,286,452.06,286.43,450.33Z"/><path class="cls-6" d="M285.72,445.24c1.61.82,1.24,2,.5,3.16C285.43,447.44,285.6,446.34,285.72,445.24Z"/><path class="cls-6" d="M284.4,436.38c1.12.89,1.58,1.88.51,3.13A3.92,3.92,0,0,1,284.4,436.38Z"/><path class="cls-6" d="M281.44,417.24c1.36.86,1,2,.51,3.14A4.08,4.08,0,0,1,281.44,417.24Z"/><path class="cls-6" d="M285.13,441.42c1.41.65,1.22,1.56.41,2.56A2.73,2.73,0,0,1,285.13,441.42Z"/><path class="cls-6" d="M282.79,425.51c1.36,1,.64,2.29.64,3.5A4.73,4.73,0,0,1,282.79,425.51Z"/><path class="cls-6" d="M280.79,413.43c1,.49,1.15,1.13.31,1.92A1.63,1.63,0,0,1,280.79,413.43Z"/><path class="cls-6" d="M283.93,433.14c1.1.49,1.17,1.14.32,1.95A1.79,1.79,0,0,1,283.93,433.14Z"/><path class="cls-6" d="M282.18,421.7c.67.33,1,.72.21,1.28A.88.88,0,0,1,282.18,421.7Z"/><path class="cls-5" d="M329.9,164.07a4.36,4.36,0,0,0,1.38-2.07c.94-3.54,4.09-4,6.93-4.79.69-.2,1.84.18,2.14-.21,3.84-4.91,10.2-.87,14.48-4.13.26-.2.84-.1,1.23,0,.92.25,4.29,6.77,4.06,7.76-.1.41-.41,1-.24,1.2,2.06,2.51.85,5.84,2.18,8.51-.92.89-1.12.11-1.51-.57a8.65,8.65,0,0,0-14-1.52c-.76.86-.5,3.52-2.79,2.25-1.36-.76-3.22.46-4.2-1.27v0c0-.84-.42-1.3-1.28-1.29h0l-1.3-2.56c.06-1.32-.62-1.85-1.89-1.85-1.5,0-3-.06-3.42,1.85C330.68,165.49,330,165.16,329.9,164.07Zm25.36.12c.6-.43,2.38.3,1.81-1.21-.84-2.2-3.14-2.09-5.14-2.09-.68,0-1.95,0-1.75.75.41,1.63,2.07,1.74,3.52,1.94A7.66,7.66,0,0,1,355.26,164.19Z"/><path class="cls-15" d="M339.54,169.24c1,1.73,2.84.51,4.2,1.27,2.29,1.27,2-1.39,2.79-2.25a8.65,8.65,0,0,1,14,1.52c.39.68.59,1.46,1.51.57,1.28,1.15,1.8,2.4.74,4-.6.91-.23,2-.19,3-2.06-.19-2,2.8-4,2.69l-.24-.23c1.37-2.28,3.33-4.42,1.53-7.35-.22-3.47-2.91-4.86-5.54-5.67-3.12-1-5.75.56-7.62,3.22-.82,1.17-.88,3-3.26,2.66-.61-.08-1.55,2.17-2.33,3.34-1.73-.36-.58-2.31-1.66-3Z"/><path class="cls-1" d="M369,136c1.75,1.39,1.58,2.86-.07,4.09-1.19.89-2.64,1.65-3.32-.67,2.25.2,2.71-1.37,3.06-3.06Z"/><path class="cls-8" d="M368.67,136.31c-.35,1.69-.81,3.26-3.06,3.06a.72.72,0,0,1-.33-.45C366.89,138.68,366.8,136.23,368.67,136.31Z"/><path class="cls-15" d="M329.9,164.07c.1,1.09.78,1.42,1.78,1.35l.92.33c-.66,1.49-2.24.16-3.11,1C329.39,165.84,328.93,164.85,329.9,164.07Z"/><path class="cls-15" d="M363.74,179.41c-.16-.27-.33-.54-.5-.81C363.41,178.87,363.58,179.14,363.74,179.41Z"/><path class="cls-2" d="M179.75,200.37c-1.32.16-1.43,2.09-2.92,2q2.64-14.33,5.28-28.67c.23-1.24.38-2.5.56-3.76.85-1.59.15-3.34.51-5l3.73,1,.57.19,1.32.35.66.25a2.76,2.76,0,0,1,1.87.71c.51,2.14,2.91,3,3.39,5.28-2.24,2-5-.13-7.49.57.07.42,0,.71.15.79,6.14,4.46,6,4.38,2.24,10.95C186.58,190.29,182.28,194.76,179.75,200.37Z"/><path class="cls-12" d="M143.59,114.45c-1.14-.83-.06-1.62,0-2.43,2.48-5.19,7.4-6.61,12.36-7.6,8.3-1.64,16.38-3.79,24-7.61a7.69,7.69,0,0,0,3.16-2.48l1.65-1.21c-.17.95-.3,1.67-.42,2.39l0-.05c-.6.15-.42.41-.09.68-.3.8-1.08.93-1.72,1.25-2.41.24-4.14,2-6.24,2.91-6.24,2.79-12.83,4.19-19.47,5.5C151.34,106.89,146.31,108.94,143.59,114.45Z"/><path class="cls-15" d="M175.57,133.18c1.33.84,2,1.9,3.45,2a2.1,2.1,0,0,1,1.81,2.52c-.55,1.41-2.24.63-3.43.74s-2.24,0-2.21-1.54C175.22,135.82,175.41,134.69,175.57,133.18Z"/><path class="cls-15" d="M181.88,131.39c3.84-.79,3.07-2.37,2.32-4.17-1.21-2.9-2.52-5.78-2.69-9a33.41,33.41,0,0,1,4.69,11.49C186.62,131.84,184.59,131.6,181.88,131.39Z"/><path class="cls-11" d="M188.66,114.56c-.31-1.42-3.34.2-2.52-1.9.61-1.55,2.67-1.39,4.24-1,2.32.54,1.71,1.7.5,2.92A3,3,0,0,0,188.66,114.56Z"/><path class="cls-11" d="M172.81,111.31c.61.47,1.56.46,2.07,1.63-2.33.3-4.54.62-6.75.85-.86.08-1-.49-.77-1.22l2.93-1.23,1.42-.1Z"/><path class="cls-11" d="M191.19,119.74c1.15.06,1.83.59,1.9,1.53a1.63,1.63,0,0,1-1.68,1.89,1.56,1.56,0,0,1-1.73-1.5A1.75,1.75,0,0,1,191.19,119.74Z"/><path class="cls-11" d="M175,122.19a1.64,1.64,0,0,1-1.86,1.66,1.55,1.55,0,0,1-1.56-1.66,1.66,1.66,0,0,1,1.88-1.7C174.47,120.5,174.93,121.18,175,122.19Z"/><path class="cls-15" d="M174.51,118.25c-2.53-.19-4.46-.5-6.59,0C169.83,115.47,171.63,115.4,174.51,118.25Z"/><path class="cls-15" d="M188.66,114.56a3,3,0,0,1,2.22,0c.59.31,1.18.8,1.08,1.42-.13.81-1,.58-1.57.59-1,0-2,0-3.11,0C187.14,115.3,188,115,188.66,114.56Z"/><path class="cls-12" d="M170.29,111.34l-2.93,1.23-1.47-.08a7.75,7.75,0,0,1,3.56-2.51Z"/><path class="cls-15" d="M180.92,116.73l-.17-.09.25-.17Z"/><path class="cls-12" d="M161.51,125.39l.18-1.3C162.16,124.6,162,125,161.51,125.39Z"/><path class="cls-12" d="M172.81,111.31l-1.1-.07C172.1,110.77,172.47,110.76,172.81,111.31Z"/><path class="cls-7" d="M184.32,96.14c-.33-.27-.51-.53.09-.68Z"/><path class="cls-11" d="M131.4,163.21c4-5.75,9.37-10,15.11-13.87C141.79,154.3,136.39,158.54,131.4,163.21Z"/><path class="cls-11" d="M127.76,169.77c-2,4.83-1.14,9.3-1.11,13.77C124.38,179.53,124.72,172.93,127.76,169.77Z"/><path class="cls-11" d="M154.36,141.56c1.48-4.15,4.68-7.39,5.61-11.77C160.07,134.67,157.58,138.32,154.36,141.56Z"/><path class="cls-11" d="M152.79,143.52a9.68,9.68,0,0,1-4.91,5A10,10,0,0,1,152.79,143.52Z"/><path class="cls-11" d="M130.87,163.78c-.34,2-.58,3-2.15,3.39C128.6,165.71,129.24,164.89,130.87,163.78Z"/><path class="cls-2" d="M415.22,97.6c-.47,1.17,1,3.86-1.41,3.82-2.24,0-1.69-2.66-1.76-4.38,0-.42,0-.84,0-1.25,0-1.26-.09-2.81,1.74-2.69,1.57.1,1.41,1.54,1.43,2.68C415.23,96.31,415.22,96.83,415.22,97.6Z"/><path class="cls-11" d="M348.73,184.41c.19,2.82-.64,4.63-2.31,5.8-1.42,1-2.72-.14-3.95-.85C343.58,186.41,346.94,187,348.73,184.41Z"/><path class="cls-15" d="M358.64,180.07c-3.11,4.54-8.23,4-12.06-.34,3.4.24,6.25,4.3,9.54.91l2.28-.8Z"/><path class="cls-15" d="M349.35,172c-.73-2.6,1.08-3.11,2.93-3.3,1.14-.12,2.71.32,2.78,1.51.09,1.69-1.55.72-2.42.89s-1.69-.08-2.3.71Z"/><path class="cls-8" d="M339.52,173c1.08.72-.07,2.67,1.66,3-.15.36-.29.72-.43,1.07-2.23.06-2.87,2.81-5,3C336.89,177.67,339,175.77,339.52,173Z"/><path class="cls-11" d="M349.35,172l1-.19c1.53.35,2.2,1.27,1.53,2.75a1.54,1.54,0,0,1-2.4.63C348.09,174.26,348.37,173.1,349.35,172Z"/><path class="cls-8" d="M358.4,179.84l-2.28.8c1.48-2.62,3.75-4.87,3.81-8.15C361.73,175.42,359.77,177.56,358.4,179.84Z"/><path class="cls-15" d="M345.37,177.83c.1-.45.27-.79.64-.6a1,1,0,0,1,.37.75c0,.33-.22.67-.6.49C345.57,178.36,345.47,178,345.37,177.83Z"/><path class="cls-10" d="M187.48,166.1l-.57-.19C187.2,165.66,187.37,165.8,187.48,166.1Z"/><path class="cls-10" d="M189.46,166.7l-.66-.25C189.13,166.23,189.32,166.38,189.46,166.7Z"/><path class="cls-8" d="M280.26,453.56c1.07,0,1.89.47,1.87,1.65a1.93,1.93,0,0,1-1.76,2c-1.18.18-1.77-.58-1.82-1.69A1.72,1.72,0,0,1,280.26,453.56Z"/><path class="cls-8" d="M287.39,462.11c-.06,1.13-.54,1.59-1.41,1.57a1.59,1.59,0,0,1-1.72-1.79,1.21,1.21,0,0,1,1.37-1.35A1.67,1.67,0,0,1,287.39,462.11Z"/><path class="cls-14" d="M274.3,464.18c-1.49.16-2.77.52-3.7-.67-.32-.41,0-.84.43-.94A2.51,2.51,0,0,1,274.3,464.18Z"/><path class="cls-6" d="M290.77,461.2l.37.74Z"/><path class="cls-6" d="M288.08,455.44l.55.69Z"/><path class="cls-8" d="M158.25,478.78c0,1.32-.57,2-1.69,2.13a1.89,1.89,0,1,1-.08-3.78A1.74,1.74,0,0,1,158.25,478.78Z"/><path class="cls-2" d="M200.83,249.39c1.41-1.19,1.58.34,1.83,1,1,2.44,2.59,3.67,5.25,3.41,1.66-.15,2.89,1.05,4.39,1.41,0,1.48.09,3,.09,4.44,0,3.27-.65,3.73-3.32,2C204.68,258.7,200.68,255.41,200.83,249.39Z"/><path class="cls-6" d="M170.8,475a1.64,1.64,0,0,1,1.7,1.49,1.39,1.39,0,0,1-1.28,1.8,1.58,1.58,0,0,1-1.94-1.56C169.2,475.66,169.86,475.18,170.8,475Z"/><path class="cls-14" d="M178,489.82c1.22-2.35,3-3,6.09-2Z"/><path class="cls-14" d="M184.77,492.56l-4.45,1.9C181.52,491.79,182.85,491.47,184.77,492.56Z"/><path class="cls-2" d="M127.64,95.54a49.73,49.73,0,0,0-11.46-15.23c1.46-.64,1.39-1.93,1.42-3.23.28-11.3-.6-22.62.57-33.92.37-3.62-.5-4.28-4.13-4.28-10.15,0-20.28.23-30.43.52-14.89.43-29.81-.09-44.71.69-2,.11-2.76.61-2.75,2.72q.09,28.75,0,57.51c0,2.31.82,2.86,3,2.82,6.24-.11,12.49,0,18.74,0-.1,3.59,1.62,7.21-.15,10.79-9.11,0-18.22,0-27.32,0-3.44,0-5.62-2.12-5.62-5.58q0-36.7,0-73.4c0-1.69-.31-3.64,2.74-2.28,1,.44,2.35-1.5,4.2-1.49q45.44.16,90.87,0c2.42,0,4,2.78,6.47,1.38q0,29,0,58a17.73,17.73,0,0,1-.64,5ZM123.78,34c-.08.18-.26.4-.21.52s.33.17.5.25c.08-.18.26-.4.21-.52S124,34.1,123.78,34Z"/><path class="cls-9" d="M127.64,95.54l.77-.07a1.56,1.56,0,0,1,0,2.57C128.13,97.2,127.89,96.37,127.64,95.54Z"/><path class="cls-16" d="M57.84,103.11c-6.25,0-12.5-.08-18.74,0-2.14,0-3-.51-3-2.82q.12-28.75,0-57.51c0-2.11.72-2.61,2.75-2.72,14.9-.78,29.82-.26,44.71-.69,10.15-.29,20.28-.53,30.43-.52,3.63,0,4.5.66,4.13,4.28-1.17,11.3-.29,22.62-.57,33.92,0,1.3,0,2.59-1.42,3.23-4.28-2.5-8.49-5.1-13.38-6.36a36.26,36.26,0,0,0-44,25.83C58.52,100.9,58.17,102,57.84,103.11ZM88.42,63c-.93-.15-2.3.47-2.53-1.09s.74-2,2.11-2.09c.6,0,1.42,0,1.27-.91-.12-.69-.81-.87-1.47-1a3.49,3.49,0,0,0-3.43,1.82,3.13,3.13,0,0,0,0,3.57c.78,1.36,2.08,1.54,3.53,1.58,2.32,0,4.4-1.69,6.79-.83.53.19,1,1,1.6.28a1.64,1.64,0,0,0,0-1.79,15.78,15.78,0,0,0-1-2c-.58-.92-.62-2.56-2.13-2.37-1.15.15-1.42,1.47-1.68,2.47C91.13,62.38,90.29,63.35,88.42,63ZM107,60.25c.89-2.21-.5-2.7-1.77-2.21-1.9.73-3.56.11-5.34,0s-3.7-.22-1.62,2.42c.39.49.23,1.42.27,2.15s.07,2,1.06,2c1.25,0,.72-1.25.86-2,.19-1-.52-2.66,1.37-2.59,1.62.06,1.16,1.53,1.15,2.48,0,2.58,1.68,2.54,3.46,2.47,2.6-.1.86-1.8.95-2.75A6,6,0,0,0,107,60.25Zm-42.5,4.48c.31-1.28.52-2.3.81-3.31.55-1.9-.53-2.8-2.09-3.25-1.35-.38-3-.62-3.31,1.25-.24,1.68-.82,3.58.62,5.11a.89.89,0,0,0,.8,0C62.36,61.88,63.26,64.35,64.46,64.73Zm9.24-3.37c-.32-.91.78-2.67-.82-3.08A22,22,0,0,0,67.3,58c-.88,0-1.6.81-.85,1.41C67.9,60.57,68.06,62,68,63.59c0,.56.19,1.13.85,1a1.33,1.33,0,0,0,.83-.84,11.26,11.26,0,0,0,.2-2.18c0-.92.2-1.73,1.37-1.66s1.18,1,1.13,1.86A13.94,13.94,0,0,1,72,63.32c-.13.75.24,1.33,1,1.34s.7-.66.71-1.2S73.7,62.2,73.7,61.36ZM54,61.61c-.36,2.3.16,3.66,2.93,3.37,3-.32,1.26-2.2,1.32-3.48,0-.5-.28-1.06-.14-1.5.77-2.45-1-2.11-2.27-2C53.45,58.22,54.13,60.17,54,61.61Zm21,.46a7.49,7.49,0,0,0,.26,1.87c.19.6.67,1,1.46.49,2.14-1.22,1.26-4.05,3-5.5.18-.15-.56-.75-1.08-.91C76.16,57.26,75,58.37,75,62.07ZM52.73,59.58C51.2,57.46,49.8,58,48.4,58.89a2.79,2.79,0,0,0-1.23,3.58,3.47,3.47,0,0,0,3.34,2.47c.76,0,1.64,0,1.84-.9.3-1.25-.82-.93-1.45-1-1.06-.12-1.93-.47-1.87-1.67s1-1.47,2-1.52A15.69,15.69,0,0,0,52.73,59.58Zm29.93,2.26c-.4-1,.69-2.78-.88-2.83s-1.07,1.73-1,2.81-.43,2.77,1.16,2.68C83.22,64.43,82.35,62.77,82.66,61.84Z"/><path class="cls-11" d="M335.12,173.61a1.65,1.65,0,0,1-1.79,1.73c-1,0-1.39-.79-1.39-1.69a1.51,1.51,0,0,1,1.4-1.73C334.43,171.86,335,172.57,335.12,173.61Z"/><path class="cls-15" d="M337.42,170.55c-.69.9-1.49.62-2.17.59-1,0-2.13.46-3-.36a.93.93,0,0,1,.08-.86c.91-1,2.13-.72,3.26-.63A2.07,2.07,0,0,1,337.42,170.55Z"/><path class="cls-11" d="M332.6,165.75l-.92-.33c.43-1.91,1.91-1.87,3.41-1.85,1.27,0,2,.53,1.89,1.85l-3.3.38Z"/><path class="cls-15" d="M333.68,165.8l3.3-.38,1.3,2.56C336.47,167.83,335.11,166.75,333.68,165.8Z"/><path class="cls-15" d="M338.27,168c.86,0,1.26.45,1.28,1.29C338.67,169.28,338.27,168.83,338.27,168Z"/><path class="cls-8" d="M356.91,132.94c.53,1.47.63,2.46-.23,3.3a.83.83,0,0,1-.75-.18C355.43,134.84,356.09,134.05,356.91,132.94Z"/><path class="cls-11" d="M355.26,164.19a7.66,7.66,0,0,0-1.56-.61c-1.45-.2-3.11-.31-3.52-1.94-.2-.8,1.07-.74,1.75-.75,2,0,4.3-.11,5.14,2.09C357.64,164.49,355.86,163.76,355.26,164.19Z"/><path class="cls-9" d="M123.78,34c.17.08.45.12.5.25s-.13.34-.21.52c-.17-.08-.45-.12-.5-.25S123.7,34.2,123.78,34Z"/><path class="cls-6" d="M88.42,63c1.87.32,2.71-.65,3.14-2.31.26-1,.53-2.32,1.68-2.47,1.51-.19,1.55,1.45,2.13,2.37a15.78,15.78,0,0,1,1,2,1.64,1.64,0,0,1,0,1.79c-.6.71-1.07-.09-1.6-.28-2.39-.86-4.47.88-6.79.83-1.45,0-2.75-.22-3.53-1.58a3.13,3.13,0,0,1,0-3.57A3.49,3.49,0,0,1,87.8,58c.66.1,1.35.28,1.47,1,.15.93-.67.89-1.27.91-1.37,0-2.33.59-2.11,2.09S87.49,62.88,88.42,63Z"/><path class="cls-9" d="M107,60.25a6,6,0,0,1,.39,1.94c-.09,1,1.65,2.65-.95,2.75-1.78.07-3.5.11-3.46-2.47,0-.95.47-2.42-1.15-2.48-1.89-.07-1.18,1.57-1.37,2.59-.14.75.39,2-.86,2-1,0-1-1.15-1.06-2s.12-1.66-.27-2.15c-2.08-2.64-.07-2.57,1.62-2.42s3.44.78,5.34,0C106.46,57.55,107.85,58,107,60.25Z"/><path class="cls-9" d="M64.46,64.73c-1.2-.38-2.1-2.85-3.17-.23a.89.89,0,0,1-.8,0c-1.44-1.53-.86-3.43-.62-5.11.27-1.87,2-1.63,3.31-1.25,1.56.45,2.64,1.35,2.09,3.25C65,62.43,64.77,63.45,64.46,64.73Z"/><path class="cls-9" d="M73.7,61.36c0,.84,0,1.47,0,2.1s-.09,1.2-.71,1.2-1.09-.59-1-1.34a13.94,13.94,0,0,0,.36-1.52c0-.84.09-1.78-1.13-1.86s-1.34.74-1.37,1.66a11.26,11.26,0,0,1-.2,2.18,1.33,1.33,0,0,1-.83.84c-.66.1-.87-.47-.85-1,0-1.61-.11-3-1.56-4.18-.75-.6,0-1.4.85-1.41a22,22,0,0,1,5.58.28C74.48,58.69,73.38,60.45,73.7,61.36Z"/><path class="cls-9" d="M54,61.61c.12-1.44-.56-3.39,1.84-3.6,1.29-.12,3-.46,2.27,2-.14.44.17,1,.14,1.5-.06,1.28,1.64,3.16-1.32,3.48C54.17,65.27,53.65,63.91,54,61.61Z"/><path class="cls-9" d="M75,62.07c0-3.7,1.18-4.81,3.65-4,.52.16,1.26.76,1.08.91-1.75,1.45-.87,4.28-3,5.5-.79.46-1.27.11-1.46-.49A7.49,7.49,0,0,1,75,62.07Z"/><path class="cls-9" d="M52.73,59.58a15.69,15.69,0,0,1-1.66.27c-1,0-2,.31-2,1.52s.81,1.55,1.87,1.67c.63.07,1.75-.25,1.45,1-.2.85-1.08.88-1.84.9a3.47,3.47,0,0,1-3.34-2.47,2.79,2.79,0,0,1,1.23-3.58C49.8,58,51.2,57.46,52.73,59.58Z"/><path class="cls-9" d="M82.66,61.84c-.31.93.56,2.59-.77,2.66-1.59.09-1.14-1.64-1.16-2.68s-.37-2.86,1-2.81S82.26,60.88,82.66,61.84Z"/></svg>