<svg width="342" height="324" viewBox="0 0 342 324" fill="none" xmlns="http://www.w3.org/2000/svg">
<path d="M136.914 153.772C136.914 153.272 136.88 152.778 136.859 152.278C139.272 151.229 138.745 149.069 138.745 147.157C138.745 132.671 138.868 118.179 138.683 103.686C138.628 99.8062 139.622 98.9492 143.523 99.6416C156.061 101.883 166.866 107.416 176.34 115.766C181.296 120.139 186.184 124.609 193.108 125.651C193.817 125.681 194.501 125.92 195.076 126.337C199.717 131.135 205.215 135.249 207.244 142.022C205.098 143.9 202.445 143.174 200.018 143.304C195.645 143.537 195.103 143.928 195.034 148.137C194.932 154.423 195.082 160.717 194.98 167.003C194.925 170.06 196.159 171.226 199.203 171.233C201.91 171.233 204.831 170.437 207.258 172.48C208.629 174.88 207.895 177.526 208.108 180.056C206.737 180.22 206.483 179.116 206.243 178.218C205.736 176.347 205.153 174.468 202.74 174.866C200.107 175.298 196.529 174.242 195.274 177.471C193.951 180.899 191.614 181.276 188.611 181.269C176.641 181.242 164.667 181.242 152.689 181.269C151.009 181.269 149.302 181.057 147.664 181.619C146.388 182.078 145.223 182.688 144.585 183.977C143.948 185.266 144.25 186.719 144.085 188.09C143.639 191.813 142.378 192.485 138.422 191.107C137.154 189.05 137.504 186.753 137.49 184.532C137.428 174.263 138.018 164 136.914 153.772Z" fill="#E9EFFD"/>
<path d="M211.382 181.825C213.48 183.34 211.512 185.87 213.171 188.146V142.9C215.79 142.9 215.817 144.957 215.913 146.691C216.16 150.16 215.975 153.65 216.023 157.132C216.098 163.302 218.697 165.098 224.483 162.911C225.134 162.665 225.696 162.226 226.334 161.945C231.064 162.514 235.931 162.836 238.488 167.84C236.089 176.499 237.165 185.013 238.728 193.726C240.264 202.255 240.545 211.009 241.731 219.626C243.191 230.19 243.883 240.844 245.405 251.401C245.666 253.204 245.776 255.062 244.391 256.584C235.184 259.545 225.696 260.176 216.112 259.895C212.822 259.799 211.924 257.578 211.876 254.74C211.759 247.569 211.834 240.398 211.828 233.234C211.828 225.501 211.725 217.768 211.876 210.042C211.965 205.381 212.397 205.045 216.976 205.052C222.309 205.052 227.643 205.01 232.983 205.113C233.546 205.148 232.983 204.311 233.1 204.86C233.134 204.976 233.018 205.045 232.757 205.045C229.946 204.997 227.129 204.894 224.325 205.045C218.512 205.374 212.863 205.134 207.954 201.425C206.199 198.224 206.446 195.043 208.078 191.882C208.837 191.153 209.43 190.268 209.816 189.289C210.201 188.309 210.371 187.257 210.313 186.206C210.333 184.677 210.148 183.053 211.382 181.825Z" fill="#D9E2FD"/>
<path d="M267.238 210.335C267.82 202.52 268.437 194.711 268.979 186.896C269.102 185.107 269.582 183.901 271.666 184.065C274.271 184.264 274.189 182.577 274.004 180.754C273.442 175.187 272.907 169.614 272.366 164.047C274.655 161.579 277.253 159.879 280.846 160.661C279.303 167.697 279.468 175.001 281.326 181.96C283.245 178.732 283.567 175.153 284.225 171.677C284.465 170.436 284.561 168.867 286.015 168.716C287.468 168.565 287.509 170.087 287.646 171.184C287.831 172.692 289.148 173.076 290.121 173.844C291.581 174.988 292.952 176.236 292.685 178.375C288.352 179.698 287.681 182.9 287.955 186.903C288.229 190.907 288.064 194.766 288.003 198.701C287.955 201.368 289.072 202.492 291.753 202.527C294.07 202.527 296.551 201.93 298.608 203.761C299.163 212.028 297.593 219.802 292.959 226.761C291.3 229.249 289.717 233.794 287.228 233.225C284.267 232.54 286.453 228.118 285.946 225.376C285.644 223.765 286.261 222.051 285.446 220.241C282.292 221.256 283.526 225.403 280.853 226.589C278.796 225.657 278.755 223.717 278.796 221.948C278.878 218.603 277.185 217.492 274.141 217.711C273.867 217.711 273.586 217.711 273.312 217.711C266.552 217.506 266.312 217.225 267.238 210.335Z" fill="#E9EFFD"/>
<path d="M80.4529 176.705C80.4529 179.091 77.8616 182.087 82.0571 183.479C79.8839 183.294 79.5275 184.548 79.5549 186.372C79.6303 190.876 79.3698 195.4 79.6371 199.89C79.8634 203.709 78.2661 204.833 74.7012 204.641C70.1938 204.37 65.6702 204.63 61.2235 205.416C66.0771 205.416 70.9308 205.56 75.7775 205.361C78.7254 205.238 79.74 206.218 79.6371 209.193C79.4315 214.822 79.5 220.464 79.6371 226.092C79.692 229.115 78.5266 229.52 76.086 228.217C66.132 222.815 59.6673 214.897 57.5764 203.62C55.9174 194.708 57.1103 185.666 56.7538 176.692C57.1034 174.046 58.543 172.901 61.2715 172.949C66.1663 173.038 71.0747 172.949 75.9764 172.949C78.5197 172.997 80.4118 173.723 80.4529 176.705Z" fill="#D9E2FD"/>
<path d="M94.7814 121.14L85.4718 124.986C84.1692 119.783 87.4667 116.581 90.5516 113.284C90.7916 113.133 91.2851 113.003 91.2851 112.927C91.0383 108.005 94.7128 108.245 97.8732 108.039C100.821 107.854 103.783 107.93 106.737 108.039C109.479 108.129 111.385 108.828 109.692 111.563C110.096 110.336 111.584 109.164 112.372 107.553C113.922 105.414 112.084 102.809 113.312 100.629C116.623 102 119.481 99.4222 122.676 99.5867C123.067 99.5867 123.464 99.3057 123.876 99.2165C131.773 97.5027 132.966 98.3528 132.788 106.312C132.575 117.664 133.473 129.031 132.287 140.376C132.143 141.748 132.644 143.119 132.85 144.49C129.861 140.431 126.357 136.647 124.013 132.253C120.242 125.164 113.593 122.971 106.874 120.599C105.037 119.466 102.901 118.912 100.745 119.008C98.588 119.105 96.5103 119.848 94.7814 121.14Z" fill="#E9EFFD"/>
<path d="M211.383 181.823C211.431 184.023 211.383 186.238 211.541 188.431C211.664 190.413 210.855 191.585 208.929 192.003C207.316 192.881 205.499 193.316 203.664 193.264C185.84 193.264 167.99 193.264 150.116 193.264C148.709 193.261 147.308 193.09 145.941 192.757C141.492 190.166 143.802 186.155 143.823 182.625L146.394 180.788C158.185 180.157 169.99 180.719 181.781 180.493C186.676 180.404 191.537 180.692 196.452 179.759C200.903 178.974 205.481 179.349 209.745 180.849L211.383 181.823Z" fill="#3F4366"/>
<path d="M76.1904 51.5954C76.2007 53.6009 75.8108 55.5883 75.0437 57.4414C74.2766 59.2944 73.1475 60.9758 71.7227 62.3872C70.2979 63.7986 68.6059 64.9117 66.7457 65.6613C64.8855 66.4109 62.8945 66.7819 60.8892 66.7527C52.7038 66.7527 45.533 59.4174 45.7387 51.3212C45.9649 43.458 53.2591 36.2873 61.04 36.3421C63.0408 36.3329 65.0235 36.7219 66.8725 37.4864C68.7216 38.251 70.4 39.3759 71.81 40.7955C73.2201 42.2151 74.3335 43.9011 75.0856 45.7552C75.8376 47.6094 76.2132 49.5947 76.1904 51.5954Z" fill="#E9EFFD"/>
<path d="M207.259 172.463C203.893 172.463 200.52 172.346 197.154 172.463C194.693 172.566 193.624 171.818 193.672 169.152C193.802 161.439 193.816 153.713 193.672 146.001C193.61 142.779 195.043 141.805 197.991 141.956C200.939 142.107 204.161 141.956 207.246 141.956C208.548 144.184 208.027 146.632 208.054 148.997C208.109 155.475 208.096 161.954 208.054 168.439C208.041 169.837 208.514 171.339 207.259 172.463Z" fill="#D9E2FD"/>
<path d="M267.235 210.338C267.475 216.419 267.475 216.419 273.439 216.426C279.719 216.426 279.746 216.426 279.966 222.938C279.966 224.204 280.266 225.452 280.843 226.578C280.624 229.06 279.506 231.48 280.027 233.996C281.111 239.158 278.533 241.921 274.166 243.909C270.629 245.52 267.276 247.535 263.842 249.393C264.438 236.313 265.432 223.295 267.235 210.338Z" fill="#D9E2FD"/>
<path d="M114.654 323.809C108.635 323.809 104.097 319.456 104.09 313.684C104.09 307.377 108.477 302.647 114.318 302.674C120.289 302.674 125.177 307.397 125.225 313.149C125.26 314.551 125.012 315.946 124.494 317.249C123.977 318.553 123.201 319.738 122.213 320.734C121.226 321.73 120.047 322.515 118.748 323.044C117.449 323.572 116.056 323.833 114.654 323.809Z" fill="#E9EFFD"/>
<path d="M312.091 78.451C312.091 79.8154 311.82 81.1661 311.293 82.4246C310.766 83.683 309.994 84.824 309.021 85.7811C308.049 86.7381 306.896 87.4921 305.629 87.9991C304.362 88.5061 303.007 88.756 301.643 88.7341C295.755 88.6382 290.757 83.5789 290.969 77.9231C291.182 72.2674 296.138 67.5098 301.712 67.5989C307.683 67.7017 312.146 72.3565 312.091 78.451Z" fill="#E9EFFD"/>
<path d="M57.5974 172.442C57.4123 167.198 57.9745 162.077 60.1133 157.223C61.1348 155.318 62.9789 155.167 64.7613 155.29C65.9865 155.399 67.2206 155.236 68.3751 154.812C69.5296 154.387 70.5758 153.713 71.4385 152.836C73.2003 153.254 72.8096 155.023 73.4951 156.127C74.0778 157.114 74.7291 158.032 75.9082 158.217C77.4096 158.464 77.6358 157.169 78.054 156.161C78.3764 155.237 79.045 154.475 79.9186 154.036C81.2258 153.539 82.6699 153.539 83.977 154.036C85.5264 154.913 85.6909 156.25 85.2521 157.792C84.4981 159.719 82.0301 159.671 81.1389 161.412C80.7413 164.079 81.1389 166.766 80.803 169.419C80.5562 171.565 79.8638 173.251 77.2587 173.251C71.3562 173.251 65.4537 173.34 59.5512 173.21C58.8272 173.206 58.1306 172.932 57.5974 172.442Z" fill="#D9E2FD"/>
<path d="M298.564 203.751C294.821 203.47 290.077 205.321 287.595 202.969C285.114 200.618 286.978 195.792 286.752 192.062C286.594 189.546 286.718 187.017 286.718 184.521C286.718 178.447 286.718 178.447 292.648 178.393C296.542 183.877 297.81 190.225 298.393 196.635C298.598 198.904 300.202 201.365 298.564 203.751Z" fill="#DAE3FD"/>
<path d="M224.321 140.402C222.202 143.637 226.254 142.952 226.885 144.439C228.105 147.47 226.823 150.246 225.843 152.961C224.636 156.306 224.211 159.439 226.672 162.394C224.28 166.342 220.441 165.054 217.253 164.45C214.264 163.909 214.867 160.824 214.86 158.486C214.86 154.579 214.86 150.671 214.86 146.763C214.86 145.2 214.936 143.637 213.174 142.849C213.297 140.854 214.545 140.278 216.32 140.306C218.987 140.36 221.654 140.374 224.321 140.402Z" fill="#E8EEFD"/>
<path d="M292.964 278.159C293.983 278.182 294.987 278.409 295.916 278.827C296.845 279.246 297.681 279.846 298.374 280.593C299.068 281.34 299.604 282.219 299.951 283.177C300.298 284.135 300.45 285.153 300.397 286.171C300.344 287.189 300.087 288.185 299.641 289.102C299.196 290.019 298.571 290.837 297.804 291.507C297.036 292.178 296.142 292.688 295.174 293.007C294.206 293.326 293.184 293.447 292.169 293.364C288.234 293.117 284.799 289.251 285.094 285.364C285.245 283.388 286.143 281.544 287.605 280.205C289.066 278.867 290.982 278.136 292.964 278.159Z" fill="#EAEFFD"/>
<path d="M46.3268 242.636C41.5897 243.603 38.4636 238.681 38.2922 235.418C38.1003 231.846 41.8433 228.295 45.5316 228.295C50.7005 228.213 53.3536 230.777 53.3604 235.836C53.3467 240.23 50.9131 242.609 46.3268 242.636Z" fill="#E9EFFD"/>
<path d="M209.745 180.837L146.395 180.775C147.718 179.568 149.349 180.089 150.844 180.089C163.794 180.048 176.75 180.014 189.707 180.089C192.36 180.089 194.184 179.753 193.752 176.49C193.642 175.668 193.752 174.434 194.718 174.434C198.235 174.386 201.574 172.925 205.139 173.405C206.674 173.611 207.147 174.687 207.257 176.106C207.367 177.525 206.75 178.972 208.107 180.048C208.426 180.021 208.746 180.08 209.034 180.219C209.322 180.357 209.568 180.571 209.745 180.837Z" fill="#D9E2FD"/>
<path d="M71.8556 152.992C71.17 155.817 69.4356 156.756 66.57 156.42C64.4312 156.194 62.1552 155.981 60.1328 157.195C60.3865 152.026 62.9778 147.686 65.0893 143.182C65.8434 141.571 66.8168 140.07 67.6875 138.514L68.1948 138.863C70.1143 141.962 72.5548 144.759 73.6791 148.331C73.8025 150.202 73.6654 151.937 71.8556 152.992Z" fill="#E9EFFC"/>
<path d="M213.521 298.408C217.127 298.196 218.937 300.465 218.889 303.447C218.841 306.429 216.75 308.452 213.405 308.589C209.772 308.739 208.332 306.374 208.174 303.378C208.01 299.958 210.334 298.532 213.521 298.408Z" fill="#EAF0FD"/>
<path d="M249.015 30.3636C245.985 30.3225 242.907 27.3747 243.017 25.0164C243.133 22.2742 245.992 19.3949 248.446 19.5321C250.9 19.6692 254.026 22.8844 253.684 25.1672C253.259 28.0122 251.647 29.9591 249.015 30.3636Z" fill="#EAF0FD"/>
<path d="M81.2897 127.645C79.0205 131.642 77.862 136.091 76.2372 140.334C76.0053 140.558 75.7315 140.734 75.4315 140.852C75.1315 140.969 74.8113 141.026 74.4891 141.02C72.2337 140.554 69.7452 140.773 67.9696 138.861L67.668 138.531C70.4101 135.159 73.2209 131.875 75.7779 128.385C77.4986 126.055 79.2193 126.199 81.2897 127.645Z" fill="#E9EFFC"/>
<path d="M57.5957 172.443C63.4983 172.443 69.4008 172.293 75.2896 172.519C78.5185 172.642 79.821 171.792 79.6702 168.316C79.5468 165.492 78.6693 162.455 80.4174 159.74C81.2372 159.964 81.9813 160.406 82.5713 161.017C83.1613 161.629 83.5753 162.389 83.7697 163.216C82.7894 167.741 82.3986 172.416 80.4517 176.701C79.444 174.952 78.2511 173.958 75.8997 174.054C71.0356 174.305 66.1618 174.305 61.2977 174.054C58.9805 173.945 57.6986 174.822 56.7525 176.687C56.5642 175.218 56.8602 173.728 57.5957 172.443Z" fill="#F2F4FC"/>
<path d="M145.579 4.55C145.257 7.60066 143.207 9.1637 140.78 8.98546C138.586 8.82778 136.434 6.826 136.495 4.50201C136.557 2.17803 138.01 -0.187089 141.054 0.0117181C143.838 0.196814 145.209 2.0135 145.579 4.55Z" fill="#EBF0FD"/>
<path d="M313.386 221.003C310.343 220.777 308.677 219.077 308.841 216.389C309.006 213.702 310.898 212.091 313.64 212.276C316.554 212.454 317.794 214.71 317.753 217.164C317.712 219.618 315.745 220.941 313.386 221.003Z" fill="#EBF0FD"/>
<path d="M50.0979 159.791C48.1441 159.709 46.0532 158.345 45.9847 155.959C45.9161 153.573 47.4038 151.263 50.3996 151.373C53.1417 151.469 54.8282 153.135 54.9721 155.856C55.1161 158.578 53.3474 159.805 50.0979 159.791Z" fill="#EBF0FD"/>
<path d="M147.169 267.858H110.047C108.676 264.76 107.415 261.688 109.924 258.521C110.273 255.779 109.807 252.948 110.74 250.26C111.953 246.517 111.391 242.569 111.919 238.723C112.385 235.295 113.29 231.867 112.988 228.323C112.817 226.328 114.236 225.718 115.73 225.122C119.451 223.744 123.439 223.242 127.384 223.655C130.565 223.888 131.669 222.51 131.58 219.486C131.114 204.576 131.779 189.659 131.429 174.734C131.306 169.504 130.497 164.033 132.869 158.967C134.24 157.23 135.593 155.5 136.927 153.777C139.121 154.717 138.764 156.67 138.764 158.466C138.764 169.335 138.764 180.205 138.764 191.078C140.375 192.99 139.93 195.314 139.957 197.508C140.005 202.026 139.806 203.596 145.003 203.534C145.708 203.56 146.39 203.799 146.957 204.219C147.642 204.939 147.21 205.44 146.634 205.926C139.916 207.565 139.916 207.565 139.916 214.893C139.933 215.174 139.933 215.456 139.916 215.737C138.97 223.696 140.06 230.853 147.622 235.501C147.88 235.938 148.072 236.412 148.191 236.906C148.876 246.079 148.451 255.258 148.444 264.431C148.485 265.06 148.393 265.69 148.173 266.281C147.954 266.872 147.611 267.409 147.169 267.858Z" fill="#FEFEFE"/>
<path d="M132.87 158.961C132.87 171.863 132.87 184.767 132.87 197.673C132.87 205.653 132.808 213.626 132.87 221.606C132.87 224.163 132.54 225.328 129.373 225.033C124.945 224.602 120.461 224.554 116.067 226.288C114.168 227.042 113.469 227.659 113.325 229.716C112.92 235.995 112.242 242.254 111.673 248.527C111.668 248.877 111.58 249.221 111.415 249.53C111.251 249.838 111.014 250.103 110.727 250.302C112.029 234.764 113.338 219.225 114.655 203.686C115.039 199.209 115.662 194.774 115.902 190.263C116.019 188.048 116.485 186.506 118.795 185.8C121.586 184.957 121.791 183.387 120.646 180.699C118.953 176.737 116.807 172.836 116.725 168.36C115.944 165.837 116.547 164.692 119.337 165.741C121.037 167.421 122.621 166.392 124.273 165.597C127.618 163.945 130.004 161.155 132.87 158.961Z" fill="#EAEFFD"/>
<path d="M98.2158 267.847C98.5174 264.419 96.6527 261.327 96.5156 257.955C96.7716 253.412 97.0229 248.867 97.2697 244.319C98.3392 240.693 97.4548 236.977 97.777 233.316C98.0375 230.382 98.867 230.032 101.513 231.657C102.386 240.386 103.254 249.113 104.118 257.838C105.387 261.499 103.803 264.645 102.35 267.826L98.2158 267.847Z" fill="#FBFCFE"/>
<path d="M119.358 165.686C117.411 165.48 116.615 166.433 116.746 168.305C116.06 167.29 115.457 166.159 113.839 166.426C113.599 166.497 113.347 166.515 113.1 166.479C112.853 166.443 112.616 166.355 112.406 166.219C112.196 166.084 112.017 165.905 111.883 165.695C111.748 165.485 111.66 165.248 111.625 165C111.554 164.758 111.534 164.504 111.565 164.253C111.597 164.003 111.679 163.762 111.808 163.544C111.936 163.327 112.108 163.139 112.312 162.991C112.517 162.842 112.749 162.738 112.996 162.683C115.697 162.183 115.265 160.304 115.052 158.488C114.576 153.445 115.119 148.358 116.65 143.529C117.417 141.006 118.316 140.89 119.892 142.844C120.77 143.934 121.75 144.941 122.696 145.983C127.289 151.056 127.495 151.262 122.086 155.581C118.507 158.501 116.238 161.223 119.358 165.686Z" fill="#E1E8FA"/>
<path d="M101.514 231.653C98.5246 230.104 98.3806 232.051 98.1544 234.237C97.8117 237.597 99.0731 241.093 97.2701 244.315C96.845 231.077 98.7166 217.908 98.4903 204.643C100.243 213.547 101.254 222.581 101.514 231.653Z" fill="#C8D6FC"/>
<path d="M74.5145 140.316H76.2352C77.9011 142.565 79.5327 144.848 81.2534 147.055C82.076 148.104 82.3297 150.065 84.6811 148.776C85.8671 148.125 85.634 149.811 85.5586 150.401C85.2775 152.663 86.1481 154.514 87.3067 156.303C87.6426 157.633 86.6212 157.921 85.7574 158.36C85.374 158.431 84.9782 158.349 84.6536 158.134C84.5714 156.845 85.0033 155.391 83.5431 154.548C80.2251 151.066 77.8257 146.898 74.9738 143.065C74.3842 142.291 73.9112 141.352 74.5145 140.316Z" fill="#C6CDE0"/>
<path d="M85.5254 158.059L87.2941 156.324L85.5254 158.059Z" fill="#99A9DA"/>
<path d="M147.15 204.654C138.752 204.49 138.752 204.49 138.752 196.14C138.752 194.453 138.752 192.76 138.752 191.074C141.947 191.526 143.434 190.388 143.023 186.961C142.851 185.548 142.406 183.862 143.804 182.635C144.661 185.658 142.516 189.237 145.525 191.855C149.015 194.09 149.707 199.664 147.15 204.654Z" fill="#D5DFFD"/>
<path d="M147.149 204.656C147.149 201.859 147.108 199.062 147.245 196.278C147.327 194.489 146.937 193.001 145.545 191.836L208.93 192.007C207.326 194.962 208.368 198.177 208.128 201.228C209.499 202.551 209.41 204.292 209.417 205.958C209.476 221.694 209.476 237.427 209.417 253.158C209.491 254.559 209.269 255.961 208.766 257.271C207.874 258.868 206.311 258.868 204.776 258.944C202.815 258.854 200.923 258.059 198.907 258.306C198.052 258.211 197.24 257.877 196.565 257.342C195.889 256.808 195.378 256.094 195.089 255.283C195.074 255.08 195.099 254.876 195.164 254.683C195.229 254.49 195.331 254.311 195.466 254.159C196.788 253.886 198.019 253.279 199.04 252.396C200.062 251.512 200.84 250.382 201.3 249.113C203.768 246.371 202.856 243.252 202.034 240.386C200.989 237.166 201.008 233.695 202.088 230.487C203.028 227.793 203.37 224.701 202.39 222.185C200.21 216.584 201.807 211.422 203.13 206.136C204.337 205.266 203.22 204.484 203.028 203.668C201.156 198.081 199.6 197.121 192.655 197.32C186.965 197.382 181.289 197.409 175.613 197.32C170.862 197.32 166.104 197.272 161.347 197.32C155.177 197.375 154.238 198.061 152.181 203.792C150.433 205.89 153.936 204.374 153.442 205.608C151.351 211.998 154.759 218.634 152.647 225.044C152.311 226.286 152.405 227.605 152.914 228.787C154.238 232.091 153.504 235.114 151.948 238.083C149.295 239.625 148.376 237.466 147.197 235.861C146.361 234.579 145.463 233.387 145.579 231.666C146.114 223.714 145.73 215.754 145.73 207.795C145.644 206.956 145.863 206.114 146.347 205.423L147.149 204.656Z" fill="#C3CEEA"/>
<path d="M208.051 257.82C208.051 238.963 208.077 220.099 208.127 201.229C210.183 200.886 212.288 200.324 213.351 203.018C214.091 204.889 215.819 204.574 217.334 204.581C223.778 204.581 230.229 204.581 236.68 205.417C230.352 205.417 224.011 205.582 217.69 205.349C214.317 205.225 213.028 206.034 213.076 209.729C213.277 224.647 213.277 239.562 213.076 254.475C213.076 257.8 213.995 258.732 217.34 258.8C226.506 258.979 235.425 257.039 244.46 256.161C244.526 256.261 244.567 256.376 244.58 256.495C244.593 256.614 244.578 256.735 244.536 256.847C245.571 260.528 246.867 264.209 244.392 267.815H208.127C206.104 264.525 206.269 261.207 208.051 257.82Z" fill="#FCFDFE"/>
<path d="M258.092 259.466L257.07 259.597C255.398 259.597 255.59 258.226 255.329 257.218C255.096 256.313 255.391 254.983 254.17 254.777C252.649 254.517 252.491 255.936 252.148 256.978C252.004 257.669 251.638 258.295 251.106 258.76C251.022 258.803 250.929 258.827 250.834 258.83C250.74 258.833 250.646 258.814 250.559 258.776C250.473 258.738 250.395 258.681 250.334 258.61C250.272 258.538 250.226 258.454 250.201 258.363C250.722 242.965 251.241 227.57 251.757 212.178H252.751C253.937 224.099 255.041 236.028 256.344 247.936C256.762 251.788 256.488 255.778 258.092 259.466Z" fill="#CAD7FD"/>
<path d="M238.993 159.942C236.155 159.572 233.371 158.427 232.247 155.938C231.445 154.149 232.782 151.914 234.907 150.845L237.649 147.273C239.445 147.006 238.952 145.436 239.301 144.346C241.488 146.745 240.131 149.583 240.103 152.188C240.076 154.793 239.397 157.357 238.993 159.942Z" fill="#D7E0FC"/>
<path d="M275.681 148.563C279.164 153.656 278.842 154.486 272.322 157.242V145.725L275.681 148.563Z" fill="#ECF0FC"/>
<path d="M208.053 257.817C208.053 261.163 208.078 264.508 208.128 267.854H147.17L147.211 235.873L151.441 238.396C151.838 238.738 152.14 239.178 152.318 239.671C153.23 245.841 152.545 252.011 152.75 258.181C152.901 262.863 153.127 263.233 157.823 263.288C171.164 263.452 184.518 263.068 197.845 263.548C202.459 263.713 202.267 260.196 203.844 257.893L208.053 257.817Z" fill="#E5E5E5"/>
<path d="M253.3 167.662C252.834 165.887 254.411 165.29 255.83 165.03C258.316 164.69 260.749 164.034 263.069 163.076C265.263 163.44 264.488 165.29 264.838 166.586" fill="#D5DDF7"/>
<path d="M146.367 205.424C147.587 209.537 147.094 213.65 146.963 217.825C146.778 223.831 147.107 229.85 147.217 235.862C146.161 235.176 145.058 234.566 144.07 233.805C140.643 231.159 138.058 228.321 138.641 223.323C139.08 219.004 139.08 214.652 138.641 210.332C138.284 206.137 139.895 204.766 143.824 205.383C144.669 205.46 145.519 205.473 146.367 205.424Z" fill="#D5DFFD"/>
<path d="M151.471 239.264V238.373C152.759 234.356 151.539 230.311 151.683 226.328C151.854 221.44 152.369 216.593 151.45 211.753C150.977 209.306 152.718 207.578 153.116 205.433C154.569 203.904 156.489 204.233 158.271 204.226C171.749 204.185 185.231 204.185 198.718 204.226C200.514 204.226 202.413 203.972 203.901 205.405C204.055 207.511 203.79 209.627 203.119 211.63C202.043 214.448 202.139 217.039 203.311 220.11C204.675 223.853 204.567 227.974 203.01 231.641C202.043 233.979 201.68 236.357 202.824 238.572C204.497 241.814 203.777 245.194 203.853 248.526C203.894 250.685 202.934 251.021 201.446 249.376C197.847 247.943 195.325 249.506 193.22 252.337C192.835 252.435 192.436 252.465 192.041 252.427C190.67 251.933 188.887 251.789 189.6 249.527C189.909 248.553 190.875 247.429 189.443 246.654C188.311 246.044 187.386 246.826 186.502 247.532C185.974 247.964 185.514 248.478 185.028 248.958C183.485 250.205 182.416 252.132 180.16 252.385C179.766 252.327 179.408 252.121 179.16 251.81C180.531 247.984 177.864 244.714 177.562 241.081C177.377 238.873 174.278 239.71 172.551 239.072C172.273 238.967 172.022 238.802 171.816 238.589C171.61 238.376 171.453 238.119 171.358 237.838C174.025 232.532 174.025 232.532 170.385 228.769C168.794 227.617 167.444 224.361 165.476 226.026C163.269 227.877 166.847 229.29 167.471 231.065C168.465 233.122 171.214 234.061 171.084 236.817C169.274 238.188 166.916 238.729 165.476 240.628C163.419 241.999 162.583 244.817 159.848 245.379C157.256 243.062 153.774 242.006 151.471 239.264Z" fill="#D9E2FD"/>
<path d="M151.468 239.266C154.587 240.877 158.248 241.72 159.996 245.278C161.559 246.649 163.246 247.65 165.439 246.779C167.387 246.504 169.37 246.916 171.047 247.945C172.37 248.747 173.337 249.672 171.931 251.215C169.875 252.798 171.246 254.917 171.054 256.802C166.557 259.002 165.151 258.344 165.254 253.998C165.302 252.195 164.788 250.824 162.814 250.831C160.839 250.838 160.215 252.202 160.455 254.018C160.586 254.978 161.141 255.863 160.976 256.884C160.517 258.104 157.857 258.255 158.92 259.935C160.113 261.834 162.471 260.792 164.329 260.977C167.558 261.463 170.217 260.62 171.993 257.707C173.583 257.624 174.427 258.831 175.469 259.708C176.401 260.49 177.251 261.731 178.643 261.272C180.507 260.648 179.369 258.872 179.74 257.652C179.828 257.366 179.982 257.104 180.187 256.887C180.393 256.67 180.645 256.502 180.926 256.397C182.489 256.089 183.736 256.336 183.894 258.248C184.031 260.044 184.58 261.676 186.547 261.964C188.864 262.307 189.07 260.291 189.653 258.776C189.746 258.515 189.891 258.275 190.08 258.071C190.268 257.867 190.496 257.704 190.749 257.59C191.346 257.569 191.93 257.769 192.388 258.152C193.073 258.666 193.574 259.331 194.211 259.866C195.336 260.805 196.179 262.649 197.968 261.957C200.08 261.141 198.126 259.215 198.729 257.885C200.429 255.869 202.157 257.803 203.857 257.885C203.807 258.87 203.818 259.856 203.891 260.84C204.268 263.815 203.007 264.692 200.073 264.672C185.142 264.539 170.208 264.539 155.273 264.672C152.345 264.672 151.331 263.829 151.406 260.84C151.578 253.662 151.461 246.478 151.468 239.266Z" fill="#FCFCFD"/>
<path d="M151.441 204.584C151.579 198.174 153.642 196.145 160.038 196.131C165.063 196.131 170.088 196.131 175.12 196.131C175.48 196.571 175.939 196.92 176.46 197.149C176.98 197.378 177.548 197.48 178.116 197.447C182.339 197.502 186.562 197.502 190.785 197.447C191.346 197.476 191.907 197.375 192.422 197.15C192.937 196.925 193.393 196.583 193.753 196.151C200.608 196.151 203.481 198.29 203.878 203.761C202.967 204.604 201.822 204.604 200.704 204.59C184.937 204.309 169.231 205.07 153.498 205.015C152.784 205.1 152.061 204.948 151.441 204.584Z" fill="#D9E2FD"/>
<path d="M151.441 204.585C168.916 204.66 186.363 203.132 203.844 203.742C203.947 204.304 204.79 204.866 203.844 205.435H153.073C152.586 205.079 151.256 206.251 151.441 204.585Z" fill="#E3EAFD"/>
<path d="M193.716 196.131C193.881 198.187 192.757 198.722 190.892 198.688C186.573 198.61 182.254 198.61 177.935 198.688C176.077 198.722 174.939 198.215 175.111 196.131H193.716Z" fill="#E3EAFD"/>
<path d="M193.11 252.167C195.111 246.812 197.367 246.065 201.405 249.424C201.699 253.661 199.519 255.08 195.598 254.518C193.685 254.874 192.966 253.983 193.11 252.167Z" fill="#4B6FEF"/>
<path d="M198.715 257.914C200.024 259.484 201.231 261.204 199.147 262.911C197.241 264.474 195.836 262.98 194.574 261.636C193.731 260.731 192.943 259.778 192.127 258.846C193.032 257.338 193.944 255.836 195.795 255.309L198.715 257.914Z" fill="#4B6FEF"/>
<path d="M195.793 255.308C195.475 256.128 194.983 256.87 194.349 257.48C193.716 258.091 192.957 258.557 192.126 258.845L190.926 257.961C190.221 257.759 189.602 257.332 189.163 256.745C188.723 256.158 188.488 255.444 188.492 254.711C188.547 252.181 189.575 250.913 192.263 251.832L193.099 252.168C193.617 253.224 194.505 254.054 195.594 254.499C195.594 254.78 195.663 255.058 195.793 255.308Z" fill="#434B75"/>
<path d="M172.63 238.781C178.162 237.896 178.8 238.397 178.8 243.929C178.772 244.266 178.823 244.606 178.949 244.92C179.075 245.234 179.273 245.514 179.526 245.739C181.885 247.761 181.089 249.852 179.711 251.97C178.498 254.068 176.606 253.451 174.803 253.218C174.313 253.093 173.868 252.834 173.516 252.471C173.163 252.108 172.919 251.655 172.808 251.162C173.267 247.809 171.492 244.992 170.511 242.01C170.49 241.319 170.681 240.638 171.06 240.06C171.439 239.482 171.987 239.036 172.63 238.781Z" fill="#4C6FEA"/>
<path d="M189.366 255.52L190.929 257.96C190.381 259.866 190.689 262.176 188.187 263.129C187.579 263.377 186.918 263.462 186.268 263.377C185.617 263.292 185 263.039 184.477 262.644C183.954 262.249 183.542 261.724 183.283 261.122C183.023 260.519 182.925 259.86 182.997 259.208C183.162 257.309 182.908 256.706 181.071 256.959C178.384 255.849 177.938 254.162 179.768 251.893L184.135 248.637C185.931 249.363 186.877 250.803 187.426 252.572C187.803 253.353 185.63 255.355 188.564 254.923C188.745 254.92 188.922 254.976 189.067 255.084C189.212 255.192 189.317 255.345 189.366 255.52Z" fill="#4F72ED"/>
<path d="M196.137 246.204C193.922 246.121 192.462 244.798 192.469 242.577C192.45 242.042 192.546 241.508 192.749 241.013C192.952 240.517 193.258 240.07 193.647 239.702C194.036 239.334 194.499 239.053 195.005 238.877C195.511 238.701 196.049 238.635 196.582 238.683C198.92 238.752 200.456 240.342 200.291 242.872C200.14 245.278 198.543 246.21 196.137 246.204Z" fill="#5074EE"/>
<path d="M181.044 226.922C180.68 229.096 179.275 230.583 177.143 230.535C174.826 230.487 173.215 229.096 173.441 226.422C173.647 224.016 175.162 222.953 177.41 223.042C179.659 223.131 180.907 224.523 181.044 226.922Z" fill="#486CEC"/>
<path d="M187.118 252.766C186.254 251.299 184.506 250.469 184.156 248.652C185.088 247.62 186.077 246.641 187.118 245.718C187.372 245.476 187.672 245.286 188 245.159C188.328 245.033 188.678 244.972 189.03 244.981C189.381 244.99 189.728 245.068 190.049 245.211C190.37 245.354 190.66 245.559 190.902 245.814C191.965 246.822 192.17 248.227 191.108 249.16C188.365 251.532 192.033 250.908 192.266 251.854C189.483 251.648 189.414 253.582 189.366 255.535H189.099H188.825C187.57 255.035 187.673 253.664 187.118 252.766Z" fill="#4A537F"/>
<path d="M171.025 236.755L166.871 231.723C167.893 230.202 168.983 228.762 170.929 228.357C171.578 228.852 172.198 229.383 172.787 229.948C176.215 233.581 175.996 234.795 171.492 237.249C171.259 237.482 171.053 237.503 170.875 237.324C170.696 237.146 170.744 236.954 171.025 236.755Z" fill="#5074F4"/>
<path d="M185.253 219.975C186.799 220.922 188.076 222.251 188.961 223.834C189.158 224.124 189.295 224.451 189.364 224.794C189.433 225.138 189.433 225.492 189.363 225.835C189.294 226.179 189.156 226.505 188.959 226.795C188.762 227.085 188.508 227.332 188.214 227.522C187.028 228.468 185.849 228.208 184.855 227.221C183.614 225.939 182.456 224.568 181.256 223.238C182.229 221.736 183.333 220.345 185.253 219.975Z" fill="#4F74F5"/>
<path d="M196.11 233.633C194.93 234.832 193.758 236.039 192.572 237.225C191.386 238.411 189.83 238.946 188.493 237.609C187.156 236.272 187.506 234.75 188.706 233.496C189.659 232.481 190.762 231.624 191.818 230.699C194.149 230.356 195.253 231.816 196.11 233.633Z" fill="#4B71F4"/>
<path d="M185.251 219.975C184.113 221.298 183.126 222.806 181.254 223.238C179.801 221.12 175.16 219.406 178.663 216.431C181.823 213.75 183.359 218.076 185.251 219.975Z" fill="#4D5681"/>
<path d="M185.376 236.599C186.48 237.641 187.666 238.607 188.667 239.739C188.921 239.981 189.12 240.276 189.25 240.602C189.38 240.929 189.439 241.279 189.422 241.63C189.405 241.981 189.313 242.324 189.152 242.637C188.991 242.949 188.765 243.223 188.489 243.44C188.267 243.714 187.987 243.935 187.669 244.086C187.351 244.238 187.003 244.316 186.651 244.316C186.299 244.316 185.952 244.238 185.634 244.086C185.316 243.935 185.036 243.714 184.814 243.44C183.553 242.165 182.387 240.801 181.174 239.485C182.099 237.792 183.155 236.338 185.376 236.599Z" fill="#4C72F5"/>
<path d="M170.929 228.349C169.784 229.721 168.777 231.263 166.871 231.715C166 230.804 165.13 229.899 164.266 228.973C163.046 227.685 162.669 226.272 164.074 224.936C165.479 223.599 166.946 223.962 168.187 225.175C169.202 226.149 170.024 227.287 170.929 228.349Z" fill="#4A537F"/>
<path d="M164.973 247.713C162.121 249.372 160.558 248.399 159.996 245.307C161.226 243.324 162.862 241.623 164.795 240.316C165.609 240.679 166.323 241.232 166.878 241.929C167.433 242.625 167.812 243.446 167.983 244.32C167.907 246.267 166.255 246.808 164.973 247.713Z" fill="#4E73F6"/>
<path d="M185.375 236.601C183.881 237.41 182.962 239.069 181.173 239.446C179.63 237.465 175.387 235.84 178.472 232.899C181.557 229.958 183.003 234.325 184.984 235.874C185.183 236.025 185.252 236.354 185.375 236.601Z" fill="#47507C"/>
<path d="M167.787 244.38L164.818 240.315C166.587 238.601 167.835 235.982 171.029 236.757C171.023 236.821 171.031 236.885 171.052 236.946C171.073 237.007 171.107 237.062 171.151 237.109C171.195 237.156 171.249 237.193 171.308 237.217C171.367 237.241 171.431 237.253 171.496 237.251C171.866 237.758 172.236 238.272 172.613 238.779C172.069 239.753 171.53 240.726 170.995 241.7C170.467 243.249 169.59 244.367 167.787 244.38Z" fill="#454E7C"/>
<path d="M196.112 233.632C194.199 233.358 193.424 231.418 191.82 230.698C192.773 229.676 193.685 228.641 194.679 227.647C196.05 226.317 197.641 225.735 199.087 227.304C200.534 228.874 199.636 230.389 198.264 231.63C197.545 232.288 196.825 232.967 196.112 233.632Z" fill="#464F7A"/>
<path d="M179.787 251.893C179.472 253.771 179.335 255.608 181.09 256.959L180.151 257.918C178.211 258.282 177.409 256.623 176.216 255.69C175.489 254.772 174.413 253.997 174.886 252.564C176.511 252.475 178.176 252.736 179.685 251.968L179.787 251.893Z" fill="#DBE1F4"/>
<path d="M160.832 256.787C160.222 255.704 159.153 254.895 159.118 253.483C159.043 250.912 160.291 249.404 162.793 249.288C165.295 249.171 166.755 250.659 166.68 253.195C166.639 254.354 166.049 255.492 165.686 256.746C167.571 256.794 169.367 257.288 171.136 256.506C172.151 255.965 172.507 256.657 172.774 257.418C172.699 257.596 172.624 257.775 172.541 257.953C171.41 262.752 167.839 262.519 164.137 261.998C162.985 260.291 162.471 258.179 160.832 256.787Z" fill="#496CEA"/>
<path d="M167.783 244.378L170.985 241.697C173.357 244.508 173.809 247.867 173.624 251.357C173.212 251.667 172.694 251.804 172.182 251.739C171.67 251.674 171.204 251.411 170.882 251.007C170.882 250.369 172.754 250.164 171.335 249.231C169.459 247.968 167.189 247.428 164.945 247.709L167.783 244.378Z" fill="#CCD8FA"/>
<path d="M177.038 255.328L180.151 257.919C181.172 259.551 182.022 261.347 179.993 262.677C178.258 263.829 176.833 262.677 175.633 261.347C174.611 260.209 173.576 259.085 172.541 257.954L172.596 257.83C173.892 256.672 175.242 255.602 177.038 255.328Z" fill="#4B70F5"/>
<path d="M160.833 256.788C165.022 256.561 164.144 259.53 164.137 261.998L161.251 262.128C159.393 262.21 157.289 262.183 156.98 259.921C156.624 257.274 158.783 256.911 160.833 256.788Z" fill="#3E415E"/>
<path d="M177.039 255.324C175.73 256.462 174.894 258.45 172.597 257.826L171.13 256.496C169.217 254.748 168.621 252.938 170.911 251.012L173.653 251.354L174.921 252.575L177.039 255.324Z" fill="#454763"/>
<path d="M187.115 252.764C188.884 252.921 188.301 254.553 188.815 255.506C187.561 256.28 186.245 255.835 184.346 256.143L187.115 252.764Z" fill="#D1DCFB"/>
<path d="M330.765 274.125C332.993 269.882 338.408 257.398 341.445 231.731C345.339 198.825 327.604 177.224 323.279 165.549C318.953 153.874 332.794 129.215 312.899 104.988C293.005 80.7613 259.695 81.1931 241.089 90.7153C222.483 100.237 198.681 110.178 179.664 92.011C160.648 73.8441 147.321 65.1789 116.691 61.4221C84.6141 57.494 33.5893 77.8751 37.209 121.153C40.7738 163.808 10.6922 158.173 2.31489 198.853C-7.6186 247.06 17.4654 270.032 20.187 274.125H330.765Z" fill="#D6F5FF"/>
<path d="M272.919 192.859H30.5527V275.83H272.919V192.859Z" fill="#65BFCE"/>
<path d="M277.22 275.833H272.277V192.862H31.1996V275.833H26.25V187.912H277.22V275.833Z" fill="#91D3E2"/>
<path d="M274.741 230.125H28.7207V235.068H274.741V230.125Z" fill="#91D3E2"/>
<path d="M109.685 190.387H104.742V274.126H109.685V190.387Z" fill="#91D3E2"/>
<path d="M198.722 190.387H193.779V274.126H198.722V190.387Z" fill="#91D3E2"/>
<path d="M45.2115 275.598C45.2115 275.598 20.484 221.776 29.7594 204.466C39.0347 187.157 77.9804 191.482 86.6593 207.558C95.3383 223.634 108.281 275.598 108.281 275.598H45.2115Z" fill="#0055AA"/>
<path d="M86.6352 207.556C85.2444 205.087 83.3418 202.943 81.0549 201.269C73.843 198.356 59.289 194.202 50.2398 203.251C40.2104 213.28 60.9617 257.833 71.4916 275.562H108.305C108.305 275.562 95.2936 223.625 86.6352 207.556Z" fill="#1A78C6"/>
<path d="M307.366 275.599C307.366 275.599 332.1 221.812 322.825 204.502C313.549 187.192 274.597 191.517 265.925 207.593C257.253 223.669 244.303 275.599 244.303 275.599H307.366Z" fill="#1A78C6"/>
<path d="M274.946 199.026C270.963 201.281 267.776 204.154 265.938 207.561C257.287 223.63 244.303 275.567 244.303 275.567H285.058C293.579 257.201 310.128 218.55 304.253 207.06C300.051 198.854 286.539 198.032 274.946 199.026Z" fill="#0055AA"/>
<path d="M182.449 244.023C182.449 244.023 187.295 245.079 189.825 245.079C192.355 245.079 199.594 241.24 201.006 242.652C202.418 244.064 195.522 245.922 196.989 247.396C198.456 248.87 210.7 249.398 209.528 250.556C208.355 251.715 201.52 251.187 201.52 251.187C201.52 251.187 210.055 252.03 210.055 253.196C210.055 254.361 201.623 253.614 201.623 253.614C201.623 253.614 209.068 254.683 208.054 255.67C207.039 256.657 201.006 255.67 201.006 255.67C201.006 255.67 206.34 256.459 204.996 257.802C204.578 258.221 196.249 257.905 192.56 256.219C188.872 254.532 187.261 252.64 186.589 252.64C185.917 252.64 178.863 251.372 178.863 251.372L182.449 244.023Z" fill="#B56167"/>
<path d="M135.516 183.978C135.516 183.978 141.357 222.999 149.529 228.449C157.7 233.899 183.806 241.296 183.806 241.296C183.806 241.296 185.362 250.634 179.137 255.693C179.137 255.693 149.549 249.852 139.04 242.455C128.531 235.058 116.074 190.292 117.631 185.624C119.187 180.955 135.516 183.978 135.516 183.978Z" fill="#F0EDF2"/>
<path d="M142.426 176.524C142.304 176.524 142.182 176.512 142.062 176.49L142.302 175.359C142.604 175.378 142.905 175.325 143.183 175.206C143.46 175.087 143.706 174.905 143.9 174.673C145.593 172.994 147.931 167.208 144.53 147.252L145.668 147.053C149.007 166.611 146.957 173.336 144.647 175.53C144.065 176.14 143.268 176.497 142.426 176.524Z" fill="#39657D"/>
<path d="M156.744 151.291C157.162 146.679 157.162 142.04 156.744 137.429C155.88 128.407 146.289 126.289 146.289 126.289C146.289 126.289 129.706 118.748 122.734 132.939C115.762 147.129 122.104 156.809 121.596 160.038C121.089 163.267 117.627 172.227 117.627 172.227L132.531 180.035C132.531 180.035 133.854 174.14 134.265 171.521C134.676 168.902 137.693 168.333 137.693 168.333C143.177 170.424 149.347 171.85 153.618 164.179C154.597 162.253 155.308 160.203 155.729 158.084C156.545 158.036 158.232 157.858 158.828 157.255C159.424 156.652 157.58 152.888 156.744 151.291Z" fill="#F4B3BD"/>
<path d="M154.12 160.425L149.396 159.088C149.396 159.088 149.575 163.544 151.049 163.544C152.523 163.544 154.12 160.425 154.12 160.425Z" fill="white"/>
<path d="M153.251 150.095C154.088 150.095 154.766 149.416 154.766 148.58C154.766 147.743 154.088 147.064 153.251 147.064C152.415 147.064 151.736 147.743 151.736 148.58C151.736 149.416 152.415 150.095 153.251 150.095Z" fill="#39657D"/>
<path d="M149.369 145.247C151.516 144.887 153.708 144.887 155.854 145.247C155.854 145.247 156.485 142.697 153.942 142.697C151.398 142.697 149.369 145.247 149.369 145.247Z" fill="#39657D"/>
<path d="M157.856 123.108C159.382 122.826 160.958 123.116 162.284 123.921C163.61 124.726 164.593 125.991 165.047 127.475C165.775 129.666 166.009 131.99 165.733 134.282C164.787 140.336 158.301 141.762 153.098 140.61C150.239 139.848 147.578 138.477 145.297 136.593C145.297 136.593 145.406 142.646 142.26 144.942C139.113 147.239 140.299 150.057 138.887 149.837C137.475 149.618 139.668 143.914 136.042 142.927C132.415 141.94 131.538 148.562 133.93 150.653L133.115 153.251C133.115 153.251 129.55 158.448 125.389 158.626C121.227 158.804 119.157 156.802 116.689 148.569C114.221 140.336 113.385 130.868 117.882 124.575C122.379 118.282 127.939 120.777 128.096 119.776C128.254 118.775 134.047 113.414 142.308 117.651C147.408 120.222 152.063 124.095 157.856 123.108Z" fill="#0055AA"/>
<g style="mix-blend-mode:multiply" opacity="0.5">
<path d="M132.186 160.064C130.534 162.053 134.311 171.52 134.311 171.52C134.722 168.894 137.739 168.332 137.739 168.332C137.739 168.332 130.815 163.047 132.186 160.064Z" fill="#F7BFC5"/>
</g>
<g style="mix-blend-mode:multiply" opacity="0.5">
<path d="M165.646 134.735C153.992 139.253 140.473 131.753 138.299 129.299C137.847 133.001 137.765 136.47 133.199 141.289C125.768 148.796 118.94 144.819 115.039 141.035C115.401 143.587 115.954 146.107 116.691 148.576C119.125 156.803 121.223 158.805 125.384 158.633C129.545 158.462 133.11 153.258 133.11 153.258L133.926 150.66C131.533 148.569 132.459 141.954 136.037 142.934C139.616 143.915 137.47 149.625 138.882 149.845C140.294 150.064 139.108 147.246 142.255 144.95C145.402 142.653 145.292 136.6 145.292 136.6C147.573 138.485 150.234 139.855 153.093 140.617C158.166 141.735 164.446 140.405 165.646 134.735Z" fill="#0055AA"/>
</g>
<path d="M169.203 236.306C167.752 236.302 166.305 236.151 164.885 235.853C144.956 231.74 141.891 181.922 141.61 176.376C135.441 174.203 134.755 150.003 134.721 147.186H135.879C136.037 154.727 137.497 174.607 142.262 175.375L142.728 175.457V175.923C142.728 176.472 145.319 230.684 165.097 234.743C179.528 237.698 187.802 224.96 195.096 213.724C197.839 209.494 200.43 205.498 203.103 202.831C212.701 193.233 218.706 193.083 218.96 193.083V194.241C218.905 194.241 213.126 194.44 203.912 203.647C201.321 206.238 198.764 210.18 196.056 214.348C189.681 224.227 181.845 236.306 169.203 236.306Z" fill="#39657D"/>
<path d="M136.713 147.172C136.713 147.443 136.632 147.708 136.482 147.934C136.331 148.159 136.117 148.335 135.866 148.439C135.616 148.542 135.34 148.57 135.074 148.517C134.808 148.464 134.564 148.333 134.372 148.141C134.181 147.95 134.05 147.705 133.997 147.439C133.944 147.173 133.971 146.898 134.075 146.647C134.179 146.397 134.355 146.183 134.58 146.032C134.806 145.881 135.071 145.801 135.342 145.801C135.705 145.801 136.054 145.945 136.311 146.202C136.568 146.459 136.713 146.808 136.713 147.172Z" fill="white"/>
<path d="M114.936 170.877C114.936 170.877 129.14 174.408 139.259 188.811C147.821 200.993 147.985 275.47 147.985 275.47L85.3887 275.793C85.3887 275.793 91.3803 258.654 93.9374 242.345C96.7275 224.61 97.18 197.264 101.732 186.384C108.67 169.808 114.936 170.877 114.936 170.877Z" fill="white"/>
<path d="M124.527 264.221C118.261 264.79 111.714 259.1 111.427 263.652C111.276 266.106 109.966 271.124 109.548 275.669L147.986 275.47C147.986 275.47 147.123 202.687 138.567 190.504C135.078 185.548 125.261 181.092 121.655 178.967C112.88 180.859 110.789 180.646 107.156 187.344C107.156 187.344 104.023 192.76 115.128 209.837C126.234 226.914 139.328 237.176 142.18 242.297C145.032 247.418 144.175 255.967 138.478 257.379C132.781 258.791 115.416 239.726 116.541 245.142C117.665 250.558 130.814 263.652 124.527 264.221Z" fill="#F0EDF2"/>
<path d="M114.934 170.876C119.971 174.373 124.093 179.031 126.951 184.456C131.62 193.409 129.693 194.191 129.693 194.191L139.037 196.933L131.236 201.56L147.277 248.109C147.277 248.109 146.023 206.62 142.52 195.322C139.017 184.024 119.163 166.529 119.163 166.529L114.934 170.876Z" fill="#F0EDF2"/>
<path d="M176.93 257.945C176.93 257.945 175.703 257.766 178.048 261.695C180.392 265.623 183.203 267.385 184.046 266.959C184.889 266.534 186.569 264.032 185.061 260.94C183.553 257.849 176.93 257.945 176.93 257.945Z" fill="#F86D6D"/>
<path d="M185.503 265.135C184.093 265.803 182.72 266.547 181.39 267.363C180.807 267.87 179.601 270.215 176.091 272.162C173.033 273.876 170.552 275.795 169.722 274.822C168.892 273.848 172.142 271.949 173.081 271.141C173.696 270.522 174.114 269.735 174.281 268.878C172.714 268.82 171.148 269.007 169.64 269.434C167.042 270.119 164.155 274.452 163.065 274.02C161.434 273.334 165.986 268.391 165.986 268.391C165.986 268.391 161.338 273.067 160.618 272.231C159.898 271.394 164.594 266.438 164.594 266.438C166.111 264.999 167.858 263.824 169.763 262.962C172.382 261.947 175.446 261.776 178.812 260.816C182.178 259.856 186.511 255.373 186.511 255.373C186.511 255.373 193.12 259.527 191.79 261.406C191.138 262.331 185.503 265.135 185.503 265.135Z" fill="#DF9296"/>
<path d="M228.757 181.68C228.757 181.68 218.727 184.915 214.586 200.422C210.446 215.929 208.033 231.361 204.468 236.132C200.903 240.904 176.93 257.912 176.93 257.912C179.239 258.735 181.308 260.121 182.949 261.943C185.458 264.863 184.046 266.927 184.046 266.927C184.046 266.927 212.365 255.8 218.686 243.584C225.007 231.368 229.572 196.391 230.08 189.618C230.587 182.845 228.757 181.68 228.757 181.68Z" fill="#F75454"/>
<g style="mix-blend-mode:multiply">
<path d="M218.686 243.614C223.402 234.496 227.145 212.696 228.969 199.41C226.103 199.452 223.246 199.732 220.427 200.247C220.427 200.247 220.077 228.169 216.088 236.71C212.722 243.916 190.188 258.038 183.182 262.281C185.341 265.023 184.039 266.957 184.039 266.957C184.039 266.957 212.393 255.83 218.686 243.614Z" fill="#F86D6D"/>
</g>
<path d="M237.462 177.87C237.462 177.87 240.601 176.355 241.575 175.361C242.548 174.367 242.116 162.109 242.116 162.109H257.712C257.712 162.109 256.341 174.072 257.712 175.457C258.084 175.856 258.534 176.175 259.034 176.393C259.534 176.611 260.074 176.724 260.619 176.725C260.619 176.725 263.663 185.637 253.222 189.483C242.781 193.329 235.508 186.741 235.508 182.552C235.508 178.364 237.462 177.87 237.462 177.87Z" fill="#F7BFC5"/>
<g style="mix-blend-mode:multiply" opacity="0.5">
<path d="M257.694 162.481C257.694 162.255 257.728 162.125 257.728 162.125H242.132C242.132 162.125 242.42 169.954 242.029 173.608C246.876 172.888 255.39 170.523 257.694 162.481Z" fill="#F7BFC5"/>
</g>
<path d="M237.461 177.869C237.461 177.869 233.348 187.049 245.893 187.988C258.439 188.927 260.633 176.725 260.633 176.725C260.633 176.725 272.76 177.821 277.456 188.187C282.152 198.552 276.03 275.833 276.03 275.833H208.799C208.799 275.833 218.691 250.516 218.684 235.174C218.677 219.831 219.74 195.035 223.284 185.815C224.566 182.497 237.461 177.869 237.461 177.869Z" fill="#F86D6D"/>
<g style="mix-blend-mode:multiply">
<path d="M265.378 201.3V229.873C265.378 240.615 252.085 243.022 253.134 246.552C254.183 250.083 261.162 252.29 259.695 256.876C258.228 261.463 242.049 261.593 242.049 270.724C242.091 272.512 242.562 274.263 243.42 275.832H276.038C276.038 275.832 280.295 222.072 278.986 198.215C274.496 196.871 269.806 197.563 265.378 201.3Z" fill="#F86D6D"/>
</g>
<path d="M238.335 177.459C238.335 177.459 236.511 176.396 234.996 178.83C233.481 181.264 232.418 188.99 243.188 190.203C253.958 191.417 258.956 185.96 260.032 183.985C261.108 182.011 262.459 178.501 262.15 177.13C261.842 175.759 259.408 176.403 259.408 176.403C259.408 176.403 260.135 187.276 246.63 187.427C233.124 187.578 238.335 177.459 238.335 177.459Z" fill="white"/>
<path d="M243.873 251.995C243.873 251.995 237.018 252.797 232.788 252.276C228.558 251.755 227.687 251.426 222.272 253.188C216.856 254.95 207.025 261.14 209.123 262.066C211.221 262.991 217.61 258.693 217.61 258.693C217.61 258.693 210.227 263.862 210.988 264.863C211.749 265.863 219.331 260.914 219.331 260.914C219.331 260.914 213.675 266.398 215.416 266.624C217.157 266.851 221.812 262.326 221.812 262.326C221.812 262.326 217.596 266.892 219.228 267.125C220.859 267.358 224.575 263.252 224.575 263.252C224.575 263.252 230.128 263.053 231.965 261.62C233.802 260.187 235.071 259.563 236.373 259.755C237.676 259.947 246.142 260.502 246.142 260.502L243.873 251.995Z" fill="#DF9296"/>
<path d="M269.649 179.752C269.649 179.752 279.246 183.241 284.457 199.598C289.763 216.195 292.683 250.939 286.925 257.184C281.166 263.429 241.336 263.518 241.336 263.518C241.336 263.518 239.465 256.423 239.238 251.179C239.238 251.179 272.083 246.483 273.831 244.584C275.579 242.685 264.432 203.41 264.034 194.073C263.869 191.421 264.286 188.765 265.256 186.291C266.226 183.817 267.725 181.585 269.649 179.752Z" fill="#F86D6D"/>
<g style="mix-blend-mode:multiply">
<path d="M275.078 183.531C275.153 183.895 275.235 184.265 275.345 184.662C275.345 184.662 283.435 222.902 284.6 236.709C285.765 250.515 284.298 254.608 271.033 256.877C261.518 258.502 247.375 258.372 240.143 258.166C240.718 261.162 241.335 263.513 241.335 263.513C241.335 263.513 281.2 263.424 286.924 257.179C292.648 250.934 289.762 216.197 284.456 199.593C281.837 191.408 278.128 186.479 275.078 183.531Z" fill="#F86D6D"/>
</g>
<path d="M239.238 251.467C239.169 251.466 239.103 251.442 239.051 251.398C238.998 251.355 238.963 251.294 238.95 251.227C238.943 251.189 238.944 251.151 238.952 251.114C238.961 251.076 238.977 251.041 238.999 251.011C239.022 250.98 239.05 250.954 239.083 250.935C239.116 250.915 239.152 250.903 239.19 250.898C239.471 250.85 267.208 246.195 273.378 244.549C275.058 244.121 276.818 244.112 278.503 244.524C280.188 244.937 281.745 245.758 283.037 246.915C282.28 245.413 281.069 244.19 279.575 243.418C278.732 242.959 278.362 242.596 278.389 242.232C278.401 242.119 278.448 242.012 278.523 241.927C278.597 241.841 278.697 241.78 278.807 241.752C279.856 241.362 283.202 242.02 284.518 243.336C284.545 243.363 284.567 243.395 284.582 243.43C284.597 243.466 284.604 243.503 284.604 243.542C284.604 243.58 284.597 243.618 284.582 243.653C284.567 243.689 284.545 243.721 284.518 243.747C284.463 243.801 284.389 243.831 284.312 243.831C284.235 243.831 284.162 243.801 284.106 243.747C282.852 242.486 279.548 241.992 278.985 242.294C279.231 242.553 279.524 242.763 279.849 242.911C283.407 244.831 284.011 247.826 284.031 247.95C284.042 248.012 284.033 248.076 284.004 248.132C283.975 248.188 283.929 248.233 283.872 248.26C283.815 248.287 283.751 248.295 283.69 248.282C283.628 248.27 283.572 248.237 283.531 248.19C283.489 248.142 279.527 243.514 273.529 245.112C267.359 246.764 239.567 251.419 239.286 251.467H239.238Z" fill="#F86D6D"/>
<path d="M266.791 209.629C266.729 209.628 266.668 209.607 266.618 209.571C266.568 209.534 266.53 209.482 266.51 209.423C261.362 192.024 264.762 186.704 264.906 186.492C264.927 186.459 264.954 186.431 264.986 186.41C265.017 186.388 265.053 186.373 265.091 186.365C265.128 186.357 265.167 186.357 265.205 186.365C265.243 186.373 265.279 186.388 265.31 186.409C265.373 186.454 265.416 186.521 265.43 186.596C265.444 186.672 265.428 186.75 265.386 186.814C265.351 186.862 262.02 192.195 267.065 209.259C267.087 209.331 267.079 209.409 267.043 209.476C267.007 209.543 266.946 209.593 266.873 209.615L266.791 209.629Z" fill="#F86D6D"/>
<path d="M230.217 133.85C230.217 133.85 225.219 150.523 230.971 164.172C234.398 172.241 240.815 170.952 246.8 169.3C253.374 167.49 261.128 161.567 264.775 151.421C268.422 141.275 268.723 130.046 257.234 125.24C245.744 120.434 232.959 126.481 230.217 133.85Z" fill="#F7BFC5"/>
<path d="M234.007 151.569C234.019 151.853 233.946 152.134 233.798 152.376C233.65 152.619 233.433 152.812 233.175 152.931C232.917 153.05 232.63 153.09 232.349 153.045C232.068 153 231.808 152.872 231.599 152.679C231.391 152.485 231.246 152.234 231.181 151.958C231.116 151.681 231.134 151.391 231.234 151.125C231.334 150.859 231.511 150.629 231.743 150.464C231.974 150.299 232.249 150.206 232.533 150.198C232.909 150.188 233.274 150.327 233.549 150.583C233.825 150.839 233.989 151.193 234.007 151.569Z" fill="#482320"/>
<path d="M228.805 148.576C230.825 148.171 232.899 148.106 234.94 148.384C234.94 148.384 235.468 145.944 233.055 146.019C230.642 146.095 228.805 148.576 228.805 148.576Z" fill="#482320"/>
<path d="M242.557 151.896C242.566 152.182 242.659 152.459 242.826 152.691C242.992 152.924 243.224 153.101 243.491 153.202C243.759 153.302 244.05 153.32 244.328 153.255C244.606 153.189 244.859 153.042 245.053 152.832C245.247 152.622 245.374 152.359 245.419 152.077C245.463 151.795 245.422 151.505 245.302 151.246C245.181 150.987 244.986 150.77 244.742 150.622C244.497 150.474 244.214 150.402 243.929 150.416C243.551 150.432 243.195 150.596 242.938 150.874C242.681 151.151 242.544 151.519 242.557 151.896Z" fill="#482320"/>
<path d="M247.546 148.589C245.504 148.309 243.43 148.374 241.41 148.781C241.41 148.781 240.724 146.382 243.144 146.306C245.564 146.231 247.546 148.589 247.546 148.589Z" fill="#482320"/>
<path d="M234.678 157.689C236.249 158.114 237.905 158.114 239.477 157.689C238.69 158.43 237.643 158.832 236.563 158.807C234.705 158.814 234.678 157.689 234.678 157.689Z" fill="#B56167"/>
<path d="M235.172 161.068L242.028 160.732C242.028 160.732 239.388 165.086 237.064 163.996C234.74 162.906 235.172 161.068 235.172 161.068Z" fill="white"/>
<path d="M251.551 136.312C248.507 137.908 245.131 138.769 241.695 138.826C238.258 138.883 234.855 138.135 231.76 136.641C230.773 137.211 229.955 138.034 229.39 139.024C228.825 140.014 228.533 141.136 228.545 142.276C228.545 145.402 222.58 137.648 224.472 130.395C226.364 123.142 245.114 118.488 251.764 119.427C258.414 120.366 259.257 124.061 260.422 126.049C260.422 126.049 265.687 126.563 267.209 132.843C268.58 138.574 268.861 149.769 262.815 158.119C262.633 158.374 262.38 158.57 262.088 158.681C261.796 158.792 261.477 158.815 261.171 158.745C260.866 158.675 260.589 158.517 260.373 158.289C260.158 158.062 260.015 157.776 259.963 157.467C259.853 156.713 259.805 153.999 260.278 154.088C262.76 154.574 266.215 148.603 264.069 146.225C261.046 142.865 258.585 147.054 258.585 149.762C258.585 152.47 256.083 147.342 255.843 144.524C255.603 141.707 252.155 141.378 251.551 136.312Z" fill="#482320"/>
<path d="M227.425 185.219H224.621V202.063H227.425C230.53 202.063 233.04 198.292 233.04 193.637C233.04 188.982 230.53 185.219 227.425 185.219Z" fill="#E4DFE8"/>
<path d="M224.622 202.058C227.723 202.058 230.237 198.286 230.237 193.632C230.237 188.979 227.723 185.207 224.622 185.207C221.522 185.207 219.008 188.979 219.008 193.632C219.008 198.286 221.522 202.058 224.622 202.058Z" fill="#B1A9B9"/>
<path d="M223.464 188.088H219.762V199.187H223.464C225.52 199.187 227.159 196.698 227.159 193.634C227.159 190.57 225.507 188.088 223.464 188.088Z" fill="#E4DFE8"/>
<path d="M219.762 199.18C221.807 199.18 223.464 196.697 223.464 193.634C223.464 190.571 221.807 188.088 219.762 188.088C217.718 188.088 216.061 190.571 216.061 193.634C216.061 196.697 217.718 199.18 219.762 199.18Z" fill="#B1A9B9"/>
<path d="M195.02 202.472C195.02 202.472 200.867 201.609 203.424 199.449C205.981 197.29 209.519 191.223 212.659 190.009C215.798 188.796 223.867 185.492 224.059 187.061C224.251 188.631 217.382 191.785 217.382 191.785C217.382 191.785 226.027 189.043 225.608 190.996C225.19 192.95 217.546 194.925 217.546 194.925C217.546 194.925 226.39 195.123 224.621 196.501C222.853 197.879 217.766 197.482 217.766 197.482C217.766 197.482 224.251 199.052 222.681 199.84C221.111 200.628 217.375 200.039 217.375 200.039C217.375 200.039 212.062 206.133 205.974 205.934L197.913 210.26L195.02 202.472Z" fill="#B56167"/>
<path d="M108.113 183.269C107.42 184.636 107.059 186.148 107.059 187.681C107.059 189.214 107.42 190.725 108.113 192.092C112.823 201.786 134.527 227.74 147.223 228.837C158.192 229.79 200.942 214.043 200.942 214.043C200.942 214.043 202.101 203.143 196.267 201.587L149.945 210.931C149.945 210.931 128.693 184.243 124.292 179.821C120.686 176.242 111.527 176.839 108.113 183.269Z" fill="white"/>
<path d="M195.022 210.786C191.1 212.891 150.749 221.392 147.28 224.861C145.388 226.76 146.019 228.035 146.979 228.809H147.198C158.167 229.762 200.917 214.015 200.917 214.015C200.917 214.015 201.658 207.043 198.963 203.451C198.682 205.549 197.798 209.292 195.022 210.786Z" fill="#F0EDF2"/>
<path d="M61.2184 240.268H59.1618V235.47C59.1654 234.845 58.9214 234.245 58.4832 233.8C58.045 233.356 57.4483 233.103 56.8241 233.098H44.1004C43.4755 233.099 42.8768 233.348 42.4349 233.79C41.993 234.232 41.744 234.831 41.7422 235.456V240.255H39.6856V235.456C39.6846 234.876 39.7982 234.301 40.0198 233.765C40.2413 233.229 40.5665 232.742 40.9766 232.332C41.3868 231.922 41.8738 231.597 42.4099 231.375C42.9459 231.154 43.5204 231.04 44.1004 231.041H56.8241C57.9902 231.043 59.1079 231.507 59.9318 232.333C60.7557 233.158 61.2184 234.276 61.2184 235.442V240.268Z" fill="#B1A9B9"/>
<path d="M66.1962 239.113H21.8965V271.43H66.1962V239.113Z" fill="white"/>
<path d="M66.1847 271.424H79.2031V239.107H66.1847V271.424Z" fill="#B1A9B9"/>
<path d="M44.0432 266.002C49.9685 266.002 54.7719 261.199 54.7719 255.274C54.7719 249.348 49.9685 244.545 44.0432 244.545C38.1179 244.545 33.3145 249.348 33.3145 255.274C33.3145 261.199 38.1179 266.002 44.0432 266.002Z" fill="#75DECB"/>
<path d="M47.6153 248.033H40.7188V262.512H47.6153V248.033Z" fill="white"/>
<path d="M51.4062 258.717V251.82H36.9276V258.717H51.4062Z" fill="white"/>
<path d="M87.9166 223.326H90.8919C92.3155 223.326 93.6808 223.892 94.6875 224.898C95.6941 225.905 96.2597 227.27 96.2597 228.694V271.417H82.5488V228.701C82.5488 227.996 82.6877 227.298 82.9574 226.647C83.2272 225.995 83.6226 225.404 84.121 224.905C84.6195 224.407 85.2112 224.011 85.8625 223.742C86.5137 223.472 87.2117 223.333 87.9166 223.333V223.326Z" fill="#B1A9B9"/>
<path d="M90.4264 223.326H93.4016C94.8253 223.326 96.1906 223.892 97.1972 224.898C98.2039 225.905 98.7694 227.27 98.7694 228.694V271.417H85.0586V228.701C85.0577 227.995 85.1959 227.297 85.4652 226.645C85.7346 225.993 86.1298 225.4 86.6284 224.901C87.1269 224.402 87.7189 224.006 88.3706 223.735C89.0223 223.465 89.7209 223.326 90.4264 223.326Z" fill="#E4DFE8"/>
<path d="M94.7182 227.314H89.4121V271.422H94.7182V227.314Z" fill="white"/>
<path d="M90.6805 228.201H90.3926V271.425H90.6805V228.201Z" fill="#39657D"/>
<path d="M93.4516 229.154H91.2441V229.442H93.4516V229.154Z" fill="#39657D"/>
<path d="M92.5741 229.941H91.2441V230.229H92.5741V229.941Z" fill="#39657D"/>
<path d="M92.5741 230.729H91.2441V231.016H92.5741V230.729Z" fill="#39657D"/>
<path d="M92.5741 231.525H91.2441V231.813H92.5741V231.525Z" fill="#39657D"/>
<path d="M92.5741 232.316H91.2441V232.604H92.5741V232.316Z" fill="#39657D"/>
<path d="M93.4516 233.125H91.2441V233.413H93.4516V233.125Z" fill="#39657D"/>
<path d="M92.5741 233.918H91.2441V234.206H92.5741V233.918Z" fill="#39657D"/>
<path d="M92.5741 234.709H91.2441V234.997H92.5741V234.709Z" fill="#39657D"/>
<path d="M92.5741 235.494H91.2441V235.782H92.5741V235.494Z" fill="#39657D"/>
<path d="M92.5741 236.293H91.2441V236.581H92.5741V236.293Z" fill="#39657D"/>
<path d="M93.4516 237.102H91.2441V237.389H93.4516V237.102Z" fill="#39657D"/>
<path d="M92.5741 237.896H91.2441V238.184H92.5741V237.896Z" fill="#39657D"/>
<path d="M92.5741 238.682H91.2441V238.97H92.5741V238.682Z" fill="#39657D"/>
<path d="M92.5741 239.469H91.2441V239.757H92.5741V239.469Z" fill="#39657D"/>
<path d="M92.5741 240.266H91.2441V240.554H92.5741V240.266Z" fill="#39657D"/>
<path d="M93.4516 241.072H91.2441V241.36H93.4516V241.072Z" fill="#39657D"/>
<path d="M92.5741 241.869H91.2441V242.157H92.5741V241.869Z" fill="#39657D"/>
<path d="M92.5741 242.66H91.2441V242.948H92.5741V242.66Z" fill="#39657D"/>
<path d="M92.5741 243.445H91.2441V243.733H92.5741V243.445Z" fill="#39657D"/>
<path d="M92.5741 244.24H91.2441V244.528H92.5741V244.24Z" fill="#39657D"/>
<path d="M93.4516 245.053H91.2441V245.341H93.4516V245.053Z" fill="#39657D"/>
<path d="M92.5741 245.844H91.2441V246.132H92.5741V245.844Z" fill="#39657D"/>
<path d="M92.5741 246.633H91.2441V246.921H92.5741V246.633Z" fill="#39657D"/>
<path d="M92.5741 247.424H91.2441V247.712H92.5741V247.424Z" fill="#39657D"/>
<path d="M92.5741 248.209H91.2441V248.497H92.5741V248.209Z" fill="#39657D"/>
<path d="M93.4516 249.025H91.2441V249.313H93.4516V249.025Z" fill="#39657D"/>
<path d="M92.5741 249.812H91.2441V250.1H92.5741V249.812Z" fill="#39657D"/>
<path d="M92.5741 250.609H91.2441V250.897H92.5741V250.609Z" fill="#39657D"/>
<path d="M92.5741 251.4H91.2441V251.688H92.5741V251.4Z" fill="#39657D"/>
<path d="M92.5741 252.188H91.2441V252.475H92.5741V252.188Z" fill="#39657D"/>
<path d="M93.4516 253.004H91.2441V253.292H93.4516V253.004Z" fill="#39657D"/>
<path d="M92.5741 253.789H91.2441V254.077H92.5741V253.789Z" fill="#39657D"/>
<path d="M92.5741 254.588H91.2441V254.876H92.5741V254.588Z" fill="#39657D"/>
<path d="M92.5741 255.373H91.2441V255.661H92.5741V255.373Z" fill="#39657D"/>
<path d="M92.5741 256.164H91.2441V256.452H92.5741V256.164Z" fill="#39657D"/>
<path d="M93.4516 256.977H91.2441V257.264H93.4516V256.977Z" fill="#39657D"/>
<path d="M92.5741 257.768H91.2441V258.056H92.5741V257.768Z" fill="#39657D"/>
<path d="M92.5741 258.553H91.2441V258.841H92.5741V258.553Z" fill="#39657D"/>
<path d="M92.5741 259.352H91.2441V259.639H92.5741V259.352Z" fill="#39657D"/>
<path d="M92.5741 260.141H91.2441V260.429H92.5741V260.141Z" fill="#39657D"/>
<path d="M93.4516 260.955H91.2441V261.243H93.4516V260.955Z" fill="#39657D"/>
<path d="M92.5741 261.744H91.2441V262.032H92.5741V261.744Z" fill="#39657D"/>
<path d="M92.5741 262.531H91.2441V262.819H92.5741V262.531Z" fill="#39657D"/>
<path d="M92.5741 263.328H91.2441V263.616H92.5741V263.328Z" fill="#39657D"/>
<path d="M92.5741 264.115H91.2441V264.403H92.5741V264.115Z" fill="#39657D"/>
<path d="M93.4516 264.928H91.2441V265.216H93.4516V264.928Z" fill="#39657D"/>
<path d="M92.5741 265.719H91.2441V266.007H92.5741V265.719Z" fill="#39657D"/>
<path d="M92.5741 266.508H91.2441V266.796H92.5741V266.508Z" fill="#39657D"/>
<path d="M92.5741 267.299H91.2441V267.587H92.5741V267.299Z" fill="#39657D"/>
<path d="M92.5741 268.092H91.2441V268.38H92.5741V268.092Z" fill="#39657D"/>
<path d="M121.309 266.004H82.5488V271.42H121.309V266.004Z" fill="#0055AA"/>
<path d="M113.597 266.004H82.5488V271.42H113.597V266.004Z" fill="#1A78C6"/>
<path d="M337.045 271.424H9.75336C8.62423 271.469 7.55623 271.949 6.77316 272.763C5.99009 273.578 5.55273 274.664 5.55273 275.794C5.55273 276.924 5.99009 278.01 6.77316 278.825C7.55623 279.64 8.62423 280.12 9.75336 280.164H337.045C338.174 280.12 339.242 279.64 340.025 278.825C340.808 278.01 341.245 276.924 341.245 275.794C341.245 274.664 340.808 273.578 340.025 272.763C339.242 271.949 338.174 271.469 337.045 271.424Z" fill="#F95D5D"/>
<path d="M95.5409 112.131H49.8633V174.597H95.5409V112.131Z" fill="#FFB0C9"/>
<path d="M92.841 115.822H52.5586V170.912H92.841V115.822Z" fill="white"/>
<path d="M79.3983 113.355C79.1703 113.322 78.9523 113.239 78.7596 113.112C78.5668 112.986 78.4038 112.819 78.2819 112.624C78.1599 112.428 78.082 112.208 78.0534 111.979C78.0248 111.751 78.0463 111.518 78.1163 111.299C78.1878 111.061 78.2027 110.81 78.1601 110.565C78.1174 110.32 78.0182 110.089 77.8705 109.889C77.7227 109.69 77.5305 109.527 77.309 109.415C77.0875 109.303 76.8428 109.243 76.5944 109.242H68.7793C68.5309 109.243 68.2862 109.303 68.0647 109.415C67.8432 109.527 67.651 109.69 67.5032 109.889C67.3555 110.089 67.2563 110.32 67.2137 110.565C67.171 110.81 67.1859 111.061 67.2574 111.299C67.3274 111.518 67.3489 111.751 67.3203 111.979C67.2918 112.208 67.2138 112.428 67.0919 112.624C66.9699 112.819 66.8069 112.986 66.6141 113.112C66.4214 113.239 66.2034 113.322 65.9754 113.355L62.9453 113.815V116.948H82.401V113.815L79.3983 113.355Z" fill="#F86D6D"/>
<path d="M66.6422 122.203H57.1406V131.705H66.6422V122.203Z" fill="#75DECB"/>
<path d="M57.9531 125.151H59.2008L61.8881 128.222L66.1522 122.902L61.8881 129.408L57.9531 125.151Z" fill="white"/>
<path d="M88.2618 123.471H68.2988V123.813H88.2618V123.471Z" fill="#091143"/>
<path d="M68.2988 127.133V126.783H88.2618V127.133" fill="#091143"/>
<path d="M88.2618 130.094H68.2988V130.437H88.2618V130.094Z" fill="#091143"/>
<path d="M66.6422 133.926H57.1406V143.427H66.6422V133.926Z" fill="#75DECB"/>
<path d="M57.9531 136.873H59.2008L61.8881 139.944L66.1522 134.617L61.8881 141.13L57.9531 136.873Z" fill="white"/>
<path d="M88.2618 135.193H68.2988V135.536H88.2618V135.193Z" fill="#091143"/>
<path d="M88.2618 138.506V138.855H68.2988V138.506" fill="#091143"/>
<path d="M88.2618 141.814H68.2988V142.157H88.2618V141.814Z" fill="#091143"/>
<path d="M66.6422 145.652H57.1406V155.154H66.6422V145.652Z" fill="#75DECB"/>
<path d="M57.9531 148.593H59.2008L61.8881 151.658L66.1522 146.338L61.8881 152.851L57.9531 148.593Z" fill="white"/>
<path d="M88.2618 146.918H68.2988V147.261H88.2618V146.918Z" fill="#091143"/>
<path d="M88.2618 150.229V150.571H68.2988V150.229" fill="#091143"/>
<path d="M88.2618 153.541H68.2988V153.884H88.2618V153.541Z" fill="#091143"/>
<path d="M66.6422 157.373H57.1406V166.875H66.6422V157.373Z" fill="#75DECB"/>
<path d="M57.9531 160.32H59.2008L61.8881 163.384L66.1522 158.064L61.8881 164.577L57.9531 160.32Z" fill="white"/>
<path d="M88.2618 158.637H68.2988V158.979H88.2618V158.637Z" fill="#091143"/>
<path d="M88.2618 161.949V162.292H68.2988V161.949" fill="#091143"/>
<path d="M88.2618 165.26H68.2988V165.603H88.2618V165.26Z" fill="#091143"/>
<path d="M291.675 101.363C291.101 100.196 290.274 99.1708 289.255 98.3623C288.236 97.5538 287.05 96.9821 285.783 96.6888C284.516 96.3954 283.199 96.3877 281.928 96.6662C280.658 96.9447 279.465 97.5024 278.437 98.2989L277.463 99.053L276.49 98.2989C275.462 97.5024 274.27 96.9447 273 96.6663C271.729 96.3878 270.413 96.3956 269.147 96.689C267.88 96.9823 266.694 97.554 265.676 98.3625C264.658 99.171 263.832 100.196 263.259 101.363C262.53 102.853 262.238 104.518 262.416 106.167C262.595 107.816 263.236 109.38 264.267 110.68L277.463 122.128L290.667 110.68C291.697 109.38 292.339 107.816 292.517 106.167C292.695 104.518 292.403 102.853 291.675 101.363Z" fill="#F86D6D"/>
<path d="M282.125 116.242C282.032 116.242 281.941 116.211 281.866 116.154C281.792 116.097 281.738 116.017 281.714 115.927L278.362 102.566L274.249 113.863C274.216 113.95 274.157 114.025 274.079 114.075C274.001 114.126 273.909 114.15 273.817 114.144C273.725 114.136 273.639 114.098 273.571 114.036C273.503 113.974 273.457 113.892 273.44 113.802L271.74 104.965L269.916 109.448C269.884 109.525 269.829 109.591 269.76 109.638C269.69 109.684 269.609 109.709 269.525 109.709H256.267C256.211 109.71 256.156 109.7 256.105 109.679C256.053 109.659 256.006 109.628 255.967 109.589C255.927 109.55 255.896 109.504 255.874 109.452C255.853 109.401 255.842 109.346 255.842 109.291C255.842 109.178 255.887 109.07 255.966 108.99C256.046 108.911 256.154 108.866 256.267 108.866H269.23L271.486 103.327C271.519 103.241 271.579 103.169 271.657 103.121C271.736 103.074 271.827 103.053 271.918 103.062C272.009 103.072 272.095 103.111 272.162 103.173C272.228 103.236 272.273 103.319 272.288 103.409L273.968 112.143L278.026 100.982C278.057 100.897 278.114 100.825 278.19 100.776C278.265 100.726 278.354 100.702 278.444 100.708C278.534 100.711 278.62 100.744 278.689 100.801C278.758 100.858 278.807 100.936 278.828 101.023L282.112 114.096L284.587 104.307C284.608 104.216 284.66 104.134 284.733 104.076C284.806 104.017 284.897 103.985 284.991 103.985C285.084 103.985 285.174 104.016 285.247 104.073C285.321 104.13 285.373 104.21 285.395 104.3L286.623 108.866H298.633C298.746 108.866 298.854 108.911 298.934 108.99C299.014 109.07 299.058 109.178 299.058 109.291C299.058 109.346 299.047 109.401 299.026 109.452C299.004 109.504 298.973 109.55 298.933 109.589C298.894 109.628 298.847 109.659 298.795 109.679C298.744 109.7 298.689 109.71 298.633 109.709H286.294C286.201 109.71 286.111 109.681 286.038 109.625C285.965 109.569 285.912 109.49 285.889 109.4L284.998 106.076L282.502 115.927C282.482 116.013 282.434 116.09 282.366 116.147C282.298 116.204 282.214 116.237 282.125 116.242Z" fill="white"/>
<path d="M308.018 158.954C309.769 151.447 305.103 143.941 297.596 142.19C290.089 140.439 282.584 145.105 280.833 152.612C279.082 160.119 283.748 167.625 291.255 169.376C298.762 171.127 306.267 166.461 308.018 158.954Z" fill="#75DECB"/>
<path d="M299.078 146.373H290.111V165.205H299.078V146.373Z" fill="white"/>
<path d="M304.008 160.275V151.309H285.176V160.275H304.008Z" fill="white"/>
<path d="M128.725 93.7249C130.155 84.8281 124.102 76.4566 115.205 75.0268C106.308 73.597 97.9367 79.6502 96.5069 88.5471C95.0771 97.4439 101.13 105.815 110.027 107.245C118.924 108.675 127.295 102.622 128.725 93.7249Z" fill="#75DECB"/>
<path d="M108.986 77.9492C107.781 77.951 106.627 78.4307 105.776 79.2829C104.925 80.1351 104.447 81.2901 104.447 82.4944V88.9864H113.531V82.4944C113.531 81.2889 113.052 80.1328 112.199 79.2805C111.347 78.4281 110.191 77.9492 108.986 77.9492Z" fill="#F86D6D"/>
<path d="M108.986 100.019C107.782 100.019 106.628 99.5405 105.777 98.6894C104.925 97.8383 104.447 96.684 104.447 95.4804V88.9883H113.531V95.4804C113.531 96.0769 113.413 96.6676 113.185 97.2187C112.956 97.7697 112.621 98.2703 112.199 98.6918C111.777 99.1133 111.276 99.4475 110.724 99.6752C110.173 99.9028 109.582 100.02 108.986 100.019Z" fill="white"/>
<path d="M122.676 87.6427C122.264 87.2123 121.771 86.8674 121.225 86.6277C120.679 86.3879 120.092 86.2579 119.496 86.2452C118.9 86.2324 118.308 86.3372 117.752 86.5534C117.197 86.7697 116.69 87.0932 116.259 87.5056L111.57 92.0027L117.85 98.5565L122.539 94.0662C123.408 93.2323 123.911 92.0873 123.937 90.8828C123.963 89.6783 123.509 88.5129 122.676 87.6427Z" fill="#F86D6D"/>
<path d="M106.744 102.907C106.332 102.477 106.008 101.969 105.792 101.414C105.575 100.859 105.471 100.266 105.483 99.6702C105.496 99.0744 105.626 98.4869 105.866 97.9413C106.106 97.3957 106.451 96.9026 106.881 96.4903L111.57 92L117.85 98.5538L113.167 103.044C112.297 103.877 111.132 104.331 109.927 104.305C108.723 104.279 107.578 103.776 106.744 102.907Z" fill="white"/>
<path d="M194.458 147.319C203.231 147.319 210.342 140.207 210.342 131.435C210.342 122.662 203.231 115.551 194.458 115.551C185.686 115.551 178.574 122.662 178.574 131.435C178.574 140.207 185.686 147.319 194.458 147.319Z" fill="#FFB0C9"/>
<path d="M212.611 113.069L201.418 124.262L201.626 124.47L212.819 113.277L212.611 113.069Z" fill="#75DECB"/>
<path d="M185.407 147.899L177.99 140.482L176.105 142.368L183.521 149.785L185.407 147.899Z" fill="white"/>
<path d="M203.808 124.231L201.65 122.074L180.617 143.108L182.774 145.265L203.808 124.231Z" fill="#B1A9B9"/>
<path d="M203.279 127.205L198.693 122.619L184.534 136.779L189.12 141.364L203.279 127.205Z" fill="white"/>
<path d="M189.76 140.719L185.174 136.133L184.534 136.773L189.12 141.358L189.76 140.719Z" fill="#B1A9B9"/>
<path d="M190.534 142.778L183.117 135.361L181.232 137.247L188.648 144.664L190.534 142.778Z" fill="white"/>
<path d="M198.545 124.162L198.312 124.395L200.087 126.169L200.319 125.936L198.545 124.162Z" fill="#39657D"/>
<path d="M197.912 124.806L197.68 125.039L198.751 126.11L198.984 125.878L197.912 124.806Z" fill="#39657D"/>
<path d="M197.274 125.437L197.041 125.67L198.112 126.741L198.345 126.509L197.274 125.437Z" fill="#39657D"/>
<path d="M196.641 126.074L196.408 126.307L197.48 127.378L197.712 127.145L196.641 126.074Z" fill="#39657D"/>
<path d="M196.006 126.697L195.773 126.93L196.845 128.001L197.077 127.768L196.006 126.697Z" fill="#39657D"/>
<path d="M195.35 127.357L195.117 127.59L196.891 129.364L197.124 129.131L195.35 127.357Z" fill="#39657D"/>
<path d="M194.719 127.998L194.486 128.23L195.558 129.302L195.79 129.069L194.719 127.998Z" fill="#39657D"/>
<path d="M194.078 128.633L193.846 128.865L194.917 129.937L195.15 129.704L194.078 128.633Z" fill="#39657D"/>
<path d="M193.438 129.273L193.205 129.506L194.276 130.577L194.509 130.344L193.438 129.273Z" fill="#39657D"/>
<path d="M192.811 129.902L192.578 130.135L193.649 131.206L193.882 130.973L192.811 129.902Z" fill="#39657D"/>
<path d="M192.155 130.556L191.922 130.789L193.696 132.563L193.929 132.331L192.155 130.556Z" fill="#39657D"/>
<path d="M191.524 131.185L191.291 131.418L192.362 132.489L192.595 132.257L191.524 131.185Z" fill="#39657D"/>
<path d="M190.889 131.826L190.656 132.059L191.728 133.13L191.96 132.897L190.889 131.826Z" fill="#39657D"/>
<path d="M190.25 132.476L190.018 132.709L191.089 133.78L191.322 133.548L190.25 132.476Z" fill="#39657D"/>
<path d="M189.612 133.101L189.379 133.334L190.45 134.405L190.683 134.173L189.612 133.101Z" fill="#39657D"/>
<path d="M188.961 133.746L188.729 133.979L190.503 135.753L190.735 135.52L188.961 133.746Z" fill="#39657D"/>
<path d="M188.324 134.388L188.092 134.621L189.163 135.692L189.396 135.46L188.324 134.388Z" fill="#39657D"/>
<path d="M187.694 135.029L187.461 135.262L188.532 136.333L188.765 136.1L187.694 135.029Z" fill="#39657D"/>
<path d="M187.055 135.654L186.822 135.887L187.894 136.958L188.126 136.725L187.055 135.654Z" fill="#39657D"/>
<path d="M186.418 136.293L186.186 136.525L187.257 137.597L187.49 137.364L186.418 136.293Z" fill="#39657D"/>
</svg>
