<svg width="297" height="291" viewBox="0 0 297 291" fill="none" xmlns="http://www.w3.org/2000/svg">
<g clip-path="url(#clip0_1140_25156)">
<path d="M243.201 237.13C237.552 243.065 232.208 246.892 227.984 249.916C178.346 285.46 119.611 275.099 107.129 272.569C88.6951 268.831 53.0693 261.61 27.3038 231.377C-11.6719 185.637 -5.59776 113.573 24.6302 66.0053C30.1597 57.3033 59.3682 9.00978 118.736 1.26462C154.664 -3.42228 196.545 6.03134 226.875 31.3905C290.539 84.6246 286.006 192.16 243.201 237.13Z" fill="url(#paint0_linear_1140_25156)"/>
<path d="M86.8676 173.416C86.8676 173.416 87.7646 135.799 70.4037 125.729C53.0428 115.659 20.0329 109.361 18.7958 55.3515C18.0719 23.7283 17.2874 9.903 16.7619 3.87439C16.7134 3.32664 16.7925 2.77512 16.9933 2.26304C17.1941 1.75096 17.511 1.29225 17.9192 0.922878C18.3273 0.553503 18.8157 0.283499 19.3459 0.134039C19.8762 -0.0154219 20.4339 -0.0402774 20.9754 0.0614184C37.4181 3.152 90.8279 15.876 102.03 52.2599C115.306 95.3957 86.8676 173.416 86.8676 173.416Z" fill="#91B3FA"/>
<path opacity="0.28" d="M33.6911 15.0924C51.7394 31.1565 72.6092 59.5871 83.7329 88.0187C85.1614 92.7046 89.3383 102.668 91.1515 120.373C92.7712 135.138 91.9614 150.742 90.0024 161.069C89.9729 161.225 89.913 161.373 89.8262 161.505C89.7393 161.637 89.6272 161.751 89.4962 161.84C89.3653 161.929 89.218 161.991 89.0629 162.023C88.9078 162.055 88.7479 162.057 88.5922 162.027C87.4675 161.815 87.6173 160.606 87.6275 160.645C89.8708 142.999 88.9435 121.04 83.7987 101.218C77.2316 76.8839 62.5838 53.2918 47.4329 33.2823L45.8738 31.3121C34.1366 16.2734 31.6654 16.1572 32.7628 15.1085C32.8874 14.9903 33.0519 14.923 33.2238 14.92C33.3957 14.917 33.5625 14.9785 33.6911 15.0924Z" fill="white"/>
<path d="M114.768 245.741C117.118 246.891 92.5316 216.037 84.8306 167.576C81.2013 144.743 81.1537 116.13 68.1197 105.105C57.2712 95.9287 20.3577 101.722 8.27928 103.923C7.94087 103.985 7.6269 104.141 7.37411 104.373C7.12132 104.606 6.94015 104.906 6.8518 105.238C6.76344 105.569 6.77156 105.919 6.87519 106.247C6.97883 106.574 7.17369 106.865 7.437 107.086C13.2287 111.94 25.6199 123.391 28.8483 134.932C33.1002 150.144 47.5941 159.819 60.5675 162.437C73.5408 165.056 80.7559 167.596 87.076 188.302C93.3962 209.007 108.095 242.474 114.768 245.741Z" fill="#BDD0FB"/>
<path opacity="0.28" d="M25.2655 110.35C40.6756 110.994 57.2175 118.01 65.611 131.169L66.4036 132.425C68.233 135.369 78.6045 156.3 84.3638 173.646C84.381 173.698 84.3877 173.752 84.3838 173.806C84.3799 173.86 84.3654 173.913 84.341 173.961C84.3167 174.01 84.283 174.053 84.2419 174.088C84.2008 174.124 84.1532 174.151 84.1016 174.168C84 174.199 83.8902 174.191 83.7942 174.146C83.6982 174.1 83.6232 174.019 83.5843 173.92C79.5713 164.12 73.807 151.693 69.217 142.398C64.2939 132.259 60.8488 125.394 49.6208 118.821C37.1222 111.737 25.1825 111.007 25.2179 111.015C25.1321 111.007 25.0531 110.965 24.9976 110.899C24.9422 110.833 24.9146 110.748 24.9208 110.662C24.927 110.576 24.9664 110.496 25.0308 110.439C25.0951 110.381 25.1793 110.351 25.2655 110.355V110.35Z" fill="white"/>
<path d="M71.3302 50.4406C71.3302 45.8586 73.1541 41.4642 76.4006 38.2243C79.6471 34.9843 84.0503 33.1641 88.6415 33.1641H235.821C239.731 33.1642 243.492 34.6637 246.327 37.3525C249.161 40.0414 250.852 43.7141 251.05 47.6117L261.914 260.577C261.991 262.08 261.764 263.582 261.247 264.996C260.73 266.409 259.933 267.704 258.905 268.804C257.876 269.904 256.637 270.786 255.26 271.398C253.882 272.011 252.396 272.34 250.889 272.368L82.1938 275.427C80.776 275.453 79.3673 275.197 78.0499 274.673C76.7325 274.149 75.5329 273.369 74.5211 272.378C73.5093 271.386 72.7057 270.203 72.1571 268.898C71.6085 267.593 71.3261 266.192 71.3262 264.777L71.3302 50.4406Z" fill="#003056"/>
<path d="M106.853 271.806L87.978 271.563C81.6659 271.481 76.5312 266.29 76.5312 259.99V231.549C76.5312 231.441 76.5739 231.339 76.6498 231.263C76.7258 231.187 76.8288 231.145 76.9362 231.145C77.0436 231.145 77.1466 231.187 77.2225 231.263C77.2985 231.339 77.3411 231.441 77.3411 231.549V259.99C77.3411 265.85 82.1184 270.682 87.9921 270.758L106.868 271.002C106.975 271.002 107.078 271.044 107.154 271.12C107.23 271.196 107.272 271.299 107.272 271.406C107.272 271.513 107.23 271.616 107.154 271.692C107.078 271.768 106.975 271.81 106.868 271.81L106.853 271.806Z" fill="#91B3FA"/>
<path d="M76.9284 223.142C76.821 223.142 76.718 223.099 76.642 223.023C76.5661 222.948 76.5234 222.845 76.5234 222.738V218.137C76.5234 218.029 76.5661 217.927 76.642 217.851C76.718 217.775 76.821 217.732 76.9284 217.732C77.0358 217.732 77.1388 217.775 77.2147 217.851C77.2907 217.927 77.3333 218.029 77.3333 218.137V222.743C77.332 222.849 77.2887 222.95 77.2129 223.025C77.1371 223.1 77.0349 223.142 76.9284 223.142Z" fill="#91B3FA"/>
<path d="M83.3888 36.4449C83.3843 35.7264 83.5345 35.0153 83.8291 34.3597C84.1238 33.7041 84.556 33.1193 85.0966 32.6448C85.6373 32.1703 86.2737 31.8171 86.9629 31.6092C87.652 31.4013 88.3779 31.3435 89.0914 31.4397C109.191 34.1605 178.308 42.5735 235.454 38.1958C236.072 38.1472 236.694 38.2225 237.283 38.4174C237.871 38.6122 238.415 38.9227 238.881 39.3305C239.348 39.7382 239.728 40.235 239.999 40.7917C240.271 41.3483 240.428 41.9534 240.461 42.5715L251.853 256.486C251.928 257.894 251.442 259.276 250.5 260.328C249.559 261.38 248.238 262.018 246.827 262.101C222.792 263.521 123.811 269.008 88.5062 265.317C87.4686 265.208 86.5078 264.72 85.808 263.948C85.1082 263.175 84.7187 262.172 84.7139 261.131L83.3888 36.4449Z" fill="#005BA1"/>
<path d="M85.7579 41.8043C85.7535 41.1129 85.898 40.4286 86.1815 39.7977C86.4651 39.1668 86.8811 38.604 87.4014 38.1475C87.9217 37.6909 88.5343 37.3512 89.1975 37.1514C89.8608 36.9515 90.5593 36.8962 91.2459 36.9891C110.588 39.6109 177.106 47.7036 232.097 43.4895C232.692 43.443 233.29 43.5157 233.857 43.7033C234.423 43.891 234.946 44.1898 235.395 44.5821C235.844 44.9745 236.21 45.4525 236.471 45.9881C236.732 46.5236 236.883 47.1059 236.915 47.7006L247.878 253.56C247.95 254.916 247.482 256.245 246.576 257.258C245.67 258.27 244.399 258.884 243.041 258.964C219.911 260.33 124.658 265.611 90.681 262.059C89.6834 261.952 88.7602 261.483 88.0878 260.739C87.4155 259.996 87.0412 259.031 87.0365 258.03L85.7579 41.8043Z" fill="#BDD0FB"/>
<g opacity="0.6">
<path d="M226.042 61.5181C226.101 61.5184 226.16 61.5067 226.215 61.4837C226.27 61.4607 226.32 61.4269 226.361 61.3842C226.403 61.3416 226.435 61.291 226.457 61.2355C226.478 61.1801 226.488 61.1209 226.486 61.0614L226.426 59.0145C226.421 58.8917 226.37 58.7754 226.282 58.689C226.195 58.6026 226.078 58.5525 225.955 58.5488L170.339 57.5597C170.286 57.5553 170.234 57.5645 170.186 57.5866C170.138 57.6086 170.097 57.6426 170.067 57.6852C170.036 57.7279 170.017 57.7778 170.011 57.83C170.006 57.8822 170.014 57.9349 170.035 57.983L171.131 61.0867C171.18 61.2087 171.264 61.314 171.372 61.3903C171.479 61.4667 171.606 61.511 171.738 61.5181H226.042Z" fill="white"/>
</g>
<g opacity="0.6">
<path d="M170.339 65.7882C170.286 65.7838 170.234 65.7931 170.186 65.8151C170.138 65.8371 170.097 65.8711 170.067 65.9138C170.036 65.9564 170.017 66.0063 170.011 66.0585C170.006 66.1107 170.014 66.1634 170.035 66.2115L171.132 69.3152C171.181 69.4372 171.265 69.5425 171.373 69.6189C171.48 69.6952 171.607 69.7395 171.739 69.7466H226.042C226.101 69.7468 226.16 69.735 226.215 69.7119C226.27 69.6887 226.32 69.6548 226.361 69.6121C226.403 69.5693 226.435 69.5187 226.457 69.4632C226.478 69.4077 226.488 69.3484 226.486 69.2889L226.426 67.243C226.422 67.1202 226.37 67.0038 226.283 66.9173C226.195 66.8308 226.078 66.7808 225.955 66.7773L170.339 65.7882Z" fill="white"/>
</g>
<g opacity="0.6">
<path d="M170.339 74.1358C170.286 74.1314 170.234 74.1407 170.186 74.1627C170.138 74.1847 170.097 74.2187 170.067 74.2614C170.036 74.3041 170.017 74.354 170.011 74.4062C170.006 74.4583 170.014 74.5111 170.035 74.5592L171.131 77.6629C171.18 77.7848 171.264 77.89 171.372 77.9664C171.479 78.0427 171.606 78.0871 171.738 78.0943H226.041C226.1 78.0945 226.159 78.0826 226.214 78.0595C226.269 78.0364 226.319 78.0024 226.36 77.9597C226.402 77.917 226.434 77.8664 226.456 77.8108C226.477 77.7553 226.487 77.6961 226.485 77.6366L226.425 75.5907C226.421 75.4678 226.369 75.3514 226.282 75.2649C226.194 75.1785 226.077 75.1284 225.954 75.1249L170.339 74.1358Z" fill="white"/>
</g>
<g opacity="0.6">
<path d="M231.199 118.347C231.258 118.348 231.316 118.336 231.371 118.313C231.425 118.29 231.474 118.256 231.514 118.213C231.554 118.17 231.585 118.119 231.605 118.064C231.624 118.008 231.632 117.949 231.627 117.891L231.491 115.843C231.48 115.72 231.425 115.605 231.335 115.521C231.245 115.436 231.127 115.387 231.003 115.383L104.108 114.385C103.856 114.385 103.778 114.542 103.935 114.738L106.528 117.99C106.623 118.095 106.737 118.181 106.865 118.242C106.992 118.304 107.131 118.339 107.272 118.347H231.199Z" fill="white"/>
</g>
<g opacity="0.6">
<path d="M104.108 127.373C103.856 127.373 103.778 127.531 103.935 127.728L106.528 130.978C106.623 131.083 106.737 131.169 106.865 131.231C106.992 131.292 107.131 131.328 107.272 131.336H231.199C231.258 131.336 231.316 131.325 231.371 131.302C231.425 131.279 231.474 131.244 231.514 131.202C231.554 131.159 231.585 131.108 231.605 131.052C231.624 130.997 231.632 130.938 231.627 130.879L231.491 128.831C231.48 128.708 231.425 128.593 231.335 128.509C231.245 128.424 231.127 128.375 231.003 128.371L104.108 127.373Z" fill="white"/>
</g>
<g opacity="0.6">
<path d="M104.635 143.66C104.383 143.66 104.305 143.817 104.462 144.014L107.056 147.265C107.15 147.37 107.264 147.456 107.392 147.518C107.52 147.579 107.658 147.615 107.8 147.623H231.726C231.785 147.623 231.844 147.612 231.898 147.589C231.952 147.566 232.001 147.532 232.041 147.489C232.082 147.446 232.112 147.395 232.132 147.339C232.151 147.284 232.159 147.225 232.154 147.166L232.019 145.118C232.009 144.995 231.954 144.879 231.863 144.794C231.773 144.709 231.654 144.661 231.53 144.658L104.635 143.66Z" fill="white"/>
</g>
<path d="M120.862 178.732H120.833L110.337 178.631C108.837 178.616 107.603 177.587 107.457 176.236L106.535 167.446C106.509 167.189 106.535 166.929 106.613 166.682C106.691 166.435 106.818 166.207 106.987 166.01C107.188 165.778 107.434 165.588 107.709 165.453C107.985 165.317 108.285 165.237 108.592 165.219C109.477 165.159 110.718 165.053 112.04 164.94C114.816 164.705 118.271 164.411 120.216 164.387C121.626 164.38 122.822 165.213 123.152 166.439C123.699 168.459 123.65 172.275 123.547 176.34C123.515 177.664 122.313 178.732 120.862 178.732ZM108.648 166.023C108.449 166.034 108.254 166.084 108.075 166.171C107.896 166.257 107.736 166.379 107.604 166.529C107.505 166.642 107.43 166.775 107.384 166.918C107.338 167.062 107.322 167.213 107.336 167.363L108.259 176.153C108.361 177.098 109.255 177.817 110.345 177.828L120.841 177.929H120.862C121.874 177.929 122.721 177.214 122.744 176.327C122.845 172.32 122.895 168.565 122.377 166.652C122.145 165.794 121.251 165.198 120.226 165.194C118.311 165.218 114.872 165.51 112.109 165.746C110.787 165.858 109.539 165.964 108.648 166.024V166.023Z" fill="white"/>
<path opacity="0.6" d="M109.776 166.93C111.981 166.779 116.773 166.293 119.046 166.266C120.009 166.254 120.854 166.834 121.08 167.667C121.519 169.284 121.46 172.517 121.383 175.491C121.36 176.382 120.54 177.094 119.538 177.085L111.149 177.005C110.118 176.994 109.261 176.292 109.166 175.379L108.428 168.355C108.353 167.629 108.959 166.985 109.776 166.93Z" fill="white"/>
<g opacity="0.6">
<path d="M130.08 172.895C130.228 173.454 130.558 173.948 131.018 174.299C131.479 174.65 132.043 174.838 132.622 174.833L229.736 174.007C230.251 173.994 230.741 173.781 231.1 173.412C231.459 173.044 231.66 172.55 231.659 172.036C231.658 171.522 231.455 171.029 231.095 170.662C230.734 170.295 230.243 170.084 229.728 170.073L132.612 169.631C132.212 169.629 131.817 169.719 131.458 169.894C131.099 170.069 130.784 170.324 130.54 170.64C130.295 170.956 130.126 171.323 130.046 171.714C129.967 172.105 129.978 172.509 130.08 172.895Z" fill="white"/>
</g>
<path d="M120.862 201.182H120.833L110.337 201.081C108.837 201.065 107.603 200.036 107.457 198.685L106.535 189.895C106.509 189.638 106.535 189.378 106.613 189.131C106.691 188.884 106.818 188.656 106.987 188.46C107.188 188.227 107.434 188.038 107.709 187.902C107.985 187.766 108.285 187.687 108.592 187.668C109.477 187.608 110.718 187.502 112.04 187.391C114.816 187.154 118.271 186.861 120.216 186.836H120.258C121.639 186.836 122.826 187.675 123.155 188.888C123.702 190.909 123.653 194.725 123.55 198.789C123.515 200.117 122.313 201.182 120.862 201.182ZM108.648 188.473C108.449 188.483 108.254 188.533 108.075 188.62C107.896 188.707 107.736 188.828 107.604 188.978C107.505 189.092 107.43 189.224 107.384 189.368C107.338 189.511 107.322 189.662 107.336 189.812L108.259 198.602C108.361 199.547 109.255 200.266 110.345 200.277L120.841 200.378H120.862C121.874 200.378 122.721 199.663 122.744 198.776C122.845 194.769 122.895 191.015 122.377 189.101C122.144 188.244 121.238 187.628 120.225 187.644C118.311 187.667 114.872 187.959 112.109 188.195C110.787 188.307 109.539 188.413 108.648 188.474V188.473Z" fill="white"/>
<path opacity="0.6" d="M109.776 189.379C111.981 189.228 116.773 188.743 119.046 188.715C120.009 188.703 120.854 189.284 121.08 190.117C121.519 191.734 121.46 194.967 121.383 197.94C121.36 198.832 120.54 199.544 119.538 199.535L111.149 199.454C110.118 199.444 109.261 198.747 109.166 197.828L108.428 190.804C108.353 190.078 108.959 189.434 109.776 189.379Z" fill="white"/>
<g opacity="0.6">
<path d="M130.08 195.344C130.228 195.903 130.558 196.397 131.018 196.748C131.479 197.099 132.043 197.287 132.622 197.282L229.736 196.456C230.251 196.443 230.741 196.23 231.1 195.862C231.459 195.493 231.66 194.999 231.659 194.485C231.658 193.971 231.455 193.478 231.095 193.111C230.734 192.744 230.243 192.533 229.728 192.523L132.612 192.08C132.212 192.078 131.817 192.169 131.458 192.344C131.099 192.518 130.784 192.774 130.54 193.089C130.295 193.405 130.126 193.772 130.046 194.163C129.967 194.554 129.978 194.959 130.08 195.344Z" fill="white"/>
</g>
<path d="M120.862 223.632H120.833L110.337 223.531C108.837 223.517 107.603 222.487 107.457 221.136L106.535 212.346C106.509 212.089 106.535 211.829 106.613 211.582C106.691 211.335 106.818 211.106 106.987 210.91C107.188 210.677 107.433 210.488 107.709 210.352C107.985 210.216 108.285 210.137 108.592 210.119C109.477 210.058 110.718 209.952 112.04 209.841C114.816 209.604 118.271 209.311 120.216 209.287H120.258C121.639 209.287 122.826 210.127 123.155 211.339C123.702 213.36 123.653 217.176 123.55 221.24C123.515 222.567 122.313 223.632 120.862 223.632ZM108.648 210.923C108.449 210.933 108.254 210.983 108.075 211.07C107.896 211.157 107.736 211.278 107.604 211.428C107.505 211.542 107.43 211.675 107.384 211.818C107.338 211.962 107.322 212.113 107.336 212.264L108.259 221.053C108.36 221.997 109.255 222.717 110.345 222.727L120.841 222.829H120.862C121.874 222.829 122.721 222.113 122.744 221.226C122.845 217.219 122.895 213.465 122.377 211.551C122.144 210.695 121.238 210.075 120.225 210.094C118.311 210.118 114.872 210.411 112.109 210.645C110.787 210.757 109.539 210.863 108.648 210.924V210.923Z" fill="white"/>
<path opacity="0.6" d="M109.776 211.83C111.981 211.679 116.773 211.194 119.046 211.166C120.009 211.154 120.854 211.735 121.08 212.569C121.519 214.185 121.46 217.418 121.383 220.391C121.36 221.284 120.54 221.995 119.538 221.986L111.149 221.905C110.118 221.896 109.261 221.198 109.166 220.279L108.428 213.256C108.353 212.529 108.959 211.887 109.776 211.83Z" fill="white"/>
<g opacity="0.6">
<path d="M130.08 217.796C130.228 218.355 130.558 218.849 131.018 219.2C131.478 219.551 132.043 219.739 132.622 219.733L229.736 218.907C230.251 218.894 230.741 218.681 231.1 218.313C231.459 217.944 231.66 217.45 231.659 216.936C231.658 216.422 231.455 215.929 231.095 215.562C230.734 215.196 230.243 214.984 229.728 214.974L132.612 214.531C132.212 214.53 131.817 214.62 131.458 214.795C131.099 214.97 130.784 215.225 130.54 215.54C130.295 215.856 130.126 216.223 130.046 216.615C129.967 217.006 129.978 217.41 130.08 217.796Z" fill="white"/>
</g>
<path d="M120.862 246.083H120.833L110.337 245.982C108.837 245.968 107.603 244.938 107.457 243.587L106.535 234.798C106.509 234.54 106.535 234.28 106.613 234.033C106.691 233.786 106.818 233.557 106.987 233.361C107.188 233.129 107.434 232.939 107.709 232.803C107.985 232.668 108.285 232.588 108.592 232.57C109.477 232.51 110.718 232.404 112.04 232.292C114.816 232.056 118.271 231.763 120.216 231.738H120.258C121.639 231.738 122.826 232.578 123.155 233.79C123.702 235.811 123.653 239.627 123.55 243.691C123.515 245.017 122.313 246.083 120.862 246.083ZM108.648 233.374C108.449 233.384 108.254 233.434 108.075 233.521C107.896 233.608 107.736 233.73 107.604 233.879C107.505 233.993 107.43 234.126 107.384 234.269C107.338 234.413 107.322 234.565 107.336 234.715L108.259 243.505C108.36 244.448 109.255 245.169 110.345 245.179L120.841 245.28H120.862C121.874 245.28 122.721 244.564 122.744 243.676C122.845 239.669 122.895 235.915 122.377 234.001C122.144 233.145 121.238 232.522 120.225 232.545C118.311 232.569 114.872 232.861 112.109 233.095C110.787 233.207 109.539 233.313 108.648 233.375V233.374Z" fill="white"/>
<path opacity="0.6" d="M109.776 234.28C111.981 234.13 116.773 233.644 119.046 233.615C120.009 233.603 120.854 234.184 121.08 235.018C121.519 236.634 121.46 239.867 121.383 242.841C121.36 243.733 120.54 244.445 119.538 244.435L111.149 244.355C110.118 244.345 109.261 243.643 109.166 242.729L108.428 235.706C108.353 234.979 108.959 234.336 109.776 234.28Z" fill="white"/>
<g opacity="0.6">
<path d="M130.081 240.247C130.229 240.805 130.559 241.299 131.02 241.649C131.48 241.999 132.044 242.187 132.623 242.182L229.737 241.355C230.252 241.343 230.742 241.129 231.101 240.761C231.46 240.393 231.661 239.899 231.66 239.385C231.659 238.871 231.456 238.377 231.095 238.011C230.735 237.644 230.244 237.433 229.729 237.422L132.613 236.981C132.213 236.979 131.818 237.069 131.458 237.244C131.098 237.419 130.784 237.674 130.539 237.99C130.294 238.306 130.125 238.674 130.046 239.065C129.967 239.456 129.979 239.861 130.081 240.247Z" fill="white"/>
</g>
<path d="M171.361 4.12911C166.045 0.438389 161.421 0.511132 158.168 1.46993C156.728 1.89755 155.482 2.81008 154.642 4.05198C153.801 5.29388 153.418 6.7883 153.557 8.28054L154.961 23.5678L171.664 25.0469C171.664 25.0469 181.788 11.3681 171.361 4.12911ZM164.017 16.4622C163.194 16.4622 162.389 16.2184 161.704 15.7618C161.019 15.3052 160.485 14.6562 160.17 13.8969C159.855 13.1376 159.773 12.3021 159.933 11.496C160.094 10.6899 160.491 9.94947 161.073 9.36832C161.655 8.78717 162.397 8.3914 163.205 8.23106C164.013 8.07072 164.85 8.15301 165.611 8.46753C166.371 8.78205 167.022 9.31467 167.479 9.99803C167.937 10.6814 168.181 11.4848 168.181 12.3067C168.181 12.8524 168.073 13.3927 167.864 13.8969C167.655 14.4011 167.348 14.8592 166.961 15.245C166.575 15.6309 166.116 15.937 165.611 16.1458C165.105 16.3547 164.564 16.4622 164.017 16.4622Z" fill="#003056"/>
<path d="M156.629 17.1377C156.528 17.1382 156.43 17.1009 156.355 17.0332C156.281 16.9656 156.234 16.8724 156.224 16.772L156 14.3371C155.99 14.2817 155.991 14.2248 156.004 14.1699C156.017 14.115 156.041 14.0634 156.075 14.0184C156.109 13.9734 156.152 13.936 156.201 13.9087C156.251 13.8813 156.305 13.8645 156.362 13.8594C156.418 13.8543 156.475 13.861 156.528 13.8791C156.582 13.8971 156.631 13.9262 156.672 13.9643C156.714 14.0024 156.747 14.0488 156.769 14.1005C156.792 14.1522 156.803 14.208 156.803 14.2644L157.026 16.6992C157.035 16.8052 157.002 16.9105 156.933 16.9922C156.865 17.0739 156.767 17.1254 156.661 17.1357L156.629 17.1377ZM156.191 12.366C156.09 12.3664 155.992 12.3293 155.917 12.2618C155.843 12.1944 155.796 12.1014 155.786 12.0012L155.616 10.1523C155.485 8.73108 155.852 7.30859 156.652 6.12616C157.453 4.94373 158.639 4.07419 160.009 3.66503C161.991 3.07767 164.089 2.99157 166.113 3.41447C166.209 3.44408 166.291 3.50834 166.342 3.59473C166.393 3.68113 166.41 3.78348 166.39 3.88184C166.37 3.9802 166.314 4.06753 166.232 4.12681C166.151 4.18609 166.051 4.21308 165.951 4.20252C164.056 3.80733 162.093 3.88752 160.237 4.43591C159.046 4.79236 158.015 5.54907 157.319 6.57772C156.623 7.60636 156.305 8.8436 156.418 10.0796L156.589 11.9275C156.598 12.0336 156.565 12.1391 156.497 12.2211C156.428 12.303 156.33 12.3547 156.224 12.3649L156.191 12.366Z" fill="#91B3FA"/>
<path d="M132.168 33.4494V25.7629C132.168 25.1335 132.295 24.5106 132.541 23.9312C132.787 23.3519 133.148 22.8279 133.601 22.3905C134.055 21.9531 134.592 21.6112 135.18 21.3852C135.769 21.1592 136.397 21.0537 137.027 21.0749L190.125 22.8935C191.263 22.9327 192.345 23.3937 193.159 24.1864C193.974 24.9792 194.464 26.0467 194.532 27.1803L194.976 34.5648L132.168 33.4494Z" fill="#003056"/>
<path d="M151.968 23.9704H149.684C149.577 23.9704 149.474 23.9278 149.398 23.852C149.322 23.7762 149.279 23.6734 149.279 23.5662C149.279 23.4591 149.322 23.3563 149.398 23.2805C149.474 23.2047 149.577 23.1621 149.684 23.1621H151.968C152.076 23.1621 152.179 23.2047 152.254 23.2805C152.33 23.3563 152.373 23.4591 152.373 23.5662C152.373 23.6734 152.33 23.7762 152.254 23.852C152.179 23.9278 152.076 23.9704 151.968 23.9704Z" fill="#91B3FA"/>
<path d="M135.042 31.0344C134.934 31.0344 134.831 30.9919 134.755 30.9161C134.679 30.8403 134.637 30.7375 134.637 30.6303V27.5225C134.638 26.3674 135.099 25.2599 135.917 24.4431C136.736 23.6264 137.846 23.1671 139.003 23.166H147.397C147.505 23.166 147.608 23.2086 147.684 23.2844C147.76 23.3602 147.802 23.463 147.802 23.5701C147.802 23.6773 147.76 23.7801 147.684 23.8559C147.608 23.9317 147.505 23.9743 147.397 23.9743H139.003C138.059 23.9751 137.154 24.3496 136.487 25.0156C135.819 25.6815 135.444 26.5846 135.443 27.5266V30.6364C135.441 30.7418 135.398 30.8424 135.323 30.9168C135.248 30.9912 135.147 31.0334 135.042 31.0344Z" fill="#91B3FA"/>
<path d="M110.532 35.3894C110.594 34.1078 111.147 32.8989 112.078 32.0136C113.008 31.1284 114.245 30.6346 115.53 30.6348H208.384C210.001 30.6347 211.566 31.2046 212.803 32.244C214.041 33.2834 214.87 34.7255 215.146 36.3158L215.224 36.7684C215.371 37.6131 215.33 38.4796 215.106 39.3071C214.882 40.1347 214.479 40.9033 213.926 41.5591C213.373 42.215 212.682 42.7422 211.904 43.1038C211.125 43.4655 210.276 43.6529 209.417 43.6528H114.154C113.636 43.6529 113.122 43.5478 112.645 43.344C112.169 43.1402 111.738 42.8418 111.38 42.4671C111.022 42.0923 110.744 41.649 110.563 41.1638C110.382 40.6787 110.302 40.1619 110.327 39.6448L110.532 35.3894Z" fill="#7D97F4"/>
<path d="M149.386 97.502C158.794 88.1131 158.794 72.8908 149.386 63.5019C139.978 54.113 124.725 54.113 115.317 63.5019C105.91 72.8908 105.91 88.1131 115.317 97.502C124.725 106.891 139.978 106.891 149.386 97.502Z" fill="#91B3FA"/>
<path d="M146.142 73.8609H138.138V66.9796C138.136 66.2043 137.827 65.4611 137.278 64.9128C136.729 64.3646 135.984 64.056 135.207 64.0547H129.335C128.558 64.0547 127.812 64.3627 127.261 64.9111C126.711 65.4595 126.401 66.2034 126.4 66.9796V73.8609H118.395C117.616 73.8609 116.869 74.1696 116.319 74.7191C115.768 75.2685 115.459 76.0138 115.459 76.7909V83.5944C115.459 84.3715 115.768 85.1167 116.319 85.6662C116.869 86.2156 117.616 86.5243 118.395 86.5243H126.4V93.4057C126.4 94.1827 126.709 94.928 127.259 95.4774C127.81 96.0269 128.557 96.3356 129.335 96.3356H135.207C135.985 96.3343 136.73 96.025 137.28 95.4757C137.829 94.9263 138.138 94.1818 138.138 93.4057V86.5243H146.142C146.92 86.523 147.666 86.2137 148.215 85.6644C148.765 85.1151 149.073 84.3706 149.073 83.5944V76.7909C149.073 76.0147 148.765 75.2702 148.215 74.7209C147.666 74.1715 146.92 73.8623 146.142 73.8609Z" fill="white"/>
<path d="M50.4104 107.465C50.4104 107.465 46.5858 109.322 45.8822 111.455C45.3183 113.166 41.0887 113.387 40.6706 116.753C40.4549 118.491 39.1662 119.885 37.431 120.148C33.1113 120.809 26.454 123.047 25.389 130.533C24.5792 136.246 27.4937 138.413 30.5521 139.162C32.8015 139.712 34.2978 141.897 33.8412 144.163C33.4049 146.337 34.0558 148.85 37.8299 150.837C46.2861 155.291 54.7362 140.287 54.7362 140.287L56.4674 114.09L50.4104 107.465Z" fill="#003056"/>
<path d="M96.426 101.254C96.426 101.254 79.541 127.908 59.4629 133.056C59.4629 133.056 63.3756 144.177 66.3945 145.45C66.3945 145.45 91.096 124.88 97.4455 105.037L96.426 101.254Z" fill="url(#paint1_linear_1140_25156)"/>
<path d="M15.6492 271.733L15.1015 276.222C15.0519 276.636 14.8641 277.021 14.5685 277.316C14.2728 277.61 13.8865 277.797 13.4716 277.846C12.029 278.009 9.71475 278.178 7.45011 277.94C7.21657 277.913 6.99185 277.835 6.79209 277.711C6.59233 277.588 6.42248 277.421 6.29473 277.224C6.16699 277.027 6.08451 276.805 6.05322 276.572C6.02194 276.34 6.04263 276.103 6.1138 275.88C6.66655 274.146 7.67587 271.544 9.13164 270.014H14.1226C14.3401 270.014 14.5552 270.06 14.7537 270.149C14.9521 270.238 15.1293 270.368 15.2736 270.531C15.4179 270.693 15.526 270.884 15.5907 271.092C15.6555 271.299 15.6754 271.518 15.6492 271.733Z" fill="#003056"/>
<path d="M54.7361 219.137L55.5783 224.087C55.5783 224.087 52.7579 252.597 52.2558 264.004C52.1787 265.792 52.6407 267.561 53.582 269.083L58.4869 277.032L46.0207 269.691L45.7727 268.176L47.8136 265.375L45.1399 233.432C44.9821 231.555 45.3687 229.673 46.2535 228.01L48.8391 223.173L54.7361 219.137Z" fill="url(#paint2_linear_1140_25156)"/>
<path d="M59.3074 278.184H55.3288C54.9617 278.185 54.5993 278.101 54.2697 277.94C53.9401 277.779 53.652 277.544 53.4276 277.254C52.1875 275.647 49.6181 272.505 48.3901 272.427C46.736 272.317 46.9475 278.186 46.9475 278.186H46.0202L44.8459 270.894C44.7017 269.999 44.8435 269.081 45.2512 268.271C45.659 267.461 46.312 266.8 47.1176 266.381C47.1176 266.381 47.4952 269.171 49.5473 270.406C51.5993 271.641 57.8901 276.064 57.8901 276.064C58.4293 276.001 58.9748 276.016 59.5099 276.107C60.7581 276.332 60.582 278.184 59.3074 278.184Z" fill="#003056"/>
<path d="M37.6634 221.487C37.6634 221.487 21.1377 252.771 18.5116 259.913C15.8856 267.055 14.9684 273.013 14.9289 273.578C14.8742 274.46 13.7748 275.306 10.7458 275.306C9.18276 275.306 8.41742 274.681 8.04285 274.075C7.88768 273.82 7.80014 273.529 7.78846 273.23C7.77677 272.932 7.84131 272.635 7.97603 272.368C8.93169 270.437 11.9657 264.267 13.0884 261.469C14.4298 258.128 17.315 242.987 18.8983 237.722C20.4817 232.457 22.2695 226.747 29.1606 221.487C29.1606 221.487 33.8903 216.863 37.6634 221.487Z" fill="url(#paint3_linear_1140_25156)"/>
<path d="M48.1032 170.227C52.3652 152.201 41.5664 142.005 41.5664 142.005C48.3806 135.477 60.7951 132.508 60.7951 132.508C60.7951 132.508 72.6397 141.151 71.2365 147.916C70.4125 151.881 62.9099 171.667 62.9099 171.667C62.9099 171.667 55.9712 174.944 48.1032 170.227Z" fill="url(#paint4_linear_1140_25156)"/>
<path d="M38.651 179.151C40.3862 173.935 48.1024 170.227 48.1024 170.227C55.9704 174.943 62.9091 171.666 62.9091 171.666C62.9091 171.666 64.4651 177.601 63.391 183.117C62.3169 188.634 55.5786 224.083 55.5786 224.083C44.9631 226.23 28.6348 221.923 28.6348 221.923C35.3973 209.941 36.9158 184.367 38.651 179.151Z" fill="#003056"/>
<path d="M53.0506 120.595L49.5853 136.13C49.2533 137.498 50.5035 137.275 51.8894 137.014C54.1602 136.587 57.0859 135.707 58.0648 133.944C58.16 133.761 58.2204 133.563 58.243 133.358L59.7311 122.586C59.7888 122.17 59.7093 121.746 59.5046 121.379C59.2999 121.012 58.9811 120.722 58.5963 120.551L55.7242 119.28C55.4644 119.165 55.1823 119.108 54.898 119.114C54.6137 119.119 54.3341 119.187 54.079 119.313C53.8238 119.438 53.5995 119.618 53.4218 119.839C53.2441 120.061 53.1174 120.319 53.0506 120.595Z" fill="url(#paint5_linear_1140_25156)"/>
<path d="M41.5667 142.004C41.5667 142.004 17.3785 159.28 38.4739 177.424C38.4739 177.424 39.2777 178.333 40.8601 178.804C41.6588 179.042 44.0227 180.825 45.2203 181.757C45.3112 181.828 45.4159 181.878 45.5276 181.906C45.6394 181.933 45.7557 181.937 45.8689 181.916C45.9822 181.896 46.0898 181.852 46.1849 181.787C46.28 181.723 46.3605 181.639 46.4209 181.541C46.5209 181.382 46.5792 181.2 46.5903 181.013C46.6014 180.825 46.5651 180.638 46.4847 180.468L43.4902 174.148C43.0874 173.774 42.5639 173.555 42.0138 173.531C41.4637 173.507 40.9231 173.68 40.4895 174.019C40.3561 174.124 40.2009 174.198 40.0353 174.235C39.8696 174.273 39.6977 174.272 39.532 174.235C39.3664 174.197 39.2113 174.124 39.0779 174.019C38.9446 173.914 38.8365 173.78 38.7614 173.628C37.1316 170.314 34.052 160.566 46.6578 149.55C46.8873 149.348 47.0421 149.075 47.0971 148.774C47.1522 148.474 47.1045 148.163 46.9615 147.893C46.0727 146.201 44.047 142.824 41.5667 142.004Z" fill="url(#paint6_linear_1140_25156)"/>
<path d="M59.6888 106.43C59.6888 106.43 63.3788 108.923 64.9642 115.271C66.5495 121.619 63.9731 123.895 61.3318 123.758C58.6906 123.62 54.8619 122.803 51.5434 118.249C48.2248 113.696 54.8538 103.384 59.6888 106.43Z" fill="url(#paint7_linear_1140_25156)"/>
<path d="M54.8899 115.69C54.8899 115.69 53.5373 106.597 61.1047 107.985L62.6344 109.576C62.6344 109.576 66.3376 105.412 62.2396 102.266C58.1415 99.1197 52.4531 99.9289 49.3057 105.652C46.1583 111.376 45.0174 115.406 47.6545 118.966C50.2917 122.525 52.276 119.471 52.276 119.471C52.276 119.471 51.0672 116.39 52.0735 115.068C53.0798 113.745 54.3715 115.837 54.3715 115.837L54.8899 115.69Z" fill="#003056"/>
<path d="M53.8554 116.467C53.8554 116.467 53.1883 111.788 50.793 113.125C48.3978 114.463 51.6566 117.497 52.9625 118.528L53.8554 116.467Z" fill="url(#paint8_linear_1140_25156)"/>
<path d="M96.3095 106.741C96.3601 107.29 94.3121 107.67 93.6602 105.326C93.8393 104.309 94.1572 99.8533 94.9388 99.1632C99.1036 95.4765 106.528 91.3281 106.528 91.3281C107.359 92.5931 106.27 93.4266 106.27 93.4266L102.563 95.9231C102.95 97.2011 103.514 98.3317 103.575 99.7906C103.611 100.902 103.219 101.984 102.48 102.816C101.742 103.656 100.749 104.742 99.8538 105.567C98.1621 107.125 96.3095 106.741 96.3095 106.741Z" fill="url(#paint9_linear_1140_25156)"/>
<path d="M98.196 104.871L97.8852 104.744C97.9601 104.562 99.7287 100.271 100.571 99.3893C100.925 99.0195 101.096 98.6931 101.077 98.4173C101.065 98.2304 100.966 98.0526 100.773 97.8748L97.6513 99.5408L96.3069 101.642L96.0234 101.461L97.4154 99.2872L97.4539 99.266L100.815 97.4727L100.902 97.5434C101.226 97.8071 101.393 98.0859 101.408 98.3971C101.431 98.774 101.235 99.1751 100.807 99.6206C100.015 100.458 98.2142 104.827 98.196 104.871Z" fill="url(#paint10_linear_1140_25156)"/>
<path d="M227.218 76.2051H277.723V62.9355L227.218 62.9355V76.2051Z" fill="#91B3FA"/>
<path d="M211.603 182.242H293.339C295.361 182.242 297 180.607 297 178.589V74.0565C297 72.0388 295.361 70.4032 293.339 70.4032L211.603 70.4032C209.581 70.4032 207.942 72.0388 207.942 74.0565V178.589C207.942 180.607 209.581 182.242 211.603 182.242Z" fill="#91B3FA"/>
<path opacity="0.28" d="M220.428 164.783H284.512C285.183 164.783 285.727 164.24 285.727 163.571V94.8707C285.727 94.2011 285.183 93.6583 284.512 93.6583L220.428 93.6583C219.757 93.6583 219.213 94.2011 219.213 94.8707V163.571C219.213 164.24 219.757 164.783 220.428 164.783Z" fill="white"/>
<path d="M285.44 67.2011L219.503 67.2011C219.333 67.2011 219.17 67.1336 219.05 67.0135C218.929 66.8934 218.862 66.7304 218.862 66.5606V47.5584C218.862 47.2368 218.99 46.9284 219.217 46.7011C219.445 46.4737 219.754 46.346 220.076 46.346L284.867 46.346C285.189 46.346 285.498 46.4737 285.726 46.7011C285.954 46.9284 286.082 47.2368 286.082 47.5584V66.5626C286.082 66.7325 286.014 66.8954 285.894 67.0155C285.774 67.1356 285.61 67.2031 285.44 67.2031V67.2011Z" fill="#005BA1"/>
<path opacity="0.6" d="M278.573 64.4629H280.986V49.3252H278.573V64.4629Z" fill="#91B3FA"/>
<path opacity="0.6" d="M273.606 64.4629H276.02V49.3252H273.606V64.4629Z" fill="#91B3FA"/>
<path opacity="0.6" d="M268.643 64.4629H271.057V49.3252H268.643V64.4629Z" fill="#91B3FA"/>
<path opacity="0.6" d="M263.676 64.4629H266.09V49.3252H263.676V64.4629Z" fill="#91B3FA"/>
<path opacity="0.6" d="M258.712 64.4629H261.125V49.3252H258.712V64.4629Z" fill="#91B3FA"/>
<path opacity="0.6" d="M253.747 64.4629H256.16V49.3252H253.747V64.4629Z" fill="#91B3FA"/>
<path opacity="0.6" d="M248.78 64.4629H251.193V49.3252H248.78V64.4629Z" fill="#91B3FA"/>
<path opacity="0.6" d="M243.817 64.4629H246.23V49.3252H243.817V64.4629Z" fill="#91B3FA"/>
<path opacity="0.6" d="M238.85 64.4629H241.264V49.3252H238.85V64.4629Z" fill="#91B3FA"/>
<path opacity="0.6" d="M233.885 64.4629H236.299V49.3252H233.885V64.4629Z" fill="#91B3FA"/>
<path opacity="0.6" d="M228.921 64.4629H231.334V49.3252H228.921V64.4629Z" fill="#91B3FA"/>
<path opacity="0.6" d="M223.954 64.4629H226.367V49.3252H223.954V64.4629Z" fill="#91B3FA"/>
<path d="M189.515 184.763C199.315 186.942 217.324 186.744 227.663 184.273C229.312 183.877 230.779 182.939 231.828 181.609C232.877 180.279 233.447 178.636 233.446 176.943V71.9492H183.355V177.072C183.353 178.861 183.962 180.599 185.082 181.997C186.201 183.395 187.765 184.371 189.515 184.763Z" fill="url(#paint11_linear_1140_25156)"/>
<path d="M234.633 82.9434H182.149C181.979 82.9434 181.815 82.8759 181.695 82.7557C181.575 82.6356 181.507 82.4727 181.507 82.3028V66.5579C181.507 66.2363 181.635 65.928 181.863 65.7006C182.091 65.4732 182.4 65.3455 182.722 65.3455H234.061C234.383 65.3455 234.692 65.4732 234.92 65.7006C235.147 65.928 235.275 66.2363 235.275 66.5579V82.3038C235.275 82.3879 235.259 82.4712 235.226 82.5489C235.194 82.6265 235.146 82.6971 235.087 82.7565C235.027 82.8158 234.956 82.8629 234.878 82.895C234.8 82.9271 234.717 82.9435 234.633 82.9434Z" fill="url(#paint12_linear_1140_25156)"/>
<path opacity="0.6" d="M229.269 80.6328H231.199V67.8603H229.269V80.6328Z" fill="white"/>
<path opacity="0.6" d="M225.298 80.6328H227.229V67.8603H225.298V80.6328Z" fill="white"/>
<path opacity="0.6" d="M221.325 80.6328H223.256V67.8603H221.325V80.6328Z" fill="white"/>
<path opacity="0.6" d="M217.355 80.6328H219.285V67.8603H217.355V80.6328Z" fill="white"/>
<path opacity="0.6" d="M213.382 80.6328H215.312V67.8603H213.382V80.6328Z" fill="white"/>
<path opacity="0.6" d="M209.411 80.6328H211.342V67.8603H209.411V80.6328Z" fill="white"/>
<path opacity="0.6" d="M205.439 80.6328H207.369V67.8603H205.439V80.6328Z" fill="white"/>
<path opacity="0.6" d="M201.468 80.6328H203.398V67.8603H201.468V80.6328Z" fill="white"/>
<path opacity="0.6" d="M197.495 80.6328H199.426V67.8603H197.495V80.6328Z" fill="white"/>
<path opacity="0.6" d="M193.525 80.6328H195.455V67.8603H193.525V80.6328Z" fill="white"/>
<path opacity="0.6" d="M189.554 80.6328H191.484V67.8603H189.554V80.6328Z" fill="white"/>
<path opacity="0.6" d="M185.581 80.6328H187.512V67.8603H185.581V80.6328Z" fill="white"/>
<path opacity="0.39" d="M194.609 160.455H223.136C224.862 160.455 226.262 159.058 226.262 157.335V102.778C226.262 101.055 224.862 99.6577 223.136 99.6577H194.609C192.883 99.6577 191.483 101.055 191.483 102.778V157.335C191.483 159.058 192.883 160.455 194.609 160.455Z" fill="white"/>
<path d="M147.442 143.503L176.353 146.845C170.355 158.004 167.764 170.379 167.983 182.992L143.191 180.128C133.099 178.961 125.798 169.767 126.967 159.695C128.138 149.623 137.351 142.338 147.442 143.503Z" fill="white"/>
<path d="M176.355 146.846L200.491 149.636C210.584 150.802 217.885 159.997 216.715 170.068C215.547 180.14 206.334 187.426 196.243 186.26L167.988 182.994C167.766 170.38 170.357 158.005 176.355 146.846Z" fill="#005BA1"/>
<path d="M61.3008 226.414H294.184V288.515C294.184 288.841 294.12 289.164 293.995 289.465C293.87 289.767 293.686 290.041 293.455 290.271C293.224 290.502 292.95 290.685 292.647 290.81C292.345 290.935 292.022 290.999 291.695 290.999H63.6424C63.0213 290.999 62.4257 290.753 61.9866 290.315C61.5475 289.876 61.3008 289.282 61.3008 288.662V226.414Z" fill="#005BA1"/>
<path d="M285.29 279.352H67.669C65.4786 279.352 63.3779 278.483 61.8291 276.938C60.2803 275.392 59.4102 273.295 59.4102 271.109V214.766H293.028V271.63C293.028 273.678 292.212 275.642 290.761 277.09C289.31 278.538 287.342 279.352 285.29 279.352Z" fill="#59DFCC"/>
<path opacity="0.3" d="M159.892 214.764H159.019C158.919 214.764 158.838 214.845 158.838 214.945V279.169C158.838 279.269 158.919 279.35 159.019 279.35H159.892C159.992 279.35 160.073 279.269 160.073 279.169V214.945C160.073 214.845 159.992 214.764 159.892 214.764Z" fill="white"/>
<path opacity="0.3" d="M259.093 214.764H258.22C258.12 214.764 258.039 214.845 258.039 214.945V279.169C258.039 279.269 258.12 279.35 258.22 279.35H259.093C259.193 279.35 259.274 279.269 259.274 279.169V214.945C259.274 214.845 259.193 214.764 259.093 214.764Z" fill="white"/>
<path opacity="0.3" d="M193.646 214.764H192.773C192.673 214.764 192.592 214.845 192.592 214.945V279.169C192.592 279.269 192.673 279.35 192.773 279.35H193.646C193.746 279.35 193.827 279.269 193.827 279.169V214.945C193.827 214.845 193.746 214.764 193.646 214.764Z" fill="white"/>
<path opacity="0.3" d="M226.28 214.764H225.408C225.308 214.764 225.227 214.845 225.227 214.945V279.169C225.227 279.269 225.308 279.35 225.408 279.35H226.28C226.38 279.35 226.462 279.269 226.462 279.169V214.945C226.462 214.845 226.38 214.764 226.28 214.764Z" fill="white"/>
<path d="M126.025 216.32H93.5586V277.412H126.025V216.32Z" fill="#005BA1"/>
<path d="M112.327 263.162C115.57 259.926 115.57 254.679 112.327 251.443C109.084 248.207 103.827 248.207 100.584 251.443C97.3416 254.679 97.3416 259.926 100.584 263.162C103.827 266.398 109.084 266.398 112.327 263.162Z" fill="#91B3FA"/>
<path opacity="0.25" d="M113.411 252.89L113.649 253.264C113.661 253.283 113.665 253.305 113.66 253.327C113.655 253.348 113.642 253.367 113.623 253.378L99.8474 262.106C99.8288 262.117 99.8064 262.121 99.7849 262.117C99.7635 262.112 99.7448 262.099 99.733 262.08L99.4951 261.707C99.4835 261.688 99.4797 261.665 99.4844 261.644C99.4891 261.622 99.502 261.604 99.5204 261.591L113.297 252.864C113.315 252.853 113.338 252.849 113.359 252.854C113.381 252.859 113.399 252.872 113.411 252.89Z" fill="white"/>
<path d="M113.01 254.079L108.775 264.243C107.737 266.735 108.919 269.596 111.417 270.633L111.631 270.722C114.129 271.758 116.995 270.578 118.034 268.085L122.269 257.921C123.308 255.429 122.125 252.568 119.627 251.531L119.413 251.442C116.916 250.406 114.049 251.586 113.01 254.079Z" fill="#59DFCC"/>
<path d="M120.296 262.637L123.065 255.989C123.318 255.382 123.448 254.732 123.449 254.075C123.449 253.418 123.32 252.767 123.069 252.16C122.818 251.553 122.449 251.001 121.984 250.536C121.519 250.071 120.967 249.701 120.359 249.449C119.751 249.197 119.099 249.067 118.441 249.066C117.783 249.066 117.131 249.194 116.522 249.445C115.914 249.696 115.36 250.064 114.894 250.528C114.428 250.992 114.059 251.543 113.806 252.15L110.98 258.932C111.626 259.393 112.309 259.799 113.023 260.145C115.294 261.247 117.763 262.228 120.296 262.637Z" fill="url(#paint13_linear_1140_25156)"/>
<path d="M113.272 244.878L111.978 245.65C110.838 246.327 109.476 246.527 108.189 246.205C106.902 245.883 105.795 245.066 105.11 243.932L97.2835 230.885C96.5415 229.639 96.3236 228.151 96.6773 226.745C97.0311 225.339 97.9277 224.13 99.1715 223.381L99.3943 223.249C100.639 222.51 102.127 222.293 103.531 222.645C104.936 222.997 106.144 223.89 106.892 225.128L114.889 238.457C115.524 239.524 115.709 240.798 115.406 242C115.103 243.203 114.336 244.238 113.272 244.878Z" fill="#59DFCC"/>
<path d="M111.1 232.146L106.96 225.242C106.196 223.97 104.958 223.051 103.516 222.69C102.075 222.329 100.549 222.553 99.2732 223.315C97.9979 224.077 97.0779 225.313 96.7158 226.751C96.3537 228.19 96.5789 229.713 97.3421 230.986L101.568 238.03C102.413 237.76 103.233 237.418 104.021 237.009C106.527 235.705 109.051 234.144 111.1 232.146Z" fill="url(#paint14_linear_1140_25156)"/>
<g opacity="0.8">
<path d="M74.6143 232.282C74.6143 233.619 74.2769 234.643 73.602 235.354C72.9271 236.065 71.9505 236.422 70.6722 236.424C69.4236 236.424 68.3617 236.18 67.4863 235.691V233.058C68.5581 233.755 69.5418 234.105 70.4373 234.105C70.9476 234.105 71.3316 233.965 71.5894 233.684C71.8472 233.403 71.9765 233.022 71.9772 232.539C71.9773 232.064 71.8148 231.603 71.5165 231.233C71.2088 230.839 70.7026 230.401 69.998 229.92C69.3832 229.495 68.9175 229.089 68.6009 228.701C68.2828 228.311 68.0342 227.869 67.866 227.395C67.6832 226.853 67.5952 226.283 67.6058 225.712C67.6058 224.485 67.9473 223.513 68.6303 222.796C69.3133 222.078 70.2302 221.719 71.3809 221.719C72.5017 221.725 73.5984 222.044 74.5475 222.639L73.6647 224.772C73.3473 224.588 73.0183 224.425 72.6797 224.283C72.3304 224.138 71.9555 224.065 71.5773 224.068C71.146 224.068 70.8139 224.21 70.5811 224.494C70.3483 224.778 70.2325 225.165 70.2339 225.653C70.2249 226.109 70.3716 226.554 70.6499 226.915C70.9287 227.274 71.4143 227.682 72.1067 228.138C73.0415 228.765 73.6934 229.405 74.0626 230.058C74.4371 230.739 74.6273 231.505 74.6143 232.282Z" fill="white"/>
<path d="M85.1934 221.916V231.169C85.1934 232.871 84.8077 234.171 84.0363 235.069C83.2649 235.966 82.1513 236.415 80.6955 236.413C79.2701 236.413 78.1849 235.968 77.4398 235.078C76.6947 234.187 76.3235 232.871 76.3262 231.129V221.912H78.9735V231.325C78.9735 233.144 79.5782 234.053 80.7876 234.053C81.0469 234.062 81.304 234.003 81.5329 233.881C81.7618 233.759 81.9545 233.579 82.0916 233.359C82.3986 232.896 82.5522 232.237 82.5522 231.382V221.91L85.1934 221.916Z" fill="white"/>
<path d="M177.617 236.424H174.283L172.881 228.929C172.643 227.731 172.489 226.517 172.42 225.298L172.346 226.017L171.942 228.962L170.579 236.418H167.245L164.646 222.113H167.264L168.549 230.186C168.673 230.994 168.84 232.263 169.049 233.992C169.212 232.244 169.365 230.995 169.51 230.244L171.04 222.113H173.804L175.334 230.244C175.536 231.451 175.697 232.707 175.815 234.012C176.044 232.081 176.21 230.806 176.315 230.186L177.559 222.113H180.197L177.617 236.424Z" fill="white"/>
<path d="M188.099 236.424H181.637V222.113H188.099V224.413H184.304V227.818H187.824V230.127H184.304V234.09H188.099V236.424Z" fill="white"/>
<path d="M138.501 236.22H135.843V224.254H133.098V221.916H141.245V224.254H138.501V236.22Z" fill="white"/>
<path d="M152.167 221.916V231.169C152.167 232.871 151.782 234.171 151.011 235.069C150.24 235.966 149.127 236.415 147.67 236.413C146.245 236.413 145.159 235.968 144.414 235.078C143.669 234.187 143.298 232.871 143.301 231.129V221.912H145.947V231.325C145.947 233.144 146.552 234.053 147.761 234.053C148.021 234.062 148.278 234.003 148.507 233.881C148.736 233.759 148.928 233.579 149.065 233.359C149.373 232.896 149.527 232.237 149.527 231.382V221.91L152.167 221.916Z" fill="white"/>
<path d="M205.054 236.424H202.397V224.451H199.652V222.113H207.8V224.451H205.054V236.424Z" fill="white"/>
<path d="M218.183 236.424H215.517V230.151H211.997V236.424H209.33V222.113H211.997V227.798H215.517V222.113H218.183V236.424Z" fill="white"/>
<path d="M236.896 236.424H234.25V222.113H240.671V224.413H236.896V228.385H240.416V230.685H236.896V236.424Z" fill="white"/>
<path d="M245.135 230.852V236.424H242.469V222.113H245.959C247.436 222.113 248.526 222.462 249.228 223.16C249.931 223.858 250.282 224.924 250.282 226.36C250.282 228.167 249.671 229.43 248.449 230.146L251.204 236.418H248.352L246.086 230.852H245.135ZM245.135 228.561H245.822C246.449 228.561 246.9 228.384 247.174 228.029C247.448 227.674 247.586 227.144 247.586 226.438C247.586 225.708 247.441 225.187 247.15 224.878C246.859 224.568 246.41 224.413 245.801 224.413H245.135V228.561Z" fill="white"/>
<path d="M274.653 232.281C274.653 233.618 274.316 234.642 273.641 235.353C272.966 236.065 271.99 236.421 270.712 236.423C269.464 236.423 268.402 236.179 267.525 235.69V233.057C268.594 233.752 269.578 234.099 270.477 234.099C270.986 234.099 271.37 233.959 271.628 233.678C271.887 233.397 272.016 233.016 272.016 232.533C272.016 232.058 271.854 231.597 271.556 231.227C271.248 230.833 270.742 230.395 270.037 229.914C269.518 229.573 269.047 229.163 268.639 228.695C268.321 228.305 268.072 227.863 267.904 227.389C267.721 226.847 267.633 226.278 267.644 225.706C267.644 224.479 267.986 223.507 268.669 222.79C269.353 222.073 270.27 221.714 271.419 221.713C272.54 221.719 273.636 222.038 274.586 222.633L273.704 224.766C273.386 224.582 273.057 224.418 272.718 224.277C272.368 224.132 271.994 224.059 271.615 224.062C271.184 224.062 270.852 224.204 270.62 224.488C270.388 224.773 270.272 225.159 270.272 225.647C270.263 226.103 270.41 226.548 270.689 226.909C270.966 227.268 271.452 227.676 272.145 228.133C273.079 228.759 273.731 229.399 274.101 230.052C274.477 230.734 274.667 231.503 274.653 232.281Z" fill="white"/>
<path d="M283.201 236.221L282.376 232.611H278.645L277.822 236.221H275.154L278.704 221.857H282.322L285.88 236.221H283.201ZM281.884 230.254L281.115 226.926C281.068 226.724 280.966 226.217 280.806 225.405C280.647 224.592 280.55 224.049 280.517 223.775C280.432 224.335 280.324 224.953 280.193 225.629C280.062 226.305 279.722 227.846 279.173 230.253L281.884 230.254Z" fill="white"/>
</g>
<path d="M93.3253 214.764H92.4527C92.3526 214.764 92.2715 214.845 92.2715 214.945V279.169C92.2715 279.269 92.3526 279.35 92.4527 279.35H93.3253C93.4254 279.35 93.5066 279.269 93.5066 279.169V214.945C93.5066 214.845 93.4254 214.764 93.3253 214.764Z" fill="white"/>
<path d="M127.079 214.764H126.207C126.107 214.764 126.025 214.845 126.025 214.945V279.169C126.025 279.269 126.107 279.35 126.207 279.35H127.079C127.179 279.35 127.26 279.269 127.26 279.169V214.945C127.26 214.845 127.179 214.764 127.079 214.764Z" fill="white"/>
<path d="M118.352 209.816H100.78C100.482 209.816 100.24 210.058 100.24 210.355V214.66C100.24 214.957 100.482 215.198 100.78 215.198H118.352C118.65 215.198 118.892 214.957 118.892 214.66V210.355C118.892 210.058 118.65 209.816 118.352 209.816Z" fill="#005BA1"/>
<path d="M120.723 158.434H95.9494C93.9947 158.434 92.4102 160.015 92.4102 161.966V206.873C92.4102 208.823 93.9947 210.405 95.9494 210.405H120.723C122.677 210.405 124.262 208.823 124.262 206.873V161.966C124.262 160.015 122.677 158.434 120.723 158.434Z" fill="#59DFCC"/>
</g>
<defs>
<linearGradient id="paint0_linear_1140_25156" x1="310.856" y1="357.339" x2="65.533" y2="52.0514" gradientUnits="userSpaceOnUse">
<stop stop-color="#DAE3FE"/>
<stop offset="1" stop-color="#E9EFFD"/>
</linearGradient>
<linearGradient id="paint1_linear_1140_25156" x1="85.4411" y1="113.512" x2="54.9647" y2="155.822" gradientUnits="userSpaceOnUse">
<stop stop-color="#FEBBBA"/>
<stop offset="1" stop-color="#FF928E"/>
</linearGradient>
<linearGradient id="paint2_linear_1140_25156" x1="56.3143" y1="311.899" x2="42.5244" y2="150.399" gradientUnits="userSpaceOnUse">
<stop stop-color="#FEBBBA"/>
<stop offset="1" stop-color="#FF928E"/>
</linearGradient>
<linearGradient id="paint3_linear_1140_25156" x1="28.4641" y1="314.303" x2="14.6702" y2="152.76" gradientUnits="userSpaceOnUse">
<stop stop-color="#FEBBBA"/>
<stop offset="1" stop-color="#FF928E"/>
</linearGradient>
<linearGradient id="paint4_linear_1140_25156" x1="170.06" y1="10.5716" x2="87.6195" y2="113.325" gradientUnits="userSpaceOnUse">
<stop stop-color="#FF928E"/>
<stop offset="1" stop-color="#FE7062"/>
</linearGradient>
<linearGradient id="paint5_linear_1140_25156" x1="57.834" y1="152.714" x2="55.2435" y2="133.724" gradientUnits="userSpaceOnUse">
<stop stop-color="#FEBBBA"/>
<stop offset="1" stop-color="#FF928E"/>
</linearGradient>
<linearGradient id="paint6_linear_1140_25156" x1="47.1154" y1="161.967" x2="29.8375" y2="161.967" gradientUnits="userSpaceOnUse">
<stop stop-color="#FEBBBA"/>
<stop offset="1" stop-color="#FF928E"/>
</linearGradient>
<linearGradient id="paint7_linear_1140_25156" x1="62.1458" y1="126.991" x2="47.6318" y2="83.1706" gradientUnits="userSpaceOnUse">
<stop stop-color="#FEBBBA"/>
<stop offset="1" stop-color="#FF928E"/>
</linearGradient>
<linearGradient id="paint8_linear_1140_25156" x1="56.8964" y1="128.732" x2="42.3824" y2="84.9116" gradientUnits="userSpaceOnUse">
<stop stop-color="#FEBBBA"/>
<stop offset="1" stop-color="#FF928E"/>
</linearGradient>
<linearGradient id="paint9_linear_1140_25156" x1="89.1174" y1="116.16" x2="58.64" y2="158.47" gradientUnits="userSpaceOnUse">
<stop stop-color="#FEBBBA"/>
<stop offset="1" stop-color="#FF928E"/>
</linearGradient>
<linearGradient id="paint10_linear_1140_25156" x1="96.0265" y1="101.174" x2="101.416" y2="101.174" gradientUnits="userSpaceOnUse">
<stop stop-color="#F9B776"/>
<stop offset="1" stop-color="#F47960"/>
</linearGradient>
<linearGradient id="paint11_linear_1140_25156" x1="231.412" y1="68.4596" x2="148.043" y2="274.786" gradientUnits="userSpaceOnUse">
<stop stop-color="#FF928E"/>
<stop offset="1" stop-color="#FE7062"/>
</linearGradient>
<linearGradient id="paint12_linear_1140_25156" x1="205.382" y1="-13.7953" x2="211.063" y2="153.449" gradientUnits="userSpaceOnUse">
<stop stop-color="#E1473D"/>
<stop offset="1" stop-color="#E9605A"/>
</linearGradient>
<linearGradient id="paint13_linear_1140_25156" x1="366.693" y1="-831.06" x2="358.043" y2="-793.486" gradientUnits="userSpaceOnUse">
<stop stop-color="#FF928E"/>
<stop offset="1" stop-color="#FE7062"/>
</linearGradient>
<linearGradient id="paint14_linear_1140_25156" x1="-1314.71" y1="-1406.37" x2="-1289.5" y2="-1377.17" gradientUnits="userSpaceOnUse">
<stop stop-color="#FF928E"/>
<stop offset="1" stop-color="#FE7062"/>
</linearGradient>
<clipPath id="clip0_1140_25156">
<rect width="297" height="291" fill="white"/>
</clipPath>
</defs>
</svg>
