<svg width="39" height="24" viewBox="0 0 39 24" fill="none" xmlns="http://www.w3.org/2000/svg">
<path d="M20.6665 10.333C21.6554 10.333 22.6221 10.0398 23.4444 9.49036C24.2666 8.94095 24.9075 8.16006 25.2859 7.24643C25.6643 6.3328 25.7634 5.32746 25.5704 4.35756C25.3775 3.38765 24.9013 2.49674 24.202 1.79748C23.5028 1.09821 22.6119 0.62201 21.642 0.429084C20.672 0.236158 19.6667 0.335174 18.7531 0.713612C17.8395 1.09205 17.0586 1.73291 16.5092 2.55516C15.9597 3.3774 15.6665 4.3441 15.6665 5.33301C15.6665 6.65909 16.1933 7.93086 17.131 8.86854C18.0687 9.80623 19.3404 10.333 20.6665 10.333ZM20.6665 3.66634C20.9961 3.66634 21.3184 3.76409 21.5925 3.94723C21.8665 4.13036 22.0802 4.39066 22.2063 4.6952C22.3324 4.99975 22.3655 5.33486 22.3011 5.65816C22.2368 5.98146 22.0781 6.27843 21.845 6.51152C21.6119 6.74461 21.315 6.90334 20.9917 6.96765C20.6684 7.03196 20.3332 6.99896 20.0287 6.87281C19.7242 6.74666 19.4639 6.53304 19.2807 6.25896C19.0976 5.98488 18.9998 5.66265 18.9998 5.33301C18.9998 4.89098 19.1754 4.46706 19.488 4.1545C19.8006 3.84194 20.2245 3.66634 20.6665 3.66634ZM27.5165 10.0997C28.4916 8.70139 29.0144 7.03771 29.0144 5.33301C29.0144 3.62831 28.4916 1.96463 27.5165 0.566343C27.9958 0.412032 28.4963 0.333311 28.9998 0.33301C30.3259 0.33301 31.5977 0.859794 32.5354 1.79748C33.4731 2.73516 33.9998 4.00693 33.9998 5.33301C33.9998 6.65909 33.4731 7.93086 32.5354 8.86854C31.5977 9.80623 30.3259 10.333 28.9998 10.333C28.4963 10.3327 27.9958 10.254 27.5165 10.0997ZM20.6665 13.6663C10.6665 13.6663 10.6665 20.333 10.6665 20.333V23.6663H30.6665V20.333C30.6665 20.333 30.6665 13.6663 20.6665 13.6663ZM13.9998 20.333C13.9998 19.8497 14.5332 16.9997 20.6665 16.9997C26.4998 16.9997 27.2332 19.5997 27.3332 20.333M38.9998 20.333V23.6663H33.9998V20.333C33.9609 19.0941 33.6756 17.8753 33.1605 16.7479C32.6454 15.6204 31.9109 14.6068 30.9998 13.7663C38.9998 14.583 38.9998 20.333 38.9998 20.333ZM11.2332 6.86634L13.1665 9.21634L5.24984 17.133L0.666504 12.133L2.59984 10.1997L5.24984 12.833L11.2332 6.86634Z" fill="#003762"/>
</svg>
