<svg width="37" height="31" viewBox="0 0 37 31" fill="none" xmlns="http://www.w3.org/2000/svg">
<path d="M20.6665 25.667C20.6665 25.1003 20.7332 24.5503 20.8165 24.0003H3.99984V14.0003H30.6665V15.667C31.8332 15.667 32.9498 15.8837 33.9998 16.2503V4.00033C33.9998 2.15033 32.5165 0.666992 30.6665 0.666992H3.99984C2.14984 0.666992 0.666504 2.15033 0.666504 4.00033V24.0003C0.666504 24.8844 1.01769 25.7322 1.64281 26.3573C2.26794 26.9825 3.11578 27.3337 3.99984 27.3337H20.8165C20.7332 26.7837 20.6665 26.2337 20.6665 25.667ZM3.99984 4.00033H30.6665V7.33366H3.99984V4.00033ZM28.5832 30.667L23.9998 25.667L25.9332 23.7337L28.5832 26.3837L34.5665 20.4003L36.4998 22.7503L28.5832 30.667Z" fill="#003762"/>
</svg>
