<svg width="19" height="20" viewBox="0 0 19 20" fill="none" xmlns="http://www.w3.org/2000/svg">
<path d="M9.375 9.875C10.6182 9.875 11.8105 9.38114 12.6896 8.50206C13.5686 7.62299 14.0625 6.4307 14.0625 5.1875C14.0625 3.9443 13.5686 2.75201 12.6896 1.87294C11.8105 0.99386 10.6182 0.5 9.375 0.5C8.1318 0.5 6.93951 0.99386 6.06044 1.87294C5.18136 2.75201 4.6875 3.9443 4.6875 5.1875C4.6875 6.4307 5.18136 7.62299 6.06044 8.50206C6.93951 9.38114 8.1318 9.875 9.375 9.875ZM12.5 5.1875C12.5 6.0163 12.1708 6.81116 11.5847 7.39721C10.9987 7.98326 10.2038 8.3125 9.375 8.3125C8.5462 8.3125 7.75134 7.98326 7.16529 7.39721C6.57924 6.81116 6.25 6.0163 6.25 5.1875C6.25 4.3587 6.57924 3.56384 7.16529 2.97779C7.75134 2.39174 8.5462 2.0625 9.375 2.0625C10.2038 2.0625 10.9987 2.39174 11.5847 2.97779C12.1708 3.56384 12.5 4.3587 12.5 5.1875ZM18.75 17.6875C18.75 19.25 17.1875 19.25 17.1875 19.25H1.5625C1.5625 19.25 0 19.25 0 17.6875C0 16.125 1.5625 11.4375 9.375 11.4375C17.1875 11.4375 18.75 16.125 18.75 17.6875ZM17.1875 17.6812C17.1859 17.2969 16.9469 16.1406 15.8875 15.0812C14.8688 14.0625 12.9516 13 9.375 13C5.79688 13 3.88125 14.0625 2.8625 15.0812C1.80313 16.1406 1.56562 17.2969 1.5625 17.6812H17.1875Z" fill="#003762"/>
</svg>
