<svg width="19" height="19" viewBox="0 0 19 19" fill="none" xmlns="http://www.w3.org/2000/svg">
<path fill-rule="evenodd" clip-rule="evenodd" d="M2.20947 0.597883C2.41451 0.393134 2.66072 0.234302 2.93178 0.131913C3.20285 0.0295232 3.49258 -0.0140854 3.78177 0.0039766C4.07096 0.0220386 4.35301 0.101359 4.60923 0.236681C4.86545 0.372003 5.08999 0.560236 5.26796 0.788908L7.37141 3.49138C7.75695 3.9871 7.89288 4.63283 7.74054 5.24224L7.09955 7.80876C7.06641 7.94169 7.0682 8.08094 7.10474 8.21297C7.14129 8.34501 7.21136 8.46535 7.30814 8.56231L10.1873 11.4417C10.2844 11.5387 10.4049 11.6089 10.5372 11.6455C10.6694 11.682 10.8089 11.6837 10.942 11.6503L13.5072 11.0093C13.8079 10.9341 14.1217 10.9283 14.425 10.9922C14.7283 11.0562 15.0131 11.1882 15.2579 11.3785L17.9601 13.4809C18.9316 14.2368 19.0207 15.6724 18.1512 16.5408L16.9395 17.7526C16.0723 18.6198 14.7763 19.0007 13.5681 18.5753C10.4758 17.4872 7.66821 15.7167 5.35351 13.3953C3.03244 11.0808 1.26216 8.27338 0.173984 5.1813C-0.250221 3.97421 0.130626 2.67688 0.997786 1.80966L2.20947 0.597883Z" fill="#003762"/>
</svg>
