<svg width="23" height="23" viewBox="0 0 23 23" fill="none" xmlns="http://www.w3.org/2000/svg">
<path d="M15.8125 20.4845C8.48125 20.4845 2.51562 14.5189 2.51562 7.18765C2.51599 5.87649 2.99422 4.6104 3.86078 3.62642C4.72735 2.64244 5.92283 2.00803 7.22344 1.84195C7.60984 1.79362 8.00145 1.87278 8.33876 2.06737C8.67606 2.26197 8.94061 2.56137 9.09219 2.92007L10.898 7.12476C11.0173 7.3974 11.0666 7.69549 11.0415 7.99201C11.0164 8.28853 10.9177 8.57409 10.7543 8.82281L9.3707 10.9252C9.98365 12.0835 10.9326 13.0293 12.093 13.6384L14.1684 12.2548C14.418 12.09 14.7046 11.9897 15.0026 11.9631C15.3006 11.9364 15.6005 11.9842 15.8754 12.1021L20.0801 13.908C20.4388 14.0595 20.7382 14.3241 20.9328 14.6614C21.1274 14.9987 21.2065 15.3903 21.1582 15.7767C20.9921 17.0773 20.3577 18.2728 19.3737 19.1394C18.3897 20.0059 17.1237 20.4842 15.8125 20.4845ZM7.22344 4.02515C6.50072 4.18124 5.8533 4.58024 5.38902 5.15568C4.92474 5.73113 4.67164 6.44827 4.67188 7.18765C4.67425 10.1416 5.84876 12.9739 7.93752 15.0626C10.0263 17.1514 12.8586 18.3259 15.8125 18.3283C16.5519 18.3285 17.269 18.0754 17.8445 17.6111C18.4199 17.1469 18.8189 16.4994 18.975 15.7767L15.2016 14.1595L13.1172 15.5521C12.8579 15.7236 12.5588 15.8253 12.2487 15.8474C11.9387 15.8694 11.6282 15.811 11.3473 15.6779C9.60336 14.8333 8.19262 13.4289 7.34023 11.6888C7.20316 11.4094 7.1418 11.0988 7.1623 10.7883C7.18279 10.4777 7.28442 10.1779 7.45703 9.9189L8.84063 7.79859L7.22344 4.02515Z" fill="#003762"/>
</svg>
