<svg width="25" height="25" viewBox="0 0 25 25" fill="none" xmlns="http://www.w3.org/2000/svg">
<path fill-rule="evenodd" clip-rule="evenodd" d="M22.9167 1.38889H2.08333C1.89916 1.38889 1.72252 1.46205 1.59229 1.59229C1.46205 1.72252 1.38889 1.89916 1.38889 2.08333V22.9167C1.38889 23.1008 1.46205 23.2775 1.59229 23.4077C1.72252 23.5379 1.89916 23.6111 2.08333 23.6111H22.9167C23.1008 23.6111 23.2775 23.5379 23.4077 23.4077C23.5379 23.2775 23.6111 23.1008 23.6111 22.9167V2.08333C23.6111 1.89916 23.5379 1.72252 23.4077 1.59229C23.2775 1.46205 23.1008 1.38889 22.9167 1.38889ZM2.08333 0C1.5308 0 1.0009 0.219493 0.610194 0.610194C0.219493 1.0009 0 1.5308 0 2.08333V22.9167C0 23.4692 0.219493 23.9991 0.610194 24.3898C1.0009 24.7805 1.5308 25 2.08333 25H22.9167C23.4692 25 23.9991 24.7805 24.3898 24.3898C24.7805 23.9991 25 23.4692 25 22.9167V2.08333C25 1.5308 24.7805 1.0009 24.3898 0.610194C23.9991 0.219493 23.4692 0 22.9167 0H2.08333Z" fill="#003762"/>
<path fill-rule="evenodd" clip-rule="evenodd" d="M17.6924 5.37922C17.6924 6.06924 17.4183 6.73101 16.9304 7.21893C16.4425 7.70685 15.7807 7.98096 15.0907 7.98096C14.4007 7.98096 13.7389 7.70685 13.251 7.21893C12.7631 6.73101 12.4889 6.06924 12.4889 5.37922C12.4889 4.68929 12.763 4.02762 13.2509 3.53976C13.7387 3.05191 14.4004 2.77783 15.0903 2.77783C15.7803 2.77783 16.4419 3.05191 16.9298 3.53976C17.4176 4.02762 17.6917 4.68929 17.6917 5.37922H17.6924ZM5.55561 16.6667H9.60283L12.6542 19.6778L14.0889 22.9862C14.2355 23.3241 14.5104 23.59 14.8531 23.7253C15.1957 23.8606 15.5781 23.8543 15.916 23.7077C16.254 23.5611 16.5199 23.2862 16.6552 22.9436C16.7905 22.6009 16.7842 22.2186 16.6376 21.8806L15.0959 18.3251C15.0251 18.1622 14.9237 18.0143 14.7973 17.8896L13.557 16.6667H19.4445C19.8129 16.6667 20.1661 16.8131 20.4266 17.0735C20.6871 17.334 20.8334 17.6873 20.8334 18.0556V23.6112H22.2223V18.0556C22.2223 17.3189 21.9296 16.6124 21.4087 16.0914C20.8878 15.5705 20.1812 15.2778 19.4445 15.2778H17.2723C17.6007 15.1995 17.8894 15.0043 18.0843 14.7285C18.2792 14.4528 18.367 14.1155 18.3313 13.7798C18.2955 13.444 18.1387 13.1328 17.8901 12.9043C17.6415 12.6758 17.3182 12.5456 16.9806 12.5382C15.7626 12.5105 15.3973 12.3077 15.1355 12.0723C14.9598 11.9132 14.7632 11.6723 14.491 11.2542C14.2952 10.9542 14.0938 10.616 13.8466 10.2014L13.5042 9.62992L13.4744 9.58131C13.3786 9.4164 13.2753 9.25604 13.1646 9.10075C13.0292 8.91811 12.7785 8.62158 12.3577 8.44658C11.9348 8.27019 11.5424 8.30075 11.3001 8.33894C11.0701 8.38044 10.8429 8.43563 10.6195 8.50422C10.0167 8.67714 9.51464 9.13478 9.18547 9.49242C8.77397 9.94686 8.42377 10.4533 8.1438 10.9987C7.58478 12.0806 7.09867 13.716 7.78756 15.2417L7.80422 15.2778H5.55561C4.8189 15.2778 4.11236 15.5705 3.59142 16.0914C3.07049 16.6124 2.77783 17.3189 2.77783 18.0556V23.6112H4.16672V18.0556C4.16672 17.6873 4.31305 17.334 4.57352 17.0735C4.83398 16.8131 5.18725 16.6667 5.55561 16.6667ZM16.2014 15.2778H12.1501L11.4862 14.623L12.5369 13.3098C12.7577 13.6056 12.9994 13.8862 13.2771 14.1362C14.0931 14.8709 15.0341 15.1764 16.2014 15.2778ZM7.55005 16.7271L9.82506 18.9091L9.24936 20.8514C9.21417 20.9702 9.16326 21.0837 9.09797 21.1889L7.87158 23.1653C7.67737 23.4783 7.36676 23.7014 7.0081 23.7854C6.64944 23.8694 6.27209 23.8075 5.95908 23.6132C5.64607 23.419 5.42303 23.1084 5.33903 22.7498C5.25503 22.3911 5.31695 22.0138 5.51117 21.7008L6.63964 19.8834L7.40561 17.298L7.55005 16.7271Z" fill="#003762"/>
</svg>
