<svg width="160" height="166" viewBox="0 0 160 166" fill="none" xmlns="http://www.w3.org/2000/svg">
<path d="M90.7915 141.176C87.7294 141.643 84.6261 141.776 81.5355 141.573C77.2677 141.367 73.0384 140.66 68.9337 139.466C64.723 138.242 60.6808 136.494 56.9009 134.262C50.6238 130.603 45.1927 125.642 40.9684 119.709C38.7889 116.706 36.9108 113.493 35.3617 110.117C33.3233 105.562 31.9241 100.744 31.2041 95.801C30.6197 92.1771 30.4542 88.4973 30.7109 84.8351C31.0324 80.036 31.9682 75.2986 33.4953 70.7404C34.4991 67.9123 35.693 65.1562 37.0687 62.4912C38.6458 59.4995 40.5355 56.6855 42.7058 54.0969C46.0491 50.0591 49.9565 46.53 54.3062 43.6194C58.2857 40.9418 62.6062 38.8165 67.1508 37.3008C73.7117 35.1374 80.6247 34.2618 87.514 34.7215C96.609 35.4102 105.387 38.3829 113.044 43.3675C116.67 45.7368 119.984 48.5572 122.907 51.7618C126.545 55.7193 129.573 60.2027 131.89 65.0629C133.714 68.9121 135.071 72.9679 135.934 77.1429C136.924 81.6906 137.286 86.3538 137.011 91.0011C136.765 95.0585 136.076 99.0764 134.955 102.982C133.71 107.219 131.974 111.295 129.781 115.123C128.153 117.949 126.258 120.609 124.121 123.067C118.008 130.146 110.162 135.494 101.36 138.581C98.5317 139.585 95.6192 140.331 92.6579 140.809C92.0278 140.886 91.404 141.008 90.7915 141.176Z" fill="#00CDB0"/>
<path d="M34.2996 27.0067C34.6031 31.1199 30.8324 34.6378 27.001 34.6378C24.975 34.644 23.0284 33.8461 21.5837 32.4174C20.1391 30.9886 19.3131 29.0443 19.2852 27.0067C19.2985 25.0208 20.081 23.1184 21.4665 21.7034C22.8519 20.2885 24.7312 19.4726 26.7051 19.429C30.8248 19.3527 34.5803 22.8401 34.2996 27.0067Z" fill="#00CDB0"/>
<path d="M140.79 40.2923C140.419 37.6825 143.499 34.4163 146.564 34.6071C149.295 34.7826 152.057 37.0949 152.095 40.1778C152.077 41.7181 151.464 43.1909 150.384 44.2837C149.305 45.3765 147.845 46.0032 146.314 46.0309C143.696 46.0156 140.586 43.4974 140.79 40.2923Z" fill="#00CDB0"/>
<path d="M23.0178 120.381C23.0178 122.533 21.3791 124.006 19.2244 124.151C17.3049 124.281 15.431 122.114 15.5144 120.335C15.5903 117.855 17.2139 116.68 19.543 116.52C21.3411 116.405 23.0178 118.359 23.0178 120.381Z" fill="#00CDB0"/>
<path d="M61.5292 153.386C61.5333 153.731 61.4695 154.074 61.3415 154.394C61.2136 154.715 61.024 155.007 60.7837 155.254C60.5433 155.5 60.2569 155.697 59.9409 155.832C59.6249 155.967 59.2855 156.038 58.9421 156.041C58.2687 156.011 57.6282 155.74 57.1358 155.277C56.6434 154.814 56.3316 154.189 56.2564 153.516C56.2411 153.158 56.2969 152.801 56.4204 152.465C56.5439 152.13 56.7326 151.822 56.9756 151.561C57.2186 151.299 57.5109 151.089 57.8355 150.943C58.1602 150.796 58.5105 150.716 58.8662 150.707C59.2203 150.691 59.5738 150.749 59.9042 150.878C60.2346 151.007 60.5347 151.204 60.7853 151.456C61.0359 151.708 61.2314 152.009 61.3595 152.342C61.4876 152.674 61.5454 153.03 61.5292 153.386Z" fill="#00CDB0"/>
<path d="M92.1657 24.7858C91.6599 24.7784 91.1761 24.5767 90.8135 24.2219C90.4509 23.8672 90.2371 23.3863 90.2158 22.878C90.2676 22.3723 90.4914 21.9001 90.8495 21.5414C91.2076 21.1826 91.6779 20.9593 92.1808 20.9092C92.6749 20.9331 93.1425 21.1407 93.493 21.4919C93.8435 21.843 94.0518 22.3125 94.0775 22.8093C94.0826 23.0658 94.0369 23.3207 93.9433 23.5593C93.8497 23.7979 93.7099 24.0154 93.532 24.1992C93.3542 24.3831 93.1418 24.5296 92.9073 24.6303C92.6727 24.731 92.4207 24.7838 92.1657 24.7858Z" fill="#00CDB0"/>
<path d="M140.358 105.149C139.874 105.136 139.413 104.938 139.069 104.595C138.725 104.251 138.524 103.789 138.507 103.303C138.49 102.915 138.59 102.531 138.794 102.201C138.998 101.871 139.295 101.611 139.648 101.454C140.001 101.297 140.393 101.251 140.773 101.321C141.152 101.392 141.502 101.576 141.776 101.849C142.05 102.122 142.236 102.472 142.309 102.854C142.382 103.235 142.339 103.629 142.186 103.986C142.033 104.342 141.777 104.644 141.451 104.851C141.124 105.059 140.744 105.163 140.358 105.149Z" fill="#7DECDD"/>
<path d="M136.565 143.068C136.322 143.075 136.08 143.03 135.856 142.935C135.632 142.84 135.431 142.699 135.266 142.52C135.101 142.34 134.976 142.128 134.899 141.896C134.822 141.664 134.795 141.419 134.82 141.176C134.823 140.93 134.876 140.687 134.975 140.463C135.074 140.238 135.217 140.035 135.396 139.867C135.574 139.699 135.784 139.569 136.014 139.484C136.243 139.4 136.487 139.363 136.731 139.375C136.976 139.376 137.217 139.426 137.442 139.524C137.666 139.621 137.868 139.763 138.037 139.942C138.205 140.12 138.335 140.331 138.42 140.561C138.505 140.792 138.542 141.037 138.53 141.283C138.524 141.532 138.468 141.778 138.365 142.004C138.262 142.231 138.114 142.434 137.93 142.602C137.746 142.769 137.53 142.896 137.295 142.977C137.06 143.057 136.812 143.088 136.565 143.068Z" fill="#00CDB0"/>
<path d="M13.2009 76.2427C13.2009 76.7158 13.2009 77.1279 12.6471 77.1126C12.4305 77.1254 12.2176 77.0529 12.0533 76.9104C11.889 76.768 11.7863 76.5668 11.767 76.3495C11.7447 76.2487 11.7472 76.144 11.7744 76.0444C11.8016 75.9448 11.8525 75.8534 11.9228 75.7782C11.9932 75.7029 12.0807 75.6461 12.1778 75.6127C12.275 75.5793 12.3787 75.5703 12.4801 75.5864C12.8974 75.6093 13.2768 75.7848 13.2009 76.2427Z" fill="#7DECDD"/>
<path d="M104.548 149.135C104.548 149.54 104.389 149.83 103.979 149.86C103.879 149.872 103.777 149.863 103.68 149.835C103.583 149.806 103.493 149.759 103.414 149.695C103.336 149.631 103.271 149.552 103.223 149.462C103.176 149.373 103.146 149.274 103.137 149.173C103.119 149.08 103.122 148.984 103.145 148.892C103.168 148.8 103.212 148.715 103.272 148.642C103.332 148.569 103.408 148.51 103.493 148.47C103.579 148.43 103.672 148.41 103.766 148.41C104.29 148.38 104.464 148.715 104.548 149.135Z" fill="#7DECDD"/>
<path d="M90.792 141.176C91.3155 140.542 92.0211 140.84 92.666 140.825C92.1016 141.159 91.4382 141.284 90.792 141.176Z" fill="#7DECDD"/>
<path d="M83.8282 94.1909C86.8556 93.9845 89.8967 94.221 92.8566 94.8929C94.574 95.2229 96.1571 96.0535 97.4088 97.2815C97.8327 97.7569 98.1553 98.3146 98.3568 98.9202C98.5583 99.5258 98.6343 100.166 98.5803 100.803C98.5263 101.439 98.3433 102.057 98.0427 102.62C97.742 103.182 97.3301 103.677 96.8322 104.073C95.039 105.34 92.9454 106.109 90.7626 106.301C87.3863 106.759 83.9727 106.874 80.5734 106.645C77.7966 106.485 75.0274 106.248 72.4479 105.119C70.7181 104.356 69.1172 102.944 69.0034 100.715C68.882 98.3269 70.278 96.6786 72.4251 95.7018C74.7416 94.7208 77.2256 94.2024 79.7389 94.1756C81.1045 94.1451 82.4702 94.1909 83.8282 94.1909Z" fill="#FEFEFE"/>
<path d="M83.7662 69.4967C85.718 69.4914 87.6269 70.0723 89.2484 71.165C90.8699 72.2577 92.1302 73.8124 92.8678 75.63C93.6054 77.4475 93.7868 79.4452 93.3887 81.3671C92.9906 83.289 92.0311 85.0476 90.6332 86.4176C89.2353 87.7877 87.4626 88.7068 85.5422 89.0572C83.6217 89.4076 81.641 89.1734 79.8537 88.3845C78.0665 87.5957 76.554 86.2881 75.5101 84.6294C74.4662 82.9706 73.9384 81.0361 73.9943 79.0738C74.048 76.5071 75.1026 74.0644 76.9307 72.2728C78.7588 70.4812 81.2138 69.4841 83.7662 69.4967Z" fill="#FEFEFE"/>
</svg>
