<svg id="Layer_1" data-name="Layer 1" xmlns="http://www.w3.org/2000/svg" width="405.53" height="406.09" viewBox="0 0 405.53 406.09"><defs><style>.cls-1{fill:#edc61f;}.cls-2{fill:#3eba98;}.cls-3{fill:#e4eff9;}.cls-4{fill:#96d0f2;}.cls-5{fill:#4ab6e8;}.cls-6{fill:#cf942b;}.cls-7{fill:#3867b1;}.cls-8{fill:#4ab7e8;}.cls-9{fill:#4f8dca;}.cls-10{fill:#e9494e;}.cls-11{fill:#f2727c;}.cls-12{fill:#95d1f0;}.cls-13{fill:#4e8ecb;}.cls-14{fill:#e2eef8;}.cls-15{fill:#e3eef8;}.cls-16{fill:#98d1ef;}.cls-17{fill:#396ab3;}.cls-18{fill:#99d2ef;}.cls-19{fill:#d0942b;}.cls-20{fill:#f5c31d;}.cls-21{fill:#f2757e;}.cls-22{fill:#fce79d;}.cls-23{fill:#e64c4c;}.cls-24{fill:#f1f7fc;}.cls-25{fill:#6095cf;}.cls-26{fill:#4eb6e7;}.cls-27{fill:#4eb7e7;}.cls-28{fill:#eef5fa;}.cls-29{fill:#fbfdfd;}.cls-30{fill:#51b6e5;}.cls-31{fill:#4e8cca;}.cls-32{fill:#376bb4;}.cls-33{fill:#3767b1;}.cls-34{fill:#f0f6fb;}.cls-35{fill:#cde2f3;}.cls-36{fill:#3970b7;}.cls-37{fill:#f6c31d;}.cls-38{fill:#f2c323;}.cls-39{fill:#f6d366;}.cls-40{fill:#f5d365;}.cls-41{fill:#ecc22d;}.cls-42{fill:#e5504e;}.cls-43{fill:#4d8ecb;}.cls-44{fill:#e66a6b;}.cls-45{fill:#96d1f2;}.cls-46{fill:#3668b2;}.cls-47{fill:#3a6ab3;}.cls-48{fill:#cde2f5;}.cls-49{fill:#96d1f1;}.cls-50{fill:#cee2f5;}.cls-51{fill:#508fcc;}.cls-52{fill:#9bd3ef;}.cls-53{fill:#9cd3f0;}.cls-54{fill:#3669b3;}.cls-55{fill:#80b4e1;}.cls-56{fill:#7aafde;}.cls-57{fill:#4f8cca;}.cls-58{fill:#f2737c;}.cls-59{fill:#9fd5f1;}.cls-60{fill:#cde3f4;}.cls-61{fill:#95d1f1;}.cls-62{fill:#cde2f4;}.cls-63{fill:#508ecb;}.cls-64{fill:#cee2f3;}.cls-65{fill:#97d1f1;}.cls-66{fill:#96d1f0;}.cls-67{fill:#96d2f1;}.cls-68{fill:#e24f51;}.cls-69{fill:#97cfec;}.cls-70{fill:#b9e1f6;}.cls-71{fill:#9ccfe7;}.cls-72{fill:#a1d0e5;}.cls-73{fill:#a0c6d9;}.cls-74{fill:#ea8990;}.cls-75{fill:#fde79e;}.cls-76{fill:#cee0ee;}.cls-77{fill:#fbe79e;}.cls-78{fill:#e86d6e;}.cls-79{fill:#ee7473;}.cls-80{fill:#e5f0f9;}.cls-81{fill:#4f8fcc;}.cls-82{fill:#4d8fcc;}.cls-83{fill:#4e8dcb;}.cls-84{fill:#eff5fb;}.cls-85{fill:#eef5fb;}.cls-86{fill:#edf4f9;}.cls-87{fill:#92d1f0;}.cls-88{fill:#3869b2;}.cls-89{fill:#c6dcef;}.cls-90{fill:#3a69b3;}.cls-91{fill:#fbe7a0;}.cls-92{fill:#95d0f1;}</style></defs><path class="cls-1" d="M9,189.06a14,14,0,0,0,.45-5.15.89.89,0,0,0,.12-1.1,9.14,9.14,0,0,0,.44-4,.92.92,0,0,0,.19-1.1,166.73,166.73,0,0,1,3.95-22,193.6,193.6,0,0,1,12-33.6,209.69,209.69,0,0,1,10.29-19.52A200.4,200.4,0,0,1,52.51,79.94c3.32-4.07,7.21-7.59,10.47-11.7l.84-.72a175.34,175.34,0,0,1,17.6-16,182.13,182.13,0,0,1,27-18.3,192.66,192.66,0,0,1,38.93-16.13c5.68-1.72,11.51-2.73,17.23-4.25a2,2,0,0,0,1.72-.39,5.63,5.63,0,0,0,3-.59l.07.11.07-.14a32.23,32.23,0,0,0,7-1,.82.82,0,0,0,1.09-.2,10,10,0,0,0,4-.45.75.75,0,0,0,1.09-.11c7.71-.39,15.41-1.08,23.14-.86l10.45.3a1.58,1.58,0,0,0,1.65.13,12.07,12.07,0,0,0,4.59.42.76.76,0,0,0,1.1.12,10.67,10.67,0,0,0,4,.46.84.84,0,0,0,1.1.19,5.45,5.45,0,0,0,2.88.38.91.91,0,0,0,1.09.19,5.74,5.74,0,0,0,3,.45l.08.13,0-.11c8.84,2,17.71,3.84,26.36,6.68a192.4,192.4,0,0,1,93,65,188.33,188.33,0,0,1,38.59,87c6.39,38.3,2,75.41-13.76,111-16.17,36.5-41.37,65.31-75.17,86.47a188.67,188.67,0,0,1-76,27.32,207.66,207.66,0,0,1-47.54.63,181.66,181.66,0,0,1-36.09-7.24,197,197,0,0,1-37.84-16.17c-1-.53-1.86-1.18-2.78-1.77l-.81-.53a123.36,123.36,0,0,1-18.08-11.93c-.57-.45-1.08-1-1.62-1.48a2.76,2.76,0,0,0-1.89-1.26A195.86,195.86,0,0,1,50,323.2c-3.95-5-7.7-10.09-11.12-15.38a181.21,181.21,0,0,1-10.68-19.2,194.66,194.66,0,0,1-14.31-39.21,144.62,144.62,0,0,1-3.56-20.61,1,1,0,0,0-.23-1.12,11.41,11.41,0,0,0-.51-4.57.9.9,0,0,0-.1-1.1A13.79,13.79,0,0,0,9,216.86a3.6,3.6,0,0,0-.13-2.79q0-10.83,0-21.66A5.14,5.14,0,0,0,9,189.06Zm344.11,118a60.59,60.59,0,0,0,5.79-8.67c2.29-3.88,4.92-7.6,6.35-11.94a48.82,48.82,0,0,0,5.9-12.6,20.39,20.39,0,0,0,3-7.39,89.38,89.38,0,0,0,4.87-14.89,119.17,119.17,0,0,0,4.56-21.72c2-10.26,2.15-20.63,2-31a174.86,174.86,0,0,0-8.46-51.25A181,181,0,0,0,326,67.88a179.34,179.34,0,0,0-55.4-34.77c-9.4-3.73-19-7-29-8.69a135.67,135.67,0,0,0-22.49-3.54c-3-.24-5.93-1-8.93-.18a89.52,89.52,0,0,0-17.09,0,14.35,14.35,0,0,0-2.51-.26,168.49,168.49,0,0,0-27.72,4.07,5.83,5.83,0,0,0-.84.06A183.82,183.82,0,0,0,33.51,132.91c-11,26.37-15.25,53.89-13.58,82.34.26,4.41.37,8.88,1.61,13.18.13,1.3.17,2.62.41,3.9,1.28,6.88,2.2,13.85,4.74,20.44a81.38,81.38,0,0,0,4.66,14.55,43,43,0,0,0,3.81,9.19c1.59,4.29,3.27,8.54,6.06,12.23,2.56,6.39,6.44,12,10.4,17.56a20.65,20.65,0,0,0,1.09,1.95,184.29,184.29,0,0,0,31.23,34.24,137.79,137.79,0,0,0,19.36,14.24c.37.29.73.6,1.13.86A180.74,180.74,0,0,0,163.64,382c7.83,1.71,15.74,3.15,23.81,3.27a120.73,120.73,0,0,0,28.37.13,31.77,31.77,0,0,0,3.38,0,182.6,182.6,0,0,0,36.9-7.19,173,173,0,0,0,45-20.94c.82-.47,1.66-.88,2.44-1.4a181.76,181.76,0,0,0,30.86-25.71A153.5,153.5,0,0,0,353.15,307.1Z"/><circle class="cls-2" cx="202.76" cy="202.52" r="182.87"/><path class="cls-3" d="M279.7,123.32a134.74,134.74,0,0,1,32.43,21A95,95,0,0,1,335.93,175a82.18,82.18,0,0,1,8.17,29.92c.67,8.53-.25,16.86-.89,25.27a10.69,10.69,0,0,1-.7,2.28c-1.47-.07-1.74-1.36-2.23-2.33a11.14,11.14,0,0,0-9.31-6.25c-16.32-1.8-32.66-3.36-49-5-3.09-.31-6.16-.69-9.25-1-2.05-.43-4.44-.83-4.24-3.54.5-6.9.71-13.87,2.76-20.56,2.37-1.14,3.63.89,5,2,3.51,2.94,6.94,6,10.56,8.77,5,3.85,10.47,6.41,17,6.27,3.51-.08,6.54-.88,9.1-3.27,4.05-4.41,3.69-9.37,1.86-14.52-.86-1.7-1.26-3.61-2.43-5.15-6.12-8.62-15-14.3-22.67-21.26-3.56-2.75-6.68-6.06-10.56-8.42-1.36-1.44-2.92-2.72-3.61-4.68-.59-4.86.86-9.56,1.21-14.34.3-4.11.85-8.21,1.38-12.3C278.28,125.62,278.48,124.24,279.7,123.32Z"/><path class="cls-4" d="M272.8,217.23q14.18,1.32,28.34,2.66c7.4.71,14.79,1.47,22.19,2.19,2.84.28,5.72.37,8.54.81,5.58.87,8.77,4.54,10.64,9.6-.43,8.37-2.89,16.39-4.29,24.6-2.2,12.82-5.11,25.52-7.33,38.34-1.33,7.7-7.54,13.49-17.24,11.44-11-2.33-22-5.22-33.19-6.81-.68-.39-1.61-.26-2.12-1-1.86-3.14-.85-6.67-1.33-10a120.1,120.1,0,0,1-1.08-12.86c-.05-2.59-.87-5.11-.69-7.72.09-1,0-2,0-3-.13-2.76.41-5.55-.42-8.27-.06-4.36-1.49-8.66-.69-13.06a16,16,0,0,1,2.37-4,9,9,0,0,0,1.29-7.4c-.13-3.16,0-6.36-2.27-9-1.12-1.3-2.18-2-3.72-.75-1.9-1.29-.79-2.65-.1-4A3.1,3.1,0,0,1,272.8,217.23Z"/><path class="cls-5" d="M253.38,315.47,250,316.66a1.61,1.61,0,0,1-2.43-.17c-3.44-9.68-11.51-14.15-20.18-18-6.51-2.88-13-5.9-19.46-8.82-1.28-.57-3.21-1-3-2.86.2-1.59,2.06-1.58,3.28-2.12a12.86,12.86,0,0,1,2.58-.95,3.68,3.68,0,0,1,1.68.13c11.63,4.66,23.22,9.44,34.86,14.11,3.18,1.28,3.42,1.15,3.81-2.3,2.81-25,5.46-50.05,8.27-75.06,2.46-21.93,4.66-43.88,7.3-65.79,1-8.56,1.37-17.19,2.7-25.71.38-2.42-.65-3.66-2.9-4.26-10-2.66-19.84-5.92-29.81-8.68a12.39,12.39,0,0,1-4.47-1.73c-1.2-1.33-2.33-2.73-3.41-4.16-1.14-2.77-3.62-4.08-6-5.43a91.59,91.59,0,0,0-8.72-4.15c-1.86-.79-4-1.39-4.84-3.59-.17-4.34.85-5.21,5-4,13.47,3.86,27,7.54,40.41,11.55,4.4,1.31,8.9,2.23,13.27,3.68a10.1,10.1,0,0,1,6.9,7,28.87,28.87,0,0,1,.8,12.65c-2.1,16.3-3.82,32.64-5.64,49-2.45,21.91-5.17,43.79-7.36,65.73-1,10.17-2.41,20.29-3.51,30.45-1.25,11.54-2.4,23.08-3.94,34.59C254.86,310.42,253.82,312.87,253.38,315.47Z"/><path class="cls-6" d="M183.63,321.07l-10.82-4.43a40.44,40.44,0,0,1-19.51-11.42,16.9,16.9,0,0,1-4.92-8.54c-1.09-4-1.45-4.17-5.46-3.71a30,30,0,0,1-20.62-5,7.26,7.26,0,0,1-.77-.7c-3.11-3.22-3.12-3.24-7.13-1.07-7.71,4.15-15.61,5.67-24,2-1.47-1.2-3.37-2.13-3-4.55a26.54,26.54,0,0,1,5.77-4,9.67,9.67,0,0,0,8.63-6c.69-.75,1.33-1.62,2.56-1.2,1.1,1.88-.24,3.2-.76,4.43,1.86-1.54.74-4.61,2.4-6.58,4.08-3.16,8.52-5.84,12.67-8.91a2.78,2.78,0,0,1,2.22-.76c1.91,1.13,3.8,2.28,3.71,4.92-1.32,2.7-4.23,4.25-5.24,7.2-.4,1.18-1.29,2.4-.32,3.56.83,1,2.13.61,3.27.47,12.2-1.57,24.52-2,36.71-3.67a5.16,5.16,0,0,1,3.36.48c1.94,1.69,1.65,3.81,1.16,6-.57,1.25-1.79,1.25-2.89,1.52a18.22,18.22,0,0,0-7.4,3.51c-2.41,2-2.37,2.75.38,4.05,9,4.26,18.1,8.38,27.17,12.52,2.07.95,4.36,1.52,5.8,3.51a2.34,2.34,0,0,1,.2,1.07c-1.14,4.35-2.62,8.63-2.27,13.24A2.34,2.34,0,0,1,183.63,321.07Z"/><path class="cls-7" d="M253.38,315.47c-1-.14-1.48-.46-.9-1.58,2.66-5.05,2.24-10.73,3-16.13,1.79-13.4,3.18-26.85,4.69-40.29,1-9.23,1.95-18.48,3-27.71,1.3-11.5,2.7-23,4-34.49,1-9,1.89-18,2.92-27,1.49-13.1,3.11-26.18,4.57-39.28a34.91,34.91,0,0,0-.4-12.68c-1-3.75-3-6.16-6.93-7.23-12.62-3.42-25.17-7.06-37.74-10.62q-7.28-2.05-14.54-4.15c-4.77-1.38-4.77-1.4-5.1,3.38a1.92,1.92,0,0,1-2.51-.89c-.8-2.37-.39-4.85-.62-7.27-.06-.63,0-1.39,1-1.31a11.07,11.07,0,0,0,6,3.55c18.53,5.21,37,10.56,55.55,15.73,7.61,2.13,9.69,4.44,10.2,12.38.08,1.14.11,2.29.16,3.44-1.15,10.44-3.07,20.81-3.32,31.35,1,1.61.45,3.29.23,5-.37,2.8-.77,5.6-1,8.42a29.21,29.21,0,0,0-.54,5.2c-.84,5.26-.61,10.64-1.81,15.86-.26,1.53.17,3.25-1.31,4.41-.87,7-1.65,14-2.66,20.91-.5,3.36,2.69,1.47,3.55,2.8,0,.68-.05,1.37-.08,2.05-2,.6-4.12,1.17-3.14,4.16a16.49,16.49,0,0,1,2.9-.4c2.41.87,1.21,1.93.17,3-1.68,1-3.95,1.79-4.27,3.68a46.58,46.58,0,0,0-.84,9.8c.07,1.18.89,1.48,2,1.24a7.2,7.2,0,0,1,3-.43,3.9,3.9,0,0,1,2.3,3.19l.81,13.76c.22,1.52,1.08,3.68-.53,4.3-2.06.78-4.51.25-6.68-.58-1-.37-1.54-1.35-2.67-1.88-.87.92-.7,2.29-1.25,3.33a5.71,5.71,0,0,1-.47.88c-2.72,2.93-4.25,6.17-3,10.28,1.77,5.65,7.84,7.59,12.61,4,.95-.72,1.65-2,3.18-1.56q1,11.63,1.94,23.25c-4.15.71-8.07-.65-12.06-1.38-1.91-.35-3.78-.89-5.82-1.29-.22,3.28-.81,6.43-1.06,9.64-.18,2.27-.35,4.62-2.3,6.28C256.36,313.81,255.38,315.36,253.38,315.47Z"/><path class="cls-3" d="M80.09,166.84c0-3.56,0-7.12,0-10.68,0-6.14.67-7.26,6.57-9.07a29.5,29.5,0,0,1,10.11-1.62c6.63.35,12.38-.92,17.47-5.84,3.73-3.6,8.5-6.16,12.93-9a29.15,29.15,0,0,0,4-3.19c1.27,1.12,1.13,2.66,1.15,4.11,0,4.08.1,8.17,0,12.25.12,3,0,6,0,8.92-.24,6.54,0,13.09-.1,19.64,0,.91,0,1.84,0,2.75-.11,1.2.23,2.94-1.25,3.19-1.26.22-1.56-1.46-2-2.47-2.57-6.29-5-12.63-4.25-19.65a3.47,3.47,0,0,0-.52-2.64c-8,4.27-16.9,4.1-25.72,3.9-2.79-.07-3.63,1.23-3.51,3.76a95.85,95.85,0,0,1-1.55,20.22c-.25,1.46-.26,3-1.86,3.84-4.82.17-9.45-.33-13.27-3.73-.54-4.06,1.36-7.65,2.47-11.33,1.36-4.5,1.22-9,1-13.51.08,2.4.08,4.82-.07,7.22C81.59,165.05,81.94,166.59,80.09,166.84Z"/><path class="cls-8" d="M131.33,144.07q-.11-8.31-.22-16.61-.24-22.08-.48-44.14a18.16,18.16,0,0,1,1.74-8.7c.81-1.55,1.71-3.05,3.81-3,9.06,1.07,17.53,4.44,26.26,6.78,8.2,2.2,16.35,4.61,24.51,7a5.18,5.18,0,0,0,3.33-.18C192,88,191.56,89.78,188.6,92c-3.46.6-6.71-.66-10-1.14s-6.74-1-10,.48c-1.45.87-2.23,2.69-4.12,2.93-3.38-.1-6.53-1.23-9.69-2.25-5.36-1.73-10.81-3.12-16.18-4.82-1.87-.59-3.25-.76-3.16,2.15.56,17.33.19,34.67.23,52a6.27,6.27,0,0,1-.44,2.22C134.06,145.09,132.69,144.53,131.33,144.07Z"/><path class="cls-3" d="M153.84,305.05c5.3,5.55,12.38,8.16,19,11.59-3.21,1.58-6.79,1-10.13,1.25-9.24.81-18.57,1.48-27.85.82-12.64-.89-25.37-1.73-37.36-6.3-8.24-3.13-15.45-8-20.75-15.23,1.49-.6,2.29.56,3.26,1.29a32.37,32.37,0,0,0,13.49,6.33c15.23,4.35,30.63,4,46.09,1.67,3.07-.46,6.14-.9,9.19-1.51A8.66,8.66,0,0,1,153.84,305.05Z"/><path class="cls-9" d="M92.61,305.55c-6.08-1.3-11.1-4.62-15.89-8.37a19.35,19.35,0,0,1-5.11-12.09c-.55-7.2-1.66-14.36-2.54-21.54,2.86,1.17,4.49,3.59,6.12,6,1,6,1.84,12,2.29,18.08.43,5.89,3.53,9.2,8.58,11.29,2.65,1.1,3.23.7,3.44-2.14s-.51-5.51.6-8.17c.89-.83,1.51-.05,2,.47,6.25,6.44,13.47,5.26,20.79,2.55a28.81,28.81,0,0,0,7.77-4.41,1.75,1.75,0,0,1,1.63-.29l0,0a23,23,0,0,0,10.41,7.55c1.35.52,3.19.73,3.37,2.52s-1.48,2.47-2.69,3.27A42.08,42.08,0,0,1,115,306.69a53.51,53.51,0,0,1-21.09-1.35A1.79,1.79,0,0,0,92.61,305.55Z"/><path class="cls-10" d="M183.63,321.07c-.16-5.59.26-11.08,3-16.13,4.85.25,8.9,2.84,13.07,4.81,9.63,4.54,19.32,8.94,29,13.42,1.23.57,3.43.68,2.69,3.11-3.27,5.66-11.09,8.44-19.37,6.66C201.81,330.75,192.91,325.44,183.63,321.07Z"/><path class="cls-11" d="M231.35,326.28c-2.07-3.27-5.93-3.77-9-5.11-7.29-3.2-14.42-6.77-21.71-10-4.69-2.06-9.36-4.17-14-6.25l-.27-.11a24.22,24.22,0,0,1,11.37-13.32c10.51,4.54,21.54,8.09,30.3,15.95,3,3.86,5.72,7.8,5.66,13a8.23,8.23,0,0,1-1.47,5.18Z"/><path class="cls-12" d="M74.57,269.08a30.31,30.31,0,0,1-5.5-5.53c-2-13.69-3.07-27.5-5.44-41.15a14.76,14.76,0,0,1-.05-2.4c2.45,1.51,3.69,4.28,6,5.9a3.19,3.19,0,0,1,.64,1.47c2,12.23,2.71,24.62,4.51,36.88a31.21,31.21,0,0,1,.66,4.42A.56.56,0,0,1,74.57,269.08Z"/><path class="cls-13" d="M69,226.15A13.93,13.93,0,0,1,63.58,220c-.69-5.35-1.28-10.72-2.08-16.05-1.38-9.13,2-16.17,9.19-21.63,1.46-1.11,3-2.07,4.56-3.09,1.92-.63,2.68.38,3,2.08a2.34,2.34,0,0,1-1.72,1.28c-5.55,2.74-9.16,6.9-9.22,13.33-.07,8.73,1.08,17.38,2.24,26C69.69,223.38,70.28,224.89,69,226.15Z"/><path class="cls-14" d="M257.55,312.55a66.52,66.52,0,0,0,2.15-13.81c.18-2.3.7-3.44,3.42-2.77,5.19,1.28,10.45,2.24,15.68,3.33l1.66.76c-4.35-.44-6.39,3.46-9.61,5.17C266.38,307.6,262.73,311.45,257.55,312.55Z"/><path class="cls-15" d="M232.2,325.65c2-7.27-.84-13.07-5.5-18.32,2.1-.76,3.83.53,5.49,1.29,5.27,2.42,11.09,3.67,15.73,7.4.52.76,1.37.46,2.07.64-2.64,2.85-6.38,3.78-9.68,5.45C237.68,323.44,234.91,324.48,232.2,325.65Z"/><path class="cls-16" d="M188.48,91.49c1.78-1.72,2.87-3.61,1.42-6.09-1.27.31-2.34.17-2.85-1.26,6.27-2.9,12,1.22,18,1.38a2.89,2.89,0,0,1,2.68,2.7c.1,2.91.19,5.83.29,8.74a1.94,1.94,0,0,1-1.93.38c-5.59-1.27-11-3.26-16.56-4.61A1.68,1.68,0,0,1,188.48,91.49Z"/><path class="cls-17" d="M187.05,84.14l2.85,1.26c.25,2.11-1.08,1.48-2.13,1.19-12-3.38-24-6.63-35.91-10.23-5.23-1.59-10.68-2.41-15.68-4.71a10.85,10.85,0,0,1,7.37-.05Q165.28,77.93,187.05,84.14Z"/><path class="cls-18" d="M78.09,181.26c-.77-.93-1.42-2-2.84-2,2.48-1.9,2.52-4.91,3.43-7.52.55-1.59.95-3.24,1.41-4.87,1.43-2.7.35-5.6.65-8.39.18-1.65-.28-3.36.67-6,2,5.33,1.77,9.89,1,14.37-.81,4.94-3,9.56-3.74,14.55A.38.38,0,0,1,78.09,181.26Z"/><path class="cls-19" d="M271.91,193.52l.51-4.52c3.07-2.95,6.88-5,9.94-7.92a2.27,2.27,0,0,1,1,0c4.54,2.58,8,6.48,12,9.74q8.4,6.87,16.56,14c1,.87,2.44,1.53,1.65,3.3-6.14,5.77-13,4.41-19.79,1.72-7.92-3.15-13.43-9.73-20-14.83C273.15,194.53,272.54,194,271.91,193.52Z"/><path class="cls-20" d="M313.55,208.13c-1-2.94-3.88-4.09-5.93-5.93-8-7.14-16.29-14-24.47-20.9a2.26,2.26,0,0,1,.52-2.21,36.2,36.2,0,0,0,5-11.15,2,2,0,0,1,1.44-1.72c7.89,6.81,16.83,12.49,22.85,21.31-.73,1.69-1.6.38-2.27,0-2-1.06-3-.25-2.88,1.69.27,3.11,1,6.15,3.54,8.36.68.6,1.36,1.43,2.39.95s.83-1.5,1-2.4c.2-1.25-1.48-3,.86-3.71C317.28,198,318.23,203.41,313.55,208.13Z"/><path class="cls-21" d="M290.09,166.22a37.72,37.72,0,0,1-6.94,15.08,4.87,4.87,0,0,1-.54,0c-3.9-1.74-5.62-4.88-5.82-9,.94-3.45,1-7,1.29-10.52.12-1.46-.12-3.07,1.55-3.91C283.65,160,286.7,163.31,290.09,166.22Z"/><path class="cls-22" d="M315.54,192.43c-1.37,1.53.59,2.92.19,4.47-.3,1.12-.34,2.36-1.48,2.89s-2.1-.21-3-1c-2.71-2.31-3.59-5.48-4.33-8.72-.34-1.5-.3-3,1.18-4s2.53.14,3.5,1.15c.38.39.77.93,1.37.26C314.8,188.64,314.23,191,315.54,192.43Z"/><path class="cls-23" d="M279.63,157.87c-.89,4.23-1,8.54-1.35,12.82-.06.77.68,2.44-1.37,1.66l-.28-.35a6.21,6.21,0,0,0-1.85-3.78c0-4.58.92-9.05,1.6-13.55A8.61,8.61,0,0,1,279.63,157.87Z"/><path class="cls-24" d="M283.1,278.77c-4.72-10.83,6.69-20.2,18.66-17.84,4.83.94,9,3,12,7.28,2,2.86,1.95,6,1.94,9.22.45,3.49-1.43,5.87-3.92,7.84-7.55,6-19.69,5.22-26.42-1.7C284.08,282.26,282.93,280.8,283.1,278.77Z"/><path class="cls-24" d="M291.42,240.76c-2-12,7.1-20.37,19.21-17.68,3,.67,6,1.34,8.44,3.48,3.31,2.88,5.38,6.23,4.88,10.79.34,3.6-1.62,6.1-4.13,8.21a20.52,20.52,0,0,1-25.25.29C293,244.56,291.57,243,291.42,240.76Z"/><path class="cls-25" d="M263.8,262.83c.32-1.87.64-3.74,1-5.87,2.37,1.48,3.88,3.7,7.17,4,3.85.39,3.7-1.26,3.66-3.73,1.34,2.7.15,5.58.56,8.35-1.12.4-1.9-.46-2.82-.79-1.28-.46-2.42-.47-3.32.74a5.87,5.87,0,0,0-2.81,4.88c-.56.54-1.19,1.05-.89,2,.68-.52.2-1.55.91-2,.65-1,.52-2.94,2.63-2.16a1.51,1.51,0,0,1,.51,1.53c-.19,1-.92,2.38,1.2,1.16.53-.31,1.23.48,1.49,1.14a2.49,2.49,0,0,1-.72,2.8c-1.2,1.28-2.89,1.14-4.8,1.4,3.24.84,5.3.05,6.05-2.19s-.18-4-2.42-4.9a4,4,0,0,1-1.36-1,1.91,1.91,0,0,1,.06-2.46c3.05-1.18,4.1-.75,6.28,2.59.23,2.58.45,5.17.67,7.75-2.32,1.72-4,4.25-7.56,4.15-3.74-.11-6.72-1-8.44-4.57A10.13,10.13,0,0,1,262,264.37a10.89,10.89,0,0,1,1.82-1.54c1.24,2.49,2.33.61,3.69,0C266.08,262,265,263.51,263.8,262.83Z"/><path class="cls-26" d="M283.1,278.77c4.13,9.52,18.79,12.65,27.31,6.43a13.12,13.12,0,0,0,5.28-7.77c2.47,6.14-1.94,11.08-6.61,13.74-7.51,4.28-17.93,2.26-23.49-4.2C283.63,284.69,281.78,282.15,283.1,278.77Z"/><path class="cls-27" d="M291.42,240.76c5.29,9.39,19.05,10.41,26.3,5.31a15.25,15.25,0,0,0,6.23-8.72c1.82,4.61-.15,8.43-3.15,11.49-7.31,7.46-20.89,6.69-27.68-1.29A6.91,6.91,0,0,1,291.42,240.76Z"/><path class="cls-28" d="M272.11,225.55c.55-.35,1.28-.6,1.28-1.38s-.77-.59-1.26-.72c-.23-.08-.33-.2-.3-.35s.1-.25.16-.25c.19-2.54,1.23-2.62,2.93-1a10.93,10.93,0,0,1,3.44,10.71c.56,2-.58,3.43-1.62,4.87-.8,1.09-1.68,2.34-3.17,2.22-1.69-.13-1.81-1.75-2.25-3C271.24,232.89,270.19,229.11,272.11,225.55Z"/><path class="cls-29" d="M326,299.46a6.65,6.65,0,0,1-6.54,6.18c-2.24-.08-3.71-1.31-3.78-3.61-.07-2.56,3.87-6.08,6.69-5.93C324.8,296.24,326,297.79,326,299.46Z"/><path class="cls-30" d="M272.2,237.2c.56,1.92,1.35,2.67,2.95.74a15.5,15.5,0,0,0,3.21-5.43c1.94,4.67-.55,7.92-3.54,11-1.12-.6-1.38-1.84-2-2.77C271.35,239.76,270.93,238.62,272.2,237.2Z"/><path class="cls-31" d="M272,222.85a4,4,0,0,0,.14.6c-1.49,0-2.16,1.56-3.53,1.93-.19-6.28-.19-6.28,4.12-6.1C271.89,220.35,270.69,221.34,272,222.85Z"/><path class="cls-32" d="M270,265.59c-.27-2,.88-2.26,2.42-2a8.62,8.62,0,0,1,3.74,2c0,.9,0,1.79,0,2.68-1.82-1.42-3.51-3.14-6.15-2.71Z"/><path class="cls-24" d="M134.7,142q-.1-24.48-.2-48.95a34.12,34.12,0,0,0-.13-3.79c-.46-4.24-.45-4.33,3.5-3.22,9,2.54,18.06,5.17,27.09,7.76,1.43.37,1.56,1.58,1.63,2.71.12,2,1.18,3,3,3.63,17.72,5.91,35.61,11.29,53.37,17,1.92.62,3.11.37,3.38-1.88a3.11,3.11,0,0,1,2.1-2.88,3.6,3.6,0,0,1,3.59,1.21c11.76,3.49,23.5,7,35.31,10.39,2.8.79,3.59,2.07,3.21,4.89-1,7.6-1.8,15.24-2.65,22.87q-1.59,14.17-3.13,28.36c-1.29,12-2.53,23.93-3.83,35.9-1.23,11.28-2.53,22.55-3.76,33.83-1.31,12-2.57,23.95-3.86,35.92-.46,4.33-1,8.66-1.39,13-.16,1.59-.81,1.94-2.27,1.31-12.54-5.36-25.38-10-37.77-15.75a.94.94,0,0,1,.35-1.2,42.77,42.77,0,0,0,7.25-5.67,3.17,3.17,0,0,1,2.22-.79c3.6,1.46,6.92,3.64,10.86,4.25a54.34,54.34,0,0,0,6.39,2.46c1.4.47,2.73.75,3.64-.76s1.2-3-.38-4.29a2.92,2.92,0,0,1-1.14-2.05,34.38,34.38,0,0,0-4.58-27.54,4.39,4.39,0,0,1-.76-2.25c.25-1.45,1.3-1.41,2.37-1.21,1.25.23,2.4.8,3.62,1.12s2.66,2,3.55.12a4.45,4.45,0,0,0-.86-5.14,7.68,7.68,0,0,0-3.06-1.53c-13.28-4.81-26.53-9.7-39.79-14.56-1.35-.5-3.2-2.28-4.41.19-.93,1.9.3,4.19,2.65,5.25,3,1.37,6.19,2.46,9.34,3.56,1.54.55,3.51.92,3.29,3.33-3,4.9-3.15,10.34-3,15.83-.25,2.08-1.59,2.58-3.42,2.34-4.81-.62-9.55,0-14.29.7a6.08,6.08,0,0,1-2.29.07c-1.39-.46-2.89-.34-4.28-.81a37.94,37.94,0,0,0-6.33-2.6c-1.5-.46-3.13-.87-3.78-2.62,1.22-3.23,2.22-6.57,4.37-9.36,2.34-.68,4.16.91,6.21,1.46,1,.27,2,.8,2.86-.22a3.16,3.16,0,0,0,.26-3,5.14,5.14,0,0,0-3.59-3.4,53.05,53.05,0,0,1-6.45-2.38,7.46,7.46,0,0,1-2.07-1.64,12.5,12.5,0,0,0-8-4.75c-1.53-.32-2.89-.89-3-2.72s-.52-3.74,1.86-4.52c4.53.4,8.41,2.78,12.61,4.17,1.62.54,3.14,1.42,4.78,1.91,1.29.38,2.84,1.66,3.89-.36,1-1.87,0-4.79-2-5.48-3.8-1.3-7.44-3-11.25-4.24a39.4,39.4,0,0,1-7.61-3.12,3.34,3.34,0,0,1-1.32-1.55c-.52-2.47-.94-4.92.67-7.19,1.28-1,2.62-.6,3.89,0,4.73,2.1,9.75,3.41,14.51,5.44,1.24.53,2.72,1.77,4,0,1.05-1.55.4-4.37-1.32-5.54a22,22,0,0,0-5.39-2.24c-5.22-1.76-10.53-3.29-15.43-5.89a2.75,2.75,0,0,1-.74-.78,52,52,0,0,0-2.34-6.35c-.59-1.26-1-2.72,1.18-3,5.36.87,10.27,3.17,15.37,4.84,1.85.61,3.56,1.66,5.47,2.06,1.44.3,3.14,1.58,4.28-.47.82-1.48-.46-4.8-2.1-5.69a17.72,17.72,0,0,0-2.58-1c-11.63-4.24-23.42-8-35-12.49a3.39,3.39,0,0,1-1.14-1.18,27.94,27.94,0,0,1-1.76-5c-.32-1.2-.52-2.44.89-3.19,1.67-.54,3.19.16,4.68.7,8.76,3.18,17.72,5.74,26.52,8.79,4.08,1.43,8.2,2.7,12.31,4,5.64,1.58,5.63,1.58,6.16-4.41.78-8.8.72-17.64,1.37-26.44.56-7.46.44-14.91.73-22.36.09-2.36-.54-3.52-2.88-4.2-16.1-4.66-32.15-9.51-48.2-14.34-1.9-.57-3.83-1.73-6-.67-.88,1.26-.53,2.69-.53,4,0,10.71,0,21.41,0,32.11,0,2.07.17,4.33-2.83,4.64S135.53,144.64,134.7,142Z"/><path class="cls-33" d="M247.92,316l-21.21-8.69c-8.7-7.11-19.33-10.52-29.27-15.24-3.28-1-6.79-1.5-9.11-4.46a1.36,1.36,0,0,1,1-1.28c4.77-1.15,8.74-4,13-6.12,3,.8,6.27,1.12,8.27,4-1.44,1.47-3.52,1.52-5.41,2.44.67,1.56,2.28,1.79,3.5,2.37,8.52,4,17.2,7.62,25.57,11.87C240.64,304.15,246.06,308.58,247.92,316Z"/><path class="cls-34" d="M188.48,91.49,208.07,97l1.82.73c5.64,3.17,12.06,4.84,17.2,9,1.14.92,2.52,1.69,2.1,3.54a1.53,1.53,0,0,1-1.06.27c-9.25-2.71-18.53-5.36-27.78-8.11-9.79-2.91-19.53-6-29.4-8.65-1.52-.4-3.25-.72-3.27-2.89,3.23-2.46,6.85-1.27,10.31-.94S185,90.94,188.48,91.49Z"/><path class="cls-35" d="M210.65,284.26l-8-3.62c.93-3.36,3.47-5.9,4.65-9.15a3.23,3.23,0,0,1,2.67.1c3.44,1.31,6.76,2.92,10.27,4.06.76.24,1.52.61,1.59,1.6-3.72,1.76-6.11,5.39-9.89,7.08Z"/><path class="cls-36" d="M228.66,110.28l.53-.07c1.25.9,2.7,1.62,2.88,3.41l-3.38-.73C227.13,112,227.59,111.16,228.66,110.28Z"/><path class="cls-37" d="M162.19,273.89q-13.41,1.31-26.83,2.63c-4.87.48-9.72,1.08-14.6,1.48-3.49.29-4.09-.87-2.92-4.34,1.23-3.66,4.21-5.91,6.5-8.72,3.19-3.73,7.62-4.92,12.14-5.74,5.63-1,11.4-1.06,17-2,2.27-.12,4.54-.42,6.78.19a2.66,2.66,0,0,1,1.94,2.21c.23,4.62,1.14,9.23.42,13.88Z"/><path class="cls-10" d="M153.36,258c-4.12,1-8.36,1.13-12.56,1.48a38.51,38.51,0,0,0-16.46,5.46l-3.56-4.13c.06-.15.12-.31.17-.46,1.94-2.34,4.55-3.87,7-5.51,9.73-6.51,19.12-13.5,28.78-20.1,1.57-1.08,2.95-2.63,5.11-2.61,1.48.69,1.92,2.11,2.46,3.47.42,3,.64,6-.47,8.89a32.5,32.5,0,0,1-4.4,8.16C157.7,254.76,156.34,257.29,153.36,258Z"/><path class="cls-20" d="M188.36,287.59l9.08,4.5c-4.76,3.33-7.92,8-11.1,12.75l-24.57-11.47c-3.43-1.6-6.8-3.34-10.29-4.75-2.08-.84-1.79-1.71-.6-3A16.77,16.77,0,0,1,163,280.05c2.61-1.61,5.29-.86,8-.26,1.42.3,2.81.75,4.22,1.1,3.4,1.27,6.64,2.94,10,4.31C186.46,285.7,187.84,286.11,188.36,287.59Z"/><path class="cls-10" d="M171.32,280.45l-8.28-.4c-.27-2.06.32-4.23-.85-6.16l.24-.05a4,4,0,0,1,3.31-1.53c3.44-.23,6.84-.83,10.28-1,.69,0,1.68-.37,2,.08,1.63,2.25,3.24.45,4.83.1a130.32,130.32,0,0,1,23.87-2.83c1.8.66,1.48,1.86.8,3.15-.57,3.52-2.56,6.26-4.88,8.8-4.21,3.47-9.2,5.31-14.28,6.95l-13.08-6C174.23,280.21,173.2,278.82,171.32,280.45Z"/><path class="cls-7" d="M92.61,305.55c2.72-1.33,5.32.23,8,.44,11.75,1,23-.14,33.05-7,.82-.56,2.11-.9,1.94-2.1s-1.48-.91-2.3-1.18c-4.18-1.41-7.9-3.49-10.53-7.15a5.1,5.1,0,0,1-.47-1.62A29.45,29.45,0,0,0,143.32,292c1.24-.17,2.51-.11,3.77-.17.89,0,1.43.1,1.5,1.26.26,4.63,2.56,8.41,5.25,12-17.17,3.42-34.42,5.54-51.9,2.65C98.79,307.18,95.71,306.28,92.61,305.55Z"/><path class="cls-5" d="M74.57,269.08h.65c3.72,1.43,8,1.53,11,4.73a6.63,6.63,0,0,1,.34,2.12c-.39,2.69.79,5.19,1,7.8l3,3.62a.65.65,0,0,1,0,1c0,3.22-.14,6.44,0,9.65s-1.35,3.24-3.65,2.35c-6.23-2.41-10.21-6.13-10.38-13.6C76.32,280.89,74.81,275,74.57,269.08Z"/><path class="cls-20" d="M120.78,260.81c-4.7,3.38-9.22,7-14.36,9.71a1.67,1.67,0,0,1-1-.93c-1.46-4.61-4.33-7.57-9.3-8.22a1.67,1.67,0,0,1-1.4-1.7c.11-1.72,1.39-2.55,2.62-3.36,3.44-2.26,6.68-4.8,10.11-7.06,2.62-1.19,4.36-4,7.53-4.2a1.74,1.74,0,0,1,1.61,1.52c.65,4.67,2.69,8.86,4.45,13.16a1.79,1.79,0,0,1,0,1Z"/><path class="cls-7" d="M90.49,288.37l0-1c9,4,17.35,2,25.22-3.12,1.95-1.29,3.47-1.9,4.77.73a9,9,0,0,0,1.85,2c-5.57,4.69-11.85,7.51-19.25,7.7A14.21,14.21,0,0,1,90.49,288.37Z"/><path class="cls-38" d="M104.22,272.49l-2,1.43c-1-.8-.83-2.06-1.15-3.13-1-3.25-4.19-5-7-3.8-2.22.95-3.22,2.78-2.57,5s2.3,3,4.58,2.15c-2.29.71-3.65-.31-4.14-2.44-.43-1.84,1.27-3.81,3.32-4.07a4.67,4.67,0,0,1,4.54,1.9,4.87,4.87,0,0,1,.52,5.21c-2,4.53-8.32,5.15-11.4,1.09a10,10,0,0,1-2.09-6.1,8.87,8.87,0,0,1,3.35-5.65c5.93-3,11.91-1.32,14.12,4C105,269.54,105.57,271.07,104.22,272.49Z"/><path class="cls-39" d="M87.57,269.61a42.88,42.88,0,0,0,1.5,4.91,5.45,5.45,0,0,0,5.23,3.32,5.75,5.75,0,0,0,5.34-3.2,4.2,4.2,0,0,0-.25-4.54,4.15,4.15,0,0,0-4.2-1.74c-1.4.15-1.88,1.15-2.37,2.21-.61,1.34.08,2.26,1.1,2.91,1.27.8,1.88.16,2.08-1.16.09-.61.4-1.15,1.14-.79s.8,1,.52,1.74a2.9,2.9,0,0,1-3.19,2,3.86,3.86,0,0,1-3.94-3.18,4.76,4.76,0,0,1,2.32-5.6,5.67,5.67,0,0,1,6.48.12c2.62,1.74,3.09,4.4,2.94,7.28-1.42,4.41-4.52,6.36-9.06,6.24-3.56.49-5.53-.63-7.4-4.2v-2.14C85.71,272.13,85.28,270.3,87.57,269.61Z"/><path class="cls-40" d="M104.22,272.49c1-6.28-6.17-11.75-13.86-7.62-.69-2.7,1.88-3.43,3-5a2.13,2.13,0,0,1,1.79-.6c.12.71.33,1.39,1.18,1.44,6.22.35,8.83,4.37,10,9.83-1,2.32-.36,5.36-3.12,7.16C103,275.74,104.65,274.28,104.22,272.49Z"/><path class="cls-41" d="M85.81,276c2.12,2,4.23,4,7.4,4.2-1.81,1.34-3.33,3.15-5.71,3.57C85.6,281.43,85.41,278.76,85.81,276Z"/><path class="cls-42" d="M276.91,172.35a19.7,19.7,0,0,0,5.69,9A26.08,26.08,0,0,1,272.42,189c.61-5.32.66-10.7,1.8-16,.79-.69,1.62-1.22,2.72-.67Z"/><path class="cls-43" d="M272.2,237.2a4.59,4.59,0,0,0,.58,3.54,2,2,0,0,0-.34,0c-6.27,1.85-6.94,1.17-5.52-5.53a7.7,7.7,0,0,0,.31-2.71c-.74-4,1.73-5.72,4.88-7Z"/><path class="cls-44" d="M276.94,172.37a4.48,4.48,0,0,1-2.72.67c-.12-1.64-.42-3.3.56-4.82C277.56,168.53,277.58,170.27,276.94,172.37Z"/><path class="cls-45" d="M91.17,184.8c1.42-1.53,1-3.52,1.38-5.33a71.88,71.88,0,0,0,1.3-18.79c-.2-3.26.68-4.39,4.1-4.26,6.4.24,12.83.44,19.15-1.25a21,21,0,0,0,8.77-4.32c-1.25,10,.94,18.66,5.44,27.92V153a1.84,1.84,0,0,1,1.46,2c.15,7.94.71,15.88-.3,23.8-.59,1.33-2.12,1.3-3.06,2.14-6.51,4-13.89,4.71-21.19,5.47a102.29,102.29,0,0,1-13.45.05C93.43,186.41,91.64,186.92,91.17,184.8Z"/><path class="cls-46" d="M91.17,184.8c2.72,1.27,5.6.47,8.41.62a71.53,71.53,0,0,0,23.72-2.78,15.07,15.07,0,0,0,5.84-2.8c3.14,0,2.11,2,1.63,3.52-.41,1.25-1.69,1.83-2.85,2.35a53.41,53.41,0,0,1-20.64,4.88c-7.23.16-14.44.17-21.53-1.71a28.38,28.38,0,0,1-7.4-2.7c-1.47-.88-3-2-1.66-4.11l1.4-.81a1.23,1.23,0,0,0,.63.1C82.57,183.57,86.85,184.25,91.17,184.8Z"/><path class="cls-47" d="M131.81,179.25c-.07-8.77.43-17.55-.5-26.3,0-3,0-5.92,0-8.88,1.09-1,2.12-.18,3.17.1a4,4,0,0,1,1.2,3.44q.12,15,0,29.9a6.34,6.34,0,0,1-.52,2.68C133.57,181.65,132.49,181.16,131.81,179.25Z"/><path class="cls-48" d="M134.72,180.75q-.12-18.28-.22-36.58c.07-.73.13-1.46.2-2.19,1.27,2.92,4,2.61,6.36,2.59,1.81,0,1.16-1.94,1.17-3.06,0-11.78,0-23.56.05-35.33,0-1.19-.51-2.55.7-3.52,1.08,1.23,1.05,2.75,1.05,4.24,0,12.63.1,25.25-.05,37.87-.11,4,.09,8-.09,12-.14,3,1,4.84,3.83,5.63.74.31,1.52.57,1.45,1.6-1.29,2.87,1.31,5.07,1.33,7.71-1,.93-2.12.48-3.24.23-2.81-.65-3.79.32-3.27,3.12.35,1.93,1.62,2.84,3.37,3.5,5,1.9,10.19,3.46,15.17,5.53,1.06.68,3,0,3.17,2.06-2.28.44-.77,1.7-.41,2.47,1,2.05,2.17,4,1.85,6.39-2.28.77-4.3-.34-6.24-1.12-4.59-1.84-9.3-3.34-13.9-5.12a3.34,3.34,0,0,0-3-.16c-.42.2-1,.61-1.27.39C139.88,186.48,136.31,184.55,134.72,180.75Z"/><path class="cls-49" d="M228.66,110.28c-.06.87-.72,1.75,0,2.61-1.41.64-1.48,1.9-1.51,3.2-.07,2.37-.93,3.18-3.47,2.35-14.8-4.82-29.65-9.5-44.47-14.23-3.16-1-6.26-2.29-9.49-3-3-.66-4.35-2.12-4.12-5.19a6.56,6.56,0,0,0-.67-2.25l2.72-3a4.17,4.17,0,0,0,3.07,2c11.92,3.13,23.68,6.79,35.44,10.44,6.44,2,13,3.72,19.42,5.62C226.68,109.19,227.88,109.31,228.66,110.28Z"/><path class="cls-8" d="M134.72,180.75c2.43,2.63,5.61,4.52,7.62,7.6.3.46.8,0,1.18-.14,1.67,2.4,2.06,5.26,2.9,8a47.75,47.75,0,0,1,.27,7.56c.06,2.92-.7,5.83-.05,8.75-.93,2.51-.62,5.12-.67,7.71-.09,1.68.44,3.54-1.29,4.79a2.62,2.62,0,0,0-2.84.48c-4.9,3.85-10.62,5.87-16.65,7.16A101.32,101.32,0,0,1,90.55,234c-5.94-1.38-12.12-1.84-17.68-4.68-1.22-.62-2.54-1-3.14-2.42l-.76-.77c-.79-7.36-1.53-14.73-2.39-22.09-.92-7.89-.92-15.47,6.4-20.79,1.06-.77,1.91-2.55,3.71-1.2-.31,2.58,1.69,3.25,3.44,4.07A39.59,39.59,0,0,0,94,189.41c10.87.81,21.77.59,32.08-3.83a12.82,12.82,0,0,0,3.31-1.77c1.53-1.29,2.12-2.78-.23-4,.73-.9,1.76-.49,2.67-.6A5.38,5.38,0,0,0,134.72,180.75Z"/><path class="cls-50" d="M69.73,226.92c6.42,3.63,13.64,4.64,20.67,6.29,1.67,2,1.07,4.38,1.08,6.62,0,2.85.38,5.74-.4,8.55-1,1.89-2.69,1.2-4.26,1.05-1.32-.13-3-1.44-3.66,1-.79,2.85.14,5.84,2.16,6.55a11.86,11.86,0,0,0,5.09.66c1.78-.18,3.21.24,3.5,2.32-.79,1.93-3,2.87-3.55,4.94a11.47,11.47,0,0,0-2.79,4.74c-1.22,1.14-1,2.87-1.77,4.21-3.25-2.19-7.57-2-10.58-4.74-2.22-2.32-1.49-5.45-1.87-8.14-1.56-11.11-2.64-22.28-3.88-33.43C69.45,227.32,69.64,227.11,69.73,226.92Z"/><path class="cls-51" d="M201.62,89.8c-.12,2-1.08,3.3-3.19,3.14-2.52-.18-3.49-2-3.55-4.22-.06-1.93,1.11-3.4,3.15-3.19C200.4,85.77,201.43,87.54,201.62,89.8Z"/><path class="cls-52" d="M294.22,263.64c2.28.44,2.46,2,2.92,3.18,2.12,5.42,4.11,10.9,6.17,16.35.25.66.66,1.29,0,1.85s-1.12.07-1.34-.48C299.21,277.75,296.18,271.07,294.22,263.64Z"/><path class="cls-53" d="M312.08,226.29l-2.58,5.44c-2.08,4.34-4.15,8.69-6.25,13-.33.69-.72,1.64-1.74,1.1-.57-.31-.33-1-.08-1.56q4.19-9,8.43-18a1.71,1.71,0,0,1,1.55-1.17C312,225.14,312,225.66,312.08,226.29Z"/><path class="cls-54" d="M270,268.36a3.93,3.93,0,0,1,4.71,3,4.77,4.77,0,0,1-2,5.44,5.82,5.82,0,0,1-6.45.29c-.4-.22-.78-.54-.54-1.07s.83-.7,1.42-.75c1.45-.12,3,.48,4.33-.51a2.13,2.13,0,0,0,1.11-2.31,1.51,1.51,0,0,0-.84-1c-1.35-.29-.94.94-1.18,1.57a1,1,0,0,1-1.34.64c-.65-.25-.65-.86-.47-1.44.4-1.3.81-2.6,1.22-3.9Z"/><path class="cls-55" d="M263.8,262.83a8.67,8.67,0,0,1,2-1.19c1.06-.28,2.6-.73,3.14.37.86,1.76-1.22,1.4-2,2s-1.86,1.23-2.82,1.85c-.71-1-.26-2.06-.39-3Z"/><path class="cls-56" d="M270,268.36c-1.52-.12-1.82,1.4-2.75,2.07h0c-2.27-3.44.26-4.14,2.77-4.85h0c0,.92,0,1.84,0,2.77Z"/><path class="cls-56" d="M267.26,270.43c0,.34.06.68.05,1,0,1,1.43,2.26-.21,2.9-1.12.43-1.47-.88-1.73-1.68-.51-1.61.23-2.36,1.89-2.23Z"/><path class="cls-45" d="M143,145.51V102.65c12.33,3.06,24.36,7.14,36.56,10.65,6.6,1.89,13.13,4,19.74,5.81,2.07.57,3.48,1,2.56,3.62a10.28,10.28,0,0,0-.15,3.43c.24,14.34-1.42,28.61-1.57,42.94,0,2.94-.54,5.92-.54,8.9,0,1.43-.4,2.24-2.05,1.65-1.83-.65-3.69-1.21-5.53-1.8-3.23-3.37-7.31-4.28-11.77-4.08-9.16-2.49-18.1-5.66-27.09-8.69-1.29-.43-2.65-.69-4-1a1.85,1.85,0,0,0-1.51-.75c-1.56-2.65-.88-5.56-.78-8.32C147,151.12,146.48,147.76,143,145.51Z"/><path class="cls-57" d="M251.16,210.85c-.44,5-.83,10.08-1.33,15.1-.23,2.25-.9,3.51-3.78,2.44-14.91-5.57-29.89-11-44.88-16.33-2.35-.84-3.27-2.23-3.14-4.62.28-4.93.53-9.87.7-14.81.09-2.69,1.05-3.37,3.69-2.42,12.29,4.43,24.62,8.74,37,13.06,2.92,1,5.87,2,8.81,2.92A3.9,3.9,0,0,1,251.16,210.85Z"/><path class="cls-9" d="M207.52,271.84c-.26-.92.36-2-.39-2.83-1.22-1.87-2.51-3.71-2.25-6.12,3-1.15,5.28,1.5,8,1.7,1.94,1.53,2.47,4,4,5.86,1.13,1.4,2.05,3,4.1,4.18-.41-2.73-3.2-3.85-2.88-6.32,1.11-1,2.38-.28,3.57-.36,1-2.9-1.8-6.52-5.44-7.11-1.55-1.66-1.38-3.93-2.13-5.87a18.47,18.47,0,0,1-.14-5.84c.82-6.21,6.14-8.94,11.67-6a16.21,16.21,0,0,1,4.68,3.47c5.06,5.72,8,12.25,7.46,20.07-.21,2.89-1.16,5.37-3.86,6.87-3.34,1.29-6.43,0-10.1-1.47,1.23,3.74,4,4.61,6.59,5.42,2.76.87,5.47.61,7.22-2.24,2.37-3.27,2.11-7.07,1.69-10.66a33.08,33.08,0,0,0-12.8-22.81c-3.06-2.41-6.77-4.11-10.56-2.16-3.63,1.87-3.64,5.74-3.78,9.39-.08,2.29,1.05,4.53.19,6.82a4.62,4.62,0,0,1-2.71,1.67c-2.13-1,0-3.11-1.06-4.39-.18-5.54-.69-11.16,3.51-15.73,2.15-4.2,6.44-3.9,9.59-3.11a21.27,21.27,0,0,1,14.46,12c4.25,6.69,7.34,13.73,7.11,21.91a22.78,22.78,0,0,1-1.64,8.38c-1.55,4.43-4.29,6-9,5-4.17-.07-7.45-2.36-10.85-4.35Z"/><path class="cls-58" d="M204.83,262.81c.94,2,2.55,3.76,2.3,6.2-3.23,1.47-6.75.56-10.11,1.32-4.8,1.09-9.8.92-14.67,2.22-2.33.62-2.2.85-1.06,2.94-3.25-5.37-7.62-2.81-11.41-2.51-2.48.19-5.06-.12-7.45.86a107.14,107.14,0,0,1-1.07-13.63,3.8,3.8,0,0,0-.83-2.55c2.48-2.33,5.78-1.12,8.6-2a6.76,6.76,0,0,1,1.19,0c3.84-.11,7.63-1.07,11.51-.71,2.48.4,5,.62,7.49.92l2.06-.18a19.07,19.07,0,0,1,11.07,4C203.55,260.44,204.72,261.24,204.83,262.81Z"/><path class="cls-45" d="M257.64,142.85c0,4.41-.08,4.48-4.13,3.21-11.9-3.74-23.79-7.51-35.71-11.17-3.06-.93-6.17-1.66-9.19-2.78-2-.72-2.27-1.9-2-3.67.9-6.81.92-6.94,7.52-5,12.73,3.82,25.41,7.76,38.1,11.72C257.28,136.78,257.61,137.36,257.64,142.85Z"/><path class="cls-49" d="M236.15,246.29c-3.18-3.55-6.13-7.26-10.46-9.63-4.77-2.62-9.28-2.56-13.59.71-.67-2.21-2.86-2-4.43-2.7-2.95-1.27-6-2.19-9-3.4-2.32-1-3.59-5.2-2.36-7.39,1-1.71,2.3-.65,3.33-.28,9.05,3.28,18.06,6.67,27.1,10,5.38,2,10.79,3.87,16.18,5.81a6.23,6.23,0,0,1,3.42,8.39c-.81,1.59-1.85.75-2.9.38C241.06,247.33,239,245.42,236.15,246.29Z"/><path class="cls-59" d="M165.7,186.2c-.78-1.35-2.63-.08-3.43-1.4-2.68-2-5.34-3.94-8.08-5.82-2.29-1.56-3.65-3.67-2.95-6.63Q170.13,179,189,185.56c2.42.85,3.83,6.14,2.28,8.15-.95,1.21-2,.72-3.09.33q-8.85-3.1-17.71-6.18Z"/><path class="cls-13" d="M144.4,224.89c1.1-1.52.39-3.28.63-4.91a2.38,2.38,0,0,1,2.59-.24C157,223.64,166.7,226.88,176,231a2.4,2.4,0,0,1,1.36,1l1.5,1.14c1.72,2.52,2.46,5.09.52,7.84a1.83,1.83,0,0,1-1.64.28c-4.74-2-9.92-3-14.24-6l-1.87-2.85a4.41,4.41,0,0,1-1.86-.86c-3.64-3.47-8.08-4.06-12.83-3.6-1,.1-2.05.52-2.94-.37A2,2,0,0,1,144.4,224.89Z"/><path class="cls-9" d="M145.8,195.91c-1.13-2.45-2.36-4.88-2.28-7.7.49-1.81,1.59-1.09,2.68-.7,7,2.54,14,5,20.94,7.55a4.87,4.87,0,0,0,.53.21,7.78,7.78,0,0,1,.17,8.23c-1.05.77-2.16.48-3.27.14-5.76-1.82-11.24-4.42-17-6.18A2.81,2.81,0,0,1,145.8,195.91Z"/><path class="cls-60" d="M177.39,232c-9.71-3-18.95-7.26-28.49-10.7A13.32,13.32,0,0,0,145,220c0-1.79,0-3.58,0-5.36,0-1,0-2.08,1.35-2.28,1.4-.87,2.66-.09,3.87.43,4.9,2.1,10,3.7,14.88,5.88.9.67,2.61.29,2.7,2-2.4.67-1.21,2.62-1.32,4-.14,1.73,1.4,1.34,2.44,1.6C172.41,227.2,175.74,228.32,177.39,232Z"/><path class="cls-49" d="M167.11,203.54c1.3-2.68.49-5.5.57-8.27,6.55,2.4,13.13,4.76,19.66,7.22a5.81,5.81,0,0,1,3.14,8.36c-.81,1.44-1.94.78-3,.38q-8.36-3.14-16.7-6.3a6.31,6.31,0,0,0-3-.74C167.19,204.41,167.07,204.07,167.11,203.54Z"/><path class="cls-61" d="M167.82,220.69c-.64-1.1-2.13-.24-2.81-1.24,1.57-2.26.81-5.06,1.74-7.47l.38-.36c6.13,3.14,12.77,4.95,19.13,7.51,3.13,1.26,5,5.21,3.47,8.09-.71,1.3-1.68.85-2.65.49-5.24-2-10.48-3.89-15.7-5.89C170.21,221.37,169.15,220.63,167.82,220.69Z"/><path class="cls-62" d="M167.11,203.54l.71.65c-1.3,2.38-.49,4.95-.69,7.43,0,.12-.09.24-.12.36a2.36,2.36,0,0,1-2.3.09c-5.77-2.45-11.75-4.34-17.59-6.6a2.63,2.63,0,0,1-1.38-1.44l.06-8.12Z"/><path class="cls-62" d="M163.53,235.21c5.3,1.35,10.23,3.74,15.32,5.65a1,1,0,0,1,.71.6c-1.31,3-2,6.34-4.17,9a1.59,1.59,0,0,1-.95.44c-3.85-.4-7.18-2.28-10.61-3.86-.74-.33-1.42-.85-1-1.87A20,20,0,0,0,163.53,235.21Z"/><path class="cls-63" d="M151.24,172.35a9.83,9.83,0,0,0,5.34,7.27,13.89,13.89,0,0,1,5.69,5.18c-5.48-1.9-11-3.77-16.44-5.73-2.62-.94-3.89-5.63-2.32-8,.79-1.16,1.72-.84,2.72-.51,1.4.46,2.72,1.25,4.27,1.16Z"/><path class="cls-64" d="M204.83,262.81c-3.6-4.05-8.57-5.5-13.45-7.13,5.05-1,10.13-1.8,15.25-.68,1.86.4,1.84-.71,2-1.9,1.18,1.24,0,3.12,1.2,4.37a10.79,10.79,0,0,1,2.93,7.41C209.74,265.54,207.55,263.16,204.83,262.81Z"/><path class="cls-65" d="M234.13,151.08c0,.6-.07,1.29-.16,2-.35,2.81-1.37,4.3-4.34,2.31-1.63-1.09-4.55-.4-5-2.89a9.33,9.33,0,0,1,1.08-7.19c.25-.36,7.7,2.17,8.06,2.69C234.38,148.9,234,150,234.13,151.08Z"/><path class="cls-66" d="M179.56,241.46l-.71-.6c1.72-2.58.12-5.17,0-7.76,2.39.76,4.79,1.51,7.17,2.31a5.15,5.15,0,0,1,3.77,4.45q.72,5.44-4.46,3.62Z"/><path class="cls-67" d="M232.63,167.75a21.36,21.36,0,0,1,0,2.83,4.28,4.28,0,0,1-.73,1.89c-.77,1-1.73.39-2.44-.08-1.92-1.27-5.25-.14-6-3-.46-1.77.19-3.83.31-5.76,0-.84.34-1.33,1.25-1,2.28.73,4.58,1.39,6.8,2.26C233.41,165.48,232.46,167.05,232.63,167.75Z"/><path class="cls-68" d="M222.34,182.83c-1-1.22.12-2,.68-2.81,1.22-.63,2,.32,2.48,1,1.27,2.06,2.5,1.14,3.81.2,1.61-1.27,3.17-2.6,4.85-3.78.51-.37,1.43-1.15,2,0a1.47,1.47,0,0,1-.53,2.09,11.61,11.61,0,0,0-4.21,3.94c-1,1.5-1,3.66-3,4.48-1.27,1.8-1.85.4-2.52-.54A36.26,36.26,0,0,1,222.34,182.83Z"/><path class="cls-66" d="M232.67,281.6c4,.12,6.76-1.93,9-5,.82,1.59,3.76,1.75,2.67,4.73-1.25,3.44-2.25,4.15-5.72,2.79C236.58,283.32,234.36,283.1,232.67,281.6Z"/><path class="cls-69" d="M174.66,250.46l.73,0c2.78,2.58,7,2.1,9.81,4.64-1,1.17-2.58,0-3.7.79l-11.71.69C170.29,253.61,173,252.41,174.66,250.46Z"/><path class="cls-70" d="M180.23,173.77C185,172,190,173.68,192,177.85,188.07,176.52,184,175.72,180.23,173.77Z"/><path class="cls-71" d="M229.31,181.26c-1,2.43-2.19,3-4,.6A11.75,11.75,0,0,0,223,180c-.34-.94-.17-1.79,1-1.35C225.82,179.37,228,179.46,229.31,181.26Z"/><path class="cls-72" d="M228.38,188a9.59,9.59,0,0,1,3-4.48,20.9,20.9,0,0,1-.16,3.72C230.82,189.12,229.78,189.46,228.38,188Z"/><path class="cls-73" d="M222.34,182.83c1.76,1.11,3.2,2.46,3.52,4.66C223.29,187,221.72,185.73,222.34,182.83Z"/><path class="cls-74" d="M181.5,255.85c1.1-.87,2.49-.38,3.69-.79,1.35.4,2.9-.22,4.13.8Z"/><path class="cls-75" d="M124.74,272.59c-1.17-.13-2.51.42-3.12-1a2.88,2.88,0,0,1,.81-3.15,14.09,14.09,0,0,1,9.36-5.21c1-.1,2.2-.08,2.74,1a2.66,2.66,0,0,1-.4,2.92C131.7,270.19,128.77,272.42,124.74,272.59Z"/><path class="cls-76" d="M169.46,256.62l-8.94,1.05-7.16.33,5.63-5.7C163.18,252,166.81,253.15,169.46,256.62Z"/><path class="cls-11" d="M144.34,227.4c6.51-.9,12.84-1.18,17.33,5l-40.59,28.37c-2.65-4.33-4.74-8.88-5.23-14a1.94,1.94,0,0,0-.81-1.42c-.45-1.25.65-1.62,1.32-2.06,6.12-4.08,11.81-8.81,18.17-12.51C137.52,229,140.48,226.73,144.34,227.4Z"/><path class="cls-63" d="M169.46,256.62A35.81,35.81,0,0,0,159,252.3l3.88-7.17c3.42,2.91,7.82,3.65,11.79,5.33-.56,2.87-3.41,3.92-4.87,6.08A.37.37,0,0,1,169.46,256.62Z"/><path class="cls-77" d="M163.37,287.74a11.35,11.35,0,0,1-6.34-1.19c-1.92-1.09-2.1-2.31-.48-3.75,2.25-2,10.52-2.7,12.9-.92,1.45,1.09,2.23,2.48.38,4.21S165.61,287.59,163.37,287.74Z"/><path class="cls-78" d="M171.32,280.45c.83-2.87,1.08-3,2.77-1.1.65.75,1.6.4,2,1,.8,1-.36.94-.86,1.21A6.55,6.55,0,0,1,171.32,280.45Z"/><path class="cls-79" d="M179.91,276.18c-1.49.73-2.71-1.71-3.52-.23-.92,1.7,1.6.9,2.08,2.06-1.42,1.21-2.43.51-3.31-.68a1.51,1.51,0,0,1,.41-2.38C177.17,274.11,178.64,274.45,179.91,276.18Z"/><path class="cls-61" d="M144.34,227.4c-8.13,1.95-14.33,7.34-21,11.88-2.82,1.93-5.54,4-8.3,6l-7.2,4.63c-2.56.92-3.64-.25-3.84-2.69-.15-1.94-.1-3.88-.09-5.82,0-2.14-1-3.16-3.11-3.08-1,0-2.06,0-3.08,0-1.83,0-2.68.94-2.75,2.75a54.06,54.06,0,0,1-.19,6.49c-.46,2.95-1.84,3.38-4.32,1.42l-.06-15.8a100.54,100.54,0,0,0,19.54.53c9.58-.6,19.07-1.91,27.78-6.55,2.36-1.25,4.14-3.14,6.41-5.06.12,1.22.19,2,.27,2.76Z"/><path class="cls-80" d="M90.46,249c2.45,1.3,3.63.72,3.48-2.21-.12-2.16.09-4.35,0-6.51s.44-3,2.82-3.06c8.23-.13,8.21-.22,8.22,8,0,2.12-.9,4.89,2.9,4.73l-12.65,9.33-1.28.68c-2-2.92-5.23-.95-7.84-1.64-2.94-.79-4.19-1.87-3.92-4.79.06-.68,0-1.37,0-2.06,0-4.06,0-4,4-3.15C87.54,248.6,88.93,249.27,90.46,249Z"/><path class="cls-81" d="M143,145.51c3.45.64,5,2.63,4.8,6.2-.2,3.86-.09,7.72-.12,11.59-3.94-.4-5.3-2.48-4.87-6.43C143.19,153.12,142.94,149.3,143,145.51Z"/><path class="cls-82" d="M111.29,227.34c4.86-1.82,9.93-3.17,14.73-5.25,2.83-1.22,5.73-2.38,8-4.56,4.32-4.19,3.1-5.6-.84-8-5.23-3.16-11.26-4.51-17.55-4.88-5.74-.33-11.46-.36-17.19-.6-3.35-.14-6.58,1-10.8.6,3.78-1.69,7.09-1.72,10.2-1.82,9.5-.32,19-.47,28.39,1.93A44.38,44.38,0,0,1,138.52,210c2.4,1.47,4.31,3.69,3.72,6.86-.63,3.33-3.2,5.26-6,6.57C128.38,227.11,120,227.72,111.29,227.34Z"/><path class="cls-83" d="M145.74,204,167,212c0,1.61,0,3.22,0,4.83,0,1.41-.38,2.51-2,2.64l-18.64-7.11c-1.54-1-1.31-2.33-.91-3.9A22.2,22.2,0,0,0,145.74,204Z"/><path class="cls-84" d="M83.58,194.33a13.35,13.35,0,0,1-6.27,10.46c-3.28,2.07-6,.58-6.19-3.25-.27-4.63,2-8.17,5.31-11,1.31-1.11,3-2.19,5-1C83.27,190.68,83.62,192.39,83.58,194.33Z"/><path class="cls-85" d="M77.37,215.41c-.18,1.88-.16,4.44-2.85,4.49s-3.23-2.46-3.33-4.71.17-5.32,2.89-5.38C77,209.74,77.31,212.74,77.37,215.41Z"/><path class="cls-43" d="M156.79,154.49c-5.42-.66-5.55-.8-5.56-5.52,0-11.83,0-23.66.58-35.49.09-2.1.52-3,2.82-2.24,4.24,1.42,8.59,2.51,12.78,4,8.72,3.19,12.84,10.64,10.87,18.92-.8,3.33-3,5.11-6,6.07-1.82.6-1.76,1.34-.9,2.66,1.68,2.59,3.32,5.22,5,7.83.71,1.11,1.43,1.78,2.65.48.7-.74,1.76-1.17,2.39-2,3.15-3.94,6.74-3.92,10.89-1.21-3.15,2.71-6.15,5.54-9.42,8-1.92,1.44-1.62,2.48-.48,4.13,2.49,3.62,4.83,7.35,7.3,11.15-5.66.66-7.77-3-9.93-6.76-2.35-4-2.67-4.27-5.67-.88-3.34,3.78-6.19.73-9.6.17,2-2.59,4.53-4.24,6.85-6,1.94-1.49,2.71-2.64,1-5-2.5-3.41-4.6-7.13-6.89-10.7-1.76-2.74-4.91-2.7-7.56-3.45-1.45-.41-1.11,1.39-1.12,2.3C156.77,145.51,156.79,150,156.79,154.49Z"/><path class="cls-86" d="M233.37,273.16c4.24-2.88,4.11-7.26,3.43-11.44a25,25,0,0,0-9.31-16.28c-2.75-2.15-5.77-3.7-9.14-2s-3.72,5-3.64,8.29c0,1.14.07,2.29.11,3.43.25,1.55,1.2,3.62-2,2.67A1.62,1.62,0,0,1,212,256c-.32-4.08-1.4-8.14-.12-12.26,1.62-5.19,4.44-6.86,9.67-5.38,4.59,1.3,8.06,4.23,10.9,8,5.33,7,8.53,14.63,7.92,23.59-.15,2.23-.57,4.31-2.23,5.95C235.56,276.68,234,275.75,233.37,273.16Z"/><path class="cls-87" d="M233.37,273.16c1.09,1.77,2.93,2.21,4.76,2.68-.8,2.12-2.54,2.73-4.57,2.92-3.84.34-6.75-1.69-9.62-3.77a2.76,2.76,0,0,1-.62-3.73c.87-1.43,1.77.22,2.44.64C228.16,273.39,230.73,273.37,233.37,273.16Z"/><path class="cls-88" d="M212,256l.82,1.3a77.59,77.59,0,0,1,5.43,11c1.09,1.47,2.14,3,3.28,4.38.72.9,1.22,1.79.21,2.7s-1.66,0-2.31-.64c-2.94-2.79-4.89-6.27-6.7-9.85-1.11-2.42-2.44-4.75-2.93-7.41C209.94,256.11,210.84,255.86,212,256Z"/><path class="cls-89" d="M218.24,268.29a25.84,25.84,0,0,1-5.43-11c2.42,1,1.87-.9,2-2.12,1.25,1.67.61,4,2,5.62a18.11,18.11,0,0,1,4.79,7.6C220.46,269.63,219.38,267.9,218.24,268.29Z"/><path class="cls-90" d="M221.62,268.38a23.69,23.69,0,0,1-4.79-7.6c.28-1.86,1.1-1.2,2-.45a14.74,14.74,0,0,1,4.89,8.62C222.67,269.66,222.35,268.36,221.62,268.38Z"/><path class="cls-74" d="M189.9,258.26c-.05,1.44-.46,2.42-1.73,2.38a2.27,2.27,0,0,1-2.26-2.15c-.12-1.5,1-1.83,2.27-1.86S190,257.33,189.9,258.26Z"/><path class="cls-91" d="M147,234.61c-1.82-.31-5.51.23-5.82-2.91s3.45-3.17,5.73-3.8a10.4,10.4,0,0,1,7.36.87c2.41,1.18,2.55,2.83.37,4.35S150.11,234.65,147,234.61Z"/><path class="cls-92" d="M156.81,125.28c0-1.83.08-3.67,0-5.5s.25-2.85,2.45-2c2.35.87,4.87,1.3,7.16,2.28,5.19,2.21,7.31,6.52,6.18,12a5.13,5.13,0,0,1-6.11,4.12c-.34-.06-.66-.22-1-.29C156.82,134,156.82,134,156.81,125.28Z"/></svg>