<svg width="268" height="219" viewBox="0 0 268 219" fill="none" xmlns="http://www.w3.org/2000/svg">
<path d="M198.129 167.278C200.018 170.312 201.706 173.466 203.182 176.72L203.49 177.309C203.517 177.312 203.543 177.323 203.564 177.339C203.586 177.355 203.603 177.376 203.615 177.401C203.626 177.426 203.63 177.453 203.627 177.48C203.625 177.507 203.615 177.533 203.6 177.555L203.942 178.144C204.102 178.255 204.235 178.4 204.331 178.57C204.427 178.739 204.484 178.928 204.497 179.122C204.387 180.012 204.497 180.771 205.537 181.065C205.704 181.194 205.841 181.357 205.94 181.544C206.038 181.731 206.094 181.936 206.106 182.147C206.208 182.338 206.311 182.537 206.42 182.728C206.447 182.732 206.472 182.743 206.493 182.76C206.513 182.777 206.53 182.798 206.54 182.823C206.55 182.847 206.554 182.874 206.551 182.901C206.548 182.927 206.539 182.953 206.523 182.974C206.64 183.173 206.749 183.371 206.866 183.563C208.386 186.3 209.851 189.037 211.446 191.664C211.994 192.581 211.576 193.033 211.008 193.56L204.907 197.535C199.8 190.973 194.863 184.268 189.53 177.897C185.826 173.47 183.628 168.516 182.081 163.049C180.677 158.082 179.438 153.046 177.329 148.29C177.089 147.743 176.939 147.161 176.309 147.277C175.679 147.394 176.076 148.126 175.843 148.523C174.96 149.631 174.994 150.938 175.063 152.252L174.898 153.087C174.526 153.463 174.265 153.935 174.144 154.451C174.023 154.967 174.047 155.506 174.214 156.008L174.043 156.836C173.009 158.362 172.926 160.093 172.947 161.845L172.755 162.68C171.858 163.508 171.947 164.548 172.112 165.601L171.954 166.436C170.914 167.955 170.838 169.686 170.859 171.445L170.66 172.273C169.976 172.574 169.928 172.998 170.421 173.525L170.215 174.36C169.182 176.43 168.688 178.727 168.777 181.038L168.586 181.873C167.661 182.68 167.812 183.741 167.901 184.788L167.723 185.629C166.883 187.156 166.507 188.894 166.641 190.631L166.436 191.466C165.97 191.664 165.751 191.911 166.258 192.301C166.196 192.602 166.141 192.896 166.08 193.19C165.04 195.388 164.518 197.794 164.553 200.224L164.341 201.066C163.882 201.258 163.656 201.504 164.17 201.901C164.211 202.067 164.205 202.241 164.153 202.404C164.101 202.567 164.005 202.713 163.875 202.824L162.978 203.16L162.129 202.9C161.335 202.564 160.568 201.887 159.678 202.694L157.152 202.756V202.605C155.714 202.065 155.337 201.052 155.426 199.54C155.618 196.523 156.111 193.519 156.173 190.515C156.234 187.511 157.275 184.535 156.474 181.51C156.474 181.223 156.536 180.929 156.563 180.641C157.61 179.334 157.145 177.904 156.885 176.536C156.885 176.248 156.946 175.954 156.981 175.667C157.665 175.414 157.535 174.805 157.549 174.298C157.631 171.144 158.233 168.017 158.281 164.883C158.35 161.961 159.397 159.06 158.562 156.118C158.562 155.83 158.617 155.536 158.651 155.249C159.137 155.085 159.219 154.695 159.219 154.257C159.32 150.867 159.592 147.485 160.034 144.123C160.281 141.79 160.719 139.367 160.356 137.103C160.037 135.44 159.988 133.737 160.212 132.06C160.428 130.976 160.543 129.874 160.555 128.768C160.404 122.754 163.615 117.978 166.354 113.031C167.723 110.567 169.038 108.077 170.51 105.675C171.441 104.163 171.578 102.069 173.556 101.275C177.596 102.172 181.478 103.711 185.6 104.259C187.736 108.891 189.845 113.523 192.227 118.039C193.015 119.538 194.322 120.941 194.336 122.706C194.336 126.476 194.473 130.233 194.747 134.003C195.055 138.108 195.781 142.214 195.61 146.408V147.27C194.788 148.591 195.432 149.788 195.945 150.993C195.986 151.554 196.027 152.122 196.061 152.683C195.902 152.857 195.781 153.062 195.706 153.286C195.632 153.51 195.606 153.747 195.63 153.982C195.654 154.216 195.727 154.443 195.845 154.648C195.963 154.852 196.123 155.029 196.315 155.167C196.37 156.008 196.417 156.85 196.472 157.692C195.945 158.444 195.733 159.163 196.657 159.785L196.739 160.613C196.698 160.654 196.616 160.716 196.623 160.736C196.67 160.833 196.723 160.926 196.78 161.017L196.863 162.707C196.445 163.61 196.02 164.513 197.184 165.211C197.403 165.69 197.623 166.169 197.869 166.648C197.838 166.767 197.847 166.893 197.894 167.006C197.941 167.12 198.024 167.215 198.129 167.278Z" fill="#003056"/>
<path d="M4.60754 97.9225V23.6749C4.60754 13.4591 11.3721 6.68506 21.5736 6.68506H77.9219C87.8907 6.68506 94.6689 13.4659 94.6826 23.4491C94.6826 31.3795 93.9979 39.3715 94.8812 47.2061C95.6138 53.9323 96.2026 60.6858 95.5247 67.2888C93.7241 84.9081 95.0523 102.534 94.7511 120.147C94.4498 137.759 94.7511 155.461 94.6484 173.121C94.6141 180.162 91.0607 185.041 84.6727 187.915C83.7141 188.327 82.6761 188.524 81.6328 188.489C60.2803 188.489 38.9232 188.489 17.5615 188.489C14.4805 188.489 12.1252 186.868 9.98904 184.979C6.2302 181.661 4.5733 177.452 4.587 172.382C4.63721 147.562 4.64405 122.742 4.60754 97.9225ZM91.3414 98.0251V87.5835C91.3414 66.0891 91.3414 44.6015 91.3414 23.1207C91.3414 16.8872 87.4114 11.899 81.448 10.9958C78.6545 10.5716 75.7584 10.859 72.9033 10.8042C72.1433 10.8042 72.0611 11.119 72.0474 11.8169C71.9721 16.9009 70.2057 18.5978 65.0707 18.5978H34.8014C34.0373 18.6047 33.2736 18.5636 32.5147 18.4746C31.296 18.3347 30.1566 17.8002 29.2702 16.9527C28.3839 16.1052 27.7993 14.9912 27.6056 13.7807C27.3865 12.8091 28.3861 11.4885 27.3865 10.9479C26.5033 10.4963 25.2092 10.8179 24.1001 10.8042C23.477 10.8042 22.8471 10.8453 22.2241 10.8042C14.0423 10.1542 8.90041 16.9214 8.90041 23.9486C9.07158 73.2144 8.98942 122.549 8.99627 171.849C8.99627 180.059 13.789 184.918 22.0803 184.931C40.7946 184.963 59.5089 184.963 78.2232 184.931C86.5077 184.931 91.3346 180.073 91.3346 171.855C91.3437 147.25 91.346 122.64 91.3414 98.0251Z" fill="#005BA2"/>
<path d="M195.576 146.429C195.747 142.262 195.021 138.156 194.713 134.023C194.439 130.253 194.336 126.497 194.302 122.726C194.302 120.961 192.981 119.558 192.193 118.06C189.811 113.544 187.702 108.911 185.566 104.279C185.587 104.004 185.566 103.727 185.504 103.458C182.081 93.9881 182.916 84.8739 187.763 76.0882C189.817 72.3727 192.159 68.9994 196.883 68.4725C199.868 69.3689 201.922 67.9114 203.99 65.975C206.318 63.8059 208.92 61.9379 211.398 59.9331C211.398 61.5274 211.453 63.1217 211.46 64.7228C211.46 68.3972 213.048 70.3131 216.663 71.0247C213.445 74.446 210.392 78.0999 206.975 81.3432C203.025 85.0929 201.95 89.8689 201.498 94.8844C200.847 102.096 203.1 108.768 205.982 115.213C208.529 120.886 211.795 126.107 216.561 130.267C218.272 131.765 218.108 133.784 217.389 135.679C216.783 137.465 215.787 139.094 214.472 140.447C213.158 141.8 211.558 142.843 209.789 143.5C205.954 144.969 201.915 145.835 197.814 146.066C197.049 145.994 196.278 146.118 195.576 146.429Z" fill="#005BA2"/>
<path d="M226.496 193.163C225.811 191.876 224.531 191.219 223.326 190.563C221.902 189.782 222.251 189.297 223.422 188.619C227.256 186.402 233.343 187.6 235.746 191.562C236.115 192.184 236.513 192.786 237.067 193.676C237.607 191.789 237.399 189.768 236.485 188.031C234.65 184.042 231.371 181.188 228.591 177.931C225.934 174.832 223.702 171.54 223.607 167.271C223.552 164.91 224.791 163.035 226.133 161.256C226.948 160.168 227.728 161.003 228.447 161.496C234.204 165.493 239.183 170.506 243.14 176.289C246.132 180.579 248.289 185.232 248.535 190.453C248.701 194.634 247.634 198.771 245.468 202.352C243.051 206.458 239.662 209.728 235.972 212.691C235.499 213.074 234.979 213.642 234.342 213.327C233.705 213.013 234.027 212.315 234.048 211.802C234.219 207.819 234.048 203.871 232.274 200.224C230.905 197.439 229.44 194.695 226.516 193.156L226.496 193.163Z" fill="#F2F2F2"/>
<path d="M239.696 211.309C240.873 208.962 243.064 207.532 244.536 205.438C250.548 196.878 251.075 187.853 245.734 178.787C241.568 171.731 235.939 165.646 229.227 160.942C227.803 159.929 228.221 159.224 229.46 158.513C233.91 155.954 238.436 156.145 242.962 158.212C249.973 161.407 254.368 167.052 257.34 173.949C259.101 177.812 259.967 182.022 259.873 186.266C259.544 193.875 256.176 200.026 250.288 204.87C247.065 207.487 243.502 209.653 239.696 211.309Z" fill="#F2F2F2"/>
<path d="M216.663 71.0112C213.048 70.3269 211.474 68.3836 211.46 64.7092C211.46 63.1149 211.419 61.5207 211.398 59.9195C212.03 55.8837 212.142 51.7838 211.734 47.7194C211.391 44.6061 208.824 42.526 206.441 43.0528C205.51 43.2513 204.853 43.5455 205.627 44.6882C210.419 51.7154 205.976 63.2655 194.775 63.2244C195.069 61.8559 196.548 61.9175 197.383 61.1717C199.362 59.4132 200.005 55.7388 198.068 54.0282C197.041 53.1318 195.843 52.5091 195.466 51.079C194.398 51.6607 195.61 53.6792 193.905 53.4192C191.974 53.1181 190.112 53.6244 188.209 53.515C186.305 53.4055 184.326 53.5629 182.389 53.6108C178.918 53.3644 178.137 52.5228 180.136 49.6216C183.56 44.6129 187.798 40.179 194.302 39.091C195.887 38.7704 197.532 38.9546 199.006 39.6179C200.731 40.4664 202.094 40.0148 203.655 39.2142C206.462 37.7841 209.413 36.7851 212.672 37.4625C216.882 38.3315 218.895 41.568 217.69 45.6393C217.178 47.3648 216.364 48.9862 215.287 50.429C215.158 50.4835 215.051 50.5821 214.987 50.7073C214.923 50.8326 214.906 50.9764 214.938 51.1133V51.2227L214.849 51.2843C214.725 51.3436 214.625 51.4445 214.568 51.5695C214.51 51.6945 214.498 51.8357 214.534 51.9686L213.938 53.775C213.884 53.775 213.774 53.8503 213.774 53.8708C213.796 53.9799 213.826 54.0873 213.863 54.1924C213.788 54.6029 213.706 55.0135 213.623 55.424C212.254 56.9157 213.836 58.161 214.075 59.4269C214.76 63.1971 217.122 65.8246 220.491 67.5694L221.956 68.2536L222.353 68.3836L223.558 68.6505L223.599 69.2526C221.438 70.3227 219.074 70.9221 216.663 71.0112Z" fill="#003056"/>
<path d="M173.523 101.269C171.544 102.062 171.407 104.156 170.476 105.668C169.004 108.07 167.682 110.561 166.32 113.024C163.581 117.978 160.37 122.754 160.521 128.762C160.521 129.868 160.418 130.972 160.213 132.06C160.023 133.722 160.099 135.403 160.439 137.041C160.801 139.306 160.363 141.728 160.117 144.061C159.674 147.423 159.402 150.806 159.302 154.195C159.302 154.633 159.22 155.023 158.734 155.187C158.775 149.583 159.487 144.027 159.987 138.457C160.158 136.535 159.644 135.939 157.761 135.775C153.318 135.392 153.339 135.296 154.489 130.985C155.139 128.529 155.81 126.079 156.358 123.596C156.488 123 156.906 121.974 155.598 121.878L149.819 118.874C156.057 109.192 162.52 99.6469 168.449 89.7869C171.667 84.4292 174.83 79.0716 178.445 73.9808C179.815 72.0239 181.698 70.5596 183.416 68.9926C183.933 68.5286 184.611 68.2833 185.306 68.3084C182.889 72.0512 180.595 75.8762 178.021 79.5027C176.35 81.8633 175.864 84.5593 177.336 86.8925C177.765 87.4826 178.014 88.1838 178.055 88.912C178.095 89.6402 177.924 90.3645 177.562 90.998C176.193 93.735 175.077 96.5609 173.858 99.3595C173.557 99.9685 173.036 100.584 173.523 101.269Z" fill="#005BA2"/>
<path d="M226.495 193.156C226.913 194.791 228.371 195.674 229.295 196.947C230.918 199.159 232.073 201.678 232.692 204.35C233.311 207.023 233.381 209.793 232.897 212.493C232.575 214.587 232.705 214.847 234.951 214.847C242.742 214.847 250.534 214.847 258.325 214.847C259.01 214.847 259.832 214.552 260.537 215.23C260.078 215.914 259.4 215.668 258.853 215.668C227.965 215.668 197.077 215.668 166.19 215.668C165.505 215.668 164.772 215.9 164.266 215.202L164.409 214.833H165.005C186.426 214.833 207.847 214.833 229.268 214.833C229.953 214.833 230.898 215.216 231.172 214.504C231.5 213.635 230.398 213.567 229.877 213.218C226.892 211.206 223.859 209.27 221.75 206.218C221.216 205.438 220.511 204.672 219.354 204.85C219.484 203.912 218.512 203.406 218.443 202.544C218.633 202.221 218.751 201.863 218.791 201.491C218.831 201.12 218.792 200.744 218.676 200.388C218.257 199.045 218.124 197.629 218.286 196.232C218.447 194.834 218.9 193.486 219.614 192.273C220.388 190.864 221.148 190.453 222.736 191.22C224.017 191.828 224.879 193.272 226.495 193.176V193.156Z" fill="#F2F2F2"/>
<path d="M173.522 101.268C173.036 100.536 173.556 99.9478 173.823 99.3389C175.042 96.5403 176.179 93.7075 177.527 90.9774C177.889 90.3439 178.06 89.6196 178.02 88.8914C177.98 88.1632 177.73 87.462 177.301 86.8719C175.829 84.5386 176.316 81.8427 177.986 79.482C180.56 75.8555 182.854 72.0306 185.271 68.2878C185.428 67.9799 185.586 67.6035 185.956 67.6035C189.571 68.1099 193.254 67.7062 196.856 68.3836C192.131 68.9104 189.783 72.2838 187.736 75.9992C182.888 84.7849 182.032 93.8991 185.476 103.369C185.538 103.638 185.559 103.915 185.538 104.19C181.437 103.725 177.562 102.185 173.522 101.268Z" fill="#00CDB0"/>
<path d="M220.464 67.5897C217.095 65.8449 214.753 63.2174 214.048 59.4472C213.822 58.1608 212.248 56.936 213.617 55.4238C213.952 55.9233 213.343 56.7923 214.151 57.0387C214.74 57.2029 215.116 56.5802 215.52 56.2313C221.285 51.3685 227.041 46.4899 232.788 41.5952C234.671 43.0458 235.273 45.427 236.82 47.1308C237.745 48.3693 237.293 49.2246 236.279 50.2783C231.206 55.5881 226.215 60.9936 221.183 66.3718C220.792 66.6674 220.534 67.105 220.464 67.5897Z" fill="#005BA2"/>
<path d="M182.361 53.6245C184.299 53.5766 186.25 53.4192 188.181 53.5287C190.112 53.6382 191.947 53.1318 193.877 53.4329C195.582 53.6929 194.37 51.6744 195.439 51.0928C195.815 52.5228 197.013 53.1455 198.04 54.0419C200.005 55.7525 199.362 59.4269 197.356 61.1854C196.52 61.9244 195.041 61.8697 194.747 63.2382C192.844 63.0808 190.927 63.1218 189.057 62.6223C187.486 62.2153 186.073 61.345 185.004 60.1246C183.934 58.9042 183.257 57.3903 183.06 55.7799C182.956 55.0257 182.72 54.2959 182.361 53.6245Z" fill="#F6B6B8"/>
<path d="M218.471 202.537C218.539 203.399 219.511 203.905 219.381 204.843C214.931 207.635 210.481 210.399 206.058 213.252C204.866 214.025 204.401 213.711 204.004 212.52C203.52 211.14 203.492 209.641 203.923 208.243C204.354 206.845 205.222 205.622 206.4 204.754C207.386 204.008 208.454 203.385 209.495 202.701L215.136 199.081C216.403 198.705 216.506 199.882 216.999 200.498C217.492 201.114 217.971 201.853 218.471 202.537Z" fill="#003056"/>
<path d="M164.41 214.854L164.266 215.223H146.759L146.561 214.819C147.499 209.941 149.689 208.107 154.605 208.093C155.359 208.093 156.119 208.059 156.872 208.039H163.034C163.985 208.039 164.314 208.47 164.293 209.448C164.246 211.255 164.362 213.054 164.41 214.854Z" fill="#003056"/>
<path d="M162.308 19.5898C159.014 19.5898 156.769 17.2154 156.769 13.7463C156.796 12.218 157.411 10.7588 158.485 9.67094C159.56 8.58311 161.012 7.95002 162.54 7.90283C165.964 7.90283 168.476 10.544 168.463 14.1705C168.428 17.5302 166.101 19.5966 162.308 19.5898Z" fill="#F2F2F2"/>
<path d="M236.833 47.1311C235.286 45.4273 234.684 43.0256 232.801 41.5955C234.704 39.2554 236.512 36.8058 238.538 34.5957C239.593 33.4325 242.592 33.4051 243.831 34.2194C244.767 34.7738 245.495 35.6213 245.901 36.6306C246.307 37.6399 246.369 38.7549 246.077 39.8028C245.618 41.7119 244.296 43.2856 242.386 43.2719C239.942 43.2719 238.696 44.3736 237.717 46.3031C237.58 46.6453 237.135 46.8574 236.833 47.1311Z" fill="#F6B6B8"/>
<path d="M149.785 118.895L155.563 121.898C155.563 122.583 154.995 122.986 154.557 123.411C153.352 124.567 152.311 125.539 152.859 127.646C153.365 129.624 151.25 131.882 149.059 132.497C147.292 132.997 144.889 131.95 143.855 130.233C143.258 129.334 142.99 128.257 143.096 127.183C143.202 126.11 143.676 125.106 144.437 124.341C146.211 122.514 148.004 120.708 149.785 118.895Z" fill="#F6B6B8"/>
<path d="M215.103 199.061L209.461 202.687C208.434 200.539 207.092 198.664 204.908 197.535L211.009 193.56C212.378 195.393 212.933 197.816 215.103 199.061Z" fill="#F6B6B8"/>
<path d="M130.025 110.547C127.882 110.547 126.349 109.179 126.314 107.228C126.335 106.256 126.723 105.327 127.4 104.628C128.076 103.929 128.992 103.511 129.964 103.458C131.833 103.417 133.695 105.155 133.675 106.914C133.676 107.392 133.582 107.866 133.398 108.308C133.215 108.75 132.946 109.152 132.607 109.49C132.268 109.827 131.865 110.095 131.422 110.276C130.979 110.458 130.504 110.55 130.025 110.547Z" fill="#F2F2F2"/>
<path d="M237.916 93.4408C238.367 93.4131 238.82 93.4762 239.246 93.6263C239.673 93.7765 240.065 94.0107 240.4 94.315C240.734 94.6193 241.004 94.9876 241.194 95.398C241.384 95.8085 241.489 96.2528 241.503 96.7046C241.495 97.6838 241.115 98.6232 240.44 99.3331C239.765 100.043 238.846 100.471 237.868 100.53C235.814 100.584 234.445 99.1611 234.445 96.9646C234.406 96.4968 234.469 96.0263 234.629 95.585C234.789 95.1437 235.043 94.7422 235.372 94.4077C235.702 94.0732 236.099 93.8137 236.538 93.6468C236.977 93.48 237.447 93.4097 237.916 93.4408Z" fill="#F2F2F2"/>
<path d="M163.026 208.045H156.864C157.611 206.314 157.015 204.514 157.166 202.749L159.692 202.688C160.46 203.041 161.327 203.114 162.143 202.893L162.992 203.153C163.006 204.795 163.017 206.426 163.026 208.045Z" fill="#F6B6B8"/>
<path d="M156.522 181.531C157.323 184.555 156.289 187.532 156.221 190.535C156.152 193.539 155.666 196.543 155.475 199.561C155.386 201.073 155.762 202.086 157.2 202.626C155.221 202.9 154.55 202.195 154.797 200.101C155.529 193.929 155.646 187.696 156.522 181.531Z" fill="#005BA2"/>
<path d="M158.611 156.077C159.446 159.019 158.399 161.92 158.33 164.842C158.255 167.976 157.68 171.103 157.598 174.257C157.598 174.791 157.728 175.4 157.029 175.626C157.262 169.105 157.817 162.584 158.611 156.077Z" fill="#005BA2"/>
<path d="M146.56 214.854L146.759 215.257C146.594 215.38 146.437 215.606 146.272 215.606C141.521 215.606 136.767 215.606 132.011 215.606V214.833L146.56 214.854Z" fill="#F2F2F2"/>
<path d="M156.933 176.536C157.193 177.945 157.658 179.368 156.611 180.641C156.465 179.264 156.574 177.873 156.933 176.536Z" fill="#005BA2"/>
<path d="M195.877 151.006C195.363 149.802 194.72 148.605 195.541 147.284C195.932 148.484 196.047 149.756 195.877 151.006Z" fill="#005BA2"/>
<path d="M197.116 165.225C195.952 164.541 196.376 163.624 196.794 162.721C197.095 163.519 197.205 164.377 197.116 165.225Z" fill="#005BA2"/>
<path d="M196.246 155.18C196.055 155.042 195.895 154.865 195.777 154.661C195.659 154.457 195.585 154.23 195.561 153.995C195.537 153.76 195.564 153.523 195.638 153.299C195.712 153.076 195.833 152.87 195.993 152.696C196.279 153.491 196.366 154.344 196.246 155.18Z" fill="#005BA2"/>
<path d="M196.589 159.799C195.664 159.176 195.904 158.43 196.404 157.705C196.7 158.362 196.765 159.1 196.589 159.799Z" fill="#005BA2"/>
<path d="M205.538 181.065C204.525 180.771 204.388 180.012 204.497 179.122C205.033 179.649 205.396 180.327 205.538 181.065Z" fill="#005BA2"/>
<path d="M223.586 69.2663L223.545 68.6642C223.867 68.541 224.373 68.5273 224.408 68.7942C224.49 69.3553 223.963 69.2595 223.586 69.2663Z" fill="#005BA2"/>
<path d="M222.339 68.4247L221.942 68.2947C222.134 68.1305 222.257 68.1989 222.339 68.4247Z" fill="#005BA2"/>
<path d="M198.13 167.278C198.008 167.232 197.905 167.146 197.839 167.034C197.773 166.922 197.748 166.791 197.767 166.662C197.889 166.708 197.991 166.794 198.057 166.906C198.124 167.018 198.149 167.149 198.13 167.278Z" fill="#005BA2"/>
<path d="M213.85 54.2128C213.813 54.1077 213.783 54.0003 213.761 53.8912C213.761 53.8912 213.87 53.8296 213.925 53.7954C213.905 53.9391 213.877 54.0554 213.85 54.2128Z" fill="#005BA2"/>
<path d="M214.911 51.1203C214.879 50.9834 214.897 50.8396 214.961 50.7143C215.024 50.5891 215.131 50.4905 215.26 50.436C215.292 50.5729 215.275 50.7167 215.211 50.842C215.147 50.9672 215.041 51.0658 214.911 51.1203Z" fill="#005BA2"/>
<path d="M206.42 182.728C206.311 182.536 206.208 182.338 206.105 182.146C206.222 182.186 206.319 182.268 206.377 182.375C206.436 182.483 206.451 182.609 206.42 182.728Z" fill="#005BA2"/>
<path d="M196.712 161.031C196.655 160.94 196.602 160.846 196.555 160.75C196.555 160.75 196.63 160.668 196.671 160.627C196.71 160.71 196.74 160.797 196.76 160.887C196.757 160.938 196.74 160.988 196.712 161.031Z" fill="#005BA2"/>
<path d="M214.52 52.0026C214.484 51.8697 214.496 51.7285 214.554 51.6035C214.611 51.4785 214.711 51.3776 214.835 51.3184C214.865 51.4511 214.85 51.5899 214.793 51.7135C214.736 51.837 214.64 51.9386 214.52 52.0026Z" fill="#005BA2"/>
<path d="M203.491 177.309L203.183 176.72C203.301 176.758 203.4 176.841 203.458 176.951C203.515 177.061 203.527 177.19 203.491 177.309Z" fill="#005BA2"/>
<path d="M203.942 178.144L203.6 177.555C203.718 177.596 203.818 177.678 203.88 177.786C203.943 177.894 203.965 178.021 203.942 178.144Z" fill="#005BA2"/>
<path d="M206.866 183.563C206.749 183.371 206.64 183.173 206.523 182.975C206.642 183.015 206.741 183.097 206.804 183.205C206.867 183.313 206.889 183.44 206.866 183.563Z" fill="#005BA2"/>
<path d="M163.026 208.045C163.026 206.421 163.026 204.8 163.026 203.18L163.923 202.845L164.026 202.893L163.937 202.824C164.067 202.713 164.163 202.567 164.215 202.404C164.267 202.241 164.273 202.067 164.231 201.901C164.35 201.801 164.432 201.665 164.463 201.513C164.494 201.361 164.473 201.204 164.403 201.066L164.615 200.224C165.352 197.935 165.863 195.579 166.142 193.19C166.203 192.896 166.258 192.602 166.32 192.301C166.44 192.202 166.522 192.066 166.555 191.914C166.587 191.763 166.567 191.605 166.498 191.466L166.703 190.631C167.305 189.025 167.669 187.34 167.785 185.629L167.963 184.788C168.471 183.904 168.709 182.89 168.648 181.873L168.839 181.038C169.587 178.878 170.07 176.636 170.277 174.36L170.482 173.525C170.621 173.351 170.715 173.147 170.757 172.928C170.799 172.71 170.787 172.485 170.722 172.273L170.921 171.445C171.547 169.843 171.916 168.153 172.016 166.436L172.174 165.601C172.665 164.71 172.888 163.695 172.817 162.68L173.009 161.845C173.636 160.243 174.006 158.553 174.104 156.836L174.275 156.008C174.756 155.111 174.993 154.104 174.96 153.086L175.124 152.252C175.679 151.089 175.946 149.81 175.905 148.523C176.138 148.126 175.782 147.387 176.371 147.277C176.959 147.168 177.151 147.742 177.391 148.29C179.5 153.045 180.739 158.081 182.142 163.049C183.69 168.523 185.887 173.47 189.592 177.897C194.925 184.268 199.862 190.973 204.969 197.535C207.153 198.664 208.495 200.539 209.522 202.687C208.488 203.372 207.413 204.008 206.428 204.74C205.25 205.609 204.382 206.832 203.951 208.229C203.519 209.627 203.548 211.126 204.031 212.506C204.463 213.697 204.928 214.012 206.085 213.239C210.494 210.385 214.986 207.621 219.409 204.829C220.566 204.665 221.271 205.431 221.805 206.198C223.914 209.249 226.947 211.186 229.932 213.198C230.453 213.546 231.555 213.615 231.226 214.484C230.952 215.168 229.973 214.805 229.323 214.812C207.897 214.84 186.458 214.853 165.005 214.853H164.382C164.334 213.054 164.218 211.254 164.259 209.455C164.32 208.476 163.978 208.045 163.026 208.045Z" fill="#FEFDFD"/>
<path d="M166.114 193.19C165.836 195.579 165.324 197.935 164.588 200.224C164.552 197.794 165.075 195.388 166.114 193.19Z" fill="#005BA2"/>
<path d="M170.243 174.36C170.036 176.636 169.553 178.878 168.805 181.038C168.716 178.727 169.21 176.43 170.243 174.36Z" fill="#005BA2"/>
<path d="M174.071 156.836C173.972 158.553 173.602 160.243 172.975 161.845C172.955 160.113 173.037 158.362 174.071 156.836Z" fill="#005BA2"/>
<path d="M171.982 166.436C171.882 168.153 171.512 169.843 170.886 171.445C170.866 169.693 170.941 167.955 171.982 166.436Z" fill="#005BA2"/>
<path d="M167.744 185.629C167.628 187.34 167.264 189.025 166.662 190.631C166.528 188.894 166.904 187.156 167.744 185.629Z" fill="#005BA2"/>
<path d="M175.844 148.522C175.885 149.81 175.618 151.089 175.063 152.252C174.995 150.938 174.961 149.631 175.844 148.522Z" fill="#005BA2"/>
<path d="M172.783 162.68C172.854 163.695 172.63 164.71 172.139 165.601C171.975 164.548 171.886 163.535 172.783 162.68Z" fill="#005BA2"/>
<path d="M174.898 153.086C174.931 154.104 174.695 155.111 174.214 156.008C174.047 155.505 174.023 154.966 174.144 154.451C174.265 153.935 174.526 153.463 174.898 153.086Z" fill="#005BA2"/>
<path d="M168.613 181.873C168.675 182.89 168.437 183.903 167.929 184.787C167.84 183.741 167.689 182.694 168.613 181.873Z" fill="#005BA2"/>
<path d="M162.15 202.92C161.335 203.141 160.467 203.069 159.699 202.715C160.589 201.908 161.356 202.585 162.15 202.92Z" fill="#005BA2"/>
<path d="M170.688 172.273C170.753 172.485 170.765 172.71 170.723 172.929C170.681 173.147 170.587 173.352 170.449 173.525C169.956 172.998 170.003 172.574 170.688 172.273Z" fill="#005BA2"/>
<path d="M164.375 201.066C164.445 201.204 164.466 201.362 164.435 201.513C164.404 201.665 164.323 201.801 164.204 201.901C163.704 201.504 163.916 201.258 164.375 201.066Z" fill="#005BA2"/>
<path d="M166.47 191.466C166.54 191.605 166.56 191.763 166.527 191.914C166.495 192.066 166.412 192.202 166.292 192.301C165.792 191.911 166.005 191.664 166.47 191.466Z" fill="#005BA2"/>
<path d="M163.91 202.824L163.999 202.893L163.896 202.845L163.91 202.824Z" fill="#005BA2"/>
<path d="M91.3414 98.025C91.3414 122.658 91.3414 147.275 91.3414 171.876C91.3414 180.087 86.5487 184.938 78.23 184.952C59.5157 184.952 40.8014 184.952 22.0871 184.952C13.8026 184.952 9.00308 180.1 9.00308 171.869C9.00308 122.603 9.07839 73.269 8.90723 23.969C8.90723 16.9281 14.0559 10.1609 22.2172 10.8247C22.8402 10.8725 23.4701 10.8247 24.0932 10.8247C25.2023 10.8247 26.4964 10.5167 27.3796 10.9683C28.3998 11.4884 27.3796 12.809 27.6192 13.8011C27.8163 15.0059 28.4007 16.1137 29.284 16.9569C30.1673 17.8002 31.3014 18.3329 32.5146 18.4745C33.2738 18.5589 34.0376 18.5955 34.8014 18.584H65.0432C70.1783 18.584 71.9447 16.8871 72.02 11.8031C72.02 11.1189 72.1159 10.7768 72.8759 10.7904C75.7309 10.8452 78.6271 10.5578 81.4205 10.982C87.384 11.8852 91.3071 16.8734 91.314 23.1069C91.314 44.5922 91.314 66.0799 91.314 87.5698L91.3414 98.025ZM50.3913 66.2418C46.6403 66.1791 42.9143 66.8637 39.4308 68.2557C35.9474 69.6477 32.7762 71.7191 30.1025 74.3492C27.4288 76.9792 25.306 80.1151 23.8581 83.5739C22.4102 87.0327 21.6662 90.7451 21.6695 94.4943C21.6695 110.567 34.3701 122.98 50.4256 123.014C65.6526 123.048 78.497 110.273 78.6476 95.0075C78.6919 91.2619 77.9951 87.5445 76.5973 84.0689C75.1995 80.5933 73.1282 77.428 70.5024 74.7549C67.8767 72.0818 64.7483 69.9536 61.2969 68.4927C57.8456 67.0317 54.1394 66.2668 50.3913 66.2418Z" fill="#FEFDFD"/>
<path d="M50.3918 66.242C54.1364 66.2688 57.8389 67.0342 61.2868 68.4942C64.7347 69.9543 67.8603 72.0803 70.4843 74.7503C73.1082 77.4202 75.1788 80.5817 76.5774 84.0533C77.976 87.5248 78.6751 91.2382 78.6344 94.9803C78.4701 110.246 65.6257 123.034 50.4123 122.987C34.3706 122.952 21.6562 110.54 21.6562 94.4672C21.6566 90.719 22.4038 87.0085 23.8541 83.5519C25.3045 80.0954 27.4291 76.9621 30.1039 74.3348C32.7787 71.7075 35.9502 69.6388 39.4335 68.2493C42.9167 66.8599 46.6419 66.1775 50.3918 66.242ZM62.3804 86.7694C62.3977 86.1799 62.2311 85.5997 61.9035 85.1093C61.5759 84.6188 61.1037 84.2424 60.5523 84.0324C58.9981 83.4508 57.7109 83.9503 56.7045 85.2709C54.445 88.2679 52.1856 91.258 49.8578 94.214C48.8787 95.4662 48.2283 97.4163 46.8041 97.7721C45.2705 98.1621 44.2846 96.1299 42.9084 95.384C42.8487 95.3492 42.7915 95.3104 42.7372 95.2677C40.9502 94.0566 39.3139 94.1319 38.2869 95.4798C37.2599 96.8278 37.4858 98.7232 39.1359 100.037C40.7859 101.351 42.6824 102.726 44.442 104.074C47.1807 106.188 48.3378 106.072 50.4877 103.301C54.1506 98.5863 57.7794 93.8376 61.4424 89.1095C61.9842 88.4314 62.3109 87.607 62.3804 86.742V86.7694Z" fill="#00CDB0"/>
<path d="M62.3802 86.7421C62.3126 87.6063 61.9884 88.4307 61.449 89.1096C57.8066 93.8377 54.1778 98.5864 50.4943 103.301C48.365 106.058 47.2421 106.188 44.5035 104.074C42.7439 102.706 40.9363 101.419 39.1973 100.037C37.4582 98.6548 37.246 96.8826 38.3483 95.4799C39.4506 94.0772 41.0116 94.0567 42.7986 95.2678C42.8529 95.3105 42.9101 95.3493 42.9698 95.3841C44.3391 96.13 45.3319 98.1622 46.8656 97.7721C48.2897 97.4163 48.9196 95.4662 49.9192 94.2141C52.2197 91.2581 54.4791 88.268 56.7659 85.271C57.7723 83.9504 59.0595 83.4509 60.6137 84.0325C61.149 84.2508 61.605 84.6273 61.9206 85.1114C62.2362 85.5956 62.3966 86.1645 62.3802 86.7421Z" fill="#F2F2F2"/>
</svg>
