<svg id="Layer_1" data-name="Layer 1" xmlns="http://www.w3.org/2000/svg" width="405.53" height="406.09" viewBox="0 0 405.53 406.09"><defs><style>.cls-1{fill:#edc61f;}.cls-2{fill:#3eba98;}.cls-3{fill:#fedb7f;}.cls-4{fill:#fefefd;}.cls-5{fill:#413590;}.cls-6{fill:#423590;}.cls-7{fill:#ef777f;}.cls-8{fill:#ef777e;}.cls-9{fill:#ee777e;}.cls-10{fill:#fefefe;}</style></defs><path class="cls-1" d="M9,189.06a14,14,0,0,0,.45-5.15.89.89,0,0,0,.12-1.1,9.14,9.14,0,0,0,.44-4,.92.92,0,0,0,.19-1.1,166.73,166.73,0,0,1,3.95-22,193.6,193.6,0,0,1,12-33.6,209.69,209.69,0,0,1,10.29-19.52A200.4,200.4,0,0,1,52.51,79.94c3.32-4.07,7.21-7.59,10.47-11.7l.84-.72a175.34,175.34,0,0,1,17.6-16,182.13,182.13,0,0,1,27-18.3,192.66,192.66,0,0,1,38.93-16.13c5.68-1.72,11.51-2.73,17.23-4.25a2,2,0,0,0,1.72-.39,5.63,5.63,0,0,0,3-.59l.07.11.07-.14a32.23,32.23,0,0,0,7-1,.82.82,0,0,0,1.09-.2,10,10,0,0,0,4-.45.75.75,0,0,0,1.09-.11c7.71-.39,15.41-1.08,23.14-.86l10.45.3a1.58,1.58,0,0,0,1.65.13,12.07,12.07,0,0,0,4.59.42.76.76,0,0,0,1.1.12,10.67,10.67,0,0,0,4,.46.84.84,0,0,0,1.1.19,5.45,5.45,0,0,0,2.88.38.91.91,0,0,0,1.09.19,5.74,5.74,0,0,0,3,.45l.08.13,0-.11c8.84,2,17.71,3.84,26.36,6.68a192.4,192.4,0,0,1,93,65,188.33,188.33,0,0,1,38.59,87c6.39,38.3,2,75.41-13.76,111-16.17,36.5-41.37,65.31-75.17,86.47a188.67,188.67,0,0,1-76,27.32,207.66,207.66,0,0,1-47.54.63,181.66,181.66,0,0,1-36.09-7.24,197,197,0,0,1-37.84-16.17c-1-.53-1.86-1.18-2.78-1.77l-.81-.53a123.36,123.36,0,0,1-18.08-11.93c-.57-.45-1.08-1-1.62-1.48a2.76,2.76,0,0,0-1.89-1.26A195.86,195.86,0,0,1,50,323.2c-3.95-5-7.7-10.09-11.12-15.38a181.21,181.21,0,0,1-10.68-19.2,194.66,194.66,0,0,1-14.31-39.21,144.62,144.62,0,0,1-3.56-20.61,1,1,0,0,0-.23-1.12,11.41,11.41,0,0,0-.51-4.57.9.9,0,0,0-.1-1.1A13.79,13.79,0,0,0,9,216.86a3.6,3.6,0,0,0-.13-2.79q0-10.83,0-21.66A5.14,5.14,0,0,0,9,189.06Zm344.11,118a60.59,60.59,0,0,0,5.79-8.67c2.29-3.88,4.92-7.6,6.35-11.94a48.82,48.82,0,0,0,5.9-12.6,20.39,20.39,0,0,0,3-7.39,89.38,89.38,0,0,0,4.87-14.89,119.17,119.17,0,0,0,4.56-21.72c2-10.26,2.15-20.63,2-31a174.86,174.86,0,0,0-8.46-51.25A181,181,0,0,0,326,67.88a179.34,179.34,0,0,0-55.4-34.77c-9.4-3.73-19-7-29-8.69a135.67,135.67,0,0,0-22.49-3.54c-3-.24-5.93-1-8.93-.18a89.52,89.52,0,0,0-17.09,0,14.35,14.35,0,0,0-2.51-.26,168.49,168.49,0,0,0-27.72,4.07,5.83,5.83,0,0,0-.84.06A183.82,183.82,0,0,0,33.51,132.91c-11,26.37-15.25,53.89-13.58,82.34.26,4.41.37,8.88,1.61,13.18.13,1.3.17,2.62.41,3.9,1.28,6.88,2.2,13.85,4.74,20.44a81.38,81.38,0,0,0,4.66,14.55,43,43,0,0,0,3.81,9.19c1.59,4.29,3.27,8.54,6.06,12.23,2.56,6.39,6.44,12,10.4,17.56a20.65,20.65,0,0,0,1.09,1.95,184.29,184.29,0,0,0,31.23,34.24,137.79,137.79,0,0,0,19.36,14.24c.37.29.73.6,1.13.86A180.74,180.74,0,0,0,163.64,382c7.83,1.71,15.74,3.15,23.81,3.27a120.73,120.73,0,0,0,28.37.13,31.77,31.77,0,0,0,3.38,0,182.6,182.6,0,0,0,36.9-7.19,173,173,0,0,0,45-20.94c.82-.47,1.66-.88,2.44-1.4a181.76,181.76,0,0,0,30.86-25.71A153.5,153.5,0,0,0,353.15,307.1Z"/><circle class="cls-2" cx="202.76" cy="202.52" r="182.87"/><path class="cls-3" d="M348.06,190.88c1.44,2.82.64,5.72.31,8.61-1.48,1.74-3.55,1.52-5.48,1.53-16.66,0-33.33-.06-50,.06-7.23,0-11.8-3.92-15.74-9.22a59.73,59.73,0,0,1-5.31-9.5c-.56-1.13-1.14-2.92-2.89-2.09-1.36.64-.71,2.15-.37,3.27a39.91,39.91,0,0,0,5.27,10.52c3.16,4.72,2.43,6.15-3.14,7.08-4.64.78-9.36.78-14,1.61a15.34,15.34,0,0,0-3.12.57c-1.68.71-4.68.84-3.93,3.31.63,2.1,3.2.8,4.84.41,9.37-2.25,19-1.51,28.47-2.49,2.21-.23,4.93.09,5.88,2.51s-1.15,4.17-2.7,5.81a26.34,26.34,0,0,1-5.55,3.91c-1.1.68-2.84,1.39-2.08,3,.93,2,2.66.74,3.95.22a22.27,22.27,0,0,0,10.85-9.33c2.51-4.18,5.84-5.56,10.54-5.49,12.72.19,25.45,0,38.17.1,2.2,0,4.62-.47,6.31,1.64,1.34,3.58-.54,7.17,0,10.75-1.65,1.87-3.9,1.42-6,1.43-11.22.06-22.44,0-33.66,0-9.06,0-11.15,1.55-13.64,10.09a114.81,114.81,0,0,1-5.57,16.34c-2.54,5.49-4.55,5.74-8.32,1.14-5-6.08-10.61-11.3-18.54-13.21-2.27-.54-5.84-1.87-6.55.53-.82,2.76,3.08,2.46,5,3.08a34.17,34.17,0,0,1,19.8,16.4,7.42,7.42,0,0,1-.26,8.51,99.17,99.17,0,0,1-15.64,18.26c-2.76,2.51-5.55,2.6-7.95-.16-6.57-7.55-14-14.33-20.33-22.06a9.3,9.3,0,0,1-2.07-5.89c-.2-8.18-1.45-16.31-1-24.51a10.15,10.15,0,0,0-.06-2.27c-.22-1.44-.06-3.5-2.09-3.44-1.73.06-1.38,2-1.67,3.29-.87,3.88-2.63,4.71-6.18,2.66a30.18,30.18,0,0,1-7.66-6.37,25,25,0,0,0-2.43-2.71c-1.12-.95-2.43-2.61-3.87-1.47-1.61,1.27,0,2.77.84,3.89a43.71,43.71,0,0,0,13.07,11.82c6.22,3.72,7.68,6.91,6.4,13.86-.53,2.85-2.09,4.08-4.81,3.11-5.43-1.93-10.81-4-16.41-5.37-2.45-.62-3.43-2.73-4.25-5-4.82-13.08-23.15-20.26-35.67-14-6.46,3.22-8.19,11.35-3.74,17.49,7.14,9.82,24.6,13.75,35,7.54,3.77-2.26,7.31-2.19,11.3-1.26,13.21,3.07,23.1,11.06,31.54,21.12,3.21,3.84,7,7.18,9.93,11.24,2.76,3.79,2.65,5.78-1,8.43a81.31,81.31,0,0,1-25,11.77c-3.37,1-5.48-.84-7-3.6a52.77,52.77,0,0,1-6.34-16.94c-.26-1.5-.48-3-.87-4.46-.23-.87-.41-1.95-1.51-2-1.5-.09-1.54,1.23-1.7,2.23-.48,3.06.45,6,.86,9,.64,4.61-1.22,6.18-5.75,4.9a23.79,23.79,0,0,1-6.5-3.23c-.89-.58-2-1.24-2.88-.23s-.27,2.33.59,3.2c2.65,2.7,6.14,3.79,9.66,4.77,1.91.53,3.91.55,5.84.9,2.92.54,4.61,2.32,4.73,5.27s-2.26,3.83-4.54,4.1c-5.26.63-10.54,1.49-15.83,1.4-27.43-.49-51.12-10.08-70.93-29.19a119.1,119.1,0,0,1-24.87-33.92,21.32,21.32,0,0,0-3.79-5.64c-7.76-8-11.42-17.86-12.3-28.68-1.28-15.61,1.29-30.21,12.52-42.27,3.53-3.79,5.2-8.86,7.83-13.29,14.57-24.55,34.89-42.06,62.28-50.87,10.78-3.47,21.87-4.42,33.18-3.82,6.07.32,12.09.66,18,2.09a13.84,13.84,0,0,1,3.89,1.2c2.51,1.45,2.79,3.3.34,4.89-5,3.23-10.57,5.27-15.94,7.71-1.64.75-3.27-.11-4.75-.93-10.73-5.93-26.76.29-32.94,8.22-3.12,4-4.66,8.7-2.47,13.64s6.54,6.58,11.48,6.92a29.65,29.65,0,0,0,23.32-8.16,20.41,20.41,0,0,0,6-11.46c.8-4.07,6.64-8.51,10.72-8.44,2.44,0,3,1.62,2.94,3.68-.06,2.88-1.73,5.1-3,7.5-.55,1-1.45,2.37-.24,3.29,1.42,1.08,2.61-.16,3.45-1.2,2.94-3.66,4.1-8.06,4.93-12.56,1.36-7.35,6.34-10.15,13.26-7.23,13.65,5.77,25.08,14.64,34.86,25.68,1.58,1.78,4.2,3.69,2.08,6.62-1.69,2.32-7.69,2.81-10.12,1a56.83,56.83,0,0,1-4.22-4.14c-5.65-5.18-12.16-8.45-19.93-8.87a10.75,10.75,0,0,0-2.27,0c-1.27.21-3.17-.23-3.32,1.58-.16,2,1.82,1.72,3,1.82a41.86,41.86,0,0,1,9.71,2.29,22.23,22.23,0,0,1,9.19,5.72c2.72,2.86,2.32,4.86-1.18,6.8s-7.06,2.89-11,.06c-4.37-3.15-9.74-2.49-14.56-1.58a29.36,29.36,0,0,0-17.51,9.83,12.36,12.36,0,0,0-3.31,7.81c-.05,4.77-2.66,7.4-6.62,9.41-5.81,3-11.41,6.31-17,9.66-1.59,1-4.31,2.2-3.22,4.2s3.46.12,5.18-.53c2.78-1,4.89-4.24,8.14-3.41s2.76,4.76,4.34,7.06a10.83,10.83,0,0,0,1.66,2.15c.84.72,1.78,1.34,2.82.47.84-.7.48-1.65.13-2.5s-.88-1.6-1.22-2.44c-1.36-3.32-2.41-6.68.24-9.85,3-3.55,6.85-4.66,11.46-2.84,10.15,4,19.06,1,27.44-4.65a19.41,19.41,0,0,0,8.21-12.68,6.87,6.87,0,0,1,4.7-5.6,146.48,146.48,0,0,1,19.18-5.65c4.37-.9,7.27.56,9.42,4.36A97.52,97.52,0,0,1,295.54,179c1.65,8,3.89,9.91,12,9.94,11.68,0,23.35-.06,35,.07C344.48,189.07,346.91,188.27,348.06,190.88Z"/><path class="cls-4" d="M302.68,225.84c11.53,0,23.08-.38,34.57.32,3.83.24,11.34-4.31,11.32,3.9,0,7.68-7.26,3.26-11.06,3.71-5.15.6-10.19,1.07-15,3.14-1.37.59-2.91,1-3.57,2.57.54,1.41-.34,2.33-1.18,3.18-4.54,4.6-7.67,10.13-10.45,15.88a122.29,122.29,0,0,1-41.2,48.18A126.62,126.62,0,0,1,212,327.79a117.76,117.76,0,0,1-62.43-7.3c-23.1-9.28-41.62-24.49-56.43-44.41a156,156,0,0,1-14.24-23.22A28.16,28.16,0,0,0,74.44,246C61.1,231.79,57.8,214.45,59.38,195.82c1.18-13.95,5.73-26.6,16.06-36.67,2.2-2.14,3.13-5.17,4.55-7.84,13.48-25.35,31.87-46,57.44-59.7a117.72,117.72,0,0,1,73.89-13.2c23.37,3.32,44.39,12.14,62.67,27.07A120.75,120.75,0,0,1,306.35,146c2.65,5.38,5.69,10.33,10,14.47,1,.92,2,1.88,1.72,3.48,3.9,5,9.81,4.71,15.21,5.39,3.73.47,7.57.08,11.36.18,2.45.06,3.64.89,3.54,3.9-.33,9.62-.15,9.61-9.8,9.64q-17.51,0-35,.16c-3.35-.21-3.42-3-3.91-5.23a101.36,101.36,0,0,0-28-51.6c-17.63-17.55-39-27.37-63.59-30.27a102.79,102.79,0,0,0-51.25,6.49c-21.07,8.46-37.58,22.4-50.5,40.84a109.32,109.32,0,0,0-8.3,13.56,50.5,50.5,0,0,1-9,13c-2.6,2.62-4,6.08-5.24,9.49a65.68,65.68,0,0,0,0,47.09,29.74,29.74,0,0,0,7,11.55c3.43,3.33,5.3,7.69,7.58,11.8,13.76,24.76,32.7,44.15,59.61,54.16,32,11.9,63.21,9,92.74-8.19,24.34-14.13,39.89-35.25,47.57-62.3C298.94,230.84,298.29,226.75,302.68,225.84Z"/><path class="cls-5" d="M302.68,225.84c-2.9,2.19-2.41,5.75-3.27,8.66C289,269.87,266.35,294,231.82,306.2c-52.62,18.53-106.5-3.72-134.38-54.63a104.24,104.24,0,0,0-9.21-13.93c-9.36-12-11-26.26-9.92-40.93,1-12.56,5-23.81,14.06-33.15,2.84-2.95,4.2-7.3,6.32-10.95,16.08-27.6,38.66-47.74,70-55.38,38.79-9.47,73.62-.11,102.92,27.33,15.68,14.69,25.38,33,29.44,54.15.32,1.66.3,3.71,2.39,4.55,1.47,1.15,3.2.65,4.81.65,12.86.05,25.72,0,38.58,0,2.19,0,4.47,0,4.94,2.81s-1.27,3.8-3.67,4.14l-40.95-.09c-8.27,0-11.51-2.75-12.92-10.77-1.86-10.55-5.88-20.28-11-29.63-1.52-2.75-3.38-3.58-6.26-3a133.6,133.6,0,0,0-21.72,6.49,2.91,2.91,0,0,0-2.13,2.63c-1,10.51-8.24,15.76-17,19.38-6.76,2.81-14,3.8-20.7.18-4.37-2.35-7,.18-9.74,2.26s-1.22,4.92-.59,7.55c.38,1.58,1.48,2.63,2.36,3.82a3.24,3.24,0,0,1-.59,4.83c-1.47,1.27-3.17.85-4.55-.36a14,14,0,0,1-4.49-8.22c-.49-2.64-1.46-2.94-3.63-1.49-2.38,1.6-5,2.83-7.44,4.36-2,1.25-4,2-5.58-.29-1.74-2.52-.13-4.38,2-5.61,6.38-3.75,12.81-7.44,19.31-11,3.53-1.93,5.89-3.73,6.29-8.65.79-9.67,8.44-14.33,16.59-17.35,8-3,16.22-4.17,23.64,2,.91.76,9.31-2.17,9.7-3.27.45-1.29-.57-1.88-1.32-2.61a27.49,27.49,0,0,0-18.81-7.86c-1.63-.06-3.41.35-4.66-1.17a3.35,3.35,0,0,1-.61-3.41c.6-1.71,2-2.1,3.62-2.16,10.26-.39,19.38,2.8,26.08,10.49,4.06,4.66,7.79,4.57,13,2.12-5-7.41-11.53-13.13-18.34-18.5a87,87,0,0,0-20.75-12,7.13,7.13,0,0,0-10.11,5.86c-.59,5.2-2,10.09-5.1,14.37-1.53,2.08-3.45,4-6,2.21s-1.57-4.12.25-6.18a13.09,13.09,0,0,0,3.12-6.94c.12-.85.81-1.82-.21-2.47s-1.69.1-2.53.47c-4.63,2-8.1,4.06-9.18,10.23-1.7,9.68-10,13.84-18.62,16.71a24.9,24.9,0,0,1-13.46.94c-12-2.67-15.57-13.67-7.65-23.1C175,112.38,193,106.73,203,114a2.72,2.72,0,0,0,3,.27c5.77-2.88,11.53-5.79,18-9-5.62-2.48-10.87-3.12-16.06-3.75-49.38-5.94-87.4,22.7-106.9,61.34C100,165,99,167.26,97.22,169a37.6,37.6,0,0,0-11,21.44c-2.42,14.2-2.78,28.74,6.16,40.7,10.75,14.37,17.78,31.2,31,44,24.49,23.64,53.14,34.06,87,29.54,1.82-.24,5.08.4,4.93-2.59-.14-2.75-2.42-3.9-5.47-4.17-5.62-.5-11-2-15.37-6-1.67-1.54-2.84-3.3-.86-5.46,1.75-1.9,3.5-1.26,5.23.05a11.57,11.57,0,0,0,2.15,1.66c2.58,1.14,5.49,3.63,8,1.92,1.91-1.32-.53-4.33-.61-6.65-.07-2.1-.62-4.19-.72-6.29-.13-2.43,1.09-4.41,3.54-4.42,2.21,0,3.26,1.85,3.33,4.13.25,7.79,3.39,14.65,6.89,21.41,1.43,2.77,2.85,3.63,6.08,2.45a116.81,116.81,0,0,0,24.43-11.85c2.7-1.78,3-3,.63-5.46q-9.21-9.4-18-19.24c-7.47-8.39-17.33-11.84-27.85-14.11-1.84-.39-3.16.41-4.58,1.39-11.17,7.64-31.16,3.49-38.52-7.95-5.65-8.77-1.21-18.62,9.13-20.68s19.21.52,27.21,6.92c3.27,2.62,5.76,5.95,6.34,10.18.37,2.67,1.77,3.62,4.09,4a53.11,53.11,0,0,1,15,4.91c2.6,1.28,3.65.65,3.51-2.22-.1-2-.22-3.94-.13-5.91.12-2.43-.86-3.82-3.1-4.91A47,47,0,0,1,209,221.86c-1.59-2.06-3.54-4.43-.57-6.63,2.65-2,4.47.17,6,2.18A44.32,44.32,0,0,0,225,227.32c2.25,1.53,3.63,1.4,3.42-1.79,0-.76-.06-1.52-.07-2.28,0-2.12,1-3.6,3.11-3.73,2.44-.16,3.55,1.39,3.62,3.69.19,5.61.79,11.25.39,16.81-.76,10.81,2.06,19.62,11,26.5,4.38,3.37,7.88,8,11.36,12.36,2.37,3,3.82,2.7,6.39.23a114.25,114.25,0,0,0,15.66-18.21c1.54-2.26,1.39-3.92.1-6.18-5.21-9.19-12.37-15.56-23.25-16.89-2.14-.26-3.41-1.51-3.32-3.59.1-2.44,1.83-3.34,4.1-3.16,10.87.9,18.89,6.59,25.32,15,.85,1.11,1,3.31,2.86,3.07s1.77-2.25,2.39-3.59a86.09,86.09,0,0,0,6-18.52C295.36,221,299,218,305.2,218q21.6-.17,43.2-.28c2,.86,4,1.84,3.28,4.57s-3.05,2.48-5.15,2.48c-12.95,0-25.91,0-38.87,0C306,224.78,304,224,302.68,225.84Z"/><path class="cls-5" d="M318.11,164c-6.18-5.13-10.28-11.7-13.95-18.77-16.52-31.79-42.27-52.47-76.73-62C168.68,67,115.12,94.75,85.74,144c-4.87,8.15-9,16.62-15.49,23.84C65,173.64,63,181.38,61.8,189c-2.51,15.72-1.69,31.1,5.79,45.59a7.86,7.86,0,0,0,1.16,1.94c10.07,10.32,15,24,23.23,35.53,18.27,25.46,41.79,43.63,72.28,51.83,24.1,6.48,48.13,5,71.56-3.33,31.69-11.25,55-32.12,70-62.34,3.41-6.89,7.12-13.68,13.16-18.78,8.84-4.23,18.26-5,27.87-4.84,2.41.05,4.87.07,5,3.18.19,3.51-2.52,3.51-5,3.62-3.93.17-7.86.51-11.79.62-8.89.25-15,4.55-19.17,12.3-4.8,8.91-9.16,18.09-15.19,26.29q-31.83,43.22-84.77,52.11c-58.28,9.86-108.2-20.33-135.27-65.26A28.16,28.16,0,0,0,78.76,265c-3.48-6.84-6.59-13.76-12.09-19.51-6.54-6.83-9.74-15.69-11.29-24.9-3.06-18.13-3.88-36.86,6.71-52.43C72.44,152.94,80.53,136.26,92.37,122c23.37-28.1,52.57-46.3,89.29-49.59,41.51-3.72,77.58,9.4,107.23,39.13,1.17,1.17,2.37,2.3,3.56,3.46,8.73,10.46,15.57,22.1,21.94,34.12,4.22,8,11,12.6,20.65,12.25,4.37-.15,8.77.34,13.16.57,2.1.11,3.49,1.15,3.48,3.36a3,3,0,0,1-3.5,3.28C338,168.12,327.52,169.46,318.11,164Z"/><path class="cls-6" d="M348.36,206.93c-16.06-.08-32.12-.13-48.18-.28-2.43,0-3.37,1.38-4.43,3.18a28.5,28.5,0,0,1-14,12.4c-2.08.84-4.34,1.28-5.48-1.27-1-2.35,0-3.94,2.46-4.92a21.42,21.42,0,0,0,8.69-6.4c1.47-1.81,1.8-3.3-1.32-3.28-11.2.06-22.44-.15-33.39,2.89-2.26.62-4.73,1.37-5.79-1.55s1-4.27,3.59-5.11c6.72-2.15,13.69-2.39,20.64-2.86l4.2-.28c-2.44-5.13-6.48-8.9-7.87-14-.2-.72-.66-1.37-.91-2.08-.8-2.32-1.1-4.74,1.76-5.69,2.46-.82,3.82.79,4.66,3.08a43.29,43.29,0,0,0,4.89,9.7c4.18,6.05,9.29,9.72,17.32,9.48,17.72-.52,35.45-.31,53.18-.4,1.71.63,3.35,1.33,3.48,3.5C352,205.43,350.19,206.2,348.36,206.93Z"/><path class="cls-5" d="M96.66,202.53c.06-10.29,1.52-20.26,7.37-29.06,7.6-11.42,21-11.13,27.41,1,9.34,17.61,9.1,35.71,1.11,53.8a21.65,21.65,0,0,1-3.23,4.9c-7.27,8.79-17.84,8.37-24.51-.92C99.45,224.74,96.69,214.7,96.66,202.53Z"/><path class="cls-7" d="M179.55,228.94a24.67,24.67,0,0,1,16.36,6.65c2.19,2,4.06,4.36,3.34,7.52s-3.4,4-6.1,4.76c-7.59,2.24-19.12-1.83-23.54-8.36-2.88-4.27-1.75-7.91,3.12-9.62A16.05,16.05,0,0,1,179.55,228.94Z"/><path class="cls-8" d="M224.47,171.21c-3.53-.41-7.59-.6-9-4.65-1.2-3.51,1.13-6.33,3.61-8.68,5.4-5.13,11.8-7.74,19.29-7.11,2.89.25,5.77,1.07,7.13,4,1.44,3.13-.49,5.59-2.26,7.77C238.49,168.46,231.84,170.55,224.47,171.21Z"/><path class="cls-9" d="M179.21,138c-3.06-.12-6.87-.13-8.51-3.9s.8-6.68,3.35-9.14c5.64-5.45,12.41-8,20.23-7,6.33.84,8.13,5,4.79,10.29C195.48,134,187.6,137.94,179.21,138Z"/><path class="cls-10" d="M103.49,202.43c0-8,1.26-15.67,5-22.8a21,21,0,0,1,2.81-4.1c4.2-4.73,8-4.75,12.18,0,4.81,5.47,6.46,12.26,7.4,19.19,1.39,10.25.27,20.23-4.22,29.68a5.7,5.7,0,0,1-.35.84c-2.29,3.36-4.4,7.39-9.1,7.23-4.38-.16-6.75-3.73-8.62-7.25A47.29,47.29,0,0,1,103.49,202.43Z"/></svg>