<svg id="Layer_1" data-name="Layer 1" xmlns="http://www.w3.org/2000/svg" width="405.53" height="406.09" viewBox="0 0 405.53 406.09"><defs><style>.cls-1{fill:#edc61f;}.cls-2{fill:#3eba98;}.cls-3{fill:#dddbee;}.cls-4{fill:#bdbdbd;}.cls-5{fill:#e9e6f3;}.cls-6{fill:#e98f75;}.cls-7{fill:#c5d2ec;}.cls-8{fill:#bcc5e4;}.cls-9{fill:#3b5290;}.cls-10{fill:#29a1a2;}.cls-11{fill:#2aa1a2;}.cls-12{fill:#81cdbd;}.cls-13{fill:#c2e5dd;}.cls-14{fill:#5dc0b0;}.cls-15{fill:#8f8f8f;}.cls-16{fill:#feffff;}.cls-17{fill:#5abead;}.cls-18{fill:#93aeda;}.cls-19{fill:#5471b7;}.cls-20{fill:#cfcfcf;}.cls-21{fill:#cdcccd;}.cls-22{fill:#9e9d9d;}.cls-23{fill:#9c9c9c;}.cls-24{fill:#5abfae;}.cls-25{fill:#9c5f49;}.cls-26{fill:#9b614c;}.cls-27{fill:#373837;}.cls-28{fill:#383838;}.cls-29{fill:#4f598a;}.cls-30{fill:#867c73;}.cls-31{fill:#887e75;}.cls-32{fill:#877d74;}.cls-33{fill:#fdfdfd;}.cls-34{fill:#91acd8;}.cls-35{fill:#aabfe3;}.cls-36{fill:#919dcf;}.cls-37{fill:#8894ca;}.cls-38{fill:#a8c2e6;}.cls-39{fill:#724636;}.cls-40{fill:#f16a5d;}.cls-41{fill:#39436c;}.cls-42{fill:#40496d;}.cls-43{fill:#a1624d;}.cls-44{fill:#9b604b;}.cls-45{fill:#324779;}.cls-46{fill:#314777;}.cls-47{fill:#8d8c8c;}.cls-48{fill:#484848;}.cls-49{fill:#81a1d3;}</style></defs><path class="cls-1" d="M9,189.06a14,14,0,0,0,.45-5.15.89.89,0,0,0,.12-1.1,9.14,9.14,0,0,0,.44-4,.92.92,0,0,0,.19-1.1,166.73,166.73,0,0,1,3.95-22,193.6,193.6,0,0,1,12-33.6,209.69,209.69,0,0,1,10.29-19.52A200.4,200.4,0,0,1,52.51,79.94c3.32-4.07,7.21-7.59,10.47-11.7l.84-.72a175.34,175.34,0,0,1,17.6-16,182.13,182.13,0,0,1,27-18.3,192.66,192.66,0,0,1,38.93-16.13c5.68-1.72,11.51-2.73,17.23-4.25a2,2,0,0,0,1.72-.39,5.63,5.63,0,0,0,3-.59l.07.11.07-.14a32.23,32.23,0,0,0,7-1,.82.82,0,0,0,1.09-.2,10,10,0,0,0,4-.45.75.75,0,0,0,1.09-.11c7.71-.39,15.41-1.08,23.14-.86l10.45.3a1.58,1.58,0,0,0,1.65.13,12.07,12.07,0,0,0,4.59.42.76.76,0,0,0,1.1.12,10.67,10.67,0,0,0,4,.46.84.84,0,0,0,1.1.19,5.45,5.45,0,0,0,2.88.38.91.91,0,0,0,1.09.19,5.74,5.74,0,0,0,3,.45l.08.13,0-.11c8.84,2,17.71,3.84,26.36,6.68a192.4,192.4,0,0,1,93,65,188.33,188.33,0,0,1,38.59,87c6.39,38.3,2,75.41-13.76,111-16.17,36.5-41.37,65.31-75.17,86.47a188.67,188.67,0,0,1-76,27.32,207.66,207.66,0,0,1-47.54.63,181.66,181.66,0,0,1-36.09-7.24,197,197,0,0,1-37.84-16.17c-1-.53-1.86-1.18-2.78-1.77l-.81-.53a123.36,123.36,0,0,1-18.08-11.93c-.57-.45-1.08-1-1.62-1.48a2.76,2.76,0,0,0-1.89-1.26A195.86,195.86,0,0,1,50,323.2c-3.95-5-7.7-10.09-11.12-15.38a181.21,181.21,0,0,1-10.68-19.2,194.66,194.66,0,0,1-14.31-39.21,144.62,144.62,0,0,1-3.56-20.61,1,1,0,0,0-.23-1.12,11.41,11.41,0,0,0-.51-4.57.9.9,0,0,0-.1-1.1A13.79,13.79,0,0,0,9,216.86a3.6,3.6,0,0,0-.13-2.79q0-10.83,0-21.66A5.14,5.14,0,0,0,9,189.06Zm344.11,118a60.59,60.59,0,0,0,5.79-8.67c2.29-3.88,4.92-7.6,6.35-11.94a48.82,48.82,0,0,0,5.9-12.6,20.39,20.39,0,0,0,3-7.39,89.38,89.38,0,0,0,4.87-14.89,119.17,119.17,0,0,0,4.56-21.72c2-10.26,2.15-20.63,2-31a174.86,174.86,0,0,0-8.46-51.25A181,181,0,0,0,326,67.88a179.34,179.34,0,0,0-55.4-34.77c-9.4-3.73-19-7-29-8.69a135.67,135.67,0,0,0-22.49-3.54c-3-.24-5.93-1-8.93-.18a89.52,89.52,0,0,0-17.09,0,14.35,14.35,0,0,0-2.51-.26,168.49,168.49,0,0,0-27.72,4.07,5.83,5.83,0,0,0-.84.06A183.82,183.82,0,0,0,33.51,132.91c-11,26.37-15.25,53.89-13.58,82.34.26,4.41.37,8.88,1.61,13.18.13,1.3.17,2.62.41,3.9,1.28,6.88,2.2,13.85,4.74,20.44a81.38,81.38,0,0,0,4.66,14.55,43,43,0,0,0,3.81,9.19c1.59,4.29,3.27,8.54,6.06,12.23,2.56,6.39,6.44,12,10.4,17.56a20.65,20.65,0,0,0,1.09,1.95,184.29,184.29,0,0,0,31.23,34.24,137.79,137.79,0,0,0,19.36,14.24c.37.29.73.6,1.13.86A180.74,180.74,0,0,0,163.64,382c7.83,1.71,15.74,3.15,23.81,3.27a120.73,120.73,0,0,0,28.37.13,31.77,31.77,0,0,0,3.38,0,182.6,182.6,0,0,0,36.9-7.19,173,173,0,0,0,45-20.94c.82-.47,1.66-.88,2.44-1.4a181.76,181.76,0,0,0,30.86-25.71A153.5,153.5,0,0,0,353.15,307.1Z"/><circle class="cls-2" cx="202.76" cy="202.52" r="182.87"/><path class="cls-3" d="M181.1,135.66c7.89-2.32,15.78-4.64,23.3-8,7.82-3.49,15.63-7,23.38-10.68,12.92-6.1,26-11.71,40-14.93a90.86,90.86,0,0,1,13.82-1.93,65.34,65.34,0,0,1,17.72,1.11,61.06,61.06,0,0,1,26,11.64A61.77,61.77,0,0,1,343.7,136.7c.41.92,1.27,2.05.59,2.84s-1.91.17-2.94,0c-15.14-2.9-29.46-1.55-42.12,8.25-.34.27-.68.54-1,.83-3.9,3.57-3.86,3.49-8.72,1.2-4-1.89-8.08-3.54-12.13-5.31-.81-.35-1.65-.91-2,.53-1.13.21-1.43-.78-1.95-1.4-3.45-4.11-7.69-6.64-13.18-6.74a5.77,5.77,0,0,1-3-.72,16.1,16.1,0,0,0-12.73-1.86,3.5,3.5,0,0,1-1.29,0c-5.28-2.48-12-.93-17.13,3.84-5.33,5-8.83,11.25-12.57,17.36a6.46,6.46,0,0,1-1.65,2.28c-2.38.4-3.74,1.89-4.68,4-1.6,3.65-3.18,7.32-4.84,10.95-.36.79-.54,1.64-.82,2.45-1.56,4.47-3.57,8.33-8.37,10.46-2.6,1.15-5.53,2.52-7,5.39-3.13,3.54-7.33,5.39-11.49,7.28a1.35,1.35,0,0,1-1.84-.43,27.87,27.87,0,0,1-1.29-8.93c.21-1.38,1.19-1.82,2.4-2,1.55-.19,3.08-.49,4.63-.69a2.73,2.73,0,0,0,2.72-3.09c.07-6.85-.46-13.69-.79-20.53-.42-8.33-.16-16.65-.2-25A2.51,2.51,0,0,1,181.1,135.66Z"/><path class="cls-4" d="M285.3,291c-4.05-1.36-7.51-3.91-11.37-5.67-6.45-2.94-13.06-5.09-20.21-5.26-.5,0-1.15.2-1.43-.32-.4-.72.36-1.06.73-1.48a68.36,68.36,0,0,1,9-8.32c8-6.48,13-15,17-24.28,8-18.71,14.61-38,23.23-56.48,2.57-5.51,5.6-10.82,10.25-14.88s10.33-4.41,16.17-3.17c4.63.3,7,3.56,8.66,7.22,2,4.32,1.85,9,.9,13.54-1.68,8-4.8,15.55-8.27,23-4.09,8.71-8.2,17.42-12.25,26.15q-5.31,10.8-10.2,21.79c-.45,1-.68,2.15-1.62,2.9-1.42.42-2.74.89-2.86,2.75-.06.8-.8.93-1.54,1-3,.45-3.59,1.9-1.85,4.3a10.65,10.65,0,0,1,1.07,1.43c.4,1.09-.24,1.83-.91,2.52a186.28,186.28,0,0,1-13.48,12.88A1.74,1.74,0,0,1,285.3,291Z"/><path class="cls-5" d="M183.79,298.81c-3.49.54-7.11.66-10.42,1.75-2.38.78-4.64-.19-7,.59-1.54.5-3.73-1.15-5.81-1.46a30.82,30.82,0,0,1-16.73-8.23c-3.25-3-5.3-7-7.08-11.07-2.77-6.41-4.42-13.25-7.7-19.48-3.67-7-8.15-13.22-14.7-17.8a1.58,1.58,0,0,1,.52-1c2.64-2,5.9-2.81,8.74-4.47a182.54,182.54,0,0,0,17.32-11.84,5,5,0,0,1,3-1.4,5.79,5.79,0,0,1,2.15.88c13.75,7.07,27.41,6.7,41-.46,2.14-1.13,4-2.79,6.36-3.45,1.83.48,3.12,1.42,3,3.55-3.19,3.74-6.79,7.17-9,11.65-5.49,11-10.48,22.05-10.94,34.63a50.16,50.16,0,0,0,2,17.41,20.35,20.35,0,0,0,3.91,7.27C183.07,296.7,183.89,297.55,183.79,298.81Z"/><path class="cls-6" d="M183.79,298.81c-8.54-9.32-9.09-20.72-7.67-32.24,1.49-12.1,6.34-23.16,12.65-33.55a36.71,36.71,0,0,1,7.41-8.32c1.79-2.53,4.41-3.22,7.27-3.06,2.24.13,3.65,1.6,4.16,4a9.78,9.78,0,0,1-.32,5.36,3.45,3.45,0,0,0,.05,3.43c.86,1.37.25,2.85-.39,4.22a135.36,135.36,0,0,0-8,20.86,45.77,45.77,0,0,0-2.11,14.6c.25,5.15,3.67,7.3,8.38,5.14,4.34-2,7.08-5.74,10.08-9.22,3.91-4.53,7.3-9.46,11-14.12,2.13-.35,4.13.42,6.07,1a33.2,33.2,0,0,1,14.35,8.49c.66.66,1.46,1.26,1.49,2.33-2.25,4.12-5.32,7.64-8.26,11.23-5.71,7-11.53,13.87-18.92,19.18a39.55,39.55,0,0,1-15.2,7C197.39,306.86,190.13,304.45,183.79,298.81Z"/><path class="cls-4" d="M181.1,135.66c0,8.41-.26,16.84.06,25.24.3,7.77.93,15.53,1,23.32,0,1.58-.1,2.62-2.11,2.7s-4.07.7-6.12.85c-1.2.09-1.77.47-1.78,1.65a14.11,14.11,0,0,0-7.67-.54,14.42,14.42,0,0,1-2.85.23c-5.31-.26-10.58.49-15.87.45-2.94,0-5.85-.72-8.81-.51a7.44,7.44,0,0,0-3.06.5c-3.94,1-8,.82-12,1.06-3.7.21-7.37.51-11,.95a88.58,88.58,0,0,1-9.07.2c-3,0-3.37-.41-4.19-3.49-.42-7.44-1.65-14.83-1.86-22.27-.15-5.25-1.13-10.38-1.43-15.59-.12-2,1-3.89.31-5.87-.36-5.88-.65-11.75-1.11-17.62-.17-2.21.64-2.69,2.76-2.76,12.38-.42,24.75-.9,37.12-1.6q15.56-.9,31.13-1.6c4.59-.21,9.18-.24,13.77-.41,1.85-.07,2.45.6,2.34,2.39C180.27,127.19,180.94,131.42,181.1,135.66Z"/><path class="cls-7" d="M248.24,267.69c-6-6.28-13.1-10.35-21.8-11.43-.12-3,2-5,3.07-7.51,1.4-3.39,1.25-4.81-1.93-6.83a55.71,55.71,0,0,0-7.87-4c-4-1.72-7.77-3.8-11.65-5.71a3,3,0,0,1-1.36-1.16c.49-2.88,1.47-6.05-1.46-8.06s-5.59-.29-8.16,1.19c-.29.17-.6.32-.9.48-.36-1.47-1.54-2.22-2.66-3-.21-.92.4-1.48,1-2,6.79-5.59,11.05-12.56,11.73-21.48,1.35-2.63.58-5-1-7.24-.19-1.53-1.53-2.73-1.24-4.39a1.76,1.76,0,0,1,1.57-.22c3.41,3.12,7.59,3.69,12,3.6a3.1,3.1,0,0,1,1.51.2c1.74,1.81,2.4,4.34,4.31,6.11,4.67,4.33,10.18,6,16.4,5.88.93,0,1.88-.5,2.76.19,2.34,7.91,7.52,14.16,12.09,20.76a37.36,37.36,0,0,1,5.59,11.07c1.29,4.57.38,9.08-.91,13.53a64,64,0,0,1-8.4,17.2A9.6,9.6,0,0,1,248.24,267.69Z"/><path class="cls-8" d="M285.3,291c4.48-4.38,9-8.74,13.43-13.13.71-.7,1.7-1.26,1.71-2.46,2.09-3.13,2.81-7,5.19-10,3-7.6,6.82-14.84,10.16-22.29a20.65,20.65,0,0,1,1.32-2.2c3.45,1.36,6.5,3.49,9.87,5a6.43,6.43,0,0,0,3.19.63c4.4-.12,8.85-.52,13.22.24,2.2.37,4.55-.46,6.59.88,2.72,4.21,4,9,5,13.79a34.44,34.44,0,0,1-.56,17.43c-3.46,11-11.28,17.68-22.22,20.43C315.38,303.63,299.84,299.85,285.3,291Z"/><path class="cls-8" d="M98.16,188.33c.23,2.94,2.52,2.95,4.48,2.79,2.69-.21,5.38-.06,8.06-.18a4.27,4.27,0,0,1,1.21,3.56,55.89,55.89,0,0,0,.53,6.46q1,14.5,2,29c.27,4.2,1.1,8.42.44,12.67l-.54.47c-7-3.93-14.62-5.83-22.51-6.82-1-.13-2-.35-3-.54-.28-2.67,0-3,3.64-3.79-1.57.07-3,.12-3.82-1.68-.94-2-.55-3.44.94-5-1.56.55-2.72,1.94-4.65,1-1.75-.86-2.58-1.91-2.36-3.94-.69,1.51-.79,3.12-2.69,3.88s-3-.64-4.46-1.23c1.11,1.55,2.2,3,1,4.91-.54.86-1.08,1.7-2.15,1.6-1.39-.13-2,.78-2.67,1.65a67.8,67.8,0,0,1-21.2-7.26c-1.81-1-3.56-2.13-5.33-3.19-.85-1.07-.39-2.13,0-3.2,6.25-17.45,18.75-27.56,36.71-31.26,4.81-1,9.67-.53,14.52-.6A2.73,2.73,0,0,1,98.16,188.33Z"/><path class="cls-3" d="M98.16,188.33c-6.21.14-12.45-.47-18.59,1-10.37,2.56-19.13,7.61-26,16a46.19,46.19,0,0,0-8.27,15.09,6.69,6.69,0,0,0-.33,2.29c-6.61-4.5-11.3-10.44-13.27-18.26a25.65,25.65,0,0,1-.11-12.82c.6-2.29,2.12-3.25,4.76-2.73,7.59,1.51,14.54-.73,21.25-3.82,7.88-3.61,14.58-9.2,21.89-13.77a76.09,76.09,0,0,1,14-6.8c1.72-.63,2.49-1.41,2-2.89-.7-1.9-2.09-.4-3-.09-8.5,2.95-16,7.77-23.39,12.76-6.95,4.68-13.92,9.41-22.39,11.15a47.5,47.5,0,0,1-10.83.78c-2.08-.05-2.42-.89-1.48-2.8,5.3-10.75,13.5-18.73,23.53-25a34.91,34.91,0,0,1,8.1-4.06c1.13-1.25,2.32-1.2,3.25.1.46.65,1.1.51,1.42.71,2.22,1.41,2.58-1.55,4.11-1.56.81,0,.13-.45.08-.61-.58-1.88.47-2.73,2-3.27,5.45-1.1,10.79-2.82,16.4-3.13,1.5-.08,1.13-1.21,1.26-2.08,1.06,2.89.75,6,.86,8.93.35,9.34,1.77,18.57,2.32,27.88C97.87,183.67,98.18,186,98.16,188.33Z"/><path class="cls-3" d="M350,247.76c-6.46,0-12.9-.84-19.37-.51-.51,0-1.89-.94-1,.89.48,1-.62.66-.8.44-3-3.9-8.58-3.92-11.72-7.61,2.44-6.08,5.42-11.91,8.18-17.85,2.95-6.35,6.26-12.57,8.6-19.14,2.12-5.95,4.4-12,4.16-18.57-.26-7-3.13-11.66-9.45-14.26.47-1.36-1-1.3-1.47-1.62-8.57-5.22-17.47-9.84-26.5-14.21-2.07-1-2.23-1.65-.51-3.4,5.61-5.72,12.58-8.73,20.36-10a55.22,55.22,0,0,1,24.11,1.59,2.84,2.84,0,0,1,2.25,2.53c.14.93.38,1.85.58,2.78,1,1.08,1.36,2.3.28,3.46-1.32,1.44-2.88,1.29-4.57.26.78,1.12,1.29,2.2.76,3.53a3.27,3.27,0,0,1-2.48,1.85,3.32,3.32,0,0,1,2.79,1.81c.62,1.31.21,2.32-.58,3.45a3.48,3.48,0,0,1,3.35-.59,2.73,2.73,0,0,1,1.91,2.5c.07.64.76.9,1.09,1.39-2.48.73-1.64,3.07-1.89,4.58-1.46,8.94-3.77,17.68-5.64,26.53-2.24,10.58-3,21.2-.16,31.76,1.5,5.6,4.14,10.8,6.73,16C349.4,246.14,349.66,247,350,247.76Z"/><path class="cls-6" d="M242.57,202.37c-9.41,1.9-19.39-2.51-22.83-10.11a10.9,10.9,0,0,1-.47-1.72,5,5,0,0,1,3.75-2.37c5.33,1.38,10-.09,15-3.31-3.85,0-7.15,0-10.1-1.73.11-1.48,1.42-1.87,2.38-2.52a14.07,14.07,0,0,0,6.37-12.12q.13-6.51,0-13c-.07-3.54-1.86-4.61-5.14-3.29-1.74.7-3.22,2.1-5.27,2-1.06-.72-.33-1.53,0-2.2a15.34,15.34,0,0,1,2.52-3.77c1.11-.73,2.12.4,3.24.18.27-1-.89-1.17-1-1.9,1.36-2.53,2.66-5.11,5.75-6A26.25,26.25,0,0,0,247,141c2-.27,2.9.44,3,2.45.55,7.25,2.05,14.25,5.73,20.64a8.86,8.86,0,0,0,2.29,2.76c2.89,2.23,4.14,5.22,3.13,8.74s-3.56,5-7.07,5.07a3.56,3.56,0,0,0-2.61,1C246.53,187.68,242.77,194.26,242.57,202.37Z"/><path class="cls-9" d="M251.54,181.64c.56-.89.73-2,2.33-1.88,3.45.18,5.61-1.23,6.63-3.87s.49-6.06-2-7.79c-3-2.12-4.17-5.29-5.55-8.32a41.46,41.46,0,0,1-3.5-16.13c-.06-1.77-.44-2.27-2.43-2-3.56.54-7.24.85-10.71-.73a1.73,1.73,0,0,1,0-2.37c1.66-2.37,3.65-4.31,6.76-4.58,5.1-1.5,10-1.35,14.64,1.63a2.78,2.78,0,0,0,1.45.42c7.12-.09,12.28,3.35,16.24,9,3.43,7.44,1.38,13.83-3.78,19.61-.75.84-1.38,1.48-1.14,2.89,1.41,8.53-4.59,15.19-13.31,14.85C255.3,182.29,253.42,181.89,251.54,181.64Z"/><path class="cls-10" d="M71.54,233.18c0-1.33-.46-3.06,2.06-2.1,1.41.54,1.88-.58,2.34-1.73s1-2.08-.38-2.85c-.66-.38-1.55-.54-1.29-1.61a1.32,1.32,0,0,1,1-1c1-.21,1.25.62,1.61,1.32.76,1.47,1.78.69,2.86.36,1.25-.39,2.09-.94,1.66-2.37-.21-.68-.6-1.37.21-1.8a1.82,1.82,0,0,1,1.48,0c.78.42.49,1.16.24,1.83-.53,1.46.31,1.92,1.54,2.38s2.41,1.18,3.25-.49c.32-.64.55-1.41,1.44-1.06a2,2,0,0,1,1,1.07c.29.73-.3,1.07-.89,1.32-2.37,1-.87,2.52-.47,3.87.48,1.6,1.46,1.45,2.59.71a.9.9,0,0,1,1.35.27,1.7,1.7,0,0,1,.07,1.74.81.81,0,0,1-1.08.47c-2.76-1.6-3,.53-3.45,2.31-1.08,1.29.18,1.66.92,2s1.28.68.93,1.51a2.18,2.18,0,0,1-1.07,1c-.87.34-1.13-.3-1.43-1-.83-2-2.13-.89-3.42-.51s-1.87,1.11-1.25,2.46c.27.59.41,1.2-.21,1.63a1.6,1.6,0,0,1-1.73,0c-.64-.37-.56-1-.27-1.59.8-1.73-.33-2.17-1.66-2.77s-2.4-.79-2.93,1a1,1,0,0,1-1.42.76A1.63,1.63,0,0,1,74.08,239a1,1,0,0,1,.76-1.19c1.12-.4,2.13-.85,1.33-2.4-.67-1.3-1-2.89-3.09-2.22A5,5,0,0,1,71.54,233.18Z"/><path class="cls-11" d="M197.82,106.7c-.65.28-1.17.46-1.52-.13a1.52,1.52,0,0,1-.05-1.5c.39-.75,1-.49,1.55-.23,1.53.68,1.9-.49,2.48-1.48a1.5,1.5,0,0,0-.56-2.39c-.53-.31-1.19-.54-.83-1.32a1.8,1.8,0,0,1,.9-.86c.75-.28,1,.25,1.27.89.59,1.49,1.59,1,2.78.71,1.44-.39,1.89-1,1.31-2.37-.36-.87.13-1.36,1-1.33s1.6.42,1.12,1.48c-.71,1.53.08,2.12,1.34,2.75s1.91.28,2.43-.9c.21-.49.69-.88,1.25-.52a2.4,2.4,0,0,1,1,1.14c.18.57-.31,1-.85,1.1-1.54.45-1.4,1.38-.95,2.62s1,2,2.43,1.4a.91.91,0,0,1,1.31.41,1.25,1.25,0,0,1-.12,1.46,1,1,0,0,1-1.4.17c-1.39-.72-1.94,0-2.53,1.22s-.78,2.06.65,2.7c.84.39.87,1.08.26,1.68s-1.44.68-1.8-.35c-.53-1.55-1.46-1.26-2.68-.89-1.4.43-1.82,1.09-1.32,2.47.33.93-.33,1.27-1.12,1.26s-1.44-.54-1-1.33c.76-1.51.22-2.1-1.17-2.72-1.22-.54-2-.82-2.71.63a.9.9,0,0,1-1.65.26c-.69-.76-.54-1.4.45-1.79,1.7-.65,1-1.83.74-3S198.77,106.42,197.82,106.7Z"/><path class="cls-12" d="M350,166.51c-1.07-.06-2.48.28-1.83-1.71.33-1-.35-1.36-1.2-1.58s-1.61-.85-2.36.08c-.46.59-.59,2-1.8.92s0-1.38.64-1.86c.89-.68.68-1.44.23-2.28s-.8-1.82-2.09-1.23c-.73.33-1.4.39-1.5-.65s.46-1.25,1.29-1.1c1.36.25,1.77-.59,2.18-1.65.46-1.22-.12-1.73-1.1-2.19-.73-.35-.64-.93-.18-1.49s1.07-.68,1.32-.21c.91,1.65,2,1.55,3.45.76,1.79-1,0-2.35.4-3.47,1.21-.11,2.36-.18,2,1.66-.24,1.17.36,1.65,1.48,2s1.81.46,2.29-.76c.3-.76.86-1.15,1.59-.47s.63,1.24-.18,1.68c-1.64.89-.75,2.05-.33,3.11s1.22.83,2.09.36,1.26.23,1.36,1-.29,1.45-1.18,1.13c-1.18-.43-1.9-.39-2.37,1s-.74,2.3.94,2.86c.76.26.7.9.22,1.46s-1,.77-1.32.28c-.95-1.68-2-1.7-3.57-.8S350.53,165.5,350,166.51Z"/><path class="cls-13" d="M267.75,195.25c2.05.85,3.78,1.23,3.27-1.85a.58.58,0,0,1,.62-.67.72.72,0,0,1,.55.4c.62,2,1.47,2.66,3,.7.36-.45,1.31-.09,1,.39-1.74,2.71.71,2.66,2.32,3.41-1.27,1-3.81,1.88-.79,3.56.14.07.19.51.11.7-.15.39-.53.41-.86.22-2.55-1.49-2.85.18-3,2.25-1-.32-.76-1.9-2.08-2s-1.48,1-2.28,1.38a.69.69,0,0,1-.32-1.1c1.1-1.66.17-2.17-1.31-2.26-.5,0-1.07.29-1.24-.42s.44-.58.82-.75C270,198.15,267.81,196.72,267.75,195.25Z"/><path class="cls-14" d="M76.89,149.75c-.92,1.27-3.4,2.43-.27,4a1.06,1.06,0,0,1-.15.66c-.25.34-.55.17-.89,0-1.63-.73-2.15.09-2,1.57,0,.39.49.77-.14,1-.37.13-.62-.12-.82-.44-1-1.49-1.9-1.75-2.73.13-.18.41-.58.37-.88.23a.67.67,0,0,1-.27-.6c1-3.39-1.29-2.07-2.74-2,0-.34-.1-.91,0-1,2-1,2.94-2,.14-3.28-.1,0-.14-.5,0-.67.25-.47.61-.4,1.07-.19,1.69.75,2.15-.1,1.89-1.61-.08-.47-.21-.88.26-1.1.69-.31.82.28,1.07.73.73,1.32,1.54,1.25,2.27,0,.23-.41.45-.77,1-.57.18.06.43.42.38.55-1.09,3,.8,2.44,2.5,2.15C76.63,149.4,76.77,149.63,76.89,149.75Z"/><path class="cls-13" d="M109.58,260.4c-.93,1.87-2,3.47,1.27,4.1-1.95.5-3.39,1-1.85,3.59-2.06-1.17-3.56-1.6-3.7,1.34-1-1.22-.56-3.81-3-2.3-.69.44-1.19-.33-.64-1,1.52-1.76-.06-2.07-1.47-2.73,1.39-.85,4.21-.7,1.71-3.84,2.07,1.05,3.61,2.26,3.66-1.1C106.78,259.93,106.93,262.81,109.58,260.4Z"/><path class="cls-15" d="M114.85,242.64c-1.14-2.06-.71-4.4-.88-6.57-.76-9.31-1.17-18.64-1.77-28-.15-2.41-.67-4.8-.47-7.24a5.49,5.49,0,0,1,2.21-1.32c7.39-2.67,14.57-5.87,21.8-8.93a16,16,0,0,1,5.17-1.45c.3-.21-.22-.44,0-.16,0,.07,0,.14-.2.17-2.37.31-4.75.93-7.06-.26,2.74-1.14,5.63-.69,8.38-.42a70.64,70.64,0,0,0,9.76,0c6-.27,12.08-.23,18.11-.7,1.39-.11,1.76.72,2.22,1.64l1.17,8.68c-.43,1-1.42,1.23-2.31,1.48-7.6,2.06-14.42.77-20.18-4.84-1.06-1-2-2.13-3.16-3.09s-2.14-1.43-3.25-.37a2.3,2.3,0,0,0,0,3.31c4.8,5.87,10.76,9.72,18.53,10.27,1.45.1,3-.23,4.36.37.89,1.26-.23,1.94-.9,2.53A165.73,165.73,0,0,1,149.69,221c-2.77-.22-4.77-1.91-6.58-3.75A30.52,30.52,0,0,1,135.43,203a12.25,12.25,0,0,0-1.21-3.68,2.38,2.38,0,0,0-2.61-1.28c-1.1.22-1.5,1.08-1.75,2a6,6,0,0,0,.15,2.57c1.32,8.19,5.78,14.5,11.86,19.86.67.6,1.7,1,1.6,2.18C134.48,231.54,125.33,238.14,114.85,242.64Z"/><path class="cls-16" d="M243.09,134c-2.92,1.67-6.28,2.91-6.74,7a39.92,39.92,0,0,0-5.3,5.5c-.34.92-1.79.76-1.88,1.92L226,153.82c-.08.35-.21.72-.53.84-3.28,1.24-6.29,3.08-9.65,4.13-1.45,0-3,.21-4-1.22,3.91-7.21,8-14.34,14.05-20a17.75,17.75,0,0,1,14.71-4.94C241.5,132.73,242.73,132.69,243.09,134Z"/><path class="cls-17" d="M167.68,205.61c-6.5.32-12.59-.91-18-4.81a38,38,0,0,1-6-5.78,3,3,0,0,1,0-4.45c1.41-1.32,3-.95,4.34.45,2.7,2.8,5.24,5.79,9,7.32,5.44,2.22,10.82,1.88,16.19-.24a34.49,34.49,0,0,0,12.49-7.22c2.49.6,3.58,2.34,3.88,4.73-2,2.22-4.76,3.39-7.07,5.19a34.42,34.42,0,0,1-12.16,4.89C169.51,205.84,168.57,206.28,167.68,205.61Z"/><path class="cls-18" d="M189.29,195.56a9,9,0,0,0-3.52-4.68,2,2,0,0,1,1.17-2.1c2.23-1.34,4.21-3.25,6.59-4.13,5.33-2,6.22-6.71,7.85-11.1a8.39,8.39,0,0,1,.45-.9c1.53,2.26,4.2,2.15,6.37,3.07a2.28,2.28,0,0,1-.19,2,26.24,26.24,0,0,0-2.45,9.06l-1.54,0c-2.94,2.36-3,2.69-.49,5.72.59.73,1.29,1.42,1.11,2.5a2.83,2.83,0,0,1-3.52,1c-.23-1.63-1.44-2.88-1.73-4.51-.1-.62-.83-.44-1.35-.35-1.76.71-3.45,1.3-4.72,3C192.59,195.13,191.38,197.29,189.29,195.56Z"/><path class="cls-19" d="M208.08,175.75a9.2,9.2,0,0,1-4.49-.67,2.18,2.18,0,0,1-1.76-2.43c1.77-4,3.61-8,5.28-12,.91-2.19,2.32-3.3,4.71-3.08l4.11.61a1.3,1.3,0,0,0,.49.17c3.62-.08,4.36.42,4.42,2.94.08,3.81-1.8,6.3-4.82,6.38a25,25,0,0,0-3.35,0c-1.46,1.5-1.52,3.64-2.46,5.37C209.65,174,209.51,175.39,208.08,175.75Z"/><path class="cls-20" d="M290,273.28c.77-.4,1.06-.23,1.31,0,1.16,1.1,2.26,3.1,3.43-.06a1.67,1.67,0,0,1,2-.79c1,.43,0,1.19.07,1.81a13.36,13.36,0,0,1,0,1.67c.95.38,1.13-1,2-.51-.21,2.43-2.68,1.46-3.57,2.39s-.76,3.2-2.77,3.61a2.48,2.48,0,0,1-2.6-1.33c-.65-1-.83-2.49.07-3.12C291.82,275.67,291.28,274.57,290,273.28Z"/><path class="cls-21" d="M305.63,265.46c-1.12,2.64-2.21,5.28-3.36,7.91a3.79,3.79,0,0,1-1.83,2.05c-2.77-2.27-3.46-4.22-1.78-5.72,1.53-1.36,4.51-1,4.77-4A10.78,10.78,0,0,1,305.63,265.46Z"/><path class="cls-22" d="M301.92,199.5c1.58-8.23,5.95-14.9,11.68-20.78-2.1,3.36-4.77,6.35-6.72,9.82S303.65,195.9,301.92,199.5Z"/><path class="cls-23" d="M273.31,266.8c5.44,1,9.74,4.34,14.27,7.21C282.66,272,278.35,268.67,273.31,266.8Z"/><path class="cls-24" d="M143.47,224.67c-7.43-5.88-12.85-13-14.28-22.7-.3-2.05-.13-3.91,2.09-4.7,1.95-.69,3.55.48,4.17,3.17,1.43,6.27,3.74,12.06,8.44,16.65a15.78,15.78,0,0,0,5.68,3.54,6,6,0,0,1,2.78.58c7,2.9,14.22,2.91,21.52,1.91a30.24,30.24,0,0,0,15-6.84c5.45-4.17,9.06-9.48,10.12-16.37,1.2-2.72,5.28-3.61,7.64-1.67.09,9-4.69,15.5-10.8,21.34-.74.71-1.51,1.4-2.27,2.1-5.61,3.84-11.57,6.95-18.31,8.32C164,232.29,153.34,230.7,143.47,224.67Z"/><path class="cls-5" d="M206.7,231.09q10.53,5,21,10.09a9.28,9.28,0,0,1,3.25,3.28,2.31,2.31,0,0,1,.2,2.66c-1.63,3-3.17,6.08-4.75,9.14-5.23,7.78-10.76,15.3-17.78,21.62a13,13,0,0,1-3.77,2.26c-4.55,1.88-8.27-.34-8.72-5.23-.5-5.45.7-10.68,2.18-15.87a161.15,161.15,0,0,1,8-20.87c.6-1.35,2-2.93-.37-4.38C205.2,233.33,206.34,232,206.7,231.09Z"/><path class="cls-25" d="M192.51,236.6a17.57,17.57,0,0,1,5.84-8.88C196.43,230.7,194.33,233.56,192.51,236.6Z"/><path class="cls-26" d="M201.18,230.88l-3.67,6.23A7.85,7.85,0,0,1,201.18,230.88Z"/><path class="cls-27" d="M131.65,132.23c7.9-.29,15.79-.52,23.68-.91,1.95-.1,2.95.37,3.06,2.4.12,2.25.42,4.49.51,6.74.51,12.06,1,24.11,1.48,36.16.07,1.77-.21,2.71-2.38,3-10.14,1.48-20.36,1.9-30.56,2.58-6.31.41-12.61.84-18.91,1.41-2.13.19-2.91-.17-3.17-2.59-1.57-14.58-2.13-29.23-3.46-43.82-.22-2.48.34-3.7,3-3.79,3.73-.13,7.44-.58,11.16-.67,5.2-.12,10.41,0,15.61,0Z"/><path class="cls-28" d="M133.64,188.91h7.71c-5.77,2.29-11.32,5-17,7.29-4.15,1.68-8.22,3.6-12.6,4.66-.34-3.31-.69-6.62-1-9.92,6.47-1.27,13.08-1.06,19.6-1.7Z"/><path class="cls-29" d="M170.74,179.51c-2.56,0-4.37-1.52-4.35-3.76a5.62,5.62,0,0,1,5.07-5,4.18,4.18,0,0,1,4,4.31A4.4,4.4,0,0,1,170.74,179.51Z"/><path class="cls-30" d="M169.73,136.2c1.08.17,3.3-.78,3.38,1.53s-2.24,1.83-3.75,2.08a10.87,10.87,0,0,1-2.06.06c-1.15,0-2.42,0-2.41-1.62s1.1-2,2.45-2C168,136.19,168.72,136.2,169.73,136.2Z"/><path class="cls-31" d="M170.66,164.81c-.52,0-1,0-1.56,0-1-.05-2-.43-2.07-1.55s1-1.25,1.83-1.48a13.08,13.08,0,0,1,4.36-.57c1,.06,2,.27,2.08,1.47s-.68,1.46-1.56,1.78A8.49,8.49,0,0,1,170.66,164.81Z"/><path class="cls-32" d="M170.18,153.44c-1.36,0-2.06.05-2.74,0a1.47,1.47,0,0,1-1.51-1.47c0-.91.53-1.35,1.35-1.63a10.18,10.18,0,0,1,5.34,0,1.68,1.68,0,0,1,1.44,1.33c.14.85-.62,1.13-1.24,1.43A6.25,6.25,0,0,1,170.18,153.44Z"/><path class="cls-33" d="M208.08,175.75c1.88-2.64,2.5-5.83,3.78-8.73,1.78.48,1.11,1.92,1,2.95-.8,8.15,2.63,12.28,10.91,13,1,.09,2.15,0,2.48,1.36a5.49,5.49,0,0,1-3.65,4.1c-1.09.74-2,1.85-3.34,2.11a21.74,21.74,0,0,1-10.48-1.17,5.15,5.15,0,0,1-3.23-2.6c-1.26-3.1.5-5.67,1.49-8.37C207.37,177.51,207.74,176.64,208.08,175.75Z"/><path class="cls-34" d="M206.59,198.24c-2-1-4,.17-6,.11-1.15,0-.56,1.45-1.17,2-1-.73-1-1.85-1.23-2.9.11-1.76.62-2.93,2.68-1.82,1.31,0,2.67.15,3.65-1,.2-1.26-1.18-3,1-3.63A5.22,5.22,0,0,1,206.59,198.24Z"/><path class="cls-35" d="M205.56,191c-.43.8-1.43,1.44-.39,2.56.46.5-.24.82-.65,1.07-.81-.9-1.63-1.78-2.42-2.7-2.07-2.4-1.26-4.52,1.92-5.12C205.07,188,205.94,189.25,205.56,191Z"/><path class="cls-36" d="M232.06,242.88c1.31-2.44,3.74-3.18,6.1-4C236.26,240.38,234,241.39,232.06,242.88Z"/><path class="cls-37" d="M239,243.44l-5.82,1.6C234.9,243.75,236.74,242.82,239,243.44Z"/><path class="cls-10" d="M332.65,263.39a3.44,3.44,0,0,1-.35.6c-1,1.06-.21,1.68.52,2.36s1.4,1.08,2.26.28c.56-.52,1.2-.94,1.7-.07s.13,1.34-.8,1.47c-1.4.2-1.13,1.27-1.17,2.2s.35,1.65,1.48,1.63c.85,0,1.4.37,1.09,1.28s-1,.69-1.66.27c-1.11-.73-1.72,0-2.36.76s-.95,1.48-.1,2.26c.63.58.82,1.2,0,1.68-1.05.62-1.38-.12-1.53-1-.23-1.36-1.26-1.14-2.21-1.17-1.13,0-1.54.54-1.53,1.6,0,.82-.28,1.39-1.25,1.08s-.86-1-.37-1.61c.68-.89.61-1.56-.37-2.12-.76-.44-1.36-1.56-2.45-.56-.64.59-1.4,1-1.89,0s.56-1,1.16-1.16c1.28-.37,1.05-1.39,1.05-2.33s-.37-1.67-1.49-1.68c-.74,0-1.53-.11-1.21-1.14s1-.81,1.76-.27c1.13.83,1.69-.19,2.35-.84s1-1.43.11-2.22c-.57-.52-1-1.14-.06-1.63.68-.34,1.43-.26,1.55.72s.54,1.54,1.71,1.35,2.13-.2,2.1-1.69c0-.77.38-1.13,1.14-1A.94.94,0,0,1,332.65,263.39Z"/><path class="cls-38" d="M225.92,184.54c-.48-1.49-1.73-.84-2.64-.85-7.48-.1-12.41-6.08-11.1-13.47.19-1.05.54-2.21-.32-3.2,1.27-1.22,2.52.14,3.81.08,2.8-.12,4-1.38,4.52-5,.37-2.69-.87-3.6-3.32-3.55a2.86,2.86,0,0,1-.94-.38L226,153.82c2.13-.52,3.89-1.87,5.91-2.66,3.12-1.22,5.39.26,5.46,3.61s-.09,6.95.13,10.4c.52,8-2.41,14-9.57,17.85C227.42,183.73,227.18,184.82,225.92,184.54Z"/><path class="cls-39" d="M225.92,184.54c.67-.52,1.05-1.41,2-1.52,3.61.83,7.23,1.64,11,1.11.08,1.27-.94,1.46-1.57,1.91-4,2.83-8.52,3.51-13.28,3.24a1.7,1.7,0,0,1-1.5-.85A17.33,17.33,0,0,0,225.92,184.54Z"/><path class="cls-40" d="M242.73,166.44a5.24,5.24,0,0,1,4.41,2.38c.43.73,1,1.49.27,2.38a2,2,0,0,1-2.5.66,7.82,7.82,0,0,1-3.66-2.3c-.59-.68-1.64-1.22-1-2.37C240.71,166.24,241.69,166.48,242.73,166.44Z"/><path class="cls-41" d="M244.83,152.45a6.67,6.67,0,0,1,4.14,2.44,1.59,1.59,0,0,1,.27,1.92,1.49,1.49,0,0,1-1.91.27c-1.18-.54-2.3-1.18-3.44-1.78-.78-.41-1.72-.8-1.28-1.89C243,152.49,243.93,152.41,244.83,152.45Z"/><path class="cls-42" d="M229.17,148.38c-1.09-2.32.93-1.6,1.88-1.92a12.47,12.47,0,0,1,1.17.55c.72.42,1.35,1,.91,1.89s-1.3.46-2,.16S229.82,148.6,229.17,148.38Z"/><path class="cls-43" d="M252.05,174.28c1-.94,2.12.47,2.58-.6s-1.21-1.2-1.55-2.24c1.37-.48,2,.34,2.43,1.22a1.37,1.37,0,0,1-.28,1.88A2.61,2.61,0,0,1,252.05,174.28Z"/><path class="cls-44" d="M244.91,160.92c-1.46,3-3.1,3.3-5.29.54C242.1,163.19,243.52,162.24,244.91,160.92Z"/><path class="cls-45" d="M257,143.41c3.49.46,4.69,2.87,3.22,5.51-2.36,4.21-2.25,4.65,1.9,7,3.32,1.85,3.42,4.71.17,6.76-.06-.24-.23-.54-.15-.67,2.18-3.43,2-4-1.73-5.67-2.5-1.14-3.71-3.92-2.21-6.25C259.86,147.42,260.63,145.27,257,143.41Z"/><path class="cls-46" d="M265.16,144.29c2.17,1,2.83,2.57,1.85,4.59s-1.51,4,1.13,5.4a2.22,2.22,0,0,1,1.09,3.32,8.67,8.67,0,0,0-3.07-3.92c-1.25-1-.79-2.61-.52-3.9C266,147.9,267.13,146.07,265.16,144.29Z"/><path class="cls-5" d="M189.45,216.57a30.56,30.56,0,0,1-17,7.54c-7.93,1-15.68.43-22.9-3.48,5-4,9.94-8,14.89-12,1.13-.93,2.15-2,3.22-3,5.34-.77,10.2-2.87,14.93-5.33A4.75,4.75,0,0,1,184,203c1,3.86,3,7.29,4.86,10.76C189.36,214.61,190.07,215.46,189.45,216.57Z"/><path class="cls-7" d="M189.45,216.57l-4.27-8.51a37.36,37.36,0,0,1-2.57-7.78l6.68-4.72a4.46,4.46,0,0,0,4.58-4.6c1.58,1.48,2.6-.09,3.86-.51,1.68,1.31,1.58,3.08,1.09,4.84a3,3,0,0,0,0,2.44,5.26,5.26,0,0,1,.65,2.63C198.58,207.29,194.73,212.37,189.45,216.57Z"/><path class="cls-35" d="M198.77,197.73c-1.19-1.69.33-3.6-.46-5.37a15.28,15.28,0,0,0-.58-1.91c1.52-.55,2.86-.63,2.59,1.59-.2,1.71.46,2,1.93,1.22-.06,1.24-1.13,1.55-1.38,2.38C199.24,195.4,198.56,196.12,198.77,197.73Z"/><path class="cls-47" d="M123.48,147.85a39.29,39.29,0,0,0-1.78,10.59c-.24,4.78-3.32,7.17-7.89,5.8-2-.61-1.34-2.55-1.74-4.2a28.83,28.83,0,0,1-1.26,2.75c-.6,1-1.48,1.31-3.19.44,4.18-.32,2.52-4.44,5-6.17.21,1.46.42,2.62.52,3.78.12,1.31-.05,2.83,2,2.39s4.9,1.2,5.37-2.4c.5-3.87.56-7.79,1.54-11.59a9.8,9.8,0,0,1,2.37-5,220.87,220.87,0,0,1,1.35,25.1c1.44-1.81,1.38-3.77,2-5.47.84-2.42,2-4.29,4.75-5,1.56-.4,1.89.23,2,1.41.13,1.43.15,2.87.24,4.93,5.45-5.21,3.82-12.69,7.68-18.71,1,3.42.63,6.24.64,9s0,5.72.12,8.86c.59-3.43,2.69-4.31,5.7-3.78.76.13,1.17-.63,1.7-1.06s.79-1.14,1.48-.73.34,1.1.31,1.67a11,11,0,0,1-.59,4.13c-.8-1.54-.3-2.75-.52-4.11-1.45.8-2.81,1.42-4.51.84-1.23-.41-1.74.84-2.15,1.81-.51,1.24-.5,2.7-1.77,4.2-2.22-6.1.32-12-.71-18.13-1.5,2.83-1.58,5.6-2.28,8.18-.77,2.87-1.61,5.69-3.81,7.85-.49.48-1,1.21-1.73.91s-.66-1.16-.68-1.86c0-1.13-.07-2.26,0-3.38,0-1.35-.65-1.39-1.66-1-1.88.75-2.73,2.33-3.29,4.11s-1,3.67-1.57,5.49c-.19.61-.29,1.55-1.18,1.47-.72-.07-.69-.92-.77-1.49a19,19,0,0,1-.33-3.35c.19-5.74-.45-11.44-.67-17.16C124.13,148.67,124.29,148.17,123.48,147.85Z"/><path class="cls-48" d="M119.91,180.48c-2,.3-3-.26-3-2.59,0-2.65,2-2.45,3.33-2.44s3.11,0,3.08,2.46S121.85,180.7,119.91,180.48Z"/><path class="cls-49" d="M235.14,169.84c.89,3-1.1,7.13-4.73,9.29A18,18,0,0,0,235.14,169.84Z"/></svg>