<svg width="94" height="144" viewBox="0 0 94 144" fill="none" xmlns="http://www.w3.org/2000/svg">
<path d="M28.5368 102.444C28.3113 102.242 28.0302 102.111 27.73 102.071C26.1847 101.982 25.3368 101.042 25.3368 99.493C25.3368 93.4646 25.3368 87.435 25.3368 81.4043C25.3368 81.0033 25.4052 80.5885 25.1522 80.2286C25.1522 79.6561 24.9163 79.118 24.93 78.5421C25.2069 76.5128 25.0326 74.4767 25.036 72.4474C25.036 72.0155 24.5266 71.8201 24.5847 71.3745C24.7398 71.2236 24.8622 71.0422 24.9439 70.8416C25.0257 70.641 25.0652 70.4256 25.0599 70.209C25.0155 67.6141 25.1556 65.0193 24.9676 62.4244C25.1009 62.205 25.4291 62.277 25.5488 62.0096C26.4616 59.9735 28.3317 59.7884 30.195 59.6444C31.0272 59.5913 31.8619 59.5913 32.6941 59.6444C33.3779 59.6821 33.8702 59.593 33.7197 58.7292C33.7066 58.6515 33.7172 58.5716 33.7501 58.5C33.7831 58.4284 33.8368 58.3685 33.9044 58.3281C34.1437 59.7507 35.1488 59.7438 36.2975 59.7335C41.6901 59.6924 47.0827 59.6924 52.4753 59.7335C53.5864 59.7335 54.5813 59.7678 54.7727 58.3624C54.8035 59.9598 55.9693 59.689 56.9403 59.641C58.6986 59.5717 60.4363 60.0417 61.9214 60.9881C62.2004 61.3017 62.4144 61.6677 62.5511 62.0649C62.6879 62.4621 62.7446 62.8826 62.718 63.3019C62.718 65.0433 62.718 66.7846 62.718 68.5225C62.6911 69.0828 62.7916 69.642 63.012 70.1576C62.3283 70.3187 62.4445 70.8432 62.4445 71.3436V99.1777C62.4445 101.509 61.5009 102.362 59.1659 102.108C58.742 102.06 58.465 102.29 58.1402 102.472C57.3738 102.581 56.5992 102.62 55.8257 102.588H30.5779C29.8945 102.606 29.211 102.557 28.5368 102.444Z" fill="#CEE1E8"/>
<path d="M61.897 43.7702C61.0115 43.8456 60.9295 44.4009 60.9397 45.1654C60.9705 48.0139 58.379 51.1092 55.5722 51.5788C53.4227 51.9525 51.2541 52.2054 49.0765 52.3364C48.3927 52.3707 48.0098 52.5866 48.1021 53.3373C48.1238 53.4292 48.1189 53.5255 48.0881 53.6147C48.0572 53.7039 48.0016 53.7825 47.9278 53.8412C47.6543 53.0391 47.1038 52.8677 46.297 52.9671C43.8195 53.2619 41.3374 53.5236 38.8508 53.7521C38.1671 53.8172 37.9585 54.3108 37.6611 54.7633C37.4149 54.5885 37.4799 54.3177 37.4696 54.0777C37.4696 53.7555 37.285 53.6355 36.9842 53.6732C35.1825 53.8961 33.3739 54.0812 31.5825 54.3588C27.7192 54.945 24.6013 53.0631 23.2269 49.5598C23.1706 49.4539 23.138 49.3369 23.1312 49.2171C23.244 48.295 22.6696 48.1887 21.979 48.2298C22.5637 47.6471 22.5637 46.9615 22.4679 46.1971C21.7158 40.2704 21.1722 34.3197 20.5158 28.3724C20.4782 28.0022 20.379 27.6285 20.6696 27.3063C20.632 26.5111 20.4372 25.7295 20.4816 24.9068C20.5295 23.9436 20.8235 23.57 21.8081 23.5357C22.2053 23.545 22.5934 23.4153 22.9055 23.1689C25.8833 22.737 28.8816 22.4834 31.8696 22.1406C35.4457 21.7338 39.0206 21.3362 42.5944 20.9477C46.8474 20.4884 51.0936 19.9536 55.3568 19.6143C55.8964 19.8555 56.5069 19.8836 57.0662 19.6931C57.8149 19.4806 58.1773 19.9056 58.3312 20.5329C58.477 21.0346 58.5393 21.5569 58.5158 22.0789C58.444 22.8776 58.8303 23.0421 59.4867 22.9907C59.1064 23.595 58.9764 24.3244 59.1243 25.0234C59.8081 30.7033 60.338 36.4004 60.991 42.0837C61.0765 42.8104 61.2577 43.3829 61.897 43.7702Z" fill="#CEE1E8"/>
<path d="M28.5371 102.445C28.7559 102.102 29.0978 102.246 29.3884 102.246C38.6944 102.246 48.0015 102.246 57.3098 102.246C57.5969 102.246 57.9422 102.112 58.1542 102.458C57.0743 103.522 55.7966 104.363 54.3935 104.933C54.0892 105.06 53.7098 105.156 53.7405 105.619C53.785 106.757 53.1115 107.514 52.373 108.231C51.6892 109.143 50.7286 108.882 49.8226 108.858C49.0475 108.739 48.3502 108.319 47.8807 107.689C47.7029 107.432 47.4529 107.234 47.1626 107.12C46.8722 107.006 46.5545 106.981 46.2499 107.048C44.4079 107.302 42.5399 107.302 40.6978 107.048C40.4127 106.971 40.1089 107.007 39.8501 107.15C39.5913 107.293 39.3977 107.53 39.3098 107.813C39.1053 108.303 38.7855 108.737 38.3778 109.078C37.97 109.418 37.4863 109.654 36.9679 109.767C36.0211 109.943 35.0429 109.75 34.2328 109.228C34.0152 109.112 33.826 108.948 33.6789 108.75C33.5317 108.551 33.4301 108.323 33.3816 108.08C33.0381 107.417 32.9068 106.664 33.0055 105.924C33.1012 105.382 32.8619 105.156 32.4072 104.961C30.9661 104.383 29.6514 103.528 28.5371 102.445Z" fill="#78959D"/>
<path d="M36.5467 12.9192C35.2479 12.5884 34.1233 11.7744 33.4013 10.6424C32.6794 9.51047 32.4141 8.14546 32.6595 6.82455C32.8247 5.94676 33.2127 5.12644 33.786 4.44268C34.3593 3.75891 35.0987 3.23476 35.9327 2.92074C36.7668 2.60673 37.6675 2.51344 38.548 2.64988C39.4285 2.78631 40.259 3.14786 40.9597 3.69968C41.6603 4.2515 42.2073 4.97498 42.548 5.80038C42.8887 6.62577 43.0116 7.52525 42.9048 8.4121C42.798 9.29895 42.4652 10.1433 41.9384 10.8637C41.4116 11.5841 40.7086 12.1562 39.8971 12.525C39.7569 12.5902 39.6236 12.6724 39.4903 12.7479C38.5467 13.4643 37.5415 13.1215 36.5467 12.9192Z" fill="#D52427"/>
<path d="M20.6704 27.3164C21.0943 31.1739 21.5183 35.0302 21.9422 38.8854C22.2499 41.6893 22.5268 44.5002 22.9063 47.2973C23.026 48.2022 22.3285 47.9623 21.9661 48.2091C19.8396 48.2811 19.7815 48.2091 19.573 46.0632C18.9735 40.5307 18.3604 35.0028 17.7337 29.4794C17.5661 27.9746 17.8841 27.5735 19.3884 27.4741C19.8294 27.4227 20.2431 27.3678 20.6704 27.3164Z" fill="#78959D"/>
<path d="M61.898 43.7705C61.0091 43.9247 60.8416 43.4277 60.763 42.6599C60.3151 38.2791 59.8125 33.9052 59.3305 29.5278C59.1322 27.7385 58.9544 25.9492 58.7322 24.1667C58.6535 23.5257 58.7698 23.0903 59.4809 22.9978L60.3185 22.9567C61.4535 22.9087 61.7954 23.2343 61.9185 24.3655C62.5031 29.6992 63.1048 35.0261 63.6929 40.3564C63.7373 40.7574 63.7544 41.1619 63.7886 41.563C63.9322 43.3831 63.751 43.6162 61.898 43.7705Z" fill="#78959D"/>
<path d="M53.6756 135.742C53.0636 135.794 52.5542 136.143 51.9969 136.346L50.8653 136.843C50.6657 137.093 50.3988 137.281 50.0961 137.384C49.5115 137.514 48.9269 138.142 48.332 137.384C48.2778 137.307 48.2414 137.219 48.2255 137.125C48.2095 137.032 48.2144 136.937 48.2397 136.846C48.2397 136.784 48.2397 136.719 48.2397 136.654C48.2397 136.342 48.2568 136.034 48.267 135.722C47.9012 135.036 48.438 134.515 48.6465 133.949C48.8309 133.531 49.0931 133.152 49.4192 132.832C50.0769 132.124 50.828 131.509 51.6516 131.005C52.1492 130.689 52.7214 130.512 53.3098 130.491C54.7969 130.148 56.2841 129.935 57.7542 130.491C58.6742 130.788 59.4592 131.402 59.9696 132.225C60.2739 132.743 60.226 133.021 59.6277 133.254C57.638 134.059 55.6277 134.817 53.6756 135.742Z" fill="#78959D"/>
<path d="M25.5209 136.294C25.2201 136.654 24.9089 136.527 24.591 136.322C22.7209 134.155 20.6013 132.236 18.632 130.169C17.9893 129.483 17.3534 128.798 16.6833 128.16C16.3072 127.797 16.3722 127.553 16.7483 127.269C17.9414 126.367 19.2577 126.299 20.6389 126.669C21.7448 126.989 22.7742 127.531 23.6645 128.263C25.2406 129.229 26.0064 130.738 26.4474 132.465C26.591 133.514 26.6936 134.563 26.1671 135.55C26.0098 135.849 25.9004 136.191 25.5209 136.294Z" fill="#77969D"/>
<path d="M52.916 115.964C53.9861 116.457 55.0528 116.944 55.6955 118.02C57.2682 120.68 56.328 123.44 53.3263 124.924C52.516 125.654 51.5759 125.294 50.6767 125.222C50.3698 125.172 50.0745 125.066 49.8049 124.91C47.7536 123.882 46.9297 122.206 47.1075 119.974C47.275 117.863 48.6015 116.673 50.3964 115.861C51.2442 115.703 52.0955 115.374 52.916 115.964Z" fill="#77959D"/>
<path d="M76.0591 59.26C76.2847 57.2445 77.4095 55.9282 79.2454 55.1706C80.271 54.5022 81.3206 54.5091 82.1958 55.1706C85.177 56.6103 85.5018 58.8693 85.136 60.5798C84.969 61.3239 84.6194 62.0144 84.1189 62.5889C83.6184 63.1633 82.9829 63.6034 82.2699 63.8692C81.5569 64.1351 80.789 64.2183 80.0358 64.1114C79.2825 64.0045 78.5679 63.7108 77.9565 63.2569C77.7582 63.1095 77.5633 62.9587 77.3685 62.8078C76.189 62.0434 75.6078 60.4324 76.0591 59.26Z" fill="#78959D"/>
<path d="M25.7359 122.995C23.271 119.909 24.2317 116.509 27.9547 115.176C29.5855 114.888 31.1376 114.925 32.3582 116.283C33.0234 116.902 33.4881 117.707 33.6923 118.593C33.8964 119.48 33.8307 120.408 33.5035 121.257C32.8197 123.272 31.2744 124.229 29.271 124.575C27.9171 124.465 26.577 124.29 25.7359 122.995Z" fill="#77969D"/>
<path d="M10.5976 75.5221C8.70012 76.2865 6.89841 76.2419 5.32576 74.7851C4.434 73.9614 3.9051 72.8163 3.85541 71.6016C3.80572 70.387 4.23931 69.2023 5.0608 68.3082C5.88229 67.4141 7.02439 66.8838 8.23584 66.8339C9.4473 66.7841 10.6289 67.2189 11.5206 68.0425L11.9343 68.4127C13.1822 69.2731 13.2779 70.5723 13.2642 71.9125C13.1674 72.432 13.0197 72.9407 12.8232 73.4311C12.3377 74.4012 11.7463 75.2615 10.5976 75.5221Z" fill="#78959C"/>
<path d="M85.4095 32.7394C85.8027 32.6331 85.9668 32.9622 86.1651 33.1713C86.6231 33.6384 86.9836 34.1926 87.2254 34.8011C87.4673 35.4097 87.5856 36.0606 87.5735 36.7156C87.5614 37.3706 87.4191 38.0166 87.155 38.6158C86.8908 39.215 86.5101 39.7553 86.0351 40.2052C85.5223 40.6988 85.3787 41.0793 85.6112 41.7888C86.1514 43.4582 85.2967 44.8739 83.3343 45.8097C82.1616 46.2759 81.283 46.1045 80.5309 45.251C79.4198 44.2226 78.9172 42.9852 79.5052 41.4803C79.6933 40.9936 79.5052 40.7468 79.1634 40.452C78.2698 39.6935 77.6701 38.6446 77.4689 37.4882C77.2677 36.3318 77.4778 35.1412 78.0625 34.1242C78.2334 33.8191 78.336 33.3941 78.8386 33.4626C78.9856 33.6717 78.9582 33.9391 79.071 34.1482C79.1837 34.4322 79.1837 34.7486 79.071 35.0326C78.9897 35.2805 78.9302 35.5352 78.8933 35.7936C78.589 37.0516 78.9856 38.1211 79.7582 39.0946C79.8909 39.3093 80.1008 39.4647 80.3446 39.5285C80.5883 39.5923 80.8472 39.5597 81.0676 39.4373C81.8487 39.1049 82.7198 39.0504 83.536 39.2831C84.6916 39.5539 85.5018 39.1048 85.8745 37.912C86.0849 37.2896 86.137 36.6243 86.026 35.9766C85.9149 35.3289 85.6443 34.7192 85.2386 34.203C85.1774 34.0805 85.1259 33.9532 85.0847 33.8225C85.0625 33.7341 85.0522 33.643 85.054 33.5517C85.1292 33.281 85.1292 32.9519 85.4095 32.7394Z" fill="#78969C"/>
<path d="M24.9334 78.7373C25.5043 79.1624 25.4428 79.68 25.1522 80.2285C24.5546 79.8304 23.8669 79.5888 23.1522 79.5257C21.9488 79.4092 21.4599 79.7554 21.1419 80.8969C21.053 81.3267 20.8685 81.7309 20.6021 82.0793C20.3358 82.4277 19.9944 82.7113 19.6035 82.909C19.012 83.1832 18.9847 83.5946 19.0941 84.1259C19.2452 85.0592 19.7345 85.9037 20.4682 86.4976C21.2019 87.0916 22.1284 87.3932 23.0701 87.3446C23.2548 87.3446 23.4428 87.3275 23.6274 87.3069C24.1813 87.2487 24.3454 87.7251 24.424 88.0611C24.5368 88.541 24.0377 88.4038 23.771 88.4655C23.0971 88.5786 22.4074 88.5543 21.7431 88.3941C21.0788 88.2339 20.4535 87.941 19.9046 87.5331C19.3557 87.1251 18.8945 86.6104 18.5485 86.0197C18.2024 85.429 17.9787 84.7744 17.8907 84.095C17.8496 83.8037 17.9112 83.5192 17.5009 83.3512C14.9676 82.3229 14.506 81.4968 14.9026 78.895C15.0193 78.3315 15.3161 77.8215 15.748 77.4423C16.1799 77.0631 16.7232 76.8354 17.2958 76.7938C17.8513 76.7446 18.4105 76.7538 18.9642 76.8212C19.603 76.9701 20.1721 77.3328 20.5778 77.8495C20.9607 78.3431 21.3984 78.3843 21.9659 78.2472C23.0154 77.9832 24.0342 78.0312 24.9334 78.7373Z" fill="#78959D"/>
<path d="M79.0394 30.6861C79.1009 29.1847 77.9967 28.4066 77.077 27.5154C74.971 25.4587 74.3898 22.9392 75.1898 20.2347C76.0308 17.3861 78.1197 15.6345 81.0531 15.1683C82.2399 14.9587 83.4611 15.0706 84.5904 15.4924C85.7197 15.9143 86.7162 16.6307 87.477 17.5678C89.4702 19.8884 89.8326 22.5587 88.5881 25.397C88.1606 26.4051 87.4812 27.2858 86.6155 27.9541C86.1712 28.2676 85.7983 28.672 85.5213 29.1405C85.2444 29.6091 85.0696 30.1312 85.0086 30.6724C84.742 31.0426 84.4582 31.1078 84.1471 30.7238C83.8326 29.6544 84.2189 28.7665 84.8821 27.961C85.3163 27.4331 85.8326 26.9772 86.3112 26.487C89.3129 23.402 88.3146 18.8224 84.6018 16.9268C83.8137 16.4953 82.9284 16.2737 82.0305 16.2833C81.1327 16.2929 80.2523 16.5334 79.4736 16.9816C75.0667 19.4668 75.1591 24.5229 78.4206 27.08C79.1955 27.7132 79.7615 28.5663 80.0445 29.5275C80.1906 29.8764 80.2028 30.2671 80.0787 30.6244C80.0109 30.7564 79.9011 30.8618 79.7666 30.9239C79.6322 30.986 79.4809 31.0013 79.3368 30.9672C79.2069 30.9227 79.142 30.7821 79.0394 30.6861Z" fill="#F0C629"/>
<path d="M54.7794 58.3452C54.8376 60.0316 54.8376 60.0316 53.1726 60.0316H35.5213C33.8735 60.0316 33.8735 60.0316 33.9179 58.3177L34.1094 58.1326C35.87 57.9201 37.6376 58.0812 39.4017 58.0435C40.9504 58.0058 42.4786 57.7007 44.0376 57.8275C47.4085 58.1326 50.7931 58.0229 54.1709 58.0401C54.2471 58.0282 54.325 58.032 54.3997 58.0515C54.4744 58.071 54.5443 58.1056 54.6051 58.1532L54.7794 58.3452Z" fill="#78969C"/>
<path d="M76.058 59.2607C75.9691 60.6319 76.5161 61.7836 77.3537 62.8223L68.1229 64.5156C67.5793 64.615 67.2067 64.8241 67.3024 65.4891C67.3462 65.6389 67.3553 65.7966 67.3293 65.9504C67.3032 66.1042 67.2426 66.2501 67.152 66.3769C67.0364 66.2738 66.9507 66.1415 66.9038 65.9937C66.8569 65.8459 66.8505 65.6882 66.8853 65.5371C66.9147 64.9194 66.7978 64.3035 66.544 63.7399C66.2903 63.1762 65.907 62.6809 65.4255 62.2944C65.1896 62.0853 64.8306 61.9276 64.8819 61.506C67.1554 61.1083 69.4289 60.721 71.7195 60.3165C72.8716 60.1074 74.0101 59.8366 75.1657 59.6584C75.4872 59.5887 75.7909 59.4534 76.058 59.2607Z" fill="#CEE1E8"/>
<path d="M55.3541 19.6207C55.084 20.0286 54.6362 19.9327 54.2601 19.9635C44.1541 21.0878 34.0447 22.203 23.9319 23.3091C23.59 23.3434 23.1968 23.5662 22.9062 23.1823C23.0704 22.3904 23.6618 22.2019 24.349 22.1299C26.9917 21.8591 29.6345 21.5815 32.2772 21.3175C32.4571 21.294 32.6248 21.2136 32.7558 21.0878C33.8635 20.6182 35.0601 20.6765 36.2157 20.5394C39.043 20.1966 41.8738 19.9087 44.7045 19.6276C45.0425 19.5814 45.3865 19.6413 45.6892 19.799C48.3695 19.4973 51.0464 19.2094 53.7233 18.8906C54.4413 18.7912 55.0088 18.9352 55.3541 19.6207Z" fill="#4F656F"/>
<path d="M64.8747 61.506C66.6252 62.6646 67.3431 64.3031 67.1414 66.3769C66.591 68.5365 65.2303 69.8048 63.0183 70.1476C62.4884 70.1476 62.4713 69.8048 62.4747 69.4003C62.4747 67.7035 62.4269 65.9999 62.4987 64.3065C62.5099 63.1716 62.3165 62.044 61.9277 60.9781C62.9397 60.882 63.9586 61.0645 64.8747 61.506Z" fill="#78969D"/>
<path d="M13.033 71.9848C13.1407 70.7 12.7474 69.4233 11.9355 68.4233C14.9817 67.9365 18.0381 67.5081 21.033 66.7471C21.1261 66.8297 21.201 66.9309 21.2528 67.0443C21.3046 67.1576 21.3322 67.2805 21.3338 67.4052C21.4389 68.2111 21.733 68.9806 22.192 69.6504C22.3424 69.8561 22.5543 70.1132 22.2911 70.4011C19.3714 71.0524 16.4108 71.4809 13.4808 72.0636C13.327 72.0926 13.1678 72.0646 13.033 71.9848Z" fill="#CEE1E8"/>
<path d="M22.389 70.2706C21.5046 69.3066 21.0161 68.043 21.0215 66.7331C21.3463 64.3885 22.6489 62.9454 24.9566 62.4209C25.4215 62.4689 25.3326 62.8185 25.3292 63.1065C25.3292 65.6088 25.3121 68.1145 25.3292 70.6169C25.3292 71.1687 25.2438 71.5355 24.5873 71.4464C23.613 71.5252 22.8301 71.2202 22.389 70.2706Z" fill="#78959D"/>
<path d="M80.5296 45.2471C81.3701 45.7563 82.3621 45.9541 83.333 45.8058C82.933 46.9267 82.9911 48.1196 82.8134 49.2748C82.5262 51.2321 82.3929 53.2134 82.1946 55.1809C81.2299 54.9084 80.2088 54.9084 79.2441 55.1809C79.7706 53.6384 79.7159 52.0068 79.9587 50.4231C80.2219 48.7023 80.3416 46.961 80.5296 45.2471Z" fill="#CFE1E9"/>
<path d="M45.686 19.7854C42.3869 20.1521 39.0912 20.5498 35.7715 20.8617C34.7664 20.9577 33.7647 21.2388 32.739 21.0742C32.4553 19.3603 32.4518 19.3603 34.1544 19.1409C35.4399 18.9764 36.7254 18.8358 38.0074 18.685C38.5783 18.2942 39.2211 18.3834 39.857 18.3937C40.3689 18.4526 40.8869 18.4306 41.392 18.3285C42.3493 18.2463 43.3236 18.236 44.2638 18.0612C45.204 17.8863 45.4536 18.284 45.4604 19.0895C45.4406 19.3423 45.5218 19.5926 45.686 19.7854Z" fill="#78959C"/>
<path d="M25.7359 122.994C26.7192 123.836 27.9611 124.314 29.2538 124.348C29.3803 125.212 28.7991 125.867 28.5393 126.611C27.8988 128.582 27.1384 130.512 26.2624 132.39C25.7779 130.811 24.8808 129.39 23.6641 128.276C24.4128 127.91 24.2931 127.08 24.5735 126.477C25.1262 125.378 25.5177 124.205 25.7359 122.994Z" fill="#CFE1E9"/>
<path d="M49.7782 124.694C50.9019 125.166 52.1501 125.251 53.3269 124.934C53.4329 126.511 53.0739 128.071 53.1286 129.644C53.1286 129.942 53.0294 130.271 53.32 130.511C51.9139 131.041 50.6332 131.858 49.5594 132.911C49.352 132.638 49.2544 132.296 49.2859 131.955C49.1525 129.781 49.5081 127.625 49.4876 125.442C49.4775 125.303 49.4984 125.164 49.5486 125.035C49.5989 124.906 49.6773 124.789 49.7782 124.694Z" fill="#CFE1E8"/>
<path d="M54.6051 58.1634C50.041 58.1463 45.4769 58.1189 40.9094 58.112C38.6427 58.112 36.376 58.1326 34.1094 58.1429C34.376 57.8206 34.7419 57.9543 35.0666 57.9509C36.7419 57.9372 38.4171 57.9372 40.0923 57.9509C40.6325 57.9509 40.9436 57.8481 40.7384 57.2036C40.6627 56.9035 40.6282 56.5944 40.6359 56.285C40.5948 55.0715 40.5265 54.9961 39.3094 54.9447C39.3846 54.5265 39.7401 54.5368 40.0307 54.5196C41.6649 54.4202 43.2923 54.2283 44.9128 53.9986C45.0768 53.9495 45.2509 53.9449 45.4172 53.9852C45.5836 54.0255 45.7363 54.1094 45.8598 54.2283C45.4222 55.4452 46.0102 56.5901 46.1299 57.7658C46.1607 58.0537 46.6154 57.9406 46.8786 57.9406C49.1419 57.9406 51.4017 57.9406 53.6649 57.9406C53.9829 57.9543 54.3589 57.8069 54.6051 58.1634Z" fill="#CFE1E8"/>
<path d="M32.2525 116.444C31.0457 115.255 29.5619 115.008 27.9551 115.176C28.0576 115.117 28.1773 114.987 28.2628 115.008C29.6542 115.351 30.1123 114.387 30.6047 113.407C31.5038 111.621 32.4337 109.849 33.3397 108.073C34.2149 109.307 35.4354 109.708 36.885 109.561C36.95 109.821 36.7448 109.904 36.5773 109.921C35.7431 109.921 35.4354 110.528 35.1072 111.145C34.2423 112.759 33.3978 114.387 32.5841 116.019C32.5228 116.193 32.4063 116.342 32.2525 116.444Z" fill="#CFE1E8"/>
<path d="M52.9172 115.964C52.0531 115.877 51.1807 115.927 50.3326 116.115C50.1919 116.047 50.0747 115.939 49.996 115.804C49.9174 115.669 49.881 115.513 49.8915 115.357C49.8231 113.472 49.5941 111.586 49.4949 109.715C49.4604 109.531 49.4661 109.342 49.5115 109.161C49.557 108.98 49.6411 108.811 49.7582 108.666C50.6573 108.697 51.5462 108.666 52.3599 108.217C52.589 110.795 52.8932 113.369 52.9172 115.964Z" fill="#CFE1E9"/>
<path d="M18.9986 77.0271C17.2243 76.7528 15.785 77.2087 14.8961 78.8986C13.7781 77.932 12.6499 76.9756 11.5456 75.9987C11.2619 75.7485 11.0123 75.4777 10.5918 75.5222C11.4242 75.0039 12.1261 74.3001 12.6431 73.4655C13.1149 73.325 13.4089 73.6643 13.6892 73.9214C14.2602 74.4459 14.8858 74.9018 15.4465 75.44C16.2226 76.1907 17.0533 76.7871 18.2362 76.6226C18.5029 76.5814 18.9439 76.5129 18.9986 77.0271Z" fill="#CFE1E8"/>
<path d="M45.8589 54.2284L39.3153 54.9448C38.7649 54.8523 38.1632 55.2396 37.6538 54.7666C37.4247 53.7896 37.9752 53.5565 38.7957 53.4811C41.4179 53.2378 44.0401 52.9498 46.6589 52.6962C47.8931 52.5762 47.8931 52.5933 47.917 53.8411C47.264 54.1598 46.5358 54.0604 45.8589 54.2284Z" fill="#79969D"/>
<path d="M79.0384 30.6855L79.2196 30.8501C79.5615 31.3951 80.0606 31.378 80.6111 31.3197C82.0777 31.1689 83.5307 30.8398 85.0213 31.0249C85.6196 31.3951 85.3324 31.7756 85.0213 32.1595C83.3119 32.5023 81.5205 32.5023 79.8111 32.9753C81.5581 32.9445 83.288 32.6326 85.0281 32.5057L85.394 32.7388C85.4291 33.0525 85.3515 33.3685 85.1752 33.6301C84.9328 33.8787 84.6053 34.0257 84.2589 34.0414C82.864 34.1168 81.4863 34.3499 80.0948 34.4733C79.6594 34.5388 79.2152 34.4411 78.847 34.1991C78.7627 34.0985 78.7149 33.9723 78.7112 33.841C78.7074 33.7097 78.7481 33.581 78.8264 33.4758C79.0623 32.564 78.9153 31.6111 79.0384 30.6855Z" fill="#C6DDCE"/>
<path d="M41.405 18.3291C40.2897 18.5478 39.1567 18.6625 38.0204 18.6719C37.8289 16.958 37.6306 15.2441 37.4529 13.5302C37.3913 12.9474 36.7999 13.1874 36.5469 12.896C37.5306 13.0107 38.5266 12.9527 39.4905 12.7246C39.1759 14.0957 39.4905 15.4257 39.6341 16.7557C39.7879 18.2777 39.9076 18.2674 41.405 18.3291Z" fill="#D0E0E6"/>
<path d="M85.0426 32.5064C84.2631 33.192 83.258 32.8218 82.376 33.048C81.5854 33.1912 80.7856 33.2771 79.9828 33.3051C79.7059 33.3326 79.3366 33.6479 79.2512 33.1097C79.1794 32.6915 79.552 32.5887 79.8529 32.551C81.0461 32.4002 82.2461 32.2082 83.4426 32.1774C83.9691 32.1602 84.5093 31.6906 85.0358 32.1602C85.0392 32.2734 85.0392 32.3899 85.0426 32.5064Z" fill="#97AEA3"/>
<path d="M85.022 31.0258C83.2374 31.2554 81.4596 31.5091 79.6716 31.7113C78.9536 31.7902 79.3297 31.1731 79.2203 30.8544L79.9895 30.6761C81.3941 30.5162 82.8114 30.5035 84.2186 30.6384C84.4681 30.9332 84.7417 30.7584 85.0083 30.6727C85.0117 30.7892 85.0152 30.9058 85.022 31.0258Z" fill="#9BADA6"/>
<path d="M91.1153 27.1552C91.0538 27.498 90.9136 27.6488 90.7222 27.6317C90.1108 27.5547 89.5506 27.2501 89.1529 26.7781C89.1283 26.7383 89.112 26.6937 89.1052 26.6473C89.0984 26.6009 89.1012 26.5535 89.1133 26.5082C89.1255 26.4629 89.1469 26.4206 89.176 26.3839C89.2052 26.3472 89.2415 26.3169 89.2828 26.2948C89.6247 26.096 89.8743 26.3565 90.1273 26.4936C90.469 26.695 90.7989 26.9159 91.1153 27.1552Z" fill="#EBCE86"/>
<path d="M74.964 18.0716C74.9054 18.1564 74.8338 18.2316 74.7521 18.2944C74.4102 18.4829 73.1418 17.7459 73.1213 17.3449C73.1194 17.2864 73.1307 17.2283 73.1544 17.1749C73.1781 17.1215 73.2135 17.0741 73.2581 17.0364C73.7093 16.841 73.9931 17.2386 74.3452 17.3792C74.5045 17.4215 74.648 17.5096 74.7579 17.6326C74.8679 17.7556 74.9395 17.9082 74.964 18.0716Z" fill="#EAC77F"/>
<path d="M90.7179 21.1393C90.4683 21.0845 90.0341 21.2079 90.1675 20.824C90.3965 20.0561 91.1931 20.4503 91.6888 20.2207C91.7394 20.193 91.797 20.1813 91.8543 20.1869C91.9116 20.1926 91.9659 20.2153 92.0101 20.2523C92.0544 20.2892 92.0865 20.3387 92.1023 20.3942C92.1182 20.4496 92.1171 20.5086 92.0991 20.5635C91.8769 21.3073 91.1692 20.9611 90.7179 21.1393Z" fill="#E8C366"/>
<path d="M84.888 14.568C84.806 14.5194 84.7331 14.4567 84.6726 14.3829C84.5154 14.1429 85.0145 12.7341 85.2675 12.6107C85.3211 12.5765 85.3852 12.5628 85.448 12.5723C85.5109 12.5817 85.5682 12.6136 85.6094 12.6621C85.8555 12.9432 85.7393 13.2311 85.6299 13.5294C85.2846 14.4172 85.1991 14.5611 84.888 14.568Z" fill="#E7C66D"/>
<path d="M79.4535 14.0537C79.4535 14.1736 79.4535 14.2353 79.4295 14.2936C79.3817 14.5198 79.1902 14.6364 79.0261 14.5507C78.4928 14.2388 78.4894 13.6218 78.3047 13.1144C78.2835 13.0635 78.2728 13.0088 78.2735 12.9536C78.2741 12.8984 78.286 12.8439 78.3084 12.7935C78.3308 12.7431 78.3633 12.6978 78.4038 12.6604C78.4444 12.6231 78.4921 12.5944 78.5441 12.5763C78.8483 12.4597 78.9133 12.7271 78.9817 12.919C79.1253 13.3304 79.4364 13.6663 79.4535 14.0537Z" fill="#E9C67E"/>
<path d="M74.9463 26.6447C74.8711 27.1897 74.1873 27.1314 73.8454 27.4605C73.7658 27.5622 73.6496 27.6285 73.5217 27.6451C73.3939 27.6618 73.2646 27.6275 73.1617 27.5496C73.0215 27.4331 73.0078 27.2069 73.1309 27.1417C73.6095 26.8298 73.9343 26.2642 74.5668 26.2231C74.6222 26.2153 74.6786 26.2212 74.7311 26.2403C74.7837 26.2595 74.8307 26.2912 74.8682 26.3329C74.9056 26.3745 74.9324 26.4247 74.946 26.479C74.9596 26.5334 74.9597 26.5903 74.9463 26.6447Z" fill="#E9C77C"/>
<path d="M82.3925 13.0944C82.3925 13.2795 82.3925 13.4646 82.3925 13.6463C82.3945 13.7006 82.3842 13.7546 82.3625 13.8044C82.3408 13.8542 82.3083 13.8985 82.2673 13.934C82.2263 13.9695 82.1779 13.9954 82.1256 14.0097C82.0733 14.0239 82.0185 14.0263 81.9652 14.0165C81.9194 14.0144 81.8744 14.003 81.8331 13.983C81.7917 13.9631 81.7548 13.935 81.7245 13.9005C81.6942 13.8659 81.6711 13.8256 81.6567 13.782C81.6422 13.7383 81.6367 13.6922 81.6404 13.6463C81.6404 13.2761 81.6233 12.9059 81.6404 12.5391C81.6404 12.2854 81.7054 12.0146 82.0267 12.0146C82.3481 12.0146 82.3925 12.2854 82.4062 12.5425C82.4062 12.7242 82.4062 12.9093 82.4062 13.0944H82.3925Z" fill="#E9C479"/>
<path d="M72.8213 24.3171C72.4795 24.2383 72.0453 24.4782 72.0077 24.0189C71.9735 23.6178 72.435 23.5287 72.6914 23.5801C73.1188 23.6727 73.8367 23.0385 73.9188 23.779C73.9701 24.4371 73.1632 24.1252 72.8213 24.3171Z" fill="#E6BE6C"/>
<path d="M73.2435 21.1224C72.7649 21.0058 71.9546 21.1601 72.0127 20.5945C72.0879 19.8644 72.8161 20.43 73.2469 20.3923C73.5136 20.3717 73.9717 20.3923 73.9546 20.8139C73.9341 21.2938 73.4726 21.0127 73.2435 21.1224Z" fill="#E1C05F"/>
<path d="M90.9774 17.352C90.9587 17.4668 90.906 17.5733 90.8261 17.6577C90.7463 17.7421 90.6429 17.8004 90.5295 17.825C90.0885 17.921 89.8013 18.4592 89.2782 18.2672C89.2406 18.2548 89.2063 18.2339 89.1781 18.2061C89.1499 18.1783 89.1285 18.1442 89.1156 18.1067C89.1027 18.0692 89.0986 18.0292 89.1037 17.9898C89.1088 17.9505 89.1229 17.9128 89.1449 17.8798C89.3322 17.6362 89.5664 17.4326 89.8336 17.2813C90.1008 17.13 90.3956 17.034 90.7004 16.9989C90.8611 16.9852 90.974 17.1394 90.9774 17.352Z" fill="#E5CA7B"/>
<path d="M76.806 15.6519C76.806 15.9467 76.6419 16.1181 76.4641 16.029C76.1989 15.9139 75.9633 15.74 75.775 15.5203C75.5866 15.3006 75.4505 15.0408 75.3769 14.7607C75.3666 14.7076 75.37 14.6527 75.3869 14.6013C75.4038 14.55 75.4336 14.5038 75.4735 14.4673C75.5133 14.4308 75.5618 14.4052 75.6144 14.393C75.6669 14.3807 75.7217 14.3822 75.7735 14.3973C76.3581 14.6236 76.5291 15.22 76.806 15.6519Z" fill="#E7C072"/>
<path d="M90.9402 23.4844C91.3676 23.6489 92.0206 23.3198 92.0958 23.9917C92.1505 24.451 91.6616 24.3139 91.3949 24.2831C90.9471 24.2248 90.2599 24.4305 90.1744 23.81C90.089 23.3096 90.677 23.6215 90.9402 23.4844Z" fill="#E9C271"/>
<path d="M88.7287 14.7944C88.4176 15.2195 88.1543 15.7611 87.6347 16.0456C87.4125 16.169 87.0808 16.0216 87.2176 15.6856C87.4208 15.1688 87.7792 14.728 88.2432 14.4242C88.5475 14.2494 88.7253 14.3968 88.7287 14.7944Z" fill="#E8C76B"/>
<path d="M54.2838 86.4119C54.2838 87.3306 54.2667 88.2492 54.2565 89.1542C54.6326 89.7301 54.3078 90.1311 53.9146 90.5253C53.5283 91.444 52.7932 92.0267 51.9727 92.5237C51.7061 92.8905 51.3676 92.9317 50.9197 92.8871C49.9196 92.7494 48.9046 92.7609 47.9078 92.9214C47.7896 92.996 47.6555 93.0414 47.5164 93.054C47.3773 93.0665 47.2373 93.0457 47.1078 92.9934C46.0008 92.7158 44.8436 92.7088 43.7334 92.9728C43.0497 93.1373 42.4206 92.7054 41.7334 92.8117C40.9847 92.9282 40.1984 92.6609 39.4633 93.0585C39.3482 93.1079 39.2205 93.1203 39.0981 93.0939C38.9756 93.0675 38.8643 93.0036 38.7796 92.9111C37.8365 92.7696 36.8788 92.7546 35.9317 92.8665C35.6935 92.9127 35.4473 92.8945 35.2184 92.8138C34.9895 92.7331 34.7861 92.5927 34.6291 92.4072C33.8074 92.0088 33.1532 91.331 32.783 90.4945C32.3693 90.1311 32.0992 89.7335 32.4411 89.1679L32.4172 86.3879C32.2866 86.2199 32.2157 86.013 32.2157 85.8C32.2157 85.5871 32.2866 85.3802 32.4172 85.2122L32.4377 82.439C32.2824 82.2538 32.1973 82.0195 32.1973 81.7775C32.1973 81.5355 32.2824 81.3012 32.4377 81.1159V78.3359C32.3043 78.1705 32.2292 77.9654 32.2243 77.7527C32.2193 77.54 32.2848 77.3317 32.4103 77.1602C32.4856 76.1836 32.4856 75.2026 32.4103 74.2259C32.3589 74.0194 32.3705 73.8021 32.4436 73.6023C32.5168 73.4024 32.6481 73.2292 32.8206 73.105C33.2689 72.3242 33.9199 71.6797 34.7044 71.2403C34.9334 70.7775 35.3095 70.829 35.73 70.877C36.7412 71.0164 37.7672 71.0083 38.7762 70.853C38.9278 70.7123 39.1268 70.6341 39.3334 70.6341C39.54 70.6341 39.739 70.7123 39.8907 70.853C40.9505 70.9421 42.0172 71.1615 43.0531 70.6884C43.1227 70.6519 43.1994 70.6309 43.2778 70.6267C43.3563 70.6226 43.4347 70.6354 43.5078 70.6644C44.4685 71.1717 45.5044 70.8632 46.5061 70.9455C46.971 70.8564 47.412 70.3971 47.918 70.8427C48.9247 71.0088 49.9509 71.0192 50.9608 70.8735C51.395 70.8221 51.7608 70.7947 52.0069 71.2163C52.7992 71.6418 53.4539 72.2851 53.8941 73.0708C54.277 73.3724 54.5026 73.7323 54.2838 74.2362C54.2838 75.1583 54.2838 76.077 54.2838 76.9991C54.4225 77.1962 54.4969 77.4315 54.4969 77.6726C54.4969 77.9138 54.4225 78.1491 54.2838 78.3462C54.2838 79.2603 54.2838 80.1744 54.2838 81.0885C54.4319 81.2823 54.5121 81.5196 54.5121 81.7638C54.5121 82.0079 54.4319 82.2452 54.2838 82.439C54.2838 83.3531 54.2918 84.2672 54.3078 85.1813C54.4367 85.3616 54.504 85.5788 54.4997 85.8006C54.4954 86.0224 54.4197 86.2368 54.2838 86.4119Z" fill="#373447"/>
<path d="M38.7803 92.9113C41.4504 92.5513 44.1341 92.7947 46.8145 92.7536C47.1831 92.7796 47.549 92.8358 47.9085 92.9216C47.9085 93.8882 47.9256 94.8514 47.9461 95.8146C47.9461 96.2431 47.8298 96.5928 47.3478 96.5791C46.9273 96.5791 46.8008 96.2363 46.7974 95.8489C46.7974 95.0708 46.7974 94.2927 46.7974 93.5146C46.7974 93.0964 46.688 92.925 46.2333 92.8873C43.9632 92.709 43.9837 92.6953 43.9427 94.9817C43.9427 95.561 44.2845 96.5516 43.3273 96.5379C42.5136 96.5379 42.8384 95.5644 42.7358 95.0023C42.7204 94.8163 42.7204 94.6294 42.7358 94.4435C42.7358 92.8941 42.7358 92.8873 41.2281 92.901C39.7204 92.9147 39.9221 92.7433 39.9016 94.2516C39.9016 94.8103 39.9016 95.3725 39.9016 95.9312C39.9016 96.274 39.741 96.5688 39.3717 96.5756C39.0025 96.5825 38.7734 96.2911 38.7734 95.8901C38.7598 94.9028 38.7734 93.9225 38.7803 92.9113Z" fill="#7F7E84"/>
<path d="M46.5973 71.0177L40.4435 71.0452C40.235 71.0452 40.0059 71.0863 39.8691 70.8566C40.7614 70.8224 41.8931 71.2234 42.4845 70.7161C43.076 70.2088 42.6315 69.0262 42.7136 68.1418C42.7307 67.9567 42.7512 67.7716 42.7785 67.5899C42.8264 67.2471 42.9392 66.9523 43.3324 66.9695C43.4181 66.9708 43.5026 66.9902 43.5805 67.0262C43.6584 67.0623 43.7279 67.1142 43.7845 67.1788C43.8412 67.2433 43.8837 67.319 43.9095 67.4011C43.9353 67.4831 43.9436 67.5696 43.9341 67.655C43.9341 68.4948 43.9683 69.3312 43.9341 70.1711C43.9136 70.7024 44.1119 70.8841 44.6179 70.8566C45.264 70.8292 45.917 70.8566 46.5666 70.8738C46.6281 70.9046 46.6486 70.932 46.6281 70.9629C46.6248 70.9843 46.6139 71.0038 46.5973 71.0177Z" fill="#827F87"/>
<path d="M51.999 71.2301C50.9939 70.8394 49.9478 71.1547 48.9221 71.045C48.5802 71.0107 48.1837 71.213 47.8965 70.8462C48.611 70.8462 49.329 70.8188 50.0401 70.8805C50.7512 70.9422 50.8879 70.644 50.8537 70.0167C50.8127 69.242 50.8537 68.4604 50.8537 67.6823C50.8537 67.3121 50.929 66.959 51.3939 66.9762C51.8076 66.9933 51.9751 67.2915 51.9785 67.6789C51.9956 68.8649 51.9956 70.0475 51.999 71.2301Z" fill="#7F7C84"/>
<path d="M38.7666 70.8535C37.888 71.2786 36.9547 70.9804 36.0316 71.0352C35.5663 71.0039 35.0997 71.0741 34.6641 71.2409C34.6641 70.12 34.6641 68.9991 34.6641 67.8816C34.6641 67.4428 34.7359 67.0109 35.2521 66.9835C35.8436 66.9561 35.8025 67.4531 35.8059 67.8576C35.8059 68.6323 35.8367 69.4138 35.8059 70.1885C35.782 70.7301 35.9974 70.9015 36.5136 70.8741C37.2658 70.8398 38.0213 70.8604 38.7666 70.8535Z" fill="#817C84"/>
<path d="M32.4283 89.1816C32.4712 89.6392 32.5866 90.0871 32.7702 90.5082C31.6898 90.5082 30.6061 90.4774 29.5223 90.4739C29.0608 90.4739 28.5856 90.4259 28.565 89.8501C28.5445 89.2742 29.0642 89.2708 29.4505 89.2536C30.4488 89.2022 31.4539 89.2022 32.4283 89.1816Z" fill="#827F86"/>
<path d="M53.9141 90.5293C54.1191 90.1001 54.2354 89.6337 54.2559 89.1582C55.1859 89.1753 56.1124 89.1891 57.0388 89.2199C57.5004 89.2199 58.0884 89.1891 58.0987 89.8301C58.1089 90.4711 57.5448 90.4539 57.073 90.4608C56.0166 90.4951 54.9636 90.4951 53.9141 90.5293Z" fill="#817E86"/>
<path d="M34.625 92.4043C35.4694 92.8979 36.4028 92.6511 37.2985 92.7265C37.7908 92.7642 38.3241 92.5277 38.7754 92.9082C38.0335 92.9082 37.2951 92.9288 36.5566 92.8876C35.9754 92.8533 35.7977 93.0864 35.825 93.6383C35.8592 94.3479 35.825 95.0609 35.825 95.7739C35.825 96.1543 35.825 96.5897 35.3088 96.5897C34.7925 96.5897 34.6865 96.1886 34.6831 95.7396C34.6763 94.629 34.6455 93.5183 34.625 92.4043Z" fill="#7F7E84"/>
<path d="M32.4142 81.1299V82.453L29.5492 82.405C29.0877 82.405 28.6022 82.3159 28.5919 81.764C28.5817 81.2122 29.0945 81.1676 29.5424 81.1642L32.4142 81.1299Z" fill="#837F87"/>
<path d="M54.2637 82.4668C54.2637 82.0143 54.2637 81.5653 54.2637 81.1162C55.2517 81.1334 56.2397 81.1573 57.2278 81.1676C57.6654 81.1676 58.0825 81.2465 58.0996 81.7709C58.1167 82.2954 57.6859 82.3468 57.3098 82.3639C56.3013 82.4154 55.2825 82.4325 54.2637 82.4668Z" fill="#817B83"/>
<path d="M47.9082 92.925C48.7492 92.4828 49.6518 92.7742 50.5236 92.733C51.0146 92.7424 51.504 92.673 51.9732 92.5273L51.9937 95.7872C51.9937 96.202 51.8843 96.5756 51.4159 96.5756C50.9475 96.5756 50.8586 96.1848 50.862 95.7769C50.862 95.0331 50.8415 94.2858 50.862 93.542C50.8791 93.0655 50.7219 92.8564 50.2262 92.8873C49.4569 92.925 48.6809 92.9147 47.9082 92.925Z" fill="#7F7E84"/>
<path d="M32.8207 73.105L32.4207 74.2396C31.4258 74.2396 30.4344 74.2396 29.4395 74.2602C29.0361 74.2602 28.6292 74.2019 28.6156 73.722C28.6019 73.2421 29.0224 73.0947 29.4634 73.0947L32.8207 73.105Z" fill="#7F7C81"/>
<path d="M54.2765 74.2504L53.8867 73.085H57.2166C57.6508 73.085 58.0782 73.1604 58.0987 73.678C58.1226 74.2607 57.644 74.2401 57.2371 74.2436C56.2525 74.2573 55.2645 74.2539 54.2765 74.2504Z" fill="#7F7C82"/>
<path d="M39.8841 70.857H38.7695C38.7695 69.8058 38.7695 68.7534 38.7695 67.6999C38.7695 67.3229 38.8584 66.9904 39.2926 66.9664C39.7849 66.939 39.9148 67.2817 39.9114 67.6999C39.8943 68.7523 39.8875 69.8046 39.8841 70.857Z" fill="#7E7D84"/>
<path d="M46.5977 71.0177C46.5977 70.9732 46.5977 70.9286 46.5977 70.8875C46.9942 70.2019 46.7139 69.4341 46.7857 68.7074C46.8028 68.3957 46.8028 68.0833 46.7857 67.7716C46.7857 67.3568 46.9122 66.9969 47.3806 66.9763C47.9036 66.9558 47.9378 67.3671 47.9344 67.7613C47.9344 68.7897 47.9173 69.818 47.9105 70.8464L46.5977 71.0177Z" fill="#7E7D84"/>
<path d="M54.2734 78.3608C54.2734 77.9118 54.2734 77.4627 54.2734 77.0137C55.2102 77.3565 56.1811 77.0891 57.1316 77.1645C57.5487 77.1953 58.1196 77.0617 58.1128 77.7027C58.1059 78.3437 57.5555 78.3265 57.0871 78.33C56.1333 78.3334 55.2034 78.3505 54.2734 78.3608Z" fill="#7F7D84"/>
<path d="M32.3872 77.1738L32.4145 78.3496C31.4197 78.3496 30.4282 78.329 29.4333 78.329C28.9786 78.329 28.5855 78.1953 28.5821 77.688C28.5786 77.1807 29.0197 77.167 29.406 77.167L32.3872 77.1738Z" fill="#7F7D84"/>
<path d="M54.2832 86.4121V85.2158C55.2644 85.2158 56.249 85.2158 57.2336 85.2158C57.6712 85.2158 58.0883 85.3118 58.0986 85.8225C58.0986 86.3881 57.6405 86.3813 57.2302 86.3813L54.2832 86.4121Z" fill="#7E7D83"/>
<path d="M32.4001 85.2266V86.4023C31.4087 86.4023 30.4207 86.4023 29.4292 86.4023C28.9882 86.4023 28.5677 86.3063 28.595 85.775C28.6189 85.3123 29.0292 85.2334 29.4258 85.2334L32.4001 85.2266Z" fill="#7E7D83"/>
<path d="M40.365 50.3207C39.1276 50.3884 37.8873 50.26 36.6898 49.9402C35.2847 49.5049 34.5838 48.3428 34.9052 47.0128C34.9707 46.7071 35.0961 46.4174 35.2741 46.1607C35.4522 45.9039 35.6793 45.6852 35.9423 45.5171C36.2053 45.3491 36.499 45.2351 36.8063 45.1817C37.1136 45.1284 37.4285 45.1367 37.7325 45.2063C40.5565 45.6794 43.2812 45.4771 45.9171 44.274C46.4794 44.0359 47.111 44.0222 47.683 44.2357C48.2549 44.4491 48.7239 44.8736 48.9941 45.4223C49.1479 45.7049 49.2424 46.0161 49.2716 46.3367C49.3008 46.6573 49.2641 46.9804 49.1638 47.2863C49.0635 47.5921 48.9017 47.8741 48.6885 48.1147C48.4753 48.3554 48.2151 48.5497 47.924 48.6856C45.5742 49.8381 42.9797 50.3993 40.365 50.3207Z" fill="#78959D"/>
<path d="M32.3517 30.6175C36.0303 30.4084 38.8987 33.6477 38.9261 37.1304C38.9534 40.613 35.8218 43.8181 32.3004 43.6775C28.3893 43.5267 25.8047 40.6987 25.8047 37.1304C25.8047 33.0958 29.0594 30.4221 32.3517 30.6175Z" fill="#78959D"/>
<path d="M42.8479 35.2454C42.8479 31.5056 45.6445 28.7325 49.412 28.7325C51.122 28.7261 52.765 29.3984 53.9821 30.6027C55.1992 31.807 55.8915 33.4453 55.9078 35.1597C55.9078 38.7315 52.9334 41.8199 49.477 41.8337C48.6071 41.8493 47.7428 41.6899 46.9353 41.3651C46.1279 41.0403 45.3935 40.5565 44.7755 39.9424C44.1576 39.3283 43.6687 38.5962 43.3376 37.7895C43.0065 36.9827 42.84 36.1177 42.8479 35.2454Z" fill="#78959C"/>
<path d="M51.9147 118.137C52.2312 118.136 52.5447 118.199 52.8361 118.323C53.1274 118.446 53.3905 118.629 53.6091 118.858C53.8277 119.088 53.9973 119.36 54.1074 119.657C54.2176 119.955 54.266 120.271 54.2497 120.588C54.2497 120.905 54.187 121.219 54.0653 121.512C53.9435 121.805 53.7651 122.07 53.5403 122.294C53.3156 122.517 53.0489 122.693 52.7558 122.812C52.4627 122.931 52.1489 122.991 51.8326 122.988C51.1804 122.954 50.5661 122.67 50.1159 122.196C49.6657 121.722 49.4138 121.092 49.4121 120.437C49.4221 120.121 49.4952 119.809 49.6271 119.52C49.7591 119.232 49.9472 118.973 50.1803 118.759C50.4135 118.545 50.687 118.379 50.9849 118.273C51.2827 118.166 51.5989 118.12 51.9147 118.137Z" fill="#CDE1E8"/>
<path d="M78.2697 59.5452C78.2633 59.2279 78.3219 58.9126 78.4418 58.6189C78.5618 58.3252 78.7406 58.0593 78.9671 57.8376C79.1937 57.6159 79.4632 57.4432 79.759 57.3301C80.0547 57.217 80.3705 57.1659 80.6868 57.18C81.0116 57.1786 81.3335 57.2425 81.6333 57.368C81.9331 57.4935 82.2047 57.6781 82.432 57.9109C82.6593 58.1436 82.8377 58.4197 82.9566 58.7228C83.0756 59.0259 83.1326 59.3499 83.1244 59.6755C83.0688 60.3138 82.7796 60.909 82.3125 61.3463C81.8454 61.7836 81.2334 62.0322 80.5945 62.0441C80.2775 62.0353 79.9654 61.9634 79.6763 61.8327C79.3873 61.7019 79.127 61.5148 78.9107 61.2823C78.6944 61.0498 78.5264 60.7765 78.4163 60.4783C78.3063 60.1801 78.2564 59.8629 78.2697 59.5452Z" fill="#CFE1E8"/>
<path d="M26.6128 119.652C26.6014 119.334 26.6554 119.017 26.7716 118.72C26.8878 118.424 27.0637 118.155 27.2882 117.93C27.5128 117.705 27.7812 117.528 28.0768 117.412C28.3723 117.295 28.6886 117.241 29.006 117.252C29.6417 117.273 30.2463 117.533 30.6998 117.98C31.1533 118.427 31.4224 119.029 31.4539 119.666C31.436 120.321 31.1622 120.942 30.6916 121.397C30.221 121.852 29.5911 122.103 28.9376 122.096C27.5154 122.086 26.6128 121.133 26.6128 119.652Z" fill="#CDE1E8"/>
<path d="M10.8241 71.3913C10.837 71.7095 10.7856 72.0269 10.6731 72.3246C10.5605 72.6223 10.389 72.8942 10.169 73.1237C9.94894 73.3533 9.68489 73.5359 9.39267 73.6606C9.10046 73.7852 8.78613 73.8493 8.46857 73.8491C8.15025 73.8531 7.83426 73.7943 7.53863 73.6759C7.243 73.5575 6.97352 73.3819 6.74558 73.1591C6.51764 72.9363 6.3357 72.6706 6.21015 72.3773C6.08461 72.084 6.01791 71.7687 6.01387 71.4496C6.00983 71.1304 6.06852 70.8136 6.1866 70.5172C6.30468 70.2208 6.47984 69.9506 6.70206 69.722C6.92429 69.4935 7.18923 69.3111 7.48177 69.1852C7.77431 69.0593 8.08871 68.9925 8.40703 68.9884C8.7236 68.9852 9.03765 69.0451 9.331 69.1644C9.62434 69.2838 9.89115 69.4604 10.116 69.6839C10.3408 69.9074 10.5191 70.1734 10.6407 70.4664C10.7622 70.7595 10.8246 71.0739 10.8241 71.3913Z" fill="#CEE1E8"/>
<path d="M82.5812 44.1434C82.3723 44.1578 82.1628 44.1296 81.9652 44.0603C81.7676 43.9911 81.5861 43.8824 81.4316 43.7407C81.2772 43.599 81.1531 43.4274 81.0669 43.2361C80.9806 43.0449 80.934 42.8381 80.9299 42.6283C80.9265 42.4183 80.9667 42.21 81.0479 42.0164C81.1292 41.8229 81.2496 41.6484 81.4017 41.504C81.5537 41.3596 81.7341 41.2484 81.9312 41.1776C82.1284 41.1068 82.3381 41.0779 82.547 41.0926C82.9505 41.0881 83.3392 41.2444 83.6278 41.5273C83.9163 41.8101 84.0809 42.1963 84.0854 42.6009C84.09 43.0054 83.934 43.3952 83.6519 43.6845C83.3698 43.9738 82.9847 44.1388 82.5812 44.1434Z" fill="#CEDFE9"/>
<path d="M85.3444 34.0628C85.2863 34.6455 85.3854 35.2728 84.8692 35.7218C83.1017 35.787 81.3273 35.8247 79.6282 36.4074C79.3749 36.1131 79.0596 35.879 78.7051 35.7218L78.8692 34.9574C79.9222 34.5735 81.047 34.6798 82.1307 34.505C83.2145 34.3301 84.264 34.3987 85.2076 33.7988L85.3444 34.0628Z" fill="#C5DDD0"/>
<path d="M85.2076 33.8023C84.9683 34.3884 84.5238 34.5632 83.9119 34.5941C82.5444 34.6661 81.2042 34.8135 79.8606 34.9986C79.5297 35.0224 79.1973 35.0098 78.8691 34.9609C78.9492 34.8502 78.9923 34.7171 78.9923 34.5804C78.9923 34.4437 78.9492 34.3105 78.8691 34.1999C81.0025 34.2547 83.0879 33.792 85.1973 33.6309C85.1973 33.6891 85.2042 33.7474 85.2076 33.8023Z" fill="#97AEA2"/>
<path d="M17.9076 78.5557C18.3265 78.5593 18.7284 78.7224 19.0318 79.012C19.3352 79.3016 19.5175 79.696 19.5418 80.1153C19.5454 80.5335 19.3832 80.936 19.0908 81.2343C18.7985 81.5326 18.3999 81.7022 17.9828 81.7058C17.5657 81.7095 17.1643 81.5468 16.8668 81.2537C16.5693 80.9606 16.4001 80.5609 16.3965 80.1428C16.4146 79.7398 16.5777 79.3571 16.8555 79.0653C17.1332 78.7736 17.507 78.5925 17.9076 78.5557Z" fill="#CDE0E9"/>
<path d="M84.2188 30.6345C82.8219 30.8921 81.391 30.9049 79.9897 30.6722C80.0068 29.26 79.3572 28.1871 78.3111 27.2993C75.6957 25.0746 75.0735 22.2158 76.7453 19.2233C77.2485 18.2643 78.0084 17.4651 78.9397 16.9153C79.8709 16.3655 80.9366 16.0869 82.0171 16.1108C84.3931 16.1108 86.2974 17.1391 87.4393 19.261C88.988 22.1301 88.5436 24.6667 86.2051 26.9462C85.1487 27.978 84.0444 28.9515 84.2188 30.6345Z" fill="white"/>
<path d="M52.7995 81.8877C52.7995 84.037 52.7995 86.1863 52.7995 88.3321C52.7824 90.2517 51.6884 91.3554 49.791 91.3623C45.5061 91.376 41.2212 91.376 36.9363 91.3623C35.0389 91.3623 33.9141 90.2414 33.9106 88.3458C33.897 83.9902 33.897 79.6311 33.9106 75.2686C33.9106 73.5547 35.0525 72.3961 36.7824 72.3892C41.1585 72.3664 45.5357 72.3664 49.9141 72.3892C51.6474 72.3892 52.7756 73.5273 52.7961 75.2549C52.82 77.4693 52.7995 79.6768 52.7995 81.8877Z" fill="#FBFBFC"/>
<path d="M32.4165 32.1153C33.0769 32.118 33.7303 32.2512 34.3393 32.5074C34.9482 32.7636 35.5008 33.1377 35.9654 33.6083C36.43 34.0789 36.7974 34.6368 37.0467 35.2499C37.296 35.8631 37.4223 36.5195 37.4182 37.1816C37.4182 39.8416 34.9601 42.2411 32.29 42.1931C31.6277 42.1838 30.9738 42.0431 30.3659 41.7791C29.7581 41.5152 29.2084 41.1332 28.7485 40.6552C28.2886 40.1772 27.9277 39.6127 27.6865 38.9942C27.4452 38.3756 27.3285 37.7154 27.343 37.0514C27.3398 36.3895 27.47 35.7337 27.7258 35.1235C27.9816 34.5132 28.3576 33.9611 28.8314 33.5001C29.3052 33.0392 29.867 32.6789 30.483 32.4409C31.0991 32.203 31.7567 32.0922 32.4165 32.1153Z" fill="#F8FAFB"/>
<path d="M44.3421 35.2174C44.3349 34.5545 44.4613 33.897 44.7136 33.2843C44.9659 32.6715 45.339 32.1162 45.8105 31.6514C46.282 31.1867 46.8422 30.8221 47.4576 30.5797C48.0729 30.3372 48.7307 30.2217 49.3917 30.2402C50.0527 30.2356 50.708 30.3631 51.3193 30.6154C51.9306 30.8676 52.4856 31.2395 52.952 31.7093C53.4183 32.1791 53.7865 32.7373 54.0352 33.3515C54.2839 33.9656 54.4079 34.6232 54.4002 35.286C54.3676 36.6219 53.8204 37.8932 52.8732 38.8333C51.926 39.7734 50.6525 40.3092 49.3199 40.3283C47.9891 40.2961 46.7236 39.7436 45.7935 38.7887C44.8635 37.8337 44.3426 36.5521 44.3421 35.2174Z" fill="#F8FAFC"/>
<path d="M79.6279 36.4139C79.5698 36.0711 79.71 35.9237 80.069 35.886C81.5254 35.7249 82.9784 35.5432 84.4348 35.365C84.722 35.3307 84.8143 35.4918 84.869 35.7077C84.7125 36.12 84.4573 36.4873 84.1258 36.7772C83.7943 37.0671 83.3967 37.2708 82.9681 37.3702C82.4314 37.7576 81.8399 37.6445 81.2587 37.5691C80.763 37.1166 80.0621 36.9521 79.6279 36.4139Z" fill="#97ACA2"/>
<path d="M81.248 37.5829C81.778 37.1338 82.3968 37.4595 82.9574 37.3841C82.6874 38.2205 81.8942 38.313 81.248 37.5829Z" fill="#141817"/>
<path d="M34.9951 81.819C34.9951 79.92 34.9951 78.021 34.9951 76.1219C34.9951 74.408 35.9558 73.4585 37.6515 73.4551C41.4714 73.4551 45.2902 73.4551 49.1079 73.4551C50.7387 73.4551 51.7199 74.4286 51.7267 76.0774C51.7495 79.9371 51.7495 83.798 51.7267 87.66C51.7267 89.2814 50.7011 90.2858 49.1011 90.2926C45.2515 90.3063 41.4008 90.3063 37.5489 90.2926C35.9797 90.2926 35.0019 89.2643 34.9882 87.708C34.9814 85.7439 34.9951 83.7832 34.9951 81.819Z" fill="#383247"/>
<path d="M36.1806 37.2061C36.181 37.7148 36.0788 38.2183 35.88 38.6864C35.6813 39.1544 35.3901 39.5773 35.0241 39.9296C34.658 40.2819 34.2247 40.5563 33.7501 40.7362C33.2755 40.9162 32.7695 40.998 32.2626 40.9767C31.5006 40.9629 30.7597 40.7226 30.134 40.2863C29.5083 39.85 29.0258 39.2372 28.7478 38.5257C28.4697 37.8142 28.4085 37.0359 28.5721 36.2895C28.7356 35.5431 29.1164 34.8622 29.6662 34.333C30.2161 33.8038 30.9103 33.4502 31.6608 33.3169C32.4113 33.1837 33.1843 33.2768 33.882 33.5845C34.5797 33.8922 35.1705 34.4006 35.5797 35.0453C35.9889 35.6901 36.198 36.4421 36.1806 37.2061Z" fill="#4E646F"/>
<path d="M49.3325 39.0945C48.3124 39.0945 47.3341 38.6882 46.6128 37.965C45.8915 37.2418 45.4863 36.2609 45.4863 35.2382C45.4863 34.2154 45.8915 33.2345 46.6128 32.5113C47.3341 31.7881 48.3124 31.3818 49.3325 31.3818C50.3525 31.3818 51.3308 31.7881 52.0521 32.5113C52.7734 33.2345 53.1786 34.2154 53.1786 35.2382C53.1786 36.2609 52.7734 37.2418 52.0521 37.965C51.3308 38.6882 50.3525 39.0945 49.3325 39.0945Z" fill="#50646F"/>
<path d="M44.7216 86.0077C44.3663 85.9869 44.0102 85.9869 43.6549 86.0077C43.1011 86.0763 42.8515 85.8672 42.8481 85.305C42.8481 84.6194 42.4788 84.4001 41.8224 84.5063C41.2583 84.6023 40.4549 84.1635 40.3968 85.281C40.3592 85.8843 39.3712 86.2888 38.8686 85.9666C38.6464 85.8295 38.7558 85.6238 38.7865 85.4764C39.2891 83.0461 39.8122 80.6157 40.3045 78.182C40.3831 77.8015 40.5985 77.7192 40.9609 77.6986C42.9677 77.5855 42.9677 77.5752 43.3746 79.5565C43.819 81.6715 44.2566 83.7659 44.7216 86.0077Z" fill="#FCFBFB"/>
<path d="M47.2895 81.8291C47.2895 83.0083 47.2484 84.1909 47.2895 85.37C47.3271 86.1619 46.8279 86.0076 46.3835 86.0042C45.939 86.0008 45.4638 86.1687 45.4809 85.3632C45.5322 83.0357 45.5254 80.7048 45.4809 78.3773C45.4809 77.5991 45.9356 77.7294 46.3869 77.726C46.8382 77.7225 47.3237 77.6128 47.286 78.3841C47.2519 79.5256 47.2895 80.6808 47.2895 81.8291Z" fill="#F8F6F7"/>
<path d="M41.7093 79.7207C41.9145 80.7491 42.123 81.7774 42.3213 82.8058C42.3555 83.0012 42.482 83.3097 42.1845 83.3542C41.7898 83.4207 41.3861 83.4114 40.9948 83.3268C40.7042 83.2583 40.8991 82.9566 40.9367 82.7647C41.135 81.7363 41.3469 80.7251 41.5521 79.707L41.7093 79.7207Z" fill="#413F4D"/>
</svg>
