<svg width="10" height="10" viewBox="0 0 10 10" fill="none" xmlns="http://www.w3.org/2000/svg">
<path d="M6.3129 1.08477C6.91232 1.68491 7.28749 2.47269 7.37565 3.31632C7.46381 4.15995 7.25961 5.00828 6.79721 5.71938C6.87793 5.78665 6.9452 5.86064 7.03937 5.92791C7.1739 6.03553 7.35552 6.17006 7.58422 6.32478C7.81293 6.48621 7.96091 6.58711 8.02818 6.64092C8.31069 6.84945 8.51922 7.02434 8.66048 7.1656C8.87573 7.38085 9.06407 7.60283 9.22551 7.83826C9.39367 8.07369 9.52148 8.30239 9.62238 8.53782C9.71655 8.77325 9.76364 8.99523 9.74346 9.21048C9.73 9.42573 9.64928 9.60735 9.5013 9.75533C9.35331 9.90332 9.1717 9.98404 8.95645 9.99749C8.74792 10.0109 8.51922 9.97058 8.29051 9.86969C8.05508 9.77551 7.81965 9.64098 7.59095 9.47282C7.35552 9.31138 7.13354 9.12303 6.91829 8.90778C6.77703 8.76653 6.60214 8.558 6.40034 8.28221C6.33308 8.19477 6.23218 8.04678 6.0842 7.83826C5.93621 7.62301 5.81513 7.45484 5.70751 7.31358C5.59988 7.17905 5.51244 7.07815 5.41154 6.97725C4.71335 7.34284 3.9167 7.47604 3.13756 7.35748C2.35842 7.23891 1.63745 6.87477 1.07962 6.31805C-0.359872 4.87183 -0.359872 2.52426 1.07962 1.08477C1.42309 0.74088 1.83098 0.468071 2.27997 0.281938C2.72895 0.0958057 3.21022 0 3.69626 0C4.18229 0 4.66357 0.0958057 5.11255 0.281938C5.56153 0.468071 5.96942 0.74088 6.3129 1.08477ZM5.36445 5.36287C5.80389 4.92022 6.0505 4.32178 6.0505 3.69804C6.0505 3.07431 5.80389 2.47587 5.36445 2.03321C5.14605 1.81417 4.88658 1.64038 4.6009 1.5218C4.31521 1.40321 4.00894 1.34217 3.69962 1.34217C3.3903 1.34217 3.08403 1.40321 2.79834 1.5218C2.51266 1.64038 2.25319 1.81417 2.03479 2.03321C1.81575 2.25161 1.64195 2.51108 1.52337 2.79677C1.40479 3.08245 1.34375 3.38873 1.34375 3.69804C1.34375 4.00736 1.40479 4.31364 1.52337 4.59932C1.64195 4.885 1.81575 5.14448 2.03479 5.36287C2.25319 5.58192 2.51266 5.75571 2.79834 5.87429C3.08403 5.99288 3.3903 6.05392 3.69962 6.05392C4.00894 6.05392 4.31521 5.99288 4.6009 5.87429C4.88658 5.75571 5.14605 5.58192 5.36445 5.36287Z" fill="#003762"/>
</svg>
