<svg width="22" height="20" viewBox="0 0 22 20" fill="none" xmlns="http://www.w3.org/2000/svg">
<path d="M2.56238 0.108405L21.1628 9.00428C21.3508 9.09405 21.5095 9.23521 21.6207 9.41143C21.7318 9.58765 21.7908 9.79173 21.7908 10.0001C21.7908 10.2084 21.7318 10.4125 21.6207 10.5887C21.5095 10.7649 21.3508 10.9061 21.1628 10.9959L2.56238 19.8917C2.3717 19.9831 2.1588 20.0177 1.949 19.9915C1.73921 19.9653 1.54135 19.8794 1.37898 19.744C1.2166 19.6086 1.09654 19.4294 1.03309 19.2277C0.96963 19.026 0.965446 18.8104 1.02103 18.6064L2.88195 11.7842C2.90473 11.7006 2.95162 11.6255 3.01677 11.5684C3.08192 11.5112 3.16245 11.4745 3.24831 11.4629L12.2616 10.2384C12.2993 10.2331 12.3349 10.2181 12.3651 10.1949C12.3953 10.1716 12.4189 10.141 12.4337 10.106L12.4496 10.0513C12.4566 10.002 12.4467 9.95179 12.4215 9.90884C12.3964 9.86589 12.3574 9.83271 12.311 9.81468L12.2625 9.80144L3.25802 8.57701C3.17232 8.56516 3.09198 8.52839 3.027 8.47126C2.96202 8.41413 2.91527 8.33916 2.89255 8.25567L1.02103 1.39463C0.965221 1.19059 0.969234 0.974798 1.0326 0.772969C1.09596 0.571141 1.21599 0.391778 1.37841 0.256243C1.54083 0.120708 1.73878 0.0347146 1.94869 0.00850392C2.15861 -0.0177068 2.37163 0.0169704 2.56238 0.108405Z" fill="#003762"/>
</svg>
