<svg width="12" height="12" viewBox="0 0 12 12" fill="none" xmlns="http://www.w3.org/2000/svg">
<g clip-path="url(#clip0_2256_25425)">
<path d="M3.07477 6C3.22477 6.45 3.29977 6.825 3.29977 6.825C3.89977 7.8 4.64977 7.65 4.64977 8.175C4.64977 8.4 4.49977 8.625 4.27477 8.7L5.99977 10.05L7.72477 8.775C7.49977 8.625 7.34977 8.475 7.34977 8.25C7.34977 7.65 8.09977 7.875 8.69977 6.9C8.69977 6.9 8.84977 6.6 8.92477 6.075C9.14977 5.25 9.37477 3.75 9.29977 3H8.17477C8.17477 2.775 8.24977 2.55 8.24977 2.25H9.07477C8.84977 1.2 8.32477 0.75 7.42477 0.525C7.04977 0.225 6.52477 0 5.99977 0C5.47477 0 4.94977 0.225 4.57477 0.525C3.67477 0.75 3.22477 1.2 2.92477 2.25H3.74977C3.74977 2.55 3.82477 2.775 3.89977 3H2.69977C2.62477 3.75 2.84977 5.25 3.07477 6ZM8.39977 6.375L8.17477 6.6L7.79977 7.05C7.49977 7.425 7.19977 7.65 6.74977 7.725L6.44977 7.8C6.14977 7.875 5.77477 7.875 5.39977 7.8L5.09977 7.725C4.64977 7.575 4.27477 7.35 3.97477 6.9L3.82477 6.6L3.59977 6.375L3.07477 6L5.39977 5.325C5.77477 5.25 6.14977 5.175 6.52477 5.325L8.92477 6L8.39977 6.375ZM4.49977 2.25C4.49977 1.425 5.17477 0.75 5.99977 0.75C6.82477 0.75 7.49977 1.425 7.49977 2.25C7.49977 3.075 6.82477 3.75 5.99977 3.75C5.17477 3.75 4.49977 3.075 4.49977 2.25Z" fill="#003762"/>
<path d="M11.625 10.65C10.65 8.85 9.675 9.15 8.7 9H8.625L6 10.95L3.375 9H3.3C2.25 9.075 1.35 8.85 0.375 10.65C0.225 10.95 0.075 11.475 0 12H12C11.925 11.475 11.775 10.95 11.625 10.65Z" fill="#003762"/>
</g>
<defs>
<clipPath id="clip0_2256_25425">
<rect width="12" height="12" fill="white"/>
</clipPath>
</defs>
</svg>
