<svg width="8" height="11" viewBox="0 0 8 11" fill="none" xmlns="http://www.w3.org/2000/svg">
<path d="M1.07477 6C1.22477 6.45 1.29977 6.825 1.29977 6.825C1.89977 7.8 2.64977 7.65 2.64977 8.175C2.64977 8.4 2.49977 8.625 2.27477 8.7L3.99977 10.05L5.72477 8.775C5.49977 8.625 5.34977 8.475 5.34977 8.25C5.34977 7.65 6.09977 7.875 6.69977 6.9C6.69977 6.9 6.84977 6.6 6.92477 6.075C7.14977 5.25 7.37477 3.75 7.29977 3H6.17477C6.17477 2.775 6.24977 2.55 6.24977 2.25H7.07477C6.84977 1.2 6.32477 0.75 5.42477 0.525C5.04977 0.225 4.52477 0 3.99977 0C3.47477 0 2.94977 0.225 2.57477 0.525C1.67477 0.75 1.22477 1.2 0.92477 2.25H1.74977C1.74977 2.55 1.82477 2.775 1.89977 3H0.69977C0.62477 3.75 0.84977 5.25 1.07477 6ZM6.39977 6.375L6.17477 6.6L5.79977 7.05C5.49977 7.425 5.19977 7.65 4.74977 7.725L4.44977 7.8C4.14977 7.875 3.77477 7.875 3.39977 7.8L3.09977 7.725C2.64977 7.575 2.27477 7.35 1.97477 6.9L1.82477 6.6L1.59977 6.375L1.07477 6L3.39977 5.325C3.77477 5.25 4.14977 5.175 4.52477 5.325L6.92477 6L6.39977 6.375ZM2.49977 2.25C2.49977 1.425 3.17477 0.75 3.99977 0.75C4.82477 0.75 5.49977 1.425 5.49977 2.25C5.49977 3.075 4.82477 3.75 3.99977 3.75C3.17477 3.75 2.49977 3.075 2.49977 2.25Z" fill="#003762"/>
</svg>
