<svg width="22" height="21" viewBox="0 0 22 21" fill="none" xmlns="http://www.w3.org/2000/svg">
<path d="M19.094 0.5H2.90541C1.78941 0.5 0.881836 1.40757 0.881836 2.52357V14.665C0.881836 15.781 1.78941 16.6886 2.90541 16.6886H5.94077V20.5L12.2918 16.6886H19.094C20.21 16.6886 21.1176 15.781 21.1176 14.665V2.52357C21.1176 1.40757 20.21 0.5 19.094 0.5ZM19.094 14.665H11.7312L7.96435 16.9243V14.665H2.90541V2.52357H19.094V14.665Z" fill="#003762"/>
<path d="M14.5406 6.67205H12.6435V4.77495C12.6435 4.60723 12.5768 4.44639 12.4582 4.32779C12.3396 4.2092 12.1788 4.14258 12.0111 4.14258H10.114C9.94627 4.14258 9.78542 4.2092 9.66683 4.32779C9.54824 4.44639 9.48162 4.60723 9.48162 4.77495V6.67205H7.58452C7.4168 6.67205 7.25596 6.73867 7.13736 6.85726C7.01877 6.97585 6.95215 7.1367 6.95215 7.30441V9.20151C6.95215 9.36923 7.01877 9.53007 7.13736 9.64867C7.25596 9.76726 7.4168 9.83388 7.58452 9.83388H9.48162V11.731C9.48162 11.8987 9.54824 12.0595 9.66683 12.1781C9.78542 12.2967 9.94627 12.3633 10.114 12.3633H12.0111C12.1788 12.3633 12.3396 12.2967 12.4582 12.1781C12.5768 12.0595 12.6435 11.8987 12.6435 11.731V9.83388H14.5406C14.7083 9.83388 14.8691 9.76726 14.9877 9.64867C15.1063 9.53007 15.1729 9.36923 15.1729 9.20151V7.30441C15.1729 7.1367 15.1063 6.97585 14.9877 6.85726C14.8691 6.73867 14.7083 6.67205 14.5406 6.67205ZM14.5406 9.20151H12.3273C12.2434 9.20151 12.163 9.23483 12.1037 9.29412C12.0444 9.35342 12.0111 9.43384 12.0111 9.5177V11.731H10.114V9.5177C10.114 9.43384 10.0807 9.35342 10.0214 9.29412C9.96208 9.23483 9.88166 9.20151 9.7978 9.20151H7.58452V7.30441H9.7978C9.88166 7.30441 9.96208 7.2711 10.0214 7.21181C10.0807 7.15251 10.114 7.07209 10.114 6.98823V4.77495H12.0111V6.98823C12.0111 7.07209 12.0444 7.15251 12.1037 7.21181C12.163 7.2711 12.2434 7.30441 12.3273 7.30441H14.5406V9.20151Z" fill="#003762"/>
</svg>
