<svg width="33" height="33" viewBox="0 0 33 33" fill="none" xmlns="http://www.w3.org/2000/svg">
<path d="M6.70313 14.4375H1.54688C0.692549 14.4375 0 15.13 0 15.9844V31.4531C0 32.3075 0.692549 33 1.54688 33H6.70313C7.55746 33 8.25001 32.3075 8.25001 31.4531V15.9844C8.25001 15.13 7.55746 14.4375 6.70313 14.4375ZM4.125 30.4219C3.27068 30.4219 2.57813 29.7293 2.57813 28.875C2.57813 28.0207 3.27068 27.3281 4.125 27.3281C4.97933 27.3281 5.67188 28.0207 5.67188 28.875C5.67188 29.7293 4.97933 30.4219 4.125 30.4219ZM24.75 5.24984C24.75 7.98368 23.0762 9.51715 22.6052 11.3438H29.1616C31.3141 11.3438 32.9899 13.1321 33 15.0883C33.0054 16.2445 32.5136 17.4892 31.7471 18.2592L31.74 18.2663C32.3739 19.7705 32.2709 21.8781 31.14 23.3884C31.6996 25.0574 31.1356 27.1076 30.0842 28.2067C30.3612 29.3409 30.2288 30.3062 29.6879 31.0834C28.3724 32.9734 25.112 33 22.3549 33L22.1715 32.9999C19.0593 32.9988 16.5121 31.8657 14.4655 30.9552C13.437 30.4976 12.0923 29.9312 11.072 29.9124C10.6504 29.9047 10.3125 29.5607 10.3125 29.1391V15.361C10.3125 15.1547 10.3951 14.9568 10.5418 14.8118C13.0951 12.2888 14.193 9.6177 16.2857 7.52142C17.2399 6.56545 17.5869 5.12145 17.9224 3.725C18.209 2.53256 18.8085 0 20.1094 0C21.6563 0 24.75 0.515625 24.75 5.24984Z" fill="#003762"/>
</svg>
