<svg width="160" height="155" viewBox="0 0 160 155" fill="none" xmlns="http://www.w3.org/2000/svg">
<path d="M81.79 135.738C70.3917 135.887 59.2063 132.645 49.6545 126.424C40.1027 120.202 32.6156 111.282 28.144 100.797C23.6724 90.3111 22.4183 78.7331 24.5408 67.5333C26.6633 56.3334 32.0668 46.0171 40.0649 37.8947C48.0629 29.7723 58.2946 24.2104 69.4604 21.9153C80.6262 19.6203 92.2222 20.6957 102.775 25.005C113.329 29.3143 122.363 36.663 128.731 46.1177C135.099 55.5724 138.513 66.7064 138.54 78.1056C138.63 93.2655 132.708 107.843 122.071 118.645C111.434 129.448 96.9495 135.594 81.79 135.738Z" fill="#F26D6D"/>
<path d="M28.3611 12.6369C28.3819 14.7659 27.5578 16.8163 26.0694 18.3388C24.581 19.8612 22.5497 20.7315 20.4208 20.7588C18.2588 20.7731 16.1776 19.9383 14.6248 18.434C13.0719 16.9297 12.1715 14.8761 12.1172 12.7147C12.1236 10.5368 12.9828 8.44802 14.5106 6.8959C16.0385 5.34379 18.1135 4.45183 20.291 4.41113C22.4499 4.4385 24.5102 5.31887 26.0222 6.86002C27.5341 8.40118 28.375 10.4779 28.3611 12.6369Z" fill="#F26D6D"/>
<path d="M148.401 33.007C146.781 32.9528 145.247 32.264 144.131 31.0892C143.014 29.9145 142.404 28.3479 142.433 26.7274C142.433 25.1033 143.078 23.5456 144.226 22.3972C145.375 21.2487 146.932 20.6035 148.556 20.6035C150.181 20.6035 151.738 21.2487 152.887 22.3972C154.035 23.5456 154.68 25.1033 154.68 26.7274C154.684 27.553 154.524 28.3712 154.209 29.1346C153.895 29.898 153.433 30.5916 152.849 31.1754C152.265 31.7592 151.571 32.2216 150.808 32.536C150.045 32.8504 149.226 33.0105 148.401 33.007Z" fill="#F26D6D"/>
<path d="M16.1402 112.851C16.1545 113.397 16.0575 113.94 15.8552 114.447C15.6529 114.954 15.3495 115.414 14.9635 115.8C14.5775 116.186 14.117 116.49 13.61 116.692C13.1029 116.894 12.56 116.991 12.0143 116.977C10.9901 116.881 10.0335 116.423 9.31565 115.686C8.59779 114.949 8.16549 113.981 8.09608 112.955C8.08847 112.386 8.19703 111.822 8.4151 111.297C8.63317 110.772 8.95616 110.297 9.36429 109.901C9.77242 109.505 10.2571 109.196 10.7886 108.994C11.3202 108.792 11.8874 108.7 12.4555 108.725C13.4881 108.792 14.4531 109.262 15.1424 110.034C15.8316 110.806 16.19 111.817 16.1402 112.851Z" fill="#F26D6D"/>
<path d="M57.5278 148.349C57.5162 149.087 57.2265 149.794 56.7166 150.328C56.2067 150.862 55.5142 151.184 54.7773 151.23C53.9949 151.202 53.2545 150.869 52.7157 150.301C52.1769 149.733 51.8829 148.976 51.897 148.194C51.9072 147.822 51.9905 147.456 52.1421 147.117C52.2936 146.778 52.5106 146.472 52.7804 146.216C53.0503 145.961 53.3678 145.761 53.7149 145.628C54.062 145.496 54.4318 145.433 54.8032 145.443C55.1747 145.453 55.5404 145.536 55.8797 145.688C56.2189 145.84 56.525 146.057 56.7804 146.326C57.0358 146.596 57.2356 146.914 57.3683 147.261C57.501 147.608 57.564 147.978 57.5538 148.349H57.5278Z" fill="#F26D6D"/>
<path d="M90.3532 10.3795C89.8178 10.3735 89.3049 10.1634 88.9191 9.79211C88.5333 9.42079 88.3038 8.91623 88.2773 8.38142C88.2884 7.82186 88.5069 7.28635 88.8905 6.8788C89.2741 6.47125 89.7954 6.2207 90.3532 6.17578C90.9108 6.20263 91.4361 6.4449 91.8185 6.85151C92.201 7.25813 92.4106 7.79733 92.4032 8.35548C92.3898 8.89253 92.1687 9.40349 91.7864 9.78094C91.4042 10.1584 90.8904 10.3729 90.3532 10.3795Z" fill="#F26D6D"/>
<path d="M142.147 96.4515C141.882 96.4655 141.616 96.4269 141.365 96.3379C141.114 96.2489 140.883 96.1113 140.685 95.9329C140.488 95.7545 140.327 95.5389 140.213 95.2984C140.099 95.0579 140.033 94.7972 140.02 94.5313C140.016 94.2553 140.067 93.9813 140.17 93.7249C140.272 93.4686 140.424 93.235 140.617 93.0374C140.81 92.8398 141.039 92.6821 141.293 92.5734C141.547 92.4646 141.82 92.4069 142.096 92.4035C142.371 92.3965 142.646 92.4452 142.902 92.5467C143.159 92.6482 143.392 92.8005 143.588 92.9943C143.784 93.1881 143.94 93.4195 144.044 93.6747C144.149 93.9299 144.201 94.2036 144.197 94.4794C144.194 94.744 144.138 95.0053 144.033 95.2482C143.928 95.491 143.776 95.7106 143.585 95.894C143.394 96.0775 143.169 96.2213 142.922 96.317C142.675 96.4127 142.412 96.4584 142.147 96.4515Z" fill="#F26D6D"/>
<path d="M140.124 135.348C140.073 135.881 139.828 136.376 139.435 136.74C139.043 137.104 138.531 137.31 137.996 137.321C137.733 137.312 137.475 137.252 137.236 137.144C136.997 137.035 136.781 136.881 136.602 136.689C136.422 136.498 136.282 136.273 136.19 136.027C136.097 135.782 136.054 135.52 136.063 135.258C136.071 134.995 136.131 134.737 136.239 134.498C136.348 134.259 136.502 134.043 136.694 133.864C136.885 133.684 137.11 133.544 137.356 133.452C137.602 133.359 137.863 133.316 138.125 133.324C138.393 133.313 138.66 133.358 138.909 133.456C139.159 133.554 139.385 133.703 139.573 133.894C139.761 134.085 139.907 134.312 140.002 134.563C140.097 134.813 140.138 135.081 140.124 135.348Z" fill="#F26D6D"/>
<path d="M5.65653 65.5985C5.65653 66.1175 5.44894 66.4548 4.95592 66.4029C4.73285 66.3905 4.52219 66.2963 4.36421 66.1383C4.20624 65.9804 4.11203 65.7697 4.09961 65.5466C4.09961 65.0536 4.38505 64.846 4.85212 64.846C4.95696 64.8299 5.06409 64.8378 5.16543 64.8691C5.26676 64.9005 5.35967 64.9544 5.43712 65.0269C5.51458 65.0993 5.57458 65.1884 5.61259 65.2875C5.65059 65.3865 5.66562 65.4928 5.65653 65.5985Z" fill="#F26D6D"/>
<path d="M103.588 143.808C103.588 144.249 103.354 144.56 102.861 144.534C102.773 144.528 102.686 144.504 102.607 144.464C102.527 144.424 102.457 144.368 102.399 144.301C102.341 144.233 102.297 144.155 102.269 144.07C102.242 143.986 102.231 143.896 102.238 143.808C102.238 143.341 102.42 143.003 102.887 143.003C103.354 143.003 103.562 143.341 103.588 143.808Z" fill="#F26D6D"/>
<path d="M91.0806 59.1113C93.7839 59.3305 96.2941 60.5991 98.074 62.6456C99.8538 64.6922 100.762 67.3541 100.604 70.0617C100.604 75.7704 100.604 81.4791 100.604 87.1879C100.593 89.4393 99.8511 91.6262 98.489 93.4189C97.1269 95.2116 95.2189 96.5128 93.0527 97.1262C90.6884 97.4469 88.2982 97.5338 85.9168 97.3857C81.4796 97.3857 77.0683 97.3857 72.631 97.3857C71.3036 97.4272 69.9811 97.2049 68.7402 96.7318C67.4992 96.2587 66.3645 95.5441 65.4015 94.6295C64.4386 93.7148 63.6667 92.6183 63.1305 91.4033C62.5942 90.1883 62.3043 88.879 62.2775 87.5512C62.0872 81.3754 62.0872 75.1996 62.2775 69.0238C62.3455 66.3372 63.4766 63.7873 65.4225 61.9338C67.3685 60.0803 69.9703 59.0746 72.657 59.1373L91.0806 59.1113Z" fill="white"/>
<path d="M87.6555 73.6945C87.6617 73.941 87.6084 74.1852 87.4999 74.4066C87.3915 74.628 87.2312 74.8199 87.0328 74.966C86.2283 75.7964 85.4499 76.6527 84.5936 77.4052C83.7373 78.1577 83.8929 78.547 84.5936 79.1697C85.2942 79.7925 86.2283 80.8045 87.0328 81.6089C87.2204 81.7462 87.3731 81.9259 87.4783 82.1333C87.5836 82.3407 87.6384 82.57 87.6384 82.8026C87.6384 83.0351 87.5836 83.2644 87.4783 83.4718C87.3731 83.6792 87.2204 83.8589 87.0328 83.9962C86.8998 84.1734 86.7274 84.3173 86.5293 84.4164C86.3311 84.5155 86.1126 84.5671 85.891 84.5671C85.6694 84.5671 85.4509 84.5155 85.2528 84.4164C85.0546 84.3173 84.8822 84.1734 84.7493 83.9962C83.7892 83.062 82.8291 82.1279 81.8949 81.1678C81.4538 80.7267 81.1424 80.7007 80.6753 81.1678C79.819 82.1279 78.8848 83.0101 77.9507 83.8924C77.8106 84.0803 77.6286 84.2329 77.4191 84.338C77.2096 84.4431 76.9785 84.4979 76.7441 84.4979C76.5097 84.4979 76.2785 84.4431 76.0691 84.338C75.8596 84.2329 75.6775 84.0803 75.5375 83.8924C75.3724 83.7487 75.24 83.5713 75.1493 83.3721C75.0586 83.1729 75.0117 82.9565 75.0117 82.7377C75.0117 82.5188 75.0586 82.3025 75.1493 82.1033C75.24 81.9041 75.3724 81.7267 75.5375 81.583C76.3419 80.7526 77.0944 79.8963 77.9766 79.1438C78.8589 78.3913 78.7032 77.9501 77.9766 77.2755C77.2501 76.6008 76.4197 75.7185 75.6412 74.9401C75.4642 74.8098 75.3173 74.643 75.2105 74.4509C75.1037 74.2588 75.0394 74.046 75.0222 73.8269C75.005 73.6078 75.0351 73.3875 75.1106 73.1811C75.1861 72.9747 75.3051 72.787 75.4596 72.6306C75.6054 72.4469 75.7908 72.2985 76.002 72.1965C76.2132 72.0945 76.4447 72.0415 76.6792 72.0415C76.9137 72.0415 77.1452 72.0945 77.3564 72.1965C77.5676 72.2985 77.753 72.4469 77.8988 72.6306C78.6595 73.2958 79.3707 74.0156 80.0266 74.7844C80.8569 75.7445 81.5576 75.9261 82.4398 74.7844C83.0732 74.0038 83.7767 73.2828 84.5417 72.6306C84.7998 72.3596 85.1364 72.1764 85.5041 72.1065C85.8718 72.0367 86.2521 72.0839 86.5916 72.2414C86.8937 72.3499 87.1564 72.5462 87.346 72.8052C87.5355 73.0641 87.6433 73.3738 87.6555 73.6945Z" fill="#F26D83"/>
</svg>
