<svg width="160" height="154" viewBox="0 0 160 154" fill="none" xmlns="http://www.w3.org/2000/svg">
<path d="M135.155 75.8064C135.146 87.0099 131.809 97.9582 125.566 107.261C119.323 116.564 110.457 123.802 100.093 128.056C89.7282 132.311 78.3334 133.389 67.355 131.155C56.3766 128.92 46.3097 123.474 38.4325 115.507C30.5554 107.541 25.2233 97.4128 23.1132 86.4098C21.0031 75.4068 22.2103 64.0249 26.5814 53.7093C30.9525 43.3937 38.2904 34.6097 47.6634 28.4725C57.0364 22.3353 68.0217 19.1218 79.2246 19.24C94.1197 19.3971 108.351 25.4273 118.824 36.0197C129.297 46.6121 135.166 60.9105 135.155 75.8064ZM78.3898 95.4039H87.4531C88.8135 95.4208 90.164 95.1709 91.4283 94.6685C93.4292 93.952 95.1562 92.6281 96.3679 90.8819C97.5795 89.1357 98.2152 87.0546 98.1861 84.9294C98.3451 78.6884 98.3252 72.4474 98.1861 66.2263C98.1235 63.4847 96.9864 60.8775 95.0196 58.9665C93.0528 57.0555 90.414 55.9938 87.6718 56.0101C81.709 56.0101 75.7463 56.0101 69.7836 56.0101C67.7267 55.91 65.6863 56.4218 63.9202 57.481C62.3063 58.5423 60.9889 59.9967 60.0919 61.7074C59.1948 63.418 58.7476 65.3288 58.7923 67.2598C58.7923 72.9046 58.7923 78.5493 58.7923 84.2139C58.7338 84.8751 58.7338 85.5402 58.7923 86.2014C59.2285 88.8666 60.6307 91.2779 62.7312 92.9752C64.8318 94.6725 67.4838 95.5371 70.1811 95.4039H78.3898Z" fill="#00CDB0"/>
<path d="M26.1175 11.1106C26.1124 13.2529 25.2618 15.3065 23.7507 16.825C22.2396 18.3436 20.1902 19.2042 18.048 19.22C15.963 19.1459 13.9836 18.2845 12.5084 16.8092C11.0332 15.334 10.1717 13.3546 10.0977 11.2696C10.1874 9.16941 11.0699 7.18127 12.5674 5.70594C14.0648 4.2306 16.0659 3.37777 18.1672 3.31934C20.2334 3.36778 22.2039 4.19945 23.68 5.646C25.1561 7.09254 26.0274 9.0459 26.1175 11.1106Z" fill="#00CDB0"/>
<path d="M139.13 25.1429C139.1 24.3704 139.227 23.5999 139.503 22.8775C139.778 22.1552 140.197 21.4959 140.733 20.9391C141.269 20.3824 141.913 19.9396 142.624 19.6374C143.336 19.3351 144.101 19.1796 144.874 19.1802C146.455 19.1802 147.972 19.8084 149.09 20.9266C150.209 22.0449 150.837 23.5615 150.837 25.1429C150.837 26.7243 150.209 28.241 149.09 29.3592C147.972 30.4774 146.455 31.1056 144.874 31.1056C144.098 31.1147 143.329 30.965 142.614 30.6657C141.898 30.3664 141.252 29.9239 140.714 29.3653C140.176 28.8068 139.757 28.144 139.485 27.4179C139.213 26.6917 139.092 25.9175 139.13 25.1429Z" fill="#00CDB0"/>
<path d="M14.0323 109.675C14.0483 110.206 13.9573 110.736 13.7647 111.232C13.5721 111.729 13.2818 112.181 12.9111 112.563C12.5403 112.945 12.0967 113.248 11.6065 113.455C11.1162 113.663 10.5894 113.769 10.0572 113.769C9.02443 113.703 8.05101 113.263 7.31927 112.532C6.58753 111.8 6.14765 110.827 6.08203 109.794C6.08172 108.73 6.49733 107.709 7.24009 106.947C7.98285 106.186 8.99387 105.745 10.0572 105.719C11.108 105.719 12.1161 106.135 12.861 106.877C13.606 107.618 14.0271 108.624 14.0323 109.675Z" fill="#00CDB0"/>
<path d="M52.1532 141.794C52.5303 141.782 52.9058 141.849 53.2555 141.991C53.6051 142.133 53.9212 142.347 54.1833 142.618C54.4454 142.89 54.6478 143.213 54.7774 143.567C54.907 143.922 54.9609 144.299 54.9358 144.676C54.9306 145.043 54.8528 145.405 54.7069 145.742C54.5611 146.079 54.3499 146.384 54.0857 146.639C53.8215 146.894 53.5095 147.094 53.1675 147.228C52.8256 147.362 52.4606 147.427 52.0935 147.419C51.3344 147.373 50.6225 147.034 50.1074 146.475C49.5923 145.915 49.314 145.178 49.3308 144.417C49.3945 143.709 49.718 143.049 50.239 142.565C50.7601 142.08 51.4419 141.806 52.1532 141.794Z" fill="#00CDB0"/>
<path d="M134.659 133.724C134.4 133.734 134.143 133.688 133.904 133.59C133.665 133.492 133.449 133.344 133.272 133.156C133.095 132.967 132.96 132.743 132.877 132.498C132.794 132.254 132.764 131.994 132.79 131.737C132.79 131.209 133 130.704 133.372 130.331C133.745 129.958 134.251 129.749 134.778 129.749C135.049 129.749 135.318 129.804 135.567 129.911C135.816 130.018 136.041 130.175 136.227 130.373C136.413 130.57 136.557 130.803 136.65 131.059C136.742 131.314 136.782 131.585 136.765 131.856C136.75 132.117 136.684 132.373 136.569 132.608C136.455 132.843 136.296 133.054 136.1 133.227C135.904 133.401 135.676 133.534 135.429 133.62C135.181 133.705 134.92 133.74 134.659 133.724Z" fill="#00CDB0"/>
<path d="M140.819 91.7266C140.753 92.2306 140.523 92.6988 140.163 93.0583C139.804 93.4177 139.336 93.6483 138.832 93.7142C138.55 93.7316 138.269 93.6891 138.005 93.5893C137.742 93.4896 137.502 93.335 137.303 93.1358C137.104 92.9366 136.949 92.6973 136.85 92.4338C136.75 92.1702 136.707 91.8885 136.725 91.6073C136.697 91.3394 136.729 91.0686 136.819 90.8147C136.909 90.5607 137.054 90.3301 137.245 90.1396C137.435 89.9491 137.666 89.8036 137.92 89.7137C138.174 89.6237 138.444 89.5916 138.712 89.6197C140.084 89.8185 140.839 90.5142 140.819 91.7266Z" fill="#00CDB0"/>
<path d="M87.2742 8.74517C86.7716 8.7099 86.3011 8.48503 85.9579 8.11604C85.6148 7.74705 85.4246 7.26149 85.4258 6.7576C85.4651 6.22643 85.7004 5.72883 86.0861 5.36151C86.4718 4.99418 86.9803 4.78336 87.5127 4.77002C88.0306 4.79859 88.5197 5.01716 88.8864 5.3839C89.2532 5.75063 89.4718 6.23975 89.5003 6.7576C89.5024 7.03995 89.4442 7.3195 89.3298 7.57762C89.2153 7.83574 89.0472 8.06652 88.8366 8.25457C88.6259 8.44263 88.3777 8.58365 88.1083 8.66825C87.8389 8.75284 87.5546 8.77907 87.2742 8.74517Z" fill="#00CDB0"/>
<path d="M2.78204 64.1191C2.36465 63.9999 1.94725 63.7415 1.98701 63.2446C2.00236 63.0161 2.10673 62.8028 2.27768 62.6504C2.44864 62.498 2.67255 62.4188 2.90129 62.4297C3.55719 62.4297 3.53732 62.8869 3.53732 63.344C3.54962 63.447 3.53872 63.5515 3.50542 63.6498C3.47211 63.7481 3.41724 63.8376 3.34482 63.912C3.27241 63.9863 3.18428 64.0435 3.0869 64.0793C2.98952 64.1152 2.88536 64.1288 2.78204 64.1191Z" fill="#00CDB0"/>
<path d="M100.691 140.144C100.691 140.582 100.532 140.939 100.015 140.959C99.4985 140.979 99.0215 140.721 99.0215 140.164C99.0261 140.052 99.054 139.941 99.1035 139.84C99.1529 139.739 99.2228 139.649 99.3087 139.576C99.3946 139.503 99.4947 139.449 99.6026 139.417C99.7106 139.385 99.824 139.375 99.9358 139.389C100.433 139.389 100.651 139.667 100.691 140.144Z" fill="#00CDB0"/>
<path d="M78.391 95.4035H70.1823C67.4854 95.531 64.8359 94.6614 62.7391 92.9605C60.6423 91.2596 59.2449 88.8464 58.8134 86.1812C58.7549 85.5199 58.7549 84.8548 58.8134 84.1936C58.8134 78.529 58.8134 72.8843 58.8134 67.2396C58.7687 65.3085 59.2159 63.3978 60.113 61.6871C61.01 59.9764 62.3274 58.522 63.9413 57.4607C65.7074 56.4015 67.7478 55.8897 69.8047 55.9899C75.7674 55.9899 81.7301 55.9899 87.6929 55.9899C90.4351 55.9735 93.0739 57.0353 95.0407 58.9462C97.0075 60.8572 98.1446 63.4645 98.2071 66.206C98.3661 72.4271 98.386 78.6681 98.2071 84.9091C98.2363 87.0343 97.6006 89.1154 96.389 90.8616C95.1773 92.6078 93.4503 93.9317 91.4494 94.6483C90.1803 95.16 88.8227 95.4167 87.4544 95.4035H78.391ZM76.2444 82.0073C76.5117 81.9985 76.7744 81.9359 77.0169 81.8232C77.2593 81.7105 77.4766 81.55 77.6556 81.3514C79.2457 79.7613 80.8953 78.211 82.4854 76.6011C84.0755 74.9911 85.4668 73.5402 86.9177 71.9899C87.1707 71.7208 87.3115 71.3654 87.3115 70.9961C87.3115 70.6268 87.1707 70.2714 86.9177 70.0023C86.8053 69.8244 86.6579 69.6713 86.4844 69.5522C86.3109 69.4331 86.1149 69.3506 85.9085 69.3097C85.7021 69.2688 85.4895 69.2704 85.2838 69.3142C85.078 69.3581 84.8832 69.4435 84.7115 69.565C84.2316 69.8982 83.7856 70.2776 83.3798 70.6979C81.2332 72.818 79.0933 74.9646 76.9599 77.1377C76.3835 77.734 76.0059 77.7737 75.4494 77.1377C74.8929 76.5017 73.8593 75.4681 73.0245 74.6532C72.8616 74.4477 72.6563 74.2796 72.4227 74.1604C72.189 74.0411 71.9325 73.9736 71.6704 73.9623C71.4084 73.9509 71.1469 73.9961 70.9039 74.0948C70.6608 74.1934 70.4419 74.3432 70.2618 74.534C70.1094 74.7146 69.9966 74.9251 69.9306 75.152C69.8647 75.3789 69.847 75.6171 69.8789 75.8513C69.9107 76.0854 69.9913 76.3103 70.1155 76.5113C70.2396 76.7124 70.4046 76.8851 70.5997 77.0184C72.0705 78.4495 73.5016 79.9203 74.9326 81.3911C75.0945 81.5816 75.2954 81.7352 75.5217 81.8415C75.748 81.9477 75.9944 82.0043 76.2444 82.0073Z" fill="#FEFEFF"/>
<path d="M76.2442 82.0076C76.0017 82.0172 75.7598 81.9762 75.534 81.8872C75.3081 81.7983 75.1033 81.6633 74.9324 81.4908C73.5014 80.02 72.0703 78.5492 70.5995 77.1182C70.4044 76.9848 70.2395 76.8121 70.1153 76.611C69.9911 76.41 69.9105 76.1851 69.8787 75.951C69.8468 75.7168 69.8645 75.4786 69.9304 75.2517C69.9964 75.0248 70.1092 74.8143 70.2616 74.6337C70.4417 74.4429 70.6607 74.2931 70.9037 74.1945C71.1468 74.0959 71.4082 74.0507 71.6702 74.062C71.9323 74.0733 72.1889 74.1408 72.4225 74.2601C72.6562 74.3793 72.8614 74.5474 73.0244 74.7529C73.8591 75.5678 74.6939 76.3629 75.4492 77.2374C76.2045 78.1119 76.3834 77.8337 76.9598 77.2374C79.0931 75.0511 81.2662 72.8912 83.479 70.7579C83.8848 70.3376 84.3308 69.9581 84.8107 69.625C85.1379 69.3783 85.5495 69.2711 85.9554 69.327C86.3614 69.3828 86.7288 69.5972 86.9771 69.9231C87.2301 70.1922 87.3709 70.5476 87.3709 70.9169C87.3709 71.2862 87.2301 71.6416 86.9771 71.9107C85.5262 73.4809 84.0355 75.0113 82.5449 76.5219C81.0542 78.0324 79.3051 79.6821 77.715 81.2722C77.5365 81.4926 77.3129 81.6723 77.0593 81.7991C76.8056 81.926 76.5277 81.9971 76.2442 82.0076Z" fill="#00CDB0"/>
</svg>
