<svg width="14" height="16" viewBox="0 0 14 16" fill="none" xmlns="http://www.w3.org/2000/svg">
<path d="M6.60608 15.2512C6.83415 15.373 7.12041 15.3722 7.34849 15.2504C13.564 11.9115 14.0054 5.38803 14 3.53316C13.9994 3.38408 13.9553 3.2384 13.8732 3.11398C13.7911 2.98956 13.6744 2.89178 13.5376 2.83264L7.29263 0.0662356C7.19325 0.0224274 7.08581 -0.000133002 6.9772 5.89842e-07C6.86859 0.000134182 6.76121 0.0229588 6.66193 0.0670113L0.460416 2.83341C0.325584 2.89259 0.210607 2.98929 0.129183 3.11197C0.0477582 3.23466 0.00331894 3.37817 0.00115912 3.5254C-0.0252171 5.37096 0.346377 11.9084 6.60608 15.2512ZM4.42306 6.36007L6.2019 8.13891L9.53229 4.80853L10.6292 5.90547L6.2019 10.3328L3.32611 7.45701L4.42306 6.36007Z" fill="#00CDB0"/>
</svg>
