<svg width="21" height="21" viewBox="0 0 21 21" fill="none" xmlns="http://www.w3.org/2000/svg">
<path d="M1.79745 0.738476C1.72885 0.664861 1.64613 0.605816 1.55422 0.564864C1.46231 0.523912 1.36309 0.501892 1.26249 0.500117C1.16188 0.498342 1.06195 0.516848 0.968655 0.554532C0.875358 0.592217 0.790606 0.648307 0.719456 0.719456C0.648307 0.790606 0.592217 0.875358 0.554532 0.968655C0.516848 1.06195 0.498342 1.16188 0.500117 1.26249C0.501892 1.36309 0.523912 1.46231 0.564864 1.55422C0.605816 1.64613 0.664861 1.72885 0.738476 1.79745L2.30395 3.36292C1.76701 3.63361 1.31578 4.04809 1.00056 4.56016C0.685344 5.07224 0.518522 5.66179 0.51869 6.2631V14.7548C0.51869 15.616 0.860767 16.4418 1.46967 17.0507C2.07857 17.6596 2.90442 18.0017 3.76553 18.0017H12.2573C12.8585 18.002 13.448 17.8353 13.96 17.5202C14.4721 17.2052 14.8866 16.7542 15.1575 16.2174L19.2195 20.2805C19.3601 20.421 19.5507 20.5 19.7495 20.5C19.9483 20.5 20.1389 20.421 20.2795 20.2805C20.42 20.1399 20.499 19.9493 20.499 19.7505C20.499 19.5517 20.42 19.3611 20.2795 19.2205L1.79745 0.738476ZM13.9816 15.0416C13.9137 15.4499 13.7032 15.8209 13.3874 16.0885C13.0717 16.3561 12.6712 16.5031 12.2573 16.5031H3.76553C3.30185 16.5031 2.85717 16.3189 2.5293 15.9911C2.20143 15.6632 2.01723 15.2185 2.01723 14.7548V6.2631C2.01723 5.39495 2.64962 4.67465 3.47881 4.53778L13.9816 15.0416ZM14.0056 10.8267V6.2631C14.0056 5.79943 13.8214 5.35474 13.4935 5.02687C13.1656 4.699 12.721 4.5148 12.2573 4.5148H7.69371L6.19517 3.01626H12.2573C13.1184 3.01626 13.9442 3.35834 14.5531 3.96724C15.162 4.57614 15.5041 5.40199 15.5041 6.2631V6.43594L19.3644 4.12019C19.4781 4.05194 19.6078 4.01509 19.7404 4.0134C19.873 4.0117 20.0037 4.04522 20.1191 4.11054C20.2345 4.17586 20.3305 4.27063 20.3973 4.38518C20.4641 4.49974 20.4993 4.62996 20.4993 4.76256V16.2534C20.4993 16.5541 20.3294 16.7959 20.0967 16.9177L19.0007 15.8218V6.08628L15.5041 8.18523V12.3252L14.0056 10.8267Z" fill="#003762"/>
</svg>
