<svg width="21" height="15" viewBox="0 0 21 15" fill="none" xmlns="http://www.w3.org/2000/svg">
<path d="M2.31774 3.40909C2.31774 2.8666 2.53324 2.34633 2.91684 1.96274C3.30043 1.57914 3.8207 1.36364 4.36319 1.36364H12.545C13.0875 1.36364 13.6078 1.57914 13.9914 1.96274C14.375 2.34633 14.5905 2.8666 14.5905 3.40909V11.5909C14.5905 12.1334 14.375 12.6537 13.9914 13.0373C13.6078 13.4209 13.0875 13.6364 12.545 13.6364H4.36319C3.8207 13.6364 3.30043 13.4209 2.91684 13.0373C2.53324 12.6537 2.31774 12.1334 2.31774 11.5909V3.40909ZM4.36319 0C3.45905 0 2.59193 0.359171 1.9526 0.9985C1.31327 1.63783 0.954102 2.50494 0.954102 3.40909V11.5909C0.954102 12.4951 1.31327 13.3622 1.9526 14.0015C2.59193 14.6408 3.45905 15 4.36319 15H12.545C12.9927 15 13.436 14.9118 13.8496 14.7405C14.2632 14.5692 14.639 14.3181 14.9556 14.0015C15.2722 13.6849 15.5233 13.3091 15.6946 12.8955C15.8659 12.4819 15.9541 12.0386 15.9541 11.5909V10.9091L18.4086 12.75C18.5606 12.864 18.7413 12.9334 18.9304 12.9504C19.1196 12.9675 19.3098 12.9315 19.4797 12.8466C19.6495 12.7616 19.7924 12.6311 19.8923 12.4695C19.9921 12.3079 20.045 12.1218 20.045 11.9318V3.075C20.045 2.88507 19.9921 2.69889 19.8923 2.53732C19.7924 2.37575 19.6495 2.24519 19.4797 2.16024C19.3098 2.0753 19.1196 2.03935 18.9304 2.05641C18.7413 2.07346 18.5606 2.14286 18.4086 2.25682L15.9541 4.09091V3.40909C15.9541 2.9614 15.8659 2.5181 15.6946 2.10449C15.5233 1.69088 15.2722 1.31506 14.9556 0.9985C14.639 0.681936 14.2632 0.430824 13.8496 0.259502C13.436 0.0881788 12.9927 0 12.545 0H4.36319ZM15.9541 5.79545L18.6814 3.75545V11.25L15.9541 9.20455V5.79545Z" fill="#003762"/>
</svg>
