<svg width="25" height="20" viewBox="0 0 25 20" fill="none" xmlns="http://www.w3.org/2000/svg">
<path d="M1.78571 4.46429C1.78571 3.75388 2.06792 3.07258 2.57025 2.57025C3.07258 2.06792 3.75388 1.78571 4.46429 1.78571H15.1786C15.889 1.78571 16.5703 2.06792 17.0726 2.57025C17.5749 3.07258 17.8571 3.75388 17.8571 4.46429V15.1786C17.8571 15.889 17.5749 16.5703 17.0726 17.0726C16.5703 17.5749 15.889 17.8571 15.1786 17.8571H4.46429C3.75388 17.8571 3.07258 17.5749 2.57025 17.0726C2.06792 16.5703 1.78571 15.889 1.78571 15.1786V4.46429ZM4.46429 0C3.28028 0 2.14478 0.470343 1.30756 1.30756C0.470343 2.14477 0 3.28028 0 4.46429V15.1786C0 16.3626 0.470343 17.4981 1.30756 18.3353C2.14478 19.1725 3.28028 19.6429 4.46429 19.6429H15.1786C15.7648 19.6429 16.3454 19.5274 16.887 19.303C17.4286 19.0787 17.9208 18.7498 18.3353 18.3353C18.7498 17.9207 19.0787 17.4286 19.303 16.887C19.5274 16.3453 19.6429 15.7648 19.6429 15.1786V14.2857L22.8571 16.6964C23.0561 16.8457 23.2927 16.9365 23.5404 16.9589C23.7882 16.9812 24.0372 16.9341 24.2597 16.8229C24.4821 16.7117 24.6692 16.5407 24.8 16.3291C24.9307 16.1175 25 15.8737 25 15.625V4.02679C25 3.77806 24.9307 3.53426 24.8 3.32268C24.6692 3.11111 24.4821 2.94012 24.2597 2.82889C24.0372 2.71766 23.7882 2.67057 23.5404 2.69291C23.2927 2.71525 23.0561 2.80612 22.8571 2.95536L19.6429 5.35714V4.46429C19.6429 3.87803 19.5274 3.29751 19.303 2.75588C19.0787 2.21425 18.7498 1.72211 18.3353 1.30756C17.9208 0.893012 17.4286 0.564175 16.887 0.339824C16.3454 0.115472 15.7648 0 15.1786 0H4.46429ZM19.6429 7.58929L23.2143 4.91786V14.7321L19.6429 12.0536V7.58929Z" fill="#003762"/>
</svg>
