<svg width="231" height="146" viewBox="0 0 231 146" fill="none" xmlns="http://www.w3.org/2000/svg">
<path d="M156.444 22.3966C159.07 20.2663 162.255 19.2179 165.294 17.8683C170.988 15.3438 177.005 13.6208 183.173 12.7488C194.024 11.2542 204.684 11.7561 214.395 17.7902C217.322 19.54 219.812 21.9315 221.676 24.7836C223.541 27.6358 224.731 30.8739 225.156 34.2529C226.497 43.1757 224.039 51.5743 221.01 59.8056C217.01 70.6469 211.378 80.752 206.327 91.1137C204.781 94.0773 203.52 97.1808 202.561 100.382C202.371 101.096 202.36 101.598 203.019 102C203.388 102.658 202.751 102.87 202.461 103.215C200.851 105.145 199.108 106.963 198.605 109.584C198.427 110.577 197.723 110.699 196.873 110.387C196.024 110.075 194.94 109.461 193.912 109.149C193.298 108.971 192.694 108.904 192.661 109.751C192.504 112.718 192.437 115.674 194.314 118.273C194.663 118.796 195.142 119.22 195.704 119.503C196.266 119.787 196.892 119.92 197.521 119.89C200.058 119.89 201.254 121.418 200.874 124.139C200.202 124.48 199.443 124.612 198.695 124.519C197.667 124.519 197.197 124.998 197.242 126.013C197.096 128.46 197.477 130.909 198.36 133.196C198.594 133.876 199.041 134.568 198.684 135.349C198.481 135.553 198.235 135.71 197.965 135.81C197.695 135.91 197.406 135.951 197.119 135.929C191.264 135.929 185.397 136.129 179.53 135.828C179.103 135.771 178.708 135.569 178.411 135.257C178.114 134.944 177.933 134.54 177.899 134.111C178.272 132.982 178.435 131.795 178.38 130.608C178.491 124.44 177.664 118.34 177.977 112.127C177.977 111.012 178.558 110.008 178.078 108.926C178.078 105.1 177.676 101.286 177.765 97.46C178.949 96.6458 178.882 95.3409 179.072 94.114C180.19 93.2217 181.911 93.2217 182.749 91.8833C183.922 90.1545 182.983 88.5372 182.57 86.8307C182.068 84.7972 181.677 82.7383 181.397 80.6628C181.128 79.0567 180.749 77.4617 180.525 75.8445C180.462 74.6696 180.003 73.5506 179.222 72.6696C178.44 71.7886 177.383 71.1976 176.223 70.9927C175.794 70.8914 175.381 70.7339 174.994 70.5242C173.474 69.7769 173.418 68.6727 173.977 67.1781C174.446 65.9178 175.586 65.0478 175.798 63.6871C176.58 60.2406 174.982 58.1103 171.496 57.8203C170.435 57.7383 169.367 57.8249 168.334 58.0768C166.859 58.0768 166.222 58.9357 166.49 60.3076C166.97 62.7613 166.099 65.3043 167.205 67.7581C167.775 69.0073 166.747 70.0669 165.663 70.6804C164.579 71.2938 164.143 70.2677 163.529 69.6431C162.085 68.0298 161.334 65.9147 161.439 63.754C161.35 60.9098 159.785 58.7795 158.221 56.6827C157.438 55.5673 156.187 55.7681 155.204 56.6827C154.285 57.3911 153.456 58.2075 152.734 59.1141C151.225 61.3448 149.069 63.0513 147.728 65.4717C147.179 66.4247 146.312 67.1547 145.278 67.5339C144.244 67.9132 143.11 67.9175 142.073 67.5462C139.839 66.9216 137.604 67.3008 135.369 67.3566C134.43 67.4757 133.477 67.3725 132.586 67.0555C131.469 66.5647 130.72 67.0555 130.687 68.1708C130.62 69.855 130.139 71.7065 131.804 73.0338C132 73.157 132.168 73.3199 132.297 73.512C132.426 73.7042 132.513 73.9212 132.553 74.1491C132.687 76.7033 134.631 78.0975 136.196 79.6367C138.162 81.5662 137.682 84.4215 136.542 86.6299C134.944 89.4017 133.812 92.4158 133.19 95.5528C133.022 96.6681 133.313 97.46 134.665 97.382C135.033 97.382 135.402 97.382 135.782 97.382C136.52 97.2536 137.268 97.1939 138.017 97.2035C139.172 97.4652 140.366 97.5106 141.537 97.3374C142.102 97.3346 142.652 97.1646 143.12 96.8489C143.588 96.5331 143.951 96.0859 144.163 95.5639C144.35 95.3274 144.596 95.1441 144.877 95.0325C145.157 94.9209 145.462 94.8849 145.761 94.9282C146.556 95.2976 147.442 95.4256 148.309 95.2963C148.582 95.2096 148.872 95.1928 149.153 95.2474C149.434 95.3019 149.697 95.4261 149.918 95.6086C153.494 98.8431 157.662 101.319 161.182 104.609C161.609 105.031 161.932 105.545 162.126 106.112C162.32 106.679 162.379 107.284 162.299 107.877C162.282 108.283 162.195 108.683 162.042 109.06C161.104 111.402 160.433 113.767 161.126 116.321C161.188 116.885 161.127 117.455 160.947 117.994C160.686 118.714 160.686 119.504 160.947 120.224C162.724 123.236 161.629 126.493 161.83 129.627C161.841 130.037 161.744 130.442 161.547 130.803C161.351 131.163 161.063 131.465 160.713 131.679C159.546 132.534 158.556 133.606 157.796 134.836C157.108 135.45 156.227 135.805 155.304 135.839C153.695 135.315 152.052 135.639 150.421 135.628H110.93C109.988 135.553 109.039 135.613 108.114 135.806C107.574 135.934 107.011 135.934 106.471 135.806C105.019 134.813 104.974 134.534 106.17 133.486C107.768 132.07 107.969 131.322 106.952 129.404C105.932 127.807 105.343 125.974 105.242 124.084C105.242 123.225 104.538 122.645 104.125 121.964C103.439 121.008 103.044 119.874 102.986 118.699C102.929 117.524 103.211 116.358 103.801 115.339C104.631 113.951 105.565 112.628 106.594 111.38C107.172 110.797 107.588 110.074 107.801 109.283C107.821 109.092 107.891 108.91 108.002 108.753C108.114 108.597 108.264 108.472 108.438 108.391C110.74 107.599 110.192 105.58 110.248 103.929C110.248 102.814 109.421 102.267 108.293 102.423C106.866 102.732 105.379 102.592 104.035 102.022C103.197 101.609 102.717 102.557 102.024 102.791C99.1097 103.604 96.0404 103.692 93.0843 103.048C91.464 101.933 90.5812 100.271 89.419 98.8208C87.5082 96.4339 85.6867 93.969 83.8317 91.5487C82.8931 90.1768 81.4292 89.9202 79.9318 89.7306C79.1384 89.6302 78.3227 89.7306 77.5181 89.6079C76.7136 89.4853 76.1884 88.7714 75.4732 89.4295C75.3733 89.5487 75.3097 89.694 75.2899 89.8482C75.2701 90.0023 75.2949 90.1589 75.3614 90.2995C75.6967 91.281 76.5683 90.9018 77.2388 91.0244C77.3617 91.0244 77.4846 91.0244 77.6075 91.0244C78.725 91.3033 79.8424 91.4037 80.4123 92.5748C80.4602 93.901 80.2319 95.2226 79.7419 96.4562C79.0937 99.2223 78.2333 101.933 77.507 104.688C77.3839 105.209 77.1426 105.695 76.8016 106.109C76.4607 106.523 76.0291 106.853 75.5402 107.074C73.0656 108.193 70.5153 109.136 67.908 109.896C67.6405 109.999 67.3517 110.035 67.0671 110C66.7825 109.965 66.511 109.86 66.2765 109.695C65.2373 107.989 65.1591 106.004 64.7568 104.119C64.3545 102.234 64.0193 100.561 63.7734 98.7539C63.6896 98.3567 63.6896 97.9464 63.7734 97.5493C64.0045 97.1087 64.1252 96.6189 64.1252 96.1216C64.1252 95.6244 64.0045 95.1345 63.7734 94.694C62.8514 92.7829 62.2043 90.7515 61.8514 88.6599C61.9408 88.2472 62.0861 87.9015 62.5889 87.8903C65.215 90.7791 68.6791 90.6229 72.132 90.5225C73.1154 90.5225 73.9088 90.3329 73.7635 89.0726C73.283 88.1134 72.2437 88.1134 71.5174 88.1134C66.7235 87.7676 64.4439 84.8342 63.3488 80.5401C62.6136 78.0451 61.1415 75.8294 59.1248 74.1826C58.867 73.8977 58.6558 73.574 58.4991 73.2234C58.2309 72.4984 57.8845 71.6507 59.069 71.4834C60.4546 71.2826 60.5552 70.3681 60.6222 69.2527C60.6893 68.1374 60.3429 67.1112 60.3429 66.0405C61.5721 63.9994 61.4603 63.7205 59.2254 62.6052C55.6384 60.8429 52.5207 62.6833 52.3866 66.6651C52.3084 68.84 52.0178 70.9369 50.4199 72.6211C49.8357 73.4516 49.4287 74.3931 49.2242 75.3872C49.0562 75.923 48.7816 76.4195 48.4168 76.8469C48.0519 77.2743 47.6044 77.6238 47.101 77.8744C44.8619 79.152 42.8215 80.7489 41.0444 82.6147C40.5941 82.9606 40.2592 83.4345 40.0837 83.9739C39.9082 84.5134 39.9003 85.0933 40.0611 85.6373C41.402 89.173 44.0392 91.716 46.6876 94.2478C47.636 95.4911 48.7661 96.5851 50.0399 97.4935C50.6769 97.9173 51.5038 98.107 51.839 98.91C52.1072 101.855 51.2915 104.71 51.135 107.61C51.4144 112.975 48.1291 117.503 47.6039 122.712C47.1793 126.827 47.0563 130.965 46.3859 135.059C45.9054 135.94 45.0338 135.918 44.2404 135.929C38.6531 135.929 33.1552 135.929 27.6238 135.929C26.9279 135.998 26.2302 135.816 25.6571 135.416C25.4507 135.099 25.3281 134.736 25.3007 134.359C25.2733 133.983 25.3421 133.606 25.5007 133.263C25.9476 131.545 26.0929 129.783 26.3835 128.054C26.6181 126.571 26.2047 125.89 24.6626 125.991C24.2736 126.009 23.8872 125.92 23.5451 125.734C22.8746 123.414 24.0256 121.596 26.1935 121.563C27.2379 121.615 28.2694 121.313 29.1197 120.706C29.97 120.098 30.589 119.221 30.8756 118.217C31.5206 116.228 31.7636 114.132 31.5908 112.049C31.5349 110.934 31.0097 110.755 30.0822 111.134C29.7917 111.257 29.49 111.369 29.1994 111.469C27.5568 111.993 27.0539 111.737 27.0875 109.997C27.0778 107.207 26.6097 104.437 25.7018 101.799C25.1766 100.126 24.8302 99.9919 23.4669 100.962C19.8575 103.572 16.4158 106.338 15.1195 110.9C14.829 111.937 14.1585 112.127 13.2199 111.67C12.2812 111.212 11.3649 110.867 10.415 110.554C9.46521 110.242 9.19702 110.554 9.16349 111.391C8.93068 113.652 9.1977 115.936 9.94571 118.083C10.2292 118.96 10.7778 119.728 11.5161 120.281C12.2545 120.834 13.1463 121.146 14.0691 121.173C16.6393 121.173 17.902 122.89 17.4215 125.634C16.7552 125.968 16.0054 126.1 15.2648 126.013C14.3932 126.013 13.8233 126.325 13.7898 127.285C13.7562 128.244 13.9797 129.036 13.164 129.672C7.72198 122.979 5.55412 115.005 4.53724 106.684C3.16908 96.6656 4.25813 86.4654 7.7108 76.9598C9.68546 71.5711 12.6025 66.5749 16.3264 62.2037C19.2843 58.7595 22.8912 55.9286 26.9422 53.872C29.4464 52.6643 32.1846 52.0172 34.9655 51.9758C43.8046 51.552 52.3866 53.0912 60.9016 55.2438C70.0424 57.5861 79.1943 59.8726 88.4021 61.936C94.2451 63.4081 100.256 64.113 106.281 64.0328C111.288 63.8432 116.16 63.0402 120.205 59.5714C121.67 58.3774 122.866 56.8874 123.714 55.1992C125.784 50.6566 128.355 46.3582 131.379 42.3838C134.033 39.1722 136.9 36.1427 139.961 33.316C140.223 33.1562 140.51 33.043 140.811 32.9813C141.66 34.0967 140.922 35.2121 140.811 36.2493C140.699 37.5097 140.308 38.7254 140.118 39.9746C139.872 41.6254 140.431 42.105 142.029 41.5473C143.861 40.858 145.632 40.0186 147.325 39.0377C147.998 38.6141 148.781 38.3977 149.576 38.4155C150.371 38.4334 151.143 38.6847 151.795 39.1381C153.343 40.1226 154.952 41.0092 156.611 41.7927C157.226 42.0603 157.908 42.5623 158.556 42.0046C159.204 41.4469 158.913 40.8892 158.824 40.22C158.522 38.2235 158.366 36.2047 157.997 34.2194C157.873 33.6636 157.899 33.0849 158.071 32.5423C158.244 31.9996 158.558 31.5123 158.98 31.1299C160.5 29.613 162.053 28.1296 163.529 26.5681C164.713 25.3189 164.512 24.6943 162.858 24.2258C161.204 23.7574 159.506 23.7351 157.807 23.3447C157.248 23.1774 156.444 23.4228 156.444 22.3966Z" fill="#F0F9FE"/>
<path d="M25.7013 134.88C26.1371 135.527 26.8187 135.337 27.4222 135.337C33.1435 135.337 38.8649 135.337 44.5862 135.337C45.2008 135.337 46.0389 135.66 46.2624 134.623C46.7437 134.278 47.3096 134.07 47.9 134.021C48.4904 133.972 49.083 134.084 49.6148 134.344C50.4189 134.71 51.3049 134.86 52.1849 134.779C56.2897 134.779 60.387 134.779 64.4769 134.779C65.2935 134.71 66.1159 134.793 66.9018 135.025C67.0981 135.113 67.2677 135.252 67.3935 135.426C67.434 135.769 67.5472 136.099 67.7254 136.394C67.9037 136.69 68.1429 136.944 68.4272 137.141C68.7116 137.337 69.0345 137.471 69.3745 137.533C69.7145 137.595 70.0639 137.584 70.3994 137.501C71.0805 137.462 71.7633 137.462 72.4444 137.501C73.957 137.427 75.4708 137.623 76.9142 138.081C78.3222 138.627 79.4061 137.735 80.49 136.965C81.574 136.196 82.6355 134.612 84.4346 134.735C90.5806 134.924 96.7266 134.735 102.839 134.813C104.043 134.748 105.246 134.954 106.359 135.415H107.879C108.475 135.195 109.118 135.133 109.745 135.237C124.272 135.237 138.922 135.326 153.516 135.158C153.704 135.175 153.888 135.22 154.063 135.292C154.261 135.677 154.573 135.992 154.958 136.191C155.342 136.391 155.779 136.467 156.209 136.408C157.324 136.32 158.445 136.32 159.561 136.408C160.456 136.546 161.371 136.493 162.244 136.25C163.117 136.008 163.928 135.582 164.623 135.002C167.681 134.696 170.762 134.696 173.82 135.002C173.82 135.002 173.976 135.002 173.976 135.069C174.345 137.233 176.01 136.72 177.44 136.809C178.558 136.876 178.994 136.296 179.251 135.382C185.039 135.382 190.827 135.382 196.616 135.382C197.32 135.382 198.147 135.671 198.683 134.868C199.566 134.868 200.069 135.727 200.918 135.872C202.535 136.06 204.165 136.108 205.79 136.017C206.417 135.961 206.997 135.666 207.41 135.192C207.869 134.824 208.126 134.077 208.919 134.277C208.852 135.237 209.332 135.326 210.204 135.393C211.858 135.393 213.556 135.147 215.423 136.14C213.758 137.389 211.914 137.423 210.215 137.679C203.265 138.794 196.269 139.441 189.263 140.021C183.866 140.468 178.48 140.802 173.082 141.137C164.657 141.672 156.231 142.04 147.794 142.341C143.637 142.497 139.469 142.341 135.323 142.631C122.942 143.434 110.55 142.899 98.1681 142.944C92.3127 142.944 86.4349 142.754 80.5682 142.542C74.981 142.341 69.3937 142.096 63.8064 141.839C57.5264 141.549 51.2463 141.181 44.9774 140.724C38.2726 140.189 31.5679 139.609 24.8632 138.772C22.2391 138.584 19.6276 138.249 17.041 137.768C18.7619 136.653 20.6727 137.345 22.4942 137.188C22.9028 137.196 23.3065 137.098 23.6652 136.902C24.0238 136.706 24.3251 136.421 24.5391 136.073C24.8073 135.527 24.9973 134.958 25.7013 134.88Z" fill="#DAEBF6"/>
<path d="M37.513 39.9854C37.9041 37.922 38.2728 35.524 38.8092 33.2375C38.9448 32.7885 38.9462 32.3098 38.8132 31.8601C38.6802 31.4104 38.4186 31.0091 38.0605 30.7056C36.4402 29.1218 34.8646 27.4934 33.2666 25.8761C32.7191 25.3296 32.1492 24.7608 32.4509 23.9131C32.7526 23.0654 33.5013 22.9205 34.2835 22.7978C36.5184 22.5412 38.6528 22.1955 40.8542 22.0282C41.3577 22.0229 41.8489 21.8714 42.2676 21.5921C42.6863 21.3129 43.0145 20.9179 43.212 20.4555C44.2624 18.381 45.3798 16.3287 46.4414 14.2541C46.7767 13.6072 47.1342 13.0049 47.9723 13.083C48.8104 13.1611 49.0898 13.6853 49.4585 14.3545C50.4084 16.4179 51.4364 18.4367 52.3416 20.5113C52.5094 20.9816 52.8095 21.3937 53.2058 21.6983C53.6022 22.003 54.078 22.1872 54.5765 22.2289C56.5767 22.4966 58.5658 22.8201 60.5549 23.177C61.4488 23.3443 62.5551 23.2774 62.9462 24.3816C63.3373 25.4858 62.4769 26.0992 61.8288 26.7461C60.309 28.1738 58.7893 29.6014 57.2584 31.0068C56.8889 31.2984 56.612 31.6906 56.4613 32.136C56.3106 32.5814 56.2925 33.0609 56.4091 33.5163C56.8449 35.747 57.0237 37.9777 57.4148 40.2085C57.5601 41.0338 57.5601 41.7588 56.8784 42.2384C56.1968 42.718 55.4593 42.428 54.7553 42.0265C52.9227 41.045 51.0565 40.1527 49.2686 39.0373C48.7638 38.6663 48.1581 38.457 47.5316 38.4371C46.905 38.4171 46.2872 38.5876 45.7598 38.9258C43.8489 40.0412 41.8599 40.9892 39.8484 41.9038C38.2505 42.6399 37.4459 42.0153 37.513 39.9854Z" fill="#FEC663"/>
<path d="M124.932 37.9218C125.043 38.9814 125.222 40.041 125.256 41.1006C125.256 42.7402 124.462 43.3313 123.021 42.5617C121.11 41.6136 119.21 40.5987 117.434 39.4833C116.849 39.0568 116.146 38.8213 115.422 38.8094C114.697 38.7974 113.987 39.0094 113.388 39.4164C111.701 40.4091 109.913 41.2233 108.17 42.0933C107.421 42.4725 106.65 42.8071 105.857 42.2159C105.063 41.6248 105.32 40.9221 105.488 40.1525C105.902 38.1226 106.237 36.0703 106.605 34.0404C106.789 33.4067 106.781 32.733 106.582 32.104C106.383 31.4749 106.003 30.9185 105.488 30.5047C103.924 29.1328 102.527 27.5713 101.018 26.1102C100.46 25.5525 99.9008 24.9949 100.337 24.1249C100.503 23.8199 100.751 23.5669 101.053 23.3936C101.355 23.2204 101.698 23.1338 102.046 23.1434C104.281 22.9091 106.516 22.5634 108.751 22.3626C109.254 22.3421 109.741 22.1778 110.153 21.889C110.565 21.6003 110.885 21.1995 111.075 20.7342C111.954 18.9273 112.871 17.1316 113.824 15.347C114.26 14.5328 114.551 13.4621 115.702 13.4398C116.853 13.4175 117.154 14.5551 117.557 15.3359C118.439 17.1428 119.3 18.9719 120.127 20.8011C120.529 21.7269 121.032 22.4742 122.16 22.4853C124.808 22.2596 127.473 22.594 129.983 23.4668C131.603 23.9353 131.771 25.6975 130.396 27.1363C129.279 28.3632 127.927 29.4563 126.653 30.5716C125.828 31.1561 125.217 31.9922 124.91 32.9539C124.604 33.9157 124.619 34.9508 124.954 35.903C125.097 36.2211 125.169 36.5663 125.165 36.9149C125.161 37.2634 125.082 37.607 124.932 37.9218Z" fill="#FEC663"/>
<path d="M71.6515 40.5205C72.0761 38.1114 72.389 35.6687 72.9812 33.293C73.1303 32.8194 73.1333 32.312 72.9898 31.8366C72.8464 31.3613 72.563 30.94 72.1766 30.6273C70.601 29.077 69.0478 27.5043 67.4945 25.9205C66.9693 25.3852 66.31 24.8052 66.6229 23.9798C66.9358 23.1545 67.7404 22.8645 68.6008 22.8087C70.8357 22.5856 73.0706 22.2399 75.3055 22.028C75.7452 21.9948 76.1667 21.8393 76.5223 21.579C76.8778 21.3188 77.1531 20.9643 77.3169 20.5557C78.4344 18.4811 79.4848 16.4289 80.5464 14.3543C80.9151 13.6293 81.3956 13.027 82.2561 13.094C83.1165 13.1609 83.3735 13.8636 83.6529 14.4993C84.5469 16.3731 85.5414 18.2134 86.3013 20.143C86.5068 20.7684 86.8979 21.3167 87.4228 21.7151C87.9477 22.1134 88.5815 22.3432 89.2402 22.3737C91.1845 22.5968 93.1177 22.8979 95.0398 23.2548C95.9225 23.4221 96.9171 23.4221 97.2188 24.5375C97.5205 25.6529 96.7718 26.0209 96.1907 26.5786C95.02 27.8185 93.7695 28.9809 92.4473 30.0585C91.6574 30.572 91.0595 31.3313 90.7463 32.2187C90.4331 33.1061 90.4222 34.0719 90.7152 34.9661C91.1063 36.6726 91.2181 38.446 91.5421 40.1748C91.6986 40.9667 91.7991 41.714 91.1063 42.2605C90.4135 42.807 89.5419 42.4055 88.8714 42.0263C86.927 40.9778 84.9715 39.9406 83.0607 38.8364C82.6626 38.5857 82.2016 38.4526 81.7309 38.4526C81.2602 38.4526 80.7992 38.5857 80.4011 38.8364C78.3338 39.9517 76.2442 40.9778 74.121 41.9593C72.5342 42.5951 71.6626 42.0597 71.6515 40.5205Z" fill="#FEC663"/>
<path d="M156.443 22.3968C158.298 23.2333 160.366 22.9991 162.277 23.5122C162.831 23.6208 163.379 23.7585 163.919 23.9249C165.316 24.4825 165.495 25.2298 164.467 26.3006C163.378 27.6112 162.157 28.8071 160.824 29.8697C158.231 31.6654 158.22 33.9854 158.835 36.6288C159.138 38.0334 159.348 39.4568 159.461 40.8894C159.617 42.7409 158.712 43.3209 157.047 42.4955C155.648 41.9505 154.319 41.239 153.091 40.3763C150.32 37.9449 147.817 39.0491 145.269 40.5883C144.155 41.3044 142.953 41.8742 141.693 42.2836C140.039 42.7521 139.313 42.0717 139.615 40.3987C140.05 37.9449 140.453 35.4799 140.866 33.015C140.942 32.6023 140.903 32.1769 140.756 31.7841C140.608 31.3913 140.357 31.0457 140.028 30.7843C138.776 29.6689 137.558 28.4532 136.329 27.2821C135.569 26.9758 134.91 26.4617 134.43 25.7987C133.77 24.6833 133.904 23.4676 135.1 23.1218C137.838 22.3522 140.687 21.6384 143.537 22.3411C143.98 22.1813 144.382 21.9268 144.716 21.5954C145.05 21.264 145.307 20.8637 145.47 20.4226C146.386 18.4485 147.504 16.4854 148.621 14.5001C148.934 13.909 149.359 13.3847 150.052 13.4628C150.392 13.5082 150.714 13.6484 150.978 13.8673C151.243 14.0862 151.441 14.3751 151.549 14.7009C152.488 16.9316 153.572 19.0173 154.555 21.1811C154.675 21.5735 154.931 21.9107 155.277 22.1332C155.622 22.3557 156.036 22.4491 156.443 22.3968Z" fill="#D8D9D8"/>
<path d="M143.481 22.3853C141.022 22.653 138.553 22.8984 136.083 23.2107C135.731 23.2144 135.388 23.3223 135.098 23.5209C134.807 23.7195 134.582 23.9997 134.452 24.3261C134.172 25.0957 134.675 25.5976 135.167 26.1106C135.658 26.6237 135.904 26.9472 136.284 27.371C135.41 27.5114 134.616 27.9631 134.049 28.6425C131.225 31.2927 128.61 34.1565 126.227 37.2084C126.102 37.429 125.924 37.6155 125.71 37.7516C125.496 37.8877 125.251 37.9693 124.998 37.9892C124.741 36.8738 124.428 35.6915 124.216 34.5316C124.062 33.8858 124.105 33.2092 124.337 32.5875C124.57 31.9659 124.983 31.4274 125.523 31.0405C126.898 29.9251 128.172 28.6871 129.434 27.4602C130.161 26.7352 131.334 26.1441 130.898 24.8391C130.462 23.5342 129.3 23.7795 128.339 23.6011C126.317 23.233 124.283 22.8984 122.249 22.5526C123.455 18.3089 125.507 14.352 128.283 10.9195C133.938 4.30544 141.19 7.57343 144.073 13.4179C144.735 14.5748 145.054 15.8958 144.993 17.2268C144.932 18.5579 144.492 19.8441 143.726 20.9354C143.553 21.3989 143.47 21.8909 143.481 22.3853Z" fill="#F1F9FE"/>
<path d="M200.851 123.994C200.683 123.515 200.493 123.057 200.359 122.567C199.901 120.972 199.443 119.923 197.185 120.336C194.928 120.749 193.677 118.696 192.883 116.789C191.878 114.347 192.012 111.737 192.146 109.16C192.146 108.424 192.559 108.145 193.263 108.435C194.492 108.926 195.699 109.45 196.917 109.941C197.331 110.108 197.923 110.688 198.035 109.774C198.526 106.428 200.851 104.275 202.996 101.966C204.46 100.851 205.935 99.8023 207.365 98.6201C208.393 97.8059 208.863 98.1628 209.254 99.267C210.41 102.13 211.032 105.181 211.087 108.268C211.087 109.606 211.243 110.119 212.729 109.472C215.579 108.246 215.579 108.357 215.646 111.424C215.806 113.759 215.335 116.093 214.282 118.183C213.9 119.122 213.182 119.886 212.267 120.327C211.353 120.768 210.307 120.855 209.332 120.57C209.199 120.527 209.059 120.512 208.92 120.524C208.782 120.537 208.647 120.577 208.523 120.642C208.4 120.708 208.292 120.798 208.204 120.906C208.117 121.014 208.052 121.139 208.014 121.273L206.896 123.894C206.821 123.953 206.729 123.985 206.633 123.985C206.538 123.985 206.446 123.953 206.371 123.894C205.79 123.013 206.27 122.199 206.561 121.396C206.747 121.031 206.834 120.624 206.815 120.215C206.795 119.806 206.669 119.41 206.449 119.065C205.946 118.34 205.499 117.492 204.427 117.681C203.354 117.871 203.41 118.797 203.309 119.611C203.041 121.128 203.309 122.779 202.259 124.072C202.046 124.21 201.795 124.277 201.542 124.263C201.289 124.249 201.047 124.155 200.851 123.994Z" fill="#8ECD99"/>
<path d="M200.851 123.994H202.371C202.977 123.611 203.678 123.403 204.396 123.393C205.114 123.383 205.821 123.572 206.438 123.938H206.963C207.023 123.945 207.083 123.945 207.142 123.938C210.662 124.295 210.673 124.295 210.36 127.82C210.146 129.997 209.627 132.133 208.818 134.166C208.454 134.974 207.825 135.635 207.035 136.04C206.246 136.445 205.342 136.571 204.471 136.397C203.119 136.185 201.722 136.642 200.381 136.129C202.169 135.159 203.991 135.605 205.555 135.794C203.947 133.864 201.933 132.31 199.655 131.244C197.543 130.128 197.074 127.987 196.649 125.857C196.292 124.462 196.839 123.938 198.258 124.061C199.123 124.088 199.989 124.066 200.851 123.994Z" fill="#21997A"/>
<path d="M23.0533 137.59L16.9967 137.668C13.9237 135.861 13.6443 132.693 13.1191 129.671V127.005C13.7896 126.838 13.8455 127.395 13.9349 127.775C14.2186 128.912 14.773 129.964 15.5512 130.842C16.3294 131.719 17.3082 132.397 18.4047 132.816C20.4406 133.85 22.0755 135.529 23.0533 137.59Z" fill="#207F63"/>
<path d="M83.8086 134.958C82.5235 135.962 81.205 136.921 79.9534 137.981C79.5352 138.429 78.9845 138.733 78.3816 138.847C77.7786 138.961 77.1549 138.881 76.601 138.617C75.4064 138.064 74.0936 137.815 72.7793 137.892C72.6229 137.892 72.5112 137.892 72.5 137.814C72.4329 137.468 72.7347 137.423 72.9358 137.312C73.4498 137.033 74.232 137.312 74.4891 136.498C74.7349 132.46 73.9192 128.456 74.1203 124.418C74.1442 124.1 74.0941 123.78 73.974 123.484C73.8538 123.188 73.6668 122.924 73.4275 122.712C71.9947 121.29 70.2502 120.221 68.3319 119.589C66.805 118.138 65.0914 116.896 63.2363 115.897C62.7116 115.513 62.2385 115.063 61.8283 114.558C61.6424 114.281 61.514 113.97 61.4506 113.642C61.3873 113.315 61.3903 112.978 61.4595 112.651C61.5422 112.272 61.7085 111.916 61.9463 111.61C62.184 111.303 62.4873 111.053 62.834 110.878C64.0409 110.454 65.1248 109.606 66.4993 109.762C69.5837 108.941 72.608 107.908 75.5506 106.673C75.9052 106.535 76.2186 106.309 76.4611 106.016C76.7036 105.723 76.8671 105.373 76.9363 105C77.9941 100.828 79.0594 96.6868 80.1322 92.5748C80.2691 92.231 80.4774 91.9201 80.7433 91.6624C81.0092 91.4047 81.3268 91.2061 81.6751 91.0797C82.0234 90.9533 82.3946 90.9019 82.7643 90.9289C83.1339 90.9559 83.4936 91.0607 83.8198 91.2364C86.673 94.9543 89.5412 98.6535 92.4242 102.334C92.488 102.403 92.5716 102.451 92.6636 102.471C92.7555 102.491 92.8514 102.482 92.9382 102.446C95.3407 103.338 97.788 102.591 100.213 102.624C100.839 102.581 101.463 102.499 102.079 102.379C103.196 101.531 104.314 102.111 105.431 102.189C106.169 102.189 106.918 102.189 107.666 102.189C109.521 103.204 109.901 104.799 108.56 106.651C106.437 109.629 104.56 112.763 102.37 115.685C101.965 116.159 101.707 116.741 101.628 117.359C101.549 117.977 101.651 118.604 101.923 119.165C103.174 122.321 104.37 125.5 105.677 128.623C106.074 129.344 106.273 130.158 106.254 130.98C106.234 131.803 105.997 132.606 105.565 133.308C104.582 134.267 103.431 133.876 102.347 133.598C98.9948 132.716 95.6424 131.802 92.2901 130.709C91.6465 130.461 90.9457 130.401 90.2691 130.535C89.5926 130.669 88.9681 130.993 88.4684 131.467C87.0157 132.728 85.753 134.3 83.8086 134.958Z" fill="#FEC663"/>
<path d="M145.683 95.1285C145.425 95.0971 145.164 95.1196 144.916 95.1945C144.668 95.2694 144.438 95.395 144.241 95.5635C142.276 96.719 140.051 97.3633 137.771 97.4373C136.966 97.2477 136.307 98.0842 135.48 97.7496C133.771 96.5562 133.782 95.0616 134.586 93.2882C135.793 90.6002 136.564 87.7114 137.816 85.0457C138.302 84.2039 138.5 83.2265 138.379 82.2621C138.258 81.2978 137.825 80.3993 137.145 79.7032C136.821 79.324 136.542 78.9001 136.218 78.5097C136.097 78.3627 135.989 78.206 135.894 78.0413C134.847 76.1998 133.678 74.43 132.396 72.7434C131.501 71.4601 131.074 69.9085 131.189 68.3489C131.614 67.4343 132.441 67.4454 133.29 67.4008C136.888 67.2224 140.464 67.78 144.062 67.8581C144.748 67.9069 145.435 67.7774 146.056 67.4822C146.677 67.1871 147.21 66.7363 147.605 66.1739C149.549 63.6755 151.471 61.1771 153.438 58.701C153.936 57.9621 154.623 57.3692 155.427 56.9834C155.819 56.8089 156.245 56.7207 156.674 56.7247C157.104 56.7288 157.528 56.8251 157.917 57.0071C158.306 57.1891 158.651 57.4525 158.929 57.7794C159.207 58.1063 159.411 58.4891 159.528 58.9018C160.534 61.7571 161.103 64.7463 161.908 67.6685C162.389 69.4084 162.657 71.3492 164.836 71.9515C168.032 73.223 171.362 74.1822 174.535 75.5094C176.77 76.4575 177.217 77.4948 176.48 79.5805C174.664 81.3449 172.514 82.7291 170.155 83.6515C169.451 83.6515 169.037 82.2796 168.009 83.3839C167.495 83.9081 166.791 82.5139 165.875 82.4023C165.428 83.1608 165.875 83.7742 166.244 84.3877C166.613 85.0011 167.026 85.4026 166.601 86.083C164.556 87.5441 164.758 89.8083 164.556 91.894C164.4 93.4555 164.556 95.0393 164.556 96.612C164.556 97.0246 164.556 97.4485 164.556 97.8612C164.467 99.7238 164.948 101.776 162.802 102.925C162.123 103.194 161.38 103.261 160.664 103.116C159.947 102.972 159.289 102.622 158.768 102.111C156.533 100.159 154.142 98.3742 151.907 96.4335C150.521 95.2289 149.169 94.1247 147.191 95.0951C146.677 95.3293 146.163 94.9055 145.683 95.1285Z" fill="#FEC663"/>
<path d="M199.298 25.2521C199.314 25.6076 199.226 25.96 199.046 26.2669C198.866 26.5737 198.6 26.8217 198.281 26.9809C196.426 28.2301 195.096 30.037 193.431 31.4424C193.023 31.791 192.726 32.2516 192.577 32.767C192.428 33.2824 192.434 33.8301 192.593 34.3423C192.984 36.4949 193.409 38.6587 193.588 40.8336C193.767 43.0086 192.683 43.4101 190.85 42.3951C189.017 41.3802 186.995 40.2425 185.084 39.1383C184.684 38.8866 184.221 38.7531 183.749 38.7531C183.276 38.7531 182.813 38.8866 182.413 39.1383C180.525 40.1421 178.58 41.0679 176.669 42.0271C176.315 42.2983 175.886 42.4571 175.44 42.4829C174.994 42.5088 174.55 42.4005 174.166 42.1721C173.239 41.5586 173.686 40.7667 173.831 39.9414C174.043 38.2615 174.341 36.5937 174.725 34.9446C175.074 34.0435 175.114 33.0526 174.839 32.1264C174.564 31.2002 173.99 30.391 173.205 29.8251C171.853 28.7097 170.691 27.3378 169.428 26.0886C168.926 25.5979 168.389 25.096 168.669 24.3041C168.802 23.9777 169.029 23.6979 169.322 23.4996C169.614 23.3012 169.958 23.1931 170.311 23.1887C172.546 22.8876 174.781 22.5641 177.016 22.4303C177.518 22.4436 178.012 22.3046 178.433 22.0318C178.854 21.759 179.182 21.3651 179.374 20.9022C180.424 18.8277 181.609 16.7866 182.637 14.712C183.005 14.0094 183.441 13.3513 184.302 13.3736C185.162 13.3959 185.52 14.1767 185.844 14.8682C186.537 16.1389 187.127 17.463 187.609 18.8277C188.526 22.0288 190.828 22.988 193.834 23.1776C195.264 23.2668 196.672 23.6795 198.091 23.8802C198.907 24.0252 199.343 24.4268 199.298 25.2521Z" fill="#D8D9D8"/>
<path d="M17.3092 125.421C17.1304 124.819 16.9628 124.217 16.784 123.615C16.3706 122.232 16.0353 121.094 13.9792 121.64C12.1913 122.109 10.4592 120.637 9.50941 118.506C8.60105 115.944 8.29518 113.208 8.61544 110.509C8.61544 109.516 9.23004 109.55 9.91169 109.829C11.1023 110.263 12.2698 110.758 13.4093 111.312C14.2362 111.747 14.4374 111.58 14.6609 110.732C16.0689 105.434 20.2481 102.579 24.4498 99.7014C25.4108 99.0433 25.5672 100.069 25.6901 100.538C26.9783 103.489 27.6294 106.677 27.601 109.896C27.5339 111.212 27.7909 111.513 29.1095 110.944C32.3837 109.528 32.0931 109.684 32.1714 113.175C32.3669 115.575 31.8084 117.977 30.5734 120.045C29.6906 121.362 28.5173 122.522 26.8523 122.153C24.9079 121.718 24.2821 122.644 23.9134 124.206C23.8128 124.641 23.6452 125.042 23.5111 125.466C23.4243 125.585 23.2995 125.671 23.1573 125.709C23.0151 125.748 22.864 125.737 22.7289 125.678C22.0137 124.708 22.7289 123.882 23.0194 123.057C23.31 122.232 23.6117 121.529 23.0194 120.748C22.4272 119.967 22.1143 119.153 21.0192 119.309C19.9241 119.465 19.9017 120.492 19.7453 121.328C19.4771 122.834 19.7453 124.473 18.6278 125.79C18.3983 125.883 18.1441 125.897 17.9054 125.831C17.6667 125.764 17.457 125.62 17.3092 125.421Z" fill="#8ECD99"/>
<path d="M59.2248 74.0711C61.5603 75.0526 62.3984 77.2387 63.3594 79.2798C64.1081 80.8636 64.6445 82.5478 65.3149 84.1762C65.5584 84.861 65.983 85.4672 66.5437 85.9306C67.1044 86.394 67.7803 86.6973 68.4997 86.8085C70.1647 87.1208 71.852 87.5892 73.4612 87.9238C73.897 88.0242 74.3775 88.0465 74.3328 88.6711C70.9804 89.5188 65.5161 88.2473 64.5439 85.325C64.3018 84.7116 64.018 84.1154 63.6946 83.5405C63.2113 84.9977 62.8378 86.489 62.5772 88.0019C62.1525 88.1134 62.2643 88.5038 62.1525 88.7826C62.0136 88.9136 61.8297 88.9866 61.6385 88.9866C61.4474 88.9866 61.2635 88.9136 61.1245 88.7826C59.6159 87.4665 57.7721 87.5446 55.9842 87.6004C54.9844 87.672 53.9883 87.4176 53.1459 86.8754C52.0852 85.6799 51.5077 84.1334 51.5256 82.5366C51.5256 82.0459 51.5256 81.6109 50.8663 82.124C48.6984 83.0385 46.8546 84.5108 44.7203 85.47C43.55 85.4616 42.3829 85.3458 41.2338 85.1243C40.5633 84.9123 40.1946 85.3027 39.7811 85.6596C38.9542 84.2766 39.7141 83.2505 40.5969 82.3136C42.5933 80.3072 44.848 78.5744 47.3016 77.1606C47.981 76.8422 48.507 76.269 48.7655 75.5657C50.464 75.1418 51.5926 73.5134 53.4252 73.335C53.9848 73.5971 54.4806 73.9777 54.8779 74.4503C55.6937 75.2757 56.4424 75.3314 57.2022 74.4503C57.5244 74.3003 57.8913 74.2764 58.2303 74.3834C59.046 75.4764 58.8561 74.0599 59.2248 74.0711Z" fill="#16A4B0"/>
<path d="M49.5926 134.434C48.4751 135.081 47.3577 134.501 46.2402 134.624C46.3073 130.564 46.6872 126.515 47.1565 122.478C47.3865 119.723 48.1452 117.038 49.3915 114.57C50.5983 112.339 49.9949 109.874 50.6989 107.61C51.2576 108.056 51.0341 108.625 50.9447 109.171C51.3135 106.863 51.537 104.543 51.7493 102.212C51.8275 101.319 51.6599 100.293 52.6321 99.6908C53.2179 99.4943 53.8375 99.4184 54.4535 99.4677H55.2022C58.4093 99.7466 58.644 100.048 58.1858 103.182C57.2548 105.929 56.5777 108.755 56.1632 111.625C55.1463 117.603 53.202 123.347 51.5034 129.147C51.0453 130.988 50.8553 132.917 49.5926 134.434Z" fill="#57302F"/>
<path d="M164.746 72.3868C164.064 72.3179 163.426 72.0218 162.933 71.5463C162.441 71.0708 162.123 70.4436 162.031 69.7658C161.193 66.2189 160.12 62.7279 159.204 59.2033C158.936 58.1995 158.511 57.4522 157.438 57.2515C156.889 57.0929 156.305 57.1075 155.765 57.2932C155.225 57.4788 154.756 57.8266 154.421 58.2887C152.186 61.1998 149.951 64.044 147.716 66.9551C147.359 67.4965 146.853 67.9228 146.257 68.1822C145.662 68.4416 145.004 68.5229 144.364 68.4162C140.788 68.0704 137.19 68.0146 133.592 67.8473C132.765 67.8473 131.916 67.7358 131.435 68.6392C130.91 70.7473 132.374 72.1415 133.323 73.6806C134.273 75.2198 135.391 76.614 136.341 78.1421C138.576 80.5512 139.481 83.0162 137.659 86.2284C136.441 88.3922 135.905 90.924 134.877 93.2217C134.493 93.8562 134.291 94.5831 134.291 95.3241C134.291 96.0651 134.493 96.792 134.877 97.4266C133.312 97.9842 132.318 97.3262 132.642 95.787C133.368 92.2848 134.296 88.8606 136.519 85.9161C137.726 84.3211 137.078 81.4547 135.76 79.7928C134.441 78.1309 132.005 77.1271 132.262 74.4056C132.262 73.8145 131.837 73.4241 131.301 73.1118C130.855 72.8703 130.51 72.479 130.326 72.0073C130.141 71.5357 130.131 71.0142 130.295 70.5354C130.541 69.5538 129.804 68.6058 130.295 67.5127C130.787 66.4197 131.245 65.9066 132.228 66.3974C133.496 66.9448 134.907 67.07 136.251 66.7543C138.698 66.3416 141.067 66.8993 143.47 67.1558C144.422 67.2693 145.384 67.0649 146.207 66.5745C147.03 66.0841 147.667 65.3355 148.018 64.4455C149.497 61.8725 151.383 59.5559 153.605 57.5861C157.058 54.1396 157.829 54.7865 160.489 59.1141C162.098 61.7129 161.729 64.4455 162.511 67.0554C162.947 68.5054 164.333 69.0742 164.746 70.4015C164.858 70.725 165.495 70.5353 165.718 70.223C166.232 69.4981 167.406 68.8512 166.836 67.8585C165.372 65.3043 166.501 62.5606 166.009 59.9506C165.718 58.378 166.59 57.5861 168.244 57.7199C168.277 57.7502 168.304 57.7872 168.323 57.8286C168.341 57.8699 168.35 57.9145 168.35 57.9597C168.35 58.0049 168.341 58.0496 168.323 58.0909C168.304 58.1322 168.277 58.1692 168.244 58.1995C166.758 59.3149 167.037 60.5306 167.931 61.8244C168.063 62.6953 168.1 63.5778 168.043 64.4567C167.968 65.0776 168.03 65.7072 168.223 66.3022C168.416 66.8972 168.736 67.4433 169.16 67.9031C169.334 68.0426 169.477 68.2174 169.578 68.4159C169.679 68.6145 169.737 68.8322 169.747 69.0547C169.758 69.2772 169.721 69.4994 169.639 69.7066C169.557 69.9138 169.432 70.1012 169.272 70.2565C168.967 70.5002 168.599 70.6512 168.21 70.6915C166.747 70.6803 165.998 72.0188 164.746 72.3868Z" fill="#F1F8FC"/>
<path d="M83.8086 134.958C85.6555 133.249 87.5874 131.633 89.597 130.117C90.301 129.526 91.005 129.838 91.7313 130.05C95.3891 131.091 99.0246 132.144 102.638 133.207C103.088 133.426 103.587 133.531 104.088 133.511C104.589 133.492 105.077 133.349 105.51 133.095C105.92 132.613 106.174 132.018 106.237 131.389C106.301 130.759 106.172 130.125 105.867 129.571C104.493 126.225 103.286 122.756 101.855 119.399C101.54 118.788 101.413 118.099 101.488 117.416C101.564 116.734 101.839 116.089 102.28 115.562C104.392 112.684 106.336 109.662 108.359 106.717C109.734 104.732 109.689 104.319 108.169 102.423H102.079C102.167 102.167 102.318 101.937 102.517 101.754C102.717 101.57 102.959 101.439 103.222 101.373C103.485 101.307 103.76 101.307 104.023 101.373C104.286 101.44 104.528 101.57 104.727 101.754C105.787 102.218 106.983 102.27 108.08 101.899C109.734 101.609 110.851 102.401 110.817 104.029C110.756 105.279 110.61 106.524 110.382 107.754C110.382 107.933 110.203 108.223 110.113 108.223C107.946 108.223 107.879 110.331 107.208 111.435C105.7 113.867 102.738 115.785 103.632 119.332C103.733 119.756 103.632 120.369 103.867 120.592C106.538 122.912 105.554 126.693 107.521 129.392C108.974 131.378 108.437 132.504 106.314 133.854C105.331 134.478 105.733 134.88 106.314 135.404H86.0435C85.2708 135.478 84.4934 135.323 83.8086 134.958Z" fill="#F1F8FC"/>
<path d="M164.076 96.8019C163.983 93.9707 164.057 91.1365 164.299 88.3141C164.378 86.7303 165.83 86.4626 166.691 85.6149C167.886 85.2691 168.412 86.2507 169.138 86.8418C169.618 87.3995 170.367 87.2879 170.971 87.5445C173.462 89.1394 175.675 91.1136 178.066 92.8424C178.513 93.177 179.05 93.4447 179.184 94.047C179.07 94.5425 179.129 95.0619 179.351 95.5193C179.865 96.8019 179.351 97.2592 178.078 97.2257C177.39 97.5813 176.614 97.7323 175.843 97.6607C172.814 97.6607 169.797 97.6607 166.78 97.6607C166.294 97.7237 165.8 97.6794 165.332 97.531C164.865 97.3826 164.436 97.1337 164.076 96.8019Z" fill="#C7354B"/>
<path d="M17.3096 125.421H18.997C19.5489 125.08 20.1856 124.898 20.8352 124.898C21.4848 124.898 22.1214 125.08 22.6734 125.421H23.5562C27.2997 125.633 27.3667 125.644 26.9086 129.426C26.6739 131.266 26.1487 133.073 25.7911 134.891C24.9977 135.883 24.7519 137.4 23.1539 137.601C22.5389 137.078 21.9741 136.5 21.4666 135.872C20.7006 134.714 19.6134 133.803 18.3377 133.251C15.4882 132.136 14.002 129.905 13.2756 127.016C13.041 125.901 13.2756 125.366 14.583 125.466C15.4211 125.533 16.371 125.433 17.3096 125.421Z" fill="#21997A"/>
<path d="M53.1126 86.4512C54.3754 87.1204 55.7275 86.8973 57.0908 86.9196C58.9457 86.8776 60.75 87.5256 62.1528 88.7376C62.9686 90.9684 63.7396 93.3218 64.6224 95.5859C64.9465 96.4001 65.0359 97.0024 64.1419 97.4374C62.4504 98.089 60.6464 98.3998 58.834 98.352C57.1467 98.352 55.4816 98.352 53.7719 98.4189C52.6959 97.9012 51.7578 97.1368 51.0342 96.1882C51.5259 94.0579 52.3975 92.0503 52.7886 89.8753C52.9897 88.7377 52.1963 87.5108 53.1126 86.4512Z" fill="#1798A7"/>
<path d="M164.075 96.8018C168.053 97.2479 172.054 97.0471 176.054 97.1252C176.736 97.1252 177.418 97.1921 178.11 97.2256C178.312 101.174 178.58 105.122 178.479 109.082C178.569 109.495 178.837 110.119 178.356 110.197C177.664 110.376 177.663 109.617 177.596 109.182C177.217 106.494 176.323 103.918 175.864 101.241C175.529 99.289 172.411 98.1736 170.836 99.3671C170.333 99.7351 170.4 100.237 170.501 100.728C170.757 101.578 170.803 102.477 170.635 103.349C169.852 107.688 168.512 111.971 168.4 116.376C168.157 121.226 167.408 126.037 166.165 130.731C166.043 131.478 165.793 132.198 165.427 132.861C164.31 134.055 163.103 132.861 161.941 132.861C161.69 132.785 161.466 132.64 161.295 132.443C161.123 132.246 161.01 132.004 160.969 131.746C161.419 130.488 161.624 129.155 161.572 127.82C164.254 127.82 164.288 127.82 164.723 124.998C165.296 121.86 165.636 118.683 165.74 115.495C165.74 111.636 166.601 107.877 167.014 104.074C167.092 103.315 167.193 102.579 167.238 101.843C167.314 101.503 167.321 101.151 167.259 100.808C167.196 100.465 167.065 100.138 166.873 99.8464C166.681 99.555 166.433 99.3051 166.142 99.1116C165.851 98.9182 165.525 98.785 165.182 98.7202C164.935 98.6773 164.703 98.5731 164.508 98.4171C164.313 98.2611 164.16 98.0585 164.064 97.8279L164.075 96.8018Z" fill="#412020"/>
<path d="M170.154 103.282C170.39 102.366 170.291 101.398 169.875 100.549C169.439 99.2885 169.987 98.7197 171.127 98.6305C172.266 98.5412 173.641 98.6305 174.904 98.6305C175.529 98.6305 176.021 98.8759 176.11 99.5674C176.502 103.081 177.876 106.405 178.178 110.152C178.323 109.684 178.401 109.405 178.479 109.115C178.731 110.016 178.731 110.969 178.479 111.87C178.032 112.461 178.245 113.186 178.099 113.844C177.585 116.075 175.987 116.788 174.077 115.483C173.683 115.172 173.264 114.892 172.825 114.647C172.065 113.911 172.199 112.896 171.987 111.992C171.305 109.081 170.657 106.193 170.154 103.282Z" fill="#633A38"/>
<path d="M173.06 114.603C173.463 114.012 173.664 114.391 174.01 114.737C175.608 116.332 176.916 115.975 177.709 113.867C177.966 113.198 177.821 112.372 178.458 111.837C178.659 118.696 178.826 125.556 179.095 132.404C179.095 133.408 178.167 133.519 177.977 134.2C177.072 133.609 176.189 132.984 175.262 134.2C175.105 134.423 174.703 134.2 174.457 133.954C174.211 133.708 174.02 133.413 173.895 133.088C173.77 132.764 173.714 132.417 173.731 132.069C173.731 127.787 172.87 123.593 172.613 119.332C172.513 117.793 172.088 116.12 173.06 114.603Z" fill="#532D2D"/>
<path d="M164.053 97.8281C168.177 99.2335 168.255 99.6908 167.596 104.074C166.847 107.885 166.399 111.748 166.255 115.629C164.735 116.666 163.528 115.953 162.243 114.782C162.243 116.198 162.299 117.492 162.243 118.763C162.243 119.455 162.444 120.325 161.416 120.593C161.316 120.503 161.17 120.425 161.159 120.314C160.696 117.38 160.696 114.392 161.159 111.458C161.181 110.548 161.378 109.65 161.74 108.814L161.819 107.844C162.053 107.119 162.053 106.338 161.819 105.613C161.668 105.112 161.642 104.582 161.743 104.069C161.845 103.556 162.07 103.075 162.4 102.669C164.489 101.631 163.774 99.5569 164.053 97.8281Z" fill="#643839"/>
<path d="M164.746 72.3865C165.474 71.3167 166.579 70.56 167.841 70.2673C168.601 71.1038 167.841 73.078 169.741 73.0334C171.641 72.9888 173.384 72.643 174.446 70.8027L174.613 70.4681C174.71 70.3153 174.84 70.1858 174.993 70.0889C175.652 70.2785 176.323 70.4458 176.982 70.6577C177.946 70.8769 178.821 71.3838 179.49 72.111C180.158 72.8381 180.589 73.7512 180.726 74.7287C181.039 76.6472 181.407 78.5433 181.754 80.4617C179.742 81.7778 177.887 81.577 176.111 79.6586C176.826 77.5506 176.435 76.7364 174.3 75.9556L164.746 72.3865Z" fill="#D8566D"/>
<path d="M53.515 73.6131C52.2747 74.3157 51.0231 75.0296 49.7716 75.7211C49.4475 75.8884 49.034 76.3791 48.8105 75.5984C48.9016 74.2056 49.4835 72.8899 50.4532 71.8843C51.8165 70.5793 51.8388 68.8059 51.8388 67.1328C51.8388 64.7237 52.4534 62.7941 54.8113 61.7345C57.1691 60.6749 59.1135 61.623 60.9461 62.9614C62.7787 64.2998 62.5217 64.8798 60.6332 65.8502C59.9292 66.6421 59.1358 66.0398 58.3983 65.9283C57.3814 65.761 56.7221 65.9283 56.4539 67.0436C56.2416 67.9471 55.8393 68.739 54.6101 67.9248C54.7219 68.739 55.3365 69.0401 55.5823 69.4862C55.7894 70.0143 55.8586 70.5861 55.7835 71.1481C55.7582 71.6333 55.5954 72.1013 55.3141 72.4977C54.7554 72.9885 54.3978 73.6911 53.515 73.6131Z" fill="#312238"/>
<path d="M44.754 85.3805C46.4847 83.8087 48.5355 82.6292 50.7659 81.9229C52.0682 83.9757 52.6208 86.4144 52.3303 88.8269C52.0467 91.0605 51.5871 93.2683 50.9558 95.4298C50.9422 95.9052 50.8155 96.3706 50.5863 96.7875C50.357 97.2045 50.0317 97.561 49.6372 97.8278C48.6874 96.7125 47.1006 96.099 46.6313 94.4818C46.6251 94.2926 46.6645 94.1047 46.7462 93.9339C46.8278 93.7631 46.9494 93.6144 47.1006 93.5002C47.9834 92.8087 47.704 92.1618 47.1565 91.4368C46.287 90.1398 45.5103 88.7831 44.8322 87.3769C44.4634 86.7635 44.0611 86.0831 44.754 85.3805Z" fill="#FCFEFF"/>
<path d="M168.936 70.1447C169.249 69.587 169.663 68.8398 169.026 68.4494C167.081 67.2225 167.417 65.3487 167.417 63.553C167.417 62.8615 167.417 62.1699 167.417 61.4784C169.16 60.9765 170.981 61.4784 172.747 61.1104C172.97 61.1104 172.68 61.1104 172.926 61.1104C174.043 61.3223 174.043 62.2257 174.144 63.1068C174.971 62.6718 175.775 62.3038 176.066 63.6868C176.323 65.3264 174.758 66.1295 174.233 67.4456C173.708 68.7617 173.842 69.4197 174.948 70.0667V70.2674C174.409 71.0343 173.705 71.6709 172.887 72.1303C172.069 72.5896 171.158 72.8602 170.221 72.922C169.847 72.9875 169.462 72.9332 169.121 72.767C168.78 72.6007 168.5 72.3309 168.322 71.9962C168.185 71.6653 168.172 71.2964 168.285 70.9566C168.397 70.6168 168.629 70.3287 168.936 70.1447Z" fill="#F4C7A7"/>
<path d="M182.928 86.8414C183.531 88.5925 184.648 90.3436 182.928 92.1171C178.692 93.344 173.34 90.7117 171.362 86.4399C171.342 86.03 171.436 85.6226 171.633 85.2625C171.83 84.9024 172.123 84.6035 172.479 84.3988C174.077 84.5215 175.374 84.2873 175.362 82.235C175.351 82.1228 175.365 82.0093 175.404 81.9035C175.444 81.7976 175.507 81.7022 175.589 81.6246C175.671 81.547 175.77 81.4892 175.878 81.4558C175.986 81.4224 176.1 81.4143 176.212 81.432C176.648 81.432 176.782 81.8781 176.882 82.2462C176.98 82.5445 177.018 82.859 176.994 83.1719C176.804 84.9565 177.832 85.4026 179.374 85.5365C180.693 85.6257 182.145 85.4361 182.928 86.8414Z" fill="#CD3F56"/>
<path d="M53.526 98.1513L64.1418 97.4375V98.5529C63.9796 98.7456 63.7606 98.8822 63.516 98.9432C61.0241 99.6124 60.9682 99.7017 61.8733 102.055C62.7529 104.145 63.3649 106.337 63.6948 108.58C63.8177 109.528 63.963 110.465 62.9684 111.101C62.4808 111.537 62.0988 112.079 61.851 112.684C61.7273 112.704 61.6007 112.683 61.4899 112.624C61.3792 112.566 61.2903 112.474 61.2364 112.361C59.9564 109.598 58.8371 106.764 57.884 103.873C57.8505 103.754 57.8451 103.628 57.8684 103.506C57.8916 103.384 57.9429 103.269 58.0181 103.17C57.9702 102.8 57.9702 102.425 58.0181 102.055C58.2975 100.605 57.7611 99.9359 56.2637 100.059C55.5876 100.158 54.8979 100.024 54.3082 99.6794C53.4813 99.434 52.9672 99.0325 53.526 98.1513Z" fill="#271212"/>
<path d="M182.927 86.8412C181.736 86.2724 180.424 86.0007 179.105 86.0493C176.658 85.9712 176.591 85.8151 176.513 83.2721C176.513 82.7701 176.77 82.1567 176.11 81.7329C175.261 82.6475 176.423 84.1755 175.317 84.7778C174.813 84.9593 174.277 85.038 173.741 85.0093C173.206 84.9806 172.681 84.8449 172.199 84.6105C171.704 84.6941 171.194 84.6159 170.747 84.3874C170.389 84.1643 169.964 84.0082 170.043 83.4617L176.11 79.6025C176.932 80.1463 177.865 80.5006 178.841 80.6395C179.817 80.7784 180.812 80.6985 181.754 80.4056L182.927 86.8412Z" fill="#D44C64"/>
<path d="M62.5776 87.9573C61.7395 86.6746 62.6782 85.5593 62.924 84.3882C63.0804 83.652 63.2816 82.9382 63.4939 82.0459C64.3879 82.9605 64.3879 84.1428 64.8907 85.0797C65.2257 85.8228 65.7362 86.4738 66.3784 86.9769C67.0207 87.48 67.7755 87.8203 68.5783 87.9684C70.4719 88.3819 72.397 88.6356 74.3332 88.7269C74.4673 91.1026 74.4673 91.1137 72.0983 91.0468C70.7126 91.0468 69.327 90.9241 67.9525 90.9464C66.8599 91.0415 65.7638 90.8075 64.8058 90.2747C63.8477 89.7418 63.0716 88.9347 62.5776 87.9573Z" fill="#0B7E8A"/>
<path d="M176.111 63.6981C174.993 62.7389 174.993 62.7389 173.876 64.1554C173.082 63.3746 174.367 62.0362 173.272 61.4674C172.401 61.0212 171.552 61.9804 170.579 61.9023C169.521 61.9189 168.466 61.776 167.45 61.4785C165.785 59.8947 165.83 59.6047 168.11 57.6417C169.755 56.9775 171.594 56.9775 173.239 57.6417C176.167 58.679 177.128 60.6754 176.111 63.6981Z" fill="#322339"/>
<path d="M44.754 85.3803C44.8099 87.4994 46.1173 89.1279 47.2571 90.6782C48.5086 92.3959 48.3745 93.4777 46.6313 94.515C43.6924 92.0947 40.9547 89.5071 39.7813 85.7149C39.7255 84.6553 39.8707 83.8745 41.1893 84.6776C42.2956 85.358 43.7148 84.4099 44.754 85.3803Z" fill="#1A99A8"/>
<path d="M55.3361 69.442C55.0975 69.3793 54.871 69.2775 54.6657 69.1409C54.1293 68.5944 53.4141 67.8359 54.0287 67.2113C54.878 66.3525 55.0456 67.8471 55.7384 68.0925C55.861 67.6542 55.9469 67.2065 55.9954 66.754C55.9954 65.3152 56.8559 65.1033 58.0516 65.3822C58.9008 65.5718 59.7724 65.7056 60.6329 65.8729C61.0584 67.1739 61.1882 68.5532 61.0128 69.9105C60.9011 71.0259 60.8675 72.1412 59.0684 71.9181C57.8281 71.7508 59.0684 72.7881 58.7667 73.1785C58.7667 73.7027 58.9008 74.2938 58.3868 74.6619H57.2693C56.733 73.6246 55.0344 73.7473 54.9003 72.3531L55.3697 71.2378C55.7384 70.8474 56.1631 71.0482 56.8559 71.1597C56.2437 70.6897 55.7277 70.1066 55.3361 69.442Z" fill="#F4CCAD"/>
<path d="M62.9687 111.1C63.8403 109.327 62.9687 107.631 62.6334 105.97C62.2344 104.511 61.7303 103.084 61.1249 101.698C60.2086 99.2217 60.6108 98.6194 63.2033 98.5859H64.1532C64.8981 102.304 65.6766 106.022 66.4886 109.739C65.3962 110.379 64.2076 110.838 62.9687 111.1Z" fill="#532E2D"/>
<path d="M196.672 125.879C197.186 126.247 197.186 126.872 197.376 127.385C197.595 128.238 198.005 129.031 198.573 129.705C199.142 130.379 199.856 130.916 200.661 131.277C203.006 132.192 204.939 133.924 206.103 136.151H200.404C199.588 136.017 199.287 135.226 198.638 134.824C197.066 132.12 196.378 128.992 196.672 125.879Z" fill="#238064"/>
<path d="M162.366 102.724C162.29 104.444 162.084 106.155 161.751 107.844C162.266 104.988 159.762 103.918 158.187 102.68C155.952 100.94 153.717 99.2331 151.37 97.5824C149.873 96.467 148.867 95.1174 146.778 95.7867C146.509 95.8647 146.051 95.3628 145.66 95.1286C148.174 93.6786 150.253 94.1025 152.365 96.1882C154.477 98.2739 156.924 99.9692 159.17 101.899C159.619 102.245 160.134 102.497 160.683 102.639C161.233 102.781 161.805 102.81 162.366 102.724Z" fill="#F1F8FC"/>
<path d="M161.316 131.902L161.986 132.705C162.97 133.13 163.841 133.775 164.534 134.59C164.583 134.718 164.59 134.859 164.554 134.991C164.518 135.123 164.44 135.241 164.333 135.326C164.155 135.853 163.795 136.298 163.319 136.584C162.842 136.87 162.278 136.978 161.729 136.888C159.427 136.754 157.114 136.888 154.801 136.788C154.209 136.788 153.36 136.788 154.175 135.828C154.511 135.126 155.293 135.828 155.695 135.371L157.539 134.535C158.679 133.442 159.461 131.925 161.316 131.902Z" fill="#131414"/>
<path d="M161.316 131.902C159.886 132.527 159.025 133.988 157.539 134.535C157.668 133.911 157.936 133.325 158.323 132.819C158.709 132.313 159.206 131.901 159.774 131.612C160.332 131.318 160.786 130.859 161.074 130.299C161.362 129.738 161.47 129.102 161.383 128.478C161.283 126.716 161.383 124.954 161.383 123.18C161.464 122.746 161.439 122.298 161.311 121.875C161.182 121.452 160.954 121.066 160.646 120.749C160.437 120.549 160.29 120.293 160.223 120.013C160.155 119.732 160.17 119.438 160.266 119.165C160.791 117.102 160.322 115.06 160.266 113.008C160.21 111.436 161.148 110.186 161.741 108.814C161.389 112.759 161.389 116.726 161.741 120.671C162.233 121.788 162.495 122.993 162.511 124.214C162.526 125.435 162.295 126.646 161.83 127.775L161.316 131.902Z" fill="#F1F8FC"/>
<path d="M155.695 135.37C155.292 135.883 154.7 135.761 154.175 135.827C153.538 135.024 152.655 135.359 151.873 135.359C137.182 135.359 122.484 135.359 107.778 135.359C108.404 134.712 109.22 134.991 109.935 134.991C123.605 134.991 137.264 134.991 150.912 134.991C152.521 134.958 154.209 134.634 155.695 135.37Z" fill="#F1F8FC"/>
<path d="M175.105 134.233C175.575 133.742 175.385 132.76 176.424 132.693C177.463 132.627 177.541 133.675 177.966 134.199L179.184 135.315C179.899 136.53 179.91 137.322 178.145 137.211C177.195 137.144 176.245 137.211 175.306 137.211C174.77 137.211 174.088 137.545 173.709 136.999C173.329 136.452 174.144 135.939 174.256 135.359C174.368 134.779 174.457 134.322 175.105 134.233Z" fill="#1E1E1E"/>
<path d="M171.608 86.4736C173.47 89.0985 176.131 91.0542 179.195 92.0504C180.514 92.4519 181.743 91.5373 182.972 92.1731C182.576 92.8002 182.019 93.3099 181.359 93.6492C180.698 93.9886 179.959 94.1451 179.218 94.1027C176.185 92.232 173.361 90.0447 170.792 87.5778C170.725 86.9086 171.049 86.6075 171.608 86.4736Z" fill="#B12534"/>
<path d="M83.8756 91.4592C82.7582 91.5373 81.2161 90.7007 80.825 92.6861C80.825 92.6861 80.378 92.6192 80.1322 92.5857C79.3438 91.9512 78.3975 91.5426 77.3944 91.4034C76.3887 90.645 76.2769 89.8865 77.3944 89.1727C79.2717 89.1727 81.1826 89.0166 82.9146 90.0315C83.4957 90.3661 84.2667 90.5334 84.2109 91.448C84.1215 91.5596 84.0097 91.5707 83.8756 91.4592Z" fill="#F5C5A6"/>
<path d="M134.754 97.4153C134.262 96.9741 133.938 96.3768 133.836 95.7245C133.734 95.0722 133.861 94.4048 134.195 93.8351C135.503 90.7121 136.553 87.4664 137.928 84.3657C138.285 83.6716 138.416 82.8831 138.302 82.1109C138.188 81.3388 137.834 80.6217 137.291 80.0604C136.697 79.5729 136.3 78.8876 136.173 78.1309C139.034 80.3616 139.458 82.0123 138.173 85.2134C137.056 88.1244 136.006 91.1136 134.709 93.9689C133.994 95.5527 134.866 96.5565 135.424 97.75L134.754 97.4153Z" fill="#F7A23C"/>
<path d="M53.0904 99.6904C52.2634 100.293 52.3975 101.174 52.3081 102.044C52.0735 104.475 52.174 106.974 50.9002 109.227C50.9002 108.691 50.7996 108.111 50.7549 107.609L51.66 98.6865C52.5205 98.4858 53.0792 98.7088 53.0904 99.6904Z" fill="#301E1D"/>
<path d="M53.09 99.6906C52.7772 99.1329 52.1402 98.9991 51.6597 98.6645L49.6371 97.8279C49.5589 96.958 50.5758 96.523 50.5199 95.6642C51.1345 95.4188 50.9334 96.0991 51.1904 96.2553C52.129 96.6903 53.1683 97.0026 53.5258 98.1514C53.5654 98.7448 53.8196 99.3037 54.241 99.7241C53.8387 100.761 53.4811 99.5791 53.09 99.6906Z" fill="#F0C4A5"/>
<path d="M137.771 97.4373C139.862 96.6074 142.029 95.9799 144.241 95.5635C144.241 96.8684 143.659 97.3592 142.352 97.56C140.844 97.9551 139.255 97.9125 137.771 97.4373Z" fill="#F1F8FC"/>
<path d="M83.876 91.459H84.2225L92.9386 102.501C92.8963 102.568 92.8377 102.623 92.7683 102.661C92.699 102.699 92.6211 102.719 92.5419 102.719C92.4627 102.719 92.3848 102.699 92.3154 102.661C92.2461 102.623 92.1875 102.568 92.1452 102.501C89.3963 98.969 86.6548 95.4222 83.9207 91.8605C83.8775 91.7314 83.8622 91.5945 83.876 91.459Z" fill="#F7A543"/>
<path d="M77.4065 89.1171C77.1618 89.4376 77.0293 89.8295 77.0293 90.2325C77.0293 90.6354 77.1618 91.0273 77.4065 91.3478C76.4231 91.0578 74.7358 92.2066 74.7246 89.9313C74.7246 88.4367 75.1716 87.9348 76.5796 88.671L77.4065 89.1171Z" fill="#FCFEFF"/>
<path d="M58.3867 74.6621C58.4649 74.1602 58.2191 73.5468 58.7667 73.1787C59.1242 73.3683 59.1578 73.7252 59.2248 74.071C59.1242 74.4391 59.3813 74.9633 58.8672 75.1864C58.7778 75.1752 58.5543 74.8406 58.3867 74.6621Z" fill="#FCFEFF"/>
<path d="M57.9957 103.17C59.2696 106.338 60.5323 109.516 61.8062 112.684C61.7583 113.341 61.8978 113.999 62.2085 114.58C63.4265 116.699 63.2589 119.131 63.3259 121.373C63.6053 125.198 64.6462 128.929 66.3877 132.348C66.5442 132.693 66.7006 133.039 66.8347 133.385C66.9241 134.043 67.7399 134.612 67.047 135.348C61.6497 135.348 56.2636 135.348 50.8663 135.348C50.2741 135.348 49.3354 135.705 49.5924 134.444C50.8998 129.872 52.129 125.265 53.537 120.726C55.1573 115.495 55.7719 110.041 57.2134 104.787C57.3811 104.185 57.3364 103.505 57.9957 103.17Z" fill="#F0F9FE"/>
<path d="M175.105 134.233L174.256 135.349H164.333V134.602C163.83 133.754 164.333 133.386 165.025 133.085C167.26 125.958 167.719 118.585 168.579 111.224C168.892 108.558 169.629 105.937 170.166 103.305C171.127 103.974 170.948 105.112 171.171 106.026C171.898 108.87 172.445 111.759 173.071 114.626C173.066 118.955 173.41 123.278 174.099 127.553C174.307 128.918 174.404 130.298 174.39 131.679C174.283 132.591 174.54 133.509 175.105 134.233Z" fill="#F0F8FD"/>
<path d="M75.0478 136.854C74.9361 138.549 73.461 137.322 72.8129 137.891C71.5726 137.891 70.321 137.813 69.0806 137.891C67.5274 137.958 66.9128 137.244 67.1363 135.738C67.8007 134.839 68.5867 134.036 69.4717 133.352C71.4282 134.356 73.2939 135.528 75.0478 136.854Z" fill="#1B1B1B"/>
<path d="M47.6483 138.75C46.9555 138.404 45.6704 139.464 45.2122 138.003C45.0335 137.445 47.2795 135.259 47.9165 135.236C48.5534 135.214 50.3525 137.467 50.3861 138.114C50.4196 138.761 50.4196 138.705 47.6483 138.75Z" fill="#232323"/>
<path d="M69.4272 133.508C68.8461 134.422 68.3991 135.482 67.1923 135.738C67.1692 135.617 67.1355 135.497 67.0917 135.382C67.3152 134.701 66.5553 134.4 66.4883 133.831C67.0764 133.436 67.7437 133.173 68.4438 133.062C68.787 132.939 69.1622 132.939 69.5054 133.062C69.5405 133.135 69.5518 133.217 69.5377 133.297C69.5237 133.377 69.4851 133.451 69.4272 133.508Z" fill="#E7BC9F"/>
<path d="M206.439 123.916C205.097 124.174 203.72 124.193 202.371 123.971C202.595 122.053 202.863 120.135 203.053 118.216C203.131 117.402 203.5 117.212 204.26 117.179C204.754 117.174 205.242 117.287 205.684 117.508C206.126 117.729 206.509 118.051 206.802 118.449C207.094 118.846 207.288 119.308 207.366 119.795C207.445 120.282 207.407 120.781 207.254 121.25C206.791 122.069 206.513 122.978 206.439 123.916Z" fill="#FAFCFC"/>
<path d="M202.036 117.112L201.466 122.455C199.924 120.693 199.957 119.979 202.036 117.112Z" fill="#E8F3F0"/>
<path d="M69.4274 133.508L69.3604 133.062C68.0194 130.463 68.4888 127.575 68.12 124.82C67.863 122.946 67.2037 121.005 68.12 119.098C68.2988 118.707 68.5223 118.786 68.8575 118.953C72.601 120.838 75.6181 122.979 74.8582 128.043C74.4224 130.909 74.9476 133.91 75.037 136.854C72.7798 136.386 71.2824 134.646 69.4274 133.508Z" fill="#F0F8FC"/>
<path d="M68.1648 119.098C68.582 123.76 68.9917 128.415 69.394 133.062L68.6565 133.352C68.3492 133.258 68.0895 133.051 67.9301 132.772C65.6058 127.82 62.9016 122.991 62.991 117.269C62.991 116.655 62.801 115.997 63.4268 115.54C65.0471 116.622 67.1256 117.113 68.1648 119.098Z" fill="#4D2828"/>
<path d="M63.3933 115.539C62.7563 120.681 65.0247 125.098 66.9244 129.593C67.4608 130.864 68.0419 132.102 68.6229 133.352C67.9441 133.676 67.1959 133.829 66.4439 133.798C66.0193 132.827 65.6282 131.835 65.17 130.887C63.5046 127.365 62.6203 123.526 62.5775 119.633C62.5775 117.948 62.3093 116.287 62.1641 114.58L63.3933 115.539Z" fill="#2A1616"/>
<path d="M108.17 102.423C110.047 103.817 110.181 104.509 108.874 106.438C106.829 109.461 104.84 112.528 102.694 115.473C102.237 116.026 101.95 116.699 101.868 117.412C101.787 118.125 101.915 118.846 102.236 119.488C103.667 122.968 104.974 126.503 106.337 130.017C106.807 131.244 106.874 132.359 105.51 133.095C106.628 130.028 104.561 127.63 103.7 124.998C103.007 122.912 102.147 120.882 101.298 118.852C101.072 118.368 100.986 117.83 101.052 117.299C101.117 116.769 101.33 116.267 101.666 115.852C103.901 112.729 105.969 109.494 108.259 106.416C109.366 104.932 108.74 103.728 108.17 102.423Z" fill="#F7A23B"/>
<path d="M80.1884 102.791C80.4561 103.573 80.538 104.406 80.4278 105.225C80.3176 106.044 80.0183 106.826 79.5534 107.509C79.0885 108.193 78.4708 108.759 77.7491 109.164C77.0273 109.568 76.2213 109.8 75.3945 109.84C78.4452 108.189 80.2778 106.137 80.1884 102.791Z" fill="#FED693"/>
<path d="M170.043 83.462L170.858 84.12C170.925 85.57 169.953 86.3508 168.948 87.1427C168.334 86.4644 167.568 85.9407 166.713 85.6146C166.12 84.8227 165.226 84.1981 165.171 83.0939C165.171 82.6143 164.969 81.9786 165.472 81.6997C165.975 81.4209 166.355 81.934 166.746 82.2016C167.137 82.4693 167.439 83.1051 168.031 83.2055C168.847 82.8709 167.774 82.0901 168.422 81.7443C169.238 82.0232 169.439 82.9266 170.043 83.462Z" fill="#F5CCAC"/>
<path d="M136.239 78.1421C134.301 75.8836 132.573 73.4532 131.077 70.8811C130.849 70.5389 130.75 70.1271 130.797 69.7188C130.844 69.3105 131.034 68.932 131.334 68.6504C131.747 71.7176 133.792 73.9149 135.435 76.324C135.895 76.826 136.178 77.4646 136.239 78.1421Z" fill="#F7A542"/>
<path d="M163.405 74.8177C160.154 74.9293 158.477 72.587 158.846 68.6387C159.327 71.4494 160.321 73.8808 163.405 74.8177Z" fill="#FED590"/>
<path d="M22.651 125.444H18.9746C19.1199 123.771 19.1981 122.098 19.4216 120.414C19.6451 118.729 20.539 118.183 22.0923 118.685C22.9527 118.93 24.2043 121.473 23.8802 122.321C23.4668 123.347 23.0645 124.395 22.651 125.444Z" fill="#EFF8FB"/>
<path d="M18.0024 123.614C16.248 121.384 16.248 121.306 18.4829 118.127C18.7287 120.057 17.8124 121.774 18.0024 123.614Z" fill="#E7F3EF"/>
<path d="M51.191 96.2549L50.5205 95.6638C50.5934 94.2935 50.8917 92.9445 51.4033 91.6708C52.1829 88.4396 51.9806 85.0498 50.8222 81.9338C50.952 81.7195 51.1017 81.5179 51.2692 81.3315C51.5434 81.0996 51.8307 80.8836 52.1296 80.6846C51.8548 82.6668 52.2146 84.6851 53.1577 86.451C53.6567 89.8476 52.9617 93.3119 51.191 96.2549Z" fill="#137281"/>
<path d="M54.9564 72.3867C55.4738 72.9046 56.1108 73.2877 56.8114 73.5021C57.3477 73.7698 57.5601 74.0932 57.3254 74.6174C56.9343 76.3797 56.085 76.2012 55.0905 75.1528C54.5765 74.6286 54.0736 74.0374 53.5596 73.5578L54.9564 72.3867Z" fill="#F5F0E6"/>
<path d="M168.937 70.1445C169.037 70.8472 168.121 71.6503 168.937 72.2191C169.753 72.5538 170.668 72.5538 171.484 72.2191C172.881 71.9403 173.518 70.4011 174.937 70.1891C174.356 72.6541 170.803 74.3271 168.635 73.2006C167.227 72.4756 167.842 71.2487 167.786 70.1891L168.937 70.1445Z" fill="#C33646"/>
<path d="M168.948 87.1427L170.859 84.1201L172.2 84.6109C172.468 85.3693 171.697 85.8155 171.608 86.4735C171.34 86.8304 171.06 87.1762 170.792 87.522C170.01 88.1912 169.429 87.9012 168.948 87.1427Z" fill="#F6DECE"/>
<path d="M161.74 127.775C161.74 125.411 161.71 123.043 161.65 120.671V113.767L161.986 113.398C162.295 114.231 162.902 114.92 163.691 115.332C164.479 115.744 165.392 115.85 166.254 115.629C166.127 119.305 165.723 122.966 165.047 126.582C164.735 128.824 163.517 129.17 161.74 127.775Z" fill="#552D2E"/>
<path d="M165.015 133.062C164.796 133.25 164.621 133.483 164.501 133.745C164.381 134.006 164.32 134.291 164.322 134.579C163.417 134.111 162.366 133.821 161.986 132.705C163.148 131.913 163.931 133.542 165.015 133.062Z" fill="#E6C1A6"/>
<path d="M55.3359 69.4424L57.7832 71.3831C56.9451 72.1639 56.1964 71.3831 55.4253 71.3831C55.3918 70.6804 55.3695 70.0558 55.3359 69.4424Z" fill="#DF9B85"/>
</svg>
