<svg width="17" height="19" viewBox="0 0 17 19" fill="none" xmlns="http://www.w3.org/2000/svg">
<path d="M12.25 3.77539H15.5C15.6326 3.77539 15.7598 3.82862 15.8536 3.92338C15.9473 4.01813 16 4.14665 16 4.28065V16.7438C16 16.8778 15.9473 17.0063 15.8536 17.1011C15.7598 17.1958 15.6326 17.2491 15.5 17.2491H1.5C1.36739 17.2491 1.24021 17.1958 1.14645 17.1011C1.05268 17.0063 1 16.8778 1 16.7438V4.28065C1 4.14665 1.05268 4.01813 1.14645 3.92338C1.24021 3.82862 1.36739 3.77539 1.5 3.77539H4.75" stroke="#003762" stroke-width="1.875" stroke-linecap="round" stroke-linejoin="round"/>
<path d="M8.50036 6.30263L7.66702 4.19737M12.0662 4.89547L12.237 3.85968C12.2461 3.80448 12.2461 3.74815 12.237 3.69295L12.0654 2.65716C12.0005 2.26419 11.7999 1.90718 11.4992 1.64955C11.1985 1.39191 10.8171 1.25035 10.4229 1.25H6.57869C6.18416 1.24995 5.8024 1.39134 5.50134 1.649C5.20027 1.90667 4.99942 2.2639 4.93452 2.65716L4.76369 3.69295C4.75455 3.74814 4.75455 3.80449 4.76369 3.85968L4.93452 4.89547C4.99942 5.28873 5.20027 5.64596 5.50134 5.90363C5.8024 6.1613 6.18416 6.30268 6.57869 6.30263H10.422C10.8166 6.30268 11.1983 6.1613 11.4994 5.90363C11.8004 5.64596 12.0013 5.28873 12.0662 4.89547Z" stroke="#003762" stroke-width="1.875" stroke-linecap="round" stroke-linejoin="round"/>
</svg>
