<svg id="Layer_1" data-name="Layer 1" xmlns="http://www.w3.org/2000/svg" width="405.53" height="406.09" viewBox="0 0 405.53 406.09"><defs><style>.cls-1{fill:#f3f4f4;}.cls-2{fill:#edc61f;}.cls-3{fill:#ebebec;}.cls-4{fill:#324155;}.cls-5{fill:#3eba98;}.cls-6{fill:#f7f7f7;}</style></defs><path class="cls-1" d="M345.07,406.09c0-.68.24-1.43,1-1.45,1,0,.66.87.74,1.45Z"/><path class="cls-2" d="M10.08,188a13.77,13.77,0,0,0,.45-5.15.89.89,0,0,0,.12-1.1,9,9,0,0,0,.45-4,.91.91,0,0,0,.18-1.11,165.43,165.43,0,0,1,4-22,192.74,192.74,0,0,1,11.94-33.6,212.11,212.11,0,0,1,10.29-19.52A199.38,199.38,0,0,1,53.55,78.93c3.33-4.07,7.22-7.6,10.47-11.71l.85-.71a174.35,174.35,0,0,1,17.6-16,181.21,181.21,0,0,1,27-18.29,193.51,193.51,0,0,1,38.93-16.14c5.69-1.71,11.52-2.73,17.23-4.25a2,2,0,0,0,1.72-.39,5.59,5.59,0,0,0,3.06-.59l.06.11.07-.14a31.63,31.63,0,0,0,7-1,.81.81,0,0,0,1.09-.19,10.12,10.12,0,0,0,4-.45.75.75,0,0,0,1.09-.12c7.72-.38,15.41-1.08,23.15-.86l10.44.3a1.61,1.61,0,0,0,1.65.14,12.33,12.33,0,0,0,4.6.42.76.76,0,0,0,1.09.12,10.72,10.72,0,0,0,4,.45.8.8,0,0,0,1.09.19,5.36,5.36,0,0,0,2.88.38.9.9,0,0,0,1.09.19,5.76,5.76,0,0,0,3,.45l.07.14.06-.11c8.84,2,17.71,3.84,26.35,6.67a192.49,192.49,0,0,1,93,65,188.57,188.57,0,0,1,38.59,87c6.38,38.29,2,75.4-13.76,111-16.18,36.5-41.37,65.31-75.18,86.47a188.53,188.53,0,0,1-76,27.32,208.23,208.23,0,0,1-47.54.64,182.39,182.39,0,0,1-36.09-7.25,197.6,197.6,0,0,1-37.84-16.16c-1-.54-1.85-1.18-2.78-1.78l-.8-.52A123.52,123.52,0,0,1,86.79,357.2c-.57-.45-1.08-1-1.62-1.48a2.78,2.78,0,0,0-1.88-1.26A195.47,195.47,0,0,1,51,322.18c-4-5-7.7-10.09-11.12-15.37A181.43,181.43,0,0,1,29.22,287.6a194.16,194.16,0,0,1-14.3-39.2,143.62,143.62,0,0,1-3.57-20.62,1,1,0,0,0-.23-1.11,11.29,11.29,0,0,0-.51-4.58.89.89,0,0,0-.1-1.09,13.83,13.83,0,0,0-.46-5.16,3.58,3.58,0,0,0-.13-2.78q0-10.83,0-21.67A5.07,5.07,0,0,0,10.08,188Zm344.11,118a60.75,60.75,0,0,0,5.8-8.68c2.28-3.88,4.91-7.59,6.34-11.93a48.64,48.64,0,0,0,5.9-12.6,20.66,20.66,0,0,0,3-7.39,91.58,91.58,0,0,0,4.87-14.89,119.32,119.32,0,0,0,4.55-21.72c2-10.26,2.15-20.63,2-31a175.2,175.2,0,0,0-8.45-51.26,181.17,181.17,0,0,0-51.15-79.73,179.45,179.45,0,0,0-55.41-34.77c-9.4-3.72-19-7-29-8.68a134.49,134.49,0,0,0-22.49-3.55c-3-.24-5.93-1-8.92-.17a88,88,0,0,0-17.1,0,12.56,12.56,0,0,0-2.5-.26,167.12,167.12,0,0,0-27.72,4.07,6,6,0,0,0-.85,0A183.86,183.86,0,0,0,34.55,131.9c-11,26.36-15.25,53.89-13.57,82.34.25,4.4.36,8.87,1.6,13.18.13,1.3.18,2.61.42,3.89,1.27,6.89,2.19,13.86,4.73,20.45a83.57,83.57,0,0,0,4.66,14.55,42.9,42.9,0,0,0,3.82,9.18c1.58,4.29,3.26,8.54,6,12.24,2.56,6.39,6.44,12,10.4,17.55a20.39,20.39,0,0,0,1.09,2A184,184,0,0,0,85,341.47a138.44,138.44,0,0,0,19.36,14.25c.38.28.73.6,1.13.85A180.31,180.31,0,0,0,164.68,381c7.84,1.71,15.74,3.16,23.81,3.28a120.73,120.73,0,0,0,28.37.13c1.13,0,2.27.12,3.38,0a183.41,183.41,0,0,0,36.91-7.2,172.62,172.62,0,0,0,45-20.94c.82-.46,1.67-.88,2.45-1.4a181.68,181.68,0,0,0,30.86-25.71A154,154,0,0,0,354.19,306.09Z"/><path class="cls-3" d="M10.08,188a5.07,5.07,0,0,1-.17,3.35C9.27,190.24,9.07,189.11,10.08,188Z"/><path class="cls-3" d="M83.29,354.46a2.78,2.78,0,0,1,1.88,1.26c-.26.55-.67,1-1.3.76C83,356.07,83.37,355.17,83.29,354.46Z"/><path class="cls-3" d="M9.92,213.06a3.58,3.58,0,0,1,.13,2.78A1.91,1.91,0,0,1,9.92,213.06Z"/><path class="cls-3" d="M219,8.63a1.61,1.61,0,0,1-1.65-.14C218,7.84,218.5,7.83,219,8.63Z"/><path class="cls-3" d="M183.75,9.05a.75.75,0,0,1-1.09.12C183,8.63,183.33,8.53,183.75,9.05Z"/><path class="cls-3" d="M224.68,9.17a.76.76,0,0,1-1.09-.12C224,8.53,224.37,8.63,224.68,9.17Z"/><path class="cls-3" d="M178.64,9.62a.81.81,0,0,1-1.09.19C177.82,9.2,178.16,9,178.64,9.62Z"/><path class="cls-3" d="M229.79,9.81a.8.8,0,0,1-1.09-.19C229.18,9,229.52,9.2,229.79,9.81Z"/><path class="cls-3" d="M233.76,10.38a.9.9,0,0,1-1.09-.19C233.16,9.57,233.5,9.77,233.76,10.38Z"/><path class="cls-3" d="M11.28,176.67a.91.91,0,0,1-.18,1.11C10.45,177.29,10.63,176.94,11.28,176.67Z"/><path class="cls-3" d="M10.65,181.79a.89.89,0,0,1-.12,1.1C9.91,182.45,10,182.09,10.65,181.79Z"/><path class="cls-3" d="M11.12,226.67a1,1,0,0,1,.23,1.11C10.67,227.53,10.42,227.2,11.12,226.67Z"/><path class="cls-3" d="M10.51,221a.89.89,0,0,1,.1,1.09C10,221.78,9.91,221.42,10.51,221Z"/><path class="cls-3" d="M167.38,11.45a2,2,0,0,1-1.72.39C166.15,11.31,166.77,11.43,167.38,11.45Z"/><path class="cls-3" d="M64.87,66.51l-.85.71A.81.81,0,0,1,64.87,66.51Z"/><polygon class="cls-3" points="170.57 10.83 170.5 10.97 170.44 10.86 170.57 10.83"/><polygon class="cls-3" points="236.9 10.86 236.84 10.97 236.77 10.83 236.9 10.86"/><path class="cls-3" d="M104.88,369.14l.8.52Z"/><path class="cls-1" d="M384.25,372.22c-.17.26-.28.58-.45.62-.47.12-.61-.27-.56-.62a.7.7,0,0,1,.46-.47C383.86,371.74,384,372,384.25,372.22Z"/><path class="cls-4" d="M163.94,23.53a167.12,167.12,0,0,1,27.72-4.07,12.39,12.39,0,0,1,2.49.26c-3.85,1.42-4.67,2.7-4,6.58a32.19,32.19,0,0,0,1.28,5.23c1.4,4,4,5.71,8.25,5.47a48.88,48.88,0,0,1,5.93,0c4.36.3,7-1.44,8.47-5.55a32.52,32.52,0,0,0,1.16-4.67c.85-4.28.12-5.53-4-7.07,3-.82,6-.07,8.92.17a134.76,134.76,0,0,1,22.5,3.55c2.13,7.87,6.19,14.47,13.28,18.71,12.7,7.59,26.5,12.5,40.85,15.76,18.58,4.22,34,13,44.29,29.5,7.41,11.92,11,25.17,11.73,39a201.6,201.6,0,0,0,13.24,62.7,372.5,372.5,0,0,0,18.58,39.79,119.32,119.32,0,0,1-4.55,21.72c-1.88-1.87-3.71-3.79-5.63-5.6a102.48,102.48,0,0,1-25.91-39.49,624.87,624.87,0,0,1-19.37-61.08,73.51,73.51,0,0,1-2.63-23.81,28.33,28.33,0,0,0-3-15.15c-1.49-2.85-3.8-4.24-7-3.73a23.48,23.48,0,0,0-14.27,7.51c-3.29,3.7-2.9,8.1.9,11.24a21.71,21.71,0,0,1,5.21,6.29A160.94,160.94,0,0,1,319.62,151c9.28,25.8,18.43,51.65,27.75,77.44a110.1,110.1,0,0,1,5.15,21.47c.66,4.4.55,8.5-1.6,12.64s.33,8.12,5.86,10.39c3.88,1.6,6.09.59,8-4,1.21-2.91,3.34-4,6.23-3.92a38.08,38.08,0,0,1,4.22.55,20.66,20.66,0,0,1-3,7.39c-2.68-1.71-4.79-.85-6.72,1.35-2.94,3.37-3.19,4.46-1.47,7.33q1.15,1.95,2.29,3.92c-1.43,4.34-4.06,8-6.34,11.93a60.75,60.75,0,0,1-5.8,8.68c-11-27.7-25.67-54-33.09-83.16-9,25.78-18.07,51.31-20,78.74-1.28,18.27-1.79,36.44,1.07,54.58a172.62,172.62,0,0,1-45,20.94,183.41,183.41,0,0,1-36.91,7.2c-1.11.1-2.25,0-3.38,0-.63-8.3-4.16-11.79-12.44-12.38a28.92,28.92,0,0,1-3.33-.56,9.1,9.1,0,0,0-10.38,5,20.88,20.88,0,0,0-2.22,7.84c-8.07-.12-16-1.57-23.81-3.28a180.31,180.31,0,0,1-59.21-24.39c-.4-.25-.75-.57-1.13-.85.19-1,.41-2,.56-3.05a202.44,202.44,0,0,0,1-45c-.85-10.92-1.82-21.84-4.27-32.55-3.73-16.32-9-32.2-14.43-48-.5-1.45-.68-3.11-1.9-4.36-1.41,4.67-2.68,9.21-4.14,13.68-5.5,16.83-12.55,33-20.16,49-3.08,6.47-5.59,13.21-8.36,19.83-4-5.56-7.84-11.16-10.4-17.55.79-1.17,1.59-2.33,2.36-3.5.62-.94,1.82-2,1.68-2.82a10.26,10.26,0,0,0-4.17-6.77c-2.19-1.56-4.1-.46-5.92.85a42.9,42.9,0,0,1-3.82-9.18c7.4-1.84,8.51-1.38,12.44,5.19a3.81,3.81,0,0,0,2.78,2.19c4,.48,6.86-1.67,9.35-4.4,2.25-2.44,1.47-5.06.21-7.65-1-1.95-2-3.86-1.83-6.16.54-8.14,1.55-16.22,4.16-24,7.21-21.41,14.59-42.76,21.8-64.17,4.55-13.53,8.88-27.14,15.73-39.76a26.33,26.33,0,0,1,5.94-7.84c3.72-3.19,3.82-7.59.53-11.28a18.67,18.67,0,0,0-7.75-5,1.08,1.08,0,0,0-1.1-.49,2.51,2.51,0,0,0-1.75-.64.9.9,0,0,0-1-.33l-.78-.2c-.24-.69.42-.82.73-1.16a3.45,3.45,0,0,0,2.32-.27,2,2,0,0,0,1.69-.3h5.59l.54.25.58.32.63.52a2.25,2.25,0,0,0,1.3,1.14l.36.31a11.17,11.17,0,0,0,3,2.53l.38.33c.61.91,1.73,1.43,2,2.6a2.26,2.26,0,0,0,.24,1.83,4.73,4.73,0,0,0,.23,2.66.32.32,0,0,0,.2.47c-.17,2.38-1.61,4.2-2.69,6.18l-.54.71a2.08,2.08,0,0,0-1.09,1.3l-.36.38c-3.69,3.68-4.33,8.54-1.65,12.57l.3.41.5.86-.1.08.17,0,.83,1.45.31.37.47.75c.39,1.91,1.22,1.91,2.38.55l.63-.42h.21l.1-.2.13-.07.62-.45.61-.36c.2,0,.31,0,.33-.25l.15-.09.57-.45.69-.43.2,0,.07-.21.14,0,0-.14.57-.43a35.47,35.47,0,0,0,6.3-4.74l.45-.39.65-.57.62-.53a6.93,6.93,0,0,0,2.76-2.42,1.55,1.55,0,0,0,.64-1.56v0c.06,0,.16-.08.16-.12a2.35,2.35,0,0,0,0-.37l.4-1.44.16-.08-.1-.09,1.75-2.27h.22l.05-.23h.17l0-.16c1.42-.44,1.27.28,1.08,1.29-.88,4.79.16,6.65,4.81,7.91,3.37.91,6.87,1.3,10.26,2.13,13.8,3.38,27.7,3.37,41.74,1.9,3.54-.36,2.77-2.17,2.81-4.33.05-2.56-1.26-2.61-3.22-2.49a152.88,152.88,0,0,1-19.85,0c-8.31-.59-16.69-1.12-23.71-6.48-.92-.7-2.53-1.21-2.18-2.61.28-1.09,1.85-.57,2.78-1,.65-.27,1.5.1,2-.61-4.08-3.19-5.75-3.33-9.83-.82a15,15,0,0,0-3.92,3.23c-.26.32-.56,1.19-1.17.27l.12-3.33a3.09,3.09,0,0,0,.51-2.34.38.38,0,0,0,.06-.51l.3-1.71a5.75,5.75,0,0,0,0-2.94,1.92,1.92,0,0,0-.35-1.71l-.26-1.13-.33-.49a2.38,2.38,0,0,0-2-1.82l-.8-.26a12.34,12.34,0,0,0-8.06.66l-.55.23c-2.47,1.64-4.12.58-5.55-1.59a29.52,29.52,0,0,0-2.53-3l-.39-.54-.26-.61-.32-.47-.31-.68-.27-.37-.5-.9.11-.07-.17,0a6.09,6.09,0,0,0-1.42-2.6l-.28-.45-.4-.73,0-.22-.21-.12-.62-.68-.46-.38a23.31,23.31,0,0,0-5.06-3.64c-.63-.87-1.27-1.14-1.92,0l-1.55,1.35-.44.42a7.16,7.16,0,0,0-3,2.9l-.27.43-.3.71-.28.43-.84,1.89-.49,1c-.76,1.43-2.25,2.62-1.47,4.55l.45,1.63a3.85,3.85,0,0,0-3.17-.11.68.68,0,0,0-1,.21c-3.3.78-4.17,3.64-5.07,6.28-2,5.84-1.93,11.9-1.44,18a24.45,24.45,0,0,1-.08,6.78,462.57,462.57,0,0,1-22.26,76.67c-3.19,8.3-6.63,16.51-12.45,23.43-5.48,6.52-11.13,12.88-17.14,18.91-2.55-6.59-3.47-13.56-4.74-20.45-.24-1.28-.29-2.59-.42-3.89,5.33-9.6,10-19.51,14.34-29.58,8.26-19.13,14-38.93,15.83-59.78.84-9.59,1.29-19.22,3.67-28.64,6.91-27.32,23.82-44.51,51.33-51a180.28,180.28,0,0,0,38.64-13.78A32.29,32.29,0,0,0,163.94,23.53Zm74.18,68.92c-1.83.43-3.65,1-5.5,1.25-4.05.58-7.48-.3-10.47-3.53-6.41-6.91-7.61-6.9-15.52-1.52-3.91,2.66-3.91,2.66-7.77.07-8.12-5.45-9.21-5.38-16,1.82a9.84,9.84,0,0,1-8.32,3.39c-2.11-.15-4.21-.45-6.31-.68,6.44,3.61,12.93,7.06,20.05,8.81,3.3.81,4.63,2.56,5,5.55a18.32,18.32,0,0,1,.13,3.39c-.07,1.23.37,1.7,1.6,1.69q7.65-.06,15.31,0c1.37,0,1.53-.62,1.41-1.76a13.74,13.74,0,0,1,.64-5.32,4.31,4.31,0,0,1,3.26-3.21c7.45-1.71,14.12-5.32,20.93-8.55.58-.28,1.59-.3,1.46-1.4l.62,0ZM107.6,217.09a23.5,23.5,0,0,1-3-2.11c-1.61-1.55-2.38-1.21-3,.85a47.1,47.1,0,0,0-2.25,18.47c1,10.58,6.29,17.76,16.69,20.93a64.41,64.41,0,0,0,17,2.64c3.38.1,3.68.27,2.81,3.55a66,66,0,0,1-14,26.64c-1.08,1.25-2.51,3.05-4.18,2.41-1.91-.73-.91-3-1-4.6a9.41,9.41,0,0,1,.26-2,129.32,129.32,0,0,1,5.24-19.43c1.54-4.68,1.48-4.49-3.14-6.1-2.48-.86-3.55-.12-4.59,2-3.83,7.8-4.07,16-3.1,24.41.47,4.07,1.4,8,4,11.37s5.46,3.95,9,1.21a29.22,29.22,0,0,0,6.7-8c3.32-5.4,6.76-10.72,10.5-15.84C156.1,253.63,172.13,235,187.81,216c5.19-6.27,5.85-13,2.13-20-.94-1.78-1.63-2-3.24-.64-6.41,5.31-12.95,10.47-19.1,16.08-.77.7-1.57,1.53-2.73,1.15-1-.32-1.07-1.28-1.09-2.13-.2-6.17,1.1-11.61,6.9-15.13A64.71,64.71,0,0,1,184,189c1.38-.46,2.13-1,1.56-2.63-.47-1.33-1-2.11-2.66-1.71-6,1.48-12.07,2.48-17.75,4.9a25.78,25.78,0,0,1-10.47,2.13c-7-.06-14-.13-21-.48a29,29,0,0,1-20.61-9.44c-3.08-3.34-2.59-6.22,1.23-8.64,1-.62,2.37-.65,3-1.95-2.23-.54-4.18-1.52-6.43-1.56-1.64,0-2.61.42-3.24,2-.87,2.19-1.93,4.32-3,6.42a5.76,5.76,0,0,0,.27,6.18c2,3,3.84,6.11,6.36,8.68,5.36,5.5,11.71,8.84,19.64,8.66a78.22,78.22,0,0,0,19.31-2.88c2-.56,3.26-.05,4.16,1.77,4.37,8.85-.71,18.59-10.51,20.12-4.39.68-8.68,0-13-.8-9-1.62-16.69-5.3-22.09-13.05-2.39-3.43-3-6.85-1.17-10.66.31-.66,1.42-1.39.33-2.18s-1.93,0-2.69.77c-3.23,3.36-3.73,7.3-2.39,11.58a46.37,46.37,0,0,0,5.23,10.35Zm195.21-3.68a37,37,0,0,1-3.75,2.85c-2.22,1.26-2.23,2.44-.84,4.58,5.42,8.34,3.48,16.18-5.16,21.13a36.82,36.82,0,0,1-24.35,4.52c-3.3-.49-6.51-1.4-9.06-3.72-3.36-3.06-2.6-7,1.62-8.61a50.5,50.5,0,0,1,11.93-2.45c13.35-1.59,26.67-13.62,29.61-26.81a10.6,10.6,0,0,0-3.14-10.62,1.73,1.73,0,0,0-2.3-.38c-1,.69-.13,1.34.15,1.93,2,4.09,1.37,7.76-1.34,11.38-8.33,11.15-20.29,13.39-33,13.55a13.79,13.79,0,0,1-12.56-19.49c1-2.29,2.12-3.32,4.73-2.55a79.36,79.36,0,0,0,16.77,2.75c10.62.74,18.7-3.73,24.71-12.21,5.81-8.2,6.15-6.72,1.38-16.39-1.66-3.36-2.55-3.89-6.1-2.9-1.34.38-2.85.54-4.14,1.64l1.91,1c5.44,2.94,5.87,6,1.45,10.39a26.25,26.25,0,0,1-16,7.88,169.1,169.1,0,0,1-27.19.75,15.32,15.32,0,0,1-5.55-1c-6.34-2.9-13.17-4.08-19.83-5.83-1.64-.43-2.45.07-3,1.62-.63,1.85.43,2.27,1.83,2.73a70.64,70.64,0,0,1,12.09,5.56c5.58,3.1,7.81,8,8,14,0,1.37.4,3.09-1.19,3.78s-2.4-.76-3.35-1.62c-6-5.5-12.41-10.53-18.68-15.7-1.34-1.1-1.93-1.22-2.86.47-4.07,7.4-3.41,13.89,2.43,20.94,16,19.32,32.4,38.28,47,58.7,4.39,6.15,8.14,12.78,12.73,18.77,5.88,7.66,11.67,6.63,14.65-2.58a42.38,42.38,0,0,0-.43-28.41c-2.16-5.8-2.85-6-8.61-3.85-1.45.53-1.59,1.21-1.16,2.54,1.46,4.49,2.88,9,4.19,13.54a57.25,57.25,0,0,1,2.38,11.95c.07,1.12.26,2.49-.85,3.11-1.29.72-2.26-.47-3.24-1.15a5,5,0,0,1-.84-.76,64.82,64.82,0,0,1-14.53-27.87c-.53-2.2.18-2.76,2.37-2.76a54.31,54.31,0,0,0,20-3.45c6.53-2.59,11.13-7,13.07-13.94C307.31,231.31,306.08,222.48,302.81,213.41Zm-99.57,18.47A47.67,47.67,0,0,1,210,216.09c2.38-3.8,2.71-7,1.09-10.85-.51-1.22-.92-2.48-1.35-3.73-1.71-4.95-1.31-6.15,3.19-8.78,2.67-1.55,4.34-3.72,4.31-6.83a60.41,60.41,0,0,1,1.66-13.47c.84-3.85.22-7.2-2.86-10.07s-3.71-7-1.53-10.4c2.65-4.11,1.54-7.71.21-11.55-.75-2.15-1.76-4.25-1.38-6.58.76-4.73.23-9.42,0-14.14-.14-2.4-1.26-3.73-3.37-3.6a118.19,118.19,0,0,1-14.21,0c-1.84-.12-2.94,1-3,3.24-.13,3.77-.57,7.56-.24,11.33a21,21,0,0,1-1.86,10.71c-1.43,3.27-2.25,6.56.17,10.18s1.63,7.83-1.72,11.11c-2.87,2.81-3.34,6-2.64,9.6s1.82,7.39,1.63,11.19c-.23,4.67,1.37,8,5.73,10.07,2.58,1.21,3.39,3.47,2.53,6.19s-1.81,5.18-2.64,7.79c-.61,1.92-1,3.94.23,5.74C197.76,218.8,200.53,224.91,203.24,231.88Zm71.22-122.34c1.27,3.68-.19,8.93,4.07,12.49.62.52.72,1.7,1,2.6a6.23,6.23,0,0,0,1.76,3.16A125.81,125.81,0,0,0,296.21,139c.51.33,1.17,1.07,1.64.14,1.61-3.23,4.49-5.83,4.62-9.83.15-4.35-2.63-7-5-10.08-4.47-5.6-3.93-10.63,1.46-15.15a27.34,27.34,0,0,0,2.59-2.2A6.86,6.86,0,0,1,308,100c1.78.28,3.55.63,5.34.78q3.42.3,2.12-2.87c-.69-1.66-1.73-3.17-2.35-4.84-1.18-3.12-4-4.71-6.15-6.9-.8-.81-1.52-.35-2.26.17-3.33,2.33-6.7,4.56-8.26,8.64-1.2,3.13-3.44,5.61-5.59,8.14-1,1.16-1.71,1.67-3.22.67a12,12,0,0,0-6.52-1.64C276.23,102.06,274.39,103.92,274.46,109.54Zm15.1,38.77c1.15,6,.12,8.22-4.38,10.2-19.88,8.74-40.49,12-62,8.17-1.59-.29-2.34,0-2.19,1.73a14.19,14.19,0,0,1,0,2.84c-.22,1.86.49,2.65,2.4,2.92,14.2,2,28.43,2.81,42.67.68,8.77-1.32,17.12-3.78,24.28-9.45,4.07-3.22,4.59-7.38,3.91-12A6.2,6.2,0,0,0,289.56,148.31ZM116,148.45a5,5,0,0,0-3.72,2.65c-2.1,3.4-1.2,10.16,1.69,12.94,5.67,5.42,12.7,8.1,20.17,9.74,15.17,3.32,30.44,2.68,45.7.71,5.44-.7,5.36-.79,5.25-6,0-1.69-.52-2.09-2.15-1.8a104.5,104.5,0,0,1-61-7.59C116.21,156.56,115,154.71,116,148.45ZM188.36,298a31.93,31.93,0,0,0,0,3.39c.51,5,3.68,7.69,8.34,6.06a17.66,17.66,0,0,1,12.06.05c4.53,1.46,7.42-1,8.13-5.7a28.39,28.39,0,0,0-.39-9.86c-1.17-5.81-4.31-8.52-10.25-9.25-1.68-.21-3.37-.39-5-.72-4.66-.92-8.42.81-10.6,5.06A22.69,22.69,0,0,0,188.36,298Zm28.77,30.29h.11c-.19-2-.27-4-.6-5.91-1-6.06-4.48-9.26-10.6-10-1.68-.19-3.36-.4-5-.7-4.19-.76-7.8.68-9.9,4.36-3,5.32-3.5,11.12-2.33,17,.65,3.26,2.92,4.75,6.22,4.5a10.51,10.51,0,0,0,4.11-.92c2.46-1.32,4.57-1,7.12,0,6.82,2.66,10.56,0,10.88-7.22C217.14,329.09,217.13,328.71,217.13,328.33Zm0,29.69h.1c-.18-1.87-.26-3.77-.55-5.63-1-6.17-4.23-9.24-10.48-10-1.68-.21-3.37-.4-5-.72-4.55-.86-8.29.8-10.41,4.92-2.57,5-3,10.32-2.15,15.73.58,3.81,3,5.39,6.87,5.16a10.26,10.26,0,0,0,4.61-1.24c1.84-1.09,3.36-.8,5.25,0,7.73,3.31,11.75.54,11.8-7.89A2.81,2.81,0,0,0,217.12,358ZM271,132.75c1.16.34,2.36.59,3.48,1,1.8.69,4.43.86,4.54,3.18.1,2.07-2.25,2.91-4,3.61-15.89,6.54-32.09,10.66-49.41,6.38-6.23-1.54-6.13-1.34-8.46,4.57-1,2.64-.19,3,2.17,3,16.66.44,33.27-.09,49.73-2.92,6-1,11.95-2.14,17.2-5.41,4-2.49,4.4-5.73,1.23-9.17a30.68,30.68,0,0,0-9.55-6.51,1.63,1.63,0,0,0-2.05.31A7.08,7.08,0,0,1,271,132.75ZM204.37,280.24a26.71,26.71,0,0,0,9.48-1.49c1.43-.55,2.74-1.27,3-3.06.64-4.53.73-9.05-.73-13.45-1.72-5.16-5.35-7.13-10.62-5.59a10,10,0,0,1-6-.11c-5.05-1.5-8.26.43-9.55,5.53-1,4.1-.55,8.23-.1,12.38.27,2.58,1.61,3.84,3.89,4.56A34.43,34.43,0,0,0,204.37,280.24ZM169.7,154.57c5,0,9.45,0,13.9,0,5.67-.06,5.67-.1,3.62-5.5a3.46,3.46,0,0,1-.19-.54c-.48-2.45-1.72-3-4.19-2.27-18.13,5.44-35.35,1.62-52.18-5.48-1.82-.76-4.39-1.55-4.3-4,.07-2,2.52-2.21,4.13-2.91.49-.21,1.17-.22,1-1.06-.18-1.06-3-2.75-4.06-2.27-3.8,1.74-7.47,3.74-10.14,7.07-2.44,3-2,5.7,1.13,8a25.44,25.44,0,0,0,8.53,3.74C141.16,153.21,155.7,154,169.7,154.57ZM186,81.4c-3,.8-5.12,1.58-7.39,1.66-12.69.45-25.29-.87-37.88-2-7.81-.71-15.59-1.91-23.42-.25a18.8,18.8,0,0,0-5.83,2.12c-1.68,1-3.24,2.25-2.77,4.49s2.41,2.52,4.17,2.84a26.89,26.89,0,0,0,7.06.25c14.86-1.19,29.7-3.24,44.67-1.24a38.39,38.39,0,0,0,6.78.25A17.48,17.48,0,0,0,186,81.4Zm74.16,34.88c.9.19,1.82.36,2.72.56s1.95-.09,2.11,1c.13.91-.86,1.39-1.52,1.9A28.43,28.43,0,0,1,252,125.07c-10.56,2.25-21.23,2-31.91,1.68-3.8-.12-3.72-.13-4.19,3.7-.23,1.79,0,2.61,2.09,2.93,17.52,2.59,34.68.44,51.71-3.61a16,16,0,0,0,3.94-1.54,4.43,4.43,0,0,0,2.33-4.77c-.6-4.83-4.11-7.1-7.92-9.27C264.77,112.31,262.65,114.67,260.16,116.28Zm-40.29-34.2c-.09.35.36.63.64,1,4.9,6.07,11.59,7.19,18.73,6.33,15.14-1.83,30.19-.84,45.26.76a24.88,24.88,0,0,0,9.3-.28c1.35-.37,2.52-1,2.84-2.45s-.51-2.73-1.7-3.63a15,15,0,0,0-5.71-2.4c-6.05-1.5-12.18-1.28-18.33-.88C253.93,81.63,237,84.71,219.87,82.08ZM195.82,252.57c3.23-.13,6.58,1.7,10.28.53a11.39,11.39,0,0,1,9.11.59c1.35.74,1.89-.16,2.28-1.21a14.17,14.17,0,0,0,.53-7c-1-6.94-5.35-10.32-12.25-9.23a17.66,17.66,0,0,1-6.11,0c-3.85-.7-7.44-.11-9.87,3.3a14,14,0,0,0-1.79,13c.4,1.27,1.18,1.87,2.58,1A9.46,9.46,0,0,1,195.82,252.57ZM161.47,93.85c-3.89-2.81-7.49-3.93-11.89-1.49-3.63,2-7.55,3.54-10.7,6.32-3.81,3.37-3.57,6.73.68,9.43a23.39,23.39,0,0,0,5.09,2.45,197,197,0,0,0,31,8.06c4.09.65,8.24,1.31,12.39.25,1.61-.41,2.78-1.29,2.56-3.18-.2-1.7-1.06-2.5-3-2.7-6-.6-12-1.33-18-2.25-7.56-1.17-15.15-2.37-22.23-5.49-1.63-.72-3.51-1.43-3.52-3.63s1.56-3.34,3.27-4.29a18.23,18.23,0,0,1,5.31-1.9C155.32,94.87,158.2,94.42,161.47,93.85Zm82.34.1c2.43.33,4.38.55,6.31.89,3.17.55,6.34,1.22,9,3.1,3.32,2.33,3.15,5.08-.41,7a39.65,39.65,0,0,1-8.81,3.06c-10.47,2.65-21.17,3.89-31.88,5-2.08.21-3.19.92-3.29,3s1.43,2.73,3.07,3.08a25.4,25.4,0,0,0,8.74,0c11.76-1.54,23.09-4.83,34.3-8.57a22.44,22.44,0,0,0,4.83-2.34c4.3-2.69,4.58-6,.8-9.4-3.21-2.87-7.2-4.43-10.93-6.46C251.27,89.93,247.71,91,243.81,94Zm-40.68-53.5c-3.5,0-6.53-.41-9.47.56s-4,2.49-3.59,5.51a31.09,31.09,0,0,0,1.35,6.06c1.43,4.07,3.86,5.66,8.18,5.48a55.85,55.85,0,0,1,5.93,0c4.62.32,7.32-1.52,8.73-5.92a35,35,0,0,0,1.14-5c.6-3.56-.55-5.29-4-6.28C208.49,40.06,205.56,40.42,203.13,40.45Zm-.44,19.48c-3.11-.07-6.24-.31-9.31.46s-3.87,2-3.08,5.13c1.31,5.17,4,7.26,9.4,7a58.47,58.47,0,0,1,6.21,0c5.17.28,7.85-1.79,9.22-6.84.88-3.22.13-4.51-3.13-5.3C208.93,59.63,205.81,59.84,202.69,59.93Zm0,25.13a32.68,32.68,0,0,0,5.94-.45c2.85-.65,4.34-2.46,4.12-4.92a4.59,4.59,0,0,0-5-4.41c-3.38.12-6.74.1-10.12,0a4.64,4.64,0,0,0-5,4.69c-.11,2.39,1.46,4.16,4.41,4.66C198.93,84.94,200.83,84.92,202.71,85.06Z"/><path class="cls-5" d="M302.18,356.25c-2.86-18.14-2.35-36.31-1.07-54.58,1.92-27.43,11-53,20-78.74,7.42,29.2,22.06,55.46,33.09,83.16a154,154,0,0,1-18.7,23.05,181.68,181.68,0,0,1-30.86,25.71C303.85,355.37,303,355.79,302.18,356.25Z"/><path class="cls-5" d="M52.66,305.28c2.77-6.62,5.28-13.36,8.36-19.83,7.61-16,14.66-32.15,20.16-49,1.46-4.47,2.73-9,4.14-13.68,1.22,1.25,1.4,2.91,1.9,4.36,5.44,15.81,10.7,31.69,14.43,48,2.45,10.71,3.42,21.63,4.27,32.55a202.44,202.44,0,0,1-1,45c-.15,1-.37,2-.56,3.05A138.44,138.44,0,0,1,85,341.47a184,184,0,0,1-31.23-34.24A20.39,20.39,0,0,1,52.66,305.28Z"/><path class="cls-5" d="M384.65,228.88a372.5,372.5,0,0,1-18.58-39.79,201.6,201.6,0,0,1-13.24-62.7c-.76-13.84-4.32-27.09-11.73-39-10.27-16.51-25.71-25.28-44.29-29.5-14.35-3.26-28.15-8.17-40.85-15.76-7.09-4.24-11.15-10.84-13.28-18.71,10,1.69,19.57,5,29,8.68a179.45,179.45,0,0,1,55.41,34.77,181.17,181.17,0,0,1,51.15,79.73,175.2,175.2,0,0,1,8.45,51.26C386.8,208.25,386.62,218.62,384.65,228.88Z"/><path class="cls-5" d="M163.94,23.53a32.29,32.29,0,0,1-17.55,21.12,180.28,180.28,0,0,1-38.64,13.78c-27.51,6.48-44.42,23.67-51.33,51-2.38,9.42-2.83,19-3.67,28.64-1.81,20.85-7.57,40.65-15.83,59.78-4.34,10.07-9,20-14.34,29.58-1.24-4.31-1.35-8.78-1.6-13.18-1.68-28.45,2.58-56,13.57-82.34A183.86,183.86,0,0,1,163.09,23.58,6,6,0,0,1,163.94,23.53Z"/><path class="cls-6" d="M91.08,101.76l.78.2,1,.33a2.51,2.51,0,0,1,1.75.64l1.1.49a18.67,18.67,0,0,1,7.75,5c3.29,3.69,3.19,8.09-.53,11.28A26.33,26.33,0,0,0,97,127.58c-6.85,12.62-11.18,26.23-15.73,39.76-7.21,21.41-14.59,42.76-21.8,64.17-2.61,7.75-3.62,15.83-4.16,24-.15,2.3.88,4.21,1.83,6.16,1.26,2.59,2,5.21-.21,7.65-2.49,2.73-5.32,4.88-9.35,4.4a3.81,3.81,0,0,1-2.78-2.19c-3.93-6.57-5-7-12.44-5.19a83.57,83.57,0,0,1-4.66-14.55c6-6,11.67-12.39,17.15-18.91,5.82-6.92,9.26-15.13,12.45-23.43a462.57,462.57,0,0,0,22.26-76.67,24.45,24.45,0,0,0,.08-6.78c-.49-6.06-.55-12.12,1.44-18,.9-2.64,1.77-5.5,5.07-6.28l1-.21a3.85,3.85,0,0,1,3.17.11Z"/><path class="cls-6" d="M375.23,265.49a38.08,38.08,0,0,0-4.22-.55c-2.89-.07-5,1-6.23,3.92-1.91,4.62-4.12,5.63-8,4-5.53-2.27-8-6.22-5.86-10.39s2.26-8.24,1.6-12.64a110.1,110.1,0,0,0-5.15-21.47c-9.32-25.79-18.47-51.64-27.75-77.44a160.94,160.94,0,0,0-11.2-24.17,21.71,21.71,0,0,0-5.21-6.29c-3.8-3.14-4.19-7.54-.9-11.24a23.48,23.48,0,0,1,14.27-7.51c3.17-.51,5.48.88,7,3.73a28.33,28.33,0,0,1,3,15.15,73.51,73.51,0,0,0,2.63,23.81,624.87,624.87,0,0,0,19.37,61.08A102.48,102.48,0,0,0,374.47,245c1.92,1.81,3.75,3.73,5.63,5.6A91.58,91.58,0,0,1,375.23,265.49Z"/><path class="cls-6" d="M211.26,19.69c4.11,1.54,4.84,2.79,4,7.07a32.52,32.52,0,0,1-1.16,4.67c-1.47,4.11-4.11,5.85-8.47,5.55a48.88,48.88,0,0,0-5.93,0c-4.21.24-6.85-1.51-8.25-5.47a32.19,32.19,0,0,1-1.28-5.23c-.68-3.88.14-5.16,4-6.58A88.12,88.12,0,0,1,211.26,19.69Z"/><path class="cls-6" d="M188.49,384.24a20.88,20.88,0,0,1,2.22-7.84,9.1,9.1,0,0,1,10.38-5,28.92,28.92,0,0,0,3.33.56c8.28.59,11.81,4.08,12.44,12.38A120.73,120.73,0,0,1,188.49,384.24Z"/><path class="cls-3" d="M36.21,275.49c1.82-1.31,3.73-2.41,5.92-.85a10.26,10.26,0,0,1,4.17,6.77c.14.82-1.06,1.88-1.68,2.82-.77,1.17-1.57,2.33-2.36,3.5C39.47,284,37.79,279.78,36.21,275.49Z"/><path class="cls-3" d="M366.33,285.48q-1.14-2-2.29-3.92c-1.72-2.87-1.47-4,1.47-7.33,1.93-2.2,4-3.06,6.72-1.35A48.64,48.64,0,0,1,366.33,285.48Z"/><path class="cls-6" d="M108.13,216.62a46.37,46.37,0,0,1-5.23-10.35c-1.34-4.28-.84-8.22,2.39-11.58.76-.8,1.6-1.54,2.69-.77s0,1.52-.33,2.18c-1.79,3.81-1.22,7.23,1.17,10.66,5.4,7.75,13.12,11.43,22.09,13.05,4.29.77,8.58,1.48,13,.8,9.8-1.53,14.88-11.27,10.51-20.12-.9-1.82-2.13-2.33-4.16-1.77a78.22,78.22,0,0,1-19.31,2.88c-7.93.18-14.28-3.16-19.64-8.66-2.52-2.57-4.37-5.69-6.36-8.68a5.76,5.76,0,0,1-.27-6.18c1.08-2.1,2.14-4.23,3-6.42.63-1.58,1.6-2,3.24-2,2.25,0,4.2,1,6.43,1.56-.66,1.3-2.06,1.33-3,1.95-3.82,2.42-4.31,5.3-1.23,8.64a29,29,0,0,0,20.61,9.44c7,.35,14,.42,21,.48a25.78,25.78,0,0,0,10.47-2.13c5.68-2.42,11.79-3.42,17.75-4.9,1.62-.4,2.19.38,2.66,1.71.57,1.61-.18,2.17-1.56,2.63a64.71,64.71,0,0,0-13.31,6.27c-5.8,3.52-7.1,9-6.9,15.13,0,.85.13,1.81,1.09,2.13,1.16.38,2-.45,2.73-1.15,6.15-5.61,12.69-10.77,19.1-16.08,1.61-1.34,2.3-1.14,3.24.64,3.72,7,3.06,13.77-2.13,20-15.68,18.95-31.71,37.61-46.23,57.49-3.74,5.12-7.18,10.44-10.5,15.84a29.22,29.22,0,0,1-6.7,8c-3.51,2.74-6.28,2.31-9-1.21s-3.51-7.3-4-11.37c-1-8.39-.73-16.61,3.1-24.41,1-2.12,2.11-2.86,4.59-2,4.62,1.61,4.68,1.42,3.14,6.1A129.32,129.32,0,0,0,117,283.91a9.41,9.41,0,0,0-.26,2c0,1.62-1,3.87,1,4.6,1.67.64,3.1-1.16,4.18-2.41a66,66,0,0,0,14-26.64c.87-3.28.57-3.45-2.81-3.55a64.41,64.41,0,0,1-17-2.64c-10.4-3.17-15.67-10.35-16.69-20.93a47.1,47.1,0,0,1,2.25-18.47c.63-2.06,1.4-2.4,3-.85a23.5,23.5,0,0,0,3,2.11c1.65,1.28.33,2.27-.33,3.31-5.58,8.79-3.77,16.64,5.33,21.74A36.07,36.07,0,0,0,138.9,246a13.84,13.84,0,0,0,7-3.47c2.95-3,2.17-6.82-1.67-8.31a38.76,38.76,0,0,0-8-2c-4.19-.68-8.43-.94-12.44-2.62C117.27,226.89,112.45,222.08,108.13,216.62Z"/><path class="cls-6" d="M302.81,213.41c3.27,9.07,4.5,17.9,1.93,27-1.94,6.91-6.54,11.35-13.07,13.94a54.31,54.31,0,0,1-20,3.45c-2.19,0-2.9.56-2.37,2.76a64.82,64.82,0,0,0,14.53,27.87,5,5,0,0,0,.84.76c1,.68,1.95,1.87,3.24,1.15,1.11-.62.92-2,.85-3.11a57.25,57.25,0,0,0-2.38-11.95c-1.31-4.54-2.73-9.05-4.19-13.54-.43-1.33-.29-2,1.16-2.54,5.76-2.11,6.45-2,8.61,3.85a42.38,42.38,0,0,1,.43,28.41c-3,9.21-8.77,10.24-14.65,2.58-4.59-6-8.34-12.62-12.73-18.77-14.59-20.42-31-39.38-47-58.7-5.84-7-6.5-13.54-2.43-20.94.93-1.69,1.52-1.57,2.86-.47,6.27,5.17,12.67,10.2,18.68,15.7.95.86,1.89,2.25,3.35,1.62s1.23-2.41,1.19-3.78c-.16-6.08-2.39-10.94-8-14a70.64,70.64,0,0,0-12.09-5.56c-1.4-.46-2.46-.88-1.83-2.73.53-1.55,1.34-2.05,3-1.62,6.66,1.75,13.49,2.93,19.83,5.83a15.32,15.32,0,0,0,5.55,1,169.1,169.1,0,0,0,27.19-.75,26.25,26.25,0,0,0,16-7.88c4.42-4.38,4-7.45-1.45-10.39l-1.91-1c1.29-1.1,2.8-1.26,4.14-1.64,3.55-1,4.44-.46,6.1,2.9,4.77,9.67,4.43,8.19-1.38,16.39-6,8.48-14.09,13-24.71,12.21a79.36,79.36,0,0,1-16.77-2.75c-2.61-.77-3.75.26-4.73,2.55a13.79,13.79,0,0,0,12.56,19.49c12.74-.16,24.7-2.4,33-13.55,2.71-3.62,3.34-7.29,1.34-11.38-.28-.59-1.19-1.24-.15-1.93a1.73,1.73,0,0,1,2.3.38,10.6,10.6,0,0,1,3.14,10.62c-2.94,13.19-16.26,25.22-29.61,26.81a50.5,50.5,0,0,0-11.93,2.45c-4.22,1.59-5,5.55-1.62,8.61,2.55,2.32,5.76,3.23,9.06,3.72A36.82,36.82,0,0,0,293.06,242c8.64-4.95,10.58-12.79,5.16-21.13-1.39-2.14-1.38-3.32.84-4.58A37,37,0,0,0,302.81,213.41Z"/><path class="cls-6" d="M203.24,231.88c-2.71-7-5.48-13.08-9.36-18.64-1.25-1.8-.84-3.82-.23-5.74.83-2.61,1.81-5.18,2.64-7.79s.05-5-2.53-6.19c-4.36-2-6-5.4-5.73-10.07.19-3.8-.91-7.48-1.63-11.19s-.23-6.79,2.64-9.6c3.35-3.28,4.15-7.47,1.72-11.11s-1.6-6.91-.17-10.18a21,21,0,0,0,1.86-10.71c-.33-3.77.11-7.56.24-11.33.08-2.23,1.18-3.36,3-3.24a118.19,118.19,0,0,0,14.21,0c2.11-.13,3.23,1.2,3.37,3.6.27,4.72.8,9.41,0,14.14-.38,2.33.63,4.43,1.38,6.58,1.33,3.84,2.44,7.44-.21,11.55-2.18,3.38-1.61,7.45,1.53,10.4s3.7,6.22,2.86,10.07a60.41,60.41,0,0,0-1.66,13.47c0,3.11-1.64,5.28-4.31,6.83-4.5,2.63-4.9,3.83-3.19,8.78.43,1.25.84,2.51,1.35,3.73,1.62,3.83,1.29,7-1.09,10.85A47.67,47.67,0,0,0,203.24,231.88Z"/><path class="cls-6" d="M238.07,92.45c.14,1.1-.87,1.12-1.45,1.4-6.81,3.23-13.48,6.84-20.93,8.55a4.31,4.31,0,0,0-3.26,3.21,13.74,13.74,0,0,0-.64,5.32c.12,1.14,0,1.78-1.41,1.76q-7.65-.06-15.31,0c-1.23,0-1.67-.46-1.6-1.69a18.32,18.32,0,0,0-.13-3.39c-.38-3-1.71-4.74-5-5.55-7.12-1.75-13.61-5.2-20.05-8.81,2.1.23,4.2.53,6.31.68a9.84,9.84,0,0,0,8.32-3.39c6.74-7.2,7.83-7.27,16-1.82,3.86,2.59,3.86,2.59,7.77-.07,7.91-5.38,9.11-5.39,15.52,1.52,3,3.23,6.42,4.11,10.47,3.53,1.85-.26,3.67-.82,5.5-1.25Z"/><path class="cls-6" d="M274.46,109.54c-.07-5.62,1.77-7.48,6.62-7.41a12,12,0,0,1,6.52,1.64c1.51,1,2.23.49,3.22-.67,2.15-2.53,4.39-5,5.59-8.14,1.56-4.08,4.93-6.31,8.26-8.64.74-.52,1.46-1,2.26-.17,2.17,2.19,5,3.78,6.15,6.9.62,1.67,1.66,3.18,2.35,4.84q1.31,3.17-2.12,2.87c-1.79-.15-3.56-.5-5.34-.78a6.86,6.86,0,0,0-6.49,1.94,27.34,27.34,0,0,1-2.59,2.2c-5.39,4.52-5.93,9.55-1.46,15.15,2.41,3,5.19,5.73,5,10.08-.13,4-3,6.6-4.62,9.83-.47.93-1.13.19-1.64-.14a125.81,125.81,0,0,1-14.94-11.25,6.23,6.23,0,0,1-1.76-3.16c-.26-.9-.36-2.08-1-2.6C274.27,118.47,275.73,113.22,274.46,109.54Z"/><path class="cls-6" d="M105.92,90.37l.62.68a1,1,0,0,0,.18.34l.4.73a.74.74,0,0,0,.28.45,6.09,6.09,0,0,1,1.42,2.6l.06.11.5.9a.91.91,0,0,0,.27.37l.31.68.32.47.26.61.39.54a29.52,29.52,0,0,1,2.53,3c1.43,2.17,3.08,3.23,5.55,1.59l.55-.23a12.34,12.34,0,0,1,8.06-.66l.8.26a2.38,2.38,0,0,1,2,1.82l.33.49.26,1.13a2.17,2.17,0,0,0,.35,1.71,5.75,5.75,0,0,1,0,2.94,2.24,2.24,0,0,0-.3,1.71.38.38,0,0,1-.06.51c-.79.64-.48,1.53-.51,2.34l-.12,3.33c-1,0-1.14,1-1.63,1.52l0,.16h-.17a.88.88,0,0,0-.27.24c-.59.75-1.17,1.51-1.75,2.27l-.06.17c-.13.48-.27,1-.4,1.44a.84.84,0,0,0-.11.49v0c-.67.33-.6,1-.64,1.56a6.93,6.93,0,0,1-2.76,2.42l-.62.53-.65.57-.45.39a35.47,35.47,0,0,1-6.3,4.74l-.57.43,0,.14-.14,0a2.46,2.46,0,0,0-.27.17l-.69.43-.57.45-.15.09a.9.9,0,0,0-.33.25l-.61.36-.62.45-.13.07a1.27,1.27,0,0,0-.31.2l-.63.42-2.38-.55-.47-.75a.75.75,0,0,0-.31-.37l-.83-1.45-.07-.12-.5-.86a.73.73,0,0,0-.3-.41c-2.68-4-2-8.89,1.65-12.57a.83.83,0,0,0,.36-.38,2.08,2.08,0,0,1,1.09-1.3l.54-.71c1.08-2,2.52-3.8,2.69-6.18l-.2-.47a4.73,4.73,0,0,1-.23-2.66,2.48,2.48,0,0,0-.24-1.83c-.28-1.17-1.4-1.69-2-2.6a.81.81,0,0,0-.38-.33,11.17,11.17,0,0,1-3-2.53.77.77,0,0,0-.36-.31,2.25,2.25,0,0,1-1.3-1.14l-.63-.52c-.2-.1-.39-.21-.58-.32l-.54-.25H95.82a2.27,2.27,0,0,0-1.69.3,3.45,3.45,0,0,1-2.32.27c-.47-.78-1.25-.54-1.94-.6-.78-1.93.71-3.12,1.47-4.55l.49-1,.84-1.89a.71.71,0,0,0,.28-.43l.3-.71a.73.73,0,0,0,.27-.43,7.16,7.16,0,0,1,3-2.9l.44-.42,1.55-1.35,1.92,0A23.31,23.31,0,0,1,105.46,90Z"/><path class="cls-1" d="M289.56,148.31a6.2,6.2,0,0,1,4.66,5.14c.68,4.57.16,8.73-3.91,12-7.16,5.67-15.51,8.13-24.28,9.45-14.24,2.13-28.47,1.28-42.67-.68-1.91-.27-2.62-1.06-2.4-2.92a14.19,14.19,0,0,0,0-2.84c-.15-1.75.6-2,2.19-1.73,21.53,3.85,42.14.57,62-8.17C289.68,156.53,290.71,154.28,289.56,148.31Z"/><path class="cls-1" d="M116,148.45c-1.06,6.26.19,8.11,6,10.63a104.5,104.5,0,0,0,61,7.59c1.63-.29,2.11.11,2.15,1.8.11,5.23.19,5.32-5.25,6-15.26,2-30.53,2.61-45.7-.71-7.47-1.64-14.5-4.32-20.17-9.74-2.89-2.78-3.79-9.54-1.69-12.94A5,5,0,0,1,116,148.45Z"/><path class="cls-6" d="M188.36,298a22.69,22.69,0,0,1,2.28-11c2.18-4.25,5.94-6,10.6-5.06,1.66.33,3.35.51,5,.72,5.94.73,9.08,3.44,10.25,9.25a28.39,28.39,0,0,1,.39,9.86c-.71,4.73-3.6,7.16-8.13,5.7a17.66,17.66,0,0,0-12.06-.05c-4.66,1.63-7.83-1.07-8.34-6.06A31.93,31.93,0,0,1,188.36,298Z"/><path class="cls-6" d="M217.13,328.33c0,.38,0,.76,0,1.14-.32,7.25-4.06,9.88-10.88,7.22-2.55-1-4.66-1.32-7.12,0a10.51,10.51,0,0,1-4.11.92c-3.3.25-5.57-1.24-6.22-4.5-1.17-5.88-.71-11.68,2.33-17,2.1-3.68,5.71-5.12,9.9-4.36,1.66.3,3.34.51,5,.7,6.12.7,9.6,3.9,10.6,10,.33,1.95.41,3.94.6,5.91Z"/><path class="cls-6" d="M217.12,358a2.81,2.81,0,0,1,0,.29c-.05,8.43-4.07,11.2-11.8,7.89-1.89-.8-3.41-1.09-5.25,0a10.26,10.26,0,0,1-4.61,1.24c-3.91.23-6.29-1.35-6.87-5.16-.83-5.41-.42-10.77,2.15-15.73,2.12-4.12,5.86-5.78,10.41-4.92,1.67.32,3.36.51,5,.72,6.25.79,9.51,3.86,10.48,10,.29,1.86.37,3.76.55,5.63Z"/><path class="cls-1" d="M271,132.75a7.08,7.08,0,0,0,4.93-1.9,1.63,1.63,0,0,1,2.05-.31,30.68,30.68,0,0,1,9.55,6.51c3.17,3.44,2.76,6.68-1.23,9.17-5.25,3.27-11.24,4.39-17.2,5.41-16.46,2.83-33.07,3.36-49.73,2.92-2.36-.07-3.21-.4-2.17-3,2.33-5.91,2.23-6.11,8.46-4.57,17.32,4.28,33.52.16,49.41-6.38,1.7-.7,4.05-1.54,4-3.61-.11-2.32-2.74-2.49-4.54-3.18C273.31,133.34,272.11,133.09,271,132.75Z"/><path class="cls-6" d="M204.37,280.24A34.43,34.43,0,0,1,193.73,279c-2.28-.72-3.62-2-3.89-4.56-.45-4.15-.93-8.28.1-12.38,1.29-5.1,4.5-7,9.55-5.53a10,10,0,0,0,6,.11c5.27-1.54,8.9.43,10.62,5.59,1.46,4.4,1.37,8.92.73,13.45-.25,1.79-1.56,2.51-3,3.06A26.71,26.71,0,0,1,204.37,280.24Z"/><path class="cls-1" d="M169.7,154.57c-14-.54-28.54-1.36-42.71-5.19a25.44,25.44,0,0,1-8.53-3.74c-3.15-2.31-3.57-5-1.13-8,2.67-3.33,6.34-5.33,10.14-7.07,1.05-.48,3.88,1.21,4.06,2.27.13.84-.55.85-1,1.06-1.61.7-4.06.88-4.13,2.91-.09,2.42,2.48,3.21,4.3,4,16.83,7.1,34.05,10.92,52.18,5.48,2.47-.74,3.71-.18,4.19,2.27a3.46,3.46,0,0,0,.19.54c2.05,5.4,2.05,5.44-3.62,5.5C179.15,154.61,174.71,154.57,169.7,154.57Z"/><path class="cls-1" d="M186,81.4a17.48,17.48,0,0,1-14.61,8.11,38.39,38.39,0,0,1-6.78-.25c-15-2-29.81,0-44.67,1.24a26.89,26.89,0,0,1-7.06-.25c-1.76-.32-3.72-.71-4.17-2.84s1.09-3.48,2.77-4.49a18.8,18.8,0,0,1,5.83-2.12c7.83-1.66,15.61-.46,23.42.25,12.59,1.14,25.19,2.46,37.88,2C180.88,83,183,82.2,186,81.4Z"/><path class="cls-1" d="M128.69,120.27c.49-.57.63-1.5,1.63-1.52.61.92.91,0,1.17-.27a15,15,0,0,1,3.92-3.23c4.08-2.51,5.75-2.37,9.83.82-.53.71-1.38.34-2,.61-.93.39-2.5-.13-2.78,1-.35,1.4,1.26,1.91,2.18,2.61,7,5.36,15.4,5.89,23.71,6.48a152.88,152.88,0,0,0,19.85,0c2-.12,3.27-.07,3.22,2.49,0,2.16.73,4-2.81,4.33-14,1.47-27.94,1.48-41.74-1.9-3.39-.83-6.89-1.22-10.26-2.13-4.65-1.26-5.69-3.12-4.81-7.91C130,120.55,130.11,119.83,128.69,120.27Z"/><path class="cls-1" d="M260.16,116.28c2.49-1.61,4.61-4,7.91-2.09,3.81,2.17,7.32,4.44,7.92,9.27a4.43,4.43,0,0,1-2.33,4.77,16,16,0,0,1-3.94,1.54c-17,4-34.19,6.2-51.71,3.61-2.13-.32-2.32-1.14-2.09-2.93.47-3.83.39-3.82,4.19-3.7,10.68.34,21.35.57,31.91-1.68a28.43,28.43,0,0,0,11.45-5.35c.66-.51,1.65-1,1.52-1.9-.16-1.07-1.32-.8-2.11-1S261.06,116.47,260.16,116.28Z"/><path class="cls-1" d="M219.87,82.08c17.14,2.63,34.06-.45,51-1.58,6.15-.4,12.28-.62,18.33.88a15,15,0,0,1,5.71,2.4c1.19.9,2.05,2,1.7,3.63s-1.49,2.08-2.84,2.45a24.88,24.88,0,0,1-9.3.28c-15.07-1.6-30.12-2.59-45.26-.76-7.14.86-13.83-.26-18.73-6.33C220.23,82.71,219.78,82.43,219.87,82.08Z"/><path class="cls-6" d="M195.82,252.57a9.46,9.46,0,0,0-5.24,1c-1.4.85-2.18.25-2.58-1a14,14,0,0,1,1.79-13c2.43-3.41,6-4,9.87-3.3a17.66,17.66,0,0,0,6.11,0c6.9-1.09,11.29,2.29,12.25,9.23a14.17,14.17,0,0,1-.53,7c-.39,1.05-.93,2-2.28,1.21a11.39,11.39,0,0,0-9.11-.59C202.4,254.27,199.05,252.44,195.82,252.57Z"/><path class="cls-1" d="M161.47,93.85c-3.27.57-6.15,1-9,1.58a18.23,18.23,0,0,0-5.31,1.9c-1.71,1-3.27,2.14-3.27,4.29s1.89,2.91,3.52,3.63c7.08,3.12,14.67,4.32,22.23,5.49,6,.92,12,1.65,18,2.25,1.89.2,2.75,1,3,2.7.22,1.89-1,2.77-2.56,3.18-4.15,1.06-8.3.4-12.39-.25a197,197,0,0,1-31-8.06,23.39,23.39,0,0,1-5.09-2.45c-4.25-2.7-4.49-6.06-.68-9.43,3.15-2.78,7.07-4.3,10.7-6.32C154,89.92,157.58,91,161.47,93.85Z"/><path class="cls-1" d="M243.81,94c3.9-3,7.46-4,11.77-1.67,3.73,2,7.72,3.59,10.93,6.46,3.78,3.38,3.5,6.71-.8,9.4a22.44,22.44,0,0,1-4.83,2.34c-11.21,3.74-22.54,7-34.3,8.57a25.4,25.4,0,0,1-8.74,0c-1.64-.35-3.16-1-3.07-3.08s1.21-2.76,3.29-3c10.71-1.12,21.41-2.36,31.88-5a39.65,39.65,0,0,0,8.81-3.06c3.56-1.87,3.73-4.62.41-7-2.7-1.88-5.87-2.55-9-3.1C248.19,94.5,246.24,94.28,243.81,94Z"/><path class="cls-6" d="M203.13,40.45c2.43,0,5.36-.39,8.24.43,3.48,1,4.63,2.72,4,6.28a35,35,0,0,1-1.14,5c-1.41,4.4-4.11,6.24-8.73,5.92a55.85,55.85,0,0,0-5.93,0c-4.32.18-6.75-1.41-8.18-5.48a31.09,31.09,0,0,1-1.35-6.06c-.42-3,.67-4.55,3.59-5.51S199.63,40.41,203.13,40.45Z"/><path class="cls-1" d="M202.69,59.94c3.12-.1,6.24-.31,9.31.43,3.26.79,4,2.08,3.13,5.3-1.37,5-4,7.12-9.22,6.84a58.47,58.47,0,0,0-6.21,0c-5.36.27-8.09-1.82-9.4-7-.79-3.08-.05-4.34,3.08-5.13S199.58,59.86,202.69,59.94Z"/><path class="cls-1" d="M202.71,85.06c-1.88-.14-3.78-.12-5.63-.44-3-.5-4.52-2.27-4.41-4.66a4.64,4.64,0,0,1,5-4.69c3.38.11,6.74.13,10.12,0a4.59,4.59,0,0,1,5,4.41c.22,2.46-1.27,4.27-4.12,4.92A32.68,32.68,0,0,1,202.71,85.06Z"/><path class="cls-1" d="M89.87,100c.69.06,1.47-.18,1.94.6-.31.34-1,.47-.73,1.16l-.76-.13Z"/><path class="cls-1" d="M107.06,138.09l2.38.55C108.28,140,107.45,140,107.06,138.09Z"/><path class="cls-1" d="M100.4,86.35l-1.92,0C99.13,85.21,99.77,85.48,100.4,86.35Z"/><path class="cls-1" d="M130.44,115.42c0-.81-.28-1.7.51-2.34A3.09,3.09,0,0,1,130.44,115.42Z"/><path class="cls-1" d="M94.13,100.33a2.27,2.27,0,0,1,1.69-.3A2,2,0,0,1,94.13,100.33Z"/><path class="cls-1" d="M131,112.57a2.24,2.24,0,0,1,.3-1.71Z"/><path class="cls-1" d="M110.24,108a2.48,2.48,0,0,1,.24,1.83A2.26,2.26,0,0,1,110.24,108Z"/><path class="cls-1" d="M131.35,107.92a2.17,2.17,0,0,1-.35-1.71A1.92,1.92,0,0,1,131.35,107.92Z"/><path class="cls-1" d="M125.27,126.57c0-.59,0-1.23.64-1.56A1.55,1.55,0,0,1,125.27,126.57Z"/><path class="cls-1" d="M95.75,103.42l-1.1-.49A1.08,1.08,0,0,1,95.75,103.42Z"/><path class="cls-1" d="M92.9,102.29l-1-.33A.9.9,0,0,1,92.9,102.29Z"/><path class="cls-1" d="M87.15,101.52l-1,.21A.68.68,0,0,1,87.15,101.52Z"/><path class="cls-6" d="M238.12,92.45l.58,0-.63,0Z"/><path class="cls-1" d="M91.83,94.46l-.49,1Z"/><path class="cls-1" d="M93.52,91a.73.73,0,0,1-.27.43Z"/><path class="cls-1" d="M110.71,112.52l.2.47A.32.32,0,0,1,110.71,112.52Z"/><path class="cls-1" d="M107.85,105.1a.81.81,0,0,1,.38.33Z"/><path class="cls-1" d="M108.22,119.17l-.54.71Z"/><path class="cls-1" d="M128.22,120.67a.88.88,0,0,1,.27-.24l-.05.23Z"/><path class="cls-1" d="M106.28,137a.75.75,0,0,1,.31.37Z"/><path class="cls-1" d="M110.07,138.22a1.27,1.27,0,0,1,.31-.2l-.1.2Z"/><path class="cls-1" d="M130.74,105.08l-.33-.49Z"/><path class="cls-1" d="M119.56,103.17l-.55.23Z"/><path class="cls-1" d="M112.22,136.8l.57-.45Z"/><path class="cls-1" d="M111.74,137.14a.9.9,0,0,1,.33-.25C112.05,137.1,111.94,137.18,111.74,137.14Z"/><path class="cls-1" d="M113.48,135.92a2.46,2.46,0,0,1,.27-.17l-.07.21Z"/><path class="cls-1" d="M128.42,102.77l-.8-.26Z"/><path class="cls-1" d="M113.92,135.65l.57-.43Z"/><path class="cls-1" d="M104.46,102.26a.77.77,0,0,1,.36.31Z"/><polygon class="cls-1" points="105.38 135.4 105.45 135.52 105.28 135.48 105.38 135.4"/><path class="cls-1" d="M104.58,134.13a.73.73,0,0,1,.3.41Z"/><path class="cls-1" d="M101.41,100l.54.25Z"/><path class="cls-1" d="M102.53,100.6l.63.52Z"/><path class="cls-1" d="M121.89,129.52l.62-.53Z"/><path class="cls-1" d="M110.51,138l.62-.45Z"/><path class="cls-1" d="M110.93,98.85l-.39-.54Z"/><path class="cls-1" d="M110.28,97.7l-.32-.47Z"/><path class="cls-1" d="M109.65,96.55a.91.91,0,0,1-.27-.37Z"/><path class="cls-1" d="M96.93,87.68l-.44.42Z"/><path class="cls-1" d="M105.92,90.37l-.46-.38Z"/><path class="cls-1" d="M120.79,130.48l.45-.39Z"/><path class="cls-1" d="M125.9,125a.84.84,0,0,1,.11-.49,2.35,2.35,0,0,1,0,.37S126,125,125.9,125Z"/><polygon class="cls-1" points="126.41 123.11 126.47 122.94 126.57 123.03 126.41 123.11"/><polygon class="cls-1" points="108.88 95.28 108.82 95.17 108.99 95.21 108.88 95.28"/><path class="cls-1" d="M93,92.14a.71.71,0,0,1-.28.43C92.76,92.43,92.86,92.29,93,92.14Z"/><path class="cls-1" d="M106.72,91.39a1,1,0,0,1-.18-.34l.21.12Z"/><path class="cls-1" d="M106.59,121.18a.83.83,0,0,1-.36.38Z"/><path class="cls-1" d="M107.4,92.57a.74.74,0,0,1-.28-.45Z"/><path class="cls-4" d="M108.13,216.62c4.32,5.46,9.14,10.27,15.73,13,4,1.68,8.25,1.94,12.44,2.62a38.76,38.76,0,0,1,8,2c3.84,1.49,4.62,5.32,1.67,8.31a13.84,13.84,0,0,1-7,3.47,36.07,36.07,0,0,1-26.3-3.88c-9.1-5.1-10.91-12.95-5.33-21.74.66-1,2-2,.33-3.31Z"/></svg>